<svg xmlns="http://www.w3.org/2000/svg">
<defs>
<font id="DBFuthairaBodyX-Light" horiz-adv-x="0" >
  <font-face 
    font-family="DB Futhaira Body X Light"
    font-weight="300"
    font-stretch="normal"
    units-per-em="4096"
    panose-1="2 0 5 6 0 0 0 2 0 4"
    ascent="3276"
    descent="-820"
    x-height="1608"
    cap-height="2323"
    bbox="-2129 -1083 3471 3329"
    underline-thickness="143"
    underline-position="-390"
    unicode-range="U+0020-U+F880"
  />
<missing-glyph horiz-adv-x="1696" 
d="M1729 1638v-57h24c19.333 0 29 12.333 29 37c0 2 -2.16699 5.83301 -6.5 11.5s-11.833 8.5 -22.5 8.5h-24zM1741 1577h-12v-57h-21v139h45c32.667 0 49 -13.667 49 -41c0 -18.667 -4.16699 -30.167 -12.5 -34.5s-17.833 -6.5 -28.5 -6.5l41 -57h-20zM1753 1499
c17.333 0 31.832 2.66797 43.499 8.00098s21 12.166 28 20.499s11.833 17.333 14.5 27s4 18.5 4 26.5c0 30.667 -7.16699 54.667 -21.5 72s-37.166 26 -68.499 26c-30.667 0 -54 -8.66699 -70 -26s-24 -41.333 -24 -72c0 -22.667 7.5 -42 22.5 -58s38.833 -24 71.5 -24z
M1753 1692c35.333 0 61.167 -10.833 77.5 -32.5s24.5 -47.834 24.5 -78.501c0 -11.333 -2 -22.5 -6 -33.5s-10.167 -21 -18.5 -30s-19 -16.333 -32 -22s-28.167 -8.5 -45.5 -8.5c-16 0 -30.667 2.83301 -44 8.5s-24.5 13 -33.5 22s-16 19 -21 30s-7.5 22.167 -7.5 33.5
c0 30.667 9.5 56.834 28.5 78.501s44.833 32.5 77.5 32.5zM823 1294c28.667 -2 61.3311 -4.99902 97.998 -8.99902s74.667 -9 114 -15s78.833 -12.833 118.5 -20.5s77 -16.167 112 -25.5s66.333 -19.333 94 -30s49.5 -22.334 65.5 -35.001
c-27.333 54 -63 102.167 -107 144.5s-92.833 78 -146.5 107s-110.667 51 -171 66s-120.833 22.5 -181.5 22.5c-46 0 -91.333 -4.33301 -136 -13s-87.5 -22 -128.5 -40s-79.333 -40.667 -115 -68s-67.5 -59.333 -95.5 -96c49.333 6 98.5 10.167 147.5 12.5
s98.167 3.5 147.5 3.5c30.667 0 61.334 -0.166992 92.001 -0.5s61.334 -1.5 92.001 -3.5zM1536 1618l-0.000976562 -582c-65.333 20.667 -135.833 40 -211.5 58s-155.167 33.667 -238.5 47s-169.666 23.833 -258.999 31.5s-180.666 11.5 -273.999 11.5

<glyph glyph-name="plusminus" unicode="&#x2b;&#x2d;" horiz-adv-x="1628" 
d="M88 154h1455v-154h-1455v154zM737 1607h157v-580h650v-158h-650v-580h-157v580h-650v158h650v580z" />
    <glyph glyph-name="ellipsis" unicode="&#x2e;&#x2e;&#x2e;" horiz-adv-x="3482" 
d="M581 261c20 0 38.667 -3.66699 56 -11s32.5 -17.5 45.5 -30.5s23.167 -28.167 30.5 -45.5s11 -36 11 -56s-3.66699 -38.667 -11 -56s-17.5 -32.5 -30.5 -45.5s-28.167 -23.167 -45.5 -30.5s-36 -11 -56 -11s-38.667 3.66699 -56 11s-32.333 17.5 -45 30.5
s-22.667 28.167 -30 45.5s-11 36 -11 56s3.66699 38.667 11 56s17.333 32.5 30 45.5s27.667 23.167 45 30.5s36 11 56 11zM1741 261c20 0 38.667 -3.66699 56 -11s32.5 -17.5 45.5 -30.5s23.167 -28.167 30.5 -45.5s11 -36 11 -56s-3.66699 -38.667 -11 -56
s-17.5 -32.5 -30.5 -45.5s-28.167 -23.167 -45.5 -30.5s-36 -11 -56 -11s-38.667 3.66699 -56 11s-32.5 17.5 -45.5 30.5s-23.167 28.167 -30.5 45.5s-11 36 -11 56s3.66699 38.667 11 56s17.5 32.5 30.5 45.5s28.167 23.167 45.5 30.5s36 11 56 11zM2900 261
c20 0 38.667 -3.66699 56 -11s32.5 -17.5 45.5 -30.5s23.167 -28.167 30.5 -45.5s11 -36 11 -56s-3.66699 -38.667 -11 -56s-17.5 -32.5 -30.5 -45.5s-28.167 -23.167 -45.5 -30.5s-36 -11 -56 -11s-38.667 3.66699 -56 11s-32.5 17.5 -45.5 30.5s-23.167 28.167 -30.5 45.5
s-11 36 -11 56s3.66699 38.667 11 56s17.5 32.5 30.5 45.5s28.167 23.167 45.5 30.5s36 11 56 11z" />
    <glyph glyph-name="lessequal" unicode="&#x3c;&#x3d;" horiz-adv-x="2032" 
d="M176 192v125h1676v-125h-1676zM1854 612v-150l-1677 770v173l1677 731v-151l-1507 -668z" />
    <glyph glyph-name="greaterequal" unicode="&#x3e;&#x3d;" horiz-adv-x="2032" 
d="M180 192v125h1676v-125h-1676zM1685 1317l-1507 668v151l1677 -731v-173l-1677 -770v150z" />
    <glyph glyph-name="fongmanfunnuthai" unicode="&#xe4f;&#x22;" horiz-adv-x="1855" 
d="M1061 1881l-20 422h161l-20 -422h-121zM693 1881l-20 422h165l-20 -422h-125zM131 932c0 76 9.5 148.333 28.5 217s45.833 132.334 80.5 191.001s76.334 111.5 125.001 158.5s102.667 87 162 120s123.5 58.333 192.5 76s140.833 26.5 215.5 26.5
s146.5 -8.83301 215.5 -26.5s133.167 -43 192.5 -76s113.333 -73 162 -120s90.334 -99.833 125.001 -158.5s61.5 -122.334 80.5 -191.001s28.5 -141 28.5 -217c0 -76.667 -9.5 -149.167 -28.5 -217.5s-45.833 -131.833 -80.5 -190.5s-76.334 -111.5 -125.001 -158.5
s-102.667 -87 -162 -120s-123.5 -58.333 -192.5 -76s-140.833 -26.5 -215.5 -26.5s-146.5 8.83301 -215.5 26.5s-133.167 43 -192.5 76s-113.333 73 -162 120s-90.334 99.833 -125.001 158.5s-61.5 122.167 -80.5 190.5s-28.5 140.833 -28.5 217.5zM1573 932
c0 92.667 -16.5 177.334 -49.5 254.001s-78.167 142.667 -135.5 198s-124.833 98.333 -202.5 129s-161.167 46 -250.5 46s-172.833 -15.333 -250.5 -46s-145.167 -73.667 -202.5 -129s-102.5 -121.333 -135.5 -198s-49.5 -161.334 -49.5 -254.001
s16.5 -177.334 49.5 -254.001s78.167 -142.667 135.5 -198s124.833 -98.333 202.5 -129s161.167 -46 250.5 -46s172.833 15.333 250.5 46s145.167 73.667 202.5 129s102.5 121.333 135.5 198s49.5 161.334 49.5 254.001zM1261 931c0 46.667 -8.66699 89.667 -26 129
s-40.666 73.333 -69.999 102s-63.833 51 -103.5 67s-81.834 24 -126.501 24s-86.834 -8 -126.501 -24s-74.167 -38.333 -103.5 -67s-52.666 -62.667 -69.999 -102s-26 -82.333 -26 -129s8.66699 -89.667 26 -129s40.666 -73.333 69.999 -102s63.833 -51 103.5 -67
s81.834 -24 126.501 -24s86.834 8 126.501 24s74.167 38.333 103.5 67s52.666 62.667 69.999 102s26 82.333 26 129z" />
    <glyph glyph-name="dochadaphinthuthai" unicode="&#xe0e;&#xe3a;" horiz-adv-x="1879" 
d="M1384 -710c0 -15.333 2.5 -30.333 7.5 -45s12.5 -27.667 22.5 -39s22.167 -20.5 36.5 -27.5s30.5 -10.5 48.5 -10.5c18.667 0 35.334 3.5 50.001 10.5s27 16.333 37 28s17.5 24.667 22.5 39s7.5 29.166 7.5 44.499c0 16 -2.5 31.333 -7.5 46s-12.5 27.834 -22.5 39.501
s-22.333 20.834 -37 27.501s-31.334 10 -50.001 10s-35.167 -3.5 -49.5 -10.5s-26.333 -16.333 -36 -28s-17 -24.834 -22 -39.501s-7.5 -29.667 -7.5 -45zM346 -352l845.999 -4.99707c38 0 72.5 5.83301 103.5 17.5s57.333 28.667 79 51s38.334 49.5 50.001 81.5
s17.5 67.667 17.5 107v1365c0 70 -12.5 133.667 -37.5 191s-59.667 106.166 -104 146.499s-97.166 71.666 -158.499 93.999s-128 33.5 -200 33.5c-68 0 -132.5 -11.333 -193.5 -34s-114.667 -54.5 -161 -95.5s-83 -90 -110 -147s-40.5 -120.167 -40.5 -189.5v-1264h-164
v1287c0 53.333 7.5 105.333 22.5 156s36.333 98.167 64 142.5s61.334 85 101.001 122s84.167 69 133.5 96s103.166 47.833 161.499 62.5s120.166 22 185.499 22c102.667 0 195 -16.333 277 -49s151.833 -76.834 209.5 -132.501s101.834 -120.167 132.501 -193.5
s46 -151 46 -233v-1372c0 -59.333 -9.66699 -114.5 -29 -165.5s-46.833 -95 -82.5 -132s-78.834 -65.833 -129.501 -86.5s-107.667 -30.667 -171 -30l-921 8z" />
    <glyph glyph-name="topatakphintuthai" unicode="&#xe0f;&#xe3a;" horiz-adv-x="1879" 
d="M1385 -710c0 15.333 2.5 30.333 7.5 45s12.333 27.834 22 39.501s21.667 21 36 28s30.833 10.5 49.5 10.5s35.334 -3.33301 50.001 -10s27 -15.834 37 -27.501s17.5 -24.834 22.5 -39.501s7.5 -30 7.5 -46c0 -15.333 -2.5 -30.166 -7.5 -44.499s-12.5 -27.333 -22.5 -39
s-22.333 -21 -37 -28s-31.334 -10.5 -50.001 -10.5c-18 0 -34.167 3.5 -48.5 10.5s-26.5 16.167 -36.5 27.5s-17.5 24.333 -22.5 39s-7.5 29.667 -7.5 45zM351 -189c18 -52 45.5029 -93.3291 82.5029 -123.996s84.5 -46 142.5 -46c34.667 0 64.667 5.5 90 16.5
s47.166 26 65.499 45s33.666 41.333 45.999 67s22.833 53.167 31.5 82.5h67h47c14 0 21.667 0.333008 23 1c8.66699 -29.333 20.167 -57 34.5 -83s31.833 -48.5 52.5 -67.5s44.834 -34 72.501 -45s59.5 -16.5 95.5 -16.5c35.333 0 67.833 6 97.5 18s55.167 29.167 76.5 51.5
s37.833 49.333 49.5 81s17.5 67.167 17.5 106.5v1367c0 70 -12.5 133.667 -37.5 191s-59.667 106.166 -104 146.499s-97.166 71.666 -158.499 93.999s-128 33.5 -200 33.5c-68 0 -132.5 -11.333 -193.5 -34s-114.667 -54.5 -161 -95.5s-83 -90 -110 -147
s-40.5 -120.167 -40.5 -189.5v-1264h-164v1287c0 53.333 7.5 105.333 22.5 156s36.333 98.167 64 142.5s61.334 85 101.001 122s84.167 69 133.5 96s103.166 47.833 161.499 62.5s120.166 22 185.499 22c102.667 0 195 -16.333 277 -49s151.833 -76.834 209.5 -132.501
s101.834 -120.167 132.501 -193.5s46 -151 46 -233v-1374c0 -59.333 -9.5 -114.333 -28.5 -165s-46.333 -94.5 -82 -131.5s-78.834 -66 -129.501 -87s-107.667 -31.5 -171 -31.5c-38.667 0 -75.5 5.33301 -110.5 16s-66.5 25 -94.5 43s-51.833 38.833 -71.5 62.5
s-33.834 48.5 -42.501 74.5c-10 -25.333 -23.5 -49.666 -40.5 -72.999s-38 -43.833 -63 -61.5s-53.833 -31.834 -86.5 -42.501s-69.334 -16 -110.001 -16c-43.333 0 -83.5 6.66699 -120.5 20s-70.5 31.333 -100.5 54s-55.833 49.167 -77.5 79.5s-38.167 62.166 -49.5 95.499
z" />
    <glyph glyph-name="dochadasarauthai" unicode="&#xe0e;&#xe38;" horiz-adv-x="1879" 
d="M1451 -1000v254l-144 -1v145h294v-398h-150zM346 -352l845.999 -4.99707c38 0 72.5 5.83301 103.5 17.5s57.333 28.667 79 51s38.334 49.5 50.001 81.5s17.5 67.667 17.5 107v1365c0 70 -12.5 133.667 -37.5 191s-59.667 106.166 -104 146.499
s-97.166 71.666 -158.499 93.999s-128 33.5 -200 33.5c-68 0 -132.5 -11.333 -193.5 -34s-114.667 -54.5 -161 -95.5s-83 -90 -110 -147s-40.5 -120.167 -40.5 -189.5v-1264h-164v1287c0 53.333 7.5 105.333 22.5 156s36.333 98.167 64 142.5s61.334 85 101.001 122
s84.167 69 133.5 96s103.166 47.833 161.499 62.5s120.166 22 185.499 22c102.667 0 195 -16.333 277 -49s151.833 -76.834 209.5 -132.501s101.834 -120.167 132.501 -193.5s46 -151 46 -233v-1372c0 -59.333 -9.66699 -114.5 -29 -165.5s-46.833 -95 -82.5 -132
s-78.834 -65.833 -129.501 -86.5s-107.667 -30.667 -171 -30l-921 8z" />
    <glyph glyph-name="topataksarauthai" unicode="&#xe0f;&#xe38;" horiz-adv-x="1879" 
d="M1451 -1000v254l-144 -1v145h294v-398h-150zM351 -189c18 -52 45.5029 -93.3291 82.5029 -123.996s84.5 -46 142.5 -46c34.667 0 64.667 5.5 90 16.5s47.166 26 65.499 45s33.666 41.333 45.999 67s22.833 53.167 31.5 82.5h67h47c14 0 21.667 0.333008 23 1
c8.66699 -29.333 20.167 -57 34.5 -83s31.833 -48.5 52.5 -67.5s44.834 -34 72.501 -45s59.5 -16.5 95.5 -16.5c35.333 0 67.833 6 97.5 18s55.167 29.167 76.5 51.5s37.833 49.333 49.5 81s17.5 67.167 17.5 106.5v1367c0 70 -12.5 133.667 -37.5 191
s-59.667 106.166 -104 146.499s-97.166 71.666 -158.499 93.999s-128 33.5 -200 33.5c-68 0 -132.5 -11.333 -193.5 -34s-114.667 -54.5 -161 -95.5s-83 -90 -110 -147s-40.5 -120.167 -40.5 -189.5v-1264h-164v1287c0 53.333 7.5 105.333 22.5 156s36.333 98.167 64 142.5
s61.334 85 101.001 122s84.167 69 133.5 96s103.166 47.833 161.499 62.5s120.166 22 185.499 22c102.667 0 195 -16.333 277 -49s151.833 -76.834 209.5 -132.501s101.834 -120.167 132.501 -193.5s46 -151 46 -233v-1374c0 -59.333 -9.5 -114.333 -28.5 -165
s-46.333 -94.5 -82 -131.5s-78.834 -66 -129.501 -87s-107.667 -31.5 -171 -31.5c-38.667 0 -75.5 5.33301 -110.5 16s-66.5 25 -94.5 43s-51.833 38.833 -71.5 62.5s-33.834 48.5 -42.501 74.5c-10 -25.333 -23.5 -49.666 -40.5 -72.999s-38 -43.833 -63 -61.5
s-53.833 -31.834 -86.5 -42.501s-69.334 -16 -110.001 -16c-43.333 0 -83.5 6.66699 -120.5 20s-70.5 31.333 -100.5 54s-55.833 49.167 -77.5 79.5s-38.167 62.166 -49.5 95.499z" />
    <glyph glyph-name="dochadasarauuthai" unicode="&#xe0e;&#xe39;" horiz-adv-x="1879" 
d="M1097 -1058c-66.667 0 -128 10.167 -184 30.5s-105.5 48.833 -148.5 85.5s-79.167 80.667 -108.5 132s-51 108.333 -65 171l157 41c8 -48 22.833 -91.333 44.5 -130s48 -71.5 79 -98.5s65.833 -47.667 104.5 -62s79 -21.5 121 -21.5s82.333 7.16699 121 21.5
s73.5 35 104.5 62s57.333 59.833 79 98.5s36.5 82 44.5 130l157 -41c-14 -62.667 -35.667 -119.667 -65 -171s-65.5 -95.333 -108.5 -132s-92.5 -65.167 -148.5 -85.5s-117.333 -30.5 -184 -30.5zM346 -352l845.999 -4.99707c38 0 72.5 5.83301 103.5 17.5
s57.333 28.667 79 51s38.334 49.5 50.001 81.5s17.5 67.667 17.5 107v1365c0 70 -12.5 133.667 -37.5 191s-59.667 106.166 -104 146.499s-97.166 71.666 -158.499 93.999s-128 33.5 -200 33.5c-68 0 -132.5 -11.333 -193.5 -34s-114.667 -54.5 -161 -95.5
s-83 -90 -110 -147s-40.5 -120.167 -40.5 -189.5v-1264h-164v1287c0 53.333 7.5 105.333 22.5 156s36.333 98.167 64 142.5s61.334 85 101.001 122s84.167 69 133.5 96s103.166 47.833 161.499 62.5s120.166 22 185.499 22c102.667 0 195 -16.333 277 -49
s151.833 -76.834 209.5 -132.501s101.834 -120.167 132.501 -193.5s46 -151 46 -233v-1372c0 -59.333 -9.66699 -114.5 -29 -165.5s-46.833 -95 -82.5 -132s-78.834 -65.833 -129.501 -86.5s-107.667 -30.667 -171 -30l-921 8z" />
    <glyph glyph-name="topataksarauuthai" unicode="&#xe0f;&#xe39;" horiz-adv-x="1879" 
d="M1097 -1058c-66.667 0 -128 10.167 -184 30.5s-105.5 48.833 -148.5 85.5s-79.167 80.667 -108.5 132s-51 108.333 -65 171l157 41c8 -48 22.833 -91.333 44.5 -130s48 -71.5 79 -98.5s65.833 -47.667 104.5 -62s79 -21.5 121 -21.5s82.333 7.16699 121 21.5
s73.5 35 104.5 62s57.333 59.833 79 98.5s36.5 82 44.5 130l157 -41c-14 -62.667 -35.667 -119.667 -65 -171s-65.5 -95.333 -108.5 -132s-92.5 -65.167 -148.5 -85.5s-117.333 -30.5 -184 -30.5zM351 -189c18 -52 45.5029 -93.3291 82.5029 -123.996s84.5 -46 142.5 -46
c34.667 0 64.667 5.5 90 16.5s47.166 26 65.499 45s33.666 41.333 45.999 67s22.833 53.167 31.5 82.5h67h47c14 0 21.667 0.333008 23 1c8.66699 -29.333 20.167 -57 34.5 -83s31.833 -48.5 52.5 -67.5s44.834 -34 72.501 -45s59.5 -16.5 95.5 -16.5
c35.333 0 67.833 6 97.5 18s55.167 29.167 76.5 51.5s37.833 49.333 49.5 81s17.5 67.167 17.5 106.5v1367c0 70 -12.5 133.667 -37.5 191s-59.667 106.166 -104 146.499s-97.166 71.666 -158.499 93.999s-128 33.5 -200 33.5c-68 0 -132.5 -11.333 -193.5 -34
s-114.667 -54.5 -161 -95.5s-83 -90 -110 -147s-40.5 -120.167 -40.5 -189.5v-1264h-164v1287c0 53.333 7.5 105.333 22.5 156s36.333 98.167 64 142.5s61.334 85 101.001 122s84.167 69 133.5 96s103.166 47.833 161.499 62.5s120.166 22 185.499 22
c102.667 0 195 -16.333 277 -49s151.833 -76.834 209.5 -132.501s101.834 -120.167 132.501 -193.5s46 -151 46 -233v-1374c0 -59.333 -9.5 -114.333 -28.5 -165s-46.333 -94.5 -82 -131.5s-78.834 -66 -129.501 -87s-107.667 -31.5 -171 -31.5
c-38.667 0 -75.5 5.33301 -110.5 16s-66.5 25 -94.5 43s-51.833 38.833 -71.5 62.5s-33.834 48.5 -42.501 74.5c-10 -25.333 -23.5 -49.666 -40.5 -72.999s-38 -43.833 -63 -61.5s-53.833 -31.834 -86.5 -42.501s-69.334 -16 -110.001 -16
c-43.333 0 -83.5 6.66699 -120.5 20s-70.5 31.333 -100.5 54s-55.833 49.167 -77.5 79.5s-38.167 62.166 -49.5 95.499z" />
    <glyph glyph-name=".notdef" horiz-adv-x="1696" 
d="M1729 1638v-57h24c19.333 0 29 12.333 29 37c0 2 -2.16699 5.83301 -6.5 11.5s-11.833 8.5 -22.5 8.5h-24zM1741 1577h-12v-57h-21v139h45c32.667 0 49 -13.667 49 -41c0 -18.667 -4.16699 -30.167 -12.5 -34.5s-17.833 -6.5 -28.5 -6.5l41 -57h-20zM1753 1499
c17.333 0 31.832 2.66797 43.499 8.00098s21 12.166 28 20.499s11.833 17.333 14.5 27s4 18.5 4 26.5c0 30.667 -7.16699 54.667 -21.5 72s-37.166 26 -68.499 26c-30.667 0 -54 -8.66699 -70 -26s-24 -41.333 -24 -72c0 -22.667 7.5 -42 22.5 -58s38.833 -24 71.5 -24z
M1753 1692c35.333 0 61.167 -10.833 77.5 -32.5s24.5 -47.834 24.5 -78.501c0 -11.333 -2 -22.5 -6 -33.5s-10.167 -21 -18.5 -30s-19 -16.333 -32 -22s-28.167 -8.5 -45.5 -8.5c-16 0 -30.667 2.83301 -44 8.5s-24.5 13 -33.5 22s-16 19 -21 30s-7.5 22.167 -7.5 33.5
c0 30.667 9.5 56.834 28.5 78.501s44.833 32.5 77.5 32.5zM823 1294c28.667 -2 61.3311 -4.99902 97.998 -8.99902s74.667 -9 114 -15s78.833 -12.833 118.5 -20.5s77 -16.167 112 -25.5s66.333 -19.333 94 -30s49.5 -22.334 65.5 -35.001
c-27.333 54 -63 102.167 -107 144.5s-92.833 78 -146.5 107s-110.667 51 -171 66s-120.833 22.5 -181.5 22.5c-46 0 -91.333 -4.33301 -136 -13s-87.5 -22 -128.5 -40s-79.333 -40.667 -115 -68s-67.5 -59.333 -95.5 -96c49.333 6 98.5 10.167 147.5 12.5
s98.167 3.5 147.5 3.5c30.667 0 61.334 -0.166992 92.001 -0.5s61.334 -1.5 92.001 -3.5zM1536 1618l-0.000976562 -582c-65.333 20.667 -135.833 40 -211.5 58s-155.167 33.667 -238.5 47s-169.666 23.833 -258.999 31.5s-180.666 11.5 -273.999 11.5
c-66 0 -130.667 -2 -194 -6s-127 -10.333 -191 -19c16 61.333 42 119.833 78 175.5s81.167 104.5 135.5 146.5s117.5 75.333 189.5 100s152 37 240 37c84.667 0 161.167 -9.5 229.5 -28.5s128 -42.5 179 -70.5s93.667 -57.833 128 -89.5s60.166 -60.5 77.499 -86.5
c0 -2 -0.166992 1.66699 -0.5 11s-0.5 22 -0.5 38s-0.333008 34.333 -1 55s-1 41.5 -1 62.5s-0.166992 41 -0.5 60s-0.5 35.167 -0.5 48.5h115zM626.996 520.002c0 22.667 -7.5 39.334 -22.5 50.001s-30.833 16 -47.5 16c-18.667 0 -35 -5.33301 -49 -16
s-21 -27.334 -21 -50.001s7 -38.5 21 -47.5s30.333 -13.5 49 -13.5c8 0 16.167 1 24.5 3s15.833 5.5 22.5 10.5s12.167 11.333 16.5 19s6.5 17.167 6.5 28.5zM130.996 569.002c0 63.333 12.501 119.334 37.501 168.001s57.833 89.334 98.5 122.001s87 57.334 139 74.001
s105 25 159 25s106.5 -7.33301 157.5 -22s96 -37.167 135 -67.5s70.333 -68.833 94 -115.5s35.5 -102.334 35.5 -167.001v-475h434v827h115v-934h-774v107h119v487c0 40.667 -8 76.5 -24 107.5s-38 56.667 -66 77s-61 35.666 -99 45.999s-79 15.5 -123 15.5
c-40.667 0 -80.167 -5.83301 -118.5 -17.5s-72.333 -28.5 -102 -50.5s-53.5 -49 -71.5 -81s-27 -68.333 -27 -109v-439l237 238c-7.33301 2.66699 -15.833 7.5 -25.5 14.5s-19 16 -28 27s-16.667 24.167 -23 39.5s-9.5 33.333 -9.5 54c0 49.333 15 88.333 45 117
s69.667 43 119 43c23.333 0 44.666 -4.33301 63.999 -13s35.833 -20.334 49.5 -35.001s24.167 -31.667 31.5 -51s11 -39.666 11 -60.999c0 -19.333 -2.16699 -36.333 -6.5 -51s-9.83301 -27.334 -16.5 -38.001s-13.5 -19.667 -20.5 -27l-18.5 -19l-23.5 -22.5l-46.5 -44.5
l-62.5 -60.5l-71.5 -69.5l-92 -85.5l-101 -98.5h-131v565z" />
    <glyph glyph-name="space" unicode=" " horiz-adv-x="1024" 
 />
    <glyph glyph-name="exclam" unicode="!" horiz-adv-x="1049" 
d="M524 246c18.667 0 36.167 -3.5 52.5 -10.5s30.5 -16.5 42.5 -28.5s21.5 -26.167 28.5 -42.5s10.5 -33.833 10.5 -52.5c0 -19.333 -3.5 -37.166 -10.5 -53.499s-16.5 -30.5 -28.5 -42.5s-26.167 -21.5 -42.5 -28.5s-33.833 -10.5 -52.5 -10.5s-36.167 3.5 -52.5 10.5
s-30.5 16.5 -42.5 28.5s-21.5 26.167 -28.5 42.5s-10.5 34.166 -10.5 53.499c0 18.667 3.5 36.167 10.5 52.5s16.5 30.5 28.5 42.5s26.167 21.5 42.5 28.5s33.833 10.5 52.5 10.5zM446 2323h157v-1854h-157v1854z" />
    <glyph glyph-name="quotedbl" unicode="&#x22;" horiz-adv-x="1011" 
d="M407 2323l-36 -786h-108l-33 786h177zM781 2323l-36 -786h-109l-32 786h177z" />
    <glyph glyph-name="numbersign" unicode="#" horiz-adv-x="2032" 
d="M1463 1593h379v-158h-402l-78 -531h394v-157h-417l-109 -747h-146l109 747h-456l-109 -747h-146l109 747h-397v157h420l78 531h-407v158h430l108 730h146l-108 -730h456l108 730h146zM760 904h456l78 531h-456z" />
    <glyph glyph-name="dollar" unicode="$" horiz-adv-x="2032" 
d="M1065 2355c63.333 -8 123.326 -24.0039 179.993 -48.0039s108.334 -54.5 155.001 -91.5s87.334 -79.667 122.001 -128s61.334 -100.833 80.001 -157.5l-155 -56c-13.333 40.667 -32.166 78.834 -56.499 114.501s-53.166 67.334 -86.499 95.001
s-70.166 50.667 -110.499 69s-83.166 31.166 -128.499 38.5v-920c84 -13.333 162.333 -38.166 235 -74.499s135.667 -82.833 189 -139.5s95.333 -122.667 126 -198s46 -159 46 -251c0 -82.667 -14.5 -160.167 -43.5 -232.5s-69.833 -136.333 -122.5 -192
s-115.5 -101.667 -188.5 -138s-153.5 -59.5 -241.5 -69.5v-225h-146v221c-76.667 4.66699 -149 20.5 -217 47.5s-129.333 62.5 -184 106.5s-101.167 95.5 -139.5 154.5s-65.833 122.833 -82.5 191.5l157 46c11.333 -53.333 31 -102.833 59 -148.5s62.5 -85.667 103.5 -120
s87.333 -62.166 139 -83.499s106.5 -34.333 164.5 -39v994c-88 12.667 -168 37 -240 73s-133.5 81.333 -184.5 136s-90.5 118 -118.5 190s-42 150.667 -42 236c0 80 14.333 155 43 225s68.667 131.667 120 185s113 96.666 185 130c72 33.333 151 53.666 237 61v188h146v-190
zM1497.99 601.996c0 68 -10.167 129.833 -30.5 185.5s-49.333 104.5 -87 146.5s-83.167 77 -136.5 105s-113 48.667 -179 62v-969c64 9.33301 122.5 27.333 175.5 54s98.5 60.5 136.5 101.5s67.667 88.167 89 141.5s32 111 32 173zM507.993 1756
c0 -64.667 9.83203 -123.167 29.499 -175.5s47.5 -98 83.5 -137s79.167 -71.333 129.5 -97s106.5 -44.5 168.5 -56.5v903c-60.667 -7.33301 -116.167 -23.333 -166.5 -48s-93.666 -56.334 -129.999 -95c-36.333 -38.667 -64.5 -83 -84.5 -133s-30 -103.667 -30 -161z" />
    <glyph glyph-name="percent" unicode="%" horiz-adv-x="2276" 
d="M662 2354c69.333 0 134.334 -12.167 195.001 -36.5s113.5 -58 158.5 -101s80.333 -94.5 106 -154.5s38.5 -125.333 38.5 -196c0 -70 -13 -134.333 -39 -193s-61.5 -109.5 -106.5 -152.5s-97.833 -76.5 -158.5 -100.5s-125.334 -36 -194.001 -36
c-69.333 0 -134.333 12 -195 36s-113.5 57.5 -158.5 100.5s-80.667 93.833 -107 152.5s-39.5 123 -39.5 193c0 70.667 13 136 39 196s61.5 111.5 106.5 154.5s97.833 76.667 158.5 101s126 36.5 196 36.5zM662.001 2216c-48 0 -93.833 -9 -137.5 -27s-82 -42.833 -115 -74.5
s-59.167 -68.834 -78.5 -111.501s-29 -88.334 -29 -137.001c0 -48 9.66699 -92.833 29 -134.5s45.5 -78 78.5 -109s71.333 -55.5 115 -73.5s89.5 -27 137.5 -27s93.833 9 137.5 27s82 42.5 115 73.5s59.167 67.333 78.5 109s29 86.5 29 134.5
c0 48.667 -9.66699 94.334 -29 137.001s-45.5 79.834 -78.5 111.501s-71.333 56.5 -115 74.5s-89.5 27 -137.5 27zM1616 947c70 0 135.167 -12 195.5 -36s113 -57.667 158 -101s80.333 -95 106 -155s38.5 -125.667 38.5 -197c0 -69.333 -13 -133.5 -39 -192.5
s-61.5 -109.833 -106.5 -152.5s-97.833 -76 -158.5 -100s-125.334 -36 -194.001 -36c-69.333 0 -134.166 12 -194.499 36s-113 57.333 -158 100s-80.5 93.5 -106.5 152.5s-39 123.167 -39 192.5c0 71.333 12.833 137 38.5 197s61 111.667 106 155s97.667 77 158 101
s125.5 36 195.5 36zM1616 810c-48 0 -93.833 -9.16699 -137.5 -27.5s-82 -43.333 -115 -75s-59.167 -68.834 -78.5 -111.501s-29 -88.667 -29 -138c0 -47.333 9.66699 -91.833 29 -133.5s45.5 -78.167 78.5 -109.5s71.333 -56 115 -74s89.5 -27 137.5 -27s93.833 9 137.5 27
s82 42.667 115 74s59.167 67.833 78.5 109.5s29 86.167 29 133.5c0 49.333 -9.66699 95.333 -29 138s-45.5 79.834 -78.5 111.501s-71.333 56.667 -115 75s-89.5 27.5 -137.5 27.5zM1886 2323l-1353 -2323h-161l1339 2323h175z" />
    <glyph glyph-name="ampersand" unicode="&#x26;" horiz-adv-x="2104" 
d="M1780 -33l-55.002 70.001l-62 79l-81 103c-38 -38 -79.333 -72.333 -124 -103s-91.834 -56.834 -141.501 -78.501s-101.5 -38.167 -155.5 -49.5s-109 -17 -165 -17c-111.333 0 -213 17.667 -305 53s-170.833 85 -236.5 149s-116.667 140.833 -153 230.5
s-54.5 188.5 -54.5 296.5c0 71.333 11.167 138.333 33.5 201s52.833 121.667 91.5 177s84.167 107 136.5 155s108.833 93 169.5 135l-22.5 27.5c-7.66699 9.66699 -14.167 18.167 -19.5 25.5c-32.667 40.667 -61.5 79.334 -86.5 116.001s-46.167 73.167 -63.5 109.5
s-30.5 73.333 -39.5 111s-13.5 77.5 -13.5 119.5c0 66 12.667 127.167 38 183.5s59.833 105.333 103.5 147s94.667 74.167 153 97.5s120.5 35 186.5 35c72 0 137.5 -11.667 196.5 -35s109.333 -55.833 151 -97.5s73.834 -90.667 96.501 -147s34 -117.5 34 -183.5
c0 -60.667 -10.167 -115.834 -30.5 -165.501s-47.666 -94.834 -81.999 -135.501s-73.833 -77 -118.5 -109s-91 -60.333 -139 -85l-50 -26.5l-50 -27.5l657 -846c24 44 42.833 90.5 56.5 139.5s20.5 99.833 20.5 152.5h162c-0.666992 -79.333 -12.667 -155 -36 -227
s-55.666 -139.333 -96.999 -202l88 -113l68.5 -88l44.5 -57c10.667 -13.333 16 -19.666 16 -18.999zM1001 129.001c44.667 0 89 5.00293 133 15.0029s86.5 24.5 127.5 43.5s80 42 117 69s71.167 57.167 102.5 90.5l-174 222l-185 236l-181.5 230.5l-162.5 205.5
c-49.333 -33.333 -96 -69 -140 -107s-82.5 -79.167 -115.5 -123.5s-59.167 -91.833 -78.5 -142.5s-29 -105.334 -29 -164.001c0 -85.333 15.167 -163.333 45.5 -234s71.833 -131.334 124.5 -182.001s114.667 -89.834 186 -117.501s148 -41.5 230 -41.5zM603.998 1876
c0 -36 6.83691 -72.333 20.5039 -109s30.5 -72 50.5 -106s41 -65.667 63 -95l58 -76l24 -32c21.333 12.667 42.833 24.667 64.5 36l64.5 34c34 17.333 67.5 37.833 100.5 61.5s62.333 50.167 88 79.5s46.5 61.333 62.5 96s24 71.667 24 111
c0 42.667 -7.83301 82.834 -23.5 120.501s-37.334 70.5 -65.001 98.5s-60.334 50.167 -98.001 66.5s-78.834 24.5 -123.501 24.5c-42.667 0 -82.834 -8.16699 -120.501 -24.5s-70.5 -38.5 -98.5 -66.5s-50.167 -60.833 -66.5 -98.5s-24.5 -77.834 -24.5 -120.501z" />
    <glyph glyph-name="quotesingle" unicode="'" horiz-adv-x="727" 
d="M453 2323l-36 -786h-108l-33 786h177z" />
    <glyph glyph-name="parenleft" unicode="(" horiz-adv-x="838" 
d="M334 1066c0 -129.333 9 -259.668 27 -391.001s44.167 -259 78.5 -383s77 -242 128 -354s109.5 -213.667 175.5 -305l-108 -90c-65.333 90 -125.833 191.167 -181.5 303.5s-103.834 233.333 -144.501 363s-72.5 266.5 -95.5 410.5s-34.5 292.667 -34.5 446
c0 152.667 11.5 301.167 34.5 445.5s54.833 281.333 95.5 411s88.834 250.667 144.501 363s116.167 213.5 181.5 303.5l108 -90c-66 -91.333 -124.5 -193 -175.5 -305s-93.667 -230 -128 -354s-60.5 -251.667 -78.5 -383s-27 -261.666 -27 -390.999z" />
    <glyph glyph-name="parenright" unicode=")" horiz-adv-x="836" 
d="M502 1066c0 129.333 -9 259.668 -27 391.001s-44.167 259 -78.5 383s-77 242 -128 354s-109.5 213.667 -175.5 305l108 90c65.333 -90 125.833 -191.167 181.5 -303.5s103.834 -233.333 144.501 -363s72.5 -266.667 95.5 -411s34.5 -292.833 34.5 -445.5
c0 -153.333 -11.5 -302 -34.5 -446s-54.833 -280.833 -95.5 -410.5s-88.834 -250.667 -144.501 -363s-116.167 -213.5 -181.5 -303.5l-108 90c66 91.333 124.5 193 175.5 305s93.667 230 128 354s60.5 251.667 78.5 383s27 261.666 27 390.999z" />
    <glyph glyph-name="asterisk" unicode="*" horiz-adv-x="1522" 
d="M674 2370h160l-12 -491l464 164l50 -154l-472 -141l302 -390l-132 -95l-278 407l-282 -407l-128 92l298 393l-471 141l49 154l465 -164z" />
    <glyph glyph-name="plus" unicode="+" horiz-adv-x="2032" 
d="M937 1687h157v-760h760v-158h-760v-760h-157v760h-760v158h760v760z" />
    <glyph glyph-name="comma" unicode="," horiz-adv-x="727" 
d="M551 196l-273 -738l-103 33l207 759z" />
    <glyph glyph-name="hyphen" unicode="-" horiz-adv-x="822" 
d="M772 922v-148h-722v148h722z" />
    <glyph glyph-name="period" unicode="." horiz-adv-x="727" 
d="M368 236c18.667 0 36.167 -3.5 52.5 -10.5s30.5 -16.5 42.5 -28.5s21.5 -26.167 28.5 -42.5s10.5 -33.833 10.5 -52.5c0 -19.333 -3.5 -37.166 -10.5 -53.499s-16.5 -30.5 -28.5 -42.5s-26.167 -21.5 -42.5 -28.5s-33.833 -10.5 -52.5 -10.5s-36.167 3.5 -52.5 10.5
s-30.5 16.5 -42.5 28.5s-21.5 26.167 -28.5 42.5s-10.5 34.166 -10.5 53.499c0 18.667 3.5 36.167 10.5 52.5s16.5 30.5 28.5 42.5s26.167 21.5 42.5 28.5s33.833 10.5 52.5 10.5z" />
    <glyph glyph-name="slash" unicode="/" horiz-adv-x="2027" 
d="M1952 2644l-1712 -2944h-161l1698 2944h175z" />
    <glyph glyph-name="zero" unicode="0" horiz-adv-x="1826" 
d="M356 1161c0 -151.333 12.5 -290.666 37.5 -417.999s61.667 -237 110 -329s107.833 -163.833 178.5 -215.5s152 -77.5 244 -77.5s173.333 25.833 244 77.5s130.167 123.5 178.5 215.5s85 201.667 110 329s37.5 266.666 37.5 417.999s-12.5 290.666 -37.5 417.999
s-61.667 237 -110 329s-107.833 163.833 -178.5 215.5s-152 77.5 -244 77.5s-173.333 -25.833 -244 -77.5s-130.167 -123.5 -178.5 -215.5s-85 -201.667 -110 -329s-37.5 -266.666 -37.5 -417.999zM1654 1161c0 -182.667 -16.667 -347.5 -50 -494.5
s-81.5 -272.167 -144.5 -375.5s-139.5 -182.833 -229.5 -238.5s-191.333 -83.5 -304 -83.5c-113.333 0 -214.833 27.833 -304.5 83.5s-166 135.167 -229 238.5s-111.167 228.5 -144.5 375.5s-50 311.833 -50 494.5s16.667 347.5 50 494.5s81.5 272.167 144.5 375.5
s139.333 182.833 229 238.5s191.167 83.5 304.5 83.5c112.667 0 214 -27.833 304 -83.5s166.5 -135.167 229.5 -238.5s111.167 -228.5 144.5 -375.5s50 -311.833 50 -494.5z" />
    <glyph glyph-name="one" unicode="1" horiz-adv-x="1826" 
d="M469 2176l75 147h572v-2323h-156v2176h-491z" />
    <glyph glyph-name="two" unicode="2" horiz-adv-x="1826" 
d="M1273 1389c34 46 61.332 96.002 81.999 150.002s31 112 31 174c0 66 -11.667 128.333 -35 187s-56.166 109.667 -98.499 153s-93 77.666 -152 102.999s-124.167 38 -195.5 38c-70 0 -134.333 -12.333 -193 -37s-109.167 -58.5 -151.5 -101.5s-75.5 -93.833 -99.5 -152.5
s-36 -122 -36 -190v-31c0 -9.33301 0.666992 -21 2 -35h-158c-2 20.667 -3 42.667 -3 66c0 90.667 16.167 175 48.5 253s77 145.667 134 203s124.5 102.333 202.5 135s163 49 255 49c95.333 0 182.333 -16.833 261 -50.5s146 -79.5 202 -137.5s99.5 -125.833 130.5 -203.5
s46.5 -160.5 46.5 -248.5c0 -146.667 -46.333 -282.334 -139 -407.001l-845 -1159h968v-147h-1280z" />
    <glyph glyph-name="three" unicode="3" horiz-adv-x="1826" 
d="M340 1786c0 81.333 15.3379 156.665 46.0049 225.998s72.667 129.333 126 180s115.666 90.334 186.999 119c71.333 28.667 147.666 43 228.999 43s157.666 -15.333 228.999 -46s133.666 -72.667 186.999 -126s95.333 -115.666 126 -186.999s46 -147.666 46 -228.999
c0 -56 -7.66699 -109.667 -23 -161s-36.833 -99.166 -64.5 -143.499s-61 -84.333 -100 -120s-82.167 -65.167 -129.5 -88.5c60 -21.333 114.5 -51.5 163.5 -90.5s91 -84.833 126 -137.5s62 -111.167 81 -175.5s28.5 -132.833 28.5 -205.5c0 -93.333 -17.667 -181 -53 -263
s-83.5 -153.5 -144.5 -214.5s-132.5 -109.167 -214.5 -144.5s-169.667 -53 -263 -53c-62 0 -121.833 7.5 -179.5 22.5s-111.5 36.5 -161.5 64.5s-95.5 61.667 -136.5 101s-76.167 83.166 -105.5 131.499s-52 100.833 -68 157.5s-24 116 -24 178h151
c0 -72 13.667 -138.833 41 -200.5s64.666 -115 111.999 -160s102.833 -80.167 166.5 -105.5s131.834 -38 204.501 -38s140.667 13.667 204 41s118.666 64.666 165.999 111.999s84.666 102.833 111.999 166.5s41 131.834 41 204.501s-12.167 140.5 -36.5 203.5
s-59.166 118.333 -104.499 166s-100 85.5 -164 113.5s-136 43.333 -216 46v154c60 0 116.5 11.667 169.5 35s99.333 54.833 139 94.5s71 86.167 94 139.5s34.5 110 34.5 170s-11.333 116.5 -34 169.5s-53.5 99.167 -92.5 138.5s-84.833 70.333 -137.5 93s-109 34 -169 34
s-116.5 -10.333 -169.5 -31s-99.167 -49.334 -138.5 -86c-39.333 -36.667 -70.333 -80.5 -93 -131.5s-34 -106.5 -34 -166.5h-154z" />
    <glyph glyph-name="four" unicode="4" horiz-adv-x="1826" 
d="M1460 2406h20v-1790h178v-147h-178v-469h-157v469h-1187v19zM429 616h894v1302h-9l-885 -1282v-20z" />
    <glyph glyph-name="five" unicode="5" horiz-adv-x="1826" 
d="M659 2323l881 0.00390625v-147h-766l-194 -631l2 -2c86 36 179 54 279 54c82 0 159.167 -9.66699 231.5 -29s138.666 -46.833 198.999 -82.5s114.333 -78.334 162 -128.001s88 -104.667 121 -165s58.333 -125.333 76 -195s26.5 -141.834 26.5 -216.501
s-9.16699 -146.834 -27.5 -216.501s-44.5 -134.667 -78.5 -195s-75.333 -115.333 -124 -165s-103.167 -92.334 -163.5 -128.001s-126.166 -63.167 -197.499 -82.5s-146.333 -29 -225 -29c-78 0 -152.833 10.5 -224.5 31.5s-138.5 50.5 -200.5 88.5s-118 83.5 -168 136.5
s-92.333 111.5 -127 175.5l129 79c27.333 -53.333 61.5 -102.166 102.5 -146.499s86.833 -82.333 137.5 -114s105.667 -56.334 165 -74.001s121.333 -26.5 186 -26.5c96.667 0 185.834 17.5 267.501 52.5s152 82.667 211 143s105 130.833 138 211.5s49.5 167 49.5 259
s-16.5 178.333 -49.5 259s-79 151 -138 211s-129.333 107.5 -211 142.5s-170.834 52.5 -267.501 52.5c-59.333 0 -116.333 -7.33301 -171 -22s-106 -35.5 -154 -62.5s-91.833 -59.5 -131.5 -97.5s-74.5 -80 -104.5 -126l-9 6z" />
    <glyph glyph-name="six" unicode="6" horiz-adv-x="1826" 
d="M298 726c0 -84.667 16 -164 48 -238s75.667 -138.667 131 -194s120 -99 194 -131s153.333 -48 238 -48s164.167 16 238.5 48s139.166 75.667 194.499 131s99 120 131 194s48 153.333 48 238s-16 164.167 -48 238.5s-75.667 139.166 -131 194.499
s-120.166 99 -194.499 131s-153.833 48 -238.5 48s-164 -16 -238 -48s-138.667 -75.667 -194 -131s-99 -120.166 -131 -194.499s-48 -153.833 -48 -238.5zM1102 2323l181.998 -0.00292969l-608 -868l8 -7c37.333 16 76.5 26.833 117.5 32.5s77.167 8.5 108.5 8.5
c70 0 137.5 -9 202.5 -27s125.667 -43.667 182 -77s107.666 -73.166 153.999 -119.499s86.166 -97.666 119.499 -153.999s59 -117 77 -182s27 -132.5 27 -202.5s-9 -137.5 -27 -202.5s-43.667 -125.667 -77 -182s-73.166 -107.666 -119.499 -153.999
s-97.666 -86.166 -153.999 -119.499s-117 -59 -182 -77s-132.5 -27 -202.5 -27s-137.5 9 -202.5 27s-125.667 43.667 -182 77s-107.666 73.166 -153.999 119.499s-86.166 97.666 -119.499 153.999s-59 117 -77 182s-27 132.5 -27 202.5c0 84.667 13 164.834 39 240.501
s62 145.167 108 208.5z" />
    <glyph glyph-name="seven" unicode="7" horiz-adv-x="1826" 
d="M190 2176v147h1478l-1280 -2323h-180l1198 2176h-1216z" />
    <glyph glyph-name="eight" unicode="8" horiz-adv-x="1826" 
d="M331 1766c0 81.333 15.3359 157.665 46.0029 228.998s72.667 133.666 126 187c53.333 53.333 115.666 95.333 186.999 126s147.666 46 228.999 46s157.666 -15.333 228.999 -46s133.666 -72.667 186.999 -126s95.333 -115.666 126 -186.999s46 -147.666 46 -228.999
c0 -55.333 -7.16699 -108.5 -21.5 -159.5s-34.833 -98.5 -61.5 -142.5s-58.5 -84 -95.5 -120s-77.833 -66.333 -122.5 -91c56.667 -27.333 108.5 -61.833 155.5 -103.5s87.333 -88.834 121 -141.501s59.834 -109.834 78.501 -171.501s28 -125.834 28 -192.501
c0 -93.333 -17.667 -181 -53 -263s-83.5 -153.5 -144.5 -214.5s-132.5 -109.167 -214.5 -144.5s-169.667 -53 -263 -53s-181 17.667 -263 53s-153.5 83.5 -214.5 144.5s-109.167 132.5 -144.5 214.5s-53 169.667 -53 263c0 67.333 9.5 132 28.5 194s45.5 119.333 79.5 172
s74.833 99.834 122.5 141.501s100.167 76.167 157.5 103.5c-44 25.333 -84.167 56 -120.5 92s-67.5 75.833 -93.5 119.5s-46.167 90.834 -60.5 141.501s-21.5 103.334 -21.5 158.001zM484.003 1766c0 -60 11.333 -116.999 34 -170.999s53.834 -101.167 93.501 -141.5
s85.834 -72.5 138.501 -96.5s109 -36 169 -36s116.5 12 169.5 36s99.333 56.167 139 96.5s70.834 87.5 93.501 141.5s34 111 34 171s-11.333 116.5 -34 169.5s-53.834 99.333 -93.501 139s-86 70.834 -139 93.5c-53 22.667 -109.5 34 -169.5 34s-116.333 -11.333 -169 -34
s-98.834 -53.834 -138.501 -93.501s-70.834 -86 -93.501 -139s-34 -109.5 -34 -169.5zM389.003 644c0 -72 13.833 -140 41.5 -204s65.167 -119.667 112.5 -167s103 -84.833 167 -112.5s132 -41.5 204 -41.5s140 13.833 204 41.5s119.667 65.167 167 112.5
s84.833 103 112.5 167s41.5 132 41.5 204s-13.833 140.5 -41.5 205.5s-65.167 121.833 -112.5 170.5s-103 87.334 -167 116.001s-132 43 -204 43s-140 -14.333 -204 -43s-119.667 -67.334 -167 -116.001s-84.833 -105.5 -112.5 -170.5s-41.5 -133.5 -41.5 -205.5z" />
    <glyph glyph-name="nine" unicode="9" horiz-adv-x="1826" 
d="M1522 1597c0 84.667 -16 164 -48 238s-75.667 138.667 -131 194s-120 99 -194 131s-153.333 48 -238 48s-164.167 -16 -238.5 -48s-139.166 -75.667 -194.499 -131s-99 -120 -131 -194s-48 -153.333 -48 -238s16 -164.167 48 -238.5s75.667 -139.166 131 -194.499
s120.166 -99 194.499 -131s153.833 -48 238.5 -48s164 16 238 48s138.667 75.667 194 131s99 120.166 131 194.499s48 153.833 48 238.5zM718 0l-182.001 0.000976562l608 868l-8 7c-37.333 -16 -76.5 -26.833 -117.5 -32.5s-77.167 -8.5 -108.5 -8.5
c-70 0 -137.5 9 -202.5 27s-125.667 43.667 -182 77s-107.666 73.166 -153.999 119.499s-86.166 97.666 -119.499 153.999s-59 117 -77 182s-27 132.5 -27 202.5s9 137.5 27 202.5s43.667 125.667 77 182s73.166 107.666 119.499 153.999s97.666 86.166 153.999 119.5
c56.333 33.333 117 59 182 77s132.5 27 202.5 27c72 0 141 -9 207 -27s127.167 -43.667 183.5 -77s107.333 -73.166 153 -119.499s84.667 -97.666 117 -153.999s57.333 -117 75 -182s26.5 -132.5 26.5 -202.5c0 -84.667 -13.167 -164.5 -39.5 -239.5
s-62.166 -144.833 -107.499 -209.5z" />
    <glyph glyph-name="colon" unicode=":" horiz-adv-x="727" 
d="M368 1546c18.667 0 36.167 -3.5 52.5 -10.5s30.5 -16.5 42.5 -28.5s21.5 -26.167 28.5 -42.5s10.5 -33.833 10.5 -52.5s-3.5 -36.167 -10.5 -52.5s-16.5 -30.5 -28.5 -42.5s-26.167 -21.5 -42.5 -28.5s-33.833 -10.5 -52.5 -10.5s-36.167 3.5 -52.5 10.5
s-30.5 16.5 -42.5 28.5s-21.5 26.167 -28.5 42.5s-10.5 33.833 -10.5 52.5s3.5 36.167 10.5 52.5s16.5 30.5 28.5 42.5s26.167 21.5 42.5 28.5s33.833 10.5 52.5 10.5zM368 236c18.667 0 36.167 -3.5 52.5 -10.5s30.5 -16.5 42.5 -28.5s21.5 -26.167 28.5 -42.5
s10.5 -33.833 10.5 -52.5c0 -19.333 -3.5 -37.166 -10.5 -53.499s-16.5 -30.5 -28.5 -42.5s-26.167 -21.5 -42.5 -28.5s-33.833 -10.5 -52.5 -10.5s-36.167 3.5 -52.5 10.5s-30.5 16.5 -42.5 28.5s-21.5 26.167 -28.5 42.5s-10.5 34.166 -10.5 53.499
c0 18.667 3.5 36.167 10.5 52.5s16.5 30.5 28.5 42.5s26.167 21.5 42.5 28.5s33.833 10.5 52.5 10.5z" />
    <glyph glyph-name="semicolon" unicode=";" horiz-adv-x="727" 
d="M511 196l-273 -738l-103 33l207 759zM368 1546c18.667 0 36.167 -3.5 52.5 -10.5s30.5 -16.5 42.5 -28.5s21.5 -26.167 28.5 -42.5s10.5 -33.833 10.5 -52.5s-3.5 -36.167 -10.5 -52.5s-16.5 -30.5 -28.5 -42.5s-26.167 -21.5 -42.5 -28.5s-33.833 -10.5 -52.5 -10.5
s-36.167 3.5 -52.5 10.5s-30.5 16.5 -42.5 28.5s-21.5 26.167 -28.5 42.5s-10.5 33.833 -10.5 52.5s3.5 36.167 10.5 52.5s16.5 30.5 28.5 42.5s26.167 21.5 42.5 28.5s33.833 10.5 52.5 10.5z" />
    <glyph glyph-name="less" unicode="&#x3c;" horiz-adv-x="2032" 
d="M1854 134v-150l-1677 770v173l1677 731v-151l-1507 -668z" />
    <glyph glyph-name="equal" unicode="=" horiz-adv-x="2032" 
d="M1854 1048h-1677v158h1677v-158zM1854 492h-1677v157h1677v-157z" />
    <glyph glyph-name="greater" unicode="&#x3e;" horiz-adv-x="2032" 
d="M1684 839l-1507 668v151l1677 -731v-173l-1677 -770v150z" />
    <glyph glyph-name="question" unicode="?" horiz-adv-x="1480" 
d="M150 1766c0 81.333 15.3369 157.665 46.0039 228.998s72.667 133.666 126 187c53.333 53.333 115.666 95.333 186.999 126s147.666 46 228.999 46s157.666 -15.333 228.999 -46s133.666 -72.667 186.999 -126s95.333 -115.666 126 -186.999s46 -147.666 46 -228.999
c0 -74 -13 -144.167 -39 -210.5s-61.667 -125.333 -107 -177s-98.833 -94.5 -160.5 -128.5s-128.167 -56 -199.5 -66v-684h-157v834c24 -4 49 -6 75 -6c60.667 0 117.5 11.5 170.5 34.5s99.333 54.333 139 94s71 86 94 139s34.5 109.833 34.5 170.5s-11.5 117.5 -34.5 170.5
s-54.333 99.333 -94 139s-86 71 -139 94s-109.833 34.5 -170.5 34.5s-117.5 -11.5 -170.5 -34.5s-99.333 -54.333 -139 -94s-71 -86 -94 -139s-34.5 -109.833 -34.5 -170.5h-150zM737.004 245.999c18.667 0 36.167 -3.5 52.5 -10.5s30.5 -16.5 42.5 -28.5
s21.5 -26.167 28.5 -42.5s10.5 -33.833 10.5 -52.5c0 -19.333 -3.5 -37.166 -10.5 -53.499s-16.5 -30.5 -28.5 -42.5s-26.167 -21.5 -42.5 -28.5s-33.833 -10.5 -52.5 -10.5s-36.167 3.5 -52.5 10.5s-30.5 16.5 -42.5 28.5s-21.5 26.167 -28.5 42.5
s-10.5 34.166 -10.5 53.499c0 18.667 3.5 36.167 10.5 52.5s16.5 30.5 28.5 42.5s26.167 21.5 42.5 28.5s33.833 10.5 52.5 10.5z" />
    <glyph glyph-name="at" unicode="@" horiz-adv-x="2654" 
d="M1343 1741c-52.667 0 -102.167 -7.50293 -148.5 -22.5029s-89 -35.667 -128 -62s-74.167 -57.666 -105.5 -93.999s-57.833 -75.833 -79.5 -118.5s-38.334 -87.834 -50.001 -135.501s-17.5 -96.167 -17.5 -145.5c0 -77.333 12.5 -151.666 37.5 -222.999
s60.667 -134.5 107 -189.5s102.5 -98.833 168.5 -131.5s140.333 -49 223 -49c86.667 0 163.167 16.5 229.5 49.5s122 77.333 167 133s79.167 120.334 102.5 194.001s35 151.167 35 232.5c0 78.667 -12.833 152.334 -38.5 221.001s-62.167 128.167 -109.5 178.5
s-104.166 90 -170.499 119s-140.5 43.5 -222.5 43.5zM1766 197.997l57.0029 -142c-70 -28 -142.833 -49.333 -218.5 -64s-153.834 -22 -234.501 -22c-110 0 -215.5 13.333 -316.5 40s-195.167 65 -282.5 115s-166.666 110.667 -237.999 182s-132.333 151.333 -183 240
s-89.834 185 -117.501 289s-41.5 214 -41.5 330c0 110 13.667 216 41 318s66 197.333 116 286s110.5 169.334 181.5 242.001s150.167 135 237.5 187s182 92.167 284 120.5s208.667 42.5 320 42.5c106.667 0 208 -12.833 304 -38.5s184.833 -61.834 266.5 -108.501
s155.334 -103 221.001 -169s121.5 -139.5 167.5 -220.5s81.5 -168.667 106.5 -263s37.5 -193.166 37.5 -296.499c0 -54.667 -4.33301 -113.167 -13 -175.5s-22.667 -125.333 -42 -189s-45 -125.667 -77 -186s-71.167 -115.666 -117.5 -165.999
s-100.833 -93.666 -163.5 -129.999s-134.667 -61.833 -216 -76.5v305h-6c-28.667 -36 -61.334 -67.667 -98.001 -95s-76 -50.5 -118 -69.5s-85.667 -33.333 -131 -43s-91 -14.5 -137 -14.5c-101.333 0 -194.166 19.333 -278.499 58s-157 91.5 -218 158.5
s-108.5 145.167 -142.5 234.5s-51 185 -51 287c0 64 7.66699 126.333 23 187s37.333 117.834 66 171.501s63.5 102.667 104.5 147s86.833 82.666 137.5 114.999s105.667 57.333 165 75s122 26.5 188 26.5c96.667 0 186.834 -17.833 270.501 -53.5
s154.5 -88.834 212.5 -159.501h6l7 113h146v-1215c54.667 20 102.5 53.667 143.5 101s74.833 102.833 101.5 166.5s46.667 132.667 60 207s20 148.166 20 221.499c0 89.333 -10.5 174.833 -31.5 256.5s-51.167 157.5 -90.5 227.5s-87 133.333 -143 190s-119 105 -189 145
s-146.333 71 -229 93s-170 33 -262 33c-102 0 -197.833 -13.167 -287.5 -39.5s-172.334 -63.166 -248.001 -110.5c-75.667 -47.333 -143.334 -103.666 -203.001 -168.999s-110.334 -136.833 -152.001 -214.5s-73.5 -159.834 -95.5 -246.501s-33 -175.334 -33 -266.001
c0 -102 12.333 -198.667 37 -290s59.167 -175.833 103.5 -253.5s97.666 -147.667 159.999 -210s131.333 -115.333 207 -159s156.5 -77.167 242.5 -100.5s175.333 -35 268 -35c141.333 0 273.333 26.667 396 80z" />
    <glyph glyph-name="A" unicode="A" horiz-adv-x="2063" 
d="M1567 663h-1071l-267 -663h-172l975 2403l975 -2403h-172zM554 810h956l-478 1180z" />
    <glyph glyph-name="B" unicode="B" horiz-adv-x="1804" 
d="M440 157h544.999c70.667 0 137 10.333 199 31s115.833 51 161.5 91s81.667 89.333 108 148s39.5 126 39.5 202s-14.167 144 -42.5 204s-66.666 110.667 -114.999 152s-104.5 73 -168.5 95s-131.333 33 -202 33h-525v-956zM1199 1221
c64 -14 123.999 -38.168 179.999 -72.501s104.833 -77.166 146.5 -128.499s74.334 -110 98.001 -176s35.5 -137.667 35.5 -215c0 -90 -14.833 -173.333 -44.5 -250s-73 -143.167 -130 -199.5s-126.833 -100.333 -209.5 -132s-177 -47.5 -283 -47.5h-720v2323h585
c86.667 -0.666992 166.667 -16.834 240 -48.5c73.333 -31.667 136.666 -75 189.999 -130s95 -119.333 125 -193s45 -152.5 45 -236.5c0 -51.333 -6.16699 -100.833 -18.5 -148.5s-29.666 -92.5 -51.999 -134.5s-49.5 -80.833 -81.5 -116.5s-67.333 -67.167 -106 -94.5z
M843.998 1266c68 0 129.499 11.835 184.499 35.502s102 55.667 141 96s69.167 87.666 90.5 141.999s32 112.5 32 174.5s-11.833 120.167 -35.5 174.5s-55.667 101.666 -96 141.999s-87.666 72.333 -141.999 96s-112.5 35.5 -174.5 35.5h-404v-896h404z" />
    <glyph glyph-name="C" unicode="C" horiz-adv-x="2287" 
d="M2070 1877c-48.667 49.333 -99.6748 93.8271 -153.008 133.494s-110 73.334 -170 101c-60 27.667 -123.5 48.834 -190.5 63.501s-138.5 22 -214.5 22c-101.333 0 -196.833 -13 -286.5 -39s-172.167 -62.167 -247.5 -108.5s-142.666 -101.666 -201.999 -165.999
s-109.833 -134.666 -151.5 -210.999s-73.5 -157.333 -95.5 -243s-33 -173.5 -33 -263.5c0 -101.333 12.333 -197.166 37 -287.499s59.334 -173.833 104.001 -250.5s98.167 -145.5 160.5 -206.5s131.333 -112.833 207 -155.5s156.5 -75.5 242.5 -98.5
s175.333 -34.5 268 -34.5c76 0 147.333 7.5 214 22.5s129.834 36.5 189.501 64.5s116.167 62 169.5 102s104.333 84.667 153 134l106 -128c-56 -55.333 -114.833 -105.166 -176.5 -149.499s-127 -82 -196 -113s-141.833 -54.833 -218.5 -71.5s-158 -25 -244 -25
c-111.333 0 -217.666 13.333 -318.999 40s-195.833 65 -283.5 115s-167.167 110.5 -238.5 181.5s-132.166 150.833 -182.499 239.5s-89.333 185.167 -117 289.5s-41.5 214.833 -41.5 331.5c0 110.667 13.5 217.167 40.5 319.5s65.667 197.833 116 286.5
s110.833 169.334 181.5 242.001s149.834 134.834 237.501 186.5c87.667 51.667 182.5 91.667 284.5 120s209.333 42.5 322 42.5c86 0 167.333 -8.33301 244 -25s149.334 -40.5 218.001 -71.5s133.834 -68.5 195.501 -112.5s120.5 -93.667 176.5 -149z" />
    <glyph glyph-name="D" unicode="D" horiz-adv-x="2178" 
d="M787 147c164 0 312 24.332 444 72.999s244.5 117.334 337.5 206.001s164.5 195.334 214.5 320.001s75 263 75 415s-25 290.333 -75 415s-121.5 231.167 -214.5 319.5s-205.5 156.833 -337.5 205.499c-132 48.667 -279.667 73 -443 73h-348v-2027h347zM272 -0.000976562
l0.00292969 2323h535c186.667 0 355.167 -27.833 505.5 -83.5s278.166 -134.167 383.499 -235.5s186.333 -223.5 243 -366.5s85 -301.833 85 -476.5c0 -116.667 -12.667 -226.334 -38 -329.001s-62.333 -197 -111 -283s-108.334 -163 -179.001 -231s-151 -125.5 -241 -172.5
s-189.333 -83 -298 -108s-225.334 -37.5 -350.001 -37.5h-535z" />
    <glyph glyph-name="E" unicode="E" horiz-adv-x="1519" 
d="M440 1124v-977h1005v-147h-1173v2323h1100v-147h-932v-904h863v-148h-863z" />
    <glyph glyph-name="F" unicode="F" horiz-adv-x="1452" 
d="M440 1124v-1124h-168v2323h1100v-147h-932v-904h863v-148h-863z" />
    <glyph glyph-name="G" unicode="G" horiz-adv-x="2643" 
d="M1338 133c86 0.666992 169 11.3262 249 31.9932s155.5 50.334 226.5 89.001s136.333 85.334 196 140.001s112 115.834 157 183.501s82 141.5 111 221.5s47.833 164.333 56.5 253h-743v148h915c0.666992 -7.33301 1 -14 1 -20v-14c0 -110.667 -13.5 -217 -40.5 -319
s-65.333 -197.167 -115 -285.5s-109.5 -168.833 -179.5 -241.5s-148.333 -135 -235 -187s-180.334 -92.333 -281.001 -121s-206.334 -43 -317.001 -43c-110.667 0.666992 -216.834 14.334 -318.501 41.001s-196.5 65 -284.5 115s-168 110.5 -240 181.5
s-133.5 150.833 -184.5 239.5s-90.5 185 -118.5 289s-42 214.333 -42 331c0 110.667 13.833 217.167 41.5 319.5s66.834 197.833 117.501 286.5s111.834 169.334 183.501 242.001s151.667 134.834 240 186.5c88.333 51.667 183.666 91.667 285.999 120
s209.833 42.5 322.5 42.5c86 0 167.333 -8.33301 244 -25s149.334 -40.5 218.001 -71.5s133.834 -68.5 195.501 -112.5s120.5 -93.667 176.5 -149l-106 -128c-48.667 49.333 -99.667 93.833 -153 133.5s-110 73.334 -170 101c-60 27.667 -123.5 48.834 -190.5 63.5
c-67 14.667 -138.5 22 -214.5 22c-101.333 0 -196.833 -13 -286.5 -39s-172.167 -62.167 -247.5 -108.5s-142.666 -101.666 -201.999 -165.999s-109.833 -134.666 -151.5 -210.999s-73.5 -157.333 -95.5 -243s-33 -173.5 -33 -263.5c0 -100.667 12.167 -196 36.5 -286
s58.666 -173.167 102.999 -249.5s97.5 -145 159.5 -206s130.5 -113 205.5 -156s155.333 -76.167 241 -99.5s174.5 -35.333 266.5 -36z" />
    <glyph glyph-name="H" unicode="H" horiz-adv-x="2346" 
d="M1913 1124h-1473v-1124h-168v2323h168v-1051h1473v1051h168v-2323h-168v1124z" />
    <glyph glyph-name="I" unicode="I" horiz-adv-x="902" 
d="M535 0h-168v2323h168v-2323z" />
    <glyph glyph-name="J" unicode="J" horiz-adv-x="902" 
d="M535 -26c0 -72.667 -11.165 -139.334 -33.498 -200.001s-54.833 -113 -97.5 -157s-95 -78.167 -157 -102.5s-132.667 -36.5 -212 -36.5c-74.667 0 -141.334 12.333 -200.001 37s-111 58.334 -157 101.001l105 121c34 -36 72.167 -63.333 114.5 -82s88.5 -28 138.5 -28
c51.333 0 97.5 7.66699 138.5 23s75.667 37.666 104 66.999s50.166 65.833 65.499 109.5s23 93.834 23 150.501v2346h168v-2349z" />
    <glyph glyph-name="K" unicode="K" horiz-adv-x="1838" 
d="M440 1265l1078 1058h210l-1132 -1111l1215 -1212h-207l-1116 1110l-48 -48v-1062h-168v2323h168v-1058z" />
    <glyph glyph-name="L" unicode="L" horiz-adv-x="1441" 
d="M440 147h932v-147h-1100v2323h168v-2176z" />
    <glyph glyph-name="M" unicode="M" horiz-adv-x="2870" 
d="M2277 2403l497 -2403h-166l-336 1642l-44 228h-8l-88 -239l-704 -1717l-702 1717l-88 239h-8l-44 -228l-337 -1642h-166l497 2403l846 -2110z" />
    <glyph glyph-name="N" unicode="N" horiz-adv-x="2412" 
d="M440 0h-168v2398l1700 -2046v1971h168v-2411l-1700 2036v-1948z" />
    <glyph glyph-name="O" unicode="O" horiz-adv-x="2679" 
d="M1351 2362c111.333 0 217.667 -14.332 319 -42.999s195.5 -69 282.5 -121s166 -114.333 237 -187s131.5 -153.334 181.5 -242.001s88.5 -183.834 115.5 -285.501s40.5 -207.5 40.5 -317.5c0 -115.333 -13.833 -225 -41.5 -329s-66.834 -200.333 -117.5 -289
c-50.667 -88.667 -111.5 -168.667 -182.5 -240s-150.167 -132 -237.5 -182s-181.333 -88.5 -282 -115.5s-206 -40.5 -316 -40.5s-215.5 13.333 -316.5 40s-195.167 65 -282.5 115s-166.666 110.667 -237.999 182s-132.333 151.333 -183 240s-89.834 185 -117.501 289
s-41.5 214 -41.5 330c0 110 13.667 216 41 318s66 197.333 116 286s110.5 169.334 181.5 242.001s150.167 135 237.5 187s181.833 92.167 283.5 120.5s208.5 42.5 320.5 42.5zM1350 133.001c91.333 0 179.501 11.498 264.501 34.498s164.5 56.167 238.5 99.5
s141.667 95.666 203 156.999s114 130.166 158 206.499s78 159.5 102 249.5s36 185.333 36 286c0 88.667 -10.833 175.834 -32.5 261.501s-52.834 166.667 -93.5 243c-40.667 76.333 -90.5 146.666 -149.5 210.999s-125.5 119.833 -199.5 166.5s-155.167 83.167 -243.5 109.5
s-182.5 39.5 -282.5 39.5c-100.667 0 -195.167 -13 -283.5 -39s-169.833 -62.333 -244.5 -109s-141.5 -102.167 -200.5 -166.5s-109 -134.666 -150 -210.999s-72.333 -157.333 -94 -243s-32.5 -173.167 -32.5 -262.5c0 -100 12.167 -195.167 36.5 -285.5
s58.5 -173.666 102.5 -249.999s96.667 -145.166 158 -206.499s129.166 -113.666 203.499 -156.999s154 -76.5 239 -99.5s173.167 -34.5 264.5 -34.5z" />
    <glyph glyph-name="P" unicode="P" horiz-adv-x="1696" 
d="M440 1130h445c70.667 0 137 12.667 199 38s115.833 61 161.5 107s81.667 100.667 108 164s39.5 133 39.5 209s-13.167 145.667 -39.5 209s-62.333 118 -108 164s-99.5 81.667 -161.5 107s-128.333 38 -199 38h-445v-1035v-1zM440 1l-168 0.00390625v2322h620
c106 0 200.333 -18.333 283 -55s152.5 -85.834 209.5 -147.501s100.333 -133.334 130 -215.001s44.5 -167.5 44.5 -257.5s-14.833 -175.833 -44.5 -257.5s-73 -153.334 -130 -215.001s-126.833 -110.834 -209.5 -147.501s-177 -55 -283 -55h-452v-972z" />
    <glyph glyph-name="Q" unicode="Q" horiz-adv-x="2679" 
d="M1351 2362c111.333 0 217.666 -14.332 318.999 -42.999s195.5 -69 282.5 -121s166 -114.333 237 -187s131.5 -153.334 181.5 -242.001s88.5 -183.834 115.5 -285.501s40.5 -207.5 40.5 -317.5c0 -80 -6.66699 -157.333 -20 -232s-32.833 -146 -58.5 -214
s-56.667 -132.333 -93 -193s-77.5 -117 -123.5 -169l332 -358h-213l-232 247c-103.333 -88 -220.166 -156 -350.499 -204s-269.833 -72.333 -418.5 -73c-110 0 -215.5 13.333 -316.5 40s-195.167 65 -282.5 115s-166.666 110.667 -237.999 182s-132.333 151.333 -183 240
s-89.834 185 -117.501 289s-41.5 214 -41.5 330c0 110 13.667 216 41 318s66 197.333 116 286s110.5 169.334 181.5 242.001s150.167 135 237.5 187s181.833 92.167 283.5 120.5s208.5 42.5 320.5 42.5zM1350 133.001c124 0 241.334 20.665 352.001 61.998
s210.334 100.333 299.001 177l-600 641h223l489 -527c74.667 89.333 133.167 191.166 175.5 305.499s63.5 239.166 63.5 374.499c0 88.667 -10.833 175.834 -32.5 261.501s-52.834 166.667 -93.501 243s-90.5 146.666 -149.5 210.999s-125.5 119.833 -199.5 166.5
s-155.167 83.167 -243.5 109.5s-182.5 39.5 -282.5 39.5c-100.667 0 -195.167 -13 -283.5 -39s-169.833 -62.333 -244.5 -109s-141.5 -102.167 -200.5 -166.5s-109 -134.666 -150 -210.999s-72.333 -157.333 -94 -243s-32.5 -173.167 -32.5 -262.5
c0 -100 12.167 -195.167 36.5 -285.5s58.5 -173.666 102.5 -249.999s96.667 -145.166 158 -206.499s129.166 -113.666 203.499 -156.999s154 -76.5 239 -99.5s173.167 -34.5 264.5 -34.5z" />
    <glyph glyph-name="R" unicode="R" horiz-adv-x="1639" 
d="M1463 0l-199.999 -0.00195312l-723 1003h-100v-1003h-168v2323h520c70.667 0 136.167 -8.16699 196.5 -24.5s115.166 -39 164.499 -68s93 -64 131 -105s70 -86 96 -135s45.667 -101.667 59 -158s20 -114.5 20 -174.5c0 -107.333 -18.5 -202.166 -55.5 -284.499
s-87.833 -151.166 -152.5 -206.499s-141 -97 -229 -125s-183.333 -41 -286 -39zM680.001 1161c92 0 175.5 9.16699 250.5 27.5s139.167 47.666 192.5 87.999s94.5 92.333 123.5 156s43.5 141.167 43.5 232.5c0 76 -13.167 144.833 -39.5 206.5s-62.333 114.334 -108 158.001
s-99.5 77.334 -161.5 101c-62 23.667 -128.333 35.5 -199 35.5h-342v-1005h240z" />
    <glyph glyph-name="S" unicode="S" horiz-adv-x="1782" 
d="M353 518c12 -57.333 33.666 -110.004 64.999 -158.004s69.833 -89.5 115.5 -124.5s97.167 -62.167 154.5 -81.5s118 -29 182 -29c76 0 146.333 11.833 211 35.5s120.5 56.667 167.5 99s83.667 92.666 110 150.999s39.5 122.166 39.5 191.499
c0 76 -12.667 144.167 -38 204.5s-61 112.166 -107 155.499s-101.5 77.833 -166.5 103.5s-136.833 42.167 -215.5 49.5c-95.333 8.66699 -182.166 30.167 -260.499 64.5s-145.333 79.333 -201 135s-98.834 120.834 -129.501 195.501s-46 156.667 -46 246
c0 84.667 16 163.834 48 237.501s76.833 137.667 134.5 192s126.167 97 205.5 128s166.333 46.5 261 46.5c72.667 0 141.834 -10.667 207.501 -32s125.5 -51 179.5 -89s101 -83.333 141 -136s70.333 -110.334 91 -173.001l-155 -56
c-15.333 46.667 -37.666 89.834 -66.999 129.501s-64 73.834 -104 102.501s-84.5 51 -133.5 67s-100.5 24 -154.5 24c-69.333 0 -133.333 -11.167 -192 -33.5s-109.334 -53.166 -152.001 -92.499s-76 -86 -100 -140s-36 -112.333 -36 -175
c0 -71.333 12 -135.166 36 -191.499s57.833 -104.666 101.5 -144.999s95.667 -72.333 156 -96s126.833 -38.5 199.5 -44.5c92 -8 178 -29.167 258 -63.5s149.833 -80.166 209.5 -137.499s106.667 -125.5 141 -204.5s51.5 -167.5 51.5 -265.5c0 -90 -17.333 -174 -52 -252
s-82.834 -145.5 -144.501 -202.5s-135 -101.833 -220 -134.5s-178.167 -49 -279.5 -49c-81.333 0 -158.666 12.667 -231.999 38s-139.333 60.333 -198 105s-108.667 97.667 -150 159s-71 128 -89 200z" />
    <glyph glyph-name="T" unicode="T" horiz-adv-x="1661" 
d="M911 0h-168v2176h-653v147h1475v-147h-654v-2176z" />
    <glyph glyph-name="U" unicode="U" horiz-adv-x="2162" 
d="M1082 114c116 0 216.167 18.832 300.5 56.499s154 88.334 209 152.001s95.833 137.334 122.5 221.001s40 171.5 40 263.5v1516h168v-1533c0 -73.333 -7.83301 -144.666 -23.5 -213.999s-39 -134.5 -70 -195.5s-69.833 -116.833 -116.5 -167.5
s-101.167 -94.167 -163.5 -130.5s-132.333 -64.666 -210 -84.999s-163.167 -30.5 -256.5 -30.5s-178.833 10.167 -256.5 30.5s-147.667 48.666 -210 84.999s-116.833 79.833 -163.5 130.5s-85.5 106.5 -116.5 167.5s-54.333 126 -70 195s-23.5 140.5 -23.5 214.5v1533h168
v-1516c0 -92 13.167 -179.833 39.5 -263.5s67 -157.334 122 -221.001s124.833 -114.334 209.5 -152.001s185 -56.5 301 -56.5z" />
    <glyph glyph-name="V" unicode="V" horiz-adv-x="2067" 
d="M1834 2323h173l-975 -2393l-975 2393h173l802 -1990z" />
    <glyph glyph-name="W" unicode="W" horiz-adv-x="3378" 
d="M1682 2036l-888 -2104l-728 2391h167l584 -1959l865 2039l865 -2039l584 1959h167l-728 -2391z" />
    <glyph glyph-name="X" unicode="X" horiz-adv-x="2094" 
d="M1142 1215l871 -1215h-180l-792 1095l-791 -1095h-180l870 1214l-790 1109h183l708 -988l709 988h183z" />
    <glyph glyph-name="Y" unicode="Y" horiz-adv-x="1880" 
d="M1635 2323h173l-789 -1358v-965h-168v965l-789 1358h173l700 -1205z" />
    <glyph glyph-name="Z" unicode="Z" horiz-adv-x="2027" 
d="M1869 147v-147h-1760l1522 2176h-1478v147h1759l-1523 -2176h1480z" />
    <glyph glyph-name="bracketleft" unicode="[" horiz-adv-x="883" 
d="M381 -415h389v-150h-557v3135h557v-150h-389v-2835z" />
    <glyph glyph-name="backslash" unicode="\" horiz-adv-x="2070" 
d="M254 2644l1748 -2644h-190l-1748 2644h190z" />
    <glyph glyph-name="bracketright" unicode="]" horiz-adv-x="883" 
d="M502 2420h-389v150h557v-3135h-557v150h389v2835z" />
    <glyph glyph-name="asciicircum" unicode="^" horiz-adv-x="1915" 
d="M116 986l838 1654l839 -1654h-150l-688 1337l-685 -1337h-154z" />
    <glyph glyph-name="underscore" unicode="_" horiz-adv-x="1638" 
d="M0 -396v150h1638v-150h-1638z" />
    <glyph glyph-name="grave" unicode="`" horiz-adv-x="727" 
d="M293 2400l348 -504l-109 -94l-406 476z" />
    <glyph glyph-name="a" unicode="a" horiz-adv-x="2049" 
d="M943 1497c-61.333 0 -120.001 -8.83105 -176.001 -26.498s-107.833 -42 -155.5 -73s-90.834 -68 -129.501 -111s-71.667 -89.833 -99 -140.5s-48.333 -104.167 -63 -160.5s-22 -113.5 -22 -171.5c0 -61.333 7.16699 -121.333 21.5 -180s34.833 -114 61.5 -166
s59.334 -99.833 98.001 -143.5s82.334 -81.334 131.001 -113.001s101.667 -56.334 159 -74.001s118.666 -26.5 183.999 -26.5c102.667 0 195.667 18.833 279 56.5s154.5 88.834 213.5 153.501s104.5 140.167 136.5 226.5s48 177.833 48 274.5c0 62 -8 121.667 -24 179
s-38.667 111 -68 161s-64.666 95.667 -105.999 137s-87.333 76.666 -138 105.999s-105.667 52 -165 68s-121.333 24 -186 24zM1776 0.00195312l-156.002 0.00195312v289h-7c-29.333 -51.333 -69 -97.166 -119 -137.499s-105 -74.333 -165 -102s-122.333 -48.667 -187 -63
s-126.667 -21.5 -186 -21.5c-122 0 -233 22.167 -333 66.5s-185.667 105 -257 182s-126.666 167 -165.999 270s-59 213.167 -59 330.5c0 78 8.66699 152.833 26 224.5s42.5 138.167 75.5 199.5s73.333 117 121 167s101.334 92.5 161.001 127.5s125.167 62.167 196.5 81.5
s147.333 29 228 29c62 0 125 -6.83301 189 -20.5s125.5 -33.834 184.5 -60.501s113.667 -59.334 164 -98.001s92.5 -83.334 126.5 -134.001h7v278h156v-1608z" />
    <glyph glyph-name="b" unicode="b" horiz-adv-x="1999" 
d="M1076 1497c-97.333 0 -186.333 -17.1689 -267 -51.502s-149.834 -81.5 -207.501 -141.5s-102.5 -130.5 -134.5 -211.5s-48 -167.833 -48 -260.5c0 -96.667 14.5 -188.667 43.5 -276s71.167 -164 126.5 -230s123 -118.333 203 -157s171.333 -58 274 -58
c64.667 0 125.667 8.83301 183 26.5s109.833 42.334 157.5 74.001s90.334 69.334 128.001 113.001s69.667 91.5 96 143.5s46.333 107.333 60 166s20.5 118.667 20.5 180c0 87.333 -15.667 172 -47 254s-75.166 154.833 -131.499 218.5s-123.333 114.667 -201 153
s-162.834 57.5 -255.501 57.5zM273 2472l155.999 -0.00292969v-1142h7c34 50.667 74.5 95.334 121.5 134.001s98.167 71.334 153.5 98.001s113.5 46.834 174.5 60.501s122.5 20.5 184.5 20.5c120.667 0 230.167 -21.167 328.5 -63.5s182.333 -100.666 252 -174.999
s123.334 -162 161.001 -263s56.5 -210.167 56.5 -327.5s-19.167 -227.5 -57.5 -330.5s-92.5 -193 -162.5 -270s-154.5 -137.667 -253.5 -182s-209.5 -66.5 -331.5 -66.5c-59.333 0 -119.833 7.16699 -181.5 21.5s-120.5 35.333 -176.5 63s-107.5 61.667 -154.5 102
s-85.167 86.166 -114.5 137.499h-7v-289h-156v2472z" />
    <glyph glyph-name="c" unicode="c" horiz-adv-x="1681" 
d="M1510 1236c-76.667 83.333 -161.673 147.666 -255.006 192.999s-197.333 68 -312 68c-63.333 0 -123.5 -8.5 -180.5 -25.5s-109.667 -41 -158 -72s-92.166 -67.833 -131.499 -110.5s-72.666 -89.5 -99.999 -140.5s-48.333 -105.5 -63 -163.5s-22 -117.333 -22 -178
s7.33301 -120 22 -178s35.5 -112.833 62.5 -164.5s60 -99.167 99 -142.5s82.667 -80.666 131 -111.999s100.833 -55.666 157.5 -72.999s116.667 -26 180 -26c57.333 0 113.5 6.83301 168.5 20.5s107.667 33 158 58s97.833 55.333 142.5 91s85.334 75.5 122.001 119.5v-212
c-82.667 -72 -173.5 -127.167 -272.5 -165.5s-202.833 -57.5 -311.5 -57.5c-79.333 0 -154.666 9.83301 -225.999 29.5s-137.166 47.667 -197.499 84s-114.833 80 -163.5 131s-89.834 107.667 -123.501 170s-59.667 129.5 -78 201.5s-27.5 147.333 -27.5 226
c0 78 9.33301 152.667 28 224s45.167 138 79.5 200s75.833 118.333 124.5 169s103.334 94 164.001 130s126.667 63.833 198 83.5s146.333 29.5 225 29.5c105.333 0 204.833 -15.833 298.5 -47.5s180.834 -81.834 261.501 -150.501v-209z" />
    <glyph glyph-name="d" unicode="d" horiz-adv-x="1999" 
d="M923 1497c-92.667 0 -177.834 -19.165 -255.501 -57.498s-144.667 -89.333 -201 -153s-100.166 -136.5 -131.499 -218.5s-47 -166.667 -47 -254c0 -61.333 6.83301 -121.333 20.5 -180s33.667 -114 60 -166s58.333 -99.833 96 -143.5s80.334 -81.334 128.001 -113.001
s100 -56.334 157 -74.001s118.167 -26.5 183.5 -26.5c102.667 0 194 19.333 274 58s147.667 91 203 157s97.5 142.667 126.5 230s43.5 179.333 43.5 276c0 92.667 -16 179.5 -48 260.5s-76.833 151.5 -134.5 211.5s-126.834 107.167 -207.501 141.5s-169.667 51.5 -267 51.5
zM1726 0.00195312l-155.999 0.00195312v289h-7c-29.333 -51.333 -67.5 -97.166 -114.5 -137.499s-98.5 -74.333 -154.5 -102s-114.833 -48.667 -176.5 -63s-122.167 -21.5 -181.5 -21.5c-122 0 -232.5 22.167 -331.5 66.5s-183.5 105 -253.5 182s-124.167 167 -162.5 270
s-57.5 213.167 -57.5 330.5c0 78 9 152.833 27 224.5s43.667 138.167 77 199.5s73.833 117 121.5 167s101 92.5 160 127.5s123.167 62.167 192.5 81.5s142.666 29 219.999 29c62 0 123.5 -6.83301 184.5 -20.5s119.167 -33.834 174.5 -60.501s106.5 -59.334 153.5 -98.001
s87.5 -83.334 121.5 -134.001h7v1142h156v-2472z" />
    <glyph glyph-name="e" unicode="e" horiz-adv-x="1816" 
d="M1645 404c-36.667 -69.333 -79.3291 -131.168 -127.996 -185.501s-102.667 -100 -162 -137s-123.833 -65.167 -193.5 -84.5s-143.834 -29 -222.501 -29c-79.333 0 -154.5 10.167 -225.5 30.5s-136.5 49 -196.5 86s-113.833 81.167 -161.5 132.5s-88.167 108 -121.5 170
s-58.833 128.5 -76.5 199.5s-26.5 144.5 -26.5 220.5c0 74.667 8.33301 147.334 25 218.001s41 137 73 199s70.833 118.667 116.5 170s97.334 95.5 155.001 132.5s121 65.667 190 86s142.833 30.5 221.5 30.5c122 0 231 -22.667 327 -68s177.167 -106.833 243.5 -184.5
s116.666 -168.167 150.999 -271.5s51.166 -213 50.499 -329h-1396c2.66699 -100.667 21.167 -192.667 55.5 -276s80.666 -154.833 138.999 -214.5s127 -106 206 -139s165.167 -49.5 258.5 -49.5c60 0 117.833 8.33301 173.5 25s107.5 39.834 155.5 69.501
s91.167 65.167 129.5 106.5s70.166 86.666 95.499 135.999zM1529 936.998c-9.33301 74 -30.667 144.666 -64 211.999s-76.5 126.833 -129.5 178.5s-115.333 92.834 -187 123.501s-150.5 46 -236.5 46c-82 0 -158 -15 -228 -45s-131.833 -70.5 -185.5 -121.5
s-98 -110.5 -133 -178.5s-58.167 -139.667 -69.5 -215h1233z" />
    <glyph glyph-name="f" unicode="f" horiz-adv-x="995" 
d="M495 0h-157.001v1462h-178v146h178v386c0 68.667 8.66699 132.167 26 190.5s43.5 108.833 78.5 151.5s78.833 76 131.5 100s114.334 36 185.001 36c20 0 39.5 -2.16699 58.5 -6.5s37.167 -9.5 54.5 -15.5v-142c-16 5.33301 -32.5 9.66602 -49.5 13
c-17 3.33301 -34.5 5 -52.5 5c-87.333 0 -155 -29 -203 -87s-72 -143.333 -72 -256v-375h379v-146h-379v-1462z" />
    <glyph glyph-name="g" unicode="g" horiz-adv-x="1999" 
d="M926 1497c-61.333 0 -119.669 -8.83105 -175.002 -26.498s-106.666 -42 -153.999 -73s-90.166 -68 -128.499 -111s-70.833 -89.833 -97.5 -140.5s-47.334 -104.167 -62.001 -160.5s-22 -113.5 -22 -171.5c0 -61.333 7 -121.333 21 -180s34.333 -114 61 -166
s59 -99.833 97 -143.5s81 -81.334 129 -113.001s100.667 -56.334 158 -74.001s118.666 -26.5 183.999 -26.5c102.667 0 194 19.333 274 58s147.333 91 202 157s96.167 142.667 124.5 230s42.5 179.333 42.5 276c0 92.667 -15.667 179.5 -47 260.5
s-75.666 151.5 -132.999 211.5s-126.166 107.167 -206.499 141.5s-169.5 51.5 -267.5 51.5zM1726 -23.998c0 -130.667 -17.501 -250.667 -52.501 -360s-87 -203.333 -156 -282s-155.167 -139.834 -258.5 -183.501s-223 -65.5 -359 -65.5
c-105.333 0 -204.666 15.167 -297.999 45.5s-175.833 74.666 -247.5 132.999s-129.5 130.333 -173.5 216s-69 183.834 -75 294.501h157c4.66699 -83.333 24.5 -158.5 59.5 -225.5s80.833 -124 137.5 -171s121.667 -83.167 195 -108.5s150.666 -38 231.999 -38
c116.667 0 217.5 18.833 302.5 56.5s155.333 89.834 211 156.501s96.834 145.667 123.501 237s40 191 40 299l6 299h-7c-36 -48 -76 -91.333 -120 -130s-92.5 -71.667 -145.5 -99s-110.5 -48.333 -172.5 -63s-128.333 -22 -199 -22c-78 0 -151.667 10.5 -221 31.5
s-133.5 50.167 -192.5 87.5s-112 82 -159 134s-87 109.167 -120 171.5s-58.333 128.833 -76 199.5s-26.5 143.334 -26.5 218.001c0 77.333 9.33301 151.666 28 222.999s45.167 138 79.5 200s76 118.333 125 169s103.667 94.167 164 130.5s125.833 64.333 196.5 84
s145.334 29.5 224.001 29.5c131.333 0 247.666 -26.333 348.999 -79s190 -129.667 266 -231h7v275h156v-1632z" />
    <glyph glyph-name="h" unicode="h" horiz-adv-x="1755" 
d="M425 0l-157 0.00195312v2472h157v-1139h6c22 46 50.333 88 85 126s74.334 70.667 119.001 98s94.167 48.5 148.5 63.5s112.166 22.5 173.499 22.5c101.333 0 188.5 -16.5 261.5 -49.5s133.167 -79 180.5 -138s82.333 -129.667 105 -212s34 -172.833 34 -271.5v-972h-157
v972c0 80 -8.66699 152.5 -26 217.5s-43.5 120.167 -78.5 165.5s-79 80.333 -132 105s-114.833 37 -185.5 37c-82 0 -156 -18 -222 -54s-122.167 -84.333 -168.5 -145s-81.833 -131.334 -106.5 -212.001s-37 -165.334 -37 -254.001v-832z" />
    <glyph glyph-name="i" unicode="i" horiz-adv-x="894" 
d="M524 0h-157v1608h157v-1608zM447 2287c20 0 38.667 -3.83301 56 -11.5s32.5 -18 45.5 -31s23.167 -28.167 30.5 -45.5s11 -35.333 11 -54c0 -20 -3.66699 -38.667 -11 -56s-17.5 -32.5 -30.5 -45.5s-28.167 -23.167 -45.5 -30.5s-36 -11 -56 -11s-38.667 3.66699 -56 11
s-32.5 17.5 -45.5 30.5s-23.167 28.167 -30.5 45.5s-11 36 -11 56c0 18.667 3.66699 36.667 11 54s17.5 32.5 30.5 45.5s28.167 23.333 45.5 31s36 11.5 56 11.5z" />
    <glyph glyph-name="j" unicode="j" horiz-adv-x="894" 
d="M524 -840h-157v2448h157v-2448zM447 2287c20 0 38.667 -3.83301 56 -11.5s32.5 -18 45.5 -31s23.167 -28.167 30.5 -45.5s11 -35.333 11 -54c0 -20 -3.66699 -38.667 -11 -56s-17.5 -32.5 -30.5 -45.5s-28.167 -23.167 -45.5 -30.5s-36 -11 -56 -11
s-38.667 3.66699 -56 11s-32.5 17.5 -45.5 30.5s-23.167 28.167 -30.5 45.5s-11 36 -11 56c0 18.667 3.66699 36.667 11 54s17.5 32.5 30.5 45.5s28.167 23.333 45.5 31s36 11.5 56 11.5z" />
    <glyph glyph-name="k" unicode="k" horiz-adv-x="1487" 
d="M424 926l661 682h203l-709 -734l835 -874h-206l-732 768l-52 -54v-714h-157v2472h157v-1546z" />
    <glyph glyph-name="l" unicode="l" horiz-adv-x="894" 
d="M524 0h-157v2472h157v-2472z" />
    <glyph glyph-name="m" unicode="m" horiz-adv-x="2524" 
d="M431 1457c22.667 28 48.6699 53.3359 78.0029 76.0029s61 42.167 95 58.5s69.833 28.833 107.5 37.5s76.5 13 116.5 13c54 0 105.333 -7 154 -21s93 -33.167 133 -57.5s75.167 -53.333 105.5 -87s54.5 -69.834 72.5 -108.501c19.333 39.333 45.166 75.833 77.499 109.5
s68.833 62.667 109.5 87s84.667 43.333 132 57s96 20.5 146 20.5c82 0 156.833 -14.333 224.5 -43s125.5 -67.834 173.5 -117.501s85.167 -107.834 111.5 -174.501s39.5 -138 39.5 -214v-1093h-157v1094c0 54 -8.83301 105 -26.5 153s-43.167 89.667 -76.5 125
s-74.5 63.333 -123.5 84s-104.5 31 -166.5 31c-54 0 -104.833 -10.333 -152.5 -31s-89.167 -48.667 -124.5 -84s-63.166 -77 -83.499 -125s-30.5 -99 -30.5 -153v-1094h-156v1094c0 54 -8.66699 105 -26 153s-42.333 89.667 -75 125s-72.834 63.333 -120.501 84
s-101.5 31 -161.5 31c-54 0 -105.333 -10.333 -154 -31s-91.334 -48.667 -128.001 -84s-65.834 -77 -87.501 -125s-32.5 -99 -32.5 -153v-1094h-157v1608h157v-151h6z" />
    <glyph glyph-name="n" unicode="n" horiz-adv-x="1755" 
d="M430 1400c26.667 36 57.999 68.833 93.999 98.5s75.333 55 118 76s87.834 37.333 135.501 49s96.5 17.5 146.5 17.5c90.667 0 173.667 -15.333 249 -46s140 -73.5 194 -128.5s96 -120.667 126 -197s45 -160.5 45 -252.5v-1017h-157v1017c0 68 -10.667 130.5 -32 187.5
s-52 106.333 -92 148s-88.167 74.167 -144.5 97.5s-119.5 35 -189.5 35c-66 0 -129 -12.5 -189 -37.5s-113 -59.167 -159 -102.5s-82.5 -94 -109.5 -152s-40.5 -120 -40.5 -186v-1007h-157v1608h157v-208h5z" />
    <glyph glyph-name="o" unicode="o" horiz-adv-x="1930" 
d="M131 802c0 76.667 10 150.667 30 222s48.167 138 84.5 200s79.833 118.333 130.5 169s107 94.167 169 130.5s128.667 64.5 200 84.5s145.333 30 222 30s150.667 -10 222 -30s138 -48.167 200 -84.5s118.333 -79.833 169 -130.5s94.167 -107 130.5 -169
s64.5 -128.667 84.5 -200s30 -145.333 30 -222s-10 -150.667 -30 -222s-48.167 -138 -84.5 -200s-79.833 -118.5 -130.5 -169.5s-107 -94.667 -169 -131s-128.667 -64.5 -200 -84.5s-145.333 -30 -222 -30s-150.667 10 -222 30s-138 48.167 -200 84.5s-118.333 80 -169 131
s-94.167 107.5 -130.5 169.5s-64.5 128.667 -84.5 200s-30 145.333 -30 222zM280 800c0 -63.333 8.16699 -124.5 24.5 -183.5s39.333 -114.167 69 -165.5s65.5 -98 107.5 -140s88.333 -78.167 139 -108.5s105.334 -53.833 164.001 -70.5s119.667 -25 183 -25
s124.333 8.33301 183 25s113.5 40.167 164.5 70.5s97.5 66.5 139.5 108.5s78 88.667 108 140s53.167 106.5 69.5 165.5s24.5 120.167 24.5 183.5s-8.16699 124.333 -24.5 183s-39.5 113.667 -69.5 165s-66 98 -108 140s-88.5 78 -139.5 108s-105.833 53.333 -164.5 70
s-119.667 25 -183 25s-124.333 -8.33301 -183 -25s-113.334 -40 -164.001 -70s-97 -66 -139 -108s-77.833 -88.667 -107.5 -140s-52.667 -106.333 -69 -165s-24.5 -119.667 -24.5 -183z" />
    <glyph glyph-name="p" unicode="p" horiz-adv-x="1999" 
d="M1076 111c92.667 0 177.834 19.165 255.501 57.498s144.667 89.333 201 153s100.166 136.5 131.499 218.5s47 166.667 47 254c0 61.333 -6.83301 121.333 -20.5 180s-33.667 114 -60 166s-58.333 99.833 -96 143.5s-80.334 81.334 -128.001 113.001
s-100.167 56.334 -157.5 74.001s-118.333 26.5 -183 26.5c-102.667 0 -194 -19.333 -274 -58s-147.667 -91 -203 -157s-97.5 -142.667 -126.5 -230s-43.5 -179.333 -43.5 -276c0 -93.333 16 -180.333 48 -261s76.833 -151 134.5 -211s126.834 -107.167 207.501 -141.5
s169.667 -51.5 267 -51.5zM273 1608h156.001v-289h7c29.333 51.333 67.5 97.166 114.5 137.499s98.5 74.333 154.5 102s114.833 48.667 176.5 63s122.167 21.5 181.5 21.5c122 0 232.5 -22.167 331.5 -66.5s183.5 -105 253.5 -182s124.167 -167 162.5 -270
s57.5 -213.167 57.5 -330.5s-18.833 -226.5 -56.5 -327.5s-91.334 -188.667 -161.001 -263s-153.667 -132.666 -252 -174.999s-207.833 -63.5 -328.5 -63.5c-62 0 -123.5 6.83301 -184.5 20.5s-119.167 33.667 -174.5 60s-106.5 59 -153.5 98s-87.5 83.833 -121.5 134.5h-7
v-1142h-156v2472z" />
    <glyph glyph-name="q" unicode="q" horiz-adv-x="2002" 
d="M926 111c97.333 0 186.333 17.1689 267 51.502s149.834 81.5 207.501 141.5s102.5 130.333 134.5 211s48 167.667 48 261c0 96.667 -14.5 188.667 -43.5 276s-71.167 164 -126.5 230s-123 118.333 -203 157s-171.333 58 -274 58c-65.333 0 -126.5 -8.83301 -183.5 -26.5
s-109.333 -42.334 -157 -74.001s-90.334 -69.334 -128.001 -113.001s-69.667 -91.5 -96 -143.5s-46.333 -107.333 -60 -166s-20.5 -118.667 -20.5 -180c0 -87.333 15.667 -172 47 -254s75.166 -154.833 131.499 -218.5s123.333 -114.667 201 -153
s162.834 -57.5 255.501 -57.5zM1729 -863.998h-155.999v1142h-7c-34 -50.667 -74.5 -95.5 -121.5 -134.5s-98.167 -71.667 -153.5 -98s-113.5 -46.333 -174.5 -60s-122.5 -20.5 -184.5 -20.5c-121.333 0 -231 21.167 -329 63.5s-181.833 100.666 -251.5 174.999
s-123.334 162 -161.001 263s-56.5 210.167 -56.5 327.5s19.167 227.5 57.5 330.5s92.5 193 162.5 270s154.5 137.667 253.5 182s209.5 66.5 331.5 66.5c59.333 0 119.833 -7.16699 181.5 -21.5s120.5 -35.333 176.5 -63s107.5 -61.667 154.5 -102
s85.167 -86.166 114.5 -137.499h7v289h156v-2472z" />
    <glyph glyph-name="r" unicode="r" horiz-adv-x="1081" 
d="M971 1459c-7.33301 2.66699 -18.998 5.33301 -34.998 8s-31 4 -45 4c-38.667 -0.666992 -77 -8.5 -115 -23.5s-74 -35.833 -108 -62.5s-65.5 -58.667 -94.5 -96s-54.167 -78.666 -75.5 -123.999s-38 -94 -50 -146s-18 -106 -18 -162v-857h-157v1608h157l-3 -321h3
c8 21.333 15.667 38.666 23 51.999s14.333 25.333 21 36c24 38.667 52.333 73.667 85 105s68.167 58 106.5 80s78.666 39 120.999 51s85.166 18 128.499 18c6.66699 0 14.334 -0.333008 23.001 -1s17.167 -1.5 25.5 -2.5s16.166 -2.16699 23.499 -3.5s13 -3 17 -5z" />
    <glyph glyph-name="s" unicode="s" horiz-adv-x="1228" 
d="M317 1224c0 -43.333 6.66406 -83.333 19.9971 -120s33.166 -68.667 59.499 -96s59.166 -49.666 98.499 -66.999s85 -28.333 137 -33c72 -6.66699 136 -23.834 192 -51.501s103.333 -63 142 -106s68.167 -92.167 88.5 -147.5s30.5 -113.666 30.5 -174.999
c0 -66 -12.5 -126.833 -37.5 -182.5s-59.833 -103.667 -104.5 -144s-97.834 -72 -159.501 -95s-128.834 -34.5 -201.501 -34.5c-55.333 0 -108 8 -158 24s-95.667 38.5 -137 67.5s-77.166 63.167 -107.499 102.5s-53.166 82.666 -68.499 129.999l130 54
c10.667 -34 26.834 -65.667 48.501 -95s47.5 -54.833 77.5 -76.5s63.333 -38.834 100 -51.501s75 -19 115 -19c53.333 0 102 8 146 24s81.833 38.167 113.5 66.5s56.334 62 74.001 101s26.5 81.833 26.5 128.5c0 43.333 -6.83301 84.666 -20.5 123.999
s-34.667 74.5 -63 105.5s-64.666 56.667 -108.999 77s-96.833 33.5 -157.5 39.5c-68 6.66699 -128.5 22.667 -181.5 48s-97.5 58 -133.5 98s-62.833 86.167 -80.5 138.5s-25.167 108.5 -22.5 168.5c2.66699 62 15.667 118.167 39 168.5s54.5 93.333 93.5 129
s84.5 63 136.5 82s108.333 28.5 169 28.5c44 0 86.333 -5.66699 127 -17s78.167 -28 112.5 -50s65 -48.833 92 -80.5s49.167 -67.834 66.5 -108.501l-128 -63c-16.667 43.333 -41.667 79 -75 107s-70.666 47.833 -111.999 59.5s-83.666 15.334 -126.999 11.001
s-83.333 -17.166 -120 -38.499s-67.167 -51.166 -91.5 -89.499s-37.5 -85.5 -39.5 -141.5z" />
    <glyph glyph-name="t" unicode="t" horiz-adv-x="931" 
d="M512 0h-156v1462h-258v146h258v575h156v-575h302v-146h-302v-1462z" />
    <glyph glyph-name="u" unicode="u" horiz-adv-x="1664" 
d="M832 125c70 0 133.167 11.667 189.5 35s104.5 55.833 144.5 97.5s70.667 91 92 148s32 119.5 32 187.5v1015h157v-1015c0 -92 -15 -176.167 -45 -252.5s-72 -142 -126 -197s-118.833 -97.833 -194.5 -128.5s-158.834 -46 -249.501 -46
c-91.333 0 -174.666 15.333 -249.999 46s-140 73.5 -194 128.5s-96 120.667 -126 197s-45 160.5 -45 252.5v1015h157v-1015c0 -68 10.667 -130.5 32 -187.5s52 -106.333 92 -148s88.167 -74.167 144.5 -97.5s119.5 -35 189.5 -35z" />
    <glyph glyph-name="v" unicode="v" horiz-adv-x="1592" 
d="M794 264c2.66699 6.66699 6.66602 17.5 11.999 32.5l18.5 51l22 59c7.66699 20.333 14.834 38.5 21.501 54.5l486 1147h169l-729 -1695l-729 1695h169l486 -1147l21.5 -55l22 -58.5l18.5 -51c5.33301 -15 9.33301 -25.833 12 -32.5z" />
    <glyph glyph-name="w" unicode="w" horiz-adv-x="2263" 
d="M51 1608h163.996l365 -1023l25 -75l24 -74l18 -57c4.66699 -15.333 7.33398 -24 8.00098 -26c0.666992 2 3.33398 10.667 8.00098 26l17.5 57l23.5 74c8.66699 26.667 17.334 51.667 26.001 75l405 1111l405 -1111l26.5 -76.5l24.5 -75.5l24 -80l25 80l24 75.5
c8.66699 27 17.334 52.5 26.001 76.5l365 1023h164l-603 -1694l-481 1329l-481 -1329z" />
    <glyph glyph-name="x" unicode="x" horiz-adv-x="1616" 
d="M1562 0h-196l-559 729l-561 -729h-198l637 827l-601 781h197l524 -680l524 680h198l-601 -781z" />
    <glyph glyph-name="y" unicode="y" horiz-adv-x="1677" 
d="M1456 1608h172l-1157 -2508h-171l425 921l-676 1587h168l595 -1396z" />
    <glyph glyph-name="z" unicode="z" horiz-adv-x="1671" 
d="M1546 142v-142h-1436l1138 1464h-1125v144h1431l-1141 -1466h1133z" />
    <glyph glyph-name="braceleft" unicode="{" horiz-adv-x="951" 
d="M123 1041c40 28 75.667 55.165 107 81.498s58 54.666 80 84.999s38.667 64.333 50 102s17 81.834 17 132.501v612c0 77.333 11.667 150.333 35 219s56.666 129 99.999 181s96.333 93.333 159 124s133 46.334 211 47.001v-130c-42.667 0 -84.334 -9.66699 -125.001 -29
s-76.667 -46.833 -108 -82.5s-56.666 -78.667 -75.999 -129s-29 -106.5 -29 -168.5v-548c0 -88 -5.33301 -161.667 -16 -221s-26.667 -110 -48 -152s-47.833 -77.667 -79.5 -107s-68.5 -58 -110.5 -86v-18c42 -28 78.833 -56.667 110.5 -86s58.167 -65 79.5 -107
s37.333 -92.667 48 -152s16 -133 16 -221v-548c0 -62 9.66699 -118.167 29 -168.5s44.666 -93.333 75.999 -129s67.333 -63.167 108 -82.5s82.334 -29 125.001 -29v-130c-78 0.666992 -148.333 16.334 -211 47.001s-115.667 72 -159 124s-76.666 112.333 -99.999 181
s-35 141.667 -35 219v612c0 50.667 -5.66699 94.834 -17 132.501s-28 71.667 -50 102s-48.667 58.666 -80 84.999s-67 53.5 -107 81.5v156z" />
    <glyph glyph-name="bar" unicode="|" horiz-adv-x="951" 
d="M396 2736h168v-3481h-168v3481z" />
    <glyph glyph-name="braceright" unicode="}" horiz-adv-x="951" 
d="M828 885c-40 -28 -75.667 -55.166 -107 -81.499s-58 -54.666 -80 -84.999s-38.667 -64.333 -50 -102s-17 -81.834 -17 -132.501v-612c0 -77.333 -11.667 -150.333 -35 -219s-56.666 -129 -99.999 -181s-96.333 -93.333 -159 -124s-133 -46.334 -211 -47.001v130
c42.667 0 84.334 9.66699 125.001 29s76.667 46.833 108 82.5s56.666 78.667 75.999 129s29 106.5 29 168.5v548c0 88 5.33301 161.667 16 221s26.667 110 48 152s47.833 77.667 79.5 107s68.5 58 110.5 86v18c-42 28 -78.833 56.667 -110.5 86s-58.167 65 -79.5 107
s-37.333 92.667 -48 152s-16 133 -16 221v548c0 62 -9.66699 118.167 -29 168.5s-44.666 93.333 -75.999 129s-67.333 63.167 -108 82.5s-82.334 29 -125.001 29v130c78 -0.666992 148.333 -16.334 211 -47c62.667 -30.667 115.667 -72 159 -124
s76.666 -112.333 99.999 -181s35 -141.667 35 -219v-612c0 -50.667 5.66699 -94.834 17 -132.501s28 -71.667 50 -102s48.667 -58.666 80 -84.999s67 -53.5 107 -81.5v-156z" />
    <glyph glyph-name="asciitilde" unicode="~" horiz-adv-x="1961" 
d="M88 764c23.333 40 49.8291 79.501 79.4961 118.501s64.834 74.167 105.501 105.5s87.667 56.666 141 75.999s115.333 29 186 29c45.333 0 91 -6.5 137 -19.5s91.667 -29.333 137 -49s90 -40.834 134 -63.501l128 -63.5c41.333 -19.667 81.333 -36 120 -49
s75 -19.5 109 -19.5c79.333 0 148.5 20.5 207.5 61.5s109.5 100.167 151.5 177.5l140 -89c-21.333 -38.667 -48.166 -76.5 -80.499 -113.5s-69.666 -70 -111.999 -99s-89.166 -52.5 -140.499 -70.5s-106.666 -27 -165.999 -27c-42 0 -85 6.5 -129 19.5s-88 29.333 -132 49
s-87.833 40.834 -131.5 63.501s-86.834 43.834 -129.501 63.501s-84.334 36 -125.001 49s-80 19.5 -118 19.5c-47.333 0 -89.166 -7.16699 -125.499 -21.5s-69.333 -33.5 -99 -57.5s-57 -51.833 -82 -83.5s-49.833 -64.834 -74.5 -99.501z" />
    <glyph glyph-name="saraileftthai" 
d="M-664 2186h-1098v144h1098v-144z" />
    <glyph glyph-name="saraileftthai" unicode="&#xf701;" 
d="M-664 2186h-1098v144h1098v-144z" />
    <glyph glyph-name="saraiileftthai" 
d="M-664 2186h-1098v144h942v380h156v-524z" />
    <glyph glyph-name="saraiileftthai" unicode="&#xf702;" 
d="M-664 2186h-1098v144h942v380h156v-524z" />
    <glyph glyph-name="saraueleftthai" 
d="M-1166 2453c0 34.667 6.16895 67.834 18.502 99.5c12.333 31.667 29.833 59.5 52.5 83.5s49.667 43.167 81 57.5s66 21.5 104 21.5c38.667 0 73.667 -6.83301 105 -20.5s58.166 -32.334 80.499 -56c22.333 -23.667 39.666 -51.5 51.999 -83.5s18.5 -66.333 18.5 -103
c0 -21.333 -3.5 -43 -10.5 -65s-15.167 -41 -24.5 -57h25v-144h-1097v144h632c-11.333 15.333 -20.333 34.333 -27 57s-10 44.667 -10 66zM-1031 2454c0 -16 2.66895 -31.667 8.00195 -47s13.166 -28.833 23.499 -40.5s22.833 -21.167 37.5 -28.5s31.667 -11 51 -11
c20 0 37.5 3.83301 52.5 11.5s27.667 17.5 38 29.5s18.166 25.5 23.499 40.5s8 30.167 8 45.5c0 16.667 -2.66699 32.834 -8 48.5c-5.33301 15.667 -13 29.334 -23 41c-10 11.667 -22.667 21 -38 28s-33 10.5 -53 10.5c-19.333 0 -36.5 -3.66699 -51.5 -11
s-27.5 -17 -37.5 -29s-17.667 -25.667 -23 -41s-8 -31 -8 -47z" />
    <glyph glyph-name="saraueleftthai" unicode="&#xf703;" 
d="M-1166 2453c0 34.667 6.16895 67.834 18.502 99.5c12.333 31.667 29.833 59.5 52.5 83.5s49.667 43.167 81 57.5s66 21.5 104 21.5c38.667 0 73.667 -6.83301 105 -20.5s58.166 -32.334 80.499 -56c22.333 -23.667 39.666 -51.5 51.999 -83.5s18.5 -66.333 18.5 -103
c0 -21.333 -3.5 -43 -10.5 -65s-15.167 -41 -24.5 -57h25v-144h-1097v144h632c-11.333 15.333 -20.333 34.333 -27 57s-10 44.667 -10 66zM-1031 2454c0 -16 2.66895 -31.667 8.00195 -47s13.166 -28.833 23.499 -40.5s22.833 -21.167 37.5 -28.5s31.667 -11 51 -11
c20 0 37.5 3.83301 52.5 11.5s27.667 17.5 38 29.5s18.166 25.5 23.499 40.5s8 30.167 8 45.5c0 16.667 -2.66699 32.834 -8 48.5c-5.33301 15.667 -13 29.334 -23 41c-10 11.667 -22.667 21 -38 28s-33 10.5 -53 10.5c-19.333 0 -36.5 -3.66699 -51.5 -11
s-27.5 -17 -37.5 -29s-17.667 -25.667 -23 -41s-8 -31 -8 -47z" />
    <glyph glyph-name="saraueeleftthai" 
d="M-1040 2320h223v390h153v-524h-1098v144h566v380h156v-390z" />
    <glyph glyph-name="saraueeleftthai" unicode="&#xf704;" 
d="M-1040 2320h223v390h153v-524h-1098v144h566v380h156v-390z" />
    <glyph glyph-name="maieklowleftthai" 
d="M-916 2710h153v-504h-153v504z" />
    <glyph glyph-name="maieklowleftthai" unicode="&#xf705;" 
d="M-916 2710h153v-504h-153v504z" />
    <glyph glyph-name="maitholowleftthai" 
d="M-1212 2329h612v-144h-758v309h-227v145h373v-310z" />
    <glyph glyph-name="maitholowleftthai" unicode="&#xf706;" 
d="M-1212 2329h612v-144h-758v309h-227v145h373v-310z" />
    <glyph glyph-name="maitrilowleftthai" 
d="M-1176 2192h-126.997c0.666992 5.33301 1.16699 10.333 1.5 15s0.5 9 0.5 13c0 25.333 -2.83301 50.166 -8.5 74.5c-5.66699 24.333 -15.334 46.166 -29.001 65.5c-13.667 19.333 -31.334 35 -53.001 47s-48.5 18 -80.5 18c-30.667 0 -56.667 -6 -78 -18
s-38.666 -27.667 -51.999 -47s-23 -41.166 -29 -65.5c-6 -24.333 -9 -49.166 -9 -74.5c0 -4.66699 0.166992 -9.5 0.5 -14.5s0.833008 -10.167 1.5 -15.5l-22 -2.5l-48.5 -5.5l-48.5 -5.5l-22 -2.5c-2 14.667 -3 30.334 -3 47c0 45.333 6.83301 88.666 20.5 130
c13.667 41.333 33.5 77.833 59.5 109.5s58.167 57 96.5 76s82.5 28.5 132.5 28.5c34 0 63.833 -3.83301 89.5 -11.5s48.167 -18 67.5 -31s35.5 -28.5 48.5 -46.5s23.833 -37.333 32.5 -58c8.66699 20.667 20.167 40 34.5 58s31.166 33.5 50.499 46.5
s41.166 23.333 65.499 31s50.833 11.5 79.5 11.5c44 0 82.667 -7 116 -21s61.5 -33 84.5 -57s41.167 -52.167 54.5 -84.5s22 -66.833 26 -103.5c8 1.33301 16.5 2.33301 25.5 3s18.167 1 27.5 1h91v-118h-235c-6 0 -13 3.5 -21 10.5s-12 15.833 -12 26.5
c0 27.333 -3 53.333 -9 78s-15.5 46.167 -28.5 64.5s-29.5 33 -49.5 44s-43.667 16.5 -71 16.5c-30 0 -55.667 -6 -77 -18s-39 -27.667 -53 -47s-24.333 -41.166 -31 -65.5c-6.66699 -24.333 -10 -49.166 -10 -74.5v-13.5c0 -4.33301 0.333008 -9.16602 1 -14.5z" />
    <glyph glyph-name="maitrilowleftthai" unicode="&#xf707;" 
d="M-1176 2192h-126.997c0.666992 5.33301 1.16699 10.333 1.5 15s0.5 9 0.5 13c0 25.333 -2.83301 50.166 -8.5 74.5c-5.66699 24.333 -15.334 46.166 -29.001 65.5c-13.667 19.333 -31.334 35 -53.001 47s-48.5 18 -80.5 18c-30.667 0 -56.667 -6 -78 -18
s-38.666 -27.667 -51.999 -47s-23 -41.166 -29 -65.5c-6 -24.333 -9 -49.166 -9 -74.5c0 -4.66699 0.166992 -9.5 0.5 -14.5s0.833008 -10.167 1.5 -15.5l-22 -2.5l-48.5 -5.5l-48.5 -5.5l-22 -2.5c-2 14.667 -3 30.334 -3 47c0 45.333 6.83301 88.666 20.5 130
c13.667 41.333 33.5 77.833 59.5 109.5s58.167 57 96.5 76s82.5 28.5 132.5 28.5c34 0 63.833 -3.83301 89.5 -11.5s48.167 -18 67.5 -31s35.5 -28.5 48.5 -46.5s23.833 -37.333 32.5 -58c8.66699 20.667 20.167 40 34.5 58s31.166 33.5 50.499 46.5
s41.166 23.333 65.499 31s50.833 11.5 79.5 11.5c44 0 82.667 -7 116 -21s61.5 -33 84.5 -57s41.167 -52.167 54.5 -84.5s22 -66.833 26 -103.5c8 1.33301 16.5 2.33301 25.5 3s18.167 1 27.5 1h91v-118h-235c-6 0 -13 3.5 -21 10.5s-12 15.833 -12 26.5
c0 27.333 -3 53.333 -9 78s-15.5 46.167 -28.5 64.5s-29.5 33 -49.5 44s-43.667 16.5 -71 16.5c-30 0 -55.667 -6 -77 -18s-39 -27.667 -53 -47s-24.333 -41.166 -31 -65.5c-6.66699 -24.333 -10 -49.166 -10 -74.5v-13.5c0 -4.33301 0.333008 -9.16602 1 -14.5z" />
    <glyph glyph-name="maichattawalowleftthai" 
d="M-851 2372v-186h-150v186h-252v133h251v185h151v-185h248v-133h-248z" />
    <glyph glyph-name="maichattawalowleftthai" unicode="&#xf708;" 
d="M-851 2372v-186h-150v186h-252v133h251v185h151v-185h248v-133h-248z" />
    <glyph glyph-name="thanthakhatlowleftthai" 
d="M-982 2382l-0.000976562 -206h-151v205c0 20.667 4 39.167 12 55.5s18.833 30.333 32.5 42s29.834 20.667 48.501 27s39 9.5 61 9.5h340v-133h-343z" />
    <glyph glyph-name="thanthakhatlowleftthai" unicode="&#xf709;" 
d="M-982 2382l-0.000976562 -206h-151v205c0 20.667 4 39.167 12 55.5s18.833 30.333 32.5 42s29.834 20.667 48.501 27s39 9.5 61 9.5h340v-133h-343z" />
    <glyph glyph-name="maieklowrightthai" 
d="M-431 2710h153v-504h-153v504z" />
    <glyph glyph-name="maieklowrightthai" unicode="&#xf70a;" 
d="M-431 2710h153v-504h-153v504z" />
    <glyph glyph-name="maitholowrightthai" 
d="M-808 2329h748v-144h-894v309h-220v145h366v-310z" />
    <glyph glyph-name="maitholowrightthai" unicode="&#xf70b;" 
d="M-808 2329h748v-144h-894v309h-220v145h366v-310z" />
    <glyph glyph-name="maitrilowrightthai" 
d="M-769 2192h-126.999c0.666992 5.33301 1.16699 10.333 1.5 15s0.5 9 0.5 13c0 27.333 -4 53.333 -12 78s-19.833 46.5 -35.5 65.5s-35.5 34 -59.5 45s-52 16.5 -84 16.5s-59.667 -6 -83 -18s-42.833 -27.667 -58.5 -47s-27.334 -41.166 -35.001 -65.5
c-7.66699 -24.333 -11.5 -49.166 -11.5 -74.5c0 -4.66699 0.166992 -9.5 0.5 -14.5s0.833008 -10.167 1.5 -15.5l-22 -2.5l-48.5 -5.5l-48.5 -5.5l-22 -2.5c-2 14.667 -3 30.334 -3 47c0 43.333 7.83301 85.666 23.5 127c15.667 41.333 37.834 78 66.501 110
s63.167 57.833 103.5 77.5s85.5 29.5 135.5 29.5c34 0 64.333 -3.66699 91 -11s50.5 -17.5 71.5 -30.5s39.333 -28.5 55 -46.5s29.167 -37.667 40.5 -59c20.667 42.667 51 77.834 91 105.5c40 27.667 93 41.5 159 41.5c44 0 83.667 -7 119 -21s65.833 -33 91.5 -57
s46.167 -52.167 61.5 -84.5s25 -66.833 29 -103.5c8 1.33301 18.167 2.33301 30.5 3s23.166 1 32.499 1h101v-118h-255c-6 0 -13 3.5 -21 10.5s-12 15.833 -12 26.5c0 27.333 -3.83301 53.333 -11.5 78s-19 46.167 -34 64.5s-33.5 33 -55.5 44s-47.667 16.5 -77 16.5
c-32 0 -59.833 -6 -83.5 -18s-43.5 -27.667 -59.5 -47s-28 -41.166 -36 -65.5c-8 -24.333 -12 -49.166 -12 -74.5v-13.5c0 -4.33301 0.333008 -9.16602 1 -14.5z" />
    <glyph glyph-name="maitrilowrightthai" unicode="&#xf70c;" 
d="M-769 2192h-126.999c0.666992 5.33301 1.16699 10.333 1.5 15s0.5 9 0.5 13c0 27.333 -4 53.333 -12 78s-19.833 46.5 -35.5 65.5s-35.5 34 -59.5 45s-52 16.5 -84 16.5s-59.667 -6 -83 -18s-42.833 -27.667 -58.5 -47s-27.334 -41.166 -35.001 -65.5
c-7.66699 -24.333 -11.5 -49.166 -11.5 -74.5c0 -4.66699 0.166992 -9.5 0.5 -14.5s0.833008 -10.167 1.5 -15.5l-22 -2.5l-48.5 -5.5l-48.5 -5.5l-22 -2.5c-2 14.667 -3 30.334 -3 47c0 43.333 7.83301 85.666 23.5 127c15.667 41.333 37.834 78 66.501 110
s63.167 57.833 103.5 77.5s85.5 29.5 135.5 29.5c34 0 64.333 -3.66699 91 -11s50.5 -17.5 71.5 -30.5s39.333 -28.5 55 -46.5s29.167 -37.667 40.5 -59c20.667 42.667 51 77.834 91 105.5c40 27.667 93 41.5 159 41.5c44 0 83.667 -7 119 -21s65.833 -33 91.5 -57
s46.167 -52.167 61.5 -84.5s25 -66.833 29 -103.5c8 1.33301 18.167 2.33301 30.5 3s23.166 1 32.499 1h101v-118h-255c-6 0 -13 3.5 -21 10.5s-12 15.833 -12 26.5c0 27.333 -3.83301 53.333 -11.5 78s-19 46.167 -34 64.5s-33.5 33 -55.5 44s-47.667 16.5 -77 16.5
c-32 0 -59.833 -6 -83.5 -18s-43.5 -27.667 -59.5 -47s-28 -41.166 -36 -65.5c-8 -24.333 -12 -49.166 -12 -74.5v-13.5c0 -4.33301 0.333008 -9.16602 1 -14.5z" />
    <glyph glyph-name="maichattawalowrightthai" 
d="M-281 2362v-186h-150v185l-252 1v133h251v185h151v-185h248v-133h-248z" />
    <glyph glyph-name="maichattawalowrightthai" unicode="&#xf70d;" 
d="M-281 2362v-186h-150v185l-252 1v133h251v185h151v-185h248v-133h-248z" />
    <glyph glyph-name="thanthakhatlowrightthai" 
d="M-533 2382l-0.000976562 -206h-151v205c0 20.667 4 39.167 12 55.5s18.833 30.333 32.5 42s29.834 20.667 48.501 27s39 9.5 61 9.5h360v-133h-363z" />
    <glyph glyph-name="thanthakhatlowrightthai" unicode="&#xf70e;" 
d="M-533 2382l-0.000976562 -206h-151v205c0 20.667 4 39.167 12 55.5s18.833 30.333 32.5 42s29.834 20.667 48.501 27s39 9.5 61 9.5h360v-133h-363z" />
    <glyph glyph-name="maihanakatleftthai" 
d="M-1044 2328h1002v-132h-1152v325h150v-193z" />
    <glyph glyph-name="maihanakatleftthai" unicode="&#xf710;" 
d="M-1044 2328h1002v-132h-1152v325h150v-193z" />
    <glyph glyph-name="nikhahitleftthai" 
d="M-1038 2441c0 -20 3.83301 -38.667 11.5 -56s18.167 -32.666 31.5 -46c13.333 -13.333 28.666 -23.833 45.999 -31.5s36 -11.5 56 -11.5s38.833 3.83301 56.5 11.5s33.167 18.167 46.5 31.5s23.833 28.666 31.5 46c7.66699 17.333 11.5 36 11.5 56
s-3.83301 38.833 -11.5 56.5s-18.167 33.167 -31.5 46.5s-28.833 23.833 -46.5 31.5s-36.5 11.5 -56.5 11.5s-38.667 -3.83301 -56 -11.5s-32.666 -18.167 -45.999 -31.5s-23.833 -28.833 -31.5 -46.5s-11.5 -36.5 -11.5 -56.5zM-1175 2441
c0 38.667 7.49902 75.167 22.499 109.5s35.333 64.333 61 90s55.667 46 90 61s70.833 22.5 109.5 22.5c40.667 0 78.334 -7.5 113.001 -22.5s64.667 -35.333 90 -61s45 -55.667 59 -90s21 -70.833 21 -109.5s-7.5 -75.167 -22.5 -109.5s-35.333 -64.333 -61 -90
s-55.667 -46 -90 -61s-70.833 -22.5 -109.5 -22.5s-75.167 7.5 -109.5 22.5s-64.333 35.333 -90 61s-46 55.667 -61 90s-22.5 70.833 -22.5 109.5z" />
    <glyph glyph-name="nikhahitleftthai" unicode="&#xf711;" 
d="M-1038 2441c0 -20 3.83301 -38.667 11.5 -56s18.167 -32.666 31.5 -46c13.333 -13.333 28.666 -23.833 45.999 -31.5s36 -11.5 56 -11.5s38.833 3.83301 56.5 11.5s33.167 18.167 46.5 31.5s23.833 28.666 31.5 46c7.66699 17.333 11.5 36 11.5 56
s-3.83301 38.833 -11.5 56.5s-18.167 33.167 -31.5 46.5s-28.833 23.833 -46.5 31.5s-36.5 11.5 -56.5 11.5s-38.667 -3.83301 -56 -11.5s-32.666 -18.167 -45.999 -31.5s-23.833 -28.833 -31.5 -46.5s-11.5 -36.5 -11.5 -56.5zM-1175 2441
c0 38.667 7.49902 75.167 22.499 109.5s35.333 64.333 61 90s55.667 46 90 61s70.833 22.5 109.5 22.5c40.667 0 78.334 -7.5 113.001 -22.5s64.667 -35.333 90 -61s45 -55.667 59 -90s21 -70.833 21 -109.5s-7.5 -75.167 -22.5 -109.5s-35.333 -64.333 -61 -90
s-55.667 -46 -90 -61s-70.833 -22.5 -109.5 -22.5s-75.167 7.5 -109.5 22.5s-64.333 35.333 -90 61s-46 55.667 -61 90s-22.5 70.833 -22.5 109.5z" />
    <glyph glyph-name="maitaikhuleftthai" 
d="M-589 2837l-0.000976562 -130h-784c-26.667 0 -52 -4.66699 -76 -14s-45.167 -22.833 -63.5 -40.5s-32.833 -39.167 -43.5 -64.5s-16 -53.666 -16 -85c0 -24.667 4 -48.834 12 -72.5c8 -23.667 19.5 -44.834 34.5 -63.5c15 -18.667 33.167 -33.667 54.5 -45
s45.666 -17 72.999 -17s52 5 74 15s40.5 23.833 55.5 41.5s26.667 38.334 35 62c8.33301 23.667 12.5 49.167 12.5 76.5h141c0 -22 3.5 -44.5 10.5 -67.5s17.833 -44 32.5 -63s33.167 -34.5 55.5 -46.5s48.833 -18 79.5 -18c28.667 0 53.334 4.66699 74.001 14
s38.167 22.5 52.5 39.5s26.166 37.333 35.499 61s17.333 49.5 24 77.5l18 -9l40 -19.5l40 -19c12 -5.66699 18.333 -8.5 19 -8.5c-7.33301 -36.667 -19.166 -71.334 -35.499 -104c-16.333 -32.667 -37.333 -61.167 -63 -85.5s-55.667 -43.5 -90 -57.5
s-72.833 -21 -115.5 -21c-32 0 -61 3.66699 -87 11s-49 17.5 -69 30.5s-37.5 28.5 -52.5 46.5s-27.5 37.333 -37.5 58c-10.667 -20.667 -23.667 -40 -39 -58s-33.5 -33.5 -54.5 -46.5s-44.667 -23.167 -71 -30.5s-55.833 -11 -88.5 -11c-50 0 -94.333 9 -133 27
s-71.334 41.833 -98.001 71.5s-47 63.834 -61 102.5c-14 38.667 -21 78.667 -21 120c0 46 7.66699 89.667 23 131s37.333 77.833 66 109.5s63.834 56.667 105.501 75s88.834 27.5 141.501 27.5h790z" />
    <glyph glyph-name="maitaikhuleftthai" unicode="&#xf712;" 
d="M-589 2837l-0.000976562 -130h-784c-26.667 0 -52 -4.66699 -76 -14s-45.167 -22.833 -63.5 -40.5s-32.833 -39.167 -43.5 -64.5s-16 -53.666 -16 -85c0 -24.667 4 -48.834 12 -72.5c8 -23.667 19.5 -44.834 34.5 -63.5c15 -18.667 33.167 -33.667 54.5 -45
s45.666 -17 72.999 -17s52 5 74 15s40.5 23.833 55.5 41.5s26.667 38.334 35 62c8.33301 23.667 12.5 49.167 12.5 76.5h141c0 -22 3.5 -44.5 10.5 -67.5s17.833 -44 32.5 -63s33.167 -34.5 55.5 -46.5s48.833 -18 79.5 -18c28.667 0 53.334 4.66699 74.001 14
s38.167 22.5 52.5 39.5s26.166 37.333 35.499 61s17.333 49.5 24 77.5l18 -9l40 -19.5l40 -19c12 -5.66699 18.333 -8.5 19 -8.5c-7.33301 -36.667 -19.166 -71.334 -35.499 -104c-16.333 -32.667 -37.333 -61.167 -63 -85.5s-55.667 -43.5 -90 -57.5
s-72.833 -21 -115.5 -21c-32 0 -61 3.66699 -87 11s-49 17.5 -69 30.5s-37.5 28.5 -52.5 46.5s-27.5 37.333 -37.5 58c-10.667 -20.667 -23.667 -40 -39 -58s-33.5 -33.5 -54.5 -46.5s-44.667 -23.167 -71 -30.5s-55.833 -11 -88.5 -11c-50 0 -94.333 9 -133 27
s-71.334 41.833 -98.001 71.5s-47 63.834 -61 102.5c-14 38.667 -21 78.667 -21 120c0 46 7.66699 89.667 23 131s37.333 77.833 66 109.5s63.834 56.667 105.501 75s88.834 27.5 141.501 27.5h790z" />
    <glyph glyph-name="maiekupperleftthai" 
d="M-815 3260h146v-374h-146v374z" />
    <glyph glyph-name="maiekupperleftthai" unicode="&#xf713;" 
d="M-815 3260h146v-374h-146v374z" />
    <glyph glyph-name="maithoupperleftthai" 
d="M-1039 3039h599v-134h-745v217h-209v134h355v-217z" />
    <glyph glyph-name="maithoupperleftthai" unicode="&#xf714;" 
d="M-1039 3039h599v-134h-745v217h-209v134h355v-217z" />
    <glyph glyph-name="maitriupperleftthai" 
d="M-839 2902h-121.003c0.666992 4.66699 1 10.834 1 18.5v17.5c0 26 -3.66699 50.833 -11 74.5s-18.333 44.5 -33 62.5s-32.5 32.167 -53.5 42.5s-44.833 15.5 -71.5 15.5c-25.333 0 -47.666 -5.33301 -66.999 -16s-35.5 -25 -48.5 -43s-23 -39.167 -30 -63.5
s-10.5 -49.833 -10.5 -76.5c0 -4.66699 0.166992 -10.334 0.5 -17c0.333008 -6.66699 0.833008 -12.334 1.5 -17l-20.5 -2.5l-44.5 -5.5l-44.5 -5.5l-20.5 -2.5c-1.33301 7.33301 -2.16602 16.5 -2.49902 27.5s-0.5 20.167 -0.5 27.5c0 42 5.66699 82.333 17 121
s28.666 72.834 51.999 102.5c23.333 29.667 53 53.334 89 71c36 17.667 78.667 26.5 128 26.5c30.667 0 58.5 -4.16699 83.5 -12.5s47 -19.166 66 -32.5c19 -13.333 35.167 -28.5 48.5 -45.5s24 -34.167 32 -51.5c8.66699 18 20 35.667 34 53s30.5 32.5 49.5 45.5
s40.667 23.5 65 31.5s51.166 12 80.499 12c42.667 0 80.334 -6.66699 113.001 -20s60.334 -31.666 83.001 -55c22.667 -23.333 40.667 -50.666 54 -82c13.333 -31.333 21.666 -65.333 24.999 -102c3.33301 0.666992 7.83301 1.16699 13.5 1.5s11.167 0.833008 16.5 1.5
c6.66699 0.666992 13.667 1 21 1h106v-112h-245c-6 0 -12.833 3.33301 -20.5 10s-11.5 15 -11.5 25c0 28.667 -3.33301 55.5 -10 80.5s-16.667 46.667 -30 65s-29.666 32.833 -48.999 43.5s-41.666 16 -66.999 16c-28 0 -52.5 -5.5 -73.5 -16.5s-38.5 -25.667 -52.5 -44
s-24.667 -39.166 -32 -62.5c-7.33301 -23.333 -11 -47.333 -11 -72v-18c0 -7.33301 0.333008 -13.333 1 -18z" />
    <glyph glyph-name="maitriupperleftthai" unicode="&#xf715;" 
d="M-839 2902h-121.003c0.666992 4.66699 1 10.834 1 18.5v17.5c0 26 -3.66699 50.833 -11 74.5s-18.333 44.5 -33 62.5s-32.5 32.167 -53.5 42.5s-44.833 15.5 -71.5 15.5c-25.333 0 -47.666 -5.33301 -66.999 -16s-35.5 -25 -48.5 -43s-23 -39.167 -30 -63.5
s-10.5 -49.833 -10.5 -76.5c0 -4.66699 0.166992 -10.334 0.5 -17c0.333008 -6.66699 0.833008 -12.334 1.5 -17l-20.5 -2.5l-44.5 -5.5l-44.5 -5.5l-20.5 -2.5c-1.33301 7.33301 -2.16602 16.5 -2.49902 27.5s-0.5 20.167 -0.5 27.5c0 42 5.66699 82.333 17 121
s28.666 72.834 51.999 102.5c23.333 29.667 53 53.334 89 71c36 17.667 78.667 26.5 128 26.5c30.667 0 58.5 -4.16699 83.5 -12.5s47 -19.166 66 -32.5c19 -13.333 35.167 -28.5 48.5 -45.5s24 -34.167 32 -51.5c8.66699 18 20 35.667 34 53s30.5 32.5 49.5 45.5
s40.667 23.5 65 31.5s51.166 12 80.499 12c42.667 0 80.334 -6.66699 113.001 -20s60.334 -31.666 83.001 -55c22.667 -23.333 40.667 -50.666 54 -82c13.333 -31.333 21.666 -65.333 24.999 -102c3.33301 0.666992 7.83301 1.16699 13.5 1.5s11.167 0.833008 16.5 1.5
c6.66699 0.666992 13.667 1 21 1h106v-112h-245c-6 0 -12.833 3.33301 -20.5 10s-11.5 15 -11.5 25c0 28.667 -3.33301 55.5 -10 80.5s-16.667 46.667 -30 65s-29.666 32.833 -48.999 43.5s-41.666 16 -66.999 16c-28 0 -52.5 -5.5 -73.5 -16.5s-38.5 -25.667 -52.5 -44
s-24.667 -39.166 -32 -62.5c-7.33301 -23.333 -11 -47.333 -11 -72v-18c0 -7.33301 0.333008 -13.333 1 -18z" />
    <glyph glyph-name="maichattawaupperleftthai" 
d="M-671 3010v-152h-142v151h-235v129h235v151h142v-151h232v-128h-232z" />
    <glyph glyph-name="maichattawaupperleftthai" unicode="&#xf716;" 
d="M-671 3010v-152h-142v151h-235v129h235v151h142v-151h232v-128h-232z" />
    <glyph glyph-name="thanthakhatupperleftthai" 
d="M-847 2744v-206h-146v205c0 41.333 13 74 39 98s61 36 105 36h369v-133h-367z" />
    <glyph glyph-name="thanthakhatupperleftthai" unicode="&#xf717;" 
d="M-847 2744v-206h-146v205c0 41.333 13 74 39 98s61 36 105 36h369v-133h-367z" />
    <glyph glyph-name="uni00A0" unicode="&#xa0;" horiz-adv-x="870" 
 />
    <glyph glyph-name="cent" unicode="&#xa2;" horiz-adv-x="1709" 
d="M1540 1576c-68.667 74.667 -143.332 133.833 -223.999 177.5s-170.334 70.167 -269.001 79.5v-1378c50 5.33301 98.833 15.833 146.5 31.5s93.334 35.834 137.001 60.501s84.834 53.167 123.501 85.5s74.334 68.166 107.001 107.499v-212
c-73.333 -64.667 -153.5 -115.667 -240.5 -153s-178.167 -59.666 -273.5 -66.999v-306h-157v307c-72 7.33301 -140 22.833 -204 46.5s-123 54.334 -177 92.001s-102.5 81.5 -145.5 131.5s-79.5 104.833 -109.5 164.5s-53 123.5 -69 191.5s-24 138.667 -24 212
c0 72.667 8.16699 142.667 24.5 210s39.666 130.666 69.999 189.999s67.166 113.833 110.499 163.5s92 93 146 130s112.667 67.333 176 91s130.666 39.167 201.999 46.5v345h157v-343c92 -6 179.167 -24.833 261.5 -56.5s159.5 -77.834 231.5 -138.501v-209zM318.002 1147
c0 -84.667 13.999 -166.33 41.999 -244.997s67.167 -149.334 117.5 -212.001s110.5 -114.667 180.5 -156s147.333 -67.333 232 -78v1375c-84 -10.667 -161.167 -36.5 -231.5 -77.5s-130.666 -92.333 -180.999 -154s-89.5 -131.334 -117.5 -209.001
s-42 -158.834 -42 -243.501z" />
    <glyph glyph-name="sterling" unicode="&#xa3;" horiz-adv-x="1923" 
d="M529 1000c-8 28 -18.167 55.833 -30.5 83.5s-26.5 55.5 -42.5 83.5l-73 128c-22.667 40.667 -42.334 81.667 -59.001 123s-29.834 84.333 -39.501 129s-14.5 93 -14.5 145c0 64 8.66699 124.667 26 182s41.833 110.333 73.5 159s69.167 92.5 112.5 131.5
s90.833 72.333 142.5 100s106.834 48.834 165.501 63.5c58.667 14.667 118.667 22 180 22c64 0 125.333 -8.33301 184 -25s113 -40.334 163 -71c50 -30.667 95.167 -67.167 135.5 -109.5s74.666 -89.166 102.999 -140.499s49.666 -106.333 63.999 -165
s20.5 -119.334 18.5 -182.001h-167c0.666992 76.667 -11.333 147.667 -36 213s-60 122 -106 170s-101.333 85.5 -166 112.5s-136.334 40.5 -215.001 40.5c-70 0 -136 -13.667 -198 -41s-116.167 -64.333 -162.5 -111s-83 -100.834 -110 -162.501
s-40.5 -126.834 -40.5 -195.501c0 -37.333 4.83301 -74 14.5 -110s22.334 -71.167 38.001 -105.5s33 -68.166 52 -101.499l55.5 -99c49.333 -89.333 83.666 -178.333 102.999 -267h595v-152h-576c2.66699 -80.667 -6.16602 -158.834 -26.499 -234.501
s-50.166 -149.5 -89.499 -221.5c44.667 -1.33301 89.334 -8.83301 134.001 -22.5s88.834 -30.167 132.501 -49.5s86.667 -40.166 129 -62.499s83.666 -43 123.999 -62s79 -34.833 116 -47.5s72.5 -19 106.5 -19c79.333 0 148.5 20.5 207.5 61.5s109.5 100.167 151.5 177.5
l140 -89c-21.333 -38.667 -48.166 -76.5 -80.499 -113.5s-69.666 -70 -111.999 -99s-89.166 -52.5 -140.499 -70.5s-106.666 -27 -165.999 -27c-42.667 0 -85.834 6.5 -129.501 19.5s-87.5 29.333 -131.5 49s-87.833 40.834 -131.5 63.501s-86.834 43.834 -129.501 63.501
s-84.334 36 -125.001 49s-80 19.5 -118 19.5c-47.333 0 -89.166 -7.16699 -125.499 -21.5s-69.333 -33.5 -99 -57.5s-57 -51.833 -82 -83.5s-49.833 -64.834 -74.5 -99.501l-131 93c16.667 29.333 36.5 58.5 59.5 87.5s48.667 56.667 77 83s59.333 50.333 93 72
s69.834 39.5 108.501 53.5c51.333 80 90.166 160.5 116.499 241.5s37.166 163.167 32.499 246.5h-305v152h279z" />
    <glyph glyph-name="yen" unicode="&#xa5;" horiz-adv-x="1980" 
d="M746 1182h-460v156h366l-571 985h202l696 -1211l697 1211h202l-571 -985h366v-156h-457l-153 -261h610v-156h-610v-765h-168v765h-609v156h609z" />
    <glyph glyph-name="copyright" unicode="&#xa9;" horiz-adv-x="2654" 
d="M1331 2362c111.333 0 217.667 -14.332 319 -42.999s195.5 -69 282.5 -121s166 -114.333 237 -187s131.5 -153.334 181.5 -242.001s88.5 -183.834 115.5 -285.501s40.5 -207.5 40.5 -317.5c0 -115.333 -13.833 -225 -41.5 -329s-66.834 -200.333 -117.5 -289
c-50.667 -88.667 -111.5 -168.667 -182.5 -240s-150.167 -132 -237.5 -182s-181.333 -88.5 -282 -115.5s-206 -40.5 -316 -40.5s-215.5 13.333 -316.5 40s-195.167 65 -282.5 115s-166.666 110.667 -237.999 182s-132.333 151.333 -183 240s-89.834 185 -117.501 289
s-41.5 214 -41.5 330c0 110 13.667 216 41 318s66 197.333 116 286s110.5 169.334 181.5 242.001s150.167 135 237.5 187s181.833 92.167 283.5 120.5s208.5 42.5 320.5 42.5zM1329 118.001c92 0 181.001 11.667 267.001 35s166.667 56.833 242 100.5s144 96.5 206 158.5
s115.167 131.833 159.5 209.5s78.666 162 103 253c24.333 91 36.5 187.167 36.5 288.5c0 90 -11 178.333 -33 265s-53.667 168.667 -95 246s-91.666 148.5 -150.999 213.5s-126.5 121.167 -201.5 168.5s-157.167 84.333 -246.5 111s-184.666 40 -285.999 40
c-102 0 -197.833 -13.167 -287.5 -39.5s-172.167 -63 -247.5 -110s-142.833 -103.167 -202.5 -168.5s-110.334 -136.666 -152.001 -213.999s-73.5 -159.333 -95.5 -246s-33 -175.334 -33 -266.001c0 -101.333 12.333 -197.5 37 -288.5s59.167 -175.333 103.5 -253
s97.666 -147.5 159.999 -209.5s131.166 -114.833 206.499 -158.5s156 -77.167 242 -100.5s175.333 -35 268 -35zM1834 576.001c-28.667 -24.667 -60.8311 -47.5 -96.498 -68.5s-73.5 -39 -113.5 -54s-81.5 -26.833 -124.5 -35.5s-85.833 -13 -128.5 -13
c-68.667 0 -134.334 9.5 -197.001 28.5s-120.667 45.5 -174 79.5s-101.666 74.5 -144.999 121.5s-80.166 98.5 -110.499 154.5s-53.833 115.5 -70.5 178.5s-25 127.5 -25 193.5s8.33301 130.5 25 193.5s40.167 122.333 70.5 178s67.166 106.667 110.499 153
s91.666 86.333 144.999 120s111.333 59.834 174 78.501s128.334 28 197.001 28c42.667 0 85.667 -4.33301 129 -13s85 -20.667 125 -36s77.833 -33.5 113.5 -54.5s67.5 -43.5 95.5 -67.5v-216c-26.667 35.333 -56.834 67.5 -90.501 96.5s-70.167 53.667 -109.5 74
s-81 36.166 -125 47.499s-89.667 17 -137 17c-82 0 -157.667 -16.167 -227 -48.5s-129.166 -76.333 -179.499 -132s-89.5 -120.167 -117.5 -193.5s-42 -151 -42 -233c0 -54 6.33301 -106.333 19 -157s30.667 -98 54 -142s51.833 -84.5 85.5 -121.5s71.5 -68.5 113.5 -94.5
s87.667 -46.333 137 -61s101.666 -22 156.999 -22c48 0 94 5.33301 138 16s85.667 26 125 46s75.666 44.167 108.999 72.5s63.333 59.833 90 94.5v-208z" />
    <glyph glyph-name="guillemotleft" unicode="&#xab;" horiz-adv-x="1382" 
d="M1249 420l-101 -95l-508 589l508 589l101 -95l-421 -494zM731 420l-101 -95l-508 589l508 589l101 -95l-421 -494z" />
    <glyph glyph-name="registered" unicode="&#xae;" horiz-adv-x="1445" 
d="M722 2346c86.667 0 166.998 -16.167 240.998 -48.5s138.167 -76.166 192.5 -131.5c54.333 -55.333 96.833 -119.833 127.5 -193.5s46 -152.167 46 -235.5c0 -88 -15.5 -169.167 -46.5 -243.5s-73.667 -138.833 -128 -193.5s-118.833 -97.334 -193.5 -128.001
s-155.667 -46 -243 -46c-86 0 -166.167 15.167 -240.5 45.5s-138.666 72.833 -192.999 127.5s-97 119.334 -128 194.001s-46.5 156 -46.5 244c0 83.333 15.5 162 46.5 236s73.833 138.667 128.5 194s119.334 99 194.001 131s155.667 48 243 48zM718.998 1238
c69.333 0 134.169 12.334 194.502 37.001s113 59 158 103s80.333 96.5 106 157.5s38.5 127.833 38.5 200.5c0 64 -11.833 126 -35.5 186s-57.167 113 -100.5 159s-95.5 82.833 -156.5 110.5s-128.833 41.5 -203.5 41.5s-142.667 -13.833 -204 -41.5
s-113.833 -64.5 -157.5 -110.5s-77.5 -98.833 -101.5 -158.5s-36 -121.834 -36 -186.501c0 -72.667 13.167 -139.5 39.5 -200.5s62.166 -113.5 107.499 -157.5s98.166 -78.333 158.499 -103s124.5 -37 192.5 -37zM728.001 1748c42.667 0 77.334 13.166 104.001 39.499
s40 60.833 40 103.5s-13.333 77.334 -40 104.001s-61.334 40 -104.001 40h-112v-287h112zM968.001 1332h-126.999l-224 321v-321h-104v800h237c33.333 0 64 -6.16699 92 -18.5s52 -29.333 72 -51s35.5 -47.167 46.5 -76.5s16.5 -61 16.5 -95s-6 -65.5 -18 -94.5
s-28.833 -54.167 -50.5 -75.5s-47.334 -38 -77.001 -50s-62.5 -17.667 -98.5 -17z" />
    <glyph glyph-name="guillemotright" unicode="&#xbb;" horiz-adv-x="1382" 
d="M543 914l-421 494l101 95l508 -589l-508 -589l-101 95zM1061 914l-421 494l101 95l508 -589l-508 -589l-101 95z" />
    <glyph glyph-name="onequarter" unicode="&#xbc;" horiz-adv-x="2713" 
d="M268 2180l52 143h461v-1458h-143v1315h-370zM2108 2323l-1364 -2373l-121 73l1363 2373zM2436 394v-138h-210v-256h-143v256h-797v13l919 1230h21v-1105h210zM2083 1093h-13l-511 -683v-16h524v699z" />
    <glyph glyph-name="onehalf" unicode="&#xbd;" horiz-adv-x="2713" 
d="M2108 2323l-1364 -2373l-121 73l1363 2373zM1926 134h618v-134h-897l667 886c18 24.667 32.167 53.167 42.5 85.5s15.5 64.833 15.5 97.5c0 39.333 -7.5 76.333 -22.5 111s-35.333 64.834 -61 90.501s-55.834 46 -90.5 61c-34.667 15 -71.667 22.5 -111 22.5
c-38.667 0 -75.334 -6.83301 -110.001 -20.5s-65.167 -32.834 -91.5 -57.501s-47.166 -53.667 -62.499 -87s-22.333 -70 -21 -110h-144c0 59.333 11.167 114.333 33.5 165s53 94.5 92 131.5s84.333 66 136 87s107.167 31.5 166.5 31.5s115 -11.167 167 -33.5
s97.333 -52.833 136 -91.5s69.167 -84 91.5 -136s33.5 -107.667 33.5 -167c0 -46.667 -6.5 -92 -19.5 -136s-31.5 -82.667 -55.5 -116zM268 2180l52 143h461v-1458h-143v1315h-370z" />
    <glyph glyph-name="threequarters" unicode="&#xbe;" horiz-adv-x="2713" 
d="M352 1257c1.33301 -38 9.66602 -73.6719 24.999 -107.005s35.833 -62.5 61.5 -87.5s55.5 -44.667 89.5 -59s70.333 -21.5 109 -21.5c39.333 0 76.333 7.5 111 22.5s64.834 35.333 90.501 61s46 55.834 61 90.501s22.5 71.667 22.5 111s-7.5 76.333 -22.5 111
s-35.333 64.834 -61 90.501s-55.667 46 -90 61s-71.166 22.5 -110.499 22.5v182c32.667 0 63.5 6.16699 92.5 18.5s54.167 29.333 75.5 51s38.333 46.834 51 75.501s19 59.334 19 92.001s-6.16699 63.334 -18.5 92.001s-29.333 53.834 -51 75.5
c-21.667 21.667 -46.834 38.667 -75.501 51s-59.334 18.5 -92.001 18.5c-32 0 -62.167 -5.16699 -90.5 -15.5s-53.333 -25.166 -75 -44.499s-39 -42.833 -52 -70.5s-19.5 -58.834 -19.5 -93.501h-136c0 51.333 9.83301 99 29.5 143s46.334 82 80.001 114
s73.167 57.167 118.5 75.5s93.666 27.5 144.999 27.5c54 0 103.833 -9.33301 149.5 -28s85 -44.667 118 -78s58.833 -72.666 77.5 -118c18.667 -45.333 28 -95 28 -149c0 -35.333 -5.16699 -69.833 -15.5 -103.5s-24.666 -64.834 -42.999 -93.501s-40.5 -54 -66.5 -76
s-54.667 -39.333 -86 -52c40 -12.667 76.167 -30.834 108.5 -54.501s60 -51.667 83 -84s40.667 -68.666 53 -108.999s18.5 -83.166 18.5 -128.499c0 -59.333 -11.167 -115 -33.5 -167s-52.833 -97.333 -91.5 -136s-84 -69.167 -136 -91.5s-107.667 -33.5 -167 -33.5
s-114.833 10.5 -166.5 31.5s-97 50 -136 87s-69.667 80.833 -92 131.5s-33.5 105.667 -33.5 165h144zM2108 2323l-1364 -2373l-121 73l1363 2373zM2436 393.995v-138h-210v-256h-143v256h-797v13l919 1230h21v-1105h210zM2083 1093h-13l-511 -683v-16h524v699z" />
    <glyph glyph-name="multiply" unicode="&#xd7;" horiz-adv-x="2020" 
d="M903 852l-710 706l104 118l718 -713l723 718l104 -118l-716 -711l716 -711l-104 -118l-723 718l-718 -713l-104 118z" />
    <glyph glyph-name="divide" unicode="&#xf7;" horiz-adv-x="2014" 
d="M178 932h1679v-168h-1679v168zM1016 286c20 0 38.667 -3.66699 56 -11s32.5 -17.5 45.5 -30.5s23.167 -28.167 30.5 -45.5s11 -36 11 -56s-3.66699 -38.667 -11 -56s-17.5 -32.5 -30.5 -45.5s-28.167 -23.167 -45.5 -30.5s-36 -11 -56 -11s-38.5 3.66699 -55.5 11
s-32 17.5 -45 30.5s-23.167 28.167 -30.5 45.5s-11 36 -11 56s3.66699 38.667 11 56s17.5 32.5 30.5 45.5s28 23.167 45 30.5s35.5 11 55.5 11zM1016 1695c20 0 38.667 -3.66699 56 -11s32.5 -17.333 45.5 -30s23.167 -27.667 30.5 -45s11 -36 11 -56
s-3.66699 -38.667 -11 -56s-17.5 -32.5 -30.5 -45.5s-28.167 -23.167 -45.5 -30.5s-36 -11 -56 -11s-38.5 3.66699 -55.5 11s-32 17.5 -45 30.5s-23.167 28.167 -30.5 45.5s-11 36 -11 56s3.66699 38.667 11 56s17.5 32.333 30.5 45s28 22.667 45 30s35.5 11 55.5 11z" />
    <glyph glyph-name="kokaithai" unicode="&#xe01;" horiz-adv-x="1879" 
d="M273 0l-0.000976562 1287c0 53.333 7.5 105.333 22.5 156s36.333 98.167 64 142.5s61.334 85 101.001 122s84.167 69 133.5 96s103.166 47.833 161.499 62.5s120.166 22 185.499 22c102.667 0 195 -16.333 277 -49s151.833 -76.834 209.5 -132.501
s101.834 -120.167 132.501 -193.5s46 -151 46 -233v-1280h-164v1265c0 70 -12.5 133.667 -37.5 191s-59.667 106.166 -104 146.499s-97.166 71.666 -158.499 93.999s-128 33.5 -200 33.5c-68 0 -132.5 -11.333 -193.5 -34s-114.667 -54.5 -161 -95.5s-83 -90 -110 -147
s-40.5 -120.167 -40.5 -189.5v-1264h-164z" />
    <glyph glyph-name="khokhaithai" unicode="&#xe02;" horiz-adv-x="1662" 
d="M1225 1866l163.998 0.000976562v-1352c0 -82 -14.667 -156.167 -44 -222.5s-69.166 -122.833 -119.499 -169.5s-109.5 -82.667 -177.5 -108s-140.333 -38 -217 -38c-77.333 0 -149.833 12.667 -217.5 38s-126.667 61.333 -177 108s-90.166 103.167 -119.499 169.5
s-44 140.5 -44 222.5v606c0 34 5.33301 63.667 16 89s25.667 49.666 45 72.999l122 142c14.667 16.667 22 37.667 22 63v379h164v-386c0 -25.333 -3.5 -47 -10.5 -65s-18.5 -37 -34.5 -57l-126 -157c-11.333 -13.333 -19.833 -27.5 -25.5 -42.5s-8.5 -31.167 -8.5 -48.5
v-592c0 -62 10 -117.167 30 -165.5s47.5 -89.166 82.5 -122.499s76.5 -58.666 124.5 -75.999s100.333 -26 157 -26s109 8.66699 157 26s89.5 42.666 124.5 75.999s62.5 74.166 82.5 122.499s30 103.5 30 165.5v1348z" />
    <glyph glyph-name="khokhuatthai" unicode="&#xe03;" horiz-adv-x="1662" 
d="M273 1088c0 32 4.66406 62.833 13.9971 92.5s25 57.167 47 82.5l74 85c18 20 25.667 41.333 23 64c-6 35.333 -16.667 69.333 -32 102s-36 62.667 -62 90s-57.167 51.166 -93.5 71.499s-78.166 35.833 -125.499 46.5l43 157c87.333 -22.667 160.5 -58.667 219.5 -108
s100.5 -108.666 124.5 -177.999l8 273h129v-408c0 -25.333 -3.5 -47 -10.5 -65s-18.833 -37 -35.5 -57l-125 -155c-13.333 -16 -22.333 -32.833 -27 -50.5s-7 -35.167 -7 -52.5v-560c0 -62 10 -117.167 30 -165.5s47.5 -89.166 82.5 -122.499s76.5 -58.666 124.5 -75.999
s100.333 -26 157 -26s109 8.66699 157 26s89.5 42.666 124.5 75.999s62.5 74.166 82.5 122.499s30 103.5 30 165.5v1348h164v-1352c0 -82 -14.667 -156.167 -44 -222.5s-69.166 -122.833 -119.499 -169.5s-109.5 -82.667 -177.5 -108s-140.333 -38 -217 -38
c-77.333 0 -149.833 12.667 -217.5 38s-126.667 61.333 -177 108s-90.166 103.167 -119.499 169.5s-44 140.5 -44 222.5v574z" />
    <glyph glyph-name="khokhwaithai" unicode="&#xe04;" horiz-adv-x="1879" 
d="M437 1264l-0.000976562 -290.997h510v-144h-510v-828l-164 -1v1287c0 53.333 7.5 105.333 22.5 156s36.333 98.167 64 142.5s61.334 85 101.001 122s84.167 69 133.5 96s103.166 47.833 161.499 62.5s120.166 22 185.499 22c102.667 0 195 -16.333 277 -49
s151.833 -76.834 209.5 -132.501s101.834 -120.167 132.501 -193.5s46 -151 46 -233v-1279h-164v1264c0 70 -12.5 133.667 -37.5 191s-59.667 106.166 -104 146.499s-97.166 71.666 -158.499 93.999s-128 33.5 -200 33.5c-68 0 -132.5 -11.333 -193.5 -34
s-114.667 -54.5 -161 -95.5s-83 -90 -110 -147s-40.5 -120.167 -40.5 -189.5z" />
    <glyph glyph-name="khokhonthai" unicode="&#xe05;" horiz-adv-x="1879" 
d="M1606 1327v-1326h-164v1311c0 80.667 -15.667 152.5 -47 215.5s-75.333 114.833 -132 155.5c-16.667 -19.333 -35.834 -37.666 -57.501 -54.999s-46 -32.5 -73 -45.5s-56.167 -23.333 -87.5 -31s-65 -11.5 -101 -11.5c-68 0 -130.333 13 -187 39s-102 62 -136 108
c-56.667 -33.333 -101.5 -81.5 -134.5 -144.5s-49.5 -140.5 -49.5 -232.5v-337h510v-144h-510v-828l-164 -1v1334c0 61.333 9.16699 120.333 27.5 177s44.666 109.167 78.999 157.5s76.333 91.333 126 129s105.834 67.834 168.501 90.501
c13.333 -32.667 29.833 -61.167 49.5 -85.5s41.334 -44.5 65.001 -60.5s48.834 -28 75.501 -36s54 -12 82 -12c27.333 0 54.166 4.16699 80.499 12.5s51.333 20.5 75 36.5s45 36 64 60s34.833 51.667 47.5 83c62 -23.333 117.5 -54.166 166.5 -92.499s90.167 -82 123.5 -131
s58.833 -102 76.5 -159s26.5 -115.833 26.5 -176.5z" />
    <glyph glyph-name="khorakhangthai" unicode="&#xe06;" horiz-adv-x="1995" 
d="M389 1336c0 52.667 -7.00098 99.998 -21.001 141.998s-33.333 79 -58 111s-53.834 59 -87.501 81s-69.834 39.333 -108.501 52l3 11.5l7.5 29c3 11.667 6.5 24.167 10.5 37.5s7.5 25.833 10.5 37.5s5.66699 21.5 8 29.5l3.5 12c32 -8 63 -19.833 93 -35.5s58 -34 84 -55
s49.333 -44.5 70 -70.5s37.667 -53.333 51 -82c0.666992 19.333 5.66699 41 15 65s21.5 47.5 36.5 70.5s32.333 44.333 52 64s40.834 34.834 63.501 45.501l12.5 -19.5l27.5 -42.5l27.5 -42.5l12.5 -19.5c-28 -16 -51.5 -36 -70.5 -60s-34.333 -50.333 -46 -79
s-20 -58.667 -25 -90s-7.5 -62 -7.5 -92v-845c0 -70 13.667 -134.167 41 -192.5s64 -108.666 110 -150.999s99.667 -75.333 161 -99s126 -35.5 194 -35.5c72 0 138.5 11.667 199.5 35s113.667 56 158 98s79 92.167 104 150.5s37.5 122.5 37.5 192.5v1277h164v-1292
c0 -80 -15.333 -156.833 -46 -230.5s-74.667 -138.5 -132 -194.5s-127 -100.667 -209 -134s-174.333 -50 -277 -50c-69.333 0 -135.666 8.33301 -198.999 25s-121.166 41 -173.499 73s-98.333 70.833 -138 116.5s-70.5 97.5 -92.5 155.5l-0.5 -15
c-0.333008 -10 -1 -22.833 -2 -38.5s-2 -33.5 -3 -53.5s-1.83301 -40.333 -2.5 -61c-2.66699 -48.667 -5 -104 -7 -166h-139v866h88v469z" />
    <glyph glyph-name="ngonguthai" unicode="&#xe07;" horiz-adv-x="1380" 
d="M112 314l46.498 31c13.667 9.33301 20.834 14.333 21.501 15c18 -36.667 39.833 -69.667 65.5 -99s54.5 -54.333 86.5 -75s66.333 -36.667 103 -48s75 -17 115 -17c124.667 0 221.334 35.667 290.001 107s103 178 103 320v1173h-438v145h602v-1332
c0 -89.333 -13.167 -168.833 -39.5 -238.5s-63.666 -128.5 -111.999 -176.5s-106.833 -84.5 -175.5 -109.5s-145 -37.5 -229 -37.5c-62.667 0 -119.334 7.33301 -170.001 22s-96.667 35.167 -138 61.5s-78.333 57.5 -111 93.5s-62 75.667 -88 119z" />
    <glyph glyph-name="chochanthai" unicode="&#xe08;" horiz-adv-x="1653" 
d="M77 1287c0 53.333 7.00098 105.336 21.001 156.003s34.167 98.167 60.5 142.5s58.333 85 96 122s80.5 69 128.5 96s100.667 47.833 158 62.5s118.666 22 183.999 22c102.667 0 194.5 -16.333 275.5 -49s149.667 -76.834 206 -132.501s99.333 -120.167 129 -193.5
s44.5 -151 44.5 -233v-1281h-164v824h-510v144h510v298c0 70 -12 133.667 -36 191s-57.5 106.166 -100.5 146.499s-94.667 71.666 -155 93.999s-126.5 33.5 -198.5 33.5c-68 0 -132 -11.333 -192 -34s-112.5 -54.5 -157.5 -95.5s-80.5 -90 -106.5 -147
s-39 -120.167 -39 -189.5z" />
    <glyph glyph-name="chochingthai" unicode="&#xe09;" horiz-adv-x="1880" 
d="M354 1868h825.002c56.667 0 110.834 -10.333 162.501 -31s97 -49.834 136 -87.501s70.167 -82.667 93.5 -135s35 -109.833 35 -172.5v-575h88v-868h-139l-9 175c-1.33301 22 -2.5 43.333 -3.5 64s-1.83301 39.334 -2.5 56.001s-1.33398 30.167 -2.00098 40.5l-1 15.5
c-22 -58 -53.5 -110.667 -94.5 -158s-88 -87.666 -141 -120.999s-110.667 -59 -173 -77s-126.166 -27 -191.499 -27c-102.667 0 -195 16.667 -277 50s-151.667 78 -209 134s-101.333 120.833 -132 194.5s-46 150.5 -46 230.5v663h164v-648c0 -70 12.5 -134.667 37.5 -194
s59.667 -110.5 104 -153.5s97 -76.667 158 -101s127.5 -36.5 199.5 -36.5c68 0 132.667 12.333 194 37s115.166 58.667 161.499 102s83.166 94.666 110.499 153.999s41 124 41 194v840c0 37.333 -7.66699 72.5 -23 105.5s-35.833 62 -61.5 87s-55.334 44.667 -89.001 59
s-68.5 21.5 -104.5 21.5h-892z" />
    <glyph glyph-name="chochangthai" unicode="&#xe0a;" horiz-adv-x="1662" 
d="M831 128c56.667 0 109.001 8.16406 157.001 24.4971s89.5 40.5 124.5 72.5s62.5 71.667 82.5 119s30 102 30 164v452c0 55.333 -8.5 103.333 -25.5 144s-39.5 74.5 -67.5 101.5s-59.667 47 -95 60s-71.333 19.5 -108 19.5h-36v148h36c36 0 71.667 4.66699 107 14
s67 24.666 95 45.999s50.667 49 68 83s26 75.667 26 125v285h164v-276c0 -47.333 -5.66699 -90.666 -17 -129.999s-27.5 -74 -48.5 -104s-46.333 -54.667 -76 -74s-63.167 -33 -100.5 -41c39.333 -9.33301 74.166 -26.5 104.499 -51.5s55.666 -55.833 75.999 -92.5
s35.666 -78 45.999 -124s15.5 -94.333 15.5 -145v-444c0 -82 -14.667 -155.667 -44 -221s-69.166 -120.666 -119.499 -165.999s-109.5 -80.166 -177.5 -104.499s-140.333 -36.5 -217 -36.5c-77.333 0 -149.833 12.667 -217.5 38s-126.667 61.333 -177 108
s-90.166 103.167 -119.499 169.5s-44 140.5 -44 222.5v606c0 34 5.33301 63.667 16 89s25.667 49.666 45 72.999l122 142c14.667 16.667 22 37.667 22 63v379h164v-386c0 -25.333 -3.5 -47 -10.5 -65s-18.5 -37 -34.5 -57l-126 -157
c-11.333 -13.333 -19.833 -27.5 -25.5 -42.5s-8.5 -31.167 -8.5 -48.5v-592c0 -62 10 -117.167 30 -165.5s47.5 -89.166 82.5 -122.499s76.5 -58.666 124.5 -75.999s100.333 -26 157 -26z" />
    <glyph glyph-name="sosothai" unicode="&#xe0b;" horiz-adv-x="1662" 
d="M1225 960c0 55.333 -8.5 103.333 -25.5 144s-39.5 74.5 -67.5 101.5s-59.667 47 -95 60s-71.333 19.5 -108 19.5h-36v148h36c36 0 71.667 4.66699 107 14s67 24.666 95 45.999s50.667 49 68 83s26 75.667 26 125v285h164v-276c0 -47.333 -5.66699 -90.666 -17 -129.999
s-27.5 -74 -48.5 -104s-46.333 -54.667 -76 -74s-63.167 -33 -100.5 -41c39.333 -9.33301 74.166 -26.5 104.499 -51.5s55.666 -55.833 75.999 -92.5s35.666 -78 45.999 -124s15.5 -94.333 15.5 -145v-444c0 -82 -14.667 -155.667 -44 -221
s-69.166 -120.666 -119.499 -165.999s-109.5 -80.166 -177.5 -104.499s-140.333 -36.5 -217 -36.5c-77.333 0 -149.833 12.167 -217.5 36.5s-126.667 59.166 -177 104.499s-90.166 100.666 -119.499 165.999s-44 139 -44 221v584c0 32 4.66699 62.833 14 92.5
s25 57.167 47 82.5l74 85c18 20 25.667 41.333 23 64c-6 35.333 -16.667 69.333 -32 102s-36 62.667 -62 90s-57.167 51.166 -93.5 71.499s-78.166 35.833 -125.499 46.5l43 157c87.333 -22.667 160.5 -58.667 219.5 -108s100.5 -108.666 124.5 -177.999l8 273h129v-408
c0 -25.333 -3.5 -47 -10.5 -65s-18.833 -37 -35.5 -57l-125 -155c-13.333 -16 -22.333 -32.833 -27 -50.5s-7 -35.167 -7 -52.5v-570c0 -62 10 -116.667 30 -164s47.5 -87 82.5 -119s76.5 -56.167 124.5 -72.5s100.333 -24.5 157 -24.5s109 8.16699 157 24.5
s89.5 40.5 124.5 72.5s62.5 71.667 82.5 119s30 102 30 164v452z" />
    <glyph glyph-name="chochoethai" unicode="&#xe0c;" horiz-adv-x="2774" 
d="M1606 576c0 -58.667 9 -115.495 27 -170.495s43.5 -103.833 76.5 -146.5s73 -76.834 120 -102.501s99.833 -38.5 158.5 -38.5c61.333 0 114 10 158 30s80.167 47.5 108.5 82.5s49.166 76.5 62.5 124.5c13.333 48 20 99.667 20 155v1357h164v-1372
c0 -70 -10.333 -136.833 -31 -200.5s-52.167 -119.667 -94.5 -168s-95.666 -86.833 -159.999 -115.5s-140.5 -43 -228.5 -43c-60.667 0 -116.667 9 -168 27s-97.5 42.667 -138.5 74s-76 68.666 -105 111.999s-51.167 90 -66.5 140l-1 -14
c-0.666992 -9.33301 -1.33398 -21.5 -2.00098 -36.5s-1.5 -32.167 -2.5 -51.5s-1.83301 -39 -2.5 -59c-2.66699 -46.667 -5 -100 -7 -160h-140v867h89v398c0 70 -12.5 133.667 -37.5 191s-59.833 106.166 -104.5 146.499s-97.667 71.666 -159 93.999s-128 33.5 -200 33.5
c-68 0 -132.5 -11.333 -193.5 -34s-114.667 -54.5 -161 -95.5s-83 -90 -110 -147s-40.5 -120.167 -40.5 -189.5v-1264h-164v1287c0 53.333 7.5 105.333 22.5 156s36.333 98.167 64 142.5s61.334 85 101.001 122s84.167 69 133.5 96s103.166 47.833 161.499 62.5
s120.166 22 185.499 22c102.667 0 195 -16.333 277 -49s151.833 -76.834 209.5 -132.501s101.834 -120.167 132.501 -193.5s46 -151 46 -233v-704z" />
    <glyph glyph-name="yoyingthai" unicode="&#xe0d;" horiz-adv-x="2774" 
d="M1442 1265c0 70 -12.5 133.668 -37.5 191.001s-59.667 106.166 -104 146.499s-97.166 71.666 -158.499 93.999s-128 33.5 -200 33.5c-68 0 -132.5 -11.333 -193.5 -34s-114.667 -54.5 -161 -95.5s-83 -90 -110 -147s-40.5 -120.167 -40.5 -189.5v-1264h-164v1287
c0 53.333 7.5 105.333 22.5 156s36.333 98.167 64 142.5s61.334 85 101.001 122s84.167 69 133.5 96s103.166 47.833 161.499 62.5s120.166 22 185.499 22c102.667 0 195 -16.333 277 -49s151.833 -76.834 209.5 -132.501s101.834 -120.167 132.501 -193.5s46 -151 46 -233
v-42v-88v-119c0 -44 -0.166992 -88.833 -0.5 -134.5s-0.5 -90.5 -0.5 -134.5v-119.5v-88.5v-42c0 -50 8 -98.667 24 -146s40 -89.5 72 -126.5s71.833 -66.667 119.5 -89s103.167 -33.5 166.5 -33.5c54.667 0 103.667 10.333 147.001 31c43.333 20.667 80 48.834 110 84.501
s53 77.667 69 126s24 100.166 24 155.499v1353h164v-1805c0 -70 -10.333 -136.667 -31 -200s-52.334 -119.166 -95.001 -167.499s-96.167 -86.833 -160.5 -115.5s-140.5 -43 -228.5 -43c-54 0 -104.5 6.16699 -151.5 18.5s-90.5 29.833 -130.5 52.5s-76.833 50 -110.5 82
s-63.834 67.333 -90.501 106l114 87c20.667 -30 43.834 -57.5 69.501 -82.5s53.834 -46.667 84.501 -65s64 -32.666 100 -42.999s74.667 -15.5 116 -15.5c62 0 115.333 9.5 160 28.5s81.667 45.333 111 79s51 73.667 65 120s21 97.166 21 152.499
c0 13.333 0.5 28.5 1.5 45.5s3.16699 34.5 6.5 52.5c-14 -23.333 -33.5 -45.666 -58.5 -66.999s-53.5 -40.333 -85.5 -57s-67 -30 -105 -40s-77 -15 -117 -15c-62 0 -118.5 7.16699 -169.5 21.5s-96.667 34 -137 59s-75.333 54.5 -105 88.5s-54.334 70.5 -74.001 109.5
s-34.334 79.667 -44.001 122s-14.5 84.5 -14.5 126.5v763z" />
    <glyph glyph-name="dochadathai" unicode="&#xe0e;" horiz-adv-x="1879" 
d="M346 -352l845.999 -4.99707c38 0 72.5 5.83301 103.5 17.5s57.333 28.667 79 51s38.334 49.5 50.001 81.5s17.5 67.667 17.5 107v1365c0 70 -12.5 133.667 -37.5 191s-59.667 106.166 -104 146.499s-97.166 71.666 -158.499 93.999s-128 33.5 -200 33.5
c-68 0 -132.5 -11.333 -193.5 -34s-114.667 -54.5 -161 -95.5s-83 -90 -110 -147s-40.5 -120.167 -40.5 -189.5v-1264h-164v1287c0 53.333 7.5 105.333 22.5 156s36.333 98.167 64 142.5s61.334 85 101.001 122s84.167 69 133.5 96s103.166 47.833 161.499 62.5
s120.166 22 185.499 22c102.667 0 195 -16.333 277 -49s151.833 -76.834 209.5 -132.501s101.834 -120.167 132.501 -193.5s46 -151 46 -233v-1372c0 -59.333 -9.66699 -114.5 -29 -165.5s-46.833 -95 -82.5 -132s-78.834 -65.833 -129.501 -86.5s-107.667 -30.667 -171 -30
l-921 8z" />
    <glyph glyph-name="topatakthai" unicode="&#xe0f;" horiz-adv-x="1879" 
d="M351 -189c18 -52 45.5029 -93.3291 82.5029 -123.996s84.5 -46 142.5 -46c34.667 0 64.667 5.5 90 16.5s47.166 26 65.499 45s33.666 41.333 45.999 67s22.833 53.167 31.5 82.5h67h47c14 0 21.667 0.333008 23 1c8.66699 -29.333 20.167 -57 34.5 -83
s31.833 -48.5 52.5 -67.5s44.834 -34 72.501 -45s59.5 -16.5 95.5 -16.5c35.333 0 67.833 6 97.5 18s55.167 29.167 76.5 51.5s37.833 49.333 49.5 81s17.5 67.167 17.5 106.5v1367c0 70 -12.5 133.667 -37.5 191s-59.667 106.166 -104 146.499
s-97.166 71.666 -158.499 93.999s-128 33.5 -200 33.5c-68 0 -132.5 -11.333 -193.5 -34s-114.667 -54.5 -161 -95.5s-83 -90 -110 -147s-40.5 -120.167 -40.5 -189.5v-1264h-164v1287c0 53.333 7.5 105.333 22.5 156s36.333 98.167 64 142.5s61.334 85 101.001 122
s84.167 69 133.5 96s103.166 47.833 161.499 62.5s120.166 22 185.499 22c102.667 0 195 -16.333 277 -49s151.833 -76.834 209.5 -132.501s101.834 -120.167 132.501 -193.5s46 -151 46 -233v-1374c0 -59.333 -9.5 -114.333 -28.5 -165s-46.333 -94.5 -82 -131.5
s-78.834 -66 -129.501 -87s-107.667 -31.5 -171 -31.5c-38.667 0 -75.5 5.33301 -110.5 16s-66.5 25 -94.5 43s-51.833 38.833 -71.5 62.5s-33.834 48.5 -42.501 74.5c-10 -25.333 -23.5 -49.666 -40.5 -72.999s-38 -43.833 -63 -61.5s-53.833 -31.834 -86.5 -42.501
s-69.334 -16 -110.001 -16c-43.333 0 -83.5 6.66699 -120.5 20s-70.5 31.333 -100.5 54s-55.833 49.167 -77.5 79.5s-38.167 62.166 -49.5 95.499z" />
    <glyph glyph-name="thothanthai" unicode="&#xe10;" horiz-adv-x="1653" 
d="M77 1287c0 53.333 7.00098 105.335 21.001 156.002s34.167 98.167 60.5 142.5s58.333 85 96 122s80.5 69 128.5 96s100.667 47.833 158 62.5s118.666 22 183.999 22c44 0 86.5 -3.66699 127.5 -11s79.667 -17.5 116 -30.5s70.166 -28.667 101.499 -47
s59 -38.166 83 -59.499c12.667 -11.333 26.167 -25 40.5 -41s26.5 -33.667 36.5 -53c-1.33301 10 -2.5 22.167 -3.5 36.5s-1.66699 28.666 -2 42.999s-0.666016 27.333 -0.999023 39s-0.5 20.167 -0.5 25.5v296h157v-2087h-164v824h-510v144h510v298
c0 70 -12 133.667 -36 191s-57.5 106.166 -100.5 146.499s-94.667 71.666 -155 93.999s-126.5 33.5 -198.5 33.5c-68 0 -132 -11.333 -192 -34s-112.5 -54.5 -157.5 -95.5s-80.5 -90 -106.5 -147s-39 -120.167 -39 -189.5zM169.001 -351.998
c34.667 -1.33301 66.0049 -2.33301 94.0049 -3c12 -0.666992 24 -1.16699 36 -1.5s22.833 -0.666016 32.5 -0.999023s18 -0.5 25 -0.5h13.5c67.333 0 119.666 18.667 156.999 56s62.666 87.333 75.999 150h138c8 -30 19.167 -57.5 33.5 -82.5s32 -46.667 53 -65
s45 -32.666 72 -42.999s57.167 -15.5 90.5 -15.5c64 0 115.167 16.167 153.5 48.5s62.5 77.166 72.5 134.499v42h163v-57c-8.66699 -46.667 -24.167 -89.167 -46.5 -127.5s-50.5 -71 -84.5 -98s-73.333 -47.833 -118 -62.5s-94 -22 -148 -22c-39.333 0 -76 5.33301 -110 16
s-64.5 24.834 -91.5 42.501s-49.833 38.167 -68.5 61.5s-32.334 47.666 -41.001 72.999c-10 -26 -23.833 -50.667 -41.5 -74s-39.167 -44 -64.5 -62s-54.5 -32.167 -87.5 -42.5s-69.5 -15.5 -109.5 -15.5c-5.33301 0 -13.333 0.166992 -24 0.5
s-22.834 0.666016 -36.501 0.999023s-28.334 0.833008 -44.001 1.5l-46.5 2c-36.667 2 -75.667 4 -117 6z" />
    <glyph glyph-name="thonangmonthothai" unicode="&#xe11;" horiz-adv-x="1948" 
d="M507 1247v-1246.99h-164v1243c0 41.333 -4.83301 86 -14.5 134s-26.5 94.167 -50.5 138.5s-56.833 85 -98.5 122s-94.5 65.167 -158.5 84.5l43 157c28.667 -6 58.5 -16.833 89.5 -32.5s60.333 -34.334 88 -56.001s52.5 -45.334 74.5 -71.001s38.333 -51.834 49 -78.501
l1 225h139v-223c0 -7.33301 -0.166992 -19.333 -0.5 -36s-0.666016 -35.167 -0.999023 -55.5s-1 -41.5 -2 -63.5s-2.5 -42 -4.5 -60l321 276c67.333 58 135.333 101.167 204 129.5s134.667 43.666 198 45.999s122.833 -7.5 178.5 -29.5s104 -54.833 145 -98.5
s73.333 -97 97 -160s35.5 -134.167 35.5 -213.5v-1378h-164v1338c0 66.667 -8 124.667 -24 174s-38.167 90.166 -66.5 122.499s-61.333 56 -99 71s-78.334 21 -122.001 18s-89 -14.833 -136 -35.5s-93.5 -50.334 -139.5 -89.001z" />
    <glyph glyph-name="thophuthaothai" unicode="&#xe12;" horiz-adv-x="2774" 
d="M939 1532c-32 0 -63.332 4.00195 -93.999 12.002s-59.5 19 -86.5 33s-52 30.667 -75 50s-43.5 40.666 -61.5 63.999c-60 -36 -105.833 -87.833 -137.5 -155.5s-47.5 -146.167 -47.5 -235.5v-1300h-164v1324c0 64 9.66699 125.667 29 185s46.666 113.833 81.999 163.5
s78.333 93.167 129 130.5s107 65.666 169 84.999c11.333 -29.333 25.833 -56.833 43.5 -82.5s37.667 -48 60 -67s46.5 -34 72.5 -45s53 -16.5 81 -16.5s55 5.5 81 16.5s50.333 26 73 45s42.834 41.333 60.501 67s32.167 53.167 43.5 82.5
c62 -19.333 118.333 -47.666 169 -84.999s93.667 -80.833 129 -130.5s62.666 -104.167 81.999 -163.5s29 -121 29 -185v-748c0 -58.667 9 -115.5 27 -170.5s43.5 -103.833 76.5 -146.5s73 -76.834 120 -102.501s99.833 -38.5 158.5 -38.5c61.333 0 114 10 158 30
s80.167 47.5 108.5 82.5s49.166 76.5 62.5 124.5c13.333 48 20 99.667 20 155v1357h164v-1372c0 -70 -10.333 -136.833 -31 -200.5s-52.167 -119.667 -94.5 -168s-95.666 -86.833 -159.999 -115.5s-140.5 -43 -228.5 -43c-60.667 0 -116.667 9 -168 27
s-97.5 42.667 -138.5 74s-76 68.666 -105 111.999s-51.167 90 -66.5 140l-1 -14c-0.666992 -9.33301 -1.33398 -21.5 -2.00098 -36.5s-1.5 -32.167 -2.5 -51.5s-1.83301 -39 -2.5 -59c-2.66699 -46.667 -5 -100 -7 -160h-140v867h89v433c0 89.333 -16 167.833 -48 235.5
s-78 119.5 -138 155.5c-18 -23.333 -38.5 -44.666 -61.5 -63.999s-48.167 -36 -75.5 -50s-56.333 -25 -87 -33s-62 -12 -94 -12z" />
    <glyph glyph-name="nonenthai" unicode="&#xe13;" horiz-adv-x="2774" 
d="M1442 1265c0 70 -12.5 133.671 -37.5 191.004s-59.667 106.166 -104 146.499s-97.166 71.666 -158.499 93.999s-128 33.5 -200 33.5c-68 0 -132.5 -11.333 -193.5 -34s-114.667 -54.5 -161 -95.5s-83 -90 -110 -147s-40.5 -120.167 -40.5 -189.5v-1264h-164v1287
c0 53.333 7.5 105.333 22.5 156s36.333 98.167 64 142.5s61.334 85 101.001 122s84.167 69 133.5 96s103.166 47.833 161.499 62.5s120.166 22 185.499 22c102.667 0 195 -16.333 277 -49s151.833 -76.834 209.5 -132.501s101.834 -120.167 132.501 -193.5s46 -151 46 -233
v-780c0 -55.333 6.66699 -107 20 -155s34.333 -89.5 63 -124.5s65 -62.5 109 -82.5s97 -30 159 -30c58.667 0 111.5 12.833 158.5 38.5s87 59.667 120 102s58.333 91 76 146s26.5 111.833 26.5 170.5v1301h164v-999h89v-868h-140c-2 62.667 -4.33301 119 -7 169
c-1.33301 21.333 -2.33301 42.166 -3 62.499s-1.5 38.5 -2.5 54.5s-1.66699 29 -2 39s-0.5 15.333 -0.5 16c-15.333 -50.667 -37.5 -98.5 -66.5 -143.5s-64 -84.333 -105 -118s-87.167 -60.334 -138.5 -80.001s-107.333 -29.5 -168 -29.5c-88 0 -164.333 13.5 -229 40.5
s-118.334 64.167 -161.001 111.5s-74.5 103 -95.5 167s-31.5 133 -31.5 207v33v87v122.5c0 45.667 0.166992 92.334 0.5 140.001s0.5 94.5 0.5 140.5v123.5v88v35.5z" />
    <glyph glyph-name="dodekthai" unicode="&#xe14;" horiz-adv-x="1939" 
d="M1502 1235c0 72.667 -13.334 139.333 -40.001 200s-63.667 112.834 -111 156.501s-103.333 77.667 -168 102s-135 36.5 -211 36.5c-72 0 -140.333 -12.167 -205 -36.5s-121.5 -58.333 -170.5 -102s-87.833 -96 -116.5 -157s-43 -127.833 -43 -200.5v-841
c0 -41.333 5.83301 -77.666 17.5 -108.999s28.167 -57.5 49.5 -78.5s47.333 -36.833 78 -47.5s64.667 -16 102 -16h263v-142h-309c-50.667 0 -98.167 8.66699 -142.5 26s-83 42.666 -116 75.999s-59 74 -78 122s-28.5 103 -28.5 165v868c0 55.333 8.16699 109.333 24.5 162
s39.5 102.334 69.5 149.001s66.167 89.667 108.5 129s89.333 73.166 141 101.499s107.334 50.333 167.001 66s122.167 23.5 187.5 23.5c102.667 0 196.667 -17.333 282 -52s158.5 -81.334 219.5 -140.001s108.5 -126.5 142.5 -203.5s51 -157.833 51 -242.5v-1251h-164v1236z
" />
    <glyph glyph-name="totaothai" unicode="&#xe15;" horiz-adv-x="1939" 
d="M1666 -1h-164v1291c0 98 -15.667 180 -47 246s-77.333 117.667 -138 155c-17.333 -21.333 -37.666 -41.833 -60.999 -61.5s-49.666 -36.834 -78.999 -51.501s-61.5 -26.334 -96.5 -35.001s-72.167 -13 -111.5 -13s-76.333 4.33301 -111 13s-66.667 20.334 -96 35.001
s-55.833 31.834 -79.5 51.501s-43.834 40.167 -60.501 61.5c-60.667 -37.333 -106.667 -89 -138 -155s-47 -148 -47 -246v-897c0 -41.333 5.83301 -77.666 17.5 -108.999s28.167 -57.5 49.5 -78.5s47.333 -36.833 78 -47.5s64.667 -16 102 -16h263v-142h-309
c-50.667 0 -98.167 8.66699 -142.5 26s-83 42.666 -116 75.999s-59 74 -78 122s-28.5 103 -28.5 165v925c0 68.667 9.5 133.334 28.5 194.001s46.333 115.667 82 165s78.667 92.333 129 129s106.833 65.334 169.5 86.001c13.333 -32.667 30.166 -62.167 50.499 -88.5
s43 -48.833 68 -67.5s51.833 -33 80.5 -43s58.334 -15 89.001 -15s60.334 5 89.001 15s55.334 24.333 80.001 43s47.167 41.167 67.5 67.5s37.166 55.833 50.499 88.5c62.667 -20.667 119.167 -49.334 169.5 -86.001s93.166 -79.667 128.499 -129
s62.666 -104.333 81.999 -165s29 -125.334 29 -194.001v-1315z" />
    <glyph glyph-name="thothungthai" unicode="&#xe16;" horiz-adv-x="1879" 
d="M686 1209l-249 -250.999v-815h339v-143h-503v1005l97 99l35.5 36l31.5 32l22.5 22.5l8.5 8.5l-18 17.5l-44.5 43l-57 56l-56.5 56.5l-43.5 43.5l-17.5 17.5c25.333 66 60.5 126.667 105.5 182s98 102.833 159 142.5s128.833 70.667 203.5 93s154.334 33.5 239.001 33.5
c102.667 0 195.167 -16.333 277.5 -49s152.5 -76.667 210.5 -132s102.5 -120 133.5 -194s46.5 -152 46.5 -234v-1280h-165v1265c0 70.667 -12.333 134.667 -37 192s-59.167 106.333 -103.5 147s-97.333 72 -159 94s-129.5 33 -203.5 33c-54 0 -106.333 -5.66699 -157 -17
s-98.334 -28 -143.001 -50s-85.5 -49.333 -122.5 -82s-68.5 -70.334 -94.5 -113.001l42 -41l42.5 -41.5l48.5 -47.5z" />
    <glyph glyph-name="thothahanthai" unicode="&#xe17;" horiz-adv-x="1879" 
d="M1442 1338c0 66.667 -8 124.67 -24 174.003s-38.167 90.166 -66.5 122.499s-61.333 56 -99 71s-78.334 21 -122.001 18s-89 -14.833 -136 -35.5s-93.5 -50.334 -139.5 -89.001l-418 -352v-1248h-164v1867h162v-223c0 -7.33301 -0.166992 -19.333 -0.5 -36
s-0.666016 -35.167 -0.999023 -55.5s-1 -41.5 -2 -63.5s-2.5 -42 -4.5 -60l321 276c67.333 58 135.333 101.167 204 129.5s134.667 43.666 198 45.999s122.833 -7.5 178.5 -29.5s104 -54.833 145 -98.5s73.333 -97 97 -160s35.5 -134.167 35.5 -213.5v-1378h-164v1338z" />
    <glyph glyph-name="thothongthai" unicode="&#xe18;" horiz-adv-x="1769" 
d="M1455 1723h-809.995c-76.667 0 -137.5 -19.333 -182.5 -58s-67.5 -97.334 -67.5 -176.001c0 -32.667 6.33301 -62 19 -88s30.5 -48.167 53.5 -66.5s50.5 -32.333 82.5 -42s67.333 -14.5 106 -14.5h271c86 0 166.167 -13.833 240.5 -41.5s138.833 -68.5 193.5 -122.5
s97.667 -120.667 129 -200s47 -170.333 47 -273c0 -98 -16.333 -186.5 -49 -265.5s-76.667 -146.333 -132 -202s-119.333 -98.5 -192 -128.5s-149 -45 -229 -45h-662l-1 929h163l1 -769h475c69.333 0 132.666 12.333 189.999 37s106.5 58.667 147.5 102
s72.833 94.333 95.5 153s34 122 34 190c0 72 -11.667 137.333 -35 196s-55.833 108.834 -97.5 150.501s-90.834 73.834 -147.501 96.501s-118.334 34 -185.001 34h-265c-66.667 0 -125.834 9.5 -177.501 28.5s-95.334 44.833 -131.001 77.5s-62.667 71 -81 115
s-27.5 91 -27.5 141c0 59.333 10.167 113.166 30.5 161.499s49 89.5 86 123.5s81.333 60.167 133 78.5s109.167 27.5 172.5 27.5h39.5c25.667 0 59 -0.166992 100 -0.5s87.667 -0.666016 140 -0.999023s105.833 -0.5 160.5 -0.5c128 -0.666992 273 -1.33398 435 -2.00098z
" />
    <glyph glyph-name="nonuthai" unicode="&#xe19;" horiz-adv-x="1879" 
d="M936 114c68 0 132.669 12.166 194.002 36.499s115.166 58 161.499 101s83 94 110 153s40.5 123.5 40.5 193.5v1268h164v-999h88v-870h-139l-9 175c-1.33301 22 -2.5 43.333 -3.5 64s-1.83301 39.334 -2.5 56.001s-1.33398 30.167 -2.00098 40.5l-1 15.5
c-22 -58 -53.5 -110.667 -94.5 -158s-88 -87.666 -141 -120.999s-110.667 -59 -173 -77s-126.166 -27 -191.499 -27c-97.333 0 -186.666 16.333 -267.999 49s-151.333 76.667 -210 132s-104.334 119.333 -137.001 192s-49 149 -49 229v1299h165v-1275
c0 -69.333 13.5 -133 40.5 -191s63.167 -108.333 108.5 -151s98.166 -75.834 158.499 -99.501s123.833 -35.5 190.5 -35.5z" />
    <glyph glyph-name="bobaimaithai" unicode="&#xe1a;" horiz-adv-x="1879" 
d="M438 1866v-1275c0 -69.333 13.5 -133.166 40.5 -191.499s63.5 -108.666 109.5 -150.999s99.5 -75.333 160.5 -99s125.5 -35.5 193.5 -35.5c72 0 138.5 11.667 199.5 35s113.833 55.833 158.5 97.5s79.5 91.667 104.5 150s37.5 122.5 37.5 192.5v1277h164v-1291
c0 -80 -15.333 -156.833 -46 -230.5s-74.834 -138.667 -132.501 -195s-127.5 -101.166 -209.5 -134.499s-174.333 -50 -277 -50c-65.333 0 -127.166 7.5 -185.499 22.5s-112.333 35.833 -162 62.5s-94.167 58.667 -133.5 96s-72.833 78.333 -100.5 123
s-49 92.334 -64 143.001s-22.5 102.667 -22.5 156v1298h165z" />
    <glyph glyph-name="poplathai" unicode="&#xe1b;" horiz-adv-x="1879" 
d="M438 1866l0.000976562 -1275c0 -69.333 13.5 -133.166 40.5 -191.499s63.5 -108.666 109.5 -150.999s99.5 -75.333 160.5 -99s125.5 -35.5 193.5 -35.5c72 0 138.667 11.667 200 35s114.166 55.833 158.499 97.5s79 91.667 104 150s37.5 122.5 37.5 192.5v1842h164v-1856
c0 -80 -15.333 -156.833 -46 -230.5s-74.834 -138.667 -132.501 -195s-127.5 -101.166 -209.5 -134.499s-174.333 -50 -277 -50c-65.333 0 -127.166 7.5 -185.499 22.5s-112.333 35.833 -162 62.5s-94.167 58.667 -133.5 96s-72.833 78.333 -100.5 123
s-49 92.334 -64 143.001s-22.5 102.667 -22.5 156v1298h165z" />
    <glyph glyph-name="phophungthai" unicode="&#xe1c;" horiz-adv-x="2402" 
d="M437 494c0 -54.667 7.66797 -105.333 23.001 -152s37.833 -87 67.5 -121s66.167 -60.5 109.5 -79.5s93 -28.5 149 -28.5c47.333 0 91.166 9.5 131.499 28.5s75.166 45.5 104.499 79.5s52.333 74.333 69 121s25 97.667 25 153v730h164v-731
c0 -54.667 7.83301 -105.334 23.5 -152.001s38.5 -87 68.5 -121s66.833 -60.5 110.5 -79.5s93.5 -28.5 149.5 -28.5c47.333 0 91.333 9.5 132 28.5s75.834 45.5 105.501 79.5s53 74.333 70 121s25.5 97.667 25.5 153v1373h164v-1377c0 -37.333 -4.33301 -76.333 -13 -117
s-21.834 -80.5 -39.501 -119.5s-40 -76.167 -67 -111.5s-58.833 -66.166 -95.5 -92.499s-78.667 -47.333 -126 -63s-99.666 -23.5 -156.999 -23.5c-52.667 0 -102.834 7.83301 -150.501 23.5s-90.834 36.667 -129.501 63s-71.167 56.5 -97.5 90.5s-44.166 69 -53.499 105
c-15.333 -37.333 -35.833 -73 -61.5 -107s-56 -64 -91 -90s-74.5 -46.667 -118.5 -62s-92 -23 -144 -23c-57.333 0 -109.666 7.33301 -156.999 22s-90 34.5 -128 59.5s-71.167 54.667 -99.5 89s-52 71 -71 110s-33.167 79.833 -42.5 122.5s-14 85 -14 127v982
c0 62 9.5 117 28.5 165s45 88.667 78 122s71.667 58.666 116 75.999s91.833 26 142.5 26h309v-142h-263c-37.333 0 -71.333 -5.33301 -102 -16s-56.667 -26.5 -78 -47.5s-37.833 -47.167 -49.5 -78.5s-17.5 -67.666 -17.5 -108.999v-978z" />
    <glyph glyph-name="fofathai" unicode="&#xe1d;" horiz-adv-x="2402" 
d="M437 494c0 -54.667 7.66797 -105.333 23.001 -152s37.833 -87 67.5 -121s66.167 -60.5 109.5 -79.5s93 -28.5 149 -28.5c47.333 0 91.166 9.5 131.499 28.5s75.166 45.5 104.499 79.5s52.333 74.333 69 121s25 97.667 25 153v730h164v-731
c0 -54.667 7.83301 -105.334 23.5 -152.001s38.5 -87 68.5 -121s66.833 -60.5 110.5 -79.5s93.5 -28.5 149.5 -28.5c47.333 0 91.333 9.5 132 28.5s75.834 45.5 105.501 79.5s53 74.333 70 121s25.5 97.667 25.5 153v1936h164v-1940c0 -37.333 -4.33301 -76.333 -13 -117
s-21.834 -80.5 -39.501 -119.5s-40 -76.167 -67 -111.5s-58.833 -66.166 -95.5 -92.499s-78.667 -47.333 -126 -63s-99.666 -23.5 -156.999 -23.5c-52.667 0 -102.834 7.83301 -150.501 23.5s-90.834 36.667 -129.501 63s-71.167 56.5 -97.5 90.5s-44.166 69 -53.499 105
c-15.333 -37.333 -35.833 -73 -61.5 -107s-56 -64 -91 -90s-74.5 -46.667 -118.5 -62s-92 -23 -144 -23c-57.333 0 -109.666 7.33301 -156.999 22s-90 34.5 -128 59.5s-71.167 54.667 -99.5 89s-52 71 -71 110s-33.167 79.833 -42.5 122.5s-14 85 -14 127v982
c0 62 9.5 117 28.5 165s45 88.667 78 122s71.667 58.666 116 75.999s91.833 26 142.5 26h309v-142h-263c-37.333 0 -71.333 -5.33301 -102 -16s-56.667 -26.5 -78 -47.5s-37.833 -47.167 -49.5 -78.5s-17.5 -67.666 -17.5 -108.999v-978z" />
    <glyph glyph-name="phophanthai" unicode="&#xe1e;" horiz-adv-x="2402" 
d="M1280 493c0 -54.667 7.83203 -105.167 23.499 -151.5s38.5 -86.5 68.5 -120.5s66.833 -60.5 110.5 -79.5s93.5 -28.5 149.5 -28.5c47.333 0 91.333 9.5 132 28.5s75.834 45.333 105.501 79s53 73.834 70 120.501s25.5 97.667 25.5 153v1372h164v-1376
c0 -37.333 -4.33301 -76.333 -13 -117s-21.834 -80.5 -39.501 -119.5s-40 -76 -67 -111s-58.833 -65.667 -95.5 -92s-78.667 -47.333 -126 -63s-99.666 -23.5 -156.999 -23.5c-52.667 0 -103 7.83301 -151 23.5s-91.167 36.5 -129.5 62.5s-70.833 55.833 -97.5 89.5
s-44.667 68.5 -54 104.5c-15.333 -36.667 -35.666 -71.834 -60.999 -105.501s-55.5 -63.5 -90.5 -89.5s-74.5 -46.667 -118.5 -62s-92 -23 -144 -23c-57.333 0 -109.666 7.16699 -156.999 21.5s-90 34.166 -128 59.499s-71.167 55 -99.5 89s-52 70.5 -71 109.5
s-33.167 79.667 -42.5 122s-14 84.5 -14 126.5v1374h165v-1373c0 -54.667 7.66699 -105.167 23 -151.5s37.833 -86.5 67.5 -120.5s66 -60.5 109 -79.5s92.5 -28.5 148.5 -28.5c47.333 0 91.166 9.5 131.499 28.5s75.166 45.333 104.499 79s52.333 73.834 69 120.501
s25 97.667 25 153v1372h164v-1373z" />
    <glyph glyph-name="fofanthai" unicode="&#xe1f;" horiz-adv-x="2402" 
d="M1280 493c0 -54.667 7.83203 -105.167 23.499 -151.5s38.5 -86.5 68.5 -120.5s66.833 -60.5 110.5 -79.5s93.5 -28.5 149.5 -28.5c47.333 0 91.333 9.5 132 28.5s75.834 45.333 105.501 79s53 73.834 70 120.501s25.5 97.667 25.5 153v1937h164v-1941
c0 -37.333 -4.33301 -76.333 -13 -117s-21.834 -80.5 -39.501 -119.5s-40 -76 -67 -111s-58.833 -65.667 -95.5 -92s-78.667 -47.333 -126 -63s-99.666 -23.5 -156.999 -23.5c-52.667 0 -103 7.83301 -151 23.5s-91.167 36.5 -129.5 62.5s-70.833 55.833 -97.5 89.5
s-44.667 68.5 -54 104.5c-15.333 -36.667 -35.666 -71.834 -60.999 -105.501s-55.5 -63.5 -90.5 -89.5s-74.5 -46.667 -118.5 -62s-92 -23 -144 -23c-57.333 0 -109.666 7.16699 -156.999 21.5s-90 34.166 -128 59.499s-71.167 55 -99.5 89s-52 70.5 -71 109.5
s-33.167 79.667 -42.5 122s-14 84.5 -14 126.5v1374h165v-1373c0 -54.667 7.66699 -105.167 23 -151.5s37.833 -86.5 67.5 -120.5s66 -60.5 109 -79.5s92.5 -28.5 148.5 -28.5c47.333 0 91.166 9.5 131.499 28.5s75.166 45.333 104.499 79s52.333 73.834 69 120.501
s25 97.667 25 153v1372h164v-1373z" />
    <glyph glyph-name="phosamphaothai" unicode="&#xe20;" horiz-adv-x="1879" 
d="M1606 1280l-0.000976562 -1280h-164v1265c0 70 -12.5 133.667 -37.5 191s-59.667 106.166 -104 146.499s-97.166 71.666 -158.499 93.999s-128 33.5 -200 33.5c-68 0 -132.5 -11.333 -193.5 -34s-114.667 -54.5 -161 -95.5s-83 -90 -110 -147
s-40.5 -120.167 -40.5 -189.5v-1264h-390v146h226v1141c0 53.333 7.5 105.333 22.5 156s36.333 98.167 64 142.5s61.334 85 101.001 122s84.167 69 133.5 96s103.166 47.833 161.499 62.5s120.166 22 185.499 22c102.667 0 195 -16.333 277 -49
s151.833 -76.834 209.5 -132.501s101.834 -120.167 132.501 -193.5s46 -151 46 -233z" />
    <glyph glyph-name="momathai" unicode="&#xe21;" horiz-adv-x="1929" 
d="M489 1866l0.000976562 -1228c0 -72 13 -139.833 39 -203.5s61.667 -119.5 107 -167.5s98.666 -85.833 159.999 -113.5s127.333 -41.5 198 -41.5c72 0 138.5 11.167 199.5 33.5s113.667 53.833 158 94.5s79 89.667 104 147s37.5 121 37.5 191v1288h164v-1303
c0 -80 -15.333 -156.167 -46 -228.5s-74.667 -136 -132 -191s-127 -98.667 -209 -131s-174.333 -48.5 -277 -48.5c-74.667 0 -144.5 10.833 -209.5 32.5s-123.5 51.167 -175.5 88.5s-96.667 81.166 -134 131.499s-65.333 104.166 -84 161.499
c0 -0.666992 -0.166992 -6.5 -0.5 -17.5s-1 -25.333 -2 -43s-2 -37.834 -3 -60.501s-1.83301 -45.667 -2.5 -69c-2.66699 -55.333 -5 -117.666 -7 -186.999h-139v866h89v999h165z" />
    <glyph glyph-name="yoyakthai" unicode="&#xe22;" horiz-adv-x="1864" 
d="M220 1470c0 70 12.3359 130.667 37.0029 182s56.334 93.833 95.001 127.5s81.5 58.667 128.5 75s93.167 24.5 138.5 24.5c63.333 0 121 -12.667 173 -38s93 -61 123 -107c-0.666992 0 -3.66699 -2.83301 -9 -8.5l-20 -21c-8 -8.33301 -16.333 -17.666 -25 -27.999
l-24.5 -28c-7.66699 -8.33301 -13.834 -15.333 -18.501 -21s-6.66699 -8.5 -6 -8.5c-24 34.667 -50.833 60.834 -80.5 78.501s-64.834 26.5 -105.501 26.5c-36 0 -69 -6.33301 -99 -19s-55.833 -30.167 -77.5 -52.5s-38.5 -48.833 -50.5 -79.5s-18 -64.334 -18 -101.001
c0 -36 5 -69.5 15 -100.5s23.5 -58.333 40.5 -82s37 -43.667 60 -60s47.167 -28.166 72.5 -35.499c36.667 22 76.5 39.667 119.5 53s88.167 24.333 135.5 33l5 -22.5l11 -49l11 -48.5c3.33301 -14.667 4.66602 -22 3.99902 -22c-61.333 -10.667 -118.333 -30.167 -171 -58.5
s-98.334 -64.833 -137.001 -109.5s-69.167 -97.167 -91.5 -157.5s-33.5 -127.5 -33.5 -201.5c0 -70 12.667 -135.333 38 -196s60.5 -113.334 105.5 -158.001s98.333 -79.834 160 -105.501s128.5 -38.5 200.5 -38.5c68 0 132.333 11.167 193 33.5s113.667 53.833 159 94.5
s81.333 89.5 108 146.5s40 120.167 40 189.5v1289h165v-1304c0 -53.333 -7.33301 -105.166 -22 -155.499s-35.834 -97.666 -63.501 -141.999s-61.334 -85 -101.001 -122s-84.167 -68.667 -133.5 -95s-103 -46.833 -161 -61.5s-119.667 -22 -185 -22
c-102.667 0 -195.167 17.5 -277.5 52.5s-152.333 82.333 -210 142s-102 128.667 -133 207s-46.5 160.5 -46.5 246.5c0 42 4 84.5 12 127.5s20 85 36 126s35.667 80.167 59 117.5s50 71.666 80 102.999c-32 14 -61.667 33.5 -89 58.5s-51.166 54 -71.499 87
s-36.166 69.667 -47.499 110s-17 83.166 -17 128.499z" />
    <glyph glyph-name="roruathai" unicode="&#xe23;" horiz-adv-x="1540" 
d="M1118 470c0 93.333 -30.333 174.836 -91 244.503s-153.334 122.167 -278.001 157.5c-165.333 46.667 -288.5 115.667 -369.5 207s-121.5 202.333 -121.5 333c0 66.667 12.833 129.167 38.5 187.5s61.334 109.333 107.001 153s99.334 78.167 161.001 103.5
s128.5 38 200.5 38c58 0 112.333 -8.5 163 -25.5s96.5 -40 137.5 -69s76.667 -62.667 107 -101s54.5 -78.833 72.5 -121.5l-138 -89c-14.667 34 -33.167 66 -55.5 96s-48.166 56 -77.499 78s-61.833 39.333 -97.5 52s-74.167 19 -115.5 19c-46 0 -89.333 -8 -130 -24
s-76.167 -38.167 -106.5 -66.5s-54.333 -62 -72 -101s-26.5 -81.5 -26.5 -127.5c0 -47.333 8.5 -90.833 25.5 -130.5s41.333 -75.667 73 -108s70 -60.5 115 -84.5s95.5 -43.333 151.5 -58c84 -22.667 156.833 -51.834 218.5 -87.501s112.834 -77.334 153.501 -125.001
s71 -100.667 91 -159s30 -121.166 30 -188.499c0 -69.333 -12.333 -134.5 -37 -195.5s-60 -114.5 -106 -160.5s-101.5 -82.333 -166.5 -109s-137.833 -40 -218.5 -40c-59.333 0 -115.5 6.66699 -168.5 20s-101.333 32.166 -145 56.499s-81.667 54 -114 89
s-57.5 74.5 -75.5 118.5l140 91c15.333 -35.333 35.166 -66.666 59.499 -93.999s52.333 -50.333 84 -69s66.5 -32.834 104.5 -42.501s78 -14.5 120 -14.5c50 0 96.667 8.5 140 25.5s81.166 40.833 113.499 71.5s57.666 67.167 75.999 109.5s27.5 89.166 27.5 140.499z" />
    <glyph glyph-name="ruthai" unicode="&#xe24;" horiz-adv-x="1879" 
d="M437 143l238.999 0.00292969v-143h-403v1287c0 53.333 7.5 105.333 22.5 156s36.333 98.167 64 142.5s61.334 85 101.001 122s84.167 69 133.5 96s103.166 47.833 161.499 62.5s120.166 22 185.499 22c102.667 0 195 -16.333 277 -49s151.833 -76.834 209.5 -132.501
s101.834 -120.167 132.501 -193.5s46 -151 46 -233v-1779h-164v1764c0 70 -12.5 133.667 -37.5 191s-59.667 106.166 -104 146.499s-97.166 71.666 -158.499 93.999s-128 33.5 -200 33.5c-68 0 -132.5 -11.333 -193.5 -34s-114.667 -54.5 -161 -95.5s-83 -90 -110 -147
s-40.5 -120.167 -40.5 -189.5v-1121z" />
    <glyph glyph-name="lolingthai" unicode="&#xe25;" horiz-adv-x="1879" 
d="M1151 940c-19.333 -1.33301 -44.6621 -3.82715 -75.9951 -7.49414s-64.333 -7.83398 -99 -12.501s-68.667 -9.66699 -102 -15s-61 -10.333 -83 -15c-57.333 -12.667 -109.5 -30.167 -156.5 -52.5s-87.333 -50.166 -121 -83.499s-59.834 -72 -78.501 -116
s-28 -93.667 -28 -149c0 -47.333 8.66699 -92.5 26 -135.5s41.333 -81 72 -114s67.334 -59.167 110.001 -78.5s89 -29 139 -29c45.333 0 87.666 6.66699 126.999 20s75.333 30.666 108 51.999l5 -10l12 -24.5c4.66699 -9.66699 10 -20.167 16 -31.5s11.333 -21.833 16 -31.5
l12 -24.5l5 -10c-40 -25.333 -84.833 -47.333 -134.5 -66s-103.834 -28 -162.501 -28c-76 0 -145.833 13 -209.5 39s-118.667 61.667 -165 107s-82.333 99.166 -108 161.499s-38.5 130.166 -38.5 203.499c0 76.667 12.5 145.167 37.5 205.5s60 113.5 105 159.5
s99.167 84.667 162.5 116s133 56.333 209 75c18.667 4.66699 40.5 9 65.5 13s51.333 8 79 12s55.334 7.5 83.001 10.5l77 8.5l61.5 7c17.333 2 29.333 3.66699 36 5c54.667 10 100 24.333 136 43s64.333 40.167 85 64.5s34.834 50.5 42.501 78.5s10.5 55.667 8.5 83
c-7.33301 48 -24 93.833 -50 137.5s-59.833 82 -101.5 115s-90.834 59.167 -147.501 78.5s-119.334 29 -188.001 29c-67.333 0 -131.333 -11.333 -192 -34s-113.834 -54.5 -159.501 -95.5s-82 -89.833 -109 -146.5s-40.5 -119 -40.5 -187l-164 20
c0 52 7.33301 103.167 22 153.5s35.667 97.666 63 141.999s60.666 85.166 99.999 122.499s83.666 69.666 132.999 96.999s103.333 48.5 162 63.5s121 22.5 187 22.5c102.667 0 195 -16.167 277 -48.5s151.833 -76 209.5 -131s102 -118.833 133 -191.5s46.5 -149 46.5 -229
v-1288h-164v1065c-16.667 -18.667 -36.667 -35.334 -60 -50.001s-48 -27.167 -74 -37.5s-52.5 -18.666 -79.5 -24.999s-52.833 -10.5 -77.5 -12.5z" />
    <glyph glyph-name="luthai" unicode="&#xe26;" horiz-adv-x="1879" 
d="M1606 1280l-0.000976562 -1780h-164v1765c0 70 -12.5 133.667 -37.5 191s-59.667 106.166 -104 146.499s-97.166 71.666 -158.499 93.999s-128 33.5 -200 33.5c-68 0 -132.5 -11.333 -193.5 -34s-114.667 -54.5 -161 -95.5s-83 -90 -110 -147
s-40.5 -120.167 -40.5 -189.5v-1264h-390v146h226v1141c0 53.333 7.5 105.333 22.5 156s36.333 98.167 64 142.5s61.334 85 101.001 122s84.167 69 133.5 96s103.166 47.833 161.499 62.5s120.166 22 185.499 22c102.667 0 195 -16.333 277 -49
s151.833 -76.834 209.5 -132.501s101.834 -120.167 132.501 -193.5s46 -151 46 -233z" />
    <glyph glyph-name="wowaenthai" unicode="&#xe27;" horiz-adv-x="1729" 
d="M560 1899c90.667 0 176.498 -11.3291 257.498 -33.9961s156 -54.834 225 -96.501s131 -91.834 186 -150.501s102 -124.167 141 -196.5s68.833 -150.666 89.5 -234.999s31 -172.5 31 -264.5c0 -76.667 -7.83301 -153.334 -23.5 -230.001s-39.667 -150.167 -72 -220.5
s-73.5 -136 -123.5 -197s-109.333 -114 -178 -159s-147.334 -80.333 -236.001 -106s-187.667 -38.5 -297 -38.5c-90 0 -173.833 8.66699 -251.5 26s-149.5 43 -215.5 77v184c62 -46 131.833 -81.167 209.5 -105.5s163.167 -36.5 256.5 -36.5
c84.667 0 162.334 10.333 233.001 31s134.5 49.167 191.5 85.5s107 79.666 150 129.999s78.833 105.333 107.5 165s50.334 122.667 65.001 189s22 134.166 22 203.499c0 76 -8.83301 149.167 -26.5 219.5s-42.667 136 -75 197s-71.5 116.5 -117.5 166.5
s-97.5 92.833 -154.5 128.5s-118.833 63.334 -185.5 83.001s-136.667 29.5 -210 29.5c-85.333 0 -167.666 -13.833 -246.999 -41.5s-152.333 -66.834 -219 -117.501v195c66 38 137.667 67.333 215 88s161.333 31 252 31z" />
    <glyph glyph-name="sosalathai" unicode="&#xe28;" horiz-adv-x="1879" 
d="M1441 1878l-0.00195312 207.999h164l1 -2086h-164v1265c0 70 -12.5 133.667 -37.5 191s-59.667 106.333 -104 147s-97.166 72 -158.499 94s-128 33 -200 33c-68 0 -132.667 -11.167 -194 -33.5s-115 -54 -161 -95s-82.667 -90.167 -110 -147.5s-41 -121 -41 -191v-298
l22 -0.5c14.667 -0.333008 33.834 -0.5 57.501 -0.5h81.5h94h256v-144h-256h-94h-81.5c-23.667 0 -42.834 0.166992 -57.501 0.5l-22 0.5v-821h-163v1287c0 53.333 7.5 105.333 22.5 156s36.333 98.334 64 143.001s61.167 85.5 100.5 122.5s83.833 68.833 133.5 95.5
s103.667 47.5 162 62.5s120.166 22.5 185.499 22.5c60 0 115.5 -5.66699 166.5 -17s97.833 -26.833 140.5 -46.5s80.834 -42.667 114.501 -69s62.834 -54.5 87.501 -84.5c-1.33301 9.33301 -2.33301 25.333 -3 48s-1.66699 45.667 -3 69c-1.33301 27.333 -2.33301 57 -3 89z
" />
    <glyph glyph-name="sorusithai" unicode="&#xe29;" horiz-adv-x="1879" 
d="M971 1035l-0.00195312 143.998h471v687h164v-687h149v-144h-149v-460c0 -53.333 -7 -105.5 -21 -156.5s-34.167 -99.167 -60.5 -144.5s-58.666 -87 -96.999 -125s-82.166 -70.667 -131.499 -98s-103.833 -48.666 -163.5 -63.999s-123.5 -23 -191.5 -23
c-65.333 0 -127.166 7.5 -185.499 22.5s-112.333 36 -162 63s-94.167 59.167 -133.5 96.5s-72.833 78.333 -100.5 123s-49 92.334 -64 143.001s-22.5 102.667 -22.5 156v1298h163v-1275c0 -69.333 13.667 -133.333 41 -192s64 -109.167 110 -151.5s99.667 -75.333 161 -99
s126 -35.5 194 -35.5c72 0 138.667 11.667 200 35s114.166 56 158.499 98s79 92.167 104 150.5s37.5 122.5 37.5 192.5v446h-471z" />
    <glyph glyph-name="sosuathai" unicode="&#xe2a;" horiz-adv-x="1879" 
d="M1442 0l0.00488281 1065.01c-16.667 -18.667 -36.667 -35.334 -60 -50.001s-48 -27.167 -74 -37.5s-52.5 -18.666 -79.5 -24.999s-52.833 -10.5 -77.5 -12.5c-19.333 -1.33301 -44.666 -3.83301 -75.999 -7.5s-64.333 -7.83398 -99 -12.501s-68.667 -9.66699 -102 -15
s-61 -10.333 -83 -15c-57.333 -12.667 -109.5 -30.167 -156.5 -52.5s-87.333 -50.166 -121 -83.499s-59.834 -72 -78.501 -116s-28 -93.667 -28 -149c0 -47.333 8.66699 -92.5 26 -135.5s41.333 -81 72 -114s67.334 -59.167 110.001 -78.5s89 -29 139 -29
c45.333 0 87.666 6.66699 126.999 20s75.333 30.666 108 51.999l5 -10l12 -24.5c4.66699 -9.66699 10 -20.167 16 -31.5s11.333 -21.833 16 -31.5l12 -24.5l5 -10c-40 -25.333 -84.833 -47.333 -134.5 -66s-103.834 -28 -162.501 -28c-76 0 -145.833 13 -209.5 39
s-118.667 61.667 -165 107s-82.333 99.166 -108 161.499s-38.5 130.166 -38.5 203.499c0 76.667 12.5 145.167 37.5 205.5s60 113.5 105 159.5s99.167 84.667 162.5 116s133 56.333 209 75c18.667 4.66699 40.5 9 65.5 13s51.333 8 79 12s55.334 7.5 83.001 10.5l77 8.5
l61.5 7c17.333 2 29.333 3.66699 36 5c54.667 10 100 24.333 136 43s64.333 40.167 85 64.5s34.834 50.5 42.501 78.5s10.5 55.667 8.5 83c-7.33301 48 -24 93.833 -50 137.5s-59.833 82 -101.5 115s-90.834 59.167 -147.501 78.5s-119.334 29 -188.001 29
c-67.333 0 -131.333 -11.333 -192 -34s-113.834 -54.5 -159.501 -95.5s-82 -89.833 -109 -146.5s-40.5 -119 -40.5 -187l-164 20c0 52 7.33301 103.167 22 153.5s35.667 97.666 63 141.999s60.666 85.166 99.999 122.499s83.666 69.666 132.999 96.999
s103.333 48.5 162 63.5s121 22.5 187 22.5c112 0 211.167 -19.5 297.5 -58.5s158.166 -90.5 215.499 -154.5c-3.33301 30 -6 64.167 -8 102.5s-3 75.833 -3 112.5v196h164v-2086h-164z" />
    <glyph glyph-name="hohipthai" unicode="&#xe2b;" horiz-adv-x="1879" 
d="M1026 1432c67.333 0.666992 129.001 -7.16406 185.001 -23.4971s106.5 -38.5 151.5 -66.5s84.333 -61 118 -99s61.667 -78.667 84 -122s39.166 -88 50.499 -134s17 -91.333 17 -136v-851h-164v828c0 70.667 -12.5 134.834 -37.5 192.501s-59.5 107 -103.5 148
s-95.5 72.5 -154.5 94.5s-122.5 33 -190.5 33c-42.667 0 -85.334 -6.33301 -128.001 -19s-83.167 -30.334 -121.5 -53.001s-74 -49.834 -107 -81.501s-61.5 -66.667 -85.5 -105s-42.833 -79.333 -56.5 -123s-20.5 -88.834 -20.5 -135.501v-779h-164v1866h165v-493
c-0.666992 -24.667 -1.66699 -49.334 -3 -74.001c-1.33301 -21.333 -2.33301 -43.833 -3 -67.5s-1.66699 -45.167 -3 -64.5c11.333 18 24.333 35.833 39 53.5s31.834 35.5 51.501 53.5s42 36.167 67 54.5s53.833 36.833 86.5 55.5l703 482h258z" />
    <glyph glyph-name="lochulathai" unicode="&#xe2c;" horiz-adv-x="2402" 
d="M2229 1866l-71.999 -143.001h-379c46 -8.66699 90.167 -29.667 132.5 -63s79.666 -75.5 111.999 -126.5s58.166 -109.167 77.5 -174.5c19.333 -65.333 29 -135 29 -209v-660c0 -38 -4.33301 -77.167 -13 -117.5s-21.834 -80 -39.5 -119c-17.667 -39 -40 -76 -67 -111
s-59 -65.667 -96 -92s-79.167 -47.333 -126.5 -63s-99.666 -23.5 -156.999 -23.5c-52.667 0 -102.834 7.83301 -150.501 23.5s-90.834 36.5 -129.501 62.5s-71.167 55.833 -97.5 89.5s-44.166 68.5 -53.499 104.5c-15.333 -36.667 -35.666 -71.834 -60.999 -105.501
s-55.5 -63.5 -90.5 -89.5s-74.5 -46.667 -118.5 -62s-92 -23 -144 -23c-57.333 0 -109.666 7.16699 -156.999 21.5s-90 34.166 -128 59.499s-71.167 55 -99.5 89s-52 70.5 -71 109.5s-33.167 79.667 -42.5 122s-14 84.5 -14 126.5v1374h165v-1373
c0 -54.667 7.66699 -105.167 23 -151.5s37.833 -86.5 67.5 -120.5s66 -60.5 109 -79.5s92.5 -28.5 148.5 -28.5c47.333 0 91.166 9.5 131.499 28.5s75.166 45.333 104.499 79s52.333 73.834 69 120.501s25 97.667 25 153v731h164v-731
c0 -54.667 7.83301 -105.167 23.5 -151.5s38.5 -86.5 68.5 -120.5s66.833 -60.667 110.5 -80s93.5 -29 149.5 -29c47.333 0 91.333 9.5 132 28.5s75.834 45.333 105.501 79s53 73.834 70 120.501s25.5 97.667 25.5 153v632c0 98.667 -17 185.334 -51 260.001
s-80.833 137 -140.5 187s-129.834 87.5 -210.501 112.5s-167.667 37.5 -261 37.5h-186v143h1113z" />
    <glyph glyph-name="oangthai" unicode="&#xe2d;" horiz-adv-x="2276" 
d="M251 1276c34 88 78.333 169.836 133 245.503s119 141.5 193 197.5s157.833 100 251.5 132s196.5 48 308.5 48c90.667 0 176.5 -11.333 257.5 -34s156 -54.834 225 -96.501s131 -91.834 186 -150.501s102 -124.167 141 -196.5s68.833 -150.666 89.5 -234.999
s31 -172.5 31 -264.5c0 -76.667 -7.83301 -153.334 -23.5 -230.001s-39.667 -150.167 -72 -220.5s-73.5 -136 -123.5 -197s-109.333 -114 -178 -159s-147.334 -80.333 -236.001 -106s-187.667 -38.5 -297 -38.5c-149.333 0 -282.333 24 -399 72s-215 116.667 -295 206
s-140.167 197.333 -180.5 324s-58.5 268.667 -54.5 426h939v-143h-770c5.33301 -109.333 26.833 -209.333 64.5 -300s89.167 -168.667 154.5 -234s143.5 -116 234.5 -152s192.833 -54 305.5 -54c84.667 0 162.334 10.333 233.001 31s134.5 49.167 191.5 85.5
s107 79.666 150 129.999s78.833 105.333 107.5 165s50.334 122.667 65.001 189s22 134.166 22 203.499c0 76 -8.83301 149.167 -26.5 219.5s-42.667 136 -75 197s-71.5 116.5 -117.5 166.5s-97.5 92.833 -154.5 128.5s-118.833 63.334 -185.5 83.001
s-136.667 29.5 -210 29.5c-81.333 0 -160 -12.5 -236 -37.5s-146.333 -60.667 -211 -107s-122.167 -102.166 -172.5 -167.499s-89.833 -138 -118.5 -218l-10.5 4.5l-26.5 11.5l-34.5 15l-35 14.5c-11 4.33301 -20.333 8.16602 -28 11.499s-11.834 5 -12.501 5z" />
    <glyph glyph-name="honokhukthai" unicode="&#xe2e;" horiz-adv-x="2329" 
d="M2067 922c0 -76.667 -7.83301 -153.331 -23.5 -229.998s-39.667 -150.167 -72 -220.5s-73.5 -136 -123.5 -197s-109.333 -114 -178 -159s-147.334 -80.333 -236.001 -106s-187.667 -38.5 -297 -38.5c-149.333 0 -282.333 24 -399 72s-215 116.667 -295 206
s-140.167 197.333 -180.5 324s-58.5 268.667 -54.5 426h939v-143h-770c5.33301 -109.333 26.833 -209.333 64.5 -300s89.167 -168.667 154.5 -234s143.5 -116 234.5 -152s192.833 -54 305.5 -54c84.667 0 162.334 10.333 233.001 31s134.5 49.167 191.5 85.5
s107 79.666 150 129.999s78.833 105.333 107.5 165s50.334 122.667 65.001 189s22 134.166 22 203.499c0 76 -8.83301 149.167 -26.5 219.5s-42.667 136 -75 197s-71.5 116.5 -117.5 166.5s-97.5 92.833 -154.5 128.5s-118.833 63.334 -185.5 83.001
s-136.667 29.5 -210 29.5c-81.333 0 -160 -12.5 -236 -37.5s-146.333 -60.667 -211 -107s-122.167 -102.166 -172.5 -167.499s-89.833 -138 -118.5 -218l-10.5 4.5l-26.5 11.5l-34.5 15l-35 14.5c-11 4.33301 -20.333 8.16602 -28 11.499s-11.834 5 -12.501 5
c34 88 78.333 169.833 133 245.5s119 141.5 193 197.5s157.833 100 251.5 132s196.5 48 308.5 48c90 0 174.333 -11 253 -33s151 -52.833 217 -92.5s125 -86.5 177 -140.5s96 -113 132 -177c-4 22 -7 46.667 -9 74s-3.5 54.833 -4.5 82.5s-1.66699 53.667 -2 78
s-0.5 44.166 -0.5 59.499v336h163v-1059l2 -40c0.666992 -11.333 1.16699 -23 1.5 -35s0.5 -22 0.5 -30z" />
    <glyph glyph-name="paiyannoithai" unicode="&#xe2f;" horiz-adv-x="1872" 
d="M1167 1837l-25.002 -75.001c-3.33301 -9.33301 -6.33301 -18.5 -9 -27.5s-5.16699 -17 -7.5 -24s-4.16602 -12.667 -5.49902 -17l-2 -6.5c-63.333 26.667 -130.333 40 -201 40c-73.333 0 -140 -13.333 -200 -40s-111.333 -62.667 -154 -108s-75.834 -98.333 -99.501 -159
s-35.5 -125.334 -35.5 -194.001s11.833 -133.167 35.5 -193.5s56.834 -113 99.501 -158s94 -80.5 154 -106.5s126.667 -39 200 -39c64.667 0 125.834 10.5 183.501 31.5s109.5 50.333 155.5 88s84.833 82.167 116.5 133.5s53.5 107.333 65.5 168v716h163l-1 -1865h-161v829
c-21.333 -36 -49.833 -69.833 -85.5 -101.5s-76.5 -59.334 -122.5 -83.001s-95.667 -42.167 -149 -55.5s-108 -20 -164 -20c-92 0 -177.833 16.667 -257.5 50s-149 79.333 -208 138s-105.5 127.834 -139.5 207.501s-51 165.834 -51 258.501
c0 60.667 7.66699 119.334 23 176.001s37.166 109.5 65.499 158.5s62.333 93.667 102 134s83.834 75 132.501 104s101 51.333 157 67s114.667 23.5 176 23.5c44.667 0 87.5 -4.5 128.5 -13.5s81.167 -21.167 120.5 -36.5z" />
    <glyph glyph-name="saraathai" unicode="&#xe30;" horiz-adv-x="931" 
d="M287 319c0 -18 3 -35.833 9 -53.5s15 -33.167 27 -46.5s26.5 -24.166 43.5 -32.499s36.5 -12.5 58.5 -12.5s41.5 4.16699 58.5 12.5s31.5 19.333 43.5 33s21 29.167 27 46.5s9 35 9 53c0 19.333 -3 37.833 -9 55.5s-14.833 33.167 -26.5 46.5s-26 24 -43 32
s-36.833 12 -59.5 12c-22 0 -41.667 -4.16699 -59 -12.5s-31.833 -19.333 -43.5 -33s-20.5 -29.334 -26.5 -47.001s-9 -35.5 -9 -53.5zM147 321c0 36.667 6.50098 72.166 19.501 106.499s31.667 64.5 56 90.5s53.666 46.833 87.999 62.5s72.5 23.5 114.5 23.5
c41.333 0 79 -7.16699 113 -21.5s63 -34 87 -59s42.5 -55 55.5 -90s19.5 -72.833 19.5 -113.5c0 -36 -5.66699 -70.833 -17 -104.5s-28.5 -63.5 -51.5 -89.5s-51.667 -46.833 -86 -62.5s-74.5 -23.5 -120.5 -23.5c-44.667 0 -84.334 7.83301 -119.001 23.5
s-63.667 36.5 -87 62.5s-41.166 55.833 -53.499 89.5s-18.5 68.834 -18.5 105.501zM287.001 1551c0 -18 3 -35.833 9 -53.5s15 -33.167 27 -46.5s26.5 -24.166 43.5 -32.499s36.5 -12.5 58.5 -12.5s41.5 4.16699 58.5 12.5s31.5 19.333 43.5 33s21 29.167 27 46.5s9 35 9 53
c0 19.333 -3 37.833 -9 55.5s-14.833 33.167 -26.5 46.5s-26 24 -43 32s-36.833 12 -59.5 12c-22 0 -41.667 -4.16699 -59 -12.5s-31.833 -19.333 -43.5 -33s-20.5 -29.334 -26.5 -47.001s-9 -35.5 -9 -53.5zM147.001 1553c0 36.667 6.50098 72.166 19.501 106.499
s31.667 64.5 56 90.5s53.666 46.833 87.999 62.5s72.5 23.5 114.5 23.5c41.333 0 79 -7.16699 113 -21.5s63 -34 87 -59s42.5 -55 55.5 -90s19.5 -72.833 19.5 -113.5c0 -36 -5.66699 -70.833 -17 -104.5s-28.5 -63.5 -51.5 -89.5s-51.667 -46.833 -86 -62.5
s-74.5 -23.5 -120.5 -23.5c-44.667 0 -84.334 7.83301 -119.001 23.5s-63.667 36.5 -87 62.5s-41.166 55.833 -53.499 89.5s-18.5 68.834 -18.5 105.501z" />
    <glyph glyph-name="maihanakatthai" unicode="&#xe31;" 
d="M-834 2318h833v-132h-983v325h150v-193z" />
    <glyph glyph-name="saraaathai" unicode="&#xe32;" horiz-adv-x="1201" 
d="M764 0l-1 1435c0 37.333 -5.83301 72.5 -17.5 105.5s-29 62 -52 87s-51.667 44.667 -86 59s-74.5 21.5 -120.5 21.5h-429l80 161h364c65.333 0 124.333 -10.333 177 -31s97.5 -49.667 134.5 -87s65.333 -82.166 85 -134.499s29.5 -109.833 29.5 -172.5v-1444h-164z" />
    <glyph glyph-name="saraamthai" unicode="&#xe33;" horiz-adv-x="1201" 
d="M-502 2441c0 -20 3.83301 -38.667 11.5 -56s18.167 -32.666 31.5 -46c13.333 -13.333 28.666 -23.833 45.999 -31.5s36 -11.5 56 -11.5s38.833 3.83301 56.5 11.5s33.167 18.167 46.5 31.5s23.833 28.666 31.5 46c7.66699 17.333 11.5 36 11.5 56
s-3.83301 38.833 -11.5 56.5s-18.167 33.167 -31.5 46.5s-28.833 23.833 -46.5 31.5s-36.5 11.5 -56.5 11.5s-38.667 -3.83301 -56 -11.5s-32.666 -18.167 -45.999 -31.5s-23.833 -28.833 -31.5 -46.5s-11.5 -36.5 -11.5 -56.5zM-639 2441
c0 38.667 7.49902 75.167 22.499 109.5s35.333 64.333 61 90s55.667 46 90 61s70.833 22.5 109.5 22.5c40.667 0 78.334 -7.5 113.001 -22.5s64.667 -35.333 90 -61s45 -55.667 59 -90s21 -70.833 21 -109.5s-7.5 -75.167 -22.5 -109.5s-35.333 -64.333 -61 -90
s-55.667 -46 -90 -61s-70.833 -22.5 -109.5 -22.5s-75.167 7.5 -109.5 22.5s-64.333 35.333 -90 61s-46 55.667 -61 90s-22.5 70.833 -22.5 109.5zM763.999 0l-1 1435c0 37.333 -5.83301 72.5 -17.5 105.5s-29 62 -52 87s-51.667 44.667 -86 59s-74.5 21.5 -120.5 21.5h-429
l80 161h364c65.333 0 124.333 -10.333 177 -31s97.5 -49.667 134.5 -87s65.333 -82.166 85 -134.499s29.5 -109.833 29.5 -172.5v-1444h-164z" />
    <glyph glyph-name="saraithai" unicode="&#xe34;" 
d="M-271 2186h-1341v144h1341v-144z" />
    <glyph glyph-name="saraiithai" unicode="&#xe35;" 
d="M-274 2186h-1338v144h1182v380h156v-524z" />
    <glyph glyph-name="sarauethai" unicode="&#xe36;" 
d="M-777 2453c0 34.667 6.16895 67.834 18.502 99.5c12.333 31.667 29.833 59.5 52.5 83.5s49.667 43.167 81 57.5s66 21.5 104 21.5c38.667 0 73.667 -6.83301 105 -20.5s58.166 -32.334 80.499 -56c22.333 -23.667 39.666 -51.5 51.999 -83.5s18.5 -66.333 18.5 -103
c0 -21.333 -3.5 -43 -10.5 -65s-15.167 -41 -24.5 -57h29v-144h-1341v144h872c-11.333 15.333 -20.333 34.333 -27 57s-10 44.667 -10 66zM-641.998 2454c0 -16 2.66895 -31.667 8.00195 -47s13.166 -28.833 23.499 -40.5s22.833 -21.167 37.5 -28.5s31.667 -11 51 -11
c20 0 37.5 3.83301 52.5 11.5s27.667 17.5 38 29.5s18.166 25.5 23.499 40.5s8 30.167 8 45.5c0 16.667 -2.66699 32.834 -8 48.5c-5.33301 15.667 -13 29.334 -23 41c-10 11.667 -22.667 21 -38 28s-33 10.5 -53 10.5c-19.333 0 -36.5 -3.66699 -51.5 -11
s-27.5 -17 -37.5 -29s-17.667 -25.667 -23 -41s-8 -31 -8 -47z" />
    <glyph glyph-name="saraueethai" unicode="&#xe37;" 
d="M-650 2320h223v390h153v-524h-1338v144h806v380h156v-390z" />
    <glyph glyph-name="sarauthai" unicode="&#xe38;" 
d="M-425 -655v278h-144v145l294 1v-424h-150z" />
    <glyph glyph-name="sarauuthai" unicode="&#xe39;" 
d="M-777 -703c-66.667 0 -128 10.167 -184 30.5s-105.5 48.833 -148.5 85.5s-79.167 80.667 -108.5 132s-51 108.333 -65 171l157 41c8 -48 22.833 -91.333 44.5 -130s48 -71.5 79 -98.5s65.833 -47.667 104.5 -62s79 -21.5 121 -21.5s82.333 7.16699 121 21.5
s73.5 35 104.5 62s57.333 59.833 79 98.5s36.5 82 44.5 130l157 -41c-14 -62.667 -35.667 -119.667 -65 -171s-65.5 -95.333 -108.5 -132s-92.5 -65.167 -148.5 -85.5s-117.333 -30.5 -184 -30.5z" />
    <glyph glyph-name="phinthuthai" unicode="&#xe3a;" 
d="M-513 -381c0 18 3 35.833 9 53.5s14.833 33.334 26.5 47.001s26.167 24.667 43.5 33s37 12.5 59 12.5c22.667 0 42.5 -4 59.5 -12s31.333 -18.667 43 -32s20.5 -28.833 26.5 -46.5s9 -36.167 9 -55.5c0 -18 -3 -35.667 -9 -53s-15 -32.833 -27 -46.5
s-26.5 -24.667 -43.5 -33s-36.5 -12.5 -58.5 -12.5s-41.5 4.16699 -58.5 12.5s-31.5 19.166 -43.5 32.499s-21 28.833 -27 46.5s-9 35.5 -9 53.5z" />
    <glyph glyph-name="PUCR2005" unicode="&#xe3e;" 
 />
    <glyph glyph-name="bahtthai" unicode="&#xe3f;" horiz-adv-x="1800" 
d="M1199 1221c64 -14 123.998 -38.1689 179.998 -72.502s104.833 -77.166 146.5 -128.499s74.334 -110 98.001 -176s35.5 -137.667 35.5 -215c0 -90 -14.833 -173.333 -44.5 -250s-73 -143.167 -130 -199.5s-126.833 -100.333 -209.5 -132s-177 -47.5 -283 -47.5h-111v-249
h-146v249h-463v2323h463v222h146v-223c83.333 -3.33301 160.333 -21.5 231 -54.5s131.5 -76.667 182.5 -131s90.833 -117.666 119.5 -189.999s43 -149.5 43 -231.5c0 -51.333 -6.16699 -100.833 -18.5 -148.5s-29.666 -92.5 -51.999 -134.5s-49.5 -80.833 -81.5 -116.5
s-67.333 -67.167 -106 -94.5zM880.998 1113l-0.000976562 -956h104c70.667 0 137 10.333 199 31s115.833 51 161.5 91s81.667 89.333 108 148s39.5 126 39.5 202s-14.167 144 -42.5 204s-66.666 110.667 -114.999 152s-104.5 73 -168.5 95s-131.333 33 -202 33h-84z
M1292 1714c0 58.667 -10.6689 114 -32.002 166s-50.5 98 -87.5 138s-80.5 72.5 -130.5 97.5s-103.667 39.833 -161 44.5v-893c62.667 4.66699 119.334 19.5 170.001 44.5s93.834 57.5 129.501 97.5s63.167 86 82.5 138s29 107.667 29 167zM439.995 156.998h295v956h-295
v-956zM734.995 1266v896h-295v-896h295z" />
    <glyph glyph-name="saraethai" unicode="&#xe40;" horiz-adv-x="711" 
d="M279 1867h164v-1868h-164v1868z" />
    <glyph glyph-name="saraaethai" unicode="&#xe41;" horiz-adv-x="1355" 
d="M282 1867h164v-1868h-164v1868zM918 1867h164v-1868h-164v1868z" />
    <glyph glyph-name="saraothai" unicode="&#xe42;" horiz-adv-x="776" 
d="M342 0l-0.000976562 2296c0 66 8.33301 125.333 25 178s42 97.167 76 133.5s77.167 64.333 129.5 84s114.5 29.5 186.5 29.5h86l71 -143h-143c-52 0 -95.333 -7.16699 -130 -21.5s-62.167 -34.333 -82.5 -60s-34.666 -56.334 -42.999 -92
c-8.33301 -35.667 -12.5 -74.834 -12.5 -117.5v-2287h-163z" />
    <glyph glyph-name="saraaimaimuanthai" unicode="&#xe43;" horiz-adv-x="780" 
d="M342 1728c0 50 4.66602 94.833 13.999 134.5s22.5 76 39.5 109s37.667 63.667 62 92s51.5 56.166 81.5 83.5c25.333 23.333 45.333 52.166 60 86.5c14.667 34.333 22 68.166 22 101.5c0 32 -4.83301 62 -14.5 90s-24 52.667 -43 74s-42.667 38.166 -71 50.5
c-28.333 12.333 -60.833 18.5 -97.5 18.5c-35.333 0 -67 -6.33301 -95 -19s-52 -29.5 -72 -50.5s-35.667 -44.833 -47 -71.5s-18 -54 -20 -82l-9.5 6.5l-24 16l-31.5 20l-32 19.5c-10 6 -18.333 10.833 -25 14.5l-10 5.5c10 39.333 25.833 76.333 47.5 111s48 65 79 91
s66.5 46.5 106.5 61.5s83.667 22.5 131 22.5c56 0 107 -9.16699 153 -27.5s85.333 -44.166 118 -77.5c32.667 -33.333 57.834 -73.166 75.501 -119.5c17.667 -46.333 26.5 -97.5 26.5 -153.5c0 -58 -10.5 -112.5 -31.5 -163.5s-55.167 -97.5 -102.5 -139.5
c-27.333 -24 -49.333 -47.5 -66 -70.5s-29.5 -47 -38.5 -72s-15 -52.167 -18 -81.5s-4.5 -62.333 -4.5 -99v-1709h-163v1728z" />
    <glyph glyph-name="saraaimaimalaithai" unicode="&#xe44;" horiz-adv-x="780" 
d="M342 0l-0.000976562 2247c0 42.667 -4.16699 81.834 -12.5 117.5c-8.33301 35.667 -22.666 66.334 -42.999 92c-20.333 25.667 -47.833 45.667 -82.5 60s-78 21.5 -130 21.5h-156l71 143h99c72 0 134.167 -9.83301 186.5 -29.5s95.5 -47.667 129.5 -84
s59.333 -80.833 76 -133.5s25 -112 25 -178v-2256h-163z" />
    <glyph glyph-name="lakkhangyaothai" unicode="&#xe45;" horiz-adv-x="1200" 
d="M764 -500l-1 1935c0 37.333 -5.83301 72.5 -17.5 105.5s-29 62 -52 87s-51.667 44.667 -86 59s-74.5 21.5 -120.5 21.5h-429l80 161h364c65.333 0 124.333 -10.333 177 -31s97.5 -49.667 134.5 -87s65.333 -82.166 85 -134.499s29.5 -109.833 29.5 -172.5v-1944h-164z
" />
    <glyph glyph-name="maiyamokthai" unicode="&#xe46;" horiz-adv-x="2109" 
d="M1367 778l4.00195 -10.4971c2.66699 -7 6.16699 -15.667 10.5 -26l14 -33l13.5 -32c4 -9.66699 7.16699 -17.667 9.5 -24s3.5 -9.16602 3.5 -8.49902c-39.333 -23.333 -83 -42 -131 -56s-99 -21 -153 -21c-99.333 0 -188.166 17.333 -266.499 52s-145 81.667 -200 141
s-97 128.5 -126 207.5s-43.5 163.167 -43.5 252.5c0 64.667 9.5 127.667 28.5 189s46.333 118.333 82 171s79.167 99 130.5 139s109.333 71 174 93c27.333 -66 64.666 -115.667 111.999 -149s98.666 -50 153.999 -50c54.667 0 105.5 16.667 152.5 50
s82.833 81.666 107.5 144.999c62 -24 117.5 -55.333 166.5 -94s90.333 -82.5 124 -131.5s59.334 -102.167 77.001 -159.5s26.5 -116.333 26.5 -177v-1746h-164v1731c0 80.667 -15.833 152.5 -47.5 215.5s-75.834 114.833 -132.501 155.5
c-19.333 -18 -39.666 -35.5 -60.999 -52.5s-44.666 -32 -69.999 -45s-53 -23.333 -83 -31s-62.667 -11.5 -98 -11.5c-68 0 -128 12.5 -180 37.5s-98.333 58.5 -139 100.5c-62 -41.333 -110 -93.833 -144 -157.5s-51 -138.167 -51 -223.5c0 -68 10.833 -131.833 32.5 -191.5
s52.667 -111.834 93 -156.501s89.666 -79.834 147.999 -105.501s124.166 -38.5 197.499 -38.5c41.333 0 81.166 4.66699 119.499 14s74.833 21.666 109.5 36.999z" />
    <glyph glyph-name="maitaikhuthai" unicode="&#xe47;" 
d="M-211 2837l-0.00292969 -125h-884c-28.667 0 -55.5 -5 -80.5 -15s-46.667 -24.167 -65 -42.5s-32.666 -40.333 -42.999 -66s-15.5 -54.167 -15.5 -85.5c0 -24.667 4 -48.834 12 -72.5c8 -23.667 19.833 -44.834 35.5 -63.5c15.667 -18.667 35.167 -33.667 58.5 -45
s50.333 -17 81 -17s57.167 5.16699 79.5 15.5s40.666 24.5 54.999 42.5s25 38.833 32 62.5s10.5 48.5 10.5 74.5h141c0 -24.667 4.66699 -48.667 14 -72s22.666 -44.166 39.999 -62.5c17.333 -18.333 38.333 -33 63 -44s52.334 -16.5 83.001 -16.5
c28.667 0 54.834 4.66699 78.501 14s44.667 22.5 63 39.5s33.666 37.333 45.999 61s21.833 49.5 28.5 77.5l18 -9l40 -19.5l40 -19c12 -5.66699 18.333 -8.5 19 -8.5c-7.33301 -32.667 -20.166 -65 -38.499 -97s-41.666 -60.667 -69.999 -86s-61.333 -45.833 -99 -61.5
s-79.834 -23.5 -126.501 -23.5c-64.667 0 -120 13.333 -166 40s-79 61 -99 103c-21.333 -42 -53 -76.333 -95 -103s-95.667 -40 -161 -40c-50 0 -95 9 -135 27s-74.167 41.833 -102.5 71.5s-50.166 63.834 -65.499 102.5c-15.333 38.667 -23 78.667 -23 120
c0 46 7.83301 89.667 23.5 131s38.334 77.833 68.001 109.5s65.5 56.667 107.5 75s89.333 27.5 142 27.5h890z" />
    <glyph glyph-name="maiekthai" unicode="&#xe48;" 
d="M-425 3289h146v-374h-146v374z" />
    <glyph glyph-name="maithothai" unicode="&#xe49;" 
d="M-510 3276v-217h450v-134h-596v217h-219v134h365z" />
    <glyph glyph-name="maitrithai" unicode="&#xe4a;" 
d="M-575 2922h-122.003c0.666992 4.66699 1.16699 10.834 1.5 18.5c0.333008 7.66699 0.5 13.5 0.5 17.5c0 26 -3.66699 50.833 -11 74.5s-18.333 44.5 -33 62.5s-32.5 32.167 -53.5 42.5s-44.833 15.5 -71.5 15.5c-25.333 0 -47.666 -5.33301 -66.999 -16
s-35.5 -25 -48.5 -43s-23 -39.167 -30 -63.5s-10.5 -49.833 -10.5 -76.5c0 -4.66699 0.166992 -10.334 0.5 -17c0.333008 -6.66699 0.833008 -12.334 1.5 -17l-20 -2.5l-44.5 -5.5l-44.5 -5.5l-20 -2.5c-1.33301 7.33301 -2.33301 16.5 -3 27.5s-1 20.167 -1 27.5
c0 42 6.33301 82.333 19 121s31.167 72.834 55.5 102.5c24.333 29.667 54.333 53.334 90 71c35.667 17.667 76.167 26.5 121.5 26.5c33.333 0 62.666 -3.83301 87.999 -11.5s47.333 -18 66 -31s34.167 -28.167 46.5 -45.5s22.166 -35.333 29.499 -54
c8 19.333 18 37.666 30 55c12 17.333 26.833 32.5 44.5 45.5s38.334 23.167 62.001 30.5s51.167 11 82.5 11c42.667 0 80.334 -6.66699 113.001 -20s60.334 -31.666 83.001 -55c22.667 -23.333 40.667 -50.666 54 -82c13.333 -31.333 21.666 -65.333 24.999 -102
c3.33301 0.666992 7.83301 1.16699 13.5 1.5s11.167 0.833008 16.5 1.5c6.66699 0.666992 13.667 1 21 1h106v-112h-245c-6 0 -12.833 3.33301 -20.5 10s-11.5 15 -11.5 25c0 28.667 -3.33301 55.5 -10 80.5s-16.667 46.667 -30 65s-29.666 32.833 -48.999 43.5
s-41.666 16 -66.999 16c-28 0 -52 -5.5 -72 -16.5s-36.5 -25.667 -49.5 -44s-22.5 -39.166 -28.5 -62.5c-6 -23.333 -9 -47.333 -9 -72v-18c0 -7.33301 0.333008 -13.333 1 -18z" />
    <glyph glyph-name="maichattawathai" unicode="&#xe4b;" 
d="M-281 3050v-152h-142v151h-235v129h235v151h142v-151h232v-128h-232z" />
    <glyph glyph-name="thanthakhatthai" unicode="&#xe4c;" 
d="M-398 3094v-206h-146v205c0 41.333 13 74 39 98s61 36 105 36h350v-133h-348z" />
    <glyph glyph-name="nikhahitthai" unicode="&#xe4d;" 
d="M-507 2441c0 -20 3.83301 -38.667 11.5 -56s18.167 -32.666 31.5 -46c13.333 -13.333 28.666 -23.833 45.999 -31.5s36 -11.5 56 -11.5s38.833 3.83301 56.5 11.5s33.167 18.167 46.5 31.5s23.833 28.666 31.5 46c7.66699 17.333 11.5 36 11.5 56
s-3.83301 38.833 -11.5 56.5s-18.167 33.167 -31.5 46.5s-28.833 23.833 -46.5 31.5s-36.5 11.5 -56.5 11.5s-38.667 -3.83301 -56 -11.5s-32.666 -18.167 -45.999 -31.5s-23.833 -28.833 -31.5 -46.5s-11.5 -36.5 -11.5 -56.5zM-644 2441
c0 38.667 7.49902 75.167 22.499 109.5s35.333 64.333 61 90s55.667 46 90 61s70.833 22.5 109.5 22.5c40.667 0 78.334 -7.5 113.001 -22.5s64.667 -35.333 90 -61s45 -55.667 59 -90s21 -70.833 21 -109.5s-7.5 -75.167 -22.5 -109.5s-35.333 -64.333 -61 -90
s-55.667 -46 -90 -61s-70.833 -22.5 -109.5 -22.5s-75.167 7.5 -109.5 22.5s-64.333 35.333 -90 61s-46 55.667 -61 90s-22.5 70.833 -22.5 109.5z" />
    <glyph glyph-name="yamakkanthai" unicode="&#xe4e;" 
d="M-288 2679l-33.998 -117c-4.66699 2 -10.667 4.16699 -18 6.5l-17 5.5c-25.333 7.33301 -50.5 10.833 -75.5 10.5s-48.333 -4.66602 -70 -13c-21.667 -8.33301 -40.5 -20.833 -56.5 -37.5s-27.333 -38 -34 -64c-7.33301 -28 -8.66602 -54.167 -3.99902 -78.5
s13.667 -45.833 27 -64.5s30.166 -34.167 50.499 -46.5s43.166 -20.5 68.499 -24.5c4.66699 -1.33301 10.834 -2.5 18.501 -3.5s13.834 -1.5 18.501 -1.5l-19 -122c-11.333 0.666992 -21.333 1.33398 -30 2c-8.66699 0.666992 -16.667 1.66699 -24 3
c-40 8.66699 -76.833 23.667 -110.5 45s-61.167 48 -82.5 80s-35.5 68.833 -42.5 110.5s-3.83301 86.5 9.5 134.5c8 29.333 19.333 55 34 77s31.167 40.5 49.5 55.5s37.666 26.5 57.999 34.5s40.166 12.667 59.499 14c-17.333 11.333 -32 26.333 -44 45
s-21.333 39.5 -28 62.5s-10.167 47.5 -10.5 73.5s3.16699 52 10.5 78c11.333 41.333 28.333 75.333 51 102s49.167 47.167 79.5 61.5s63.166 23.166 98.499 26.5c35.333 3.33301 71 2 107 -4c16 -2.66699 32.833 -6.33398 50.5 -11c17.667 -4.66699 32.167 -9 43.5 -13
l-35 -117c-4.66699 2 -9 3.5 -13 4.5s-10.667 3.16699 -20 6.5c-27.333 8 -54 12.5 -80 13.5s-49.833 -2.16699 -71.5 -9.5s-40.5 -18.833 -56.5 -34.5s-27.667 -36.167 -35 -61.5c-8 -26.667 -9.83301 -51.834 -5.5 -75.5c4.33301 -23.667 13 -45 26 -64s30 -35.5 51 -49.5
s44.5 -24.333 70.5 -31l17.5 -5c7 -2 12.833 -3.33301 17.5 -4z" />
    <glyph glyph-name="fongmanthai" unicode="&#xe4f;" horiz-adv-x="1872" 
d="M131 932c0 76 9.5 148.333 28.5 217s45.833 132.334 80.5 191.001s76.334 111.5 125.001 158.5s102.667 87 162 120s123.5 58.333 192.5 76s140.833 26.5 215.5 26.5s146.5 -8.83301 215.5 -26.5s133.167 -43 192.5 -76s113.333 -73 162 -120
s90.334 -99.833 125.001 -158.5s61.5 -122.334 80.5 -191.001s28.5 -141 28.5 -217c0 -76.667 -9.5 -149.167 -28.5 -217.5s-45.833 -131.833 -80.5 -190.5s-76.334 -111.5 -125.001 -158.5s-102.667 -87 -162 -120s-123.5 -58.333 -192.5 -76s-140.833 -26.5 -215.5 -26.5
s-146.5 8.83301 -215.5 26.5s-133.167 43 -192.5 76s-113.333 73 -162 120s-90.334 99.833 -125.001 158.5s-61.5 122.167 -80.5 190.5s-28.5 140.833 -28.5 217.5zM1573 932c0 92.667 -16.5 177.334 -49.5 254.001s-78.167 142.667 -135.5 198s-124.833 98.333 -202.5 129
s-161.167 46 -250.5 46s-172.833 -15.333 -250.5 -46s-145.167 -73.667 -202.5 -129s-102.5 -121.333 -135.5 -198s-49.5 -161.334 -49.5 -254.001s16.5 -177.334 49.5 -254.001s78.167 -142.667 135.5 -198s124.833 -98.333 202.5 -129s161.167 -46 250.5 -46
s172.833 15.333 250.5 46s145.167 73.667 202.5 129s102.5 121.333 135.5 198s49.5 161.334 49.5 254.001zM1261 931c0 46.667 -8.66699 89.667 -26 129s-40.666 73.333 -69.999 102s-63.833 51 -103.5 67s-81.834 24 -126.501 24s-86.834 -8 -126.501 -24
s-74.167 -38.333 -103.5 -67s-52.666 -62.667 -69.999 -102s-26 -82.333 -26 -129s8.66699 -89.667 26 -129s40.666 -73.333 69.999 -102s63.833 -51 103.5 -67s81.834 -24 126.501 -24s86.834 8 126.501 24s74.167 38.333 103.5 67s52.666 62.667 69.999 102
s26 82.333 26 129z" />
    <glyph glyph-name="zerothai" unicode="&#xe50;" horiz-adv-x="2100" 
d="M251 803c0 76 9.5 149.333 28.5 220s45.833 136.5 80.5 197.5s76.334 116.667 125.001 167s102.667 93.333 162 129s123.5 63.334 192.5 83.001s140.833 29.5 215.5 29.5s146.5 -9.83301 215.5 -29.5s133.167 -47.334 192.5 -83.001s113.333 -78.667 162 -129
s90.334 -106 125.001 -167s61.5 -126.833 80.5 -197.5s28.5 -144 28.5 -220c0 -76.667 -9.5 -150 -28.5 -220s-45.833 -135.5 -80.5 -196.5s-76.334 -116.333 -125.001 -166s-102.667 -92.334 -162 -128.001s-123.5 -63.167 -192.5 -82.5s-140.833 -29 -215.5 -29
s-146.5 9.66699 -215.5 29s-133.167 46.833 -192.5 82.5s-113.333 78.334 -162 128.001s-90.334 105 -125.001 166s-61.5 126.667 -80.5 197s-28.5 143.5 -28.5 219.5zM1693 803c0 92.667 -16.5 179.334 -49.5 260.001s-78.167 151 -135.5 211
s-124.833 107.167 -202.5 141.5s-161.167 51.5 -250.5 51.5s-172.833 -17.167 -250.5 -51.5s-145.167 -81.5 -202.5 -141.5s-102.5 -130.333 -135.5 -211s-49.5 -167.334 -49.5 -260.001c0 -62 7.5 -121.333 22.5 -178s36.167 -109.667 63.5 -159
s60.333 -94.166 99 -134.499s81.667 -74.833 129 -103.5s98.333 -50.834 153 -66.501s111.667 -23.5 171 -23.5s116.333 7.83301 171 23.5s105.667 37.834 153 66.501s90.333 63.167 129 103.5s71.667 85.166 99 134.499s48.5 102.5 63.5 159.5s22.5 116.167 22.5 177.5z
" />
    <glyph glyph-name="onethai" unicode="&#xe51;" horiz-adv-x="2100" 
d="M461 983c0 -62 9.32812 -116.5 27.9951 -163.5s43.167 -86.333 73.5 -118s65.166 -55.834 104.499 -72.501s79.5 -25.834 120.5 -27.501s81.5 4.33301 121.5 18s76 34.834 108 63.501l74 -142c-37.333 -33.333 -83.166 -58.666 -137.499 -75.999
s-111.333 -25.333 -171 -24s-119.167 12.666 -178.5 33.999s-112.666 54 -159.999 98s-85.666 99.833 -114.999 167.5s-44 148.5 -44 242.5c0 54.667 7.83301 108.667 23.5 162s38.334 103.833 68.001 151.5s66 91.834 109 132.501s91.833 75.834 146.5 105.501
s115 52.834 181 69.501s136.667 25 212 25c76.667 0 149.834 -9.83301 219.501 -29.5s134.334 -47.5 194.001 -83.5s113.5 -79.167 161.5 -129.5s89 -106.333 123 -168s60.167 -127.834 78.5 -198.501s27.5 -144 27.5 -220c0 -54 -5.5 -112 -16.5 -174
s-30 -123.667 -57 -185s-63.167 -120.333 -108.5 -177s-102.333 -106.334 -171 -149.001s-150.5 -76 -245.5 -100s-205.167 -34.333 -330.5 -31l-690 18l76 149l669 -16c113.333 -2.66699 214 12.5 302 45.5s162 79.5 222 139.5s105.667 131 137 213s47 171 47 267
c0 92.667 -16.5 179.5 -49.5 260.5s-78.167 151.667 -135.5 212s-124.833 107.833 -202.5 142.5s-161.167 52 -250.5 52c-90 0 -170 -13.833 -240 -41.5s-129 -64.167 -177 -109.5s-84.5 -97 -109.5 -155s-37.5 -117.333 -37.5 -178z" />
    <glyph glyph-name="twothai" unicode="&#xe52;" horiz-adv-x="2100" 
d="M384 1986l0.000976562 -1457c0 -55.333 8.5 -106.333 25.5 -153s40.333 -87 70 -121s64.667 -60.5 105 -79.5s84.166 -28.5 131.499 -28.5h682c47.333 0 91.333 9.5 132 28.5s75.834 45.5 105.501 79.5s53 74.333 70 121s25.5 97.667 25.5 153v600
c0 38.667 -5.16699 74.334 -15.5 107.001s-24.5 62 -42.5 88s-39 48.667 -63 68s-49.333 35 -76 47c-16.667 -19.333 -35.167 -37.666 -55.5 -54.999s-43 -32.5 -68 -45.5s-52.333 -23.333 -82 -31s-62.5 -11.5 -98.5 -11.5c-68 0 -127 13.5 -177 40.5
s-93.333 61.167 -130 102.5c-29.333 -11.333 -56.333 -26.5 -81 -45.5s-45.667 -41.833 -63 -68.5s-30.833 -57 -40.5 -91s-14.5 -71.333 -14.5 -112c0.666992 -80.667 19.667 -147 57 -199s85.333 -89.333 144 -112l-56 -163c-51.333 18.667 -96.666 43.667 -135.999 75
s-72.5 67.666 -99.5 108.999s-47.333 86.833 -61 136.5s-20.5 101.5 -20.5 155.5c0 62.667 9.16699 122.334 27.5 179.001s45.5 107.5 81.5 152.5s80.667 82.667 134 113s115 50.5 185 60.5c28 -61.333 63.5 -106.5 106.5 -135.5s91.5 -43.5 145.5 -43.5
c52.667 0 100.167 15.167 142.5 45.5s76.5 74.833 102.5 133.5c68.667 -11.333 129.167 -33.166 181.5 -65.499s96 -70.833 131 -115.5s61.333 -92.834 79 -144.501s26.5 -102.834 26.5 -153.501v-625c0 -37.333 -4.33301 -76.333 -13 -117
s-21.834 -80.334 -39.501 -119.001s-40 -75.5 -67 -110.5s-58.833 -65.667 -95.5 -92s-78.5 -47.333 -125.5 -63s-99.5 -23.5 -157.5 -23.5h-680c-58 0 -110.5 7.83301 -157.5 23.5s-88.833 36.667 -125.5 63s-68.5 57 -95.5 92s-49.333 71.833 -67 110.5
s-30.834 78.334 -39.501 119.001s-13 79.667 -13 117v1461h165z" />
    <glyph glyph-name="threethai" unicode="&#xe53;" horiz-adv-x="2100" 
d="M1855 0h-164v1123c0 77.333 -16.667 142.166 -50 194.499s-76.666 90.833 -129.999 115.5c-32.667 -54.667 -72.334 -99.667 -119.001 -135s-96.834 -61.666 -150.501 -78.999s-109.167 -25.666 -166.5 -24.999s-113 10.167 -167 28.5s-104.833 45 -152.5 80
s-88.5 78.5 -122.5 130.5c-29.333 -11.333 -56.166 -26.166 -80.499 -44.499s-45.166 -40.333 -62.499 -66s-30.833 -55.167 -40.5 -88.5s-14.5 -70.333 -14.5 -111v-624c0 -55.333 7.83301 -105 23.5 -149s37.667 -81.5 66 -112.5s62.166 -54.667 101.499 -71
s82.666 -24.5 129.999 -24.5h187v-142h-206c-68.667 0 -131.667 11.833 -189 35.5s-106.666 57.5 -147.999 101.5s-73.5 97 -96.5 159s-34.5 131.667 -34.5 209v635c0 57.333 9.66699 113 29 167s47.833 102.667 85.5 146s83.667 80 138 110s116.5 50 186.5 60
c26.667 -62.667 59.667 -114.834 99 -156.501s82 -73 128 -94s93.333 -31.5 142 -31.5s95.5 10.5 140.5 31.5s86.667 52.333 125 94s69.833 93.834 94.5 156.501c68.667 -11.333 129.167 -32.833 181.5 -64.5s96 -69.334 131 -113.001s61.333 -91.834 79 -144.501
s26.5 -105.667 26.5 -159v-1142z" />
    <glyph glyph-name="fourthai" unicode="&#xe54;" horiz-adv-x="2100" 
d="M1045 563c0.666992 49.333 6.83203 92.334 18.499 129.001s25.667 68.167 42 94.5s33.333 48.333 51 66s33.167 32.5 46.5 44.5l118 -114c-13.333 -10.667 -26.333 -23.334 -39 -38.001s-24 -31.334 -34 -50.001s-18 -39.5 -24 -62.5s-9 -47.833 -9 -74.5
c0 -58.667 13.667 -112.167 41 -160.5s63 -90 107 -125s94.167 -62.167 150.5 -81.5s113.5 -29 171.5 -29h179v-161h-896c-61.333 0 -122.5 7.83301 -183.5 23.5s-119.333 38.834 -175 69.501s-107.334 68.5 -155.001 113.5s-89 97.167 -124 156.5s-62.5 125.333 -82.5 198
s-30 152 -30 238c0 80 9.16699 155.5 27.5 226.5s44 136.333 77 196s72.5 113.167 118.5 160.5s96.5 87.5 151.5 120.5s113.667 58.333 176 76s126.5 26.5 192.5 26.5h108c38.667 0 78.5 -0.166992 119.5 -0.5s82 -0.5 123 -0.5h118.5h269v381h165v-547
c-128 0 -249.333 0.333008 -364 1h-148.5c-50.333 0 -98.5 0.166992 -144.5 0.5s-88.333 0.5 -127 0.5h-96c-55.333 0 -108.166 -7.33301 -158.499 -22s-97.333 -35.5 -141 -62.5s-83.334 -59.5 -119.001 -97.5s-66.167 -80.833 -91.5 -128.5s-44.833 -99.167 -58.5 -154.5
s-20.5 -113.666 -20.5 -174.999c0 -96.667 15.833 -184.334 47.5 -263.001s74.5 -146 128.5 -202s116.5 -99.167 187.5 -129.5s145.5 -45.5 223.5 -45.5h77c32 0 64 -0.166992 96 -0.5s61.333 -0.666016 88 -0.999023s44.334 -0.5 53.001 -0.5
c-35.333 10 -68.166 28.167 -98.499 54.5s-56.833 57.666 -79.5 93.999s-40.5 76.5 -53.5 120.5s-19.5 89 -19.5 135z" />
    <glyph glyph-name="fivethai" unicode="&#xe55;" horiz-adv-x="2100" 
d="M1045 563c0.666992 49.333 6.82715 92.3369 18.4941 129.004s25.667 68.167 42 94.5s33.333 48.333 51 66s33.167 32.5 46.5 44.5l118 -114c-13.333 -10.667 -26.333 -23.334 -39 -38.001s-24 -31.334 -34 -50.001s-18 -39.5 -24 -62.5s-9 -47.833 -9 -74.5
c0 -58.667 13.667 -112.167 41 -160.5s63 -90 107 -125s94.167 -62.167 150.5 -81.5s113.5 -29 171.5 -29h179v-161h-896c-61.333 0 -122.5 7.83301 -183.5 23.5s-119.333 38.834 -175 69.501s-107.334 68.5 -155.001 113.5s-89 97.167 -124 156.5s-62.5 125.333 -82.5 198
s-30 152 -30 238c0 78.667 9 153 27 223s43 134.667 75 194s70.5 112.666 115.5 159.999s94.333 87.666 148 120.999s111.167 59.166 172.5 77.499s124.333 28.166 189 29.499c-15.333 22.667 -27.166 47.5 -35.499 74.5s-12.5 57.833 -12.5 92.5c0 48.667 9 93.5 27 134.5
s42.833 76.333 74.5 106s68.834 52.667 111.501 69s88.667 24.5 138 24.5c48.667 0 93.834 -8.16699 135.501 -24.5s77.834 -39.166 108.501 -68.499s54.834 -64.5 72.501 -105.5s26.5 -86.167 26.5 -135.5c0 -67.333 -15 -123 -45 -167h318v-166l-880 2
c-55.333 0 -108.166 -7.33301 -158.499 -22s-97.333 -35.5 -141 -62.5s-83.334 -59.5 -119.001 -97.5s-66.167 -80.833 -91.5 -128.5s-44.833 -99.167 -58.5 -154.5s-20.5 -113.666 -20.5 -174.999c0 -96.667 15.833 -184.334 47.5 -263.001s74.5 -146 128.5 -202
s116.5 -99.167 187.5 -129.5s145.5 -45.5 223.5 -45.5h77c32 0 64 -0.166992 96 -0.5s61.333 -0.666016 88 -0.999023s44.334 -0.5 53.001 -0.5c-35.333 10 -68.166 28.167 -98.499 54.5s-56.833 57.666 -79.5 93.999s-40.5 76.5 -53.5 120.5s-19.5 89 -19.5 135z
M1056.99 1764c0 -25.333 4.83301 -48.833 14.5 -70.5s23 -40.334 40 -56.001s36.833 -28 59.5 -37s46.667 -13.5 72 -13.5c26 0 50.667 4.5 74 13.5s43.5 21.333 60.5 37s30.5 34.334 40.5 56.001s15 45.167 15 70.5c0 26.667 -5 51 -15 73s-23.5 40.833 -40.5 56.5
s-37.167 27.834 -60.5 36.501s-48 13 -74 13c-25.333 0 -49.333 -4.33301 -72 -13s-42.5 -20.834 -59.5 -36.501s-30.333 -34.5 -40 -56.5s-14.5 -46.333 -14.5 -73z" />
    <glyph glyph-name="sixthai" unicode="&#xe56;" horiz-adv-x="2100" 
d="M443 1986l0.00195312 -378.998c0 -25.333 -0.333008 -50.333 -1 -75s-1.66699 -46.667 -3 -66c-1.33301 -22.667 -2.33301 -44.667 -3 -66c32.667 32.667 69.167 63 109.5 91s84.666 52 132.999 72s101.5 35.667 159.5 47s121.333 17 190 17
c76 0 149.333 -8.16699 220 -24.5s137 -40.333 199 -72s118.5 -70.834 169.5 -117.501s94.833 -100.167 131.5 -160.5s65.167 -127.166 85.5 -200.499s30.5 -153 30.5 -239s-10.167 -166 -30.5 -240s-48.833 -141.5 -85.5 -202.5s-80.5 -115.167 -131.5 -162.5
s-107.5 -87.166 -169.5 -119.499s-128.333 -57 -199 -74s-144 -25.5 -220 -25.5c-92.667 0 -180.167 10.667 -262.5 32s-157.333 52.666 -225 93.999s-126.667 92.833 -177 154.5s-89.5 132.834 -117.5 213.501l166 63c22.667 -72 55.167 -133.167 97.5 -183.5
s91 -91.166 146 -122.499s114.667 -54 179 -68s130.166 -21 197.499 -21c69.333 0 133.833 8.33301 193.5 25s113.667 40 162 70s91.166 65.667 128.499 107s68.666 86.5 93.999 135.5s44.5 101 57.5 156s19.5 111.167 19.5 168.5s-6.5 113.166 -19.5 167.499
s-32.167 105.666 -57.5 153.999s-56.666 92.666 -93.999 132.999s-80.166 75.166 -128.499 104.499s-102.333 52.166 -162 68.499s-124.167 24.5 -193.5 24.5c-62 0 -122.667 -6.66699 -182 -20s-115 -33.5 -167 -60.5s-99.167 -61.167 -141.5 -102.5
s-76.833 -89.666 -103.5 -144.999l-160 74v775h165z" />
    <glyph glyph-name="seventhai" unicode="&#xe57;" horiz-adv-x="2100" 
d="M1917 1989l0.00390625 -1464c0 -61.333 -9.66699 -123 -29 -185s-49.333 -118.333 -90 -169s-92.334 -91.834 -155.001 -123.501s-137.334 -47.5 -224.001 -47.5h-28v1200c0 35.333 -3.83301 65.833 -11.5 91.5s-17.334 47.5 -29.001 65.5s-24.667 32.667 -39 44
s-28.5 20.333 -42.5 27c-31.333 -51.333 -67.666 -94 -108.999 -128s-85.333 -59.333 -132 -76s-94.5 -24.667 -143.5 -24s-96.833 10 -143.5 28s-90.834 44.333 -132.501 79s-77.834 77.667 -108.501 129c-18.667 -8.66699 -35.667 -19.334 -51 -32.001
s-28.5 -28.5 -39.5 -47.5s-19.5 -41.667 -25.5 -68s-9 -57.166 -9 -92.499v-697c0 -55.333 7.83301 -105 23.5 -149s37.667 -81.5 66 -112.5s62.166 -54.667 101.499 -71s82.666 -24.5 129.999 -24.5h187v-142h-206c-68.667 0 -131.667 11.833 -189 35.5
s-106.666 57.5 -147.999 101.5s-73.5 97 -96.5 159s-34.5 131.667 -34.5 209v708c0 53.333 8.83301 103.5 26.5 150.5s42.667 88.833 75 125.5s71 66.834 116 90.501s94.5 39.167 148.5 46.5c24 -60.667 53 -111 87 -151s70.333 -70 109 -90s78.667 -29.833 120 -29.5
s81.333 10.5 120 30.5s74.667 50 108 90s61.666 90 84.999 150c51.333 -6 98.333 -20.833 141 -44.5s79.334 -53.334 110.001 -89.001s54.5 -76.167 71.5 -121.5s25.5 -92.666 25.5 -141.999v-1052c30 14 57.167 31 81.5 51s45.333 44 63 72s31.334 60.833 41.001 98.5
s14.5 81.167 14.5 130.5v1460h165z" />
    <glyph glyph-name="eightthai" unicode="&#xe58;" horiz-adv-x="2100" 
d="M1881 1986v-544.996h-920c-52.667 0 -103.667 -7.33301 -153 -22s-95.833 -35.5 -139.5 -62.5s-83.667 -59.5 -120 -97.5s-67.5 -80.833 -93.5 -128.5s-46.333 -99.167 -61 -154.5s-22 -113.666 -22 -174.999c0 -83.333 9.5 -159.166 28.5 -227.499
s43.5 -128.333 73.5 -180s63.333 -94.667 100 -129s73 -59.166 109 -74.499c32.667 56 72 103 118 141s95.167 66.667 147.5 86s106 29.166 161 29.499s108.167 -8.83398 159.5 -27.501s98.833 -47 142.5 -85s80.167 -86 109.5 -144
c53.333 24.667 96.666 63.167 129.999 115.5s50 117.166 50 194.499v142h164v-161c0 -53.333 -8.83301 -106.333 -26.5 -159s-44 -100.834 -79 -144.501s-78.667 -81.334 -131 -113.001s-112.833 -53.167 -181.5 -64.5c-22.667 64 -52 117.333 -88 160
s-75.333 74.834 -118 96.501s-87.167 32.5 -133.5 32.5s-91.333 -10.5 -135 -31.5s-84.167 -53 -121.5 -96s-68.333 -96.833 -93 -161.5c-79.333 14 -153.166 43.167 -221.499 87.5s-127.833 101.166 -178.5 170.499s-90.5 149.666 -119.5 240.999
s-43.5 191.666 -43.5 300.999c0 80 9.16699 155.5 27.5 226.5s44 136.333 77 196s72.5 113.167 118.5 160.5s96.5 87.5 151.5 120.5s113.667 58.333 176 76s126.5 26.5 192.5 26.5h489c94.667 0 191 0.333008 289 1v379h165z" />
    <glyph glyph-name="ninethai" unicode="&#xe59;" horiz-adv-x="2100" 
d="M938 1606l488.999 -0.00488281c94.667 0 191 0.333008 289 1v379h165v-545h-346c-24.667 0 -48 0.666992 -70 2c-19.333 0.666992 -39 1.66699 -59 3s-36.333 3 -49 5c12 -7.33301 25 -16.166 39 -26.499l42 -32.5c14 -11.333 27.333 -23.166 40 -35.499
s24 -24.166 34 -35.499c56.667 -65.333 107 -144.166 151 -236.499s81.333 -195.166 112 -308.499s54 -235.5 70 -366.5s24 -267.167 24 -408.5l-171 -2c0 134 -7.66699 262.167 -23 384.5s-37.666 236.166 -66.999 341.499s-65.166 201 -107.499 287
s-90.833 160 -145.5 222s-115 110.833 -181 146.5s-137 55.834 -213 60.501c-52.667 0 -103.667 -7.33301 -153 -22s-95.833 -35.5 -139.5 -62.5s-83.667 -59.5 -120 -97.5s-67.5 -80.833 -93.5 -128.5s-46.333 -99.167 -61 -154.5s-22 -113.666 -22 -174.999
c0 -96 11.667 -183.667 35 -263s56.333 -147.666 99 -204.999s93.667 -101.833 153 -133.5s125 -47.5 197 -47.5c44.667 0 87.5 8.33301 128.5 25s78 40.834 111 72.501s60.833 70.167 83.5 115.5s37.667 96.666 45 153.999l166 -14c-10 -81.333 -31 -154 -63 -218
s-71.833 -118 -119.5 -162s-101.667 -77.5 -162 -100.5s-123.833 -34.5 -190.5 -34.5c-95.333 0 -183.333 19.667 -264 59s-150.334 94.666 -209.001 165.999s-104.5 156.666 -137.5 255.999s-49.5 209 -49.5 329c0 80 9.16699 155.5 27.5 226.5s44 136.333 77 196
s72.5 113.167 118.5 160.5s96.5 87.5 151.5 120.5s113.667 58.333 176 76s126.5 26.5 192.5 26.5z" />
    <glyph glyph-name="angkhankhuthai" unicode="&#xe5a;" horiz-adv-x="2417" 
d="M1167 1837l-25.002 -75.001c-3.33301 -9.33301 -6.33301 -18.5 -9 -27.5s-5.16699 -17 -7.5 -24s-4.16602 -12.667 -5.49902 -17l-2 -6.5c-63.333 26.667 -130.333 40 -201 40c-73.333 0 -140 -13.333 -200 -40s-111.333 -62.667 -154 -108s-75.834 -98.333 -99.501 -159
s-35.5 -125.334 -35.5 -194.001s11.833 -133.167 35.5 -193.5s56.834 -113 99.501 -158s94 -80.5 154 -106.5s126.667 -39 200 -39c64.667 0 125.834 10.5 183.501 31.5s109.5 50.333 155.5 88s84.833 82.167 116.5 133.5s53.5 107.333 65.5 168v716h163l-1 -1865h-161v829
c-21.333 -36 -49.833 -69.833 -85.5 -101.5s-76.5 -59.334 -122.5 -83.001s-95.667 -42.167 -149 -55.5s-108 -20 -164 -20c-92 0 -177.833 16.667 -257.5 50s-149 79.333 -208 138s-105.5 127.834 -139.5 207.501s-51 165.834 -51 258.501
c0 60.667 7.66699 119.334 23 176.001s37.166 109.5 65.499 158.5s62.333 93.667 102 134s83.834 75 132.501 104s101 51.333 157 67s114.667 23.5 176 23.5c44.667 0 87.5 -4.5 128.5 -13.5s81.167 -21.167 120.5 -36.5zM1991 1867h164v-1868h-164v1868z" />
    <glyph glyph-name="khomutthai" unicode="&#xe5b;" horiz-adv-x="3655" 
d="M2275 392l-149.004 0.000976562l-355 590l-174 -290c-39.333 -65.333 -82.166 -123.666 -128.499 -174.999s-97 -94.5 -152 -129.5s-114.833 -61.667 -179.5 -80s-134.334 -27.5 -209.001 -27.5c-93.333 0 -180.5 15.5 -261.5 46.5s-151.5 75 -211.5 132
s-107.167 125.833 -141.5 206.5s-51.5 170.334 -51.5 269.001c0 91.333 16.333 177.333 49 258s78.167 151 136.5 211s127.5 107.333 207.5 142s167.667 52 263 52c44.667 0 87.5 -4.5 128.5 -13.5s81.167 -21.167 120.5 -36.5l-25 -75
c-3.33301 -9.33301 -6.33301 -18.5 -9 -27.5s-5.16699 -17 -7.5 -24s-4.16602 -12.667 -5.49902 -17l-2 -6.5c-63.333 26.667 -130.333 40 -201 40c-76 0 -144.167 -13.333 -204.5 -40s-111.666 -62.834 -153.999 -108.501s-74.666 -98.834 -96.999 -159.501
s-33.5 -125.334 -33.5 -194.001s12.333 -133 37 -193s59 -112.5 103 -157.5s96.5 -80.5 157.5 -106.5s128.167 -39.333 201.5 -40c112 -1.33301 212.833 26.667 302.5 84s168.834 143.333 237.501 258l306 510l430 -723l319 529h949v-154h-867z" />
    <glyph glyph-name="ZWSP" unicode="&#x200b;" 
 />
    <glyph glyph-name="endash" unicode="&#x2013;" horiz-adv-x="1741" 
d="M1704 927v-157h-1674v157h1674z" />
    <glyph glyph-name="emdash" unicode="&#x2014;" horiz-adv-x="3482" 
d="M3441 927v-157h-3401v157h3401z" />
    <glyph glyph-name="quoteleft" unicode="&#x2018;" horiz-adv-x="769" 
d="M183 1933l279 736l103 -34l-214 -757z" />
    <glyph glyph-name="quoteright" unicode="&#x2019;" horiz-adv-x="769" 
d="M575 2614l-279 -736l-103 34l214 757z" />
    <glyph glyph-name="quotedblleft" unicode="&#x201c;" horiz-adv-x="1269" 
d="M193 1933l279 736l103 -34l-214 -757zM663 1933l279 736l103 -34l-214 -757z" />
    <glyph glyph-name="quotedblright" unicode="&#x201d;" horiz-adv-x="1269" 
d="M575 2614l-279 -736l-103 34l214 757zM1075 2614l-279 -736l-103 34l214 757z" />
    <glyph glyph-name="bullet" unicode="&#x2022;" horiz-adv-x="1745" 
d="M883 1599c62.667 0 122.334 -7.83301 179.001 -23.5s109.167 -37.834 157.5 -66.501s92.166 -63 131.499 -103s72.666 -84.5 99.999 -133.5s48.5 -101.5 63.5 -157.5s22.5 -114 22.5 -174s-7.5 -117.667 -22.5 -173s-36.167 -107.166 -63.5 -155.499
s-60.666 -92.5 -99.999 -132.5s-83.166 -74.333 -131.499 -103s-100.833 -50.834 -157.5 -66.501s-116.334 -23.5 -179.001 -23.5c-94 0 -181.167 17.333 -261.5 52s-149.833 81.667 -208.5 141s-104.667 128.666 -138 207.999s-50 163.666 -50 252.999
c0 90.667 16.667 175.834 50 255.501s79.333 149.334 138 209.001s128.167 106.834 208.5 141.501s167.5 52 261.5 52z" />
    <glyph glyph-name="Euro" unicode="&#x20ac;" horiz-adv-x="2218" 
d="M307 1511c27.333 124 69.9941 238.002 127.994 342.002s130 193.833 216 269.5s185.667 134.667 299 177s239 63.5 377 63.5c70 0 135.333 -5.5 196 -16.5s118.334 -27 173.001 -48s106.667 -46.667 156 -77s97.333 -64.833 144 -103.5v-222
c-47.333 46.667 -95 88.5 -143 125.5s-98.667 68.5 -152 94.5s-110.666 46 -171.999 60s-128.666 21 -201.999 21c-118.667 0 -225 -17.667 -319 -53s-176.167 -83.666 -246.5 -144.999s-129 -133.833 -176 -217.5s-82.833 -173.834 -107.5 -270.501h1278l-52 -140h-1254
c-4.66699 -34 -8.16699 -68 -10.5 -102s-3.5 -68.333 -3.5 -103c0 -26.667 0.5 -52.834 1.5 -78.501s2.83301 -51.167 5.5 -76.5h1124l-52 -140h-1050c23.333 -111.333 60 -212.5 110 -303.5s111.833 -168.667 185.5 -233s158.334 -114 254.001 -149
s200.834 -52.5 315.501 -52.5c72.667 0 139.5 7 200.5 21s118.167 34.167 171.5 60.5s104 58.166 152 95.499s95.333 79.333 142 126v-223c-46.667 -38.667 -94.667 -73 -144 -103s-101.333 -55.5 -156 -76.5s-112.334 -37 -173.001 -48s-126 -16.5 -196 -16.5
c-142 0 -271.167 21.667 -387.5 65s-218.166 104.5 -305.499 183.5s-159.666 173.833 -216.999 284.5s-98 233.667 -122 369h-213l49 140h145c-4 50 -6 101.667 -6 155c0 35.333 1 69.833 3 103.5s5.33301 67.5 10 101.5h-201l49 140h176z" />
    <glyph glyph-name="trademark" unicode="&#x2122;" horiz-adv-x="2785" 
d="M1112 2205h-392v-1078h-125v1078h-393v118h910v-118zM1464 2323l435 -961h7l114.5 238l110.5 242.5l110.5 242.5l114.5 238h107v-1196h-120v910l-437 -923h-7l-431 922v-909h-120v1196h116z" />
    <glyph glyph-name="uni25CC" unicode="&#x25cc;" horiz-adv-x="1636" 
d="M292 1081l-184 95l184 90c-2 -16.667 -3.83301 -33.167 -5.5 -49.5s-2.5 -32.833 -2.5 -49.5c0 -14 0.833008 -28.167 2.5 -42.5s3.5 -28.833 5.5 -43.5zM1119 1610l201 64.998l-70 -192c-18 24.667 -37.5 47.334 -58.5 68.001s-45.167 40.334 -72.5 59.001zM718 1692
l94 184l90 -180c-14 2 -28.167 3.16699 -42.5 3.5s-28.833 0.5 -43.5 0.5c-16.667 0 -33 -0.833008 -49 -2.5s-32.333 -3.5 -49 -5.5zM501 732.998l-197.002 -61l70 192c18.667 -26.667 38.334 -50.5 59.001 -71.5s43.334 -40.833 68.001 -59.5zM385.998 1487l-53 188
l184 -65c-26.667 -16.667 -50.5 -35.167 -71.5 -55.5s-40.833 -42.833 -59.5 -67.5zM893.998 638.998l-82.002 -172l-86 172c14.667 -2 29.834 -3.83301 45.501 -5.5s30.5 -2.5 44.5 -2.5c14.667 0 28.334 0.833008 41.001 2.5s25 3.5 37 5.5zM1345 1257l172 -90.001
l-172 -77c2 12 3.83301 24.333 5.5 37s2.5 26 2.5 40c0 14.667 -0.833008 29.834 -2.5 45.501s-3.5 30.5 -5.5 44.5zM1242 839.997l48.999 -168.002l-168 53c23.333 16.667 44.833 34.334 64.5 53.001s37.834 39.334 54.501 62.001z" />
    <glyph glyph-name="thothannobasethai" unicode="&#xf700;" horiz-adv-x="1653" 
d="M77 1287c0 53.333 7.00098 105.335 21.001 156.002s34.167 98.167 60.5 142.5s58.333 85 96 122s80.5 69 128.5 96s100.667 47.833 158 62.5s118.666 22 183.999 22c44 0 86.5 -3.66699 127.5 -11s79.667 -17.5 116 -30.5s70.166 -28.667 101.499 -47
s59 -38.166 83 -59.499c12.667 -11.333 26.167 -25 40.5 -41s26.5 -33.667 36.5 -53c-1.33301 10 -2.5 22.167 -3.5 36.5s-1.66699 28.666 -2 42.999s-0.666016 27.333 -0.999023 39s-0.5 20.167 -0.5 25.5v296h157v-2087h-164v824h-510v144h510v298
c0 70 -12 133.667 -36 191s-57.5 106.166 -100.5 146.499s-94.667 71.666 -155 93.999s-126.5 33.5 -198.5 33.5c-68 0 -132 -11.333 -192 -34s-112.5 -54.5 -157.5 -95.5s-80.5 -90 -106.5 -147s-39 -120.167 -39 -189.5z" />
    <glyph glyph-name="yoyingnobasethai" unicode="&#xf70f;" horiz-adv-x="2775" 
d="M1606 509c0 -50 7.49707 -98.4971 22.4971 -145.497s38 -88.667 69 -125s69.833 -65.5 116.5 -87.5s101.667 -33 165 -33c54.667 0 104.167 8.83301 148.501 26.5c44.333 17.667 82.166 42.834 113.5 75.501c31.333 32.667 55.333 71.667 72 117s25 95.666 25 150.999
v1381h164v-1395c0 -37.333 -4.16699 -75.833 -12.5 -115.5s-21.5 -78.167 -39.5 -115.5s-41 -72.666 -69 -105.999s-61.333 -62.333 -100 -87s-83.167 -44.334 -133.5 -59.001s-106.833 -22 -169.5 -22c-62 0 -118.333 7.33301 -169 22s-95.667 34.5 -135 59.5
s-73.666 54.667 -102.999 89s-53.333 71 -72 110s-32.667 79.833 -42 122.5s-14 85 -14 127v766c0 70 -12.5 133.667 -37.5 191s-59.667 106.166 -104 146.499s-97.166 71.666 -158.499 93.999s-128 33.5 -200 33.5c-68 0 -132.5 -11.333 -193.5 -34
s-114.667 -54.5 -161 -95.5s-83 -90 -110 -147s-40.5 -120.167 -40.5 -189.5v-1264h-164v1287c0 53.333 7.5 105.333 22.5 156s36.333 98.167 64 142.5s61.334 85 101.001 122s84.167 69 133.5 96s103.166 47.833 161.499 62.5s120.166 22 185.499 22
c102.667 0 195 -16.333 277 -49s151.833 -76.834 209.5 -132.501s101.834 -120.167 132.501 -193.5s46 -151 46 -233v-42v-88.5v-119.5c0 -44 -0.166992 -89 -0.5 -135s-0.5 -91.167 -0.5 -135.5v-119.5v-88.5v-42.5z" />
    <glyph glyph-name="saraulowthai" unicode="&#xf718;" 
d="M-425 -1055v248h-144v145h294v-393h-150z" />
    <glyph glyph-name="sarauulowthai" unicode="&#xf719;" 
d="M-777 -1083c-66.667 0 -128 10.167 -184 30.5s-105.5 48.833 -148.5 85.5s-79.167 80.667 -108.5 132s-51 108.333 -65 171l157 41c8 -48 22.833 -91.333 44.5 -130s48 -71.5 79 -98.5s65.833 -47.667 104.5 -62s79 -21.5 121 -21.5s82.333 7.16699 121 21.5
s73.5 35 104.5 62s57.333 59.833 79 98.5s36.5 82 44.5 130l157 -41c-14 -62.667 -35.667 -119.667 -65 -171s-65.5 -95.333 -108.5 -132s-92.5 -65.167 -148.5 -85.5s-117.333 -30.5 -184 -30.5z" />
    <glyph glyph-name="phinthulowthai" unicode="&#xf71a;" 
d="M-513 -781c0 18 3 35.833 9 53.5s14.833 33.334 26.5 47.001s26.167 24.667 43.5 33s37 12.5 59 12.5c22.667 0 42.5 -4 59.5 -12s31.333 -18.667 43 -32s20.5 -28.833 26.5 -46.5s9 -36.167 9 -55.5c0 -18 -3 -35.667 -9 -53s-15 -32.833 -27 -46.5
s-26.5 -24.667 -43.5 -33s-36.5 -12.5 -58.5 -12.5s-41.5 4.16699 -58.5 12.5s-31.5 19.166 -43.5 32.499s-21 28.833 -27 46.5s-9 35.5 -9 53.5z" />
    <glyph glyph-name="lochula.short" unicode="&#xf71d;" horiz-adv-x="2402" 
d="M2229 1866l-71.999 -143.001h-379c46 -8.66699 90.167 -29.667 132.5 -63s79.666 -75.5 111.999 -126.5s58.166 -109.167 77.5 -174.5c19.333 -65.333 29 -135 29 -209v-660c0 -38 -4.33301 -77.167 -13 -117.5s-21.834 -80 -39.5 -119c-17.667 -39 -40 -76 -67 -111
s-59 -65.667 -96 -92s-79.167 -47.333 -126.5 -63s-99.666 -23.5 -156.999 -23.5c-52.667 0 -102.834 7.83301 -150.501 23.5s-90.834 36.5 -129.501 62.5s-71.167 55.833 -97.5 89.5s-44.166 68.5 -53.499 104.5c-15.333 -36.667 -35.666 -71.834 -60.999 -105.501
s-55.5 -63.5 -90.5 -89.5s-74.5 -46.667 -118.5 -62s-92 -23 -144 -23c-57.333 0 -109.666 7.16699 -156.999 21.5s-90 34.166 -128 59.499s-71.167 55 -99.5 89s-52 70.5 -71 109.5s-33.167 79.667 -42.5 122s-14 84.5 -14 126.5v1374h165v-1373
c0 -54.667 7.66699 -105.167 23 -151.5s37.833 -86.5 67.5 -120.5s66 -60.5 109 -79.5s92.5 -28.5 148.5 -28.5c47.333 0 91.166 9.5 131.499 28.5s75.166 45.333 104.499 79s52.333 73.834 69 120.501s25 97.667 25 153v731h164v-731
c0 -54.667 7.83301 -105.167 23.5 -151.5s38.5 -86.5 68.5 -120.5s66.833 -60.667 110.5 -80s93.5 -29 149.5 -29c47.333 0 91.333 9.5 132 28.5s75.834 45.333 105.501 79s53 73.834 70 120.501s25.5 97.667 25.5 153v632c0 98.667 -17 185.334 -51 260.001
s-80.833 137 -140.5 187s-129.834 87.5 -210.501 112.5s-167.667 37.5 -261 37.5h-186v143h1113z" />
    <glyph glyph-name=".null" 
 />
    <glyph glyph-name="nonmarkingreturn" horiz-adv-x="1159" 
 />
    <glyph glyph-name="yamakkanleftthai" 
d="M-628 2619l-33.998 -117c-4.66699 2 -10.667 4.16699 -18 6.5l-17 5.5c-25.333 7.33301 -50.5 10.833 -75.5 10.5s-48.333 -4.66602 -70 -13c-21.667 -8.33301 -40.5 -20.833 -56.5 -37.5s-27.333 -38 -34 -64c-7.33301 -28 -8.66602 -54.167 -3.99902 -78.5
s13.667 -45.833 27 -64.5s30.166 -34.167 50.499 -46.5s43.166 -20.5 68.499 -24.5c4.66699 -1.33301 10.834 -2.5 18.501 -3.5s13.834 -1.5 18.501 -1.5l-19 -122c-11.333 0.666992 -21.333 1.33398 -30 2c-8.66699 0.666992 -16.667 1.66699 -24 3
c-40 8.66699 -76.833 23.667 -110.5 45s-61.167 48 -82.5 80s-35.5 68.833 -42.5 110.5s-3.83301 86.5 9.5 134.5c8 29.333 19.333 55 34 77s31.167 40.5 49.5 55.5s37.666 26.5 57.999 34.5s40.166 12.667 59.499 14c-17.333 11.333 -32 26.333 -44 45
s-21.333 39.5 -28 62.5s-10.167 47.5 -10.5 73.5s3.16699 52 10.5 78c11.333 41.333 28.333 75.333 51 102s49.167 47.167 79.5 61.5s63.166 23.166 98.499 26.5c35.333 3.33301 71 2 107 -4c16 -2.66699 32.833 -6.33398 50.5 -11c17.667 -4.66699 32.167 -9 43.5 -13
l-35 -117c-4.66699 2 -9 3.5 -13 4.5s-10.667 3.16699 -20 6.5c-27.333 8 -54 12.5 -80 13.5s-49.833 -2.16699 -71.5 -9.5s-40.5 -18.833 -56.5 -34.5s-27.667 -36.167 -35 -61.5c-8 -26.667 -9.83301 -51.834 -5.5 -75.5c4.33301 -23.667 13 -45 26 -64s30 -35.5 51 -49.5
s44.5 -24.333 70.5 -31l17.5 -5c7 -2 12.833 -3.33301 17.5 -4z" />
    <glyph glyph-name="uni0E33.alt1" horiz-adv-x="1200" 
d="M-1038 2441c0 -20 3.83301 -38.667 11.5 -56s18.167 -32.666 31.5 -46c13.333 -13.333 28.666 -23.833 45.999 -31.5s36 -11.5 56 -11.5s38.833 3.83301 56.5 11.5s33.167 18.167 46.5 31.5s23.833 28.666 31.5 46c7.66699 17.333 11.5 36 11.5 56
s-3.83301 38.833 -11.5 56.5s-18.167 33.167 -31.5 46.5s-28.833 23.833 -46.5 31.5s-36.5 11.5 -56.5 11.5s-38.667 -3.83301 -56 -11.5s-32.666 -18.167 -45.999 -31.5s-23.833 -28.833 -31.5 -46.5s-11.5 -36.5 -11.5 -56.5zM-1175 2441
c0 38.667 7.49902 75.167 22.499 109.5s35.333 64.333 61 90s55.667 46 90 61s70.833 22.5 109.5 22.5c40.667 0 78.334 -7.5 113.001 -22.5s64.667 -35.333 90 -61s45 -55.667 59 -90s21 -70.833 21 -109.5s-7.5 -75.167 -22.5 -109.5s-35.333 -64.333 -61 -90
s-55.667 -46 -90 -61s-70.833 -22.5 -109.5 -22.5s-75.167 7.5 -109.5 22.5s-64.333 35.333 -90 61s-46 55.667 -61 90s-22.5 70.833 -22.5 109.5zM763.999 0l-1 1435c0 37.333 -5.83301 72.5 -17.5 105.5s-29 62 -52 87s-51.667 44.667 -86 59s-74.5 21.5 -120.5 21.5h-429
l80 161h364c65.333 0 124.333 -10.333 177 -31s97.5 -49.667 134.5 -87s65.333 -82.166 85 -134.499s29.5 -109.833 29.5 -172.5v-1444h-164z" />
    <glyph glyph-name="saraamleft" horiz-adv-x="1201" 
d="M764 0l-1 1435c0 37.333 -5.83301 72.5 -17.5 105.5s-29 62 -52 87s-51.667 44.667 -86 59s-74.5 21.5 -120.5 21.5h-429l80 161h364c65.333 0 124.333 -10.333 177 -31s97.5 -49.667 134.5 -87s65.333 -82.166 85 -134.499s29.5 -109.833 29.5 -172.5v-1444h-164z
M-1038 2441c0 -20 3.83301 -38.666 11.5 -55.999s18.167 -32.666 31.5 -46c13.333 -13.333 28.666 -23.833 45.999 -31.5s36 -11.5 56 -11.5s38.833 3.83301 56.5 11.5s33.167 18.167 46.5 31.5s23.833 28.666 31.5 45.999s11.5 36 11.5 56s-3.83301 38.833 -11.5 56.5
s-18.167 33.167 -31.5 46.5s-28.833 23.833 -46.5 31.5s-36.5 11.5 -56.5 11.5s-38.667 -3.83301 -56 -11.5s-32.666 -18.167 -45.999 -31.5s-23.833 -28.833 -31.5 -46.5s-11.5 -36.5 -11.5 -56.5zM-1175 2441c0 38.667 7.49902 75.167 22.499 109.5s35.333 64.333 61 90
s55.667 46 90 61s70.833 22.5 109.5 22.5c40.667 0 78.334 -7.5 113.001 -22.5s64.667 -35.333 90 -61s45 -55.667 59 -90s21 -70.833 21 -109.5s-7.5 -75.167 -22.5 -109.5s-35.333 -64.333 -61 -90s-55.667 -46 -90 -61s-70.833 -22.5 -109.5 -22.5
s-75.167 7.5 -109.5 22.5s-64.333 35.333 -90 61s-46 55.667 -61 90s-22.5 70.833 -22.5 109.5z" />
    <glyph glyph-name="maiekthai.alt5" 
d="M-425 3039h146v-374h-146v374z" />
    <glyph glyph-name="maithothai.alt5" 
d="M-510 2799h450v-134h-596v217h-209v134h355v-217z" />
    <glyph glyph-name="maitrithai.alt5" 
d="M-860 2670h-121.003c0.666992 4.66699 1 10.834 1 18.5v17.5c0 26 -3.66699 50.833 -11 74.5s-18.333 44.5 -33 62.5s-32.5 32.167 -53.5 42.5s-44.833 15.5 -71.5 15.5c-25.333 0 -47.666 -5.33301 -66.999 -16s-35.5 -25 -48.5 -43s-23 -39.167 -30 -63.5
s-10.5 -49.833 -10.5 -76.5c0 -4.66699 0.166992 -10.334 0.5 -17c0.333008 -6.66699 0.833008 -12.334 1.5 -17l-20.5 -2.5l-44.5 -5.5l-44.5 -5.5l-20.5 -2.5c-1.33301 7.33301 -2.16602 16.5 -2.49902 27.5s-0.5 20.167 -0.5 27.5c0 42 5.66699 82.333 17 121
s28.666 72.834 51.999 102.5c23.333 29.667 53 53.334 89 71c36 17.667 78.667 26.5 128 26.5c30.667 0 58.5 -4.16699 83.5 -12.5s47 -19.166 66 -32.5c19 -13.333 35.167 -28.5 48.5 -45.5s24 -34.167 32 -51.5c8.66699 18 20 35.667 34 53s30.5 32.5 49.5 45.5
s40.667 23.5 65 31.5s51.166 12 80.499 12c42.667 0 80.334 -6.66699 113.001 -20s60.334 -31.666 83.001 -55c22.667 -23.333 40.667 -50.666 54 -82c13.333 -31.333 21.666 -65.333 24.999 -102c3.33301 0.666992 7.83301 1.16699 13.5 1.5s11.167 0.833008 16.5 1.5
c6.66699 0.666992 13.667 1 21 1h106v-112h-245c-6 0 -12.833 3.33301 -20.5 10s-11.5 15 -11.5 25c0 28.667 -3.33301 55.5 -10 80.5s-16.667 46.667 -30 65s-29.666 32.833 -48.999 43.5s-41.666 16 -66.999 16c-28 0 -52.5 -5.5 -73.5 -16.5s-38.5 -25.667 -52.5 -44
s-24.667 -39.166 -32 -62.5c-7.33301 -23.333 -11 -47.333 -11 -72v-18c0 -7.33301 0.333008 -13.333 1 -18z" />
    <glyph glyph-name="maichattawathai.alt5" 
d="M-281 2810v-152h-142v151h-235v129h235v151h142v-151h232v-128h-232z" />
    <glyph glyph-name="thanthakhatthai.alt5" 
d="M-378 2844v-206h-146v205c0 41.333 13 74 39 98s61 36 105 36h360v-133h-358z" />
    <glyph glyph-name="maiekthai.alt51" 
d="M-581 3279h146v-374h-146v374z" />
    <glyph glyph-name="maichattawathai.alt51" 
d="M-437 3030v-152h-142v151h-235v129h235v151h142v-151h232v-128h-232z" />
    <glyph glyph-name="maiekupperleftthai.alt6" 
d="M-815 3039h146v-374h-146v374z" />
    <glyph glyph-name="maithoupperleftthai.alt6" 
d="M-730 2799h630v-134h-776v217h-209v134h355v-217z" />
    <glyph glyph-name="maitriupperleftthai.alt6" 
d="M-749 2674h-121.003c0.666992 4.66699 1 10.834 1 18.5v17.5c0 26 -3.66699 50.833 -11 74.5s-18.333 44.5 -33 62.5s-32.5 32.167 -53.5 42.5s-44.833 15.5 -71.5 15.5c-25.333 0 -47.666 -5.33301 -66.999 -16s-35.5 -25 -48.5 -43s-23 -39.167 -30 -63.5
s-10.5 -49.833 -10.5 -76.5c0 -4.66699 0.166992 -10.334 0.5 -17c0.333008 -6.66699 0.833008 -12.334 1.5 -17l-20.5 -2.5l-44.5 -5.5l-44.5 -5.5l-20.5 -2.5c-1.33301 7.33301 -2.16602 16.5 -2.49902 27.5s-0.5 20.167 -0.5 27.5c0 42 5.66699 82.333 17 121
s28.666 72.834 51.999 102.5c23.333 29.667 53 53.334 89 71c36 17.667 78.667 26.5 128 26.5c30.667 0 58.5 -4.16699 83.5 -12.5s47 -19.166 66 -32.5c19 -13.333 35.167 -28.5 48.5 -45.5s24 -34.167 32 -51.5c8.66699 18 20 35.667 34 53s30.5 32.5 49.5 45.5
s40.667 23.5 65 31.5s51.166 12 80.499 12c42.667 0 80.334 -6.66699 113.001 -20s60.334 -31.666 83.001 -55c22.667 -23.333 40.667 -50.666 54 -82c13.333 -31.333 21.666 -65.333 24.999 -102c3.33301 0.666992 7.83301 1.16699 13.5 1.5s11.167 0.833008 16.5 1.5
c6.66699 0.666992 13.667 1 21 1h141v-112h-280c-6 0 -12.833 3.33301 -20.5 10s-11.5 15 -11.5 25c0 28.667 -3.33301 55.5 -10 80.5s-16.667 46.667 -30 65s-29.666 32.833 -48.999 43.5s-41.666 16 -66.999 16c-28 0 -52.5 -5.5 -73.5 -16.5s-38.5 -25.667 -52.5 -44
s-24.667 -39.166 -32 -62.5c-7.33301 -23.333 -11 -47.333 -11 -72v-18c0 -7.33301 0.333008 -13.333 1 -18z" />
    <glyph glyph-name="maichattawaupperleftthai.alt6" 
d="M-671 2810v-152h-142v151h-235v129h235v151h142v-151h232v-128h-232z" />
    <glyph glyph-name="thanthakhatupperleftthai.alt6" 
d="M-751 2794v-206h-146v205c0 41.333 13 74 39 98s61 36 105 36h400v-133h-398z" />
    <glyph glyph-name="maiekupperleftthai.alt61" 
d="M-965 3280h146v-374h-146v374z" />
    <glyph glyph-name="maithoupperleftthai.alt61" 
d="M-1079 3059h659v-134h-805v217h-209v134h355v-217z" />
    <glyph glyph-name="maitriupperleftthai.alt61" 
d="M-859 2922h-121.003c0.666992 4.66699 1 10.834 1 18.5v17.5c0 26 -3.66699 50.833 -11 74.5s-18.333 44.5 -33 62.5s-32.5 32.167 -53.5 42.5s-44.833 15.5 -71.5 15.5c-25.333 0 -47.666 -5.33301 -66.999 -16s-35.5 -25 -48.5 -43s-23 -39.167 -30 -63.5
s-10.5 -49.833 -10.5 -76.5c0 -4.66699 0.166992 -10.334 0.5 -17c0.333008 -6.66699 0.833008 -12.334 1.5 -17l-20.5 -2.5l-44.5 -5.5l-44.5 -5.5l-20.5 -2.5c-1.33301 7.33301 -2.16602 16.5 -2.49902 27.5s-0.5 20.167 -0.5 27.5c0 42 5.66699 82.333 17 121
s28.666 72.834 51.999 102.5c23.333 29.667 53 53.334 89 71c36 17.667 78.667 26.5 128 26.5c30.667 0 58.5 -4.16699 83.5 -12.5s47 -19.166 66 -32.5c19 -13.333 35.167 -28.5 48.5 -45.5s24 -34.167 32 -51.5c8.66699 18 20 35.667 34 53s30.5 32.5 49.5 45.5
s40.667 23.5 65 31.5s51.166 12 80.499 12c42.667 0 80.334 -6.66699 113.001 -20s60.334 -31.666 83.001 -55c22.667 -23.333 40.667 -50.666 54 -82c13.333 -31.333 21.666 -65.333 24.999 -102c3.33301 0.666992 7.83301 1.16699 13.5 1.5s11.167 0.833008 16.5 1.5
c6.66699 0.666992 13.667 1 21 1h106v-112h-245c-6 0 -12.833 3.33301 -20.5 10s-11.5 15 -11.5 25c0 28.667 -3.33301 55.5 -10 80.5s-16.667 46.667 -30 65s-29.666 32.833 -48.999 43.5s-41.666 16 -66.999 16c-28 0 -52.5 -5.5 -73.5 -16.5s-38.5 -25.667 -52.5 -44
s-24.667 -39.166 -32 -62.5c-7.33301 -23.333 -11 -47.333 -11 -72v-18c0 -7.33301 0.333008 -13.333 1 -18z" />
    <glyph glyph-name="maichattawaupperleftthai.alt61" 
d="M-811 3030v-152h-142v151h-235v129h235v151h142v-151h232v-128h-232z" />
    <glyph glyph-name="saraithai.alt17" 
d="M-271 2186h-1081v144h1081v-144z" />
    <glyph glyph-name="saraiithai.alt17" 
d="M-274 2186h-1078v144h922v380h156v-524z" />
    </font>
</defs>
</svg>
