<svg xmlns="http://www.w3.org/2000/svg">
<defs>
<font id="DBFuthairaBodyX-ExtraBd" horiz-adv-x="0" >
  <font-face 
    font-family="DB Futhaira Body X ExtraBd"
    font-weight="800"
    font-stretch="normal"
    units-per-em="4096"
    panose-1="2 0 9 6 0 0 0 2 0 4"
    ascent="3276"
    descent="-820"
    x-height="1646"
    cap-height="2346"
    bbox="-2852 -1147 3537 3474"
    underline-thickness="143"
    underline-position="-390"
    unicode-range="U+0020-U+F880"
  />
<missing-glyph horiz-adv-x="1696" 
d="M823 1294c28.667 -2 61.3311 -4.99902 97.998 -8.99902s74.667 -9 114 -15s78.833 -12.833 118.5 -20.5s77 -16.167 112 -25.5s66.333 -19.333 94 -30s49.5 -22.334 65.5 -35.001c-27.333 54 -63 102.167 -107 144.5s-92.833 78 -146.5 107s-110.667 51 -171 66
s-120.833 22.5 -181.5 22.5c-46 0 -91.333 -4.33301 -136 -13s-87.5 -22 -128.5 -40s-79.333 -40.667 -115 -68s-67.5 -59.333 -95.5 -96c49.333 6 98.5 10.167 147.5 12.5s98.167 3.5 147.5 3.5c30.667 0 61.334 -0.166992 92.001 -0.5s61.334 -1.5 92.001 -3.5zM1536 1618
l-0.000976562 -582c-65.333 20.667 -135.833 40 -211.5 58s-155.167 33.667 -238.5 47s-169.666 23.833 -258.999 31.5s-180.666 11.5 -273.999 11.5c-66 0 -130.667 -2 -194 -6s-127 -10.333 -191 -19c16 61.333 42 119.833 78 175.5s81.167 104.5 135.5 146.5
s117.5 75.333 189.5 100s152 37 240 37c84.667 0 161.167 -9.5 229.5 -28.5s128 -42.5 179 -70.5s93.667 -57.833 128 -89.5s60.166 -60.5 77.499 -86.5c0 -2 -0.166992 1.66699 -0.5 11s-0.5 22 -0.5 38s-0.333008 34.333 -1 55s-1 41.5 -1 62.5s-0.166992 41 -0.5 60
s-0.5 35.167 -0.5 48.5h115zM626.996 520.001c0 22.667 -7.5 39.334 -22.5 50.001s-30.833 16 -47.5 16c-18.667 0 -35 -5.33301 -49 -16s-21 -27.334 -21 -50.001s7 -38.5 21 -47.5s30.333 -13.5 49 -13.5c8 0 16.167 1 24.5 3s15.833 5.5 22.5 10.5s12.167 11.333 16.5 19
s6.5 17.167 6.5 28.5zM130.996 569.001c0 63.333 12.501 119.334 37.501 168.001s57.833 89.334 98.5 122.001s87 57.334 139 74.001s105 25 159 25s106.5 -7.33301 157.5 -22s96 -37.167 135 -67.5s70.333 -68.833 94 -115.5s35.5 -102.334 35.5 -167.001v-475h434v827h115

<glyph glyph-name="plusminus" unicode="&#x2b;&#x2d;" horiz-adv-x="1673" 
d="M1086 1649v-395h470v-429h-470v-414h-505v414h-468v429h468v395h505zM113 301h1443v-301h-1443v301z" />
    <glyph glyph-name="ellipsis" unicode="&#x2e;&#x2e;&#x2e;" horiz-adv-x="3483" 
d="M290 272c0 40 7.66699 77.667 23 113s36 66 62 92s56.667 46.667 92 62s73 23 113 23s77.667 -7.66699 113 -23s66 -36 92 -62s46.667 -56.667 62 -92s23 -73 23 -113s-7.66699 -77.667 -23 -113s-36 -66 -62 -92s-56.667 -46.667 -92 -62s-73 -23 -113 -23
s-77.667 7.66699 -113 23s-66 36 -92 62s-46.667 56.667 -62 92s-23 73 -23 113zM1451 272c0 40 7.66699 77.667 23 113s36 66 62 92s56.667 46.667 92 62s73 23 113 23s77.667 -7.66699 113 -23s66 -36 92 -62s46.667 -56.667 62 -92s23 -73 23 -113
s-7.66699 -77.667 -23 -113s-36 -66 -62 -92s-56.667 -46.667 -92 -62s-73 -23 -113 -23s-77.667 7.66699 -113 23s-66 36 -92 62s-46.667 56.667 -62 92s-23 73 -23 113zM2611 272c0 40 7.66699 77.667 23 113s36 66 62 92s56.667 46.667 92 62s73 23 113 23
s77.667 -7.66699 113 -23s66 -36 92 -62s46.667 -56.667 62 -92s23 -73 23 -113s-7.66699 -77.667 -23 -113s-36 -66 -62 -92s-56.667 -46.667 -92 -62s-73 -23 -113 -23s-77.667 7.66699 -113 23s-66 36 -92 62s-46.667 56.667 -62 92s-23 73 -23 113z" />
    <glyph glyph-name="lessequal" unicode="&#x3c;&#x3d;" horiz-adv-x="1972" 
d="M1784 408v-409h-1596v409h1596zM1784 1744l-742 -365l742 -390v-529l-1596 778v290l1596 739v-523z" />
    <glyph glyph-name="greaterequal" unicode="&#x3e;&#x3d;" horiz-adv-x="1972" 
d="M1784 408v-409h-1596v409h1596zM188 2267l1596 -739v-290l-1596 -778v529l742 390l-742 365v523z" />
    <glyph glyph-name="fongmanfunnuthai" unicode="&#xe4f;&#x22;" horiz-adv-x="2042" 
d="M1221 1971l-20 422h421l-20 -422h-381zM453 1971l-20 422h425l-20 -422h-385zM109 894c0 87.333 10.833 170.166 32.5 248.499s52.167 150.666 91.5 216.999s86.666 126.333 141.999 180s117 99.167 185 136.5s141.333 66.166 220 86.499s160.667 30.5 246 30.5
s167.166 -10.167 245.499 -30.5s151.333 -49.166 219 -86.499s129.334 -82.833 185.001 -136.5s103.167 -113.667 142.5 -180s69.833 -138.666 91.5 -216.999s32.5 -161.166 32.5 -248.499s-10.833 -170 -32.5 -248s-52.167 -150.333 -91.5 -217
s-86.833 -126.834 -142.5 -180.501s-117.334 -99.334 -185.001 -137.001s-140.667 -66.667 -219 -87s-160.166 -30.5 -245.499 -30.5s-167.333 10.167 -246 30.5s-152 49.333 -220 87s-129.667 83.334 -185 137.001s-102.666 113.834 -141.999 180.501
s-69.833 139.167 -91.5 217.5s-32.5 160.833 -32.5 247.5zM1546 891c0 76 -13.5 145.5 -40.5 208.5s-63.833 117.167 -110.5 162.5s-101.667 80.5 -165 105.5s-131.333 37.5 -204 37.5c-72 0 -139.667 -12.5 -203 -37.5s-118.333 -60.167 -165 -105.5
s-83.5 -99.5 -110.5 -162.5s-40.5 -132.5 -40.5 -208.5c0 -75.333 13.5 -144.166 40.5 -206.499s63.833 -115.833 110.5 -160.5s101.667 -79.334 165 -104.001s131 -37 203 -37c72.667 0 140.667 12.333 204 37s118.333 59.334 165 104.001s83.5 98.167 110.5 160.5
s40.5 131.166 40.5 206.499zM1189 892c0 22.667 -4.33301 43.667 -13 63s-20.167 36.166 -34.5 50.499s-31.333 25.5 -51 33.5s-40.5 12 -62.5 12c-22.667 0 -43.834 -4 -63.501 -12s-37 -19.167 -52 -33.5s-26.833 -31.166 -35.5 -50.499s-13 -40.333 -13 -63
c0 -23.333 4.33301 -44.666 13 -63.999s20.5 -36 35.5 -50s32.333 -25 52 -33s40.834 -12 63.501 -12c22 0 42.833 4 62.5 12s36.667 19 51 33s25.833 30.667 34.5 50s13 40.666 13 63.999z" />
    <glyph glyph-name="dochadaphinthuthai" unicode="&#xe0e;&#xe3a;" horiz-adv-x="2050" 
d="M139 -529l142.001 345.997c20 0 45.667 -0.166992 77 -0.5s66.166 -0.666016 104.499 -0.999023s78.5 -0.833008 120.5 -1.5s83.833 -1.16699 125.5 -1.5s81.5 -0.833008 119.5 -1.5s72 -1.16699 102 -1.5s54.667 -0.666016 74 -0.999023s30.666 -0.5 33.999 -0.5
c14 0 27.667 3.33301 41 10s25 15.5 35 26.5s18 23.833 24 38.5s9 30 9 46c0 22.667 -1.16699 51.5 -3.5 86.5s-3.5 70.833 -3.5 107.5v1060c0 24 -3.83301 44 -11.5 60s-17.167 28.833 -28.5 38.5s-23.5 16.667 -36.5 21s-24.5 6.5 -34.5 6.5
c-11.333 0 -23.833 -2.16699 -37.5 -6.5s-26.5 -11.5 -38.5 -21.5s-22 -23.167 -30 -39.5s-12 -36.5 -12 -60.5v-1181h-768v1157c0 99.333 20.167 193.333 60.5 282s98.5 166.334 174.5 233.001s168.667 119.5 278 158.5s233 58.5 371 58.5s261.5 -19.5 370.5 -58.5
s201.333 -91.667 277 -158s133.334 -143.5 173.001 -231.5s59.5 -181 59.5 -279v-1062c0 -52 -7.33301 -104.833 -22 -158.5s-36.167 -105.334 -64.5 -155.001s-63.5 -96 -105.5 -139s-90.5 -79.667 -145.5 -110s-116.5 -53.166 -184.5 -68.499s-141.667 -20.333 -221 -15z
M1177 -856.003c0 -38 9.33301 -73.667 28 -107s43.834 -62.5 75.501 -87.5s68.667 -44.833 111 -59.5s87.166 -22 134.499 -22c48.667 0 94.667 7.33301 138 22s81.166 34.5 113.499 59.5s57.833 54.167 76.5 87.5s28 69 28 107c0 38.667 -9.33301 75.167 -28 109.5
s-44.167 64.333 -76.5 90s-70.166 45.834 -113.499 60.501s-89.333 22 -138 22c-47.333 0 -92.166 -7.33301 -134.499 -22s-79.333 -34.834 -111 -60.501s-56.834 -55.667 -75.501 -90s-28 -70.833 -28 -109.5z" />
    <glyph glyph-name="topatakphintuthai" unicode="&#xe0f;&#xe3a;" horiz-adv-x="2050" 
d="M1177 -856c0 -38 9.33301 -73.667 28 -107s43.834 -62.5 75.501 -87.5s68.667 -44.833 111 -59.5s87.166 -22 134.499 -22c48.667 0 94.667 7.33301 138 22s81.166 34.5 113.499 59.5s57.833 54.167 76.5 87.5s28 69 28 107c0 38.667 -9.33301 75.167 -28 109.5
s-44.167 64.333 -76.5 90s-70.166 45.834 -113.499 60.501s-89.333 22 -138 22c-47.333 0 -92.166 -7.33301 -134.499 -22s-79.333 -34.834 -111 -60.501s-56.834 -55.667 -75.501 -90s-28 -70.833 -28 -109.5zM1140 1183c0 24 -3.83203 44 -11.499 60
s-17.167 28.833 -28.5 38.5s-23.5 16.667 -36.5 21s-24.5 6.5 -34.5 6.5c-11.333 0 -23.833 -2.16699 -37.5 -6.5s-26.5 -11.5 -38.5 -21.5s-22 -23.167 -30 -39.5s-12 -36.5 -12 -60.5v-1181h-768v1157c0 99.333 20.167 193.333 60.5 282s98.5 166.334 174.5 233.001
s168.667 119.5 278 158.5s233 58.5 371 58.5s261.5 -19.5 370.5 -58.5s201.333 -91.667 277 -158s133.334 -143.5 173.001 -231.5s59.5 -181 59.5 -279v-1062c0 -52 -7.33301 -104.833 -22 -158.5s-36.167 -105.334 -64.5 -155.001s-63.5 -96 -105.5 -139
s-90.5 -79.667 -145.5 -110s-116.5 -53.166 -184.5 -68.499s-141.667 -20.333 -221 -15c-94.667 6.66699 -173.5 24.667 -236.5 54s-108.5 70.333 -136.5 123c-25.333 -51.333 -63.833 -91.833 -115.5 -121.5s-112.5 -44.5 -182.5 -44.5c-54 0 -104.5 9.33301 -151.5 28
s-88.333 42.667 -124 72s-64.667 61.833 -87 97.5s-36.5 70.167 -42.5 103.5l335 122c13.333 -33.333 28.666 -55 45.999 -65s34.666 -15 51.999 -15c12 0 23.5 1.5 34.5 4.5s21 8.5 30 16.5s16.333 19.167 22 33.5s9.16699 32.833 10.5 55.5h360
c0.666992 -21.333 3.83398 -39 9.50098 -53s13.167 -25.167 22.5 -33.5s19.833 -14.333 31.5 -18s23.834 -5.5 36.501 -5.5c28.667 0 50.667 10.5 66 31.5s23 47.5 23 79.5c0 11.333 -1.33301 24.833 -4 40.5s-5.83398 32.667 -9.50098 51s-6.83398 37.166 -9.50098 56.499
s-4 38 -4 56v1060z" />
    <glyph glyph-name="dochadasarauthai" unicode="&#xe0e;&#xe38;" horiz-adv-x="2050" 
d="M139 -529l142.001 345.997c20 0 45.667 -0.166992 77 -0.5s66.166 -0.666016 104.499 -0.999023s78.5 -0.833008 120.5 -1.5s83.833 -1.16699 125.5 -1.5s81.5 -0.833008 119.5 -1.5s72 -1.16699 102 -1.5s54.667 -0.666016 74 -0.999023s30.666 -0.5 33.999 -0.5
c14 0 27.667 3.33301 41 10s25 15.5 35 26.5s18 23.833 24 38.5s9 30 9 46c0 22.667 -1.16699 51.5 -3.5 86.5s-3.5 70.833 -3.5 107.5v1060c0 24 -3.83301 44 -11.5 60s-17.167 28.833 -28.5 38.5s-23.5 16.667 -36.5 21s-24.5 6.5 -34.5 6.5
c-11.333 0 -23.833 -2.16699 -37.5 -6.5s-26.5 -11.5 -38.5 -21.5s-22 -23.167 -30 -39.5s-12 -36.5 -12 -60.5v-1181h-768v1157c0 99.333 20.167 193.333 60.5 282s98.5 166.334 174.5 233.001s168.667 119.5 278 158.5s233 58.5 371 58.5s261.5 -19.5 370.5 -58.5
s201.333 -91.667 277 -158s133.334 -143.5 173.001 -231.5s59.5 -181 59.5 -279v-1062c0 -52 -7.33301 -104.833 -22 -158.5s-36.167 -105.334 -64.5 -155.001s-63.5 -96 -105.5 -139s-90.5 -79.667 -145.5 -110s-116.5 -53.166 -184.5 -68.499s-141.667 -20.333 -221 -15z
M1892 -1102h-705v238h-224v246h929v-484z" />
    <glyph glyph-name="topataksarauthai" unicode="&#xe0f;&#xe38;" horiz-adv-x="2050" 
d="M1892 -1102h-705v238h-224v246h929v-484zM1140 1183c0 24 -3.83203 44 -11.499 60s-17.167 28.833 -28.5 38.5s-23.5 16.667 -36.5 21s-24.5 6.5 -34.5 6.5c-11.333 0 -23.833 -2.16699 -37.5 -6.5s-26.5 -11.5 -38.5 -21.5s-22 -23.167 -30 -39.5s-12 -36.5 -12 -60.5
v-1181h-768v1157c0 99.333 20.167 193.333 60.5 282s98.5 166.334 174.5 233.001s168.667 119.5 278 158.5s233 58.5 371 58.5s261.5 -19.5 370.5 -58.5s201.333 -91.667 277 -158s133.334 -143.5 173.001 -231.5s59.5 -181 59.5 -279v-1062
c0 -52 -7.33301 -104.833 -22 -158.5s-36.167 -105.334 -64.5 -155.001s-63.5 -96 -105.5 -139s-90.5 -79.667 -145.5 -110s-116.5 -53.166 -184.5 -68.499s-141.667 -20.333 -221 -15c-94.667 6.66699 -173.5 24.667 -236.5 54s-108.5 70.333 -136.5 123
c-25.333 -51.333 -63.833 -91.833 -115.5 -121.5s-112.5 -44.5 -182.5 -44.5c-54 0 -104.5 9.33301 -151.5 28s-88.333 42.667 -124 72s-64.667 61.833 -87 97.5s-36.5 70.167 -42.5 103.5l335 122c13.333 -33.333 28.666 -55 45.999 -65s34.666 -15 51.999 -15
c12 0 23.5 1.5 34.5 4.5s21 8.5 30 16.5s16.333 19.167 22 33.5s9.16699 32.833 10.5 55.5h360c0.666992 -21.333 3.83398 -39 9.50098 -53s13.167 -25.167 22.5 -33.5s19.833 -14.333 31.5 -18s23.834 -5.5 36.501 -5.5c28.667 0 50.667 10.5 66 31.5s23 47.5 23 79.5
c0 11.333 -1.33301 24.833 -4 40.5s-5.83398 32.667 -9.50098 51s-6.83398 37.166 -9.50098 56.499s-4 38 -4 56v1060z" />
    <glyph glyph-name="dochadasarauuthai" unicode="&#xe0e;&#xe39;" horiz-adv-x="2050" 
d="M1907 -664c-17.333 -72 -45.501 -137.667 -84.501 -197s-87.5 -110.166 -145.5 -152.499s-125.5 -75.166 -202.5 -98.499s-162.167 -35 -255.5 -35c-96 0 -184.667 11.667 -266 35s-153.166 56.166 -215.499 98.499s-114.5 93.166 -156.5 152.499s-72 125 -90 197l503 60
c4 -24 13.333 -44.667 28 -62s32 -31.666 52 -42.999s41.5 -19.666 64.5 -24.999s44.833 -8 65.5 -8c20 0 41.333 2.66699 64 8s44 13.666 64 24.999s37.333 25.666 52 42.999s23.667 38 27 62zM138.999 -529l142.001 345.997c20 0 45.667 -0.166992 77 -0.5
s66.166 -0.666016 104.499 -0.999023s78.5 -0.833008 120.5 -1.5s83.833 -1.16699 125.5 -1.5s81.5 -0.833008 119.5 -1.5s72 -1.16699 102 -1.5s54.667 -0.666016 74 -0.999023s30.666 -0.5 33.999 -0.5c14 0 27.667 3.33301 41 10s25 15.5 35 26.5s18 23.833 24 38.5
s9 30 9 46c0 22.667 -1.16699 51.5 -3.5 86.5s-3.5 70.833 -3.5 107.5v1060c0 24 -3.83301 44 -11.5 60s-17.167 28.833 -28.5 38.5s-23.5 16.667 -36.5 21s-24.5 6.5 -34.5 6.5c-11.333 0 -23.833 -2.16699 -37.5 -6.5s-26.5 -11.5 -38.5 -21.5s-22 -23.167 -30 -39.5
s-12 -36.5 -12 -60.5v-1181h-768v1157c0 99.333 20.167 193.333 60.5 282s98.5 166.334 174.5 233.001s168.667 119.5 278 158.5s233 58.5 371 58.5s261.5 -19.5 370.5 -58.5s201.333 -91.667 277 -158s133.334 -143.5 173.001 -231.5s59.5 -181 59.5 -279v-1062
c0 -52 -7.33301 -104.833 -22 -158.5s-36.167 -105.334 -64.5 -155.001s-63.5 -96 -105.5 -139s-90.5 -79.667 -145.5 -110s-116.5 -53.166 -184.5 -68.499s-141.667 -20.333 -221 -15z" />
    <glyph glyph-name="topataksarauuthai" unicode="&#xe0f;&#xe39;" horiz-adv-x="2050" 
d="M1907 -664c-17.333 -72 -45.501 -137.667 -84.501 -197s-87.5 -110.166 -145.5 -152.499s-125.5 -75.166 -202.5 -98.499s-162.167 -35 -255.5 -35c-96 0 -184.667 11.667 -266 35s-153.166 56.166 -215.499 98.499s-114.5 93.166 -156.5 152.499s-72 125 -90 197l503 60
c4 -24 13.333 -44.667 28 -62s32 -31.666 52 -42.999s41.5 -19.666 64.5 -24.999s44.833 -8 65.5 -8c20 0 41.333 2.66699 64 8s44 13.666 64 24.999s37.333 25.666 52 42.999s23.667 38 27 62zM1140 1183c0 24 -3.83203 44 -11.499 60s-17.167 28.833 -28.5 38.5
s-23.5 16.667 -36.5 21s-24.5 6.5 -34.5 6.5c-11.333 0 -23.833 -2.16699 -37.5 -6.5s-26.5 -11.5 -38.5 -21.5s-22 -23.167 -30 -39.5s-12 -36.5 -12 -60.5v-1181h-768v1157c0 99.333 20.167 193.333 60.5 282s98.5 166.334 174.5 233.001s168.667 119.5 278 158.5
s233 58.5 371 58.5s261.5 -19.5 370.5 -58.5s201.333 -91.667 277 -158s133.334 -143.5 173.001 -231.5s59.5 -181 59.5 -279v-1062c0 -52 -7.33301 -104.833 -22 -158.5s-36.167 -105.334 -64.5 -155.001s-63.5 -96 -105.5 -139s-90.5 -79.667 -145.5 -110
s-116.5 -53.166 -184.5 -68.499s-141.667 -20.333 -221 -15c-94.667 6.66699 -173.5 24.667 -236.5 54s-108.5 70.333 -136.5 123c-25.333 -51.333 -63.833 -91.833 -115.5 -121.5s-112.5 -44.5 -182.5 -44.5c-54 0 -104.5 9.33301 -151.5 28s-88.333 42.667 -124 72
s-64.667 61.833 -87 97.5s-36.5 70.167 -42.5 103.5l335 122c13.333 -33.333 28.666 -55 45.999 -65s34.666 -15 51.999 -15c12 0 23.5 1.5 34.5 4.5s21 8.5 30 16.5s16.333 19.167 22 33.5s9.16699 32.833 10.5 55.5h360c0.666992 -21.333 3.83398 -39 9.50098 -53
s13.167 -25.167 22.5 -33.5s19.833 -14.333 31.5 -18s23.834 -5.5 36.501 -5.5c28.667 0 50.667 10.5 66 31.5s23 47.5 23 79.5c0 11.333 -1.33301 24.833 -4 40.5s-5.83398 32.667 -9.50098 51s-6.83398 37.166 -9.50098 56.499s-4 38 -4 56v1060z" />
    <glyph glyph-name=".notdef" horiz-adv-x="1696" 
d="M823 1294c28.667 -2 61.3311 -4.99902 97.998 -8.99902s74.667 -9 114 -15s78.833 -12.833 118.5 -20.5s77 -16.167 112 -25.5s66.333 -19.333 94 -30s49.5 -22.334 65.5 -35.001c-27.333 54 -63 102.167 -107 144.5s-92.833 78 -146.5 107s-110.667 51 -171 66
s-120.833 22.5 -181.5 22.5c-46 0 -91.333 -4.33301 -136 -13s-87.5 -22 -128.5 -40s-79.333 -40.667 -115 -68s-67.5 -59.333 -95.5 -96c49.333 6 98.5 10.167 147.5 12.5s98.167 3.5 147.5 3.5c30.667 0 61.334 -0.166992 92.001 -0.5s61.334 -1.5 92.001 -3.5zM1536 1618
l-0.000976562 -582c-65.333 20.667 -135.833 40 -211.5 58s-155.167 33.667 -238.5 47s-169.666 23.833 -258.999 31.5s-180.666 11.5 -273.999 11.5c-66 0 -130.667 -2 -194 -6s-127 -10.333 -191 -19c16 61.333 42 119.833 78 175.5s81.167 104.5 135.5 146.5
s117.5 75.333 189.5 100s152 37 240 37c84.667 0 161.167 -9.5 229.5 -28.5s128 -42.5 179 -70.5s93.667 -57.833 128 -89.5s60.166 -60.5 77.499 -86.5c0 -2 -0.166992 1.66699 -0.5 11s-0.5 22 -0.5 38s-0.333008 34.333 -1 55s-1 41.5 -1 62.5s-0.166992 41 -0.5 60
s-0.5 35.167 -0.5 48.5h115zM626.996 520.001c0 22.667 -7.5 39.334 -22.5 50.001s-30.833 16 -47.5 16c-18.667 0 -35 -5.33301 -49 -16s-21 -27.334 -21 -50.001s7 -38.5 21 -47.5s30.333 -13.5 49 -13.5c8 0 16.167 1 24.5 3s15.833 5.5 22.5 10.5s12.167 11.333 16.5 19
s6.5 17.167 6.5 28.5zM130.996 569.001c0 63.333 12.501 119.334 37.501 168.001s57.833 89.334 98.5 122.001s87 57.334 139 74.001s105 25 159 25s106.5 -7.33301 157.5 -22s96 -37.167 135 -67.5s70.333 -68.833 94 -115.5s35.5 -102.334 35.5 -167.001v-475h434v827h115
v-934h-774v107h119v487c0 40.667 -8 76.5 -24 107.5s-38 56.667 -66 77s-61 35.666 -99 45.999s-79 15.5 -123 15.5c-40.667 0 -80.167 -5.83301 -118.5 -17.5s-72.333 -28.5 -102 -50.5s-53.5 -49 -71.5 -81s-27 -68.333 -27 -109v-439l237 238
c-7.33301 2.66699 -15.833 7.5 -25.5 14.5s-19 16 -28 27s-16.667 24.167 -23 39.5s-9.5 33.333 -9.5 54c0 49.333 15 88.333 45 117s69.667 43 119 43c23.333 0 44.666 -4.33301 63.999 -13s35.833 -20.334 49.5 -35.001s24.167 -31.667 31.5 -51s11 -39.666 11 -60.999
c0 -19.333 -2.16699 -36.333 -6.5 -51s-9.83301 -27.334 -16.5 -38.001s-13.5 -19.667 -20.5 -27l-18.5 -19l-23.5 -22.5l-46.5 -44.5l-62.5 -60.5l-71.5 -69.5l-92 -85.5l-101 -98.5h-131v565zM1729 1643v-55h24c18.667 0 28 8.66699 28 26c0 19.333 -9.33301 29 -28 29
h-24zM1739 1572h-10v-52h-21v139h45c16.667 0 29 -4.16699 37 -12.5s12 -19.166 12 -32.499c0 -14.667 -4.16699 -25.334 -12.5 -32.001s-17.833 -10 -28.5 -10l41 -52h-25zM1660 1588c0 -12.667 2.5 -24.667 7.5 -36s11.667 -21.166 20 -29.499s18.166 -15 29.499 -20
s23.333 -7.5 36 -7.5s24.667 2.5 36 7.5s21.166 11.667 29.499 20s15 18.166 20 29.499s7.5 23.333 7.5 36s-2.5 24.667 -7.5 36s-11.667 21.166 -20 29.499s-18.166 15 -29.499 20s-23.333 7.5 -36 7.5s-24.667 -2.5 -36 -7.5s-21.166 -11.667 -29.499 -20
s-15 -18.166 -20 -29.499s-7.5 -23.333 -7.5 -36zM1648 1588c0 14.667 2.66699 28.334 8 41.001s12.833 23.667 22.5 33s20.834 16.833 33.501 22.5s26.334 8.5 41.001 8.5s28.334 -2.83301 41.001 -8.5s23.667 -13.167 33 -22.5s16.833 -20.333 22.5 -33
s8.5 -26.334 8.5 -41.001s-2.83301 -28.334 -8.5 -41.001s-13.167 -23.834 -22.5 -33.501s-20.333 -17.167 -33 -22.5s-26.334 -8 -41.001 -8s-28.334 2.66699 -41.001 8s-23.834 12.833 -33.501 22.5s-17.167 20.834 -22.5 33.501s-8 26.334 -8 41.001z" />
    <glyph glyph-name="space" unicode=" " horiz-adv-x="1024" 
 />
    <glyph glyph-name="exclam" unicode="!" horiz-adv-x="1219" 
d="M610 610c52.667 0 102.166 -8.66895 148.499 -26.002s86.833 -41.333 121.5 -72s62 -67 82 -109s30 -87.333 30 -136c0 -47.333 -8.66699 -91.833 -26 -133.5s-42.5 -78 -75.5 -109s-73.167 -55.5 -120.5 -73.5s-100.666 -27 -159.999 -27
c-52.667 0 -102 8.83301 -148 26.5s-86 41.834 -120 72.501s-61 66.834 -81 108.501s-30.333 86.5 -31 134.5c-0.666992 48.667 9 94 29 136s47.333 78.5 82 109.5s75.167 55.167 121.5 72.5s95.5 26 147.5 26zM1004 2346l-145 -1577h-502l-143 1577h790z" />
    <glyph glyph-name="quotedbl" unicode="&#x22;" horiz-adv-x="1654" 
d="M747 2346l-52 -903h-476l-52 903h580zM1487 2346l-52 -903h-476l-52 903h580z" />
    <glyph glyph-name="numbersign" unicode="#" horiz-adv-x="2300" 
d="M1290 543h-426l-80 -543h-525l79 543h-232v424h295l59 405h-271v424h333l78 527h526l-78 -527h426l78 527h525l-78 -527h218v-424h-280l-59 -405h256v-424h-319l-79 -543h-526zM926 967h426l60 405h-426z" />
    <glyph glyph-name="dollar" unicode="$" horiz-adv-x="2114" 
d="M944 603c74 0 132.667 8.49707 176 25.4971s65 45.167 65 84.5c0 32.667 -24.333 62 -73 88s-124 54.667 -226 86c-118.667 36.667 -225.5 79.5 -320.5 128.5s-175.667 105.833 -242 170.5s-117.166 138.5 -152.499 221.5s-53 176.833 -53 281.5
c0 86.667 17.667 167.334 53 242.001s85.5 141 150.5 199s143.833 106.833 236.5 146.5s196.334 68.167 311.001 85.5l2 210h506l-2 -213c62.667 -11.333 122.5 -26.333 179.5 -45s110.833 -39.834 161.5 -63.5c50.667 -23.667 97.834 -49.334 141.501 -77
c43.667 -27.667 83.5 -56.167 119.5 -85.5l-253 -533c-38 30 -80.667 56.333 -128 79s-95.333 41.834 -144 57.501s-96 27.5 -142 35.5s-87 12 -123 12c-30.667 0 -60.167 -1.66699 -88.5 -5s-53.333 -8.83301 -75 -16.5s-39 -17.5 -52 -29.5s-19.5 -26.333 -19.5 -43
c0 -19.333 6.66699 -36.5 20 -51.5s33.833 -29.333 61.5 -43s62.5 -27.167 104.5 -40.5s91.667 -28 149 -44c61.333 -16.667 121.5 -37 180.5 -61s115 -52 168 -84s101.833 -68.5 146.5 -109.5s83.167 -87.333 115.5 -139s57.666 -108.834 75.999 -171.501
s27.5 -131.334 27.5 -206.001c0 -85.333 -13.833 -165.666 -41.5 -240.999s-68 -143.166 -121 -203.499s-118.333 -112.166 -196 -155.499s-166.5 -75.333 -266.5 -96l-3 -274h-506l3 261c-75.333 10 -150.333 24 -225 42s-145.334 39.167 -212.001 63.5
s-127.834 50.833 -183.501 79.5s-102.5 58.667 -140.5 90l260 554c38 -30 82.5 -58 133.5 -84s103.333 -48.5 157 -67.5s105.5 -33.833 155.5 -44.5s93 -16 129 -16z" />
    <glyph glyph-name="percent" unicode="%" horiz-adv-x="2817" 
d="M2700 503c0 -75.333 -14 -144.666 -42 -207.999s-66.833 -117.833 -116.5 -163.5s-109 -81.334 -178 -107.001s-144.5 -38.5 -226.5 -38.5s-157.333 13.167 -226 39.5s-127.834 62.5 -177.501 108.5s-88.5 100.5 -116.5 163.5s-42 131.5 -42 205.5s14 142.5 42 205.5
s66.833 117.667 116.5 164s108.834 82.5 177.501 108.5s144 39 226 39s157.5 -12.833 226.5 -38.5s128.333 -61.334 178 -107.001s88.5 -100.167 116.5 -163.5s42 -132.666 42 -207.999zM2414 2345l-1373 -2345h-581l1359 2345h595zM2004 503
c0 -26.667 4.16699 -50.333 12.5 -71s19 -38 32 -52s27.333 -24.667 43 -32s31.167 -11 46.5 -11c17.333 0 34.333 3.5 51 10.5s31.667 17.5 45 31.5s24 31.333 32 52s12 44.667 12 72c0 25.333 -4.16699 48 -12.5 68s-19 36.833 -32 50.5s-27.833 24.167 -44.5 31.5
s-33.667 11 -51 11c-15.333 0 -30.833 -3.66699 -46.5 -11s-30 -17.833 -43 -31.5s-23.667 -30.5 -32 -50.5s-12.5 -42.667 -12.5 -68zM1260 1821c0 -75.333 -14 -144.667 -42 -208s-66.833 -117.833 -116.5 -163.5s-109 -81.334 -178 -107.001s-144.5 -38.5 -226.5 -38.5
s-157.333 13.167 -226 39.5s-127.834 62.5 -177.501 108.5s-88.5 100.5 -116.5 163.5s-42 131.5 -42 205.5s14 142.5 42 205.5s66.833 117.667 116.5 164s108.834 82.5 177.501 108.5s144 39 226 39s157.5 -12.833 226.5 -38.5s128.333 -61.334 178 -107
c49.667 -45.667 88.5 -100.167 116.5 -163.5s42 -132.666 42 -207.999zM564 1821c0 -26.667 4.16699 -50.333 12.5 -71s19 -38 32 -52s27.333 -24.667 43 -32s31.167 -11 46.5 -11c17.333 0 34.333 3.5 51 10.5s31.667 17.5 45 31.5s24 31.333 32 52s12 44.667 12 72
c0 25.333 -4.16699 48 -12.5 68s-19 36.833 -32 50.5s-27.833 24.167 -44.5 31.5s-33.667 11 -51 11c-15.333 0 -30.833 -3.66699 -46.5 -11s-30 -17.833 -43 -31.5s-23.667 -30.5 -32 -50.5s-12.5 -42.667 -12.5 -68z" />
    <glyph glyph-name="ampersand" unicode="&#x26;" horiz-adv-x="2420" 
d="M1142 -26c-93.333 0 -183.668 7.66895 -271.001 23.002s-169.5 38 -246.5 68s-147.333 67.167 -211 111.5s-118.5 95.5 -164.5 153.5s-81.667 122.833 -107 194.5s-38 149.5 -38 233.5c0 52 7 103.333 21 154s35.833 100.5 65.5 149.5s67.167 96.333 112.5 142
s99.666 89.5 162.999 131.5c-32 38.667 -58.667 76.5 -80 113.5s-38.5 73.833 -51.5 110.5s-22.333 74 -28 112s-8.5 77.667 -8.5 119c0 77.333 16.667 149.833 50 217.5s80.833 126.834 142.5 177.5c61.667 50.667 136.667 90.5 225 119.5s187.5 43.5 297.5 43.5
s207.667 -14.5 293 -43.5s157.5 -67.667 216.5 -116s103.833 -103.833 134.5 -166.5s46 -127.334 46 -194.001c0 -222 -126.667 -413 -380 -573l461 -403c54.667 72.667 103.334 151 146.001 235l405 -346c-18.667 -40.667 -40 -81.334 -64 -122.001s-51.333 -81 -82 -121
l160 -140l-347 -398l-212 186c-91.333 -52.667 -190.666 -94.5 -297.999 -125.5s-224 -46.5 -350 -46.5zM1169 470.002c66.667 0 134.334 14.332 203.001 42.999l-515 451c-23.333 -26.667 -41.833 -55.167 -55.5 -85.5s-20.5 -64.5 -20.5 -102.5
c0 -37.333 8.33301 -74.166 25 -110.499s41.167 -69 73.5 -98s72.666 -52.5 120.999 -70.5s104.5 -27 168.5 -27zM872.998 1772c0 -36.667 8.16699 -70.6699 24.5 -102.003s39.833 -63.666 70.5 -96.999c60.667 31.333 104.834 63 132.501 95s41.5 69 41.5 111
c0 16.667 -3.16699 32.834 -9.5 48.501s-15.5 29.334 -27.5 41.001s-26.333 21 -43 28s-35.334 10.5 -56.001 10.5c-40 0 -72.167 -12 -96.5 -36s-36.5 -57 -36.5 -99z" />
    <glyph glyph-name="quotesingle" unicode="'" horiz-adv-x="914" 
d="M747 2346l-52 -903h-476l-52 903h580z" />
    <glyph glyph-name="parenleft" unicode="(" horiz-adv-x="1049" 
d="M673 1115c0 -140.667 10.001 -273.499 30.001 -398.499s47.5 -242.167 82.5 -351.5s76.5 -210.833 124.5 -304.5s100 -178.834 156 -255.501l-471 -288c-74.667 96 -141.834 201.333 -201.501 316s-110.5 238.5 -152.5 371.5s-74.167 275.333 -96.5 427
s-33.5 312.834 -33.5 483.501c0 162.667 9.83301 317.334 29.5 464.001s49.5 286.167 89.5 418.5s90.167 258.166 150.5 377.5c60.333 119.333 131.166 232.666 212.499 340l473 -288c-58.667 -81.333 -112.167 -169 -160.5 -263s-89.666 -195.333 -123.999 -304
s-61 -224.834 -80 -348.501s-28.5 -255.834 -28.5 -396.501z" />
    <glyph glyph-name="parenright" unicode=")" horiz-adv-x="1049" 
d="M376 1115c0 140.667 -9.5 272.832 -28.5 396.499s-45.667 239.834 -80 348.501s-75.666 210 -123.999 304s-101.833 181.667 -160.5 263l473 288c80.667 -107.333 151.167 -220.666 211.5 -340c60.333 -119.333 110.5 -245.166 150.5 -377.499s70 -271.833 90 -418.5
s30 -301.334 30 -464.001c0 -170.667 -11.167 -331.834 -33.5 -483.501s-54.5 -294 -96.5 -427s-92.833 -256.833 -152.5 -371.5s-126.834 -220 -201.501 -316l-471 288c56 76.667 108 161.834 156 255.501s89.5 195.167 124.5 304.5s62.5 226.5 82.5 351.5
s30 257.833 30 398.5z" />
    <glyph glyph-name="asterisk" unicode="*" horiz-adv-x="1538" 
d="M552 2369h435l-36 -397l377 164l119 -370l-412 -93l277 -314l-338 -246l-202 340l-202 -340l-338 246l276 313l-412 95l120 369l372 -162z" />
    <glyph glyph-name="plus" unicode="+" horiz-adv-x="2066" 
d="M706 598h-622v522h622v574h670v-574h627v-524h-627v-573h-670v575z" />
    <glyph glyph-name="comma" unicode="," horiz-adv-x="920" 
d="M842 287l-326 -880l-461 161l237 904z" />
    <glyph glyph-name="hyphen" unicode="-" horiz-adv-x="1329" 
d="M1241 1101v-464h-1150v464h1150z" />
    <glyph glyph-name="period" unicode="." horiz-adv-x="799" 
d="M399 517c36 0 69.6689 -6.66895 101.002 -20.002s58.833 -31.5 82.5 -54.5s42.334 -50.333 56.001 -82s20.5 -65.834 20.5 -102.501c0 -35.333 -6 -68.666 -18 -99.999s-29.167 -58.666 -51.5 -81.999s-49.5 -41.833 -81.5 -55.5s-68.333 -20.5 -109 -20.5
c-35.333 0 -68.5 6.66699 -99.5 20s-58 31.5 -81 54.5s-41.333 50.167 -55 81.5s-20.834 65.333 -21.501 102s5.83301 70.834 19.5 102.501s32.167 59 55.5 82s50.666 41.167 81.999 54.5s64.666 20 99.999 20z" />
    <glyph glyph-name="slash" unicode="/" horiz-adv-x="2202" 
d="M1614 2621h682l-1685 -2899h-685z" />
    <glyph glyph-name="zero" unicode="0" horiz-adv-x="2132" 
d="M1998 1161c0 -182 -23.1699 -346.332 -69.5029 -492.999s-110.5 -271.667 -192.5 -375s-179.667 -182.833 -293 -238.5s-237 -83.5 -371 -83.5s-257.667 27.833 -371 83.5s-211.166 135.167 -293.499 238.5s-146.666 228.333 -192.999 375s-69.5 311 -69.5 493
c0 121.333 10.5 235.166 31.5 341.499s51 203.833 90 292.5s86 167.667 141 237s116.833 128 185.5 176s143.334 84.667 224.001 110s165.667 38 255 38c134 0 257.667 -28 371 -84s211 -136 293 -240s146.167 -229.667 192.5 -377s69.5 -312 69.5 -494zM883.997 1163
c0 -183.333 16 -319.833 48 -409.5s79 -134.5 141 -134.5c62.667 0 108.5 44.833 137.5 134.5s43.5 226.167 43.5 409.5s-14.5 319.833 -43.5 409.5s-74.833 134.5 -137.5 134.5c-62 0 -109 -44.833 -141 -134.5s-48 -226.167 -48 -409.5z" />
    <glyph glyph-name="one" unicode="1" horiz-adv-x="2132" 
d="M781 0v1802h-582l251 544h1078v-2346h-747z" />
    <glyph glyph-name="two" unicode="2" horiz-adv-x="2132" 
d="M177 1553c0 68.667 10 135.999 30 201.999s48.5 128.667 85.5 188s82 114 135 164s112.833 93.333 179.5 130s139.334 65.167 218.001 85.5s162 30.5 250 30.5c140 0 265.667 -20.333 377 -61s205.833 -96.167 283.5 -166.5s137 -152.833 178 -247.5
s61.5 -196.334 61.5 -305.001c0 -98 -14.333 -192.167 -43 -282.5s-70.334 -171.166 -125.001 -242.499l-390 -507h572v-541h-1849l952 1221l66.5 92.5c19.667 28.333 36 55 49 80s23 49 30 72s10.5 45.5 10.5 67.5c0 30 -4.16699 56.333 -12.5 79
s-19.666 41.667 -33.999 57s-31.5 27 -51.5 35s-41.667 12 -65 12c-25.333 0 -48.333 -4.83301 -69 -14.5s-38.334 -22.167 -53.001 -37.5s-26 -32.666 -34 -51.999s-12 -39 -12 -59h-740z" />
    <glyph glyph-name="three" unicode="3" horiz-adv-x="2132" 
d="M894 1380c54 0.666992 99.8301 7.17285 137.497 19.5059s68.334 28.5 92.001 48.5s40.667 43.167 51 69.5s15.5 53.833 15.5 82.5c0 26.667 -3.33301 50 -10 70s-15.5 36.667 -26.5 50s-23.667 23.333 -38 30s-28.833 10 -43.5 10c-18.667 0 -36 -3.33301 -52 -10
s-29.667 -16.834 -41 -30.501s-20 -30.5 -26 -50.5s-8 -43.333 -6 -70h-755c-1.33301 69.333 7.66699 136.166 27 200.499s47.333 124.666 84 180.999s81.334 107.5 134.001 153.5s111.834 85.5 177.501 118.5s137.167 58.667 214.5 77s158.666 27.5 243.999 27.5
c86 0 167.333 -7.33301 244 -22s147.167 -35.667 211.5 -63s122.333 -60.333 174 -99s95.334 -82.167 131.001 -130.5s63.167 -100.833 82.5 -157.5s29 -116.667 29 -180c0 -122 -27.5 -222.833 -82.5 -302.5s-137.167 -140.834 -246.5 -183.501
c53.333 -15.333 102.833 -38.5 148.5 -69.5s85.167 -68.5 118.5 -112.5s59.5 -93.833 78.5 -149.5s28.5 -116.167 28.5 -181.5c0 -102 -22 -197.5 -66 -286.5s-106.833 -166.333 -188.5 -232s-180.167 -117.5 -295.5 -155.5s-244.333 -57 -387 -57
c-137.333 0 -260 18.167 -368 54.5s-200.667 87 -278 152s-138.5 142.667 -183.5 233s-72.5 189.833 -82.5 298.5h759c2 -27.333 8 -50.833 18 -70.5s22.667 -35.834 38 -48.501s32.666 -21.834 51.999 -27.501s39.666 -8.5 60.999 -8.5c26 0 49.333 4.83301 70 14.5
s38.334 23.334 53.001 41.001s25.834 38.667 33.501 63s11.5 51.166 11.5 80.499c0 30 -6.66699 60.167 -20 90.5s-33.833 57 -61.5 80s-63.167 40.5 -106.5 52.5s-95 15.333 -155 10v390z" />
    <glyph glyph-name="four" unicode="4" horiz-adv-x="2132" 
d="M2074 855v-520h-135v-335h-748v335h-1127v652l864 1359h1011v-1491h135zM1198 1632l-466 -777h466v777z" />
    <glyph glyph-name="five" unicode="5" horiz-adv-x="2132" 
d="M1146 1595c78 0 154.168 -8.6709 228.501 -26.0039s144.166 -42.333 209.499 -75s125.5 -72.334 180.5 -119.001s102.167 -99.167 141.5 -157.5s70.166 -122.166 92.499 -191.499s33.5 -142.666 33.5 -219.999c0 -74.667 -9.66699 -147.167 -29 -217.5
s-47.666 -136.333 -84.999 -198s-83.5 -118.167 -138.5 -169.5s-117.833 -95.333 -188.5 -132s-149.167 -65.167 -235.5 -85.5s-179.5 -30.5 -279.5 -30.5c-112 0 -217.333 11.167 -316 33.5s-188.667 54.5 -270 96.5s-152.666 93.333 -213.999 154
s-110.666 129.334 -147.999 206.001l623 308c14.667 -41.333 32.667 -76.833 54 -106.5s44.166 -54 68.499 -73s50 -33.167 77 -42.5s53.833 -14 80.5 -14c34.667 0 67 6.33301 97 19s56.167 30.5 78.5 53.5s40 50.667 53 83s19.5 67.833 19.5 106.5
c0 40 -6.5 76.833 -19.5 110.5s-31 62.5 -54 86.5s-50.5 42.667 -82.5 56s-67.333 20 -106 20c-24.667 0 -47.667 -2.66699 -69 -8s-41.666 -12.666 -60.999 -21.999s-38 -20.333 -56 -33s-36 -26.667 -54 -42l-594 225l333 1156h1439v-527h-896l-63 -242
c2 0 5.83301 1 11.5 3s14.167 4 25.5 6s26.166 3.83301 44.499 5.5s41.166 2.83398 68.499 3.50098z" />
    <glyph glyph-name="six" unicode="6" horiz-adv-x="2132" 
d="M871 797c0 -39.333 5.33398 -74.833 16.001 -106.5s25 -59 43 -82s38.833 -40.667 62.5 -53s48.5 -18.5 74.5 -18.5s50.5 6.16699 73.5 18.5s43.333 30 61 53s31.667 50.333 42 82s15.5 67.167 15.5 106.5c0 43.333 -5.16699 81.5 -15.5 114.5s-24.5 60.5 -42.5 82.5
s-38.667 38.5 -62 49.5s-48 16.5 -74 16.5s-50.667 -5.66699 -74 -17s-43.833 -28.166 -61.5 -50.499s-31.834 -49.833 -42.501 -82.5s-16 -70.334 -16 -113.001zM1272 1591c106.667 -19.333 205.166 -52.333 295.499 -99s168.5 -104.167 234.5 -172.5
s117.5 -146 154.5 -233s55.5 -180.5 55.5 -280.5c0 -74.667 -9.5 -147.167 -28.5 -217.5s-46.833 -136.333 -83.5 -198s-82 -118 -136 -169s-116.167 -94.833 -186.5 -131.5s-148.333 -65.167 -234 -85.5s-178.5 -30.5 -278.5 -30.5
c-97.333 0 -188.166 10.167 -272.499 30.5s-161.5 48.833 -231.5 85.5s-132.5 80.5 -187.5 131.5s-101.5 107.333 -139.5 169s-66.833 127.667 -86.5 198s-29.5 142.833 -29.5 217.5c0 66 6.33301 127.167 19 183.5s30.167 110 52.5 161s48.333 100.167 78 147.5
s61.5 95 95.5 143l644 905h801l-440 -631z" />
    <glyph glyph-name="seven" unicode="7" horiz-adv-x="2132" 
d="M73 1819v527h2023l-1062 -2346h-781l825 1819h-1005z" />
    <glyph glyph-name="eight" unicode="8" horiz-adv-x="2132" 
d="M176 684c0 71.333 9.16211 137 27.4951 197s43.5 113.5 75.5 160.5s69.333 87.333 112 121s88.667 59.834 138 78.501c-46.667 21.333 -87.167 48.833 -121.5 82.5s-62.833 71.167 -85.5 112.5s-39.667 85 -51 131s-17 92 -17 138c0 68 10.167 131.167 30.5 189.5
s48.666 111.5 84.999 159.5s79.833 90.5 130.5 127.5s106.5 68.167 167.5 93.5s126.167 44.5 195.5 57.5s140.666 19.5 213.999 19.5c112.667 0 218.334 -15.167 317.001 -45.5s184.834 -73.5 258.501 -129.5s131.834 -123.833 174.501 -203.5s64 -169.167 64 -268.5
c0 -46 -5.66699 -92 -17 -138s-28.333 -89.667 -51 -131s-51.167 -78.833 -85.5 -112.5s-74.833 -61.167 -121.5 -82.5c48.667 -18.667 94.5 -44.834 137.5 -78.501s80.5 -74 112.5 -121s57.167 -100.5 75.5 -160.5s27.5 -125.667 27.5 -197
c0 -65.333 -10 -128.166 -30 -188.499s-48.833 -116.833 -86.5 -169.5s-83.167 -100.5 -136.5 -143.5s-113.333 -79.833 -180 -110.5s-139.167 -54.5 -217.5 -71.5s-161.166 -25.5 -248.499 -25.5c-85.333 0 -166.666 8.5 -243.999 25.5s-149.166 40.833 -215.499 71.5
s-126.166 67.5 -179.499 110.5s-99 90.833 -137 143.5s-67.167 109.167 -87.5 169.5s-30.5 123.166 -30.5 188.499zM890.995 720c0 -30 5.16699 -56.334 15.5 -79.001s24.166 -41.667 41.499 -57s37.166 -26.833 59.499 -34.5s45.5 -11.5 69.5 -11.5s47.333 3.83301 70 11.5
s42.834 19.167 60.501 34.5s31.834 34.333 42.501 57s16 49 16 79c0 31.333 -5.33301 59 -16 83s-24.834 44 -42.501 60s-37.834 28.167 -60.501 36.5s-46 12.5 -70 12.5s-47.167 -4.16699 -69.5 -12.5s-42.166 -20.666 -59.499 -36.999s-31.166 -36.5 -41.499 -60.5
s-15.5 -51.333 -15.5 -82zM938.995 1661c0 -48 12.8311 -84.667 38.498 -110s58.5 -38 98.5 -38s73.5 12.667 100.5 38s40.5 62 40.5 110c0 24.667 -3.66699 46.667 -11 66s-17.166 35.666 -29.499 48.999s-27.166 23.5 -44.499 30.5s-36 10.5 -56 10.5
c-40 0 -72.833 -13.667 -98.5 -41s-38.5 -65.666 -38.5 -114.999z" />
    <glyph glyph-name="nine" unicode="9" horiz-adv-x="2132" 
d="M1257 1548c0 38.667 -5.33398 74 -16.001 106s-25 59.5 -43 82.5s-38.833 40.667 -62.5 53s-48.5 18.5 -74.5 18.5s-50.5 -6.16699 -73.5 -18.5s-43.333 -30 -61 -53s-31.667 -50.5 -42 -82.5s-15.5 -67.333 -15.5 -106c0 -43.333 5.16699 -81.5 15.5 -114.5
s24.5 -60.5 42.5 -82.5s38.667 -38.5 62 -49.5s48 -16.5 74 -16.5s50.667 5.66699 74 17s43.833 28.166 61.5 50.499s31.834 49.833 42.501 82.5s16 70.334 16 113.001zM835.999 754c-106.667 19.333 -204.169 52.333 -292.502 99s-164.166 104.167 -227.499 172.5
s-112.5 146 -147.5 233s-52.5 180.5 -52.5 280.5c0 74.667 9.5 147.167 28.5 217.5s46.833 136.333 83.5 198s82 118 136 169s116.167 94.833 186.5 131.5s148.333 65.167 234 85.5s178.5 30.5 278.5 30.5c96.667 0 187.334 -10.167 272.001 -30.5s162 -48.833 232 -85.5
s132.5 -80.5 187.5 -131.5s101.5 -107.333 139.5 -169s66.833 -127.667 86.5 -198s29.5 -142.833 29.5 -217.5c0 -44 -3.83301 -88 -11.5 -132s-19.834 -88.333 -36.501 -133s-37.667 -90.167 -63 -136.5s-55.666 -94.5 -90.999 -144.5l-707 -994h-801l440 631z" />
    <glyph glyph-name="colon" unicode=":" horiz-adv-x="881" 
d="M439 1586c36 0 69.6689 -6.66895 101.002 -20.002s58.833 -31.5 82.5 -54.5s42.334 -50.333 56.001 -82s20.5 -65.834 20.5 -102.501c0 -35.333 -6 -68.666 -18 -99.999s-29.167 -58.666 -51.5 -81.999s-49.5 -41.833 -81.5 -55.5s-68.333 -20.5 -109 -20.5
c-35.333 0 -68.5 6.66699 -99.5 20s-58 31.5 -81 54.5s-41.333 50.167 -55 81.5s-20.834 65.333 -21.501 102s5.83301 70.834 19.5 102.501s32.167 59 55.5 82s50.666 41.167 81.999 54.5s64.666 20 99.999 20zM439.002 516.998c36 0 69.6689 -6.66895 101.002 -20.002
s58.833 -31.5 82.5 -54.5s42.334 -50.333 56.001 -82s20.5 -65.834 20.5 -102.501c0 -35.333 -6 -68.666 -18 -99.999s-29.167 -58.666 -51.5 -81.999s-49.5 -41.833 -81.5 -55.5s-68.333 -20.5 -109 -20.5c-35.333 0 -68.5 6.66699 -99.5 20s-58 31.5 -81 54.5
s-41.333 50.167 -55 81.5s-20.834 65.333 -21.501 102s5.83301 70.834 19.5 102.501s32.167 59 55.5 82s50.666 41.167 81.999 54.5s64.666 20 99.999 20z" />
    <glyph glyph-name="semicolon" unicode=";" horiz-adv-x="881" 
d="M771 335l-305 -813l-396 138l225 840zM439 1586c36 0 69.6689 -6.66895 101.002 -20.002s58.833 -31.5 82.5 -54.5s42.334 -50.333 56.001 -82s20.5 -65.834 20.5 -102.501c0 -35.333 -6 -68.666 -18 -99.999s-29.167 -58.666 -51.5 -81.999s-49.5 -41.833 -81.5 -55.5
s-68.333 -20.5 -109 -20.5c-35.333 0 -68.5 6.66699 -99.5 20s-58 31.5 -81 54.5s-41.333 50.167 -55 81.5s-20.834 65.333 -21.501 102s5.83301 70.834 19.5 102.501s32.167 59 55.5 82s50.666 41.167 81.999 54.5s64.666 20 99.999 20z" />
    <glyph glyph-name="less" unicode="&#x3c;" horiz-adv-x="2055" 
d="M1912 559v-578l-1761 830v328l1761 788v-572l-822 -386z" />
    <glyph glyph-name="equal" unicode="=" horiz-adv-x="2041" 
d="M1898 885v-503h-1790v503h1790zM1898 1565v-503h-1790v503h1790z" />
    <glyph glyph-name="greater" unicode="&#x3e;" horiz-adv-x="2054" 
d="M972 969l-822 386v572l1761 -788v-328l-1761 -830v578z" />
    <glyph glyph-name="question" unicode="?" horiz-adv-x="1784" 
d="M117 1677c0 100 19.668 191.5 59.001 274.5s93.5 154 162.5 213s150.333 104.833 244 137.5s194.834 49 303.501 49c116.667 0 222.667 -17.833 318 -53.5s176.833 -84.834 244.5 -147.501s120 -136.667 157 -222s55.5 -177.666 55.5 -276.999
c0 -78 -10 -149.667 -30 -215s-48.333 -124 -85 -176s-80.334 -97.167 -131.001 -135.5s-106.334 -69.166 -167.001 -92.499v-244h-705v443c0.666992 48 9.5 90 26.5 126s39.833 66.167 68.5 90.5s62.167 42.5 100.5 54.5s79.5 18 123.5 18c36.667 0 64.667 13.667 84 41
s29 61.666 29 102.999s-10.167 73.333 -30.5 96s-46.5 34 -78.5 34s-57.5 -10 -76.5 -30s-28.5 -49 -28.5 -87h-644zM858.001 621c52.667 0 102.166 -8.66895 148.499 -26.002s86.833 -41.333 121.5 -72s62 -67 82 -109s30 -87.333 30 -136
c0 -47.333 -8.66699 -91.833 -26 -133.5s-42.5 -78 -75.5 -109s-73.167 -55.5 -120.5 -73.5s-100.666 -27 -159.999 -27c-52.667 0 -102 8.83301 -148 26.5s-86 41.834 -120 72.501s-61 66.834 -81 108.501s-30.333 86.5 -31 134.5c-0.666992 48.667 9 94 29 136
s47.333 78.5 82 109.5s75.167 55.167 121.5 72.5s95.5 26 147.5 26z" />
    <glyph glyph-name="at" unicode="@" horiz-adv-x="2739" 
d="M1951 606c44.667 26.667 86.335 60.8408 125.002 102.508s72.167 89 100.5 142s50.5 111.167 66.5 174.5s24 130.666 24 201.999c0 120 -19.5 230.833 -58.5 332.5s-95.5 189.5 -169.5 263.5s-164.5 131.667 -271.5 173s-228.833 62 -365.5 62
c-86.667 0 -169.167 -11.333 -247.5 -34s-151.166 -54 -218.499 -94s-128.166 -87.833 -182.499 -143.5s-100.666 -116.334 -138.999 -182.001s-68 -135.5 -89 -209.5s-31.5 -149.667 -31.5 -227c0 -86.667 10.5 -168.834 31.5 -246.501s50.667 -149.5 89 -215.5
s84.166 -125.5 137.499 -178.5s112.166 -98 176.499 -135s133.166 -65.5 206.499 -85.5s149.333 -30 228 -30c15.333 0 30.166 0.5 44.499 1.5s29.166 2.16699 44.499 3.5l43 -304c-23.333 -2.66699 -47.166 -4.66699 -71.499 -6s-48.833 -2 -73.5 -2
c-110 0 -216 13.333 -318 40s-197.333 65 -286 115s-169.667 110.667 -243 182s-136 151.333 -188 240s-92.333 185 -121 289s-43 214 -43 330c0 113.333 14.667 221.666 44 324.999s71 199.333 125 288s118.667 169 194 241s159.166 133.333 251.499 184
s191.666 89.667 297.999 117s217.166 41 332.499 41c123.333 0 238.333 -13.833 345 -41.5s204.167 -66.334 292.5 -116c88.333 -49.667 166.833 -109.167 235.5 -178.5s126.5 -146 173.5 -230s82.833 -174 107.5 -270s37 -195.667 37 -299c0 -93.333 -11.667 -182 -35 -266
s-55.666 -162 -97 -234c-41.333 -72 -90.5 -137 -147.5 -195s-119.333 -107.667 -187 -149s-139.5 -73.5 -215.5 -96.5s-153.667 -35.833 -233 -38.5h-71v347c-16 -18 -36.833 -33.833 -62.5 -47.5s-53.667 -25.167 -84 -34.5s-61.5 -16.5 -93.5 -21.5
s-62.667 -7.5 -92 -7.5c-84.667 0 -163 18.333 -235 55s-134.167 86.167 -186.5 148.5s-93.166 134.666 -122.499 216.999s-44 168.833 -44 259.5s15 175.667 45 255s71.167 148.666 123.5 207.999s113.833 106.166 184.5 140.499s147 51.5 229 51.5
c34.667 0 70 -4.16699 106 -12.5s69.667 -19.333 101 -33s59.333 -29.334 84 -47.001s43.334 -36.167 56.001 -55.5v137h341v-1202zM1356 1399.01c-36 0 -68.6631 -6.33203 -97.9961 -18.999s-54.666 -30.167 -75.999 -52.5s-37.833 -48.333 -49.5 -78
s-17.5 -61.5 -17.5 -95.5c0 -35.333 5.66699 -68.333 17 -99s27.666 -57.167 48.999 -79.5s47.166 -40 77.499 -53s64.166 -19.5 101.499 -19.5c39.333 0 74.166 6.5 104.499 19.5s55.833 31 76.5 54s36.334 50.167 47.001 81.5s16 65.666 16 102.999
c0 36 -5.83301 68.667 -17.5 98s-28.334 54.333 -50.001 75s-47.834 36.667 -78.501 48s-64.667 17 -102 17z" />
    <glyph glyph-name="A" unicode="A" horiz-adv-x="2311" 
d="M1281 2346l1000 -2346h-816l-74 243h-471l-74 -243h-816l999 2346h252zM1026 593l259 0.000976562l-73 242c-4 12 -8 26.667 -12 44l-12.5 55c-4.33301 19.333 -8.33301 38.5 -12 57.5l-10 52.5l-7.5 39.5c-2 10.333 -3 16.166 -3 17.499c0 -1.33301 -1 -7 -3 -17
s-4.33301 -22.833 -7 -38.5s-5.83398 -33.167 -9.50098 -52.5l-11.5 -58c-4 -19.333 -8.16699 -37.833 -12.5 -55.5s-8.16602 -32.5 -11.499 -44.5z" />
    <glyph glyph-name="B" unicode="B" horiz-adv-x="2180" 
d="M2016 1688c0 -106.667 -23.501 -195.502 -70.501 -266.502s-112.167 -126.833 -195.5 -167.5c58.667 -17.333 110.667 -43.666 156 -78.999s83.333 -77.166 114 -125.499s54 -101.5 70 -159.5s24 -118.333 24 -181c0 -93.333 -18.167 -182.833 -54.5 -268.5
s-91.333 -161.167 -165 -226.5s-166 -117.333 -277 -156s-241.167 -58 -390.5 -58h-1064v2346h1004c137.333 0 258.833 -17.167 364.5 -51.5s194.334 -81.333 266.001 -141s126 -129.5 163 -209.5s55.5 -165.333 55.5 -256zM966.999 483.998h170.999
c32.667 0 63.334 5.33301 92.001 16s53.5 26.334 74.5 47.001s37.5 45.834 49.5 75.501s18 63.5 18 101.5c0 40.667 -6.66699 75.667 -20 105s-31.333 53.666 -54 72.999s-48.667 33.666 -78 42.999s-60 14 -92 14h-161v-475zM1080 1426c26.667 0 52.168 4.66699 76.501 14
s45.666 23.166 63.999 41.499s32.833 41 43.5 68s16 57.833 16 92.5c0 30 -5 57.833 -15 83.5s-24 47.834 -42 66.501s-39.5 33.167 -64.5 43.5s-52.5 15.5 -82.5 15.5h-109v-425h113z" />
    <glyph glyph-name="C" unicode="C" horiz-adv-x="2424" 
d="M1433 559c37.333 0.666992 76.6621 5.5 117.995 14.5s82.666 24 123.999 45s81.833 49 121.5 84s77.167 79.167 112.5 132.5l458 -503c-56.667 -55.333 -120.167 -105.166 -190.5 -149.499s-146 -82.166 -227 -113.499s-166.333 -55.5 -256 -72.5
s-182.5 -25.167 -278.5 -24.5c-125.333 0.666992 -245.166 14.167 -359.499 40.5s-220.833 64.166 -319.5 113.499s-188.167 109.333 -268.5 180s-148.833 150.334 -205.5 239.001s-100.5 185.5 -131.5 290.5s-46.5 216.833 -46.5 335.5
c0 113.333 15.333 221.666 46 324.999s74.334 199.166 131.001 287.499s125 168.5 205 240.5s169.333 133.333 268 184s205.334 90 320.001 118s235 42.333 361 43c96 0.666992 189 -7.5 279 -24.5s175.333 -41.167 256 -72.5s156.167 -69.166 226.5 -113.499
s133.833 -93.833 190.5 -148.5l-458 -503c-40 53.333 -80.667 97.166 -122 131.499s-82.666 61.5 -123.999 81.5s-82.166 34 -122.499 42s-79.5 12.333 -117.5 13c-79.333 1.33301 -152 -13.667 -218 -45s-122.833 -74.5 -170.5 -129.5s-84.667 -119.833 -111 -194.5
s-39.5 -154.667 -39.5 -240c0 -96 14.833 -181.833 44.5 -257.5s69.834 -139.5 120.501 -191.5s109 -91.5 175 -118.5s135.667 -40.167 209 -39.5z" />
    <glyph glyph-name="D" unicode="D" horiz-adv-x="2368" 
d="M1501 1173c0 112 -13.1689 206.668 -39.502 284.001s-63.166 140.166 -110.499 188.499s-104.166 83.333 -170.499 105s-139.5 33.167 -219.5 34.5v-1228c81.333 1.33301 155.333 14 222 38s123.5 61 170.5 111s83.333 113.5 109 190.5s38.5 169.167 38.5 276.5z
M162.998 0.000976562l0.000976562 2346h907c142 0 270.833 -13.667 386.5 -41s218.667 -66 309 -116s168.666 -110.167 234.999 -180.5s121 -149 164 -236s75 -181 96 -282s31.5 -206.833 31.5 -317.5c0 -107.333 -10.667 -211 -32 -311s-54 -193.5 -98 -280.5
s-99.5 -166.167 -166.5 -237.5s-146.167 -132.5 -237.5 -183.5s-195 -90.5 -311 -118.5s-245 -42 -387 -42h-897z" />
    <glyph glyph-name="E" unicode="E" horiz-adv-x="1798" 
d="M962 932v-381h742v-551h-1541v2346h1516v-553h-717v-342h653v-519h-653z" />
    <glyph glyph-name="F" unicode="F" horiz-adv-x="1728" 
d="M163 0v2346h1477v-553h-677v-422h613v-519h-613l-1 -852h-799z" />
    <glyph glyph-name="G" unicode="G" horiz-adv-x="2827" 
d="M1412 1406l1306 0.000976562c6.66699 -33.333 12.5 -69.333 17.5 -108s7.5 -81 7.5 -127c0 -114.667 -14 -224 -42 -328s-68.5 -200.333 -121.5 -289s-118.167 -168.834 -195.5 -240.501s-165.166 -132.667 -263.499 -183s-206.5 -89.333 -324.5 -117
s-244.667 -41.5 -380 -41.5c-124 -0.666992 -243 12.333 -357 39s-220.167 64.834 -318.5 114.501s-187.833 110 -268.5 181s-149.5 151 -206.5 240s-101.167 186 -132.5 291s-47 216.167 -47 333.5c0 112.667 15.333 220.167 46 322.5s74.167 197.5 130.5 285.5
s124.5 168 204.5 240s169.333 133.5 268 184.5s205.334 90.833 320.001 119.5s235 44 361 46c96 -0.666992 189 -9.5 279 -26.5s175.5 -41 256.5 -72s156.5 -68.5 226.5 -112.5s133.333 -93.333 190 -148l-514 -504c-22 40 -49.833 74.333 -83.5 103
s-70.334 52.167 -110.001 70.5s-80.334 32 -122.001 41s-81.5 13.833 -119.5 14.5c-78 1.33301 -149.667 -13.334 -215 -44.001s-121.5 -72.334 -168.5 -125.001s-83.5 -113.5 -109.5 -182.5s-39 -141.5 -39 -217.5c0 -87.333 13.667 -166 41 -236
s64.666 -129.667 111.999 -179s103.333 -87.166 168 -113.499s134 -39.5 208 -39.5c63.333 0 120.833 7.16699 172.5 21.5s97.5 34.333 137.5 60s73.667 56 101 91s48.666 73.5 63.999 115.5h-479v520z" />
    <glyph glyph-name="H" unicode="H" horiz-adv-x="2470" 
d="M1508 912h-546v-912h-799v2346h799v-917h546v917h799v-2346h-799v912z" />
    <glyph glyph-name="I" unicode="I" horiz-adv-x="1185" 
d="M992 0h-799v2346h799v-2346z" />
    <glyph glyph-name="J" unicode="J" horiz-adv-x="1185" 
d="M992 123c0 -121.333 -19.5 -230.669 -58.5 -328.002s-95 -180.166 -168 -248.499s-161.5 -120.833 -265.5 -157.5s-221.333 -55 -352 -55c-74.667 0 -143.334 6.83301 -206.001 20.5s-119.5 32.167 -170.5 55.5s-96.667 50.5 -137 81.5s-75.5 64.167 -105.5 99.5l331 328
c12.667 -20 26.5 -36 41.5 -48s30.333 -21 46 -27s31.334 -10 47.001 -12s30.834 -3 45.501 -3c17.333 0 35.166 4 53.499 12s34.833 19.833 49.5 35.5s26.667 34.834 36 57.501s14 49 14 79v2333h799v-2223z" />
    <glyph glyph-name="K" unicode="K" horiz-adv-x="2409" 
d="M962 0h-799v2346h799v-595l432 595h968l-957 -1127l985 -1219h-1002l-426 614v-614z" />
    <glyph glyph-name="L" unicode="L" horiz-adv-x="1741" 
d="M972 497h681v-497h-1480v2346h799v-1849z" />
    <glyph glyph-name="M" unicode="M" horiz-adv-x="3051" 
d="M1387 -1l-438.002 723.999c-0.666992 -24.667 -2 -50.667 -4 -78c-1.33301 -23.333 -3.66602 -50.166 -6.99902 -80.499s-8 -62.166 -14 -95.499l-83 -469h-823l484 2346h259l600 -1019c23.333 -40 44.833 -79.333 64.5 -118s36.5 -73.667 50.5 -105
c16.667 -36.667 31.334 -71.334 44.001 -104.001h3c12.667 32 27.334 66.333 44.001 103c14 31.333 30.667 66.5 50 105.5s40.666 78.5 63.999 118.5l596 1019h260l486 -2346h-824l-81 467c-6 32.667 -10.667 64.5 -14 95.5s-5.66602 58.167 -7 81.5
c-2 27.333 -3.33301 53.333 -4 78l-436 -722z" />
    <glyph glyph-name="N" unicode="N" horiz-adv-x="2570" 
d="M513 2346l882.003 -821.001c23.333 -20 47.666 -43.667 72.999 -71s48.666 -53.666 69.999 -78.999l75 -90c-2 12.667 -3.83301 27.5 -5.5 44.5s-3 35.5 -4 55.5s-1.83301 41 -2.5 63s-1 44 -1 66v832h797v-2346h-390l-788 793l-84 78.5l-84 83.5l-91 94
c3.33301 -29.333 6.16602 -61.5 8.49902 -96.5s3.5 -79.5 3.5 -133.5v-819h-799v2346h340z" />
    <glyph glyph-name="O" unicode="O" horiz-adv-x="2827" 
d="M1414 2369c125.333 0 245.166 -14.1689 359.499 -42.502s220.666 -68.333 318.999 -120s187.5 -113.834 267.5 -186.501s148.167 -153.334 204.5 -242.001s99.833 -184.167 130.5 -286.5s46 -209.166 46 -320.499c0 -117.333 -15.667 -228.333 -47 -333
s-75.5 -201.5 -132.5 -290.5s-125.667 -169 -206 -240s-169.666 -131.333 -267.999 -181s-204.333 -88 -318 -115s-232.167 -40.5 -355.5 -40.5c-124 0 -243 13.333 -357 40s-220.167 64.834 -318.5 114.501s-187.833 110 -268.5 181s-149.5 151 -206.5 240
s-101.167 186 -132.5 291s-47 216.167 -47 333.5c0 111.333 15.333 218.333 46 321s74.334 198.334 131.001 287.001s125 169.334 205 242.001s169.333 134.834 268 186.5c98.667 51.667 205.167 91.5 319.5 119.5s234.5 42 360.5 42zM1414 569.998
c70 0.666992 136.001 14.001 198.001 40.001s116 64.167 162 114.5s82.5 112.5 109.5 186.5s40.5 159.333 40.5 256c0 83.333 -12.667 161 -38 233s-60.833 134.667 -106.5 188s-99.834 95.333 -162.501 126s-131 46.667 -205 48c-75.333 0.666992 -144.333 -14 -207 -44
s-116.667 -71.667 -162 -125s-80.5 -116.5 -105.5 -189.5s-37.5 -151.833 -37.5 -236.5c0 -96.667 13.667 -182.334 41 -257.001s64.333 -137.167 111 -187.5s101.167 -88.5 163.5 -114.5s128.5 -38.667 198.5 -38z" />
    <glyph glyph-name="P" unicode="P" horiz-adv-x="2113" 
d="M2040 1528c0 -80 -10.332 -155.835 -30.999 -227.502s-50.334 -138 -89.001 -199s-85.167 -115.833 -139.5 -164.5s-115 -90.167 -182 -124.5s-139.833 -60.666 -218.5 -78.999s-161 -27.833 -247 -28.5h-156v-704h-804v2345h972c152 0 284.167 -19.833 396.5 -59.5
s205.333 -95.5 279 -167.5s128.667 -158.167 165 -258.5s54.5 -211.166 54.5 -332.499zM976.001 1257l57 -0.000976562c43.333 0.666992 82 8 116 22s62.5 33.167 85.5 57.5s40.5 52.833 52.5 85.5s18 68.334 18 107.001c0 82 -23.5 146 -70.5 192s-114.5 69 -202.5 69h-56
v-533z" />
    <glyph glyph-name="Q" unicode="Q" horiz-adv-x="2827" 
d="M1414 2369c125.333 0 245.167 -14.1689 359.5 -42.502s220.666 -68.333 318.999 -120s187.5 -113.834 267.5 -186.501s148.167 -153.334 204.5 -242.001s99.833 -184.167 130.5 -286.5s46 -209.166 46 -320.499c0 -83.333 -8 -163.666 -24 -240.999s-39 -151 -69 -221
s-66.667 -135.833 -110 -197.5s-92.333 -118.834 -147 -171.501l317 -340h-740l-51 54c-78 -27.333 -158.833 -48 -242.5 -62s-170.5 -21 -260.5 -21c-124 0 -243 13.333 -357 40s-220.167 64.834 -318.5 114.501s-187.833 110 -268.5 181s-149.5 151 -206.5 240
s-101.167 186 -132.5 291s-47 216.167 -47 333.5c0 111.333 15.333 218.333 46 321s74.334 198.334 131.001 287.001s125 169.334 205 242.001s169.333 134.834 268 186.5c98.667 51.667 205.167 91.5 319.5 119.5s234.5 42 360.5 42zM1430 569.998l-425.999 453.002h752
l121 -130c15.333 39.333 27 81.666 35 126.999s12 94.333 12 147c0 83.333 -12.667 161 -38 233s-60.833 134.667 -106.5 188s-99.834 95.333 -162.501 126s-131 46.667 -205 48c-75.333 0.666992 -144.333 -14 -207 -44s-116.667 -71.667 -162 -125
s-80.5 -116.5 -105.5 -189.5s-37.5 -151.833 -37.5 -236.5c0 -96.667 13.667 -182.334 41 -257.001s64.333 -137.167 111 -187.5s101.167 -88.5 163.5 -114.5s128.5 -38.667 198.5 -38h16z" />
    <glyph glyph-name="R" unicode="R" horiz-adv-x="2120" 
d="M2103 0l-841.001 0.998047l-168 314c-10 16.667 -20.667 37.834 -32 63.501s-22.333 52.334 -33 80.001l-30 81c-9.33301 26.333 -16.333 48.833 -21 67.5l-18 -1v-605h-787v2345h972c152 0 284.167 -19.833 396.5 -59.5s205.333 -95.5 279 -167.5
s128.667 -158.167 165 -258.5s54.5 -211.166 54.5 -332.499c0 -78 -9.83301 -151.833 -29.5 -221.5s-47.5 -134.167 -83.5 -193.5s-79.667 -113.333 -131 -162s-108.666 -90.334 -171.999 -125.001zM958.999 1257l74 -0.000976562c43.333 0.666992 82 8 116 22
s62.5 33.167 85.5 57.5s40.5 52.833 52.5 85.5s18 68.334 18 107.001c0 82 -23.5 146 -70.5 192s-114.5 69 -202.5 69h-73v-533z" />
    <glyph glyph-name="S" unicode="S" horiz-adv-x="2163" 
d="M964 603c74 0 132.671 8.50195 176.004 25.502s65 45.167 65 84.5c0 32.667 -24.333 62 -73 88s-124 54.667 -226 86c-118.667 36.667 -225.5 79.5 -320.5 128.5s-175.667 105.833 -242 170.5s-117.166 138.5 -152.499 221.5s-53 176.833 -53 281.5
c0 102.667 24.333 196.334 73 281.001s117.167 157.5 205.5 218.5s194.666 108.333 318.999 142s262.166 50.5 413.499 50.5c91.333 0 178 -8 260 -24s158.667 -37.5 230 -64.5s137 -58.167 197 -93.5s113.667 -72.333 161 -111l-253 -533c-38 30 -80.667 56.333 -128 79
s-95.333 41.834 -144 57.501s-96 27.5 -142 35.5s-87 12 -123 12c-30.667 0 -60.167 -1.66699 -88.5 -5s-53.333 -8.83301 -75 -16.5s-39 -17.5 -52 -29.5s-19.5 -26.333 -19.5 -43c0 -19.333 6.66699 -36.5 20 -51.5s33.833 -29.333 61.5 -43s62.5 -27.167 104.5 -40.5
s91.667 -28 149 -44c61.333 -16.667 121.5 -37 180.5 -61s115 -52 168 -84s101.833 -68.5 146.5 -109.5s83.167 -87.333 115.5 -139s57.666 -108.834 75.999 -171.501s27.5 -131.334 27.5 -206.001c0 -104 -20.167 -200.167 -60.5 -288.5s-99.333 -164.833 -177 -229.5
s-172.834 -115.334 -285.501 -152.001s-241.334 -55 -386.001 -55c-60 0 -121.5 3.66699 -184.5 11s-125.667 17.5 -188 30.5s-123.333 28.5 -183 46.5s-115.834 37.667 -168.501 59s-101.167 44.166 -145.5 68.499s-82.166 49.5 -113.499 75.5l260 554
c38 -30 82.5 -58 133.5 -84s103.333 -48.5 157 -67.5s105.5 -33.833 155.5 -44.5s93 -16 129 -16z" />
    <glyph glyph-name="T" unicode="T" horiz-adv-x="1976" 
d="M1887 2346v-581h-504v-1765h-798v1765h-497v581h1799z" />
    <glyph glyph-name="U" unicode="U" horiz-adv-x="2348" 
d="M1174 527c34 0 64.335 6.16699 91.002 18.5s49 29.666 67 51.999s31.667 49.5 41 81.5s14 67.667 14 107v1560h798v-1497c0 -76.667 -9.33301 -151.667 -28 -225s-46.834 -142.5 -84.501 -207.5s-84.5 -124.833 -140.5 -179.5s-121.5 -101.834 -196.5 -141.501
s-159.333 -70.5 -253 -92.5s-196.5 -33 -308.5 -33s-214.833 11 -308.5 33s-178 52.833 -253 92.5s-140.5 86.834 -196.5 141.501s-102.833 114.5 -140.5 179.5s-65.834 134.167 -84.501 207.5s-28 148.333 -28 225v1497h799v-1560c0 -39.333 4.83301 -75 14.5 -107
s23.667 -59.167 42 -81.5s40.5 -39.666 66.5 -51.999s55.667 -18.5 89 -18.5z" />
    <glyph glyph-name="V" unicode="V" horiz-adv-x="2287" 
d="M1091 1551c8.66699 -28 16.5 -59.501 23.5 -94.501s12.667 -67.833 17 -98.5s7.83301 -56.834 10.5 -78.501s4 -33.167 4 -34.5c0 2 1.33301 13.833 4 35.5s6.5 47.834 11.5 78.501s10.833 63.334 17.5 98.001s14.667 66 24 94l251 795h816l-1000 -2346h-252l-999 2346
h816z" />
    <glyph glyph-name="W" unicode="W" horiz-adv-x="3565" 
d="M1922 2344l370 -620c22.667 -38 44.167 -76.833 64.5 -116.5s38.166 -76.167 53.5 -109.5l51 -114c6.66699 39.333 14 80 22 122l25.5 120c9.66699 44 20.834 87 33.5 129l171 591h824l-791 -2346h-255l-587 1040c-14 24.667 -28.167 51 -42.5 79l-39.5 78.5l-29.5 61.5
c-7.66699 16.667 -11.834 26 -12.501 28c-1.33301 -2 -5.83301 -11.333 -13.5 -28l-29.5 -61.5l-39.5 -79l-41.5 -78.5l-587 -1040h-254l-791 2346h824l172 -591c12 -41.333 23 -83.5 33 -126.5s18.5 -82.333 25.5 -118s12.5 -65.167 16.5 -88.5s6 -36 6 -38
c0.666992 2 5.83398 14 15.501 36l37.5 82l53 108c20 39.333 41 77.333 63 114l368 620h284z" />
    <glyph glyph-name="X" unicode="X" horiz-adv-x="2422" 
d="M1634 1165l760 -1165h-848l-337 572l-169.5 -287l-168.5 -285h-848l761 1165l-761 1181h848l338 -572l169 287l168 285h848z" />
    <glyph glyph-name="Y" unicode="Y" horiz-adv-x="2319" 
d="M1458 2346l832.001 0.000976562l-734 -1421v-925h-799v925l-734 1421h832l223 -504c8.66699 -18.667 17.667 -40.834 27 -66.501s17.666 -50.167 24.999 -73.5l26 -86l26 85c7.33301 23.333 15.5 48 24.5 74s18.167 48.333 27.5 67z" />
    <glyph glyph-name="Z" unicode="Z" horiz-adv-x="2287" 
d="M2193 0h-2161l1072 1791h-1004l-1 555h2164l-1076 -1790h1006v-556z" />
    <glyph glyph-name="bracketleft" unicode="[" horiz-adv-x="1175" 
d="M820 -146h267v-418h-944v3116h944v-416h-267v-2282z" />
    <glyph glyph-name="backslash" unicode="\" horiz-adv-x="2049" 
d="M2043 0h-662l-1380 2626h662z" />
    <glyph glyph-name="bracketright" unicode="]" horiz-adv-x="1175" 
d="M355 2136h-267v416h944v-3116h-944v418h267v2282z" />
    <glyph glyph-name="asciicircum" unicode="^" horiz-adv-x="2126" 
d="M1268 971l-202 380l-101.5 -191l-99.5 -189h-778l980 1850l978 -1850h-777z" />
    <glyph glyph-name="underscore" unicode="_" horiz-adv-x="1758" 
d="M0 -486v280h1758v-280h-1758z" />
    <glyph glyph-name="grave" unicode="`" horiz-adv-x="1163" 
d="M532 2609l555 -774l-380 -319l-613 713z" />
    <glyph glyph-name="a" unicode="a" horiz-adv-x="2151" 
d="M1053 576c33.333 0 63.8311 6.16699 91.498 18.5s51.334 29.666 71.001 51.999s35 49 46 80s16.5 65.5 16.5 103.5c0 34.667 -5.66699 66.834 -17 96.501s-27 55.167 -47 76.5s-43.667 38.166 -71 50.499s-56.666 18.5 -87.999 18.5c-32 0 -61.667 -6.16699 -89 -18.5
s-51 -29.166 -71 -50.499s-35.833 -46.833 -47.5 -76.5s-17.5 -61.834 -17.5 -96.501c0 -38 5.33301 -72.5 16 -103.5s25.834 -57.667 45.501 -80s43.167 -39.666 70.5 -51.999s57.666 -18.5 90.999 -18.5zM1270 12c0 15.333 1 30.333 3 45s4.33301 27.667 7 39
c2.66699 13.333 6 26.333 10 39l-10 4c-12 -20.667 -30.833 -40.834 -56.5 -60.501s-56.167 -37.167 -91.5 -52.5s-74.166 -27.666 -116.499 -36.999s-85.5 -14 -129.5 -14c-112.667 0 -217.5 19.5 -314.5 58.5s-181.333 95.167 -253 168.5s-128 162.5 -169 267.5
s-61.5 223.167 -61.5 354.5s20.5 249.5 61.5 354.5s97.333 194.167 169 267.5s156 129.5 253 168.5s201.833 58.5 314.5 58.5c44 0 87.167 -4.66699 129.5 -14s81.166 -21.666 116.499 -36.999s65.833 -32.833 91.5 -52.5s44.5 -39.834 56.5 -60.501l10 3
c-4 12.667 -7.33301 25.667 -10 39c-2.66699 11.333 -5 24.5 -7 39.5s-3 30.167 -3 45.5v10h715v-1646h-715v12z" />
    <glyph glyph-name="b" unicode="b" horiz-adv-x="2151" 
d="M1098 576c33.333 0 63.6641 6.16699 90.9971 18.5s50.833 29.666 70.5 51.999s34.834 49 45.501 80s16 65.5 16 103.5c0 34.667 -5.83301 66.834 -17.5 96.501s-27.5 55.167 -47.5 76.5s-43.667 38.166 -71 50.499s-57 18.5 -89 18.5
c-31.333 0 -60.666 -6.16699 -87.999 -18.5s-51 -29.166 -71 -50.499s-35.667 -46.833 -47 -76.5s-17 -61.834 -17 -96.501c0 -38 5.5 -72.5 16.5 -103.5s26.333 -57.667 46 -80s43.334 -39.666 71.001 -51.999s58.167 -18.5 91.5 -18.5zM880.998 0h-715v2472h715v-836
c0 -15.333 -1 -30.5 -3 -45.5s-4.33301 -28.167 -7 -39.5c-2.66699 -13.333 -6 -26.333 -10 -39l10 -3c12 20.667 31.333 40.834 58 60.501s58.334 37.167 95.001 52.5s76.667 27.666 120 36.999s87 14 131 14c112.667 0 217 -19.5 313 -58.5s179.167 -95.167 249.5 -168.5
s125.5 -162.5 165.5 -267.5s60 -223.167 60 -354.5s-20 -249.5 -60 -354.5s-95.167 -194.167 -165.5 -267.5s-153.5 -129.5 -249.5 -168.5s-200.333 -58.5 -313 -58.5c-44 0 -87.667 4.66699 -131 14s-83.333 21.666 -120 36.999s-68.334 32.833 -95.001 52.5
s-46 39.834 -58 60.501l-10 -4c4 -12.667 7.33301 -25.667 10 -39c2.66699 -11.333 5 -24.333 7 -39s3 -29.667 3 -45v-12z" />
    <glyph glyph-name="c" unicode="c" horiz-adv-x="1663" 
d="M1157 566c60.667 0 119.171 13.666 175.504 40.999s104.833 65.666 145.5 114.999h85v-580c-30 -21.333 -63.833 -42.166 -101.5 -62.499s-79 -38.5 -124 -54.5s-93.333 -29 -145 -39s-106.5 -15 -164.5 -15c-88 0 -172.333 9.33301 -253 28s-155.834 45.5 -225.501 80.5
s-132.834 77.5 -189.501 127.5s-105.167 106.667 -145.5 170s-71.5 132.5 -93.5 207.5s-33 154.833 -33 239.5c0 83.333 11 162.333 33 237s53 143.5 93 206.5s88.333 119.5 145 169.5s119.667 92.5 189 127.5s144.166 61.833 224.499 80.5s164.166 28 251.499 28
c58.667 0 113.5 -4.16699 164.5 -12.5s98.167 -19.333 141.5 -33s82.833 -29.334 118.5 -47.001s67.834 -35.834 96.501 -54.501v-593h-68c-43.333 48 -92 84.5 -146 109.5s-110.333 37.5 -169 37.5c-51.333 0 -97.5 -6.33301 -138.5 -19s-75.833 -30.167 -104.5 -52.5
s-50.5 -48.666 -65.5 -78.999s-22.5 -63.5 -22.5 -99.5c0 -38 7.5 -73.167 22.5 -105.5s36.667 -60.166 65 -83.499s62.666 -41.666 102.999 -54.999s85.5 -20 135.5 -20z" />
    <glyph glyph-name="d" unicode="d" horiz-adv-x="2151" 
d="M1053 576c33.333 0 63.8311 6.16699 91.498 18.5s51.334 29.666 71.001 51.999s35 49 46 80s16.5 65.5 16.5 103.5c0 34.667 -5.66699 66.834 -17 96.501s-27 55.167 -47 76.5s-43.667 38.166 -71 50.499s-56.666 18.5 -87.999 18.5c-32 0 -61.667 -6.16699 -89 -18.5
s-51 -29.166 -71 -50.499s-35.833 -46.833 -47.5 -76.5s-17.5 -61.834 -17.5 -96.501c0 -38 5.33301 -72.5 16 -103.5s25.834 -57.667 45.501 -80s43.167 -39.666 70.5 -51.999s57.666 -18.5 90.999 -18.5zM1270 12c0 15.333 1 30.333 3 45s4.33301 27.667 7 39
c2.66699 13.333 6 26.333 10 39l-10 4c-12 -20.667 -31.5 -40.834 -58.5 -60.501s-58.667 -37.167 -95 -52.5s-76.166 -27.666 -119.499 -36.999s-87 -14 -131 -14c-112.667 0 -217 19.5 -313 58.5s-179.167 95.167 -249.5 168.5s-125.5 162.5 -165.5 267.5
s-60 223.167 -60 354.5s20 249.5 60 354.5s95.167 194.167 165.5 267.5s153.5 129.5 249.5 168.5s200.333 58.5 313 58.5c44 0 87.667 -4.66699 131 -14s83.166 -21.666 119.499 -36.999s68 -32.833 95 -52.5s46.5 -39.834 58.5 -60.501l10 3
c-4 12.667 -7.33301 25.667 -10 39c-2.66699 11.333 -5 24.5 -7 39.5s-3 30.167 -3 45.5v836h715v-2472h-715v12z" />
    <glyph glyph-name="e" unicode="e" horiz-adv-x="2068" 
d="M814 690c4 -19.333 12.1689 -39.6709 24.502 -61.0039s28.666 -40.833 48.999 -58.5s44.666 -32.334 72.999 -44.001s60.166 -17.5 95.499 -17.5c54 0 100.667 7.16699 140 21.5s68.666 32.5 87.999 54.5l660 -149c-33.333 -65.333 -79.166 -126.166 -137.499 -182.499
s-126.5 -105.166 -204.5 -146.499s-164 -74 -258 -98s-193.333 -36 -298 -36c-90.667 0 -177.5 9.66699 -260.5 29s-159.833 47 -230.5 83s-134.834 79.5 -192.501 130.5s-106.834 108 -147.501 171s-72 131.333 -94 205s-33 151.167 -33 232.5s11 159 33 233
s53.333 142.5 94 205.5s89.834 120 147.501 171s121.834 94.667 192.501 131s147.334 64.166 230.001 83.499s169.667 29 261 29s178 -9.66699 260 -29s157.667 -47.166 227 -83.499s132 -80 188 -131s103.5 -108 142.5 -171s69 -131.5 90 -205.5s31.5 -151.667 31.5 -233
c0 -7.33301 -0.166992 -16.666 -0.5 -27.999s-0.833008 -23.166 -1.5 -35.499s-1.5 -24.666 -2.5 -36.999s-2.16699 -23.5 -3.5 -33.5h-1163zM1048 1131c-28 0 -54.668 -4.16699 -80.001 -12.5s-47.833 -19.333 -67.5 -33s-36.334 -29 -50.001 -46
s-23.167 -34.167 -28.5 -51.5h456c-4.66699 14.667 -13.167 30.5 -25.5 47.5s-28.166 32.5 -47.499 46.5s-42.166 25.667 -68.499 35s-55.833 14 -88.5 14z" />
    <glyph glyph-name="f" unicode="f" horiz-adv-x="1340" 
d="M1007 1163v-1163h-724v1163h-218v483h218v137c0 98 16.5 188.167 49.5 270.5s80.667 153.5 143 213.5s138.166 106.833 227.499 140.5s190.666 50.5 303.999 50.5c52 0 104.833 -3.83301 158.5 -11.5s102.834 -21.167 147.501 -40.5v-585
c-20.667 20 -45.167 36.333 -73.5 49s-59.5 19 -93.5 19c-19.333 0 -37.5 -3.16699 -54.5 -9.5s-31.667 -15.666 -44 -27.999s-22.166 -27.666 -29.499 -45.999s-11 -39.166 -11 -62.499v-97h243v-483h-243z" />
    <glyph glyph-name="g" unicode="g" horiz-adv-x="2151" 
d="M1053 576c33.333 0 63.8311 6.16699 91.498 18.5s51.334 29.666 71.001 51.999s35 49 46 80s16.5 65.5 16.5 103.5c0 34.667 -5.66699 66.834 -17 96.501s-27 55.167 -47 76.5s-43.667 38.166 -71 50.499s-56.666 18.5 -87.999 18.5c-32 0 -61.667 -6.16699 -89 -18.5
s-51 -29.166 -71 -50.499s-35.833 -46.833 -47.5 -76.5s-17.5 -61.834 -17.5 -96.501c0 -38 5.33301 -72.5 16 -103.5s25.834 -57.667 45.501 -80s43.167 -39.666 70.5 -51.999s57.666 -18.5 90.999 -18.5zM1985 56c0 -86 -10.167 -168.33 -30.5 -246.997
s-50 -151.667 -89 -219s-86.667 -128.333 -143 -183s-120.5 -101.334 -192.5 -140.001s-151.5 -68.5 -238.5 -89.5s-180.167 -31.5 -279.5 -31.5c-110.667 0 -216 16.5 -316 49.5s-190 79.667 -270 140s-148 133.166 -204 218.499s-95 180 -117 284h704
c4.66699 -25.333 14 -48 28 -68s30.833 -36.833 50.5 -50.5s41.167 -24.167 64.5 -31.5s46 -11 68 -11c48.667 0 89.167 7.16699 121.5 21.5s58 35.166 77 62.499s32.333 61 40 101s11.5 86 11.5 138v12c0 15.333 1 30.333 3 45s4.33301 27.667 7 39
c2.66699 13.333 6 26.333 10 39l-10 4c-12 -20.667 -31.5 -40.834 -58.5 -60.501s-58.667 -37.167 -95 -52.5s-76.166 -27.666 -119.499 -36.999s-87 -14 -131 -14c-112.667 0 -217 19.5 -313 58.5s-179.167 95.167 -249.5 168.5s-125.5 162.5 -165.5 267.5
s-60 223.167 -60 354.5s20 249.5 60 354.5s95.167 194.167 165.5 267.5s153.5 129.5 249.5 168.5s200.333 58.5 313 58.5c44 0 87.667 -4.66699 131 -14s83.166 -21.666 119.499 -36.999s68 -32.833 95 -52.5s46.5 -39.834 58.5 -60.501l10 3
c-4 12.667 -7.33301 25.667 -10 39c-2.66699 11.333 -5 24.5 -7 39.5s-3 30.167 -3 45.5v10h715v-1590z" />
    <glyph glyph-name="h" unicode="h" horiz-adv-x="2119" 
d="M1379 1671c90.667 0 171.667 -13.667 243 -41s131.5 -67 180.5 -119s86.333 -116 112 -192s38.5 -162.667 38.5 -260v-1059h-725v899c0 24 -2.83301 47 -8.5 69s-14.5 41.5 -26.5 58.5s-27.667 30.5 -47 40.5s-42.666 15 -69.999 15
c-18.667 0 -38.834 -3.66699 -60.501 -11s-41.834 -19.5 -60.501 -36.5s-34.167 -40 -46.5 -69s-18.5 -64.833 -18.5 -107.5v-858h-724v2458h724v-788c0 -25.333 -1.33301 -51 -4 -77s-5.66699 -49.667 -9 -71c-3.33301 -24.667 -7.33301 -48.334 -12 -71.001l10 -3
c30.667 38 65.834 70.833 105.501 98.5s81.667 50.834 126 69.501s89.833 32.5 136.5 41.5s92 13.5 136 13.5z" />
    <glyph glyph-name="i" unicode="i" horiz-adv-x="1064" 
d="M894 0h-724v1646h724v-1646zM531 2470c53.333 0 103.668 -7.83301 151.001 -23.5s88.5 -38 123.5 -67s62.667 -64 83 -105s30.5 -86.833 30.5 -137.5c0 -49.333 -9.5 -94.833 -28.5 -136.5s-45.833 -77.334 -80.5 -107.001s-76.334 -52.334 -125.001 -68.001
s-102.667 -22.167 -162 -19.5c-52 2 -101 11.167 -147 27.5s-86 38.833 -120 67.5s-61 62.834 -81 102.501s-30 83.834 -30 132.501c0 50.667 10.167 96.667 30.5 138s48 76.5 83 105.5s75.833 51.333 122.5 67s96.667 23.5 150 23.5z" />
    <glyph glyph-name="j" unicode="j" horiz-adv-x="1064" 
d="M530 2470c53.333 0 103.668 -7.83301 151.001 -23.5s88.5 -38 123.5 -67s62.667 -64 83 -105s30.5 -86.833 30.5 -137.5c0 -49.333 -9.5 -94.833 -28.5 -136.5s-45.833 -77.334 -80.5 -107.001s-76.334 -52.334 -125.001 -68.001s-102.667 -22.167 -162 -19.5
c-52 2 -101 11.167 -147 27.5s-86 38.833 -120 67.5s-61 62.834 -81 102.501s-30 83.834 -30 132.501c0 50.667 10.167 96.667 30.5 138s48 76.5 83 105.5s75.833 51.333 122.5 67s96.667 23.5 150 23.5zM894.002 -840h-724v2486h724v-2486z" />
    <glyph glyph-name="k" unicode="k" horiz-adv-x="2174" 
d="M890 549v-549h-724v2458h724v-1272l381 460h865l-683 -764l704 -882h-862z" />
    <glyph glyph-name="l" unicode="l" horiz-adv-x="1064" 
d="M894 0h-724v2458h724v-2458z" />
    <glyph glyph-name="m" unicode="m" horiz-adv-x="3002" 
d="M1168 0l-0.00195312 899c0 24 -1.5 47 -4.5 69s-9 41.5 -18 58.5s-21.833 30.5 -38.5 40.5s-38.667 15 -66 15c-18.667 0 -37 -3.66699 -55 -11s-34.167 -19.5 -48.5 -36.5s-25.833 -40 -34.5 -69s-13 -64.833 -13 -107.5v-858h-724v1646h724v-56
c0 -25.333 -1.33301 -48 -4 -68s-5.66699 -36.667 -9 -50c-3.33301 -16 -7.33301 -29.667 -12 -41l10 -3c22.667 36.667 50.834 70 84.501 100s70.5 55.5 110.5 76.5s82.167 37.333 126.5 49s88.5 17.5 132.5 17.5c112.667 0 206.834 -20.833 282.501 -62.5
s134.167 -101.834 175.5 -180.501l6 11c30.667 38 65 71.333 103 100s78.333 52.834 121 72.501s86.5 34.5 131.5 44.5s89.5 15 133.5 15c90.667 0 170.667 -13.667 240 -41s127.166 -67 173.5 -119c46.333 -52 81.333 -116 105 -192s35.5 -162.667 35.5 -260v-1059h-725
v899c0 24 -1.5 47 -4.5 69s-9 41.5 -18 58.5s-21.833 30.5 -38.5 40.5s-38.667 15 -66 15c-18.667 0 -37 -3.66699 -55 -11s-34.167 -19.5 -48.5 -36.5s-25.833 -40 -34.5 -69s-13 -64.833 -13 -107.5v-858h-665z" />
    <glyph glyph-name="n" unicode="n" horiz-adv-x="2119" 
d="M1359 1671c90.667 0 172.664 -13.668 245.997 -41.001s135.833 -67 187.5 -119s91.334 -116 119.001 -192s41.5 -162.667 41.5 -260v-1059h-725v899c0 24 -2.83301 47 -8.5 69s-14.5 41.5 -26.5 58.5s-27.667 30.5 -47 40.5s-42.666 15 -69.999 15
c-18.667 0 -38.834 -3.66699 -60.501 -11s-41.834 -19.5 -60.501 -36.5s-34.167 -40 -46.5 -69s-18.5 -64.833 -18.5 -107.5v-858h-724v1646h724v-36c0 -25.333 -1.33301 -48 -4 -68s-5.66699 -36.667 -9 -50c-3.33301 -16 -7.33301 -29.667 -12 -41l10 -3
c30.667 38 64.834 70.833 102.501 98.5s77.334 50.834 119.001 69.501s84.834 32.5 129.501 41.5s89 13.5 133 13.5z" />
    <glyph glyph-name="o" unicode="o" horiz-adv-x="2072" 
d="M1036 -27c-92 0 -179.333 9.66699 -262 29s-159 47 -229 83s-133.333 79.5 -190 130.5s-104.667 108 -144 171s-69.666 131.333 -90.999 205s-32 151.167 -32 232.5s10.667 159 32 233s51.666 142.5 90.999 205.5s87.333 120 144 171s120 94.667 190 131
s146.333 64.166 229 83.499s170 29 262 29s179.333 -9.66699 262 -29s159 -47.166 229 -83.499s133.333 -80 190 -131s104.667 -108 144 -171s69.666 -131.5 90.999 -205.5s32 -151.667 32 -233s-10.667 -158.833 -32 -232.5s-51.666 -142 -90.999 -205
s-87.333 -120 -144 -171s-120 -94.5 -190 -130.5s-146.333 -63.667 -229 -83s-170 -29 -262 -29zM1036 576c28.667 0 56.1709 4.83203 82.5039 14.499s49.166 24.834 68.499 45.501s34.833 47 46.5 79s17.5 70.333 17.5 115c0 40.667 -5.83301 76.167 -17.5 106.5
s-27.334 55.5 -47.001 75.5s-42.334 35 -68.001 45s-52.5 15 -80.5 15s-55 -5 -81 -15s-49 -25 -69 -45s-36 -45.167 -48 -75.5s-18 -65.833 -18 -106.5c0 -44 5.66699 -81.833 17 -113.5s26.666 -58 45.999 -79s42 -36.5 68 -46.5s53.667 -15 83 -15z" />
    <glyph glyph-name="p" unicode="p" horiz-adv-x="2151" 
d="M1098 1070c-33.333 0 -63.8311 -6.16699 -91.498 -18.5s-51.334 -29.666 -71.001 -51.999s-35 -49 -46 -80s-16.5 -65.5 -16.5 -103.5c0 -34.667 5.66699 -66.834 17 -96.501s27 -55.167 47 -76.5s43.667 -38.166 71 -50.499s56.666 -18.5 87.999 -18.5
c32 0 61.667 6.16699 89 18.5s51 29.166 71 50.499s35.833 46.833 47.5 76.5s17.5 61.834 17.5 96.501c0 38 -5.33301 72.5 -16 103.5s-25.834 57.667 -45.501 80s-43.167 39.666 -70.5 51.999s-57.666 18.5 -90.999 18.5zM881.002 1634c0 -15.333 -1 -30.333 -3 -45
s-4.33301 -27.667 -7 -39c-2.66699 -13.333 -6 -26.333 -10 -39l10 -4c12 20.667 31.333 40.834 58 60.501s58.334 37.167 95.001 52.5s76.667 27.666 120 36.999s87 14 131 14c112.667 0 217 -19.5 313 -58.5s179.167 -95.167 249.5 -168.5s125.5 -162.5 165.5 -267.5
s60 -223.167 60 -354.5s-20 -249.5 -60 -354.5s-95.167 -194.167 -165.5 -267.5s-153.5 -129.5 -249.5 -168.5s-200.333 -58.5 -313 -58.5c-44 0 -87.667 4.66699 -131 14s-83.333 21.666 -120 36.999s-68.334 32.833 -95.001 52.5s-46 39.834 -58 60.501l-10 -3
c4 -12.667 7.33301 -25.667 10 -39c2.66699 -11.333 5 -24.5 7 -39.5s3 -30.167 3 -45.5v-836h-715v2472h715v-12z" />
    <glyph glyph-name="q" unicode="q" horiz-adv-x="2151" 
d="M1053 1070c-33.333 0 -63.6641 -6.16699 -90.9971 -18.5s-50.833 -29.666 -70.5 -51.999s-34.834 -49 -45.501 -80s-16 -65.5 -16 -103.5c0 -34.667 5.83301 -66.834 17.5 -96.501s27.5 -55.167 47.5 -76.5s43.667 -38.166 71 -50.499s57 -18.5 89 -18.5
c31.333 0 60.666 6.16699 87.999 18.5s51 29.166 71 50.499s35.667 46.833 47 76.5s17 61.834 17 96.501c0 38 -5.5 72.5 -16.5 103.5s-26.333 57.667 -46 80s-43.334 39.666 -71.001 51.999s-58.167 18.5 -91.5 18.5zM1270 1646h715v-2472h-715v836c0 15.333 1 30.5 3 45.5
s4.33301 28.167 7 39.5c2.66699 13.333 6 26.333 10 39l-10 3c-12 -20.667 -31.5 -40.834 -58.5 -60.501s-58.667 -37.167 -95 -52.5s-76.166 -27.666 -119.499 -36.999s-87 -14 -131 -14c-112.667 0 -217 19.5 -313 58.5s-179.167 95.167 -249.5 168.5
s-125.5 162.5 -165.5 267.5s-60 223.167 -60 354.5s20 249.5 60 354.5s95.167 194.167 165.5 267.5s153.5 129.5 249.5 168.5s200.333 58.5 313 58.5c44 0 87.667 -4.66699 131 -14s83.166 -21.666 119.499 -36.999s68 -32.833 95 -52.5s46.5 -39.834 58.5 -60.501l10 4
c-4 12.667 -7.33301 25.667 -10 39c-2.66699 11.333 -5 24.333 -7 39s-3 29.667 -3 45v12z" />
    <glyph glyph-name="r" unicode="r" horiz-adv-x="1584" 
d="M1461 992c-8 14 -19.3311 26.6689 -33.998 38.002s-30.834 21 -48.501 29s-36.334 14.167 -56.001 18.5s-38.5 6.5 -56.5 6.5c-54.667 0 -105 -11.5 -151 -34.5s-85.833 -55.167 -119.5 -96.5s-60 -91.333 -79 -150s-28.5 -123.334 -28.5 -194.001v-609h-722v1646h722
v-95c0 -16.667 -0.833008 -34.834 -2.5 -54.501s-3.66699 -38.667 -6 -57s-4.66602 -34.666 -6.99902 -48.999s-3.83301 -23.833 -4.5 -28.5l2 -1c15.333 50 38.666 93.833 69.999 131.5s66.5 69.167 105.5 94.5s79.5 44.333 121.5 57s81.667 19 119 19
c46 0 89.333 -4.33301 130 -13s81.667 -22.334 123 -41.001z" />
    <glyph glyph-name="s" unicode="s" horiz-adv-x="1674" 
d="M742 609c-114 24.667 -212.331 55.835 -294.998 93.502s-150.834 79.834 -204.501 126.501s-93.334 97.334 -119.001 152.001s-38.5 112 -38.5 172c0 81.333 18.667 153.666 56 216.999s89.833 116.833 157.5 160.5s149.167 76.834 244.5 99.501s201 34 317 34
c68 0 136.333 -7 205 -21s135 -32.5 199 -55.5s123.667 -49.833 179 -80.5s103.333 -62.334 144 -95.001l-182 -384c-34 26 -72.667 50.167 -116 72.5s-87.833 41.666 -133.5 57.999s-90.834 29.333 -135.501 39s-85 14.5 -121 14.5c-18 0 -33.333 -2.16699 -46 -6.5
s-23 -9.83301 -31 -16.5s-13.833 -13.834 -17.5 -21.501s-5.5 -14.834 -5.5 -21.501c0 -22 10.167 -40.5 30.5 -55.5s49.5 -26.5 87.5 -34.5c116 -24.667 216.5 -55.167 301.5 -91.5s155.5 -77.666 211.5 -123.999s97.5 -97.166 124.5 -152.499s40.5 -114.333 40.5 -177
c0 -81.333 -20 -154.666 -60 -219.999s-95.333 -121 -166 -167s-154.5 -81.333 -251.5 -106s-202.833 -37 -317.5 -37c-76.667 0 -150 7 -220 21s-135.667 32.5 -197 55.5s-118 49.667 -170 80s-98.333 62.166 -139 95.499l197 401c34 -26.667 71.833 -51.334 113.5 -74.001
s84.334 -42.167 128.001 -58.5s87 -29.166 130 -38.499s82.5 -14 118.5 -14c34 0 61.167 6.16699 81.5 18.5s30.5 28.166 30.5 47.499s-9.83301 37.166 -29.5 53.499s-53.5 29.833 -101.5 40.5z" />
    <glyph glyph-name="t" unicode="t" horiz-adv-x="1415" 
d="M1045 0h-724v1164h-252v482h252v544h724v-544h306v-482h-306v-1164z" />
    <glyph glyph-name="u" unicode="u" horiz-adv-x="2072" 
d="M1036 -28c-130.667 0 -249.501 16.667 -356.501 50s-198.5 79.833 -274.5 139.5s-134.833 130.667 -176.5 213s-62.5 172.5 -62.5 270.5v1001h722v-928c0 -28 3.83301 -52.333 11.5 -73s18.167 -37.667 31.5 -51s29 -23.166 47 -29.499s37.333 -9.5 58 -9.5
c20 0 38.833 3.16699 56.5 9.5s33.167 16.166 46.5 29.499s24 30.333 32 51s12 45 12 73v928h722v-1001c0 -98 -20.5 -188.167 -61.5 -270.5s-99.167 -153.333 -174.5 -213s-166.666 -106.167 -273.999 -139.5s-227 -50 -359 -50z" />
    <glyph glyph-name="v" unicode="v" horiz-adv-x="2029" 
d="M1261 1646l754 0.000976562l-710 -1646h-579l-709 1646h755l164 -589c11.333 -42.667 22 -86.667 32 -132s18.667 -87 26 -125c8 -44 15.333 -87 22 -129c6.66699 41.333 14 84 22 128c7.33301 38 15.833 79.667 25.5 125s20.5 89.666 32.5 132.999z" />
    <glyph glyph-name="w" unicode="w" horiz-adv-x="2501" 
d="M2480 1646l-584.997 -1646h-441l-162 488c-6.66699 18.667 -12.834 39.667 -18.501 63l-15.5 66c-5.33301 24 -10.333 48.333 -15 73c-4.66699 -24.667 -9.66699 -49 -15 -73c-4.66699 -20.667 -10.167 -42.5 -16.5 -65.5s-12.833 -44.167 -19.5 -63.5l-173 -488h-417
l-585 1646h733l112 -459c5.33301 -21.333 10.5 -45.166 15.5 -71.499s9.5 -51.166 13.5 -74.499c4.66699 -26.667 9 -54 13 -82c6 28 12.667 55.333 20 82l20 74.5c7.33301 26.333 14.666 50.166 21.999 71.499l162 459h241l162 -459
c7.33301 -21.333 14.666 -45.166 21.999 -71.499l20 -74.5c7.33301 -26.667 14 -54 20 -82c4 28 8.33301 55.333 13 82c4 23.333 8.5 48.166 13.5 74.499s10.167 50.166 15.5 71.499l112 459h733z" />
    <glyph glyph-name="x" unicode="x" horiz-adv-x="2137" 
d="M1154 260c-11.333 21.333 -22 43.167 -32 65.5s-18.667 43.166 -26 62.499l-25 66l-25 -65c-7.33301 -19.333 -16 -40.333 -26 -63s-20.333 -44.334 -31 -65.001l-134 -261h-829l611 823l-612 823h830l134 -261c10.667 -21.333 21 -43.166 31 -65.499
s18.667 -43.166 26 -62.499l25 -65l25 65c7.33301 19.333 16 40.333 26 63s20.667 44.667 32 66l134 260h830l-612 -823l612 -823h-830z" />
    <glyph glyph-name="y" unicode="y" horiz-adv-x="2132" 
d="M1370 1646l743.999 -0.00292969l-1037 -2440h-730l345 832l-676 1608h765l221 -602c9.33301 -29.333 18.333 -60.666 27 -93.999s16.334 -64.333 23.001 -93c7.33301 -33.333 14 -66.666 20 -99.999c8 32.667 16.667 65.334 26 98.001c8 28 17.167 58.333 27.5 91
s21.5 64 33.5 94z" />
    <glyph glyph-name="z" unicode="z" horiz-adv-x="1938" 
d="M65 1646h1812v-96l-813 -1068h811v-482h-1820v97l792 1066h-782v483z" />
    <glyph glyph-name="braceleft" unicode="{" horiz-adv-x="1086" 
d="M63 1120c26 6.66699 49.8291 18.4971 71.4961 35.4971s40.5 37.667 56.5 62s28.5 51.833 37.5 82.5s13.5 62.667 13.5 96v610c0 102.667 18 193 54 271s87.167 143.333 153.5 196s146.666 92.5 240.999 119.5s199.833 41.167 316.5 42.5v-436
c-60.667 0 -104.334 -18.833 -131.001 -56.5s-40 -93.167 -40 -166.5v-493c0 -59.333 -4.16699 -112 -12.5 -158s-19.666 -86.167 -33.999 -120.5s-31.166 -63.666 -50.499 -87.999s-40 -45.166 -62 -62.499s-45.167 -31.5 -69.5 -42.5s-48.166 -20.5 -71.499 -28.5
c35.333 -9.33301 70.833 -24.166 106.5 -44.499s67.834 -49.5 96.501 -87.5s52 -87 70 -147s27 -134.333 27 -223v-493c0 -72.667 13.333 -128.167 40 -166.5s70.334 -57.5 131.001 -57.5v-435c-116.667 1.33301 -222.167 17 -316.5 47s-174.666 72.333 -240.999 127
s-117.5 120.334 -153.5 197.001s-54 162.667 -54 258v610c0 34 -4.5 66.167 -13.5 96.5s-21.5 57.666 -37.5 81.999s-34.833 45.333 -56.5 63s-45.5 31.167 -71.5 40.5v270z" />
    <glyph glyph-name="bar" unicode="|" horiz-adv-x="1088" 
d="M875 -670h-662v3365h662v-3365z" />
    <glyph glyph-name="braceright" unicode="}" horiz-adv-x="1085" 
d="M1022 850c-26 -9.33301 -49.8369 -22.8301 -71.5039 -40.4971s-40.5 -38.667 -56.5 -63s-28.5 -51.666 -37.5 -81.999s-13.5 -62.5 -13.5 -96.5v-610c0 -95.333 -18 -181.333 -54 -258s-87.167 -142.334 -153.5 -197.001s-146.666 -97 -240.999 -127
s-199.833 -45.667 -316.5 -47v435c60.667 0 104.334 19.167 131.001 57.5s40 93.833 40 166.5v493c0 88.667 9 163 27 223s41.333 109 70 147s60.834 67.167 96.501 87.5s71.167 35.166 106.5 44.499c-23.333 8 -47.166 17.5 -71.499 28.5s-47.5 25.167 -69.5 42.5
s-42.667 38.166 -62 62.499s-36.166 53.666 -50.499 87.999s-25.666 74.333 -33.999 120s-12.5 98.5 -12.5 158.5v493c0 73.333 -13.333 128.833 -40 166.5s-70.334 56.5 -131.001 56.5v436c116.667 -1.33301 222.167 -15.5 316.5 -42.5s174.666 -66.833 240.999 -119.5
s117.5 -118 153.5 -196s54 -168.333 54 -271v-610c0 -33.333 4.5 -65.333 13.5 -96s21.5 -58.167 37.5 -82.5s34.833 -45 56.5 -62s45.5 -28.833 71.5 -35.5v-270z" />
    <glyph glyph-name="asciitilde" unicode="~" horiz-adv-x="1943" 
d="M5 939c87.333 106 183.833 185.667 289.5 239s220.5 80 344.5 80c43.333 0 85.333 -3.66699 126 -11s80 -17.333 118 -30s75 -27 111 -43s71 -32.667 105 -50c64 -32 123.833 -52.5 179.5 -61.5s106.667 -6.83301 153 6.5s87.5 37.5 123.5 72.5s65.667 80.167 89 135.5
l289 -407c-27.333 -51.333 -61.166 -99 -101.499 -143s-86.333 -82.167 -138 -114.5s-108.667 -57.833 -171 -76.5s-129.5 -28 -201.5 -28c-40.667 0 -80.334 4 -119.001 12s-76.5 18.333 -113.5 31s-73 27.167 -108 43.5l-102.5 49.5
c-127.333 63.333 -237.833 81.5 -331.5 54.5s-174.5 -98.833 -242.5 -215.5z" />
    <glyph glyph-name="saraileftthai" 
d="M-1083 2106h-1095v300h1095v-300z" />
    <glyph glyph-name="saraileftthai" unicode="&#xf701;" 
d="M-1083 2106h-1095v300h1095v-300z" />
    <glyph glyph-name="saraiileftthai" 
d="M-1514 2660h431v-554h-1095v300h664v254z" />
    <glyph glyph-name="saraiileftthai" unicode="&#xf702;" 
d="M-1514 2660h431v-554h-1095v300h664v254z" />
    <glyph glyph-name="saraueleftthai" 
d="M-1741 2406c-1.33301 4.66699 -2.16797 10.834 -2.50098 18.5c-0.333008 7.66699 -0.5 13.834 -0.5 18.5c0 35.333 7.16699 70.5 21.5 105.5s35.5 66.333 63.5 94s62.833 50 104.5 67s89.834 25.5 144.501 25.5c55.333 0 103.833 -8.5 145.5 -25.5
s76.5 -39.333 104.5 -67s49 -59 63 -94s21 -70.5 21 -106.5c0 -17.333 -0.833008 -30.5 -2.5 -39.5s-3.16699 -16.5 -4.5 -22.5v-274h-1095v300h437zM-1408 2497c-24.667 0 -45.334 -8 -62.001 -24s-25 -36.667 -25 -62c0 -22.667 8.33301 -42.167 25 -58.5
s37.334 -24.5 62.001 -24.5s45.334 8.16699 62.001 24.5s25 35.833 25 58.5c0 25.333 -8.33301 46 -25 62s-37.334 24 -62.001 24z" />
    <glyph glyph-name="saraueleftthai" unicode="&#xf703;" 
d="M-1741 2406c-1.33301 4.66699 -2.16797 10.834 -2.50098 18.5c-0.333008 7.66699 -0.5 13.834 -0.5 18.5c0 35.333 7.16699 70.5 21.5 105.5s35.5 66.333 63.5 94s62.833 50 104.5 67s89.834 25.5 144.501 25.5c55.333 0 103.833 -8.5 145.5 -25.5
s76.5 -39.333 104.5 -67s49 -59 63 -94s21 -70.5 21 -106.5c0 -17.333 -0.833008 -30.5 -2.5 -39.5s-3.16699 -16.5 -4.5 -22.5v-274h-1095v300h437zM-1408 2497c-24.667 0 -45.334 -8 -62.001 -24s-25 -36.667 -25 -62c0 -22.667 8.33301 -42.167 25 -58.5
s37.334 -24.5 62.001 -24.5s45.334 8.16699 62.001 24.5s25 35.833 25 58.5c0 25.333 -8.33301 46 -25 62s-37.334 24 -62.001 24z" />
    <glyph glyph-name="saraueeleftthai" 
d="M-1383 2660h300v-554h-1095v300h335v254h300v-274h160v274z" />
    <glyph glyph-name="saraueeleftthai" unicode="&#xf704;" 
d="M-1383 2660h300v-554h-1095v300h335v254h300v-274h160v274z" />
    <glyph glyph-name="maieklowleftthai" 
d="M-1647 2660h564v-502h-564v502z" />
    <glyph glyph-name="maieklowleftthai" unicode="&#xf705;" 
d="M-1647 2660h564v-502h-564v502z" />
    <glyph glyph-name="maitholowleftthai" 
d="M-1309 2828v-383h273v-290h-822v354h-230v319h779z" />
    <glyph glyph-name="maitholowleftthai" unicode="&#xf706;" 
d="M-1309 2828v-383h273v-290h-822v354h-230v319h779z" />
    <glyph glyph-name="maitrilowleftthai" 
d="M-2034 2167c-0.666992 4.66699 -1.33203 10.667 -1.99902 18s-1.16699 15.166 -1.5 23.5l-1 25c-0.333008 8.33301 -0.5 15.5 -0.5 21.5c0 51.333 6.66699 98.833 20 142.5s33 81.334 59 113c26 31.667 58.167 56.5 96.5 74.5s82.5 27 132.5 27
c26.667 0 52 -4.5 76 -13.5s45.833 -21.833 65.5 -38.5s36.167 -36.834 49.5 -60.5c13.333 -23.667 22.333 -49.834 27 -78.5c9.33301 59.333 34.833 106.166 76.5 140.5c41.667 34.333 95.5 51.5 161.5 51.5c74.667 0 132.334 -19.833 173.001 -59.5s61 -92.834 61 -159.5
v-20c7.33301 3.33301 13.833 5.66602 19.5 7c5.66699 1.33301 11.167 2 16.5 2s10.666 -0.666992 15.999 -2h7v-220h-212c-18.667 0 -31.667 4.16699 -39 12.5s-11 18.5 -11 30.5c0 34.667 -7 62.834 -21 84.5c-14 21.667 -33.667 32.5 -59 32.5
c-26 0 -45.5 -10.833 -58.5 -32.5s-19.5 -47.5 -19.5 -77.5v-9.5v-14c0 -5 0.166992 -9.66699 0.5 -14s0.5 -7.16602 0.5 -8.5h-221c0 1.33301 0.166992 4.16602 0.5 8.5c0.333008 4.33301 0.666016 9.16602 0.999023 14.5c0.333008 5.33301 0.5 10.333 0.5 15v9
c0 36.667 -7.5 63.834 -22.5 81.5c-15 17.667 -33.167 26.5 -54.5 26.5c-19.333 0 -36.5 -9.83301 -51.5 -29.5s-22.5 -46.5 -22.5 -80.5v-17c0 -2.66699 0.333008 -5.66699 1 -9z" />
    <glyph glyph-name="maitrilowleftthai" unicode="&#xf707;" 
d="M-2034 2167c-0.666992 4.66699 -1.33203 10.667 -1.99902 18s-1.16699 15.166 -1.5 23.5l-1 25c-0.333008 8.33301 -0.5 15.5 -0.5 21.5c0 51.333 6.66699 98.833 20 142.5s33 81.334 59 113c26 31.667 58.167 56.5 96.5 74.5s82.5 27 132.5 27
c26.667 0 52 -4.5 76 -13.5s45.833 -21.833 65.5 -38.5s36.167 -36.834 49.5 -60.5c13.333 -23.667 22.333 -49.834 27 -78.5c9.33301 59.333 34.833 106.166 76.5 140.5c41.667 34.333 95.5 51.5 161.5 51.5c74.667 0 132.334 -19.833 173.001 -59.5s61 -92.834 61 -159.5
v-20c7.33301 3.33301 13.833 5.66602 19.5 7c5.66699 1.33301 11.167 2 16.5 2s10.666 -0.666992 15.999 -2h7v-220h-212c-18.667 0 -31.667 4.16699 -39 12.5s-11 18.5 -11 30.5c0 34.667 -7 62.834 -21 84.5c-14 21.667 -33.667 32.5 -59 32.5
c-26 0 -45.5 -10.833 -58.5 -32.5s-19.5 -47.5 -19.5 -77.5v-9.5v-14c0 -5 0.166992 -9.66699 0.5 -14s0.5 -7.16602 0.5 -8.5h-221c0 1.33301 0.166992 4.16602 0.5 8.5c0.333008 4.33301 0.666016 9.16602 0.999023 14.5c0.333008 5.33301 0.5 10.333 0.5 15v9
c0 36.667 -7.5 63.834 -22.5 81.5c-15 17.667 -33.167 26.5 -54.5 26.5c-19.333 0 -36.5 -9.83301 -51.5 -29.5s-22.5 -46.5 -22.5 -80.5v-17c0 -2.66699 0.333008 -5.66699 1 -9z" />
    <glyph glyph-name="maichattawalowleftthai" 
d="M-1853 2343h-192v274h192v173h626v-173h192v-273h-192v-177h-626v176z" />
    <glyph glyph-name="maichattawalowleftthai" unicode="&#xf708;" 
d="M-1853 2343h-192v274h192v173h626v-173h192v-273h-192v-177h-626v176z" />
    <glyph glyph-name="thanthakhatlowleftthai" 
d="M-1248 2699v-376h-579v492c0 30.667 5.16699 59.334 15.5 86c10.333 26.667 25.5 50 45.5 70s44.333 35.667 73 47s61 17 97 17h640v-336h-292z" />
    <glyph glyph-name="thanthakhatlowleftthai" unicode="&#xf709;" 
d="M-1248 2699v-376h-579v492c0 30.667 5.16699 59.334 15.5 86c10.333 26.667 25.5 50 45.5 70s44.333 35.667 73 47s61 17 97 17h640v-336h-292z" />
    <glyph glyph-name="maieklowrightthai" 
d="M-900 2730h745v-582h-745v582z" />
    <glyph glyph-name="maieklowrightthai" unicode="&#xf70a;" 
d="M-900 2730h745v-582h-745v582z" />
    <glyph glyph-name="maitholowrightthai" 
d="M-513 2841v-383h453v-310h-1076v374h-250v319h873z" />
    <glyph glyph-name="maitholowrightthai" unicode="&#xf70b;" 
d="M-513 2841v-383h453v-310h-1076v374h-250v319h873z" />
    <glyph glyph-name="maitrilowrightthai" 
d="M-1701 2159c-1.33301 6.66699 -2.33105 16.667 -2.99805 30s-1.33398 27.5 -2.00098 42.5s-1.16699 29.667 -1.5 44s-0.5 26.166 -0.5 35.5c0 69.333 11.167 133 33.5 191s54.5 108 96.5 150s92.833 74.667 152.5 98s126.834 35 201.501 35
c35.333 0 69.666 -5.33301 102.999 -16s63.666 -25.667 90.999 -45s51 -42.666 71 -70c20 -27.333 34.667 -58 44 -92c8.66699 34 23.334 64.667 44.001 92s45.167 50.666 73.5 70c28.333 19.333 59 34.333 92 45s66.167 16 99.5 16c55.333 0 104.5 -7.16699 147.5 -21.5
s80 -34.5 111 -60.5s55.833 -57.333 74.5 -94s31 -77.334 37 -122c8.66699 2 18.334 3.66699 29.001 5s20.667 2.33301 30 3l32 2h83v-347h-393c-18.667 0 -35.334 4.66699 -50.001 14s-22 24.666 -22 46c0 49.333 -10.667 86.5 -32 111.5s-50.666 37.5 -87.999 37.5
c-26 0 -47.333 -7 -64 -21s-29.5 -31.5 -38.5 -52.5s-14.333 -43.333 -16 -67s-0.5 -44.834 3.5 -63.5h-322c3.33301 20 4.16602 42 2.49902 66s-6.83398 46.167 -15.501 66.5s-21 37.333 -37 51s-36.667 20.5 -62 20.5c-24 0 -44 -5.5 -60 -16.5s-28.5 -25 -37.5 -42
s-14.667 -36.167 -17 -57.5s-1.83301 -42 1.5 -62z" />
    <glyph glyph-name="maitrilowrightthai" unicode="&#xf70c;" 
d="M-1701 2159c-1.33301 6.66699 -2.33105 16.667 -2.99805 30s-1.33398 27.5 -2.00098 42.5s-1.16699 29.667 -1.5 44s-0.5 26.166 -0.5 35.5c0 69.333 11.167 133 33.5 191s54.5 108 96.5 150s92.833 74.667 152.5 98s126.834 35 201.501 35
c35.333 0 69.666 -5.33301 102.999 -16s63.666 -25.667 90.999 -45s51 -42.666 71 -70c20 -27.333 34.667 -58 44 -92c8.66699 34 23.334 64.667 44.001 92s45.167 50.666 73.5 70c28.333 19.333 59 34.333 92 45s66.167 16 99.5 16c55.333 0 104.5 -7.16699 147.5 -21.5
s80 -34.5 111 -60.5s55.833 -57.333 74.5 -94s31 -77.334 37 -122c8.66699 2 18.334 3.66699 29.001 5s20.667 2.33301 30 3l32 2h83v-347h-393c-18.667 0 -35.334 4.66699 -50.001 14s-22 24.666 -22 46c0 49.333 -10.667 86.5 -32 111.5s-50.666 37.5 -87.999 37.5
c-26 0 -47.333 -7 -64 -21s-29.5 -31.5 -38.5 -52.5s-14.333 -43.333 -16 -67s-0.5 -44.834 3.5 -63.5h-322c3.33301 20 4.16602 42 2.49902 66s-6.83398 46.167 -15.501 66.5s-21 37.333 -37 51s-36.667 20.5 -62 20.5c-24 0 -44 -5.5 -60 -16.5s-28.5 -25 -37.5 -42
s-14.667 -36.167 -17 -57.5s-1.83301 -42 1.5 -62z" />
    <glyph glyph-name="maichattawalowrightthai" 
d="M-876 2344h-226v334h226v213h716v-213h228v-333h-228v-217h-716v216z" />
    <glyph glyph-name="maichattawalowrightthai" unicode="&#xf70d;" 
d="M-876 2344h-226v334h226v213h716v-213h228v-333h-228v-217h-716v216z" />
    <glyph glyph-name="thanthakhatlowrightthai" 
d="M-312 2403v-276h-699v392c0 30.667 5.16699 59.334 15.5 86c10.333 26.667 25.5 50 45.5 70s44.333 35.667 73 47s61 17 97 17h720v-336h-252z" />
    <glyph glyph-name="thanthakhatlowrightthai" unicode="&#xf70e;" 
d="M-312 2403v-276h-699v392c0 30.667 5.16699 59.334 15.5 86c10.333 26.667 25.5 50 45.5 70s44.333 35.667 73 47s61 17 97 17h720v-336h-252z" />
    <glyph glyph-name="maihanakatleftthai" 
d="M-1286 2406h1396v-300h-1974v484h578v-184z" />
    <glyph glyph-name="maihanakatleftthai" unicode="&#xf710;" 
d="M-1286 2406h1396v-300h-1974v484h578v-184z" />
    <glyph glyph-name="nikhahitleftthai" 
d="M-1828 2368c0 51.333 10.667 98.666 32 142c21.333 43.333 50.833 80.666 88.5 112c37.667 31.333 82.5 55.666 134.5 73c52 17.333 108.667 26 170 26c62 0 118.833 -8.66699 170.5 -26s96.167 -41.666 133.5 -73c37.333 -31.333 66.333 -68.666 87 -112
c20.667 -43.333 31 -90.666 31 -142c0 -51.333 -10.333 -98.5 -31 -141.5s-49.667 -80 -87 -111s-81.833 -55.167 -133.5 -72.5s-108.5 -26 -170.5 -26c-61.333 0 -118 8.66699 -170 26s-96.833 41.5 -134.5 72.5s-67.167 68 -88.5 111s-32 90.167 -32 141.5zM-1402 2443
c-24 0 -44.167 -7 -60.5 -21s-24.5 -32 -24.5 -54c0 -20 8.16699 -37.167 24.5 -51.5s36.5 -21.5 60.5 -21.5s44.167 7.16699 60.5 21.5s24.5 31.5 24.5 51.5c0 22 -8.16699 40 -24.5 54s-36.5 21 -60.5 21z" />
    <glyph glyph-name="nikhahitleftthai" unicode="&#xf711;" 
d="M-1828 2368c0 51.333 10.667 98.666 32 142c21.333 43.333 50.833 80.666 88.5 112c37.667 31.333 82.5 55.666 134.5 73c52 17.333 108.667 26 170 26c62 0 118.833 -8.66699 170.5 -26s96.167 -41.666 133.5 -73c37.333 -31.333 66.333 -68.666 87 -112
c20.667 -43.333 31 -90.666 31 -142c0 -51.333 -10.333 -98.5 -31 -141.5s-49.667 -80 -87 -111s-81.833 -55.167 -133.5 -72.5s-108.5 -26 -170.5 -26c-61.333 0 -118 8.66699 -170 26s-96.833 41.5 -134.5 72.5s-67.167 68 -88.5 111s-32 90.167 -32 141.5zM-1402 2443
c-24 0 -44.167 -7 -60.5 -21s-24.5 -32 -24.5 -54c0 -20 8.16699 -37.167 24.5 -51.5s36.5 -21.5 60.5 -21.5s44.167 7.16699 60.5 21.5s24.5 31.5 24.5 51.5c0 22 -8.16699 40 -24.5 54s-36.5 21 -60.5 21z" />
    <glyph glyph-name="maitaikhuleftthai" 
d="M-1239 2449c26 0 47.332 10.333 63.999 31l160 -191c-15.333 -50 -41.333 -89 -78 -117s-87.667 -42 -153 -42c-26 0 -50.667 4 -74 12s-44.166 19.333 -62.499 34s-34 32.167 -47 52.5s-21.833 43.166 -26.5 68.5c-8 -25.333 -21.333 -48 -40 -68s-40.5 -37 -65.5 -51
s-51.833 -24.833 -80.5 -32.5s-57 -11.5 -85 -11.5c-62.667 0 -119.667 11.5 -171 34.5s-95.166 54.5 -131.499 94.5s-64.5 86.5 -84.5 139.5s-30 109.5 -30 169.5c0 62 10.5 119.167 31.5 171.5s50.667 97.5 89 135.5s84.333 67.5 138 88.5s113.167 31.5 178.5 31.5h797
v-300h-735c-20.667 0 -39.5 -3.16699 -56.5 -9.5s-31.667 -15 -44 -26s-21.833 -23.833 -28.5 -38.5s-10 -30.667 -10 -48c0 -38.667 9.16699 -68.334 27.5 -89c18.333 -20.667 42.166 -31 71.499 -31c12.667 0 24.5 2.16699 35.5 6.5s20.833 11 29.5 20
s15.5 20.667 20.5 35s7.5 31.5 7.5 51.5h264c0 -42.667 7.83301 -73.5 23.5 -92.5s37.5 -28.5 65.5 -28.5z" />
    <glyph glyph-name="maitaikhuleftthai" unicode="&#xf712;" 
d="M-1239 2449c26 0 47.332 10.333 63.999 31l160 -191c-15.333 -50 -41.333 -89 -78 -117s-87.667 -42 -153 -42c-26 0 -50.667 4 -74 12s-44.166 19.333 -62.499 34s-34 32.167 -47 52.5s-21.833 43.166 -26.5 68.5c-8 -25.333 -21.333 -48 -40 -68s-40.5 -37 -65.5 -51
s-51.833 -24.833 -80.5 -32.5s-57 -11.5 -85 -11.5c-62.667 0 -119.667 11.5 -171 34.5s-95.166 54.5 -131.499 94.5s-64.5 86.5 -84.5 139.5s-30 109.5 -30 169.5c0 62 10.5 119.167 31.5 171.5s50.667 97.5 89 135.5s84.333 67.5 138 88.5s113.167 31.5 178.5 31.5h797
v-300h-735c-20.667 0 -39.5 -3.16699 -56.5 -9.5s-31.667 -15 -44 -26s-21.833 -23.833 -28.5 -38.5s-10 -30.667 -10 -48c0 -38.667 9.16699 -68.334 27.5 -89c18.333 -20.667 42.166 -31 71.499 -31c12.667 0 24.5 2.16699 35.5 6.5s20.833 11 29.5 20
s15.5 20.667 20.5 35s7.5 31.5 7.5 51.5h264c0 -42.667 7.83301 -73.5 23.5 -92.5s37.5 -28.5 65.5 -28.5z" />
    <glyph glyph-name="maiekupperleftthai" 
d="M-1500 3262h416v-396h-416v396z" />
    <glyph glyph-name="maiekupperleftthai" unicode="&#xf713;" 
d="M-1500 3262h416v-396h-416v396z" />
    <glyph glyph-name="maithoupperleftthai" 
d="M-1026 3296v-222h493v-271h-982v214h-250v279h739z" />
    <glyph glyph-name="maithoupperleftthai" unicode="&#xf714;" 
d="M-1026 3296v-222h493v-271h-982v214h-250v279h739z" />
    <glyph glyph-name="maitriupperleftthai" 
d="M-1536 2806l-4.00195 37c-1.33301 12.667 -2 26.667 -2 42c0 59.333 8.83301 114 26.5 164s43.334 93 77.001 129s75.167 64 124.5 84s106 30 170 30c30.667 0 60.334 -4.5 89.001 -13.5s54.667 -22 78 -39s43.666 -37.333 60.999 -61s30 -49.834 38 -78.5
c6.66699 28.667 19 54.834 37 78.5c18 23.667 39.167 44 63.5 61s50.833 30 79.5 39s57 13.5 85 13.5c47.333 0 89.5 -6.16699 126.5 -18.5s68.833 -29.666 95.5 -52c26.667 -22.333 47.834 -49.166 63.501 -80.5c15.667 -31.333 26.167 -66.333 31.5 -105
c7.33301 1.33301 15.666 2.66602 24.999 4c9.33301 1.33301 18 2.33301 26 3c9.33301 0.666992 18.666 1 27.999 1h71v-246h-338c-15.333 0 -29.166 4 -41.499 12s-18.5 21.667 -18.5 41c0 42 -9.16699 73.5 -27.5 94.5s-43.5 31.5 -75.5 31.5
c-23.333 0 -42.166 -6 -56.499 -18s-25.333 -26.667 -33 -44s-12 -36.166 -13 -56.5c-1 -20.333 0.166992 -38.833 3.5 -55.5h-276c2.66699 17.333 3.16699 36.166 1.5 56.5c-1.66699 20.333 -6.16699 39.166 -13.5 56.5c-7.33301 17.333 -17.833 31.833 -31.5 43.5
s-31.5 17.5 -53.5 17.5c-20 0 -37 -4.66699 -51 -14s-24.833 -21.333 -32.5 -36s-12.667 -31 -15 -49s-1.83301 -35.667 1.5 -53z" />
    <glyph glyph-name="maitriupperleftthai" unicode="&#xf715;" 
d="M-1536 2806l-4.00195 37c-1.33301 12.667 -2 26.667 -2 42c0 59.333 8.83301 114 26.5 164s43.334 93 77.001 129s75.167 64 124.5 84s106 30 170 30c30.667 0 60.334 -4.5 89.001 -13.5s54.667 -22 78 -39s43.666 -37.333 60.999 -61s30 -49.834 38 -78.5
c6.66699 28.667 19 54.834 37 78.5c18 23.667 39.167 44 63.5 61s50.833 30 79.5 39s57 13.5 85 13.5c47.333 0 89.5 -6.16699 126.5 -18.5s68.833 -29.666 95.5 -52c26.667 -22.333 47.834 -49.166 63.501 -80.5c15.667 -31.333 26.167 -66.333 31.5 -105
c7.33301 1.33301 15.666 2.66602 24.999 4c9.33301 1.33301 18 2.33301 26 3c9.33301 0.666992 18.666 1 27.999 1h71v-246h-338c-15.333 0 -29.166 4 -41.499 12s-18.5 21.667 -18.5 41c0 42 -9.16699 73.5 -27.5 94.5s-43.5 31.5 -75.5 31.5
c-23.333 0 -42.166 -6 -56.499 -18s-25.333 -26.667 -33 -44s-12 -36.166 -13 -56.5c-1 -20.333 0.166992 -38.833 3.5 -55.5h-276c2.66699 17.333 3.16699 36.166 1.5 56.5c-1.66699 20.333 -6.16699 39.166 -13.5 56.5c-7.33301 17.333 -17.833 31.833 -31.5 43.5
s-31.5 17.5 -53.5 17.5c-20 0 -37 -4.66699 -51 -14s-24.833 -21.333 -32.5 -36s-12.667 -31 -15 -49s-1.83301 -35.667 1.5 -53z" />
    <glyph glyph-name="maichattawaupperleftthai" 
d="M-1502 2967h-212v254h212v173h406v-173h212v-253h-212v-177h-406v176z" />
    <glyph glyph-name="maichattawaupperleftthai" unicode="&#xf716;" 
d="M-1502 2967h-212v254h212v173h406v-173h212v-253h-212v-177h-406v176z" />
    <glyph glyph-name="thanthakhatupperleftthai" 
d="M-1086 2780v-202h-559v362c0 24.667 4.16699 48.5 12.5 71.5s20.666 43.167 36.999 60.5s36.333 31.166 60 41.5c23.667 10.333 50.834 15.5 81.501 15.5h840v-349h-472z" />
    <glyph glyph-name="thanthakhatupperleftthai" unicode="&#xf717;" 
d="M-1086 2780v-202h-559v362c0 24.667 4.16699 48.5 12.5 71.5s20.666 43.167 36.999 60.5s36.333 31.166 60 41.5c23.667 10.333 50.834 15.5 81.501 15.5h840v-349h-472z" />
    <glyph glyph-name="uni00A0" unicode="&#xa0;" horiz-adv-x="870" 
 />
    <glyph glyph-name="cent" unicode="&#xa2;" horiz-adv-x="1678" 
d="M1157 887c60.667 0 119.165 13.6689 175.498 41.002s104.833 65.666 145.5 114.999h105v-580c-37.333 -26.667 -81.666 -52.167 -132.999 -76.5s-108.333 -44.833 -171 -61.5v-326h-580v341c-90 28 -172.5 67.167 -247.5 117.5s-139.5 109.833 -193.5 178.5
s-95.833 145.834 -125.5 231.501s-44.5 178.167 -44.5 277.5c0 98 15 189.667 45 275s71.833 162.166 125.5 230.499s118 127.666 193 177.999s157.5 89.5 247.5 117.5v373h580v-355c58.667 -14 111.5 -31.333 158.5 -52s87.833 -42.334 122.5 -65.001v-593h-68
c-21.333 24 -45.166 45.167 -71.499 63.5s-53.666 33.666 -81.999 45.999s-57.5 21.666 -87.5 27.999s-59.667 9.5 -89 9.5c-51.333 0 -97.5 -6.33301 -138.5 -19s-75.833 -30.167 -104.5 -52.5s-50.5 -48.666 -65.5 -78.999s-22.5 -63.5 -22.5 -99.5
c0 -38 7.5 -73.167 22.5 -105.5s36.667 -60.166 65 -83.499s62.666 -41.666 102.999 -54.999s85.5 -20 135.5 -20z" />
    <glyph glyph-name="sterling" unicode="&#xa3;" horiz-adv-x="2132" 
d="M389 1303c-12 18.667 -23.999 40.5039 -35.999 65.5039s-22.5 51.333 -31.5 79s-16.333 56 -22 85s-8.5 56.833 -8.5 83.5c0 111.333 22 212 66 302s104.833 166.833 182.5 230.5s169.5 112.834 275.5 147.5c106 34.667 221 52 345 52c126.667 0 242 -18.333 346 -55
s193.333 -88.667 268 -156s132.5 -148.333 173.5 -243s61.5 -199.667 61.5 -315l-710 -3c0 32.667 -3.83301 61.667 -11.5 87s-18 46.666 -31 63.999s-28.5 30.5 -46.5 39.5s-37 13.5 -57 13.5s-38.333 -4.16699 -55 -12.5s-31.334 -20 -44.001 -35s-22.5 -33 -29.5 -54
s-10.5 -44.167 -10.5 -69.5c0 -30.667 3.66699 -58.834 11 -84.501s16.5 -50.334 27.5 -74.001s22.833 -47.334 35.5 -71.001s24 -49.167 34 -76.5h492v-506h-421c-3.33301 -24 -9.83301 -48.5 -19.5 -73.5s-19.834 -49.5 -30.501 -73.5
c32.667 -5.33301 64.834 -14.166 96.501 -26.499l97 -38c33 -13 67.167 -24.333 102.5 -34s73 -14.5 113 -14.5c58 0 111 13.167 159 39.5s89.333 68.833 124 127.5l265 -466c-40.667 -42 -80.834 -79.333 -120.501 -112s-82 -60.334 -127 -83.001s-94.667 -40 -149 -52
s-116.833 -18 -187.5 -18c-58.667 0 -110.667 4 -156 12s-86.5 18 -123.5 30s-71.667 25.167 -104 39.5s-65 27.5 -98 39.5s-67.667 22 -104 30s-77.5 12 -123.5 12c-27.333 0 -58.5 -2.83301 -93.5 -8.5s-71.667 -16.334 -110 -32.001s-77.666 -37.167 -117.999 -64.5
s-79.5 -62.666 -117.5 -105.999l-323 455c27.333 26.667 57 52.5 89 77.5s65.167 48.5 99.5 70.5s69.333 42.167 105 60.5s70.5 34.5 104.5 48.5l46.5 80.5c15.667 26.333 26.5 52.833 32.5 79.5h-442v506h309z" />
    <glyph glyph-name="yen" unicode="&#xa5;" horiz-adv-x="2280" 
d="M737 764l0.000976562 161.001l-64 124h-471v432h248l-447 865h832l223 -504c8.66699 -18.667 17.667 -40.834 27 -66.501s17.666 -50.167 24.999 -73.5l26 -86l26 85c7.33301 23.333 15.5 48 24.5 74s18.167 48.333 27.5 67l224 504h832l-447 -865h267v-432h-490
l-64 -124v-161h554v-432h-554v-332h-799v332h-535v432h535z" />
    <glyph glyph-name="copyright" unicode="&#xa9;" horiz-adv-x="2585" 
d="M1291 2362c111.333 0 217.667 -14.332 319 -42.999s195.5 -69 282.5 -121s166 -114.333 237 -187s131.5 -153.334 181.5 -242.001s88.5 -183.834 115.5 -285.501s40.5 -207.5 40.5 -317.5c0 -115.333 -13.833 -225 -41.5 -329s-66.834 -200.333 -117.5 -289
c-50.667 -88.667 -111.5 -168.667 -182.5 -240s-150.167 -132 -237.5 -182s-181.333 -88.5 -282 -115.5s-206 -40.5 -316 -40.5s-215.5 13.333 -316.5 40s-195.167 65 -282.5 115s-166.666 110.667 -237.999 182s-132.333 151.333 -183 240s-89.834 185 -117.501 289
s-41.5 214 -41.5 330c0 110 13.667 216 41 318s66 197.333 116 286s110.5 169.334 181.5 242.001s150.167 135 237.5 187s181.833 92.167 283.5 120.5s208.5 42.5 320.5 42.5zM1300 286.001c78.667 0 154.331 9.83301 226.998 29.5s140.834 48 204.501 85
s121.667 81.667 174 134s97.166 111.166 134.499 176.499s66.333 136.5 87 213.5s31 158.5 31 244.5c0 76 -9.33301 150.667 -28 224s-45.5 142.666 -80.5 207.999s-77.667 125.5 -128 180.5s-107.166 102.5 -170.499 142.5s-132.833 71.167 -208.5 93.5
s-156.167 33.5 -241.5 33.5c-86 0 -166.833 -11 -242.5 -33s-145.334 -53 -209.001 -93s-120.667 -87.5 -171 -142.5s-93 -115.167 -128 -180.5s-61.833 -134.666 -80.5 -207.999s-28 -148.333 -28 -225c0 -86 10.333 -167.5 31 -244.5s49.834 -148.167 87.501 -213.5
s82.834 -124.166 135.501 -176.499s110.667 -97 174 -134s131.333 -65.333 204 -85s148 -29.5 226 -29.5zM1695 571.001c-20.667 -16 -44.0039 -31.3262 -70.0039 -45.9932s-54.667 -27.834 -86 -39.501s-65.666 -21 -102.999 -28s-77.333 -10.5 -120 -10.5
c-90.667 0 -176.667 17.5 -258 52.5s-152.666 84.167 -213.999 147.5s-110 138.666 -146 225.999s-54 183.666 -54 288.999c0 69.333 8 135.333 24 198s38.333 120.667 67 174s63.334 101.333 104.001 144s85.834 79.167 135.501 109.5s102.834 53.5 159.501 69.5
s116 24 178 24c44 0 84.333 -3.16699 121 -9.5s70 -14.833 100 -25.5s57 -22.834 81 -36.501s45.667 -27.5 65 -41.5l-38 -478h-1c-13.333 20.667 -28.5 40 -45.5 58s-35.667 33.667 -56 47s-42.666 23.666 -66.999 30.999s-50.5 11 -78.5 11
c-34 0 -65.167 -6.33301 -93.5 -19s-52.5 -30 -72.5 -52s-35.667 -47.5 -47 -76.5s-17 -59.833 -17 -92.5s5.5 -63.834 16.5 -93.501s26.667 -55.834 47 -78.501s44.666 -40.667 72.999 -54s60.166 -20 95.499 -20c32 0 61.167 4.33301 87.5 13s50 20.667 71 36
s39.667 33.333 56 54s30.5 43 42.5 67z" />
    <glyph glyph-name="guillemotleft" unicode="&#xab;" horiz-adv-x="2183" 
d="M1162 464l-411 -359l-703 832l704 835l407 -363l-401 -472zM2118 464l-411 -359l-703 832l704 835l407 -363l-402 -472z" />
    <glyph glyph-name="registered" unicode="&#xae;" horiz-adv-x="1525" 
d="M765 1220c75.333 0 144.335 12.002 207.002 36.002s116.667 58.167 162 102.5s80.666 98.166 105.999 161.499s38 134.333 38 213c0 66 -12.333 129.833 -37 191.5s-59.334 116.334 -104.001 164.001s-98.5 85.667 -161.5 114s-132.833 42.5 -209.5 42.5
c-77.333 0 -147.5 -14.167 -210.5 -42.5s-117 -66.166 -162 -113.499s-79.833 -101.833 -104.5 -163.5s-37 -125.834 -37 -192.501c0 -74.667 13.667 -143.334 41 -206.001s64.333 -116.834 111 -162.501s101 -81.167 163 -106.5s128 -38 198 -38zM767.002 1718
c31.333 0 56 8.16699 74 24.5s27 43.5 27 81.5c0 32 -9 56.833 -27 74.5s-42.667 26.5 -74 26.5h-32v-207h32zM770.002 2416c66.667 0 129.664 -8.16895 188.997 -24.502s114 -39.333 164 -69s95.167 -65.334 135.5 -107c40.333 -41.667 74.5 -87.667 102.5 -138
s49.5 -104.5 64.5 -162.5s22.5 -118 22.5 -180c0 -98 -16.667 -188.833 -50 -272.5s-80.166 -156 -140.499 -217s-132.5 -108.667 -216.5 -143s-176.667 -51.5 -278 -51.5c-64 0 -125.5 7.83301 -184.5 23.5s-114 37.834 -165 66.501s-97.333 63.5 -139 104.5
s-77.334 86.833 -107.001 137.5s-52.5 105.5 -68.5 164.5s-24 121.5 -24 187.5c0 62.667 8.16699 122.834 24.5 180.501s39.333 111.667 69 162s65.334 96.333 107.001 138s88.334 77.334 140.001 107c51.667 29.667 107.334 52.667 167.001 69s122.167 24.5 187.5 24.5z
M735.999 1352l-224 0.000976562v750h317c43.333 0 82.333 -7.33301 117 -22s64.167 -34.334 88.5 -59.001s43 -53.167 56 -85.5s19.5 -65.833 19.5 -100.5c0 -36.667 -4.83301 -69.834 -14.5 -99.501s-23 -55.167 -40 -76.5s-37 -38.666 -60 -51.999
s-47.5 -22.333 -73.5 -27l175 -228h-257l-104 191v-191z" />
    <glyph glyph-name="guillemotright" unicode="&#xbb;" horiz-adv-x="2183" 
d="M1425 937l-401 472l407 363l704 -835l-703 -832l-411 359zM470 937l-402 472l407 363l704 -835l-703 -832l-411 359z" />
    <glyph glyph-name="onequarter" unicode="&#xbc;" horiz-adv-x="3245" 
d="M66 1893l192 453h755v-1539h-588v1086h-359zM3106 635v-452h-145v-183h-588v183h-857v185l815 1171h630v-904h145zM2375 941l-270 -393h270v393zM1099 -108l-329 197l1391 2408l328 -198z" />
    <glyph glyph-name="onehalf" unicode="&#xbd;" horiz-adv-x="3245" 
d="M1914 971c2 88 19 169.331 51 243.998s75.167 139.334 129.5 194.001s118.666 97.5 193 128.5c74.333 31 155.166 46.5 242.5 46.5c97.333 0 183.333 -14.167 258 -42.5s137.167 -67 187.5 -116s88.5 -106 114.5 -171s39 -134.5 39 -208.5
c0 -107.333 -37 -213.666 -111 -318.999l-193 -275h278v-452h-1186l622 881c15.333 21.333 27.833 41.833 37.5 61.5s14.5 40.167 14.5 61.5c0 28 -6.83301 50.333 -20.5 67s-34.167 25 -61.5 25c-7.33301 0 -16 -1.5 -26 -4.5s-19.5 -9 -28.5 -18s-16.5 -21.667 -22.5 -38
s-8.33301 -37.833 -7 -64.5h-511zM1059 -108.002l-329 197l1391 2408l328 -198zM66 1893l192 453h755v-1539h-588v1086h-359z" />
    <glyph glyph-name="threequarters" unicode="&#xbe;" horiz-adv-x="3245" 
d="M566 1318c1.33301 -31.333 12.335 -55.834 33.002 -73.501s44.667 -26.5 72 -26.5c34 0 59.667 11.167 77 33.5s26 50.5 26 84.5c0 16 -3.5 31.833 -10.5 47.5s-17.333 29.167 -31 40.5s-30.667 19.666 -51 24.999s-43.5 6 -69.5 2v239
c22 -1.33301 41 0.833984 57 6.50098s29.5 13.5 40.5 23.5s19.167 21.667 24.5 35s8 27 8 41c0 34 -7.83301 58.167 -23.5 72.5s-35.167 21.5 -58.5 21.5c-12 0 -22.833 -2.16699 -32.5 -6.5s-18 -10.333 -25 -18s-12.333 -16.5 -16 -26.5s-4.83398 -20.667 -3.50098 -32
h-464c-2.66699 80 10.666 152.833 39.999 218.5s69.5 122 120.5 169s110.167 83.333 177.5 109s137.666 38.5 210.999 38.5c78 0 149.667 -11.333 215 -34s121.833 -54.5 169.5 -95.5s84.667 -90.5 111 -148.5s39.5 -122 39.5 -192c0 -53.333 -12.667 -104.5 -38 -153.5
s-60 -90.5 -104 -124.5c26.667 -17.333 51.334 -37.5 74.001 -60.5s42.334 -49 59.001 -78s29.667 -60.833 39 -95.5s14 -72 14 -112c0 -67.333 -13.5 -131.666 -40.5 -192.999s-65.833 -115.5 -116.5 -162.5s-111.834 -84.5 -183.501 -112.5s-152.167 -42 -241.5 -42
c-80 0 -155.333 12.833 -226 38.5s-132.167 63 -184.5 112s-93.5 109.5 -123.5 181.5s-44.333 154.667 -43 248h478zM3106 634.999v-452h-145v-183h-588v183h-857v185l815 1171h630v-904h145zM2375 940.999l-270 -393h270v393zM1099 -108.001l-329 197l1391 2408l328 -198z
" />
    <glyph glyph-name="multiply" unicode="&#xd7;" horiz-adv-x="2132" 
d="M1067 514l-599 -600l-367 373l596 596l-596 597l367 373l599 -600l600 600l362 -376l-593 -594l593 -593l-362 -376z" />
    <glyph glyph-name="divide" unicode="&#xf7;" horiz-adv-x="2047" 
d="M1921 1141v-464h-1790v464h1790zM729 265c0 40 7.66699 77.667 23 113s36 66 62 92s56.667 46.667 92 62s73 23 113 23s77.667 -7.66699 113 -23s66 -36 92 -62s46.667 -56.667 62 -92s23 -73 23 -113s-7.66699 -77.667 -23 -113s-36 -66 -62 -92
s-56.667 -46.667 -92 -62s-73 -23 -113 -23s-77.667 7.66699 -113 23s-66 36 -92 62s-46.667 56.667 -62 92s-23 73 -23 113zM729 1553c0 40 7.66699 77.667 23 113s36 66 62 92s56.667 46.667 92 62s73 23 113 23s77.667 -7.66699 113 -23s66 -36 92 -62
s46.667 -56.667 62 -92s23 -73 23 -113s-7.66699 -77.667 -23 -113s-36 -66 -62 -92s-56.667 -46.667 -92 -62s-73 -23 -113 -23s-77.667 7.66699 -113 23s-66 36 -92 62s-46.667 56.667 -62 92s-23 73 -23 113z" />
    <glyph glyph-name="kokaithai" unicode="&#xe01;" horiz-adv-x="2050" 
d="M1140 0l-0.000976562 1183c0 24 -3.83301 44 -11.5 60s-17.167 28.833 -28.5 38.5s-23.5 16.667 -36.5 21s-24.5 6.5 -34.5 6.5c-11.333 0 -23.833 -2.16699 -37.5 -6.5s-26.5 -11.5 -38.5 -21.5s-22 -23.167 -30 -39.5s-12 -36.5 -12 -60.5v-1181h-768v1157
c0 99.333 20.167 193.333 60.5 282s98.5 166.334 174.5 233.001s168.667 119.5 278 158.5s233 58.5 371 58.5s261.5 -19.5 370.5 -58.5s201.333 -91.667 277 -158s133.334 -143.5 173.001 -231.5s59.5 -181 59.5 -279v-1162h-767z" />
    <glyph glyph-name="khokhaithai" unicode="&#xe02;" horiz-adv-x="2050" 
d="M144 961c0 34.667 4.33008 65.5 12.9971 92.5s19.334 52 32.001 75s26.667 44.833 42 65.5s29.333 42 42 64s23.334 45.833 32.001 71.5s13 55.167 13 88.5v450h694v-469c0 -42 -2.5 -77 -7.5 -105s-11 -52.333 -18 -73s-14.833 -39.167 -23.5 -55.5
s-16.667 -33.333 -24 -51s-13.666 -37.334 -18.999 -59.001s-8 -48.5 -8 -80.5l-1 -288c0 -24 4 -44.167 12 -60.5s18 -29.5 30 -39.5s24.833 -17.167 38.5 -21.5s26.167 -6.5 37.5 -6.5c10 0 21.5 2.16699 34.5 6.5s25.167 11.333 36.5 21s20.833 22.5 28.5 38.5
s11.5 36 11.5 60v1183h767v-1162c0 -98 -19.833 -191 -59.5 -279s-97.334 -165.167 -173.001 -231.5s-168 -119 -277 -158s-232.5 -58.5 -370.5 -58.5s-261.667 19.5 -371 58.5s-202 91.833 -278 158.5s-134.167 144.334 -174.5 233.001s-60.166 182.667 -59.499 282v250z
" />
    <glyph glyph-name="khokhuatthai" unicode="&#xe03;" horiz-adv-x="2070" 
d="M172 698c0 58.667 9.00293 112.169 27.0029 160.502s39 90.833 63 127.5c18.667 28 29.5 56.167 32.5 84.5s0.833008 57.5 -6.5 87.5c-9.33301 28.667 -22.166 53.5 -38.499 74.5s-35.5 38 -57.5 51s-46 22.333 -72 28s-53 8.16699 -81 7.5l115 572
c38.667 -3.33301 77.5 -12 116.5 -26s75.5 -31.667 109.5 -53s64.5 -45.333 91.5 -72s47.833 -54 62.5 -82l1 210h517v-549c0 -42 -3 -77 -9 -105s-13.333 -52.333 -22 -73s-18.334 -39.167 -29.001 -55.5s-20.334 -33.333 -29.001 -51s-16 -37.334 -22 -59.001
s-9 -48.5 -9 -80.5v-208c0 -24 4 -44.167 12 -60.5s18 -29.5 30 -39.5s24.667 -17.167 38 -21.5s25.666 -6.5 36.999 -6.5c10 0 21.5 2.16699 34.5 6.5s25.167 11.333 36.5 21s20.833 22.5 28.5 38.5s11.5 36 11.5 60v1183h767v-1162c0 -98 -19.833 -191 -59.5 -279
s-97.334 -165.167 -173.001 -231.5s-168 -119 -277 -158s-232.5 -58.5 -370.5 -58.5s-261.167 18.833 -369.5 56.5s-200 89 -275 154s-132.167 141.167 -171.5 228.5s-59 180.666 -59 279.999z" />
    <glyph glyph-name="khokhwaithai" unicode="&#xe04;" horiz-adv-x="2159" 
d="M1247 1152c0 32 -6.16797 58.6641 -18.501 79.9971s-27.5 38.333 -45.5 51s-37 21.5 -57 26.5s-38 7.5 -54 7.5s-34.167 -2.5 -54.5 -7.5s-39.333 -13.833 -57 -26.5s-32.667 -29.834 -45 -51.501s-18.5 -48.834 -18.5 -81.501v-184h214v-529h-214v-437h-754v1124
c0 69.333 9.83301 136.333 29.5 201s48.334 125.334 86.001 182.001s83.667 108.334 138 155.001s116.333 86.834 186 120.501s146.334 59.834 230.001 78.501s173.5 28 269.5 28s185.833 -9.33301 269.5 -28s160 -44.667 229 -78s130.5 -73.333 184.5 -120
s99.667 -98.167 137 -154.5s65.666 -116.666 84.999 -180.999s29 -130.5 29 -198.5v-1129h-769v1152z" />
    <glyph glyph-name="khokhonthai" unicode="&#xe05;" horiz-adv-x="2159" 
d="M2016 0l-768.996 0.000976562v1281c-6.66699 -4 -16.334 -7.83301 -29.001 -11.5s-26.834 -6.83398 -42.501 -9.50098s-32.334 -4.83398 -50.001 -6.50098s-34.834 -2.5 -51.501 -2.5c-16 0 -32.5 0.833008 -49.5 2.5s-33.5 3.83398 -49.5 6.50098
s-30.833 5.83398 -44.5 9.50098s-24.834 7.83398 -33.501 12.501v-316h214v-529h-214v-437h-754v1137c0 90 14.5 176.167 43.5 258.5s72 157 129 224s127.5 124 211.5 171s181.333 80.167 292 99.5c4.66699 -34.667 16.334 -64.334 35.001 -89.001
s40.5 -44.834 65.5 -60.501s51.667 -27.167 80 -34.5s55.166 -11 80.499 -11c26 0 53.5 3.66699 82.5 11s56 19 81 35s46.333 36.333 64 61s28.834 54 33.501 88c109.333 -20 206 -53.667 290 -101s154.5 -104.333 211.5 -171s100.167 -141 129.5 -223s44 -168 44 -258
v-1137z" />
    <glyph glyph-name="khorakhangthai" unicode="&#xe06;" horiz-adv-x="2221" 
d="M314 1011c0 86 -22.1689 156.333 -66.502 211s-112.833 89.667 -205.5 105l115 561c58.667 3.33301 113.834 -3.66699 165.501 -21s98.5 -42 140.5 -74s78.667 -69.833 110 -113.5s56 -89.5 74 -137.5c14 42.667 34.667 84.5 62 125.5s58.5 77.667 93.5 110
s72.833 58.5 113.5 78.5s81.667 30.667 123 32l165 -523c-24.667 -12 -45 -26 -61 -42s-28.667 -33.667 -38 -53s-15.833 -40.333 -19.5 -63s-5.5 -46.667 -5.5 -72l1 -450c0 -37.333 10.5 -67.666 31.5 -90.999s47.833 -35 80.5 -35c13.333 0 27 2.16699 41 6.5
s26.667 11.5 38 21.5s20.5 23.167 27.5 39.5s10.5 36.5 10.5 60.5v1181h768v-1157c0 -103.333 -19.5 -199.5 -58.5 -288.5s-94.5 -166.333 -166.5 -232s-159.167 -117.334 -261.5 -155.001s-216.833 -56.5 -343.5 -56.5c-79.333 0 -150 9 -212 27s-116.5 40.5 -163.5 67.5
s-86.667 56.167 -119 87.5s-58.166 60 -77.499 86l-30 -247h-465v874h152c-7.33301 22 -12.333 43.333 -15 64s-4 36.667 -4 48v25z" />
    <glyph glyph-name="ngonguthai" unicode="&#xe07;" horiz-adv-x="1904" 
d="M661 750c2.66699 -28 7.99902 -54.332 15.999 -78.999s19 -46.334 33 -65.001s31.167 -33.334 51.5 -44.001s44.166 -16 71.499 -16c26 0 48.833 4 68.5 12s36.334 19.167 50.001 33.5s24 31.333 31 51s10.5 41.5 10.5 65.5v631h-331v529h1099v-1147
c0 -68 -9.66699 -133.833 -29 -197.5s-46.833 -123.167 -82.5 -178.5s-79.334 -106.166 -131.001 -152.499s-109.667 -85.833 -174 -118.5s-134.666 -58.167 -210.999 -76.5s-157.166 -27.5 -242.499 -27.5c-108 0 -210.667 13.833 -308 41.5s-184.333 69.5 -261 125.5
s-141.167 126.5 -193.5 211.5s-87.5 184.833 -105.5 299.5z" />
    <glyph glyph-name="chochanthai" unicode="&#xe08;" horiz-adv-x="1924" 
d="M1781 0l-754 0.000976562v437h-395v529h395v207c0 20 -3.33301 38.667 -10 56s-15.834 32.166 -27.501 44.499s-25.5 22.166 -41.5 29.499s-33.333 11 -52 11c-15.333 0 -30.166 -2.33301 -44.499 -7s-27.666 -13.167 -39.999 -25.5s-23 -29.166 -32 -50.499
s-15.167 -48.333 -18.5 -81l-716 87c10 63.333 28.333 123.666 55 180.999s60 110.166 100 158.499s86 91.833 138 130.5s108.5 71.5 169.5 98.5s125.667 47.833 194 62.5s138.833 22 211.5 22c92 0 177.333 -9 256 -27s150.167 -43.167 214.5 -75.5
s121.166 -71.166 170.499 -116.499s90.833 -95.166 124.5 -149.499s59.167 -112.333 76.5 -174s26 -125.167 26 -190.5v-1157z" />
    <glyph glyph-name="chochingthai" unicode="&#xe09;" horiz-adv-x="2050" 
d="M1140 1149c0 71.333 -15.3369 121.502 -46.0039 150.502s-78.667 43.5 -144 43.5h-822l191 527h898c110.667 0 209 -13.167 295 -39.5s158.167 -65.5 216.5 -117.5s102.666 -116.833 132.999 -194.5s45.5 -167.834 45.5 -270.501v-212
c0 -26.667 -2.16699 -54.834 -6.5 -84.501s-10.166 -55.5 -17.499 -77.5h117v-874h-425l-30 247c-19.333 -26 -45.166 -54.667 -77.499 -86s-72 -60.5 -119 -87.5s-101.667 -49.5 -164 -67.5s-132.833 -27 -211.5 -27c-84.667 0 -164 8.5 -238 25.5
s-141.667 41.167 -203 72.5s-116.166 69 -164.499 113s-89.166 93.167 -122.499 147.5s-58.666 113 -75.999 176s-26 128.833 -26 197.5v417h768v-441c0 -24 4 -44.167 12 -60.5s18 -29.5 30 -39.5s24.833 -17.167 38.5 -21.5s26.167 -6.5 37.5 -6.5
c10 0 21.5 2.16699 34.5 6.5s25.167 11.333 36.5 21s20.833 22.5 28.5 38.5s11.5 36 11.5 60v464z" />
    <glyph glyph-name="chochangthai" unicode="&#xe0a;" horiz-adv-x="2050" 
d="M1140 1028c0.666992 54 -11.501 98.5 -36.501 133.5s-62.5 59.167 -112.5 72.5c-8 -24 -16.5 -44.833 -25.5 -62.5s-17.5 -35.5 -25.5 -53.5s-14.667 -38 -20 -60s-8 -49.667 -8 -83l-1 -288c0 -24 3.66699 -44.167 11 -60.5s16.833 -29.5 28.5 -39.5
s24.334 -17.167 38.001 -21.5s27.167 -6.5 40.5 -6.5c12 0 24.667 2.16699 38 6.5s25.333 11.333 36 21s19.5 22.5 26.5 38.5s10.5 36 10.5 60v343zM1002 1611c24 -1.33301 47.332 2.66211 69.999 11.9951s42.667 22.5 60 39.5s31.166 36.833 41.499 59.5s15.5 47 15.5 73
v163h719v-175c0 -49.333 -7.5 -94.666 -22.5 -135.999s-35.167 -77.666 -60.5 -108.999s-54.5 -57.666 -87.5 -78.999s-67.5 -36.666 -103.5 -45.999c36 -8 70.5 -22.833 103.5 -44.5s62.167 -49.167 87.5 -82.5s45.333 -72 60 -116s22 -92.333 22 -145v-319
c0 -98 -19.833 -191 -59.5 -279s-97.334 -165.167 -173.001 -231.5s-168 -119 -277 -158s-232.5 -58.5 -370.5 -58.5s-261.667 19.5 -371 58.5s-202 91.833 -278 158.5s-134.167 144.334 -174.5 233.001s-60.166 182.667 -59.499 282v250c0 34.667 4.33301 65.5 13 92.5
s19.334 52 32.001 75s26.667 44.833 42 65.5s29.333 42 42 64s23.334 45.833 32.001 71.5s13 55.167 13 88.5v450h684v-257z" />
    <glyph glyph-name="sosothai" unicode="&#xe0b;" horiz-adv-x="2070" 
d="M1160 1028c0.666992 54 -11.501 98.5 -36.501 133.5s-62.5 59.167 -112.5 72.5c-8 -24 -16.5 -44.833 -25.5 -62.5s-17.5 -35.5 -25.5 -53.5s-14.667 -38 -20 -60s-8 -49.667 -8 -83l-1 -288c0 -24 3.66699 -44.167 11 -60.5s16.833 -29.5 28.5 -39.5
s24.334 -17.167 38.001 -21.5s27.167 -6.5 40.5 -6.5c12 0 24.667 2.16699 38 6.5s25.333 11.333 36 21s19.5 22.5 26.5 38.5s10.5 36 10.5 60v343zM534.999 1868l487.001 -0.00390625v-257c24 -1.33301 47.333 2.66699 70 12s42.667 22.5 60 39.5
s31.166 36.833 41.499 59.5s15.5 47 15.5 73v163h719v-175c0 -49.333 -7.5 -94.666 -22.5 -135.999s-35.167 -77.666 -60.5 -108.999s-54.5 -57.666 -87.5 -78.999s-67.5 -36.666 -103.5 -45.999c36 -8 70.5 -22.833 103.5 -44.5s62.167 -49.167 87.5 -82.5
s45.333 -72 60 -116s22 -92.333 22 -145v-319c0 -98 -19.833 -191 -59.5 -279s-97.334 -165.167 -173.001 -231.5s-168 -119 -277 -158s-232.5 -58.5 -370.5 -58.5c-136 0 -258 19 -366 57s-199.833 89.833 -275.5 155.5s-133.5 142 -173.5 229s-60 179.5 -60 277.5
c0 58.667 9 112.167 27 160.5s39 90.833 63 127.5c18.667 28 29.5 56.167 32.5 84.5s0.833008 57.5 -6.5 87.5c-9.33301 28.667 -22.166 53.5 -38.499 74.5s-35.5 38 -57.5 51s-46 22.333 -72 28s-53 8.16699 -81 7.5l115 572c38.667 -3.33301 77.5 -12 116.5 -26
s75.5 -31.667 109.5 -53s64.5 -45.333 91.5 -72s47.833 -54 62.5 -82z" />
    <glyph glyph-name="chochoethai" unicode="&#xe0c;" horiz-adv-x="3017" 
d="M2874 711c0 -103.333 -18.834 -199.5 -56.501 -288.5s-92 -166.333 -163 -232s-157.167 -117.334 -258.5 -155.001s-215.333 -56.5 -342 -56.5c-79.333 0 -150 9 -212 27s-116.5 40.5 -163.5 67.5s-86.667 56.167 -119 87.5s-58.166 60 -77.499 86l-30 -247h-385v874h97
c-7.33301 22 -13.166 47.833 -17.499 77.5s-6.5 57.834 -6.5 84.501v143c0 24 -3.33301 44.167 -10 60.5s-15.334 29.666 -26.001 39.999s-22.667 17.833 -36 22.5s-26.333 7 -39 7c-13.333 0 -26.833 -2.33301 -40.5 -7s-26.334 -12.167 -38.001 -22.5
s-21.167 -24 -28.5 -41s-11 -37.5 -11 -61.5v-1177h-768v1157c0 99.333 20.167 193.333 60.5 282s98.5 166.334 174.5 233.001s168.667 119.5 278 158.5s233 58.5 371 58.5s260 -19.5 366 -58.5s194.833 -91.667 266.5 -158s125.834 -143.5 162.501 -231.5s55 -181 55 -279
v-477c0 -24 3.5 -44 10.5 -60s16.167 -28.833 27.5 -38.5s24 -16.667 38 -21s28 -6.5 42 -6.5s27.667 2.16699 41 6.5s25.166 11.5 35.5 21.5c10.333 10 18.666 23.167 25 39.5c6.33301 16.333 9.5 36.5 9.5 60.5v1181h768v-1157z" />
    <glyph glyph-name="yoyingthai" unicode="&#xe0d;" horiz-adv-x="3017" 
d="M1952 59c-90 -1.33301 -172.5 6.5 -247.5 23.5s-142.5 41.167 -202.5 72.5s-112.667 69.166 -158 113.499s-83.166 93.833 -113.499 148.5s-53.166 113.5 -68.499 176.5s-23 128.833 -23 197.5l1 388c0 24 -3.5 44.167 -10.5 60.5s-15.833 29.666 -26.5 39.999
s-22.5 17.833 -35.5 22.5s-25.833 7 -38.5 7c-13.333 0 -26.833 -2.33301 -40.5 -7s-26.334 -12.167 -38.001 -22.5s-21.167 -24 -28.5 -41s-11 -37.5 -11 -61.5v-1177h-768v1157c0 99.333 20.167 193.333 60.5 282s98.5 166.334 174.5 233.001s168.667 119.5 278 158.5
s233 58.5 371 58.5s260 -19.5 366 -58.5s194.833 -91.667 266.5 -158s125.834 -143.5 162.501 -231.5s55 -181 55 -279v-395c0 -24 3.66699 -44.167 11 -60.5s16.666 -29.5 27.999 -39.5s24 -17.167 38 -21.5s27.667 -6.5 41 -6.5c12 0 24.667 2.16699 38 6.5
s25.333 11.333 35.999 21c10.667 9.66699 19.5 22.5 26.5 38.5s10.5 36 10.5 60v1103h766v-1657c0 -110 -22.167 -211.667 -66.5 -305s-108.5 -174 -192.5 -242s-187.167 -121.333 -309.5 -160s-261.833 -58 -418.5 -58c-77.333 0 -151.666 6.66699 -222.999 20
s-137.5 31.666 -198.5 54.999s-115.333 50.833 -163 82.5s-86.5 65.834 -116.5 102.501l268 286c22 -25.333 47.667 -48.333 77 -69s61.666 -38.667 96.999 -54s73.833 -27.166 115.5 -35.499s86.167 -12.5 133.5 -12.5c49.333 0 92.5 6.33301 129.5 19s67.667 29 92 49
s42.5 42.833 54.5 68.5s18 51.5 18 77.5v15v22c0 8 0.5 16 1.5 24s2.5 15 4.5 21c-10 -6.66699 -23.5 -13.5 -40.5 -20.5s-35.5 -13.167 -55.5 -18.5s-41 -9.83301 -63 -13.5s-43.333 -5.5 -64 -5.5z" />
    <glyph glyph-name="dochadathai" unicode="&#xe0e;" horiz-adv-x="2050" 
d="M139 -589l142.001 345.997c20 0 45.667 -0.166992 77 -0.5s66.166 -0.666016 104.499 -0.999023s78.5 -0.833008 120.5 -1.5s83.833 -1.16699 125.5 -1.5s81.5 -0.833008 119.5 -1.5s72 -1.16699 102 -1.5s54.667 -0.666016 74 -0.999023s30.666 -0.5 33.999 -0.5
c14 0 27.667 3.33301 41 10s25 15.5 35 26.5s18 23.833 24 38.5s9 30 9 46c0 22.667 -1.16699 51.5 -3.5 86.5s-3.5 70.833 -3.5 107.5v1120c0 24 -3.83301 44 -11.5 60s-17.167 28.833 -28.5 38.5s-23.5 16.667 -36.5 21s-24.5 6.5 -34.5 6.5
c-11.333 0 -23.833 -2.16699 -37.5 -6.5s-26.5 -11.5 -38.5 -21.5s-22 -23.167 -30 -39.5s-12 -36.5 -12 -60.5v-1181h-768v1157c0 99.333 20.167 193.333 60.5 282s98.5 166.334 174.5 233.001s168.667 119.5 278 158.5s233 58.5 371 58.5s261.5 -19.5 370.5 -58.5
s201.333 -91.667 277 -158s133.334 -143.5 173.001 -231.5s59.5 -181 59.5 -279v-1122c0 -52 -7.33301 -104.833 -22 -158.5s-36.167 -105.334 -64.5 -155.001s-63.5 -96 -105.5 -139s-90.5 -79.667 -145.5 -110s-116.5 -53.166 -184.5 -68.499s-141.667 -20.333 -221 -15z
" />
    <glyph glyph-name="topatakthai" unicode="&#xe0f;" horiz-adv-x="2050" 
d="M1140 1183c0 24 -3.83203 44 -11.499 60s-17.167 28.833 -28.5 38.5s-23.5 16.667 -36.5 21s-24.5 6.5 -34.5 6.5c-11.333 0 -23.833 -2.16699 -37.5 -6.5s-26.5 -11.5 -38.5 -21.5s-22 -23.167 -30 -39.5s-12 -36.5 -12 -60.5v-1181h-768v1157
c0 99.333 20.167 193.333 60.5 282s98.5 166.334 174.5 233.001s168.667 119.5 278 158.5s233 58.5 371 58.5s261.5 -19.5 370.5 -58.5s201.333 -91.667 277 -158s133.334 -143.5 173.001 -231.5s59.5 -181 59.5 -279v-1122c0 -52 -7.33301 -104.833 -22 -158.5
s-36.167 -105.334 -64.5 -155.001s-63.5 -96 -105.5 -139s-90.5 -79.667 -145.5 -110s-116.5 -53.166 -184.5 -68.499s-141.667 -20.333 -221 -15c-94.667 6.66699 -173.5 24.667 -236.5 54s-108.5 70.333 -136.5 123c-25.333 -51.333 -63.833 -91.833 -115.5 -121.5
s-112.5 -44.5 -182.5 -44.5c-54 0 -104.5 9.33301 -151.5 28s-88.333 42.667 -124 72s-64.667 61.833 -87 97.5s-36.5 70.167 -42.5 103.5l335 122c13.333 -33.333 28.666 -55 45.999 -65s34.666 -15 51.999 -15c12 0 23.5 1.5 34.5 4.5s21 8.5 30 16.5
s16.333 19.167 22 33.5s9.16699 32.833 10.5 55.5h360c0.666992 -21.333 3.83398 -39 9.50098 -53s13.167 -25.167 22.5 -33.5s19.833 -14.333 31.5 -18s23.834 -5.5 36.501 -5.5c28.667 0 50.667 10.5 66 31.5s23 47.5 23 79.5c0 11.333 -1.33301 24.833 -4 40.5
s-5.83398 32.667 -9.50098 51s-6.83398 37.166 -9.50098 56.499s-4 38 -4 56v1120z" />
    <glyph glyph-name="thothanthai" unicode="&#xe10;" horiz-adv-x="1884" 
d="M985 -102l751.002 0.00195312v-57c-6 -56.667 -24.667 -108.334 -56 -155.001s-73.5 -86.667 -126.5 -120s-116.5 -59.166 -190.5 -77.499s-156.667 -27.5 -248 -27.5c-67.333 0 -127 3.16699 -179 9.5s-98.333 17.166 -139 32.499s-76.5 35.5 -107.5 60.5
s-59.167 56.167 -84.5 93.5c-10 -26 -22.667 -50.167 -38 -72.5s-34.833 -41.833 -58.5 -58.5s-52.167 -29.667 -85.5 -39s-72.666 -13.666 -117.999 -12.999l-235 5l127 267l26 -3c24.667 -1.33301 46.667 -0.833008 66 1.5s36.166 8.16602 50.499 17.499
s26.5 23.166 36.5 41.499s18.667 43.166 26 74.499c72 0.666992 136.333 1.33398 193 2.00098c24 0 47.667 0.166992 71 0.5s44.166 0.5 62.499 0.5s33.166 0.166992 44.499 0.5s17.333 0.5 18 0.5c1.33301 -36 10.833 -63.5 28.5 -82.5s42.5 -28.5 74.5 -28.5
c24 0 45.167 7.66699 63.5 23s27.5 36 27.5 62v42zM987.002 437.002l-394.998 0.00488281v529h395v207c0 20 -3.33301 38.667 -10 56s-15.834 32.166 -27.501 44.499s-25.5 22.166 -41.5 29.499s-33.333 11 -52 11c-14 0 -28.167 -2.16699 -42.5 -6.5s-27.5 -12 -39.5 -23
s-22.5 -26 -31.5 -45s-15.5 -42.833 -19.5 -71.5l-678 69c6.66699 51.333 19 102.5 37 153.5s41.333 99.667 70 146s62.5 89.666 101.5 129.999s83.167 75.166 132.5 104.499s103.666 52.5 162.999 69.5s123.666 25.5 192.999 25.5c38.667 0 74.834 -2.83301 108.501 -8.5
s64.167 -12.834 91.5 -21.501s50.666 -18.167 69.999 -28.5s34 -20.5 44 -30.5l1 1c-1.33301 10.667 -2.66602 24.167 -3.99902 40.5s-2 33.5 -2 51.5v95h690v-1965h-754v437z" />
    <glyph glyph-name="thonangmonthothai" unicode="&#xe11;" horiz-adv-x="2129" 
d="M991 0l-770.002 -0.00292969v976c0 53.333 -3.33301 98.5 -10 135.5s-17.167 68.333 -31.5 94s-33 46.5 -56 62.5s-50.833 30 -83.5 42l102 580c31.333 -3.33301 63.833 -13 97.5 -29s65 -35.5 94 -58.5s54 -48 75 -75s34.833 -53.167 41.5 -78.5l1 219h497v-126
c0 -7.33301 -0.166992 -16.666 -0.5 -27.999s-1 -23.166 -2 -35.499l-3 -38c-1 -13 -2.16699 -25.167 -3.5 -36.5l19 21c12.667 14 34 33.333 64 58l99 81c19.333 16 41.666 31.667 66.999 47s53.333 29 84 41s63.834 21.667 99.501 29s73.834 11 114.501 11
c63.333 0.666992 125.166 -8.66602 185.499 -27.999s113.833 -48.5 160.5 -87.5s84.167 -87.667 112.5 -146s42.5 -125.833 42.5 -202.5v-1428h-763v1120c0 16 -4.16699 29.333 -12.5 40s-19.166 17.667 -32.499 21s-28.166 2.83301 -44.499 -1.5
s-32.833 -12.833 -49.5 -25.5l-94 -74v-1080z" />
    <glyph glyph-name="thophuthaothai" unicode="&#xe12;" horiz-adv-x="3084" 
d="M1944 695c0 -24 3.49805 -44.4971 10.498 -61.4971s16.167 -31 27.5 -42s24 -19.167 38 -24.5s28 -8 42 -8s27.667 2.66699 41 8s25.166 13.5 35.5 24.5c10.333 11 18.666 25.333 25 43c6.33301 17.667 9.5 38.5 9.5 62.5v1171h768v-1157
c0 -103.333 -18.833 -199.5 -56.5 -288.5s-92 -166.333 -163 -232s-157.167 -117.334 -258.5 -155.001s-215.333 -56.5 -342 -56.5c-79.333 0 -150 9 -212 27s-116.5 40.5 -163.5 67.5s-86.667 56.167 -119 87.5s-58.166 60 -77.499 86l-30 -247h-425v874h137
c-7.33301 22 -13.166 47.833 -17.499 77.5s-6.5 57.834 -6.5 84.501v245c-13.333 -8 -32.5 -15 -57.5 -21s-54.5 -9 -88.5 -9c-32 0 -60.5 2.83301 -85.5 8.5s-46.167 13.167 -63.5 22.5v-1282h-769v1157c0 90 14 175.167 42 255.5s69.833 152.666 125.5 216.999
s125 119 208 164s179.833 77.167 290.5 96.5c4.66699 -34.667 15.5 -64.334 32.5 -89.001s37 -44.834 60 -60.501s48 -27.167 75 -34.5s53.167 -11 78.5 -11c26 0 52.667 3.66699 80 11s52.5 19 75.5 35s42.667 36.333 59 61s26.833 54 31.5 88
c109.333 -20 204.333 -52.667 285 -98s147.5 -100 200.5 -164s92.5 -136 118.5 -216s39 -165 39 -255v-462z" />
    <glyph glyph-name="nonenthai" unicode="&#xe13;" horiz-adv-x="3017" 
d="M1877 687c0 -24 3.83105 -44.168 11.498 -60.501s17.5 -29.5 29.5 -39.5s24.833 -17.167 38.5 -21.5s26.5 -6.5 38.5 -6.5s24.5 2.16699 37.5 6.5s25 11.333 36 21s20 22.5 27 38.5s10.5 36 10.5 60v1183h768v-802c0 -13.333 -0.833008 -28.833 -2.5 -46.5
s-4 -35.5 -7 -53.5s-6.66699 -35.167 -11 -51.5s-9.16602 -29.833 -14.5 -40.5h117v-874h-425l-30 247c-19.333 -26 -44.666 -54.667 -76 -86c-31.333 -31.333 -69.833 -60.5 -115.5 -87.5s-99.167 -49.5 -160.5 -67.5s-131.333 -27 -210 -27
c-127.333 0 -240.5 18.833 -339.5 56.5s-182.5 89.334 -250.5 155.001s-119.833 143 -155.5 232s-53.5 185.167 -53.5 288.5v468c0 24 -3.5 44.167 -10.5 60.5s-15.833 29.666 -26.5 39.999s-22.5 17.833 -35.5 22.5s-25.833 7 -38.5 7c-13.333 0 -27 -2.33301 -41 -7
s-26.667 -12.167 -38 -22.5s-20.666 -24 -27.999 -41s-11 -37.5 -11 -61.5v-1177h-768v1157c0 99.333 20.167 193.333 60.5 282s98.5 166.334 174.5 233.001s168.667 119.5 278 158.5s233 58.5 371 58.5s260 -19.5 366 -58.5s194.833 -91.667 266.5 -158
s125.834 -143.5 162.501 -231.5s55 -181 55 -279v-475z" />
    <glyph glyph-name="dodekthai" unicode="&#xe14;" horiz-adv-x="2129" 
d="M912 587c0 -34 8.66895 -59.1689 26.002 -75.502s42 -24.5 74 -24.5h61v-487h-275c-104 0 -196.667 14.167 -278 42.5s-149.833 68.166 -205.5 119.499s-98.167 112.833 -127.5 184.5s-44 151.167 -44 238.5v539c0 69.333 9.5 136.333 28.5 201
s46.667 125.334 83 182.001s81.166 108.334 134.499 155.001s114.166 86.834 182.499 120.501s144 59.834 227 78.501s172.5 28 268.5 28s185.5 -9.33301 268.5 -28s158.5 -44.667 226.5 -78s128.333 -73.333 181 -120s97 -98.167 133 -154.5s63.333 -116.666 82 -180.999
s28 -130.5 28 -198.5v-1129h-769v1152c0 32 -5.16699 58.667 -15.5 80s-23 38.333 -38 51s-31 21.5 -48 26.5s-32.5 7.5 -46.5 7.5c-14.667 0 -31.167 -2.5 -49.5 -7.5s-35.5 -13.833 -51.5 -26.5s-29.333 -29.834 -40 -51.501s-16 -48.834 -16 -81.501v-563z" />
    <glyph glyph-name="totaothai" unicode="&#xe15;" horiz-adv-x="2129" 
d="M143 1137c0 90 14.499 176.17 43.499 258.503s72 157 129 224s127.5 124 211.5 171s181.333 80.167 292 99.5c4.66699 -34.667 15.5 -64.334 32.5 -89.001s37 -44.834 60 -60.501s48 -27.167 75 -34.5s53.167 -11 78.5 -11c26 0 52.667 3.66699 80 11s52.5 19 75.5 35
s42.667 36.333 59 61s26.833 54 31.5 88c109.333 -20 206 -53.667 290 -101s154.5 -104.333 211.5 -171s100.167 -141 129.5 -223s44 -168 44 -258v-1137h-769v1281c-13.333 -8 -33.5 -15 -60.5 -21s-57.5 -9 -91.5 -9c-32 0 -61.167 2.83301 -87.5 8.5
s-48.166 13.167 -65.499 22.5v-695c0 -34 8.66699 -59.167 26 -75.5s42 -24.5 74 -24.5h61v-487h-275c-104 0 -196.667 14.167 -278 42.5s-149.833 68.166 -205.5 119.499s-98.167 112.833 -127.5 184.5s-44 151.167 -44 238.5v552z" />
    <glyph glyph-name="thothungthai" unicode="&#xe16;" horiz-adv-x="2089" 
d="M1045 1889c138 0 262.666 -19.5 373.999 -58.5s206 -91.667 284 -158s138 -143.5 180 -231.5s63 -181 63 -279v-1162h-767v1163c0 24 -3.66699 45 -11 63s-17.166 33.167 -29.499 45.5s-26.5 21.666 -42.5 27.999s-33 9.5 -51 9.5s-35 -3.16699 -51 -9.5
s-30.333 -15.666 -43 -27.999s-22.667 -27.833 -30 -46.5s-11 -40 -11 -64v-673h147v-488h-914v1031l111 90l41 33l35.5 29c10.333 8.66699 18.833 15.5 25.5 20.5l10 7.5l-222 182c29.333 68.667 72 133.167 128 193.5s122.667 113 200 158s164.333 80.333 261 106
s200.667 38.5 312 38.5z" />
    <glyph glyph-name="thothahanthai" unicode="&#xe17;" horiz-adv-x="2050" 
d="M1144 0l-0.00195312 1120c0 16 -4.16699 29.333 -12.5 40s-19.166 17.667 -32.499 21s-28.166 2.83301 -44.499 -1.5s-32.833 -12.833 -49.5 -25.5l-94 -74v-1080h-768v1868h725v-126c0 -7.33301 -0.166992 -16.666 -0.5 -27.999s-1 -23.166 -2 -35.499l-3 -38
c-1 -13 -2.16699 -25.167 -3.5 -36.5l19 21c12.667 14 34 33.333 64 58l99 81c19.333 16 41.666 31.667 66.999 47s53.333 29 84 41s63.834 21.667 99.501 29s73.834 11 114.501 11c63.333 0.666992 125.166 -8.66602 185.499 -27.999s113.833 -48.5 160.5 -87.5
s84.167 -87.667 112.5 -146s42.5 -125.833 42.5 -202.5v-1428h-763z" />
    <glyph glyph-name="thothongthai" unicode="&#xe18;" horiz-adv-x="2043" 
d="M931 676v-188.998h90c14 0 29 1.83301 45 5.5s30.833 9.33398 44.5 17.001s25 17.667 34 30s13.5 27.166 13.5 44.499c0 30.667 -13.167 56.167 -39.5 76.5s-63.166 40.166 -110.499 59.499l-488 203c-75.333 31.333 -138.833 65.333 -190.5 102s-93.334 76 -125.001 118
s-54.334 87 -68.001 135s-20.5 99.333 -20.5 154c0 54 11.333 107.333 34 160s57 99.667 103 141s104.333 74.666 175 99.999s154 38 250 38h26c16.667 0 39.667 -0.166992 69 -0.5s64 -0.666016 104 -0.999023s83.333 -0.666016 130 -0.999023l147 -1
c51.333 -0.333008 103.333 -0.5 156 -0.5c184 -1.33301 393 -2.66602 627 -3.99902l-147 -463c-146 1.33301 -278 3 -396 5l-150 2c-49.333 0.666992 -94.166 1.33398 -134.499 2.00098s-74.166 1.16699 -101.499 1.5s-44.333 0.5 -51 0.5
c-32.667 0 -55.667 -5.16699 -69 -15.5s-20 -24.166 -20 -41.499s7.66699 -32.5 23 -45.5s43 -26.167 83 -39.5l526 -179c60 -20.667 114.833 -46.834 164.5 -78.501s92.167 -69.834 127.5 -114.501s62.666 -95.834 81.999 -153.501s29 -122.5 29 -194.5
c0 -72.667 -13.5 -142.5 -40.5 -209.5s-68.5 -126.333 -124.5 -178s-127.333 -92.834 -214 -123.501s-190 -46 -310 -46c-30.667 0 -69.167 0.166992 -115.5 0.5s-97 0.666016 -152 0.999023s-112.5 0.833008 -172.5 1.5l-177 2c-136 1.33301 -280.333 3 -433 5v674h767z
" />
    <glyph glyph-name="nonuthai" unicode="&#xe19;" horiz-adv-x="2050" 
d="M1907 1208c0 -35.333 -1.33301 -67.667 -4 -97s-6.5 -57.166 -11.5 -83.499s-11.667 -52 -20 -77s-17.833 -50.5 -28.5 -76.5h137v-874h-425l-27 228c-20.667 -24 -46.667 -50.5 -78 -79.5s-69 -56 -113 -81s-95 -46 -153 -63s-124.333 -25.5 -199 -25.5
c-84.667 0 -164.334 9.16699 -239.001 27.5s-143.167 43.833 -205.5 76.5s-118.166 71.667 -167.499 117s-91 95.166 -125 149.499s-60 112 -78 173s-27 123.833 -27 188.5v1157h768v-1181c0 -24 4 -44.167 12 -60.5s18 -29.5 30 -39.5s24.833 -17.167 38.5 -21.5
s26.167 -6.5 37.5 -6.5c10 0 21.5 2.16699 34.5 6.5s25.167 11.333 36.5 21s20.833 22.5 28.5 38.5s11.5 36 11.5 60v1183h767v-660z" />
    <glyph glyph-name="bobaimaithai" unicode="&#xe1a;" horiz-adv-x="2050" 
d="M1907 1868l0.000976562 -1162c0 -98 -19.833 -191 -59.5 -279s-97.334 -165.167 -173.001 -231.5s-168 -119 -277 -158s-232.5 -58.5 -370.5 -58.5s-261.667 19.5 -371 58.5s-202 91.833 -278 158.5s-134.167 144.334 -174.5 233.001s-60.5 182.667 -60.5 282v1157h768
v-1181c0 -24 4 -44.167 12 -60.5s18 -29.5 30 -39.5s24.833 -17.167 38.5 -21.5s26.167 -6.5 37.5 -6.5c10 0 21.5 2.16699 34.5 6.5s25.167 11.333 36.5 21s20.833 22.5 28.5 38.5s11.5 36 11.5 60v1183h767z" />
    <glyph glyph-name="poplathai" unicode="&#xe1b;" horiz-adv-x="2090" 
d="M1947 2530l0.000976562 -1824c0 -65.333 -9.5 -128.666 -28.5 -189.999s-46.333 -118.833 -82 -172.5s-79.667 -103 -132 -148s-111.833 -83.5 -178.5 -115.5s-140.167 -56.833 -220.5 -74.5s-166.5 -26.5 -258.5 -26.5s-178.167 8.83301 -258.5 26.5
s-154 42.667 -221 75s-126.833 70.833 -179.5 115.5s-97.167 94.167 -133.5 148.5s-64 112.5 -83 174.5s-28.5 126 -28.5 192v1157h768v-1161c0 -24 3.66699 -45.333 11 -64s17.333 -34.167 30 -46.5s27 -21.666 43 -27.999s33 -9.5 51 -9.5s35 3.16699 51 9.5
s30.167 15.666 42.5 27.999s22.166 27.5 29.499 45.5s11 39 11 63v1825h767z" />
    <glyph glyph-name="phophungthai" unicode="&#xe1c;" horiz-adv-x="2956" 
d="M1798 685c0 -24 4.33398 -44 13.001 -60s19.167 -28.833 31.5 -38.5s25.5 -16.667 39.5 -21s26 -6.5 36 -6.5c10.667 0 23.334 2.16699 38.001 6.5s28.667 11.5 42 21.5s24.5 23.167 33.5 39.5s13.5 36.5 13.5 60.5v1181h768v-1157c0 -99.333 -18.333 -193.333 -55 -282
s-90.834 -166.334 -162.5 -233.001c-71.667 -66.667 -160.334 -119.5 -266 -158.5c-105.667 -39 -227.5 -58.5 -365.5 -58.5c-58 0 -113.667 7.83301 -167 23.5s-101.666 35.834 -144.999 60.501s-80.166 52.5 -110.499 83.5s-51.5 62.167 -63.5 93.5
c-12.667 -31.333 -34.167 -62.5 -64.5 -93.5s-67 -58.833 -110 -83.5s-91.167 -44.834 -144.5 -60.501s-109 -23.5 -167 -23.5c-138 0 -259.833 19.5 -365.5 58.5s-194.334 91.833 -266.001 158.5s-125.834 144.334 -162.501 233.001s-55 182.667 -55 282v527
c0 98.667 16.333 187 49 265s77.167 144 133.5 198s122.333 95.333 198 124s156.5 43 242.5 43h868v-533h-565c-49.333 0 -88 -14.333 -116 -43s-42 -71.667 -42 -129v-476c0 -24 4.5 -44.167 13.5 -60.5s20.167 -29.5 33.5 -39.5s27.166 -17.167 41.499 -21.5
s27.166 -6.5 38.499 -6.5c10 0 22 2.16699 36 6.5s27.167 11.333 39.5 21s22.833 22.5 31.5 38.5s13 36 13 60v443h640v-443z" />
    <glyph glyph-name="fofathai" unicode="&#xe1d;" horiz-adv-x="2956" 
d="M1798 685c0 -24 4.33398 -44 13.001 -60s19.167 -28.833 31.5 -38.5s25.5 -16.667 39.5 -21s26 -6.5 36 -6.5c10.667 0 23.334 2.16699 38.001 6.5s28.667 11.5 42 21.5s24.5 23.167 33.5 39.5s13.5 36.5 13.5 60.5v1844h768v-1820c0 -99.333 -18.333 -193.333 -55 -282
s-90.834 -166.334 -162.5 -233.001c-71.667 -66.667 -160.334 -119.5 -266 -158.5c-105.667 -39 -227.5 -58.5 -365.5 -58.5c-58 0 -113.667 7.83301 -167 23.5s-101.666 35.834 -144.999 60.501s-80.166 52.5 -110.499 83.5s-51.5 62.167 -63.5 93.5
c-12.667 -31.333 -34.167 -62.5 -64.5 -93.5s-67 -58.833 -110 -83.5s-91.167 -44.834 -144.5 -60.501s-109 -23.5 -167 -23.5c-138 0 -259.833 19.5 -365.5 58.5s-194.334 91.833 -266.001 158.5s-125.834 144.334 -162.501 233.001s-55 182.667 -55 282v527
c0 98.667 16.333 187 49 265s77.167 144 133.5 198s122.333 95.333 198 124s156.5 43 242.5 43h868v-533h-565c-49.333 0 -88 -14.333 -116 -43s-42 -71.667 -42 -129v-476c0 -24 4.5 -44.167 13.5 -60.5s20.167 -29.5 33.5 -39.5s27.166 -17.167 41.499 -21.5
s27.166 -6.5 38.499 -6.5c10 0 22 2.16699 36 6.5s27.167 11.333 39.5 21s22.833 22.5 31.5 38.5s13 36 13 60v443h640v-443z" />
    <glyph glyph-name="phophanthai" unicode="&#xe1e;" horiz-adv-x="2996" 
d="M143 1868h768.003v-1181c0 -24 4.33301 -44.167 13 -60.5s19.167 -29.5 31.5 -39.5s25.5 -17.167 39.5 -21.5s26.667 -6.5 38 -6.5c10 0 21.667 2.16699 35 6.5s26 11.333 38 21s22 22.5 30 38.5s12 36 12 60v1183h700v-1183c0 -24 4 -44 12 -60s18 -28.833 30 -38.5
s24.667 -16.667 38 -21s25 -6.5 35 -6.5c10.667 0 23.167 2.16699 37.5 6.5s27.666 11.5 39.999 21.5s22.833 23.167 31.5 39.5s13 36.5 13 60.5v1181h768v-1157c0 -99.333 -18.333 -193.333 -55 -282s-90.834 -166.334 -162.5 -233.001
c-71.667 -66.667 -160.334 -119.5 -266 -158.5c-105.667 -39 -227.5 -58.5 -365.5 -58.5c-58 0 -114.667 7.83301 -170 23.5s-106 35.834 -152 60.501s-85.167 52.5 -117.5 83.5s-54.5 62.167 -66.5 93.5c-12.667 -31.333 -35.167 -62.5 -67.5 -93.5
s-71.333 -58.833 -117 -83.5s-96.167 -44.834 -151.5 -60.501s-112 -23.5 -170 -23.5c-138 0 -259.833 19.5 -365.5 58.5s-194.334 91.833 -266.001 158.5s-125.834 144.334 -162.501 233.001s-55 182.667 -55 282v1157z" />
    <glyph glyph-name="fofanthai" unicode="&#xe1f;" horiz-adv-x="2996" 
d="M143 1868h768.003v-1181c0 -24 4.33301 -44.167 13 -60.5s19.167 -29.5 31.5 -39.5s25.5 -17.167 39.5 -21.5s26.667 -6.5 38 -6.5c10 0 21.667 2.16699 35 6.5s26 11.333 38 21s22 22.5 30 38.5s12 36 12 60v1183h700v-1183c0 -24 4 -44 12 -60s18 -28.833 30 -38.5
s24.667 -16.667 38 -21s25 -6.5 35 -6.5c10.667 0 23.167 2.16699 37.5 6.5s27.666 11.5 39.999 21.5s22.833 23.167 31.5 39.5s13 36.5 13 60.5v1844h768v-1820c0 -99.333 -18.333 -193.333 -55 -282s-90.834 -166.334 -162.5 -233.001
c-71.667 -66.667 -160.334 -119.5 -266 -158.5c-105.667 -39 -227.5 -58.5 -365.5 -58.5c-58 0 -114.667 7.83301 -170 23.5s-106 35.834 -152 60.501s-85.167 52.5 -117.5 83.5s-54.5 62.167 -66.5 93.5c-12.667 -31.333 -35.167 -62.5 -67.5 -93.5
s-71.333 -58.833 -117 -83.5s-96.167 -44.834 -151.5 -60.501s-112 -23.5 -170 -23.5c-138 0 -259.833 19.5 -365.5 58.5s-194.334 91.833 -266.001 158.5s-125.834 144.334 -162.501 233.001s-55 182.667 -55 282v1157z" />
    <glyph glyph-name="phosamphaothai" unicode="&#xe20;" horiz-adv-x="2110" 
d="M1200 0l-0.000976562 1183c0 24 -3.83301 44 -11.5 60s-17.167 28.833 -28.5 38.5s-23.5 16.667 -36.5 21s-24.5 6.5 -34.5 6.5c-11.333 0 -23.833 -2.16699 -37.5 -6.5s-26.5 -11.5 -38.5 -21.5s-22 -23.167 -30 -39.5s-12 -36.5 -12 -60.5v-1181h-908v528h140v629
c0 99.333 20.167 193.333 60.5 282s98.5 166.334 174.5 233.001s168.667 119.5 278 158.5s233 58.5 371 58.5s261.5 -19.5 370.5 -58.5s201.333 -91.667 277 -158s133.334 -143.5 173.001 -231.5s59.5 -181 59.5 -279v-1162h-767z" />
    <glyph glyph-name="momathai" unicode="&#xe21;" horiz-adv-x="2115" 
d="M208 1868l766.999 0.000976562v-1183c0 -24 3.83301 -44 11.5 -60s17.167 -28.833 28.5 -38.5s23.5 -16.667 36.5 -21s24.5 -6.5 34.5 -6.5c10.667 0 22.834 2.16699 36.501 6.5s26.5 11.5 38.5 21.5s22.167 23.167 30.5 39.5s12.5 36.5 12.5 60.5v1181h768v-1157
c0 -64.667 -9 -127.5 -27 -188.5s-44 -118.667 -78 -173s-75.667 -104.166 -125 -149.499s-105.166 -84.333 -167.499 -117s-130.833 -58.167 -205.5 -76.5s-154.334 -27.5 -239.001 -27.5c-74.667 0 -141 8.5 -199 25.5s-109 38 -153 63s-81.667 52 -113 81
s-57.333 55.5 -78 79.5l-27 -228h-445v874h147c-11.333 26 -20.5 51.5 -27.5 76.5s-12.5 50.667 -16.5 77s-6.66699 54.166 -8 83.499s-2 61.666 -2 96.999v660z" />
    <glyph glyph-name="yoyakthai" unicode="&#xe22;" horiz-adv-x="2070" 
d="M1025 -21c-82.667 0 -162.17 7.17188 -238.503 21.5049s-147.5 34.666 -213.5 60.999s-125.833 58.166 -179.5 95.499s-99.667 79.166 -138 125.499s-68 96.333 -89 150s-31.5 109.834 -31.5 168.501c0 45.333 5.66699 87.333 17 126s27.5 74 48.5 106
s46.167 60.667 75.5 86s62 47 98 65c-32.667 14 -63.5 33.5 -92.5 58.5s-54.5 54.667 -76.5 89s-39.5 73.166 -52.5 116.499s-19.5 90.333 -19.5 141c0 70 14.167 135.5 42.5 196.5s67.833 114 118.5 159s111.334 80.333 182.001 106s148.667 38.5 234 38.5
c30.667 0 59.334 -1.16699 86.001 -3.5s52.5 -6.33301 77.5 -12s49.667 -12.834 74 -21.501s49.833 -19 76.5 -31l-93 -420c-14.667 6.66699 -29.667 9.66699 -45 9s-29.166 -4.83398 -41.499 -12.501s-22.5 -18.667 -30.5 -33s-12 -31.5 -12 -51.5
c0 -15.333 2.33301 -29.833 7 -43.5s10.5 -25.834 17.5 -36.501s14.333 -19.834 22 -27.501s14.834 -13.5 21.501 -17.5c28 14 62.333 20 103 18l31 -367c-23.333 0.666992 -44.5 -2.83301 -63.5 -10.5s-35.333 -18.167 -49 -31.5s-24.334 -28.833 -32.001 -46.5
s-11.5 -36.5 -11.5 -56.5c0 -18 3.83301 -35.333 11.5 -52s18.5 -31.167 32.5 -43.5s31 -22.333 51 -30s42.333 -11.5 67 -11.5c20.667 0 40.167 3.66699 58.5 11s34.333 17.333 48 30s24.334 26.834 32.001 42.501s11.5 32.167 11.5 49.5v1178h767v-1162
c0 -65.333 -9.5 -128.666 -28.5 -189.999s-46.5 -118.833 -82.5 -172.5s-80.333 -103 -133 -148s-112.334 -83.5 -179.001 -115.5s-140.167 -56.833 -220.5 -74.5s-166.5 -26.5 -258.5 -26.5z" />
    <glyph glyph-name="roruathai" unicode="&#xe23;" horiz-adv-x="1893" 
d="M571 643c18 -24.667 39.002 -46.1641 63.002 -64.4971s48.333 -33.5 73 -45.5s48.667 -21 72 -27s43.333 -9 60 -9c26 0 47.667 2.16699 65 6.5s31.166 10 41.499 17s17.666 15.167 21.999 24.5s6.5 19.333 6.5 30c0 14.667 -3.83301 27.667 -11.5 39s-19.5 22 -35.5 32
s-36 19.5 -60 28.5s-52.333 18.167 -85 27.5c-100 29.333 -188.833 66 -266.5 110s-143 93.333 -196 148s-93.333 113.667 -121 177s-41.5 129 -41.5 197c0 84 18.833 160.5 56.5 229.5s92.5 128 164.5 177s160.333 87 265 114s223.667 40.5 357 40.5
c88.667 0 171.5 -8.5 248.5 -25.5s146.333 -39.333 208 -67s115.167 -58.834 160.5 -93.501s81 -69.334 107 -104.001l-402 -333c-11.333 15.333 -27.166 29.833 -47.499 43.5s-42.833 25.667 -67.5 36s-50 18.5 -76 24.5s-50 9 -72 9c-28 0 -52.167 -2.33301 -72.5 -7
s-37 -10.834 -50 -18.501s-22.5 -16.334 -28.5 -26.001s-9 -19.5 -9 -29.5c0 -14.667 3.5 -27.667 10.5 -39s19.167 -22 36.5 -32s40.833 -19.833 70.5 -29.5s67.5 -20.5 113.5 -32.5c114.667 -30 211.5 -66.167 290.5 -108.5s143 -89.666 192 -141.999
s84.167 -109.666 105.5 -171.999s32 -128.833 32 -199.5c0 -90.667 -20.667 -171.334 -62 -242.001s-100.333 -130.167 -177 -178.5s-169.5 -85 -278.5 -110s-231.5 -37.5 -367.5 -37.5c-90.667 0 -175.834 9.83301 -255.501 29.5s-152 46 -217 79s-122 70.667 -171 113
s-88.167 86.5 -117.5 132.5z" />
    <glyph glyph-name="ruthai" unicode="&#xe24;" horiz-adv-x="2090" 
d="M1046 1889c138 0 262.666 -19.501 373.999 -58.501s206 -91.667 284 -158s138 -143.5 180 -231.5s63 -181 63 -279v-1662h-767v1663c0 24 -3.66699 45 -11 63s-17.166 33.167 -29.499 45.5s-26.5 21.666 -42.5 27.999s-33 9.5 -51 9.5s-35 -3.16699 -51 -9.5
s-30.333 -15.666 -43 -27.999s-22.667 -27.833 -30 -46.5s-11 -40 -11 -64v-673h147v-488h-915v1157c0 99.333 21.167 193.333 63.5 282s102.833 166.334 181.5 233.001s173.5 119.5 284.5 158.5s235.5 58.5 373.5 58.5z" />
    <glyph glyph-name="lolingthai" unicode="&#xe25;" horiz-adv-x="2069" 
d="M1168 1219c0 12 -3.33008 24.1689 -9.99707 36.502s-16 23.333 -28 33s-25.833 17.5 -41.5 23.5s-32.5 9 -50.5 9c-20 0 -38.667 -3.16699 -56 -9.5s-32.5 -14.666 -45.5 -24.999s-23.167 -22.166 -30.5 -35.499s-11 -27.333 -11 -42l-740 84
c19.333 92.667 54.833 175.834 106.5 249.501s116 136.167 193 187.5s164.833 90.666 263.5 117.999s204.667 41 318 41c133.333 0 254.666 -18.833 363.999 -56.5s203 -88.834 281 -153.501s138.333 -140.334 181 -227.001s64 -179 64 -277v-1175h-767v745
c-6.66699 -6 -19.667 -12.167 -39 -18.5s-41 -12.666 -65 -18.999s-48.833 -12.333 -74.5 -18s-48.167 -10.834 -67.5 -15.501c-18 -4 -36.667 -9.5 -56 -16.5s-36.666 -15.5 -51.999 -25.5s-28 -21.667 -38 -35s-15 -28.666 -15 -45.999c0 -14 2.83301 -26.167 8.5 -36.5
s13 -19 22 -26s19.5 -12.333 31.5 -16s24.333 -5.5 37 -5.5c14 0 29.5 2.5 46.5 7.5s34.167 11.5 51.5 19.5l96 -454c-23.333 -10 -49.333 -18.833 -78 -26.5s-57.834 -14 -87.501 -19s-58.5 -8.83301 -86.5 -11.5s-52.667 -4 -74 -4c-100 0 -188 13.667 -264 41
s-139.667 63.666 -191 108.999s-90 97.5 -116 156.5s-39 120.5 -39 184.5c0 77.333 15 149 45 215s79.667 126 149 180s161.166 102.167 275.499 144.5s255.5 79.166 423.5 110.499c23.333 4 45.166 9 65.499 15s38 13 53 21s26.667 17.167 35 27.5s12.5 22.166 12.5 35.499
z" />
    <glyph glyph-name="luthai" unicode="&#xe26;" horiz-adv-x="2110" 
d="M1200 -500l-0.000976562 1683c0 24 -3.83301 44 -11.5 60s-17.167 28.833 -28.5 38.5s-23.5 16.667 -36.5 21s-24.5 6.5 -34.5 6.5c-11.333 0 -23.833 -2.16699 -37.5 -6.5s-26.5 -11.5 -38.5 -21.5s-22 -23.167 -30 -39.5s-12 -36.5 -12 -60.5v-1181h-908v528h140v629
c0 99.333 20.167 193.333 60.5 282s98.5 166.334 174.5 233.001s168.667 119.5 278 158.5s233 58.5 371 58.5s261.5 -19.5 370.5 -58.5s201.333 -91.667 277 -158s133.334 -143.5 173.001 -231.5s59.5 -181 59.5 -279v-1662h-767z" />
    <glyph glyph-name="wowaenthai" unicode="&#xe27;" horiz-adv-x="1856" 
d="M186 660c53.333 -30 107.996 -50.834 163.996 -62.501s111 -17.5 165 -17.5c55.333 0 108 7.16699 158 21.5s94 36.333 132 66s68.167 66.834 90.5 111.501s33.5 97.334 33.5 158.001c0 63.333 -12.167 117.333 -36.5 162s-56.166 81.167 -95.499 109.5
s-83.5 49 -132.5 62s-98.5 19.5 -148.5 19.5c-33.333 0 -68.166 -3.16699 -104.499 -9.5s-72.5 -15.333 -108.5 -27s-70.833 -25.834 -104.5 -42.501s-64.834 -35.667 -93.501 -57v630c90 37.333 179.5 65.5 268.5 84.5s177.167 28.5 264.5 28.5
c160 0 305.833 -22.167 437.5 -66.5s244.834 -107.833 339.501 -190.5s168 -183 220 -301s78 -250.667 78 -398c0 -84 -9.66699 -166.167 -29 -246.5s-48.5 -156 -87.5 -227s-88.167 -136.333 -147.5 -196s-129.166 -111 -209.499 -154s-171.166 -76.5 -272.499 -100.5
s-213.666 -36 -336.999 -36c-72.667 0 -145.834 7 -219.501 21s-148.5 34.667 -224.5 62v596z" />
    <glyph glyph-name="sosalathai" unicode="&#xe28;" horiz-adv-x="2159" 
d="M2016 1965l-0.00390625 -1965h-769v1152c0 32 -6.66699 58.667 -20 80s-29.166 38.333 -47.499 51s-37.5 21.5 -57.5 26.5s-37 7.5 -51 7.5c-14.667 0 -32 -2.5 -52 -7.5s-39 -13.833 -57 -26.5s-33.333 -29.834 -46 -51.501s-19 -48.834 -19 -81.501v-184h214v-529h-214
v-437h-754v1124c0 104 20.833 201 62.5 291s100.334 168.5 176.001 235.5s166.334 119.667 272.001 158s222.5 57.5 350.5 57.5c38.667 0 75.5 -2.83301 110.5 -8.5s67 -12.834 96 -21.501s53.833 -18.167 74.5 -28.5s36 -20.5 46 -30.5l1 1
c-1.33301 10.667 -2.66602 24.167 -3.99902 40.5s-2 33.5 -2 51.5v95h690z" />
    <glyph glyph-name="sorusithai" unicode="&#xe29;" horiz-adv-x="2160" 
d="M912 716c0 -32 5.83301 -58.665 17.5 -79.998s26 -38.333 43 -51s34.833 -21.5 53.5 -26.5s35 -7.5 49 -7.5c14.667 0 31.834 2.5 51.501 7.5s38.5 13.833 56.5 26.5s33.167 29.834 45.5 51.501s18.5 48.834 18.5 81.501v184h-189v529h189v437h769v-437h63v-529h-63v-158
c0 -69.333 -9.83301 -136.333 -29.5 -201s-48.334 -125.334 -86.001 -182.001s-83.667 -108.334 -138 -155.001s-116.333 -86.834 -186 -120.501s-146.334 -59.834 -230.001 -78.501s-173.5 -28 -269.5 -28s-185.833 9.33301 -269.5 28s-160 44.667 -229 78
s-130.5 73.333 -184.5 120s-99.667 98.167 -137 154.5s-65.666 116.5 -84.999 180.5s-29 130.333 -29 199v1129h769v-1152z" />
    <glyph glyph-name="sosuathai" unicode="&#xe2a;" horiz-adv-x="2090" 
d="M914 674c-18 -4 -36.668 -9.50293 -56.001 -16.5029s-36.666 -15.5 -51.999 -25.5s-28 -21.667 -38 -35s-15 -28.666 -15 -45.999c0 -14 2.83301 -26.167 8.5 -36.5s13 -19 22 -26s19.5 -12.333 31.5 -16s24.333 -5.5 37 -5.5c14 0 29.5 2.5 46.5 7.5
s34.167 11.5 51.5 19.5l96 -454c-23.333 -10 -49.333 -18.833 -78 -26.5s-57.834 -14 -87.501 -19s-58.5 -8.83301 -86.5 -11.5s-52.667 -4 -74 -4c-100 0 -188 13.667 -264 41s-139.667 63.666 -191 108.999s-90 97.5 -116 156.5s-39 120.5 -39 184.5
c0 77.333 16 147 48 209s84 117.833 156 167.5s166 93.5 282 131.5s258.333 72 427 102c32.667 6 59.667 14 81 24s38.333 21.333 51 34s21.5 26 26.5 40s7.5 27.667 7.5 41c0 12 -2.66699 24.167 -8 36.5s-13.5 23.333 -24.5 33s-25.5 17.5 -43.5 23.5s-39.333 9 -64 9
c-20 0 -39.167 -3.16699 -57.5 -9.5s-34.666 -14.666 -48.999 -24.999s-25.666 -22.166 -33.999 -35.499s-12.5 -27.333 -12.5 -42l-772 87c20 82.667 53.5 158.834 100.5 228.501s105.833 129.834 176.5 180.501s152.167 90.167 244.5 118.5s193.166 42.5 302.499 42.5
c38.667 0 74.834 -2.83301 108.501 -8.5s64.167 -12.834 91.5 -21.501s50.666 -18.167 69.999 -28.5s34 -20.5 44 -30.5l1 1c-1.33301 10.667 -2.66602 24.167 -3.99902 40.5s-2 33.5 -2 51.5v95h690v-1965h-767v750c-6.66699 -6 -20.667 -12.333 -42 -19
s-45.333 -13.5 -72 -20.5s-53.834 -13.667 -81.501 -20z" />
    <glyph glyph-name="hohipthai" unicode="&#xe2b;" horiz-adv-x="2050" 
d="M1907 0h-767v943c0 24 -3.83301 44 -11.5 60s-17.167 28.833 -28.5 38.5s-23.5 16.667 -36.5 21s-24.5 6.5 -34.5 6.5c-11.333 0 -23.833 -2.16699 -37.5 -6.5s-26.5 -11.5 -38.5 -21.5s-22 -23.167 -30 -39.5s-12 -36.5 -12 -60.5v-941h-768v1868h746v-355l255 355h843
l-402 -517c38 -14.667 76.167 -35 114.5 -61s72.833 -59.167 103.5 -99.5s55.667 -88.833 75 -145.5s29 -123 29 -199v-846z" />
    <glyph glyph-name="lochulathai" unicode="&#xe2c;" horiz-adv-x="2956" 
d="M911 1868l0.00195312 -1181c0 -24 4.5 -44.167 13.5 -60.5s20.167 -29.5 33.5 -39.5s27.166 -17.167 41.499 -21.5s27.166 -6.5 38.499 -6.5c10 0 22 2.16699 36 6.5s27.167 11.333 39.5 21s22.833 22.5 31.5 38.5s13 36 13 60v443h640v-443c0 -24 4.33301 -44 13 -60
s19.167 -28.833 31.5 -38.5s25.5 -16.667 39.5 -21s26 -6.5 36 -6.5c10.667 0 23.334 2.16699 38.001 6.5s28.667 11.5 42 21.5s24.5 23.167 33.5 39.5s13.5 36.5 13.5 60.5v357c0 48 -5.5 90.833 -16.5 128.5s-29.333 69.834 -55 96.501s-59.334 47 -101.001 61
s-93.5 21 -155.5 21h-554l-1 517h1745l-153 -468l-239 4c42.667 -7.33301 82.167 -22.833 118.5 -46.5s67.666 -52.667 94 -87c26.333 -34.333 47 -72.166 62 -113.499s22.5 -83 22.5 -125l1 -321c0 -99.333 -18.333 -193.333 -55 -282s-90.834 -166.334 -162.5 -233.001
c-71.667 -66.667 -160.334 -119.5 -266 -158.5c-105.667 -39 -227.5 -58.5 -365.5 -58.5c-58 0 -113.667 7.83301 -167 23.5s-101.666 35.834 -144.999 60.501s-80.166 52.5 -110.499 83.5s-51.5 62.167 -63.5 93.5c-12.667 -31.333 -34.167 -62.5 -64.5 -93.5
s-67 -58.833 -110 -83.5s-91.167 -44.834 -144.5 -60.501s-109 -23.5 -167 -23.5c-138 0 -259.833 19.5 -365.5 58.5s-194.334 91.833 -266.001 158.5s-125.834 144.334 -162.501 233.001s-55 182.667 -55 282v1157h768z" />
    <glyph glyph-name="oangthai" unicode="&#xe2d;" horiz-adv-x="2278" 
d="M905 1171l-749.998 161.999c35.333 90 83.333 169.5 144 238.5s132 127 214 174s173.667 82.667 275 107s210 36.5 326 36.5c154 0 293.833 -21.167 419.5 -63.5s233 -104 322 -185s157.833 -180.667 206.5 -299s73 -253.5 73 -405.5
c0 -85.333 -9.16699 -168.166 -27.5 -248.499s-45.833 -156.166 -82.5 -227.499s-82.834 -136.833 -138.501 -196.5s-121 -110.834 -196 -153.501s-159.833 -76 -254.5 -100s-199.334 -36 -314.001 -36c-113.333 0 -217 12 -311 36s-178.5 57.667 -253.5 101
s-140.5 94.833 -196.5 154.5s-102.667 125.167 -140 196.5s-65.333 147.5 -84 228.5s-28 163.833 -28 248.5c0 6.66699 0.166992 16.5 0.5 29.5l1 40c0.333008 13.667 0.833008 26.667 1.5 39s1.66699 21.5 3 27.5h1003v-363h-211
c7.33301 -30.667 18.333 -56.834 33 -78.501s31.5 -39.167 50.5 -52.5s39.5 -23.166 61.5 -29.499s44 -9.5 66 -9.5c46.667 0 87 9.66699 121 29s62.167 46.333 84.5 81s38.833 75.667 49.5 123s16 99 16 155c0 51.333 -6.16699 98.5 -18.5 141.5s-30.333 80 -54 111
s-52.5 55.167 -86.5 72.5s-72.333 26 -115 26c-41.333 0 -80.833 -9 -118.5 -27s-68.167 -45.667 -91.5 -83z" />
    <glyph glyph-name="honokhukthai" unicode="&#xe2e;" horiz-adv-x="2269" 
d="M1122 -26c-113.333 0 -216.999 12.001 -310.999 36.001s-178.5 57.667 -253.5 101s-140.5 94.833 -196.5 154.5s-102.667 125.167 -140 196.5s-65.333 147.5 -84 228.5s-28 163.833 -28 248.5c0 6.66699 0.166992 16.5 0.5 29.5l1 40
c0.333008 13.667 0.833008 26.667 1.5 39s1.66699 21.5 3 27.5h1003v-363h-211c7.33301 -30.667 18.333 -56.834 33 -78.501s31.5 -39.167 50.5 -52.5s39.5 -23.166 61.5 -29.499s44 -9.5 66 -9.5c46.667 0 87 9.66699 121 29s62.167 46.333 84.5 81s38.833 75.667 49.5 123
s16 99 16 155c0 51.333 -6.16699 98.5 -18.5 141.5s-30.333 80 -54 111s-52.5 55.167 -86.5 72.5s-72.333 26 -115 26c-20.667 0 -41 -1.66699 -61 -5s-39 -9.33301 -57 -18s-34.833 -20 -50.5 -34s-29.5 -31.667 -41.5 -53l-750 162c38 79.333 84.5 151.666 139.5 216.999
s120.667 121.5 197 168.5s164.333 83.333 264 109s213.5 38.5 341.5 38.5c38.667 0 76.5 -2.83301 113.5 -8.5s71 -12.834 102 -21.501s57.667 -18.167 80 -28.5s38.5 -20.5 48.5 -30.5l1 1c-1.33301 10.667 -2.66602 24.167 -3.99902 40.5s-2 33.5 -2 51.5v95h690v-876
c1.33301 -20.667 3.16602 -44.667 5.5 -72c2.33301 -27.333 3.5 -54.333 3.5 -81c0 -85.333 -9.16699 -168.166 -27.5 -248.499s-45.833 -156.166 -82.5 -227.499s-82.834 -136.833 -138.501 -196.5s-121 -110.834 -196 -153.501s-159.833 -76 -254.5 -100
s-199.334 -36 -314.001 -36z" />
    <glyph glyph-name="paiyannoithai" unicode="&#xe2f;" horiz-adv-x="2052" 
d="M1065 1869l-22.001 -435.002c-5.33301 2 -11.833 3.5 -19.5 4.5s-13.167 1.5 -16.5 1.5c-23.333 0 -45 -4.16699 -65 -12.5s-37.333 -20 -52 -35s-26.167 -32.833 -34.5 -53.5s-12.5 -43.667 -12.5 -69s4.16699 -49 12.5 -71s19.833 -41.167 34.5 -57.5
s32 -29.166 52 -38.499s41.667 -14 65 -14c42 0 78.5 10.833 109.5 32.5s51.833 53.834 62.5 96.501v650h710v-1868h-730v377c0 24 0.166992 49.333 0.5 76s1.16602 51 2.49902 73c0.666992 26 1.66699 51.333 3 76c-19.333 -13.333 -40.166 -24.166 -62.499 -32.499
s-45.333 -14.833 -69 -19.5s-47 -7.66699 -70 -9s-44.833 -2 -65.5 -2c-60 0 -119.5 8 -178.5 24s-115 38.5 -168 67.5s-102 64.167 -147 105.5s-84 87.166 -117 137.499s-58.833 104.666 -77.5 162.999s-28 119.5 -28 183.5c0 100.667 18.5 191.667 55.5 273
s87.667 150.5 152 207.5s139.833 100.833 226.5 131.5s180 46 280 46c6.66699 0 17.334 -0.166992 32.001 -0.5s30.5 -0.833008 47.5 -1.5s33.667 -1.66699 50 -3s29.5 -2.66602 39.5 -3.99902z" />
    <glyph glyph-name="saraathai" unicode="&#xe30;" horiz-adv-x="1087" 
d="M109 420c0 58.667 10.833 113.834 32.5 165.501s51.834 96.667 90.501 135s84.5 68.666 137.5 90.999s110.833 33.5 173.5 33.5s120.5 -11.167 173.5 -33.5s98.5 -52.666 136.5 -90.999s67.667 -83.333 89 -135s32 -106.834 32 -165.501s-10.667 -113.667 -32 -165
s-51 -96 -89 -134s-83.5 -68 -136.5 -90s-110.833 -33 -173.5 -33s-120.5 11 -173.5 33s-98.833 52 -137.5 90s-68.834 82.667 -90.501 134s-32.5 106.333 -32.5 165zM544 506c-24.667 0 -45.334 -8 -62.001 -24s-25 -36.667 -25 -62c0 -22.667 8.33301 -42.167 25 -58.5
s37.334 -24.5 62.001 -24.5s45.334 8.16699 62.001 24.5s25 35.833 25 58.5c0 25.333 -8.33301 46 -25 62s-37.334 24 -62.001 24zM109 1440c0 58.667 10.833 113.834 32.5 165.501s51.834 96.667 90.501 135s84.5 68.666 137.5 90.999s110.833 33.5 173.5 33.5
s120.5 -11.167 173.5 -33.5s98.5 -52.666 136.5 -90.999s67.667 -83.333 89 -135s32 -106.834 32 -165.501s-10.667 -113.667 -32 -165s-51 -96 -89 -134s-83.5 -68 -136.5 -90s-110.833 -33 -173.5 -33s-120.5 11 -173.5 33s-98.833 52 -137.5 90
s-68.834 82.667 -90.501 134s-32.5 106.333 -32.5 165zM544 1526c-24.667 0 -45.334 -8 -62.001 -24s-25 -36.667 -25 -62c0 -22.667 8.33301 -42.167 25 -58.5s37.334 -24.5 62.001 -24.5s45.334 8.16699 62.001 24.5s25 35.833 25 58.5c0 25.333 -8.33301 46 -25 62
s-37.334 24 -62.001 24z" />
    <glyph glyph-name="maihanakatthai" unicode="&#xe31;" 
d="M-1145 2406h1146v-300h-1820v535h674v-235z" />
    <glyph glyph-name="saraaathai" unicode="&#xe32;" horiz-adv-x="1344" 
d="M10 1400l153 467.998h297c144 0 263.667 -16.167 359 -48.5s171.333 -78.166 228 -137.499s96.5 -130.666 119.5 -213.999s34.5 -176.333 34.5 -279v-1189h-769v1161c0 36.667 -3.83301 69.667 -11.5 99s-20 54.333 -37 75s-38.667 36.667 -65 48s-57.833 17 -94.5 17
h-214z" />
    <glyph glyph-name="saraamthai" unicode="&#xe33;" horiz-adv-x="1344" 
d="M-948 2368c0 51.333 10.667 98.666 32 142c21.333 43.333 50.833 80.666 88.5 112c37.667 31.333 82.5 55.666 134.5 73c52 17.333 108.667 26 170 26c62 0 118.833 -8.66699 170.5 -26s96.167 -41.666 133.5 -73c37.333 -31.333 66.333 -68.666 87 -112
c20.667 -43.333 31 -90.666 31 -142c0 -51.333 -10.333 -98.5 -31 -141.5s-49.667 -80 -87 -111s-81.833 -55.167 -133.5 -72.5s-108.5 -26 -170.5 -26c-61.333 0 -118 8.66699 -170 26s-96.833 41.5 -134.5 72.5s-67.167 68 -88.5 111s-32 90.167 -32 141.5zM-522 2443
c-24 0 -44.167 -7 -60.5 -21s-24.5 -32 -24.5 -54c0 -20 8.16699 -37.167 24.5 -51.5s36.5 -21.5 60.5 -21.5s44.167 7.16699 60.5 21.5s24.5 31.5 24.5 51.5c0 22 -8.16699 40 -24.5 54s-36.5 21 -60.5 21zM10 1400l153 467.998h297c144 0 263.667 -16.167 359 -48.5
s171.333 -78.166 228 -137.499s96.5 -130.666 119.5 -213.999s34.5 -176.333 34.5 -279v-1189h-769v1161c0 36.667 -3.83301 69.667 -11.5 99s-20 54.333 -37 75s-38.667 36.667 -65 48s-57.833 17 -94.5 17h-214z" />
    <glyph glyph-name="saraithai" unicode="&#xe34;" 
d="M-143 2106h-1765v300h1765v-300z" />
    <glyph glyph-name="saraiithai" unicode="&#xe35;" 
d="M-846 2660h703v-554h-1765v300h1062v254z" />
    <glyph glyph-name="sarauethai" unicode="&#xe36;" 
d="M-143 2106h-1765v300l1058 2c-1.33301 4.66699 -2.16602 10.834 -2.49902 18.5c-0.333008 7.66699 -0.5 13.834 -0.5 18.5c0 35.333 7.66699 70.333 23 105s38 65.667 68 93s67.333 49.5 112 66.5s96.334 25.5 155.001 25.5c59.333 0 111.5 -8.5 156.5 -25.5
s82.5 -39.333 112.5 -67s52.5 -58.834 67.5 -93.5c15 -34.667 22.5 -69.667 22.5 -105c0 -17.333 -0.666992 -30.333 -2 -39s-3 -16 -5 -22v-277zM-492.002 2499c-26.667 0 -49 -8 -67 -24s-27 -36.667 -27 -62c0 -22 9 -41.167 27 -57.5s40.333 -24.5 67 -24.5
c26 0 48 8.16699 66 24.5s27 35.5 27 57.5c0 25.333 -9 46 -27 62s-40 24 -66 24z" />
    <glyph glyph-name="saraueethai" unicode="&#xe37;" 
d="M-563 2660h420v-554h-1765v300h765v254h420v-254h160v254z" />
    <glyph glyph-name="sarauthai" unicode="&#xe38;" 
d="M-142 -695h-705v238h-224v246h929v-484z" />
    <glyph glyph-name="sarauuthai" unicode="&#xe39;" 
d="M-140 -233c-17.333 -72 -45.501 -137.667 -84.501 -197s-87.5 -110.166 -145.5 -152.499s-125.5 -75.166 -202.5 -98.499s-162.167 -35 -255.5 -35c-96 0 -184.667 11.667 -266 35s-153.166 56.166 -215.499 98.499s-114.5 93.166 -156.5 152.499s-72 125 -90 197l503 80
c4 -24 13.333 -45.333 28 -64s32 -34.667 52 -48s41.5 -23.5 64.5 -30.5s44.833 -10.5 65.5 -10.5c20 0 41.333 3.5 64 10.5s44 17.167 64 30.5s37.333 29.333 52 48s23.667 40 27 64z" />
    <glyph glyph-name="phinthuthai" unicode="&#xe3a;" 
d="M-847 -399c0 38.667 9.33301 75.167 28 109.5s43.834 64.333 75.501 90s68.667 45.834 111 60.501s87.166 22 134.499 22c48.667 0 94.667 -7.33301 138 -22s81.166 -34.834 113.499 -60.501s57.833 -55.667 76.5 -90s28 -70.833 28 -109.5
c0 -38 -9.33301 -73.667 -28 -107s-44.167 -62.5 -76.5 -87.5s-70.166 -44.833 -113.499 -59.5s-89.333 -22 -138 -22c-47.333 0 -92.166 7.33301 -134.499 22s-79.333 34.5 -111 59.5s-56.834 54.167 -75.501 87.5s-28 69 -28 107z" />
    <glyph glyph-name="PUCR2005" unicode="&#xe3e;" 
 />
    <glyph glyph-name="bahtthai" unicode="&#xe3f;" horiz-adv-x="2257" 
d="M2016 1688c0 -106.667 -23.498 -195.502 -70.498 -266.502s-112.167 -126.833 -195.5 -167.5c58.667 -17.333 110.667 -43.666 156 -78.999s83.333 -77.166 114 -125.499s54 -101.5 70 -159.5s24 -118.333 24 -181c0 -87.333 -15.833 -171 -47.5 -251
s-79.334 -151.833 -143.001 -215.5s-143.5 -116.5 -239.5 -158.5s-208.333 -68.333 -337 -79v-254h-556v249h-628v2346h628v199h556v-211c108.667 -14 204.667 -40.5 288 -79.5s153.166 -87 209.499 -144s99 -121.5 128 -193.5s43.5 -148.333 43.5 -229zM927.002 483.998
h210.999c32.667 0 63.334 5.33301 92.001 16s53.5 26.334 74.5 47.001s37.5 45.834 49.5 75.501s18 63.5 18 101.5c0 40.667 -6.66699 75.667 -20 105s-31.333 53.666 -54 72.999s-48.667 33.666 -78 42.999s-60 14 -92 14h-201v-475zM1080 1426
c26.667 0 52.168 4.66699 76.501 14s45.666 23.166 63.999 41.499s32.833 41 43.5 68s16 57.833 16 92.5c0 30 -5 57.833 -15 83.5s-24 47.834 -42 66.501s-39.5 33.167 -64.5 43.5s-52.5 15.5 -82.5 15.5h-149v-425h153z" />
    <glyph glyph-name="saraethai" unicode="&#xe40;" horiz-adv-x="1095" 
d="M932 1868v-1868h-769v1868h769z" />
    <glyph glyph-name="saraaethai" unicode="&#xe41;" horiz-adv-x="2120" 
d="M932 1868v-1868h-769v1868h769zM1957 1868v-1868h-769v1868h769z" />
    <glyph glyph-name="saraothai" unicode="&#xe42;" horiz-adv-x="1120" 
d="M937 0h-774v2123c0 72 11.833 140.833 35.5 206.5s58 123.5 103 173.5s100.167 90 165.5 120s139.333 45 222 45h462l141 -447h-197c-54.667 0 -94.667 -16.833 -120 -50.5s-38 -80.834 -38 -141.5v-2029z" />
    <glyph glyph-name="saraaimaimuanthai" unicode="&#xe43;" horiz-adv-x="1140" 
d="M1076 2195c0 -53.333 -6.16113 -103.664 -18.4941 -150.998c-12.333 -47.333 -26 -93 -41 -137s-28.667 -87.5 -41 -130.5s-18.5 -86.5 -18.5 -130.5v-1646h-774v1536c0 45.333 5 91.166 15 137.499s25.167 91.833 45.5 136.5s46.166 88.167 77.499 130.5
s68.333 82.166 111 119.499c20.667 18 39 39.5 55 64.5s24 51.5 24 79.5c0 30 -8 53.167 -24 69.5s-34.667 24.5 -56 24.5c-26.667 0 -48 -9.16699 -64 -27.5s-24 -40.5 -24 -66.5c0 -7.33301 0.166992 -15.333 0.5 -24s1.16602 -17 2.49902 -25
c0.666992 -9.33301 1.66699 -18.666 3 -28l-382 85c0 39.333 4.66699 79.333 14 120s23.666 79.834 42.999 117.5c19.333 37.667 44.166 73 74.499 106s66.5 61.667 108.5 86s90.167 43.5 144.5 57.5s115.166 21 182.499 21c87.333 0 164.666 -15 231.999 -45
s124 -69.5 170 -118.5s80.833 -105 104.5 -168s35.5 -127.5 35.5 -193.5z" />
    <glyph glyph-name="saraaimaimalaithai" unicode="&#xe44;" horiz-adv-x="1141" 
d="M445 2720c87.333 0 164.664 -15.001 231.997 -45.001s124 -69.5 170 -118.5s80.833 -105 104.5 -168s35.5 -127.5 35.5 -193.5c0 -26.667 -0.666992 -50.667 -2 -72s-3.16602 -42 -5.49902 -62l-7 -60.5c-2.33301 -20.333 -4.66602 -42.666 -6.99902 -66.999
s-4.16602 -51.666 -5.49902 -81.999s-2 -65.5 -2 -105.5v-1746h-774v1819c0 42.667 4.5 83.667 13.5 123s21.167 70.666 36.5 93.999c18 28 29 54.5 33 79.5s2 46.667 -6 65s-21.5 33 -40.5 44s-42.5 16.5 -70.5 16.5h-200l141 467z" />
    <glyph glyph-name="lakkhangyaothai" unicode="&#xe45;" horiz-adv-x="1344" 
d="M10 1400l153 467.998h297c144 0 263.667 -16.167 359 -48.5s171.333 -78.166 228 -137.499s96.5 -130.666 119.5 -213.999s34.5 -176.333 34.5 -279v-1691h-769v1663c0 36.667 -3.83301 69.667 -11.5 99s-20 54.333 -37 75s-38.667 36.667 -65 48s-57.833 17 -94.5 17
h-214z" />
    <glyph glyph-name="maiyamokthai" unicode="&#xe46;" horiz-adv-x="2308" 
d="M1392 -486l1.00098 1694c0 34.667 -4 61.334 -12 80.001s-20.667 34.334 -38 47.001c-16.667 -19.333 -41.834 -36.166 -75.501 -50.499s-72.167 -21.5 -115.5 -21.5c-46 0 -85 7.16699 -117 21.5s-57.667 31.166 -77 50.499c-14 -10.667 -25.833 -24.834 -35.5 -42.501
s-14.834 -39.167 -15.501 -64.5c-0.666992 -26 3.83301 -50.5 13.5 -73.5s22.667 -43 39 -60s35.5 -30.5 57.5 -40.5s44.667 -15 68 -15c3.33301 0 8 0.166992 14 0.5s10.667 0.833008 14 1.5l68 -431c-6 -2 -17.167 -3.5 -33.5 -4.5s-33.666 -2 -51.999 -3
s-35.666 -1.66699 -51.999 -2s-27.5 -0.5 -33.5 -0.5c-102.667 0 -196.167 16.167 -280.5 48.5s-156.666 77.833 -216.999 136.5s-107 128.667 -140 210s-49.5 171 -49.5 269c0 90 16.333 170.667 49 242s76 133 130 185s116.167 94 186.5 126s143.166 54 218.499 66
c6.66699 -30 18 -56.167 34 -78.5s35 -41 57 -56s46.333 -26.167 73 -33.5s53.667 -11 81 -11c28 0 55.333 4 82 12s51 19.833 73 35.5s41 35.167 57 58.5s27 50.333 33 81c90 0 171.5 -10 244.5 -30s138 -47.333 195 -82s106.167 -75 147.5 -121s75.333 -95 101.999 -147
c26.667 -52 46.5 -105.5 59.5 -160.5s19.5 -108.833 19.5 -161.5v-1675h-772h-1z" />
    <glyph glyph-name="maitaikhuthai" unicode="&#xe47;" 
d="M-699 2564c0 -40 11.333 -70.5 34 -91.5s51.334 -31.5 86.001 -31.5c16.667 0 32.167 3.33301 46.5 10s26.833 16 37.5 28s18.667 26.5 24 43.5s7.66602 35.833 6.99902 56.5h321c2 -61.333 -6.16699 -119.666 -24.5 -175c-18.333 -55.333 -45.166 -103.666 -80.499 -145
c-35.333 -41.333 -78.166 -74.166 -128.499 -98.5c-50.333 -24.333 -106.5 -36.5 -168.5 -36.5c-32 0 -63.333 3.16699 -94 9.5s-58.667 15.666 -84 28c-25.333 12.333 -47.833 27.333 -67.5 45s-34.5 38.167 -44.5 61.5c-9.33301 -22.667 -24 -42.834 -44 -60.5
c-20 -17.667 -42.833 -32.5 -68.5 -44.5s-53.167 -21.167 -82.5 -27.5s-58 -9.5 -86 -9.5c-66 0 -127 11.833 -183 35.5s-104.167 55.834 -144.5 96.5c-40.333 40.667 -72 88.5 -95 143.5s-34.5 113.833 -34.5 176.5c0 64 10.833 122.833 32.5 176.5s53.167 100 94.5 139
s92.166 69.5 152.499 91.5s129.166 33 206.499 33h970v-300h-952c-23.333 0 -44 -3.5 -62 -10.5s-33.5 -16.833 -46.5 -29.5s-22.833 -27.334 -29.5 -44c-6.66699 -16.667 -10 -34.334 -10 -53c0 -18 3 -35.5 9 -52.5s14.5 -32 25.5 -45s24.333 -23.333 40 -31
s33.167 -11.5 52.5 -11.5c16.667 0 33 2.5 49 7.5s30 12.667 42 23s21.667 23.166 29 38.5c7.33301 15.333 11 33.333 11 54h260z" />
    <glyph glyph-name="maiekthai" unicode="&#xe48;" 
d="M-829 3259h686v-374h-686v374z" />
    <glyph glyph-name="maithothai" unicode="&#xe49;" 
d="M-353 3316v-222h313v-271h-802v214h-250v279h739z" />
    <glyph glyph-name="maitrithai" unicode="&#xe4a;" 
d="M-1355 2849c-1.33301 11.333 -2.50098 26.166 -3.50098 44.5c-1 18.333 -1.5 34.833 -1.5 49.5c0 55.333 8.33301 106.333 25 153s41.334 86.834 74.001 120.5c32.667 33.667 72.667 59.834 120 78.5c47.333 18.667 101.666 28 162.999 28
c29.333 0 58.833 -4.33301 88.5 -13s57.167 -20.667 82.5 -36s47.333 -34.166 66 -56.5c18.667 -22.333 32 -46.833 40 -73.5c6.66699 26.667 19.834 51.167 39.501 73.5s42.5 41.166 68.5 56.5c26 15.333 53.667 27.333 83 36s57.666 13 84.999 13
c45.333 0 85.833 -5.66699 121.5 -17s66.167 -27.5 91.5 -48.5s45.666 -46.167 60.999 -75.5s25.666 -62 30.999 -98c7.33301 1.33301 15.5 2.66602 24.5 4c9 1.33301 17.167 2.33301 24.5 3c8.66699 0.666992 17.667 1 27 1h67v-250h-345c-15.333 0 -29 3.83301 -41 11.5
s-18 20.167 -18 37.5c0 39.333 -9 69 -27 89s-42 30 -72 30c-22 0 -39.833 -5.66699 -53.5 -17s-24.167 -25.333 -31.5 -42s-11.666 -34.5 -12.999 -53.5s-0.333008 -36.167 3 -51.5h-265c2.66699 16 3.33398 33.667 2.00098 53s-5.5 37.166 -12.5 53.5
c-7 16.333 -17.333 30 -31 41s-30.834 16.5 -51.501 16.5c-19.333 0 -35.666 -4.33301 -48.999 -13s-23.666 -20 -30.999 -34s-12 -29.5 -14 -46.5s-1.66699 -33.5 1 -49.5z" />
    <glyph glyph-name="maichattawathai" unicode="&#xe4b;" 
d="M-799 3007h-212v274h212v173h626v-173h212v-273h-212v-177h-626v176z" />
    <glyph glyph-name="thanthakhatthai" unicode="&#xe4c;" 
d="M-286 3000v-202h-659v302c0 24.667 4.16699 48.5 12.5 71.5s20.666 43.167 36.999 60.5s36.333 31.166 60 41.5c23.667 10.333 50.834 15.5 81.501 15.5h740v-289h-272z" />
    <glyph glyph-name="nikhahitthai" unicode="&#xe4d;" 
d="M-948 2368c0 51.333 10.667 98.666 32 142c21.333 43.333 50.833 80.666 88.5 112c37.667 31.333 82.5 55.666 134.5 73c52 17.333 108.667 26 170 26c62 0 118.833 -8.66699 170.5 -26s96.167 -41.666 133.5 -73c37.333 -31.333 66.333 -68.666 87 -112
c20.667 -43.333 31 -90.666 31 -142c0 -51.333 -10.333 -98.5 -31 -141.5s-49.667 -80 -87 -111s-81.833 -55.167 -133.5 -72.5s-108.5 -26 -170.5 -26c-61.333 0 -118 8.66699 -170 26s-96.833 41.5 -134.5 72.5s-67.167 68 -88.5 111s-32 90.167 -32 141.5zM-522 2443
c-24 0 -44.167 -7 -60.5 -21s-24.5 -32 -24.5 -54c0 -20 8.16699 -37.167 24.5 -51.5s36.5 -21.5 60.5 -21.5s44.167 7.16699 60.5 21.5s24.5 31.5 24.5 51.5c0 22 -8.16699 40 -24.5 54s-36.5 21 -60.5 21z" />
    <glyph glyph-name="yamakkanthai" unicode="&#xe4e;" 
d="M-872 2530c8.66699 28.667 21.6641 55.667 38.9971 81s37.833 47.166 61.5 65.5c23.667 18.333 49.667 32.166 78 41.5c28.333 9.33301 57.5 12.333 87.5 9c-23.333 18 -41.833 41.167 -55.5 69.5s-22.834 59 -27.501 92s-4.66699 66.833 0 101.5s13.667 67.334 27 98
c22 50.667 51.5 91.667 88.5 123s77 54.333 120 69s87.167 21.667 132.5 21s87.333 -8 126 -22c8 -2.66699 18.167 -6.5 30.5 -11.5l38 -16c13 -5.66699 25.333 -11.334 37 -17l29.5 -14.5l-104 -267c-44 25.333 -82.333 34 -115 26s-54.667 -28.333 -66 -61
c-6 -17.333 -8.33301 -34.5 -7 -51.5s5.83301 -32.833 13.5 -47.5s18.334 -27.5 32.001 -38.5s30.167 -18.5 49.5 -22.5l-88 -257c-19.333 9.33301 -38.666 15 -57.999 17s-37.166 0.333008 -53.499 -5s-30.5 -14.166 -42.5 -26.5c-12 -12.333 -20.333 -28.166 -25 -47.5
c-6 -22.667 -5.66699 -43.5 1 -62.5s17 -35.5 31 -49.5s30.167 -25.333 48.5 -34s36.5 -14 54.5 -16l-65 -260c-49.333 0.666992 -95.5 8.16699 -138.5 22.5s-82 33.833 -117 58.5s-65.5 53.5 -91.5 86.5s-46.167 68.333 -60.5 106s-22.666 77 -24.999 118
s2.5 81.5 14.5 121.5z" />
    <glyph glyph-name="fongmanthai" unicode="&#xe4f;" horiz-adv-x="2173" 
d="M169 934c0 87.333 10.833 170.166 32.5 248.499s52.167 150.666 91.5 216.999s86.666 126.333 141.999 180s117 99.167 185 136.5s141.333 66.166 220 86.499s160.667 30.5 246 30.5s167.166 -10.167 245.499 -30.5s151.333 -49.166 219 -86.499
s129.334 -82.833 185.001 -136.5s103.167 -113.667 142.5 -180s69.833 -138.666 91.5 -216.999s32.5 -161.166 32.5 -248.499s-10.833 -170 -32.5 -248s-52.167 -150.333 -91.5 -217s-86.833 -126.834 -142.5 -180.501s-117.334 -99.334 -185.001 -137.001
s-140.667 -66.667 -219 -87s-160.166 -30.5 -245.499 -30.5s-167.333 10.167 -246 30.5s-152 49.333 -220 87s-129.667 83.334 -185 137.001s-102.666 113.834 -141.999 180.501s-69.833 139.167 -91.5 217.5s-32.5 160.833 -32.5 247.5zM1606 931
c0 76 -13.5 145.5 -40.5 208.5s-63.833 117.167 -110.5 162.5s-101.667 80.5 -165 105.5s-131.333 37.5 -204 37.5c-72 0 -139.667 -12.5 -203 -37.5s-118.333 -60.167 -165 -105.5s-83.5 -99.5 -110.5 -162.5s-40.5 -132.5 -40.5 -208.5
c0 -75.333 13.5 -144.166 40.5 -206.499s63.833 -115.833 110.5 -160.5s101.667 -79.334 165 -104.001s131 -37 203 -37c72.667 0 140.667 12.333 204 37s118.333 59.334 165 104.001s83.5 98.167 110.5 160.5s40.5 131.166 40.5 206.499zM1249 932
c0 22.667 -4.33301 43.667 -13 63s-20.167 36.166 -34.5 50.499s-31.333 25.5 -51 33.5s-40.5 12 -62.5 12c-22.667 0 -43.834 -4 -63.501 -12s-37 -19.167 -52 -33.5s-26.833 -31.166 -35.5 -50.499s-13 -40.333 -13 -63c0 -23.333 4.33301 -44.666 13 -63.999
s20.5 -36 35.5 -50s32.333 -25 52 -33s40.834 -12 63.501 -12c22 0 42.833 4 62.5 12s36.667 19 51 33s25.833 30.667 34.5 50s13 40.666 13 63.999z" />
    <glyph glyph-name="zerothai" unicode="&#xe50;" horiz-adv-x="2501" 
d="M140 917c0 86 12.334 168.831 37.001 248.498s60 154.167 106 223.5s102 132.333 168 189s140.333 105.334 223 146.001s173 72.167 271 94.5s202 33.5 312 33.5c113.333 0 219.833 -10.833 319.5 -32.5s190.834 -52.667 273.501 -93s156.5 -88.666 221.5 -144.999
s120 -119.166 165 -188.499s79.333 -144.166 103 -224.499s35.5 -164.166 35.5 -251.499c0 -82.667 -12.833 -163.334 -38.5 -242.001s-62.167 -152.834 -109.5 -222.501s-104.333 -133.667 -171 -192s-141.5 -108.5 -224.5 -150.5s-172.833 -74.667 -269.5 -98
s-198.334 -35 -305.001 -35c-108.667 0 -211.834 11.5 -309.501 34.5s-187.834 55.167 -270.501 96.5s-157.167 91 -223.5 149s-122.666 121.667 -168.999 191s-82 143.666 -107 222.999s-37.5 161.333 -37.5 246zM1604 901.998c0 50 -9.16602 96.333 -27.499 139
s-43.5 79.5 -75.5 110.5s-69.5 55.333 -112.5 73s-88.833 26.5 -137.5 26.5c-49.333 0 -95.333 -8.83301 -138 -26.5s-79.834 -42 -111.501 -73s-56.667 -67.833 -75 -110.5s-27.5 -89 -27.5 -139c0 -49.333 9.33301 -95.166 28 -137.499s44 -79 76 -110
s69.333 -55.333 112 -73s88 -26.5 136 -26.5s93.333 8.83301 136 26.5s80.167 42 112.5 73s57.833 67.667 76.5 110s28 88.166 28 137.499z" />
    <glyph glyph-name="onethai" unicode="&#xe51;" horiz-adv-x="2501" 
d="M1217 1267c-41.333 0 -77.8242 -3.66602 -109.491 -10.999s-58.334 -17.166 -80.001 -29.499s-38.167 -26.833 -49.5 -43.5s-17 -34.334 -17 -53.001c0 -16.667 3.66699 -31.5 11 -44.5s17.166 -24 29.499 -33s26.666 -16 42.999 -21s33.166 -7.5 50.499 -7.5
c28 0 52.167 4.33301 72.5 13s35.5 17.667 45.5 27l171 -327c-66.667 -47.333 -138.834 -81.666 -216.501 -102.999s-158.167 -32 -241.5 -32c-126 0 -235.833 16.167 -329.5 48.5s-171.5 75.666 -233.5 129.999s-108.333 116.833 -139 187.5s-46 144 -46 220
c0 46 7.83301 94.333 23.5 145s40.834 100.667 75.501 150s79.167 96.166 133.5 140.499s120 83.333 197 117s166.167 60.5 267.5 80.5s216 30 344 30c119.333 0 230.166 -12 332.499 -36s195.666 -57.167 279.999 -99.5s158.833 -92.666 223.5 -150.999
s119.167 -122 163.5 -191s78 -142.167 101 -219.5s34.5 -156 34.5 -236c0 -76 -8.66699 -152 -26 -228s-45 -149.167 -83 -219.5s-87 -135.666 -147 -195.999s-132.833 -112.5 -218.5 -156.5s-184.834 -78 -297.501 -102s-240.667 -34.333 -384 -31l-1097 15l200 510
l667 -11c93.333 -2 176.666 7.5 249.999 28.5s135.5 50.167 186.5 87.5s90 81.166 117 131.499s40.5 104.166 40.5 161.499c0 51.333 -9.33301 98.833 -28 142.5s-43.667 81.5 -75 113.5s-67.833 57.167 -109.5 75.5s-85.834 27.5 -132.501 27.5z" />
    <glyph glyph-name="twothai" unicode="&#xe52;" horiz-adv-x="2793" 
d="M1789 1679c28 0 54.1729 4.16797 78.5059 12.501s46.166 20 65.499 35s35.666 33 48.999 54s23 44.167 29 69.5c70.667 3.33301 135.5 -1.66699 194.5 -15s112.167 -32.833 159.5 -58.5s88.833 -56.5 124.5 -92.5s65.334 -75 89 -117
c23.667 -42 41.5 -85.833 53.5 -131.5s18 -90.834 18 -135.501v-749c0 -39.333 -4.33301 -80.166 -13 -122.499s-22 -84 -40 -125s-41.167 -79.833 -69.5 -116.5s-62.333 -68.834 -102 -96.501s-85.334 -49.667 -137.001 -66s-109.5 -24.5 -173.5 -24.5h-1396
c-64 0 -122.333 8.16699 -175 24.5s-100 38.333 -142 66s-78.333 59.834 -109 96.501s-56.334 75.5 -77.001 116.5s-36 82.667 -46 125s-15 83.166 -15 122.499v1550h695v-1404c0 -38 5 -71.667 15 -101s24 -53.666 42 -72.999s39.167 -34 63.5 -44s50.5 -15 78.5 -15h747
c28.667 0 54.834 5 78.501 15s44.167 24.667 61.5 44s30.833 43.666 40.5 72.999s14.5 63 14.5 101v390c0 34.667 -4 61.334 -12 80.001s-20.667 34.334 -38 47.001c-16.667 -19.333 -37 -34.833 -61 -46.5s-54 -17.5 -90 -17.5c-40.667 0 -73.834 6.5 -99.501 19.5
s-46.5 27.833 -62.5 44.5c-12 -6 -21.167 -17.667 -27.5 -35s-9.83301 -34.333 -10.5 -51c0 -13.333 2 -27.166 6 -41.499s9.83301 -27.833 17.5 -40.5s17.167 -23.834 28.5 -33.501s24.333 -15.834 39 -18.501l-310 -344c-48 16.667 -94.5 41.834 -139.5 75.501
s-84.833 75.667 -119.5 126s-62.5 109 -83.5 176s-31.5 142.167 -31.5 225.5c0 54 7 106.167 21 156.5s33.667 97.666 59 141.999s55.5 84.833 90.5 121.5s73.667 68.167 116 94.5s87.5 46.666 135.5 60.999s97.333 21.5 148 21.5c6 -25.333 15.667 -48.5 29 -69.5
s29.666 -39 48.999 -54s41.166 -26.667 65.499 -35s50.5 -12.5 78.5 -12.5z" />
    <glyph glyph-name="threethai" unicode="&#xe53;" horiz-adv-x="2501" 
d="M1641 990c0 90.667 -34 149.335 -102 176.002c-36.667 -30 -78.334 -52.833 -125.001 -68.5s-101.334 -23.5 -164.001 -23.5s-117.334 7.83301 -164.001 23.5s-88.334 38.5 -125.001 68.5c-68 -26.667 -102 -85.334 -102 -176.001v-313
c0 -70.667 15.333 -123.834 46 -159.501s78.334 -53.5 143.001 -53.5h37v-464h-392c-64 0 -121.5 8.16699 -172.5 24.5s-96.167 38.333 -135.5 66s-73 59.834 -101 96.501s-51 75.5 -69 116.5s-31.167 82.667 -39.5 125s-12.5 83.166 -12.5 122.499v624
c0 98 18.167 187.333 54.5 268s86.833 150 151.5 208s141.334 103 230.001 135s185.334 48 290.001 48c10 -34 26.167 -65 48.5 -93s49.166 -51.833 80.499 -71.5s66.833 -34.667 106.5 -45s81.834 -15.5 126.501 -15.5s86.667 5.16699 126 15.5s74.833 25.333 106.5 45
s58.667 43.5 81 71.5s38.5 59 48.5 93c108 0 206.333 -16 295 -48s164.834 -77 228.501 -135s112.834 -127.333 147.5 -208c34.667 -80.667 52 -170 52 -268v-1175h-695v990z" />
    <glyph glyph-name="fourthai" unicode="&#xe54;" horiz-adv-x="2501" 
d="M2086 852c-36.667 -21.333 -63.1621 -44.999 -79.4951 -70.999s-24.5 -53.333 -24.5 -82c0 -29.333 9.33301 -55.5 28 -78.5s43.167 -42.667 73.501 -59c30.333 -16.333 65.166 -28.833 104.499 -37.5s80 -13 122 -13h51v-511h-1308
c-105.333 0 -201.666 12.167 -288.999 36.5s-165.666 57.833 -234.999 100.5s-129.666 93.167 -180.999 151.5s-94.166 121.5 -128.499 189.5s-60 139.333 -77 214s-25.5 149.667 -25.5 225c0 86 10.167 168.167 30.5 246.5s49.5 151 87.5 218s84.167 128 138.5 183
s115.833 101.667 184.5 140s143.667 68 225 89s167.666 31.5 258.999 31.5l623 -1v277h695l1 -837c-158.667 -0.666992 -306.667 -1 -444 -1h-589c-56.667 0 -110.5 -8.16699 -161.5 -24.5s-95.833 -40.333 -134.5 -72s-69.334 -70.167 -92.001 -115.5s-34 -97 -34 -155
c0 -46 5.66699 -87.333 17 -124s26.666 -69 45.999 -97s41.666 -52.167 66.999 -72.5s52.166 -37 80.499 -50s57.166 -22.5 86.499 -28.5s57.666 -9 84.999 -9c15.333 0 33.833 -0.833008 55.5 -2.5s45.167 -5.5 70.5 -11.5
c-60.667 36.667 -104.334 80.334 -131.001 131.001s-40 106 -40 166c0 50.667 8.5 97.167 25.5 139.5s40.333 79.666 70 111.999s64.167 59.666 103.5 81.999s81.666 38.833 126.999 49.5z" />
    <glyph glyph-name="fivethai" unicode="&#xe55;" horiz-adv-x="2501" 
d="M1633 1949c-16 0 -31 -2.66699 -45 -8s-26 -12.833 -36 -22.5s-18 -21.167 -24 -34.5s-9 -28 -9 -44c0 -14.667 3 -28.5 9 -41.5s14 -24.333 24 -34s22 -17.334 36 -23.001s29 -8.5 45 -8.5c14.667 0 28.667 2.83301 42 8.5s25 13.334 35 23.001s17.833 21 23.5 34
s8.5 26.833 8.5 41.5c0 16 -2.83301 30.667 -8.5 44s-13.5 24.833 -23.5 34.5s-21.667 17.167 -35 22.5s-27.333 8 -42 8zM1053 0c-105.333 0 -201.66 12.167 -288.993 36.5s-165.666 57.833 -234.999 100.5s-129.666 93.167 -180.999 151.5s-94.166 121.5 -128.499 189.5
s-60 139.333 -77 214s-25.5 149.667 -25.5 225c0 86 10.167 168.167 30.5 246.5s49.5 151 87.5 218s84 128 138 183s114.5 101.667 181.5 140s139.833 68 218.5 89s161.667 31.5 249 31.5l53 -5c-0.666992 4 -1.5 10.333 -2.5 19s-1.5 15 -1.5 19c0 56 11 112.667 33 170
s55.667 109.166 101 155.5c45.333 46.333 103.166 84.166 173.499 113.5c70.333 29.333 153.833 44 250.5 44c100 0 185.667 -14.667 257 -44s129.666 -67.166 174.999 -113.5c45.333 -46.333 78.666 -98.166 99.999 -155.5c21.333 -57.333 32 -114 32 -170
c0 -3.33301 -0.5 -9.16602 -1.5 -17.499s-1.83301 -14.833 -2.5 -19.5l172 3v-560c-158.667 -0.666992 -306.667 -1 -444 -1h-589c-56.667 0 -110.5 -8.16699 -161.5 -24.5s-95.833 -40.333 -134.5 -72s-69.334 -70.167 -92.001 -115.5s-34 -97 -34 -155
c0 -46 5.66699 -87.333 17 -124s26.666 -69 45.999 -97s41.666 -52.167 66.999 -72.5s52.166 -37 80.499 -50s57.166 -22.5 86.499 -28.5s57.666 -9 84.999 -9c15.333 0 33.833 -0.833008 55.5 -2.5s45.167 -5.5 70.5 -11.5
c-60.667 36.667 -104.334 80.334 -131.001 131.001s-40 106 -40 166c0 50.667 8.5 97.167 25.5 139.5s40.333 79.666 70 111.999s64.167 59.666 103.5 81.999s81.666 38.833 126.999 49.5l517 -329c-36.667 -21.333 -63.167 -45 -79.5 -71s-24.5 -53.333 -24.5 -82
c0 -29.333 8.33301 -55.5 25 -78.5s39.834 -42.667 69.501 -59s64.5 -28.833 104.5 -37.5s83 -13 129 -13h51v-511h-1308z" />
    <glyph glyph-name="sixthai" unicode="&#xe56;" horiz-adv-x="2501" 
d="M1226 -21c-134 0 -260.164 13.334 -378.497 40.001s-225.333 64 -321 112s-178.334 105.667 -248.001 173s-123.5 141.666 -161.5 222.999l772 279c12.667 -44 30.834 -81.833 54.501 -113.5s51.667 -57.667 84 -78s68.166 -35.333 107.499 -45
s80.666 -14.5 123.999 -14.5c48 0 93.333 8.5 136 25.5s80.167 40.833 112.5 71.5s57.833 67 76.5 109s28 87.667 28 137c0 50 -9.16699 96.333 -27.5 139s-43.5 79.5 -75.5 110.5s-69.5 55.333 -112.5 73s-88.833 26.5 -137.5 26.5c-92.667 0 -171 -17.833 -235 -53.5
s-113.667 -82.5 -149 -140.5l-704 220v828h695v-171c0 -9.33301 -0.333008 -21.833 -1 -37.5s-1.66699 -32.167 -3 -49.5s-3 -34.166 -5 -50.499s-4 -29.166 -6 -38.499c15.333 6.66699 36 14.667 62 24s57 18.166 93 26.499s77.167 15.5 123.5 21.5s98.166 9 155.499 9
c112.667 0 218 -10.667 316 -32s187.667 -51.666 269 -90.999s153.833 -86.833 217.5 -142.5s117.5 -117.834 161.5 -186.501s77.5 -143.334 100.5 -224.001s34.5 -165.334 34.5 -254.001c0 -82 -10.5 -161.667 -31.5 -239s-52.833 -150.333 -95.5 -219
s-95.834 -131.667 -159.5 -189c-63.667 -57.333 -138.5 -106.666 -224.5 -147.999s-182.833 -73.5 -290.5 -96.5s-226.5 -34.5 -356.5 -34.5z" />
    <glyph glyph-name="seventhai" unicode="&#xe57;" horiz-adv-x="2809" 
d="M1792 528c30 0 56.335 5.66309 79.002 16.9961s41.334 26.5 56.001 45.5s25.667 41.167 33 66.5s11 52 11 80v1364h695v-1510c0 -75.333 -13.5 -148.5 -40.5 -219.5s-66.167 -134 -117.5 -189s-114.5 -99.167 -189.5 -132.5s-160.5 -50 -256.5 -50h-908v1146
c0 25.333 -5.16699 45.666 -15.5 60.999s-23.5 24.666 -39.5 27.999c-11.333 -13.333 -26.666 -25.666 -45.999 -36.999s-46.333 -16.666 -81 -15.999c-33.333 0.666992 -59.333 6.33398 -78 17.001s-35 22.667 -49 36c-16 -3.33301 -29.167 -12.666 -39.5 -27.999
s-15.5 -35.666 -15.5 -60.999v-489c0 -35.333 3.5 -65.166 10.5 -89.499s18.333 -44.166 34 -59.499s36 -26.5 61 -33.5s55.167 -10.5 90.5 -10.5v-464h-317c-64 0 -121.667 8.16699 -173 24.5s-97 38.333 -137 66s-74.333 59.834 -103 96.501s-52.334 75.5 -71.001 116.5
s-32.334 82.667 -41.001 125s-13 83.166 -13 122.499l1 724c0 59.333 8.16699 114.666 24.5 165.999s39 98 68 140s63.333 79 103 111s82.667 58.667 129 80s95.166 37 146.499 47s103 13.667 155 11c8 -25.333 19.333 -48.166 34 -68.499s31.5 -37.5 50.5 -51.5
s39.5 -24.667 61.5 -32s44.667 -11 68 -11s46 3.66699 68 11s42.5 18 61.5 32s35.833 31.167 50.5 51.5s26 43.166 34 68.499c52 2.66699 103.667 -1 155 -11s100.166 -25.667 146.499 -47s89.333 -48 129 -80s74 -69 103 -111s51.667 -88.667 68 -140
s24.5 -106.666 24.5 -165.999v-604c0 -23.333 -1.83301 -46.833 -5.5 -70.5s-8.5 -47.834 -14.5 -72.501z" />
    <glyph glyph-name="eightthai" unicode="&#xe58;" horiz-adv-x="2501" 
d="M885 -19c-120.667 10 -228.498 42.165 -323.498 96.498s-175.333 124.333 -241 210s-115.834 183.334 -150.501 293.001s-52 224.834 -52 345.501c0 75.333 9.66699 150.5 29 225.5s47.833 146.667 85.5 215s83.834 131.833 138.501 190.5s117.5 109.5 188.5 152.5
s149.667 76.5 236 100.5s179.833 35.667 280.5 35l572 -3v259h695v-820l-1143 1c-64.667 0 -120.167 -9.16699 -166.5 -27.5s-84.5 -42.5 -114.5 -72.5s-52 -64.5 -66 -103.5s-21 -79.5 -21 -121.5c0 -66 9.16699 -124 27.5 -174s44.166 -90.333 77.499 -121
c33.333 34 76.333 62.333 129 85s114.334 34 185.001 34c35.333 0 67.333 -3 96 -9s54.667 -14.167 78 -24.5s44.333 -22.333 63 -36s36 -27.834 52 -42.501c68 26.667 102 85.334 102 176.001v90h695v-275c0 -98 -17.333 -188.333 -52 -271
s-83.834 -154.167 -147.501 -214.5s-139.834 -107.5 -228.501 -141.5s-187 -51 -295 -51c-10 34 -26.167 65.833 -48.5 95.5s-49.333 55.5 -81 77.5s-67.167 39.333 -106.5 52s-81.333 19 -126 19s-87 -6.33301 -127 -19s-76 -30 -108 -52s-59.5 -48 -82.5 -78
s-39.5 -62 -49.5 -96z" />
    <glyph glyph-name="ninethai" unicode="&#xe59;" horiz-adv-x="2501" 
d="M1648 1842l-0.00195312 259.002h695v-820l-337 2c56 -48 108.167 -114.167 156.5 -198.5s90 -182.333 125 -294s62.5 -234.667 82.5 -369s30 -275.166 30 -422.499h-619c2.66699 118.667 -3.16602 232.167 -17.499 340.5s-35.5 209.166 -63.5 302.499
s-62.167 177.833 -102.5 253.5s-85.333 140.334 -135 194.001s-102.834 95 -159.501 124s-115.667 43.833 -177 44.5c-42 0 -80.833 -7.5 -116.5 -22.5s-66.667 -37.5 -93 -67.5s-47 -67 -62 -111s-22.5 -94.667 -22.5 -152c0 -59.333 5.16699 -110 15.5 -152
s23.333 -76.667 39 -104s32.667 -47.333 51 -60s35.833 -19 52.5 -19c34 0 60.167 13.667 78.5 41s32.166 67.333 41.499 120l531 -131c-12.667 -79.333 -35.834 -156.333 -69.501 -231s-78.667 -141 -135 -199s-124.166 -104.5 -203.499 -139.5
s-170.666 -52.5 -273.999 -52.5c-88 0 -169.833 11.667 -245.5 35s-144.667 56.166 -207 98.499s-117.666 92.666 -165.999 150.999s-89 122.666 -122 192.999s-58 145.333 -75 225s-25.5 161.5 -25.5 245.5c0 75.333 9.66699 150.5 29 225.5s47.833 146.667 85.5 215
s83.834 131.833 138.501 190.5s117.5 109.5 188.5 152.5s149.667 76.5 236 100.5s179.833 35.667 280.5 35z" />
    <glyph glyph-name="angkhankhuthai" unicode="&#xe5a;" horiz-adv-x="3039" 
d="M2113 0h723v1865h-723v-1865zM1065 1869l-22.001 -435.002c-5.33301 2 -11.833 3.5 -19.5 4.5s-13.167 1.5 -16.5 1.5c-23.333 0 -45 -4.16699 -65 -12.5s-37.333 -20 -52 -35s-26.167 -32.833 -34.5 -53.5s-12.5 -43.667 -12.5 -69s4.16699 -49 12.5 -71
s19.833 -41.167 34.5 -57.5s32 -29.166 52 -38.499s41.667 -14 65 -14c42 0 78.5 10.833 109.5 32.5s51.833 53.834 62.5 96.501v650h710v-1868h-730v377c0 24 0.166992 49.333 0.5 76s1.16602 51 2.49902 73c0.666992 26 1.66699 51.333 3 76
c-19.333 -13.333 -40.166 -24.166 -62.499 -32.499s-45.333 -14.833 -69 -19.5s-47 -7.66699 -70 -9s-44.833 -2 -65.5 -2c-60 0 -119.5 8 -178.5 24s-115 38.5 -168 67.5s-102 64.167 -147 105.5s-84 87.166 -117 137.499s-58.833 104.666 -77.5 162.999
s-28 119.5 -28 183.5c0 100.667 18.5 191.667 55.5 273s87.667 150.5 152 207.5s139.833 100.833 226.5 131.5s180 46 280 46c6.66699 0 17.334 -0.166992 32.001 -0.5s30.5 -0.833008 47.5 -1.5s33.667 -1.66699 50 -3s29.5 -2.66602 39.5 -3.99902z" />
    <glyph glyph-name="khomutthai" unicode="&#xe5b;" horiz-adv-x="3571" 
d="M2640 742l-69.9941 -117.501l-72.5 -121.5l-72.5 -121l-69 -116h-451l-244 413c-39.333 -65.333 -82.833 -125.833 -130.5 -181.5s-102.334 -103.834 -164.001 -144.501s-131.167 -72.5 -208.5 -95.5s-165 -34.5 -263 -34.5c-66.667 0 -131.834 8 -195.501 24
s-124 39 -181 69s-109.667 66.333 -158 109s-90 90.667 -125 144s-62.333 111.333 -82 174s-29.5 129.334 -29.5 200.001c0 74 9.16699 143 27.5 207s44 122.167 77 174.5s72.833 99 119.5 140s98.5 75.333 155.5 103s118 48.834 183 63.501s132.833 22 203.5 22
c138.667 0 261.667 -33 369 -99l-197 -459c-16 10.667 -30.667 19.334 -44 26.001s-26.333 11.667 -39 15s-25.334 5.5 -38.001 6.5s-26.334 1.5 -41.001 1.5c-21.333 0 -43 -4.33301 -65 -13s-42.333 -21.5 -61 -38.5s-33.834 -38.167 -45.501 -63.5
s-17.5 -54.333 -17.5 -87c0 -32 6 -60.5 18 -85.5s27.5 -46.333 46.5 -64s40 -31.167 63 -40.5s45.167 -14 66.5 -14c55.333 -2 103.666 11.167 144.999 39.5s80 71.166 116 128.499l484 764l481 -821l209 356h1048v-463h-748z" />
    <glyph glyph-name="ZWSP" unicode="&#x200b;" 
 />
    <glyph glyph-name="endash" unicode="&#x2013;" horiz-adv-x="2032" 
d="M1961 1161v-504h-1890v504h1890z" />
    <glyph glyph-name="emdash" unicode="&#x2014;" horiz-adv-x="3482" 
d="M3408 1161v-504h-3337v504h3337z" />
    <glyph glyph-name="quoteleft" unicode="&#x2018;" horiz-adv-x="987" 
d="M98 1899l345 933l461 -161l-256 -957z" />
    <glyph glyph-name="quoteright" unicode="&#x2019;" horiz-adv-x="987" 
d="M902 2662l-345 -933l-461 161l256 957z" />
    <glyph glyph-name="quotedblleft" unicode="&#x201c;" horiz-adv-x="1894" 
d="M98 1899l345 933l461 -161l-256 -957zM1002 1899l345 933l461 -161l-256 -957z" />
    <glyph glyph-name="quotedblright" unicode="&#x201d;" horiz-adv-x="1894" 
d="M1808 2647l-345 -933l-461 161l256 957zM904 2647l-345 -933l-461 161l256 957z" />
    <glyph glyph-name="bullet" unicode="&#x2022;" horiz-adv-x="1802" 
d="M903 1589c62.667 0 122.334 -7.83301 179.001 -23.5s109.167 -37.834 157.5 -66.501s92.166 -63 131.499 -103s72.666 -84.5 99.999 -133.5s48.5 -101.5 63.5 -157.5s22.5 -114 22.5 -174s-7.5 -117.667 -22.5 -173s-36.167 -107.166 -63.5 -155.499
s-60.666 -92.5 -99.999 -132.5s-83.166 -74.333 -131.499 -103s-100.833 -50.834 -157.5 -66.501s-116.334 -23.5 -179.001 -23.5c-94 0 -181.167 17.333 -261.5 52s-149.833 81.667 -208.5 141s-104.667 128.666 -138 207.999s-50 163.666 -50 252.999
c0 90.667 16.667 175.834 50 255.501s79.333 149.334 138 209.001s128.167 106.834 208.5 141.501s167.5 52 261.5 52z" />
    <glyph glyph-name="Euro" unicode="&#x20ac;" horiz-adv-x="2189" 
d="M364 1590c42.667 115.333 102.5 220.668 179.5 316.001s167.667 177.166 272 245.499s221.166 121.5 350.499 159.5s268 57.333 416 58c78 0.666992 153.5 -4.5 226.5 -15.5s143.833 -27.167 212.5 -48.5v-605l-100 -35c-28 20.667 -56.167 38 -84.5 52
s-56.5 25.167 -84.5 33.5s-55.5 14.333 -82.5 18s-53.5 5.83398 -79.5 6.50098c-82 0.666992 -156.833 -15.5 -224.5 -48.5s-125.5 -78.5 -173.5 -136.5h526l-102 -327h-559c-4 -32 -6 -64.333 -6 -97c0 -23.333 1 -46 3 -68s4.66699 -43.667 8 -65h511l-98 -307h-268
c51.333 -55.333 110.833 -97.333 178.5 -126s139.167 -42.334 214.5 -41.001c28 0 57 2.5 87 7.5s60.333 13 91 24s61.5 25.5 92.5 43.5s61.167 40 90.5 66l98 -25v-627c-74 -24.667 -150.667 -43.667 -230 -57s-161.666 -19.666 -246.999 -18.999
c-145.333 0.666992 -282 18.667 -410 54s-244 85.666 -348 150.999s-194.667 144.333 -272 237s-138 196.667 -182 312h-304l96 307h136c-2.66699 22.667 -4.5 45.5 -5.5 68.5s-1.5 46.167 -1.5 69.5c0 30 1 60.667 3 92h-248l96 327h222z" />
    <glyph glyph-name="trademark" unicode="&#x2122;" horiz-adv-x="2802" 
d="M1555 2323l384 -850l398 850h190v-1248h-221v681l-167 -350l-163 -343h-75l-323 690v-678h-222v1248h199zM1139 2323h-975v-219h375v-1029h226v1029h374v219z" />
    <glyph glyph-name="uni25CC" unicode="&#x25cc;" horiz-adv-x="1876" 
d="M1512 1734l-109 -301c-24.667 42 -54.5 80 -89.5 114s-73.833 62.667 -116.5 86zM940 1961l142 -281.999c-22 6 -44.667 10.667 -68 14s-47 5 -71 5c-26 0 -51.333 -1.83301 -76 -5.5s-48.667 -8.83398 -72 -15.501zM369 612.001l107.001 297
c23.333 -42 51.666 -80.167 84.999 -114.5s71 -63.833 113 -88.5zM150.001 1176l282 139c-14 -48 -21 -97.667 -21 -149c0 -45.333 5.66699 -90 17 -134zM405.001 1734l286.001 -99.998c-42 -22.667 -80.333 -50.334 -115 -83.001s-64.334 -69.334 -89.001 -110.001z
M1736 1163l-276.001 -122c4.66699 20 8.33398 40.5 11.001 61.5s4 42.167 4 63.5c0 48.667 -6.66699 96.667 -20 144zM941.001 376.003l-136 276c44 -12 90 -18 138 -18c44 0 86.667 5 128 15zM1476 614.003l-277 84.999c40.667 22.667 77.667 49.834 111 81.501
s62.333 67.5 87 107.5z" />
    <glyph glyph-name="thothannobasethai" unicode="&#xf700;" horiz-adv-x="1864" 
d="M967 437l-394.998 0.00488281v529h395v207c0 20 -3.33301 38.667 -10 56s-15.834 32.166 -27.501 44.499s-25.5 22.166 -41.5 29.499s-33.333 11 -52 11c-14 0 -28.167 -2.16699 -42.5 -6.5s-27.5 -12 -39.5 -23s-22.5 -26 -31.5 -45s-15.5 -42.833 -19.5 -71.5l-678 69
c6.66699 51.333 19 102.5 37 153.5s41.333 99.667 70 146s62.5 89.666 101.5 129.999s83.167 75.166 132.5 104.499s103.666 52.5 162.999 69.5s123.666 25.5 192.999 25.5c38.667 0 74.834 -2.83301 108.501 -8.5s64.167 -12.834 91.5 -21.501s50.666 -18.167 69.999 -28.5
s34 -20.5 44 -30.5l1 1c-1.33301 10.667 -2.66602 24.167 -3.99902 40.5s-2 33.5 -2 51.5v95h690v-1965h-754v437z" />
    <glyph glyph-name="yoyingnobasethai" unicode="&#xf70f;" horiz-adv-x="3017" 
d="M2005 -21c-134.667 0 -255.497 18.833 -362.497 56.5s-197.833 89.334 -272.5 155.001s-131.834 143 -171.501 232s-59.5 185.167 -59.5 288.5l1 468c0 24 -3.5 44.167 -10.5 60.5s-15.833 29.666 -26.5 39.999s-22.5 17.833 -35.5 22.5s-25.833 7 -38.5 7
c-13.333 0 -26.833 -2.33301 -40.5 -7s-26.334 -12.167 -38.001 -22.5s-21.167 -24 -28.5 -41s-11 -37.5 -11 -61.5v-1177h-768v1157c0 99.333 20.167 193.333 60.5 282s98.5 166.334 174.5 233.001s168.667 119.5 278 158.5s233 58.5 371 58.5s260 -19.5 366 -58.5
s194.833 -91.667 266.5 -158s125.834 -143.5 162.501 -231.5s55 -181 55 -279v-475c0 -24 3.66699 -44.167 11 -60.5s16.666 -29.5 27.999 -39.5s24 -17.167 38 -21.5s27.667 -6.5 41 -6.5c12 0 24.667 2.16699 38 6.5s25.333 11.333 35.999 21
c10.667 9.66699 19.5 22.5 26.5 38.5s10.5 36 10.5 60v1183h766v-1157c0 -103.333 -20 -199.5 -60 -288.5s-97.333 -166.333 -172 -232s-165.5 -117.334 -272.5 -155.001s-227.833 -56.5 -362.5 -56.5z" />
    <glyph glyph-name="saraulowthai" unicode="&#xf718;" 
d="M-147 -1102h-705v238h-224v246h929v-484z" />
    <glyph glyph-name="sarauulowthai" unicode="&#xf719;" 
d="M-132 -664c-17.333 -72 -45.501 -137.667 -84.501 -197s-87.5 -110.166 -145.5 -152.499s-125.5 -75.166 -202.5 -98.499s-162.167 -35 -255.5 -35c-96 0 -184.667 11.667 -266 35s-153.166 56.166 -215.499 98.499s-114.5 93.166 -156.5 152.499s-72 125 -90 197l503 60
c4 -24 13.333 -44.667 28 -62s32 -31.666 52 -42.999s41.5 -19.666 64.5 -24.999s44.833 -8 65.5 -8c20 0 41.333 2.66699 64 8s44 13.666 64 24.999s37.333 25.666 52 42.999s23.667 38 27 62z" />
    <glyph glyph-name="phinthulowthai" unicode="&#xf71a;" 
d="M-864 -856c0 38.667 9.33301 75.167 28 109.5s43.834 64.333 75.501 90s68.667 45.834 111 60.501s87.166 22 134.499 22c48.667 0 94.667 -7.33301 138 -22s81.166 -34.834 113.499 -60.501s57.833 -55.667 76.5 -90s28 -70.833 28 -109.5
c0 -38 -9.33301 -73.667 -28 -107s-44.167 -62.5 -76.5 -87.5s-70.166 -44.833 -113.499 -59.5s-89.333 -22 -138 -22c-47.333 0 -92.166 7.33301 -134.499 22s-79.333 34.5 -111 59.5s-56.834 54.167 -75.501 87.5s-28 69 -28 107z" />
    <glyph glyph-name="lochula.short" unicode="&#xf71d;" horiz-adv-x="2957" 
d="M911 1868l0.00195312 -1181c0 -24 4.5 -44.167 13.5 -60.5s20.167 -29.5 33.5 -39.5s27.166 -17.167 41.499 -21.5s27.166 -6.5 38.499 -6.5c10 0 22 2.16699 36 6.5s27.167 11.333 39.5 21s22.833 22.5 31.5 38.5s13 36 13 60v443h640v-443c0 -24 4.33301 -44 13 -60
s19.167 -28.833 31.5 -38.5s25.5 -16.667 39.5 -21s26 -6.5 36 -6.5c10.667 0 23.334 2.16699 38.001 6.5s28.667 11.5 42 21.5s24.5 23.167 33.5 39.5s13.5 36.5 13.5 60.5v357c0 48 -5.5 90.833 -16.5 128.5s-29.333 69.834 -55 96.501s-59.334 47 -101.001 61
s-93.5 21 -155.5 21h-554l-1 517h1745l-153 -468l-239 4c42.667 -7.33301 82.167 -22.833 118.5 -46.5s67.666 -52.667 94 -87c26.333 -34.333 47 -72.166 62 -113.499s22.5 -83 22.5 -125l1 -321c0 -99.333 -18.333 -193.333 -55 -282s-90.834 -166.334 -162.5 -233.001
c-71.667 -66.667 -160.334 -119.5 -266 -158.5c-105.667 -39 -227.5 -58.5 -365.5 -58.5c-58 0 -113.667 7.83301 -167 23.5s-101.666 35.834 -144.999 60.501s-80.166 52.5 -110.499 83.5s-51.5 62.167 -63.5 93.5c-12.667 -31.333 -34.167 -62.5 -64.5 -93.5
s-67 -58.833 -110 -83.5s-91.167 -44.834 -144.5 -60.501s-109 -23.5 -167 -23.5c-138 0 -259.833 19.5 -365.5 58.5s-194.334 91.833 -266.001 158.5s-125.834 144.334 -162.501 233.001s-55 182.667 -55 282v1157h768z" />
    <glyph glyph-name=".null" 
 />
    <glyph glyph-name="nonmarkingreturn" horiz-adv-x="1159" 
 />
    <glyph glyph-name="yamakkanleftthai" 
d="M-1367 2520c10 32.667 24.335 61.667 43.002 87s39.667 46.333 63 63s48.333 28.834 75 36.5c26.667 7.66699 53 10.167 79 7.5c-22.667 18.667 -41.167 41.167 -55.5 67.5s-24.5 53.833 -30.5 82.5s-7.66699 57.834 -5 87.5c2.66699 29.667 9.66699 57.5 21 83.5
c20.667 48 46.667 85.833 78 113.5s65 47.167 101 58.5s73.5 15.333 112.5 12s76.833 -11.333 113.5 -24c16 -5.33301 32.5 -12 49.5 -20s33.167 -16 48.5 -24l-92 -241c-84 48.667 -137.667 42.334 -161 -19v1c-10.667 -34 -8.5 -64 6.5 -90s43.5 -45.333 85.5 -58
l-84 -245c-18.667 8.66699 -36.667 15 -54 19s-33.5 4.83301 -48.5 2.5s-28 -8.33301 -39 -18s-19.5 -23.5 -25.5 -41.5s-6 -34.667 0 -50s15.5 -29 28.5 -41s28 -21.833 45 -29.5s34.167 -12.5 51.5 -14.5l-48 -231c-56.667 3.33301 -110.334 16.166 -161.001 38.5
c-50.667 22.333 -93.334 52.333 -128.001 90s-59 81.667 -73 132s-12.667 105.166 4 164.5z" />
    <glyph glyph-name="uni0E33.alt1" horiz-adv-x="1344" 
d="M10 1400l153 467.998h297c144 0 263.667 -16.167 359 -48.5s171.333 -78.166 228 -137.499s96.5 -130.666 119.5 -213.999s34.5 -176.333 34.5 -279v-1189h-769v1161c0 36.667 -3.83301 69.667 -11.5 99s-20 54.333 -37 75s-38.667 36.667 -65 48s-57.833 17 -94.5 17
h-214zM-1828 2368c0 51.333 10.667 98.666 32 142c21.333 43.333 50.833 80.666 88.5 112c37.667 31.333 82.5 55.666 134.5 73c52 17.333 108.667 26 170 26c62 0 118.833 -8.66699 170.5 -26s96.167 -41.666 133.5 -73c37.333 -31.333 66.333 -68.666 87 -112
c20.667 -43.333 31 -90.666 31 -142c0 -51.333 -10.333 -98.5 -31 -141.5s-49.667 -80 -87 -111s-81.833 -55.167 -133.5 -72.5s-108.5 -26 -170.5 -26c-61.333 0 -118 8.66699 -170 26s-96.833 41.5 -134.5 72.5s-67.167 68 -88.5 111s-32 90.167 -32 141.5zM-1402 2443
c-24 0 -44.167 -7 -60.5 -21s-24.5 -32 -24.5 -54c0 -20 8.16699 -37.167 24.5 -51.5s36.5 -21.5 60.5 -21.5s44.167 7.16699 60.5 21.5s24.5 31.5 24.5 51.5c0 22 -8.16699 40 -24.5 54s-36.5 21 -60.5 21z" />
    <glyph glyph-name="saraamleft" horiz-adv-x="1344" 
d="M10 1400l153 467.998h297c144 0 263.667 -16.167 359 -48.5s171.333 -78.166 228 -137.499s96.5 -130.666 119.5 -213.999s34.5 -176.333 34.5 -279v-1189h-769v1161c0 36.667 -3.83301 69.667 -11.5 99s-20 54.333 -37 75s-38.667 36.667 -65 48s-57.833 17 -94.5 17
h-214zM-1828 2368c0 51.333 10.667 98.666 32 142c21.333 43.333 50.833 80.666 88.5 112c37.667 31.333 82.5 55.666 134.5 73c52 17.333 108.667 26 170 26c62 0 118.833 -8.66699 170.5 -26s96.167 -41.666 133.5 -73c37.333 -31.333 66.333 -68.666 87 -112
c20.667 -43.333 31 -90.666 31 -142c0 -51.333 -10.333 -98.5 -31 -141.5s-49.667 -80 -87 -111s-81.833 -55.167 -133.5 -72.5s-108.5 -26 -170.5 -26c-61.333 0 -118 8.66699 -170 26s-96.833 41.5 -134.5 72.5s-67.167 68 -88.5 111s-32 90.167 -32 141.5zM-1402 2443
c-24 0 -44.167 -7 -60.5 -21s-24.5 -32 -24.5 -54c0 -20 8.16699 -37.167 24.5 -51.5s36.5 -21.5 60.5 -21.5s44.167 7.16699 60.5 21.5s24.5 31.5 24.5 51.5c0 22 -8.16699 40 -24.5 54s-36.5 21 -60.5 21z" />
    <glyph glyph-name="maiekthai.alt5" 
d="M-834 3047h686v-374h-686v374z" />
    <glyph glyph-name="maithothai.alt5" 
d="M-353 3205v-281h313v-271h-802v273h-250v279h739z" />
    <glyph glyph-name="maitrithai.alt5" 
d="M-1455 2659c-1.33301 11.333 -2.83496 26.166 -4.50195 44.5c-1.66699 18.333 -2.5 34.833 -2.5 49.5c0 55.333 8.5 106.333 25.5 153s41.833 86.834 74.5 120.5c32.667 33.667 72.834 59.834 120.501 78.5c47.667 18.667 102.167 28 163.5 28
c29.333 0 58.833 -4.33301 88.5 -13s57.167 -20.667 82.5 -36s47.333 -34.166 66 -56.5c18.667 -22.333 32 -46.833 40 -73.5c6.66699 26.667 19.834 51.167 39.501 73.5s42.5 41.166 68.5 56.5c26 15.333 53.667 27.333 83 36s57.666 13 84.999 13
c45.333 0 85.833 -5.66699 121.5 -17s66.167 -27.5 91.5 -48.5s45.666 -46.167 60.999 -75.5s25.666 -62 30.999 -98c7.33301 1.33301 15.5 2.66602 24.5 4c9 1.33301 17.167 2.33301 24.5 3c8.66699 0.666992 17.667 1 27 1h67v-250h-345c-15.333 0 -29 3.83301 -41 11.5
s-18 20.167 -18 37.5c0 39.333 -9 69 -27 89s-42 30 -72 30c-22 0 -39.833 -5.66699 -53.5 -17s-24.167 -25.333 -31.5 -42s-11.666 -34.5 -12.999 -53.5s-0.333008 -36.167 3 -51.5h-265c2.66699 16 3.33398 33.667 2.00098 53s-5.5 37.166 -12.5 53.5
c-7 16.333 -17.333 30 -31 41s-30.834 16.5 -51.501 16.5c-19.333 0 -35.666 -4.33301 -48.999 -13s-23.666 -20 -30.999 -34s-12 -29.5 -14 -46.5s-1.66699 -33.5 1 -49.5z" />
    <glyph glyph-name="maichattawathai.alt5" 
d="M-799 2817h-212v274h212v173h626v-173h212v-273h-212v-177h-626v176z" />
    <glyph glyph-name="thanthakhatthai.alt5" 
d="M-286 2817v-202h-659v302c0 24.667 4.16699 48.5 12.5 71.5s20.666 43.167 36.999 60.5s36.333 31.166 60 41.5c23.667 10.333 50.834 15.5 81.501 15.5h740v-289h-272z" />
    <glyph glyph-name="maiekthai.alt51" 
d="M-828 3279h646v-394h-646v394z" />
    <glyph glyph-name="maichattawathai.alt51" 
d="M-817 3027h-212v274h212v173h626v-173h212v-273h-212v-177h-626v176z" />
    <glyph glyph-name="maiekupperleftthai.alt6" 
d="M-1638 3077h546v-403h-546v403z" />
    <glyph glyph-name="maithoupperleftthai.alt6" 
d="M-740 3256v-262h355v-271h-904v254h-250v279h799z" />
    <glyph glyph-name="maitriupperleftthai.alt6" 
d="M-1675 2699c-1.33301 11.333 -2.50098 26.166 -3.50098 44.5c-1 18.333 -1.5 34.833 -1.5 49.5c0 55.333 8.33301 106.333 25 153s41.334 86.834 74.001 120.5c32.667 33.667 72.667 59.834 120 78.5c47.333 18.667 101.666 28 162.999 28
c29.333 0 58.833 -4.33301 88.5 -13s57.167 -20.667 82.5 -36s47.333 -34.166 66 -56.5c18.667 -22.333 32 -46.833 40 -73.5c6.66699 26.667 19.834 51.167 39.501 73.5s42.5 41.166 68.5 56.5c26 15.333 53.667 27.333 83 36s57.666 13 84.999 13
c45.333 0 85.833 -5.66699 121.5 -17s66.167 -27.5 91.5 -48.5s45.666 -46.167 60.999 -75.5s25.666 -62 30.999 -98c7.33301 1.33301 15.5 2.66602 24.5 4c9 1.33301 17.167 2.33301 24.5 3c8.66699 0.666992 17.667 1 27 1h67v-250h-345c-15.333 0 -29 3.83301 -41 11.5
s-18 20.167 -18 37.5c0 39.333 -9 69 -27 89s-42 30 -72 30c-22 0 -39.833 -5.66699 -53.5 -17s-24.167 -25.333 -31.5 -42s-11.666 -34.5 -12.999 -53.5s-0.333008 -36.167 3 -51.5h-265c2.66699 16 3.33398 33.667 2.00098 53s-5.5 37.166 -12.5 53.5
c-7 16.333 -17.333 30 -31 41s-30.834 16.5 -51.501 16.5c-19.333 0 -35.666 -4.33301 -48.999 -13s-23.666 -20 -30.999 -34s-12 -29.5 -14 -46.5s-1.66699 -33.5 1 -49.5z" />
    <glyph glyph-name="maichattawaupperleftthai.alt6" 
d="M-1293 2884h-212v294h212v173h486v-173h212v-293h-212v-177h-486v176z" />
    <glyph glyph-name="thanthakhatupperleftthai.alt6" 
d="M-1100 2832v-222h-659v302c0 24.667 4.16699 49.5 12.5 74.5s20.666 47.5 36.999 67.5s36.333 36.167 60 48.5s50.834 18.5 81.501 18.5h780v-289h-312z" />
    <glyph glyph-name="maiekupperleftthai.alt61" 
d="M-1731 3259h646v-394h-646v394z" />
    <glyph glyph-name="maithoupperleftthai.alt61" 
d="M-1066 3399v-262h355v-271h-904v254h-250v279h799z" />
    <glyph glyph-name="maitriupperleftthai.alt61" 
d="M-1633 2846c-1.33301 11.333 -2.83496 26.166 -4.50195 44.5c-1.66699 18.333 -2.5 34.833 -2.5 49.5c0 55.333 8.5 106.333 25.5 153s41.833 86.834 74.5 120.5c32.667 33.667 72.834 59.834 120.501 78.5c47.667 18.667 102.167 28 163.5 28
c29.333 0 58.833 -4.33301 88.5 -13s57.167 -20.667 82.5 -36s47.333 -34.166 66 -56.5c18.667 -22.333 32 -46.833 40 -73.5c6.66699 26.667 19.834 51.167 39.501 73.5s42.5 41.166 68.5 56.5c26 15.333 53.667 27.333 83 36s57.666 13 84.999 13
c45.333 0 85.833 -5.66699 121.5 -17s66.167 -27.5 91.5 -48.5s45.666 -46.167 60.999 -75.5s25.666 -62 30.999 -98c7.33301 1.33301 15.5 2.66602 24.5 4c9 1.33301 17.167 2.33301 24.5 3c8.66699 0.666992 17.667 1 27 1h67v-250h-345c-15.333 0 -29 3.83301 -41 11.5
s-18 20.167 -18 37.5c0 39.333 -9 69 -27 89s-42 30 -72 30c-22 0 -39.833 -5.66699 -53.5 -17s-24.167 -25.333 -31.5 -42s-11.666 -34.5 -12.999 -53.5s-0.333008 -36.167 3 -51.5h-265c2.66699 16 3.33398 33.667 2.00098 53s-5.5 37.166 -12.5 53.5
c-7 16.333 -17.333 30 -31 41s-30.834 16.5 -51.501 16.5c-19.333 0 -35.666 -4.33301 -48.999 -13s-23.666 -20 -30.999 -34s-12 -29.5 -14 -46.5s-1.66699 -33.5 1 -49.5z" />
    <glyph glyph-name="maichattawaupperleftthai.alt61" 
d="M-1721 3007h-212v274h212v173h626v-173h212v-273h-212v-177h-626v176z" />
    <glyph glyph-name="saraithai.alt17" 
d="M-141 2406v-300h-1549v300h1549z" />
    <glyph glyph-name="saraiithai.alt17" 
d="M-846 2660h703v-554h-1547v300h844v254z" />
    <glyph glyph-name="sarauethai.alt17" 
d="M-143 2106h-1547v300l840 2c-1.33301 4.66699 -2.16602 10.834 -2.49902 18.5c-0.333008 7.66699 -0.5 13.834 -0.5 18.5c0 35.333 7.66699 70.333 23 105s38 65.667 68 93s67.333 49.5 112 66.5s96.334 25.5 155.001 25.5c59.333 0 111.5 -8.5 156.5 -25.5
s82.5 -39.333 112.5 -67s52.5 -58.834 67.5 -93.5c15 -34.667 22.5 -69.667 22.5 -105c0 -17.333 -0.666992 -30.333 -2 -39s-3 -16 -5 -22v-277zM-492.002 2499c-26.667 0 -49 -8 -67 -24s-27 -36.667 -27 -62c0 -22 9 -41.167 27 -57.5s40.333 -24.5 67 -24.5
c26 0 48 8.16699 66 24.5s27 35.5 27 57.5c0 25.333 -9 46 -27 62s-40 24 -66 24z" />
    <glyph glyph-name="saraueethai.alt17" 
d="M-563 2660h420v-554h-1547v300h547v254h420v-254h160v254z" />
    <glyph glyph-name="maihanakatleftthai.alt4" 
d="M-1545 2406h1686v-300h-2360v535h674v-235z" />
    <glyph glyph-name="saraileftthai.alt4" 
d="M-1139 2106h-1713v300h1713v-300z" />
    <glyph glyph-name="saraiileftthai.alt4" 
d="M-1822 2660h683v-554h-1713v300h1030v254z" />
    <glyph glyph-name="saraueleftthai.alt4" 
d="M-1139 2106h-1713v300l1006 2c-1.33301 4.66699 -2.16602 10.834 -2.49902 18.5c-0.333008 7.66699 -0.5 13.834 -0.5 18.5c0 35.333 7.66699 70.333 23 105s38 65.667 68 93s67.333 49.5 112 66.5s96.334 25.5 155.001 25.5c59.333 0 111.5 -8.5 156.5 -25.5
s82.5 -39.333 112.5 -67s52.5 -58.834 67.5 -93.5c15 -34.667 22.5 -69.667 22.5 -105c0 -17.333 -0.666992 -30.333 -2 -39s-3 -16 -5 -22v-277zM-1488 2499c-26.667 0 -49 -8 -67 -24s-27 -36.667 -27 -62c0 -22 9 -41.167 27 -57.5s40.333 -24.5 67 -24.5
c26 0 48 8.16699 66 24.5s27 35.5 27 57.5c0 25.333 -9 46 -27 62s-40 24 -66 24z" />
    <glyph glyph-name="saraueeleftthai.alt4" 
d="M-1559 2660h420v-554h-1713v300h713v254h420v-254h160v254z" />
    <glyph glyph-name="maiekupperleftthai.alt62" 
d="M-1818 2968h666v-374h-666v374z" />
    <glyph glyph-name="maithoupperleftthai.alt62" 
d="M-1393 3155v-281h313v-271h-802v273h-250v279h739z" />
    <glyph glyph-name="maitriupperleftthai.alt62" 
d="M-2475 2609c-1.33301 11.333 -2.83301 26.166 -4.5 44.5c-1.66699 18.333 -2.5 34.833 -2.5 49.5c0 55.333 8.5 106.333 25.5 153s41.833 86.834 74.5 120.5c32.667 33.667 72.834 59.834 120.501 78.5c47.667 18.667 102.167 28 163.5 28
c29.333 0 58.833 -4.33301 88.5 -13s57.167 -20.667 82.5 -36s47.333 -34.166 66 -56.5c18.667 -22.333 32 -46.833 40 -73.5c6.66699 26.667 19.834 51.167 39.501 73.5s42.5 41.166 68.5 56.5c26 15.333 53.667 27.333 83 36s57.666 13 84.999 13
c45.333 0 85.833 -5.66699 121.5 -17s66.167 -27.5 91.5 -48.5s45.666 -46.167 60.999 -75.5s25.666 -62 30.999 -98c7.33301 1.33301 15.5 2.66602 24.5 4c9 1.33301 17.167 2.33301 24.5 3c8.66699 0.666992 17.667 1 27 1h67v-250h-345c-15.333 0 -29 3.83301 -41 11.5
s-18 20.167 -18 37.5c0 39.333 -9 69 -27 89s-42 30 -72 30c-22 0 -39.833 -5.66699 -53.5 -17s-24.167 -25.333 -31.5 -42s-11.666 -34.5 -12.999 -53.5s-0.333008 -36.167 3 -51.5h-265c2.66699 16 3.33398 33.667 2.00098 53s-5.5 37.166 -12.5 53.5
c-7 16.333 -17.333 30 -31 41s-30.834 16.5 -51.501 16.5c-19.333 0 -35.666 -4.33301 -49 -13c-13.333 -8.66699 -23.666 -20 -31 -34c-7.33301 -14 -12 -29.5 -14 -46.5s-1.66699 -33.5 1 -49.5z" />
    <glyph glyph-name="maichattawaupperleftthai.alt62" 
d="M-1812 2727h-212v274h212v173h626v-173h212v-273h-212v-177h-626v176z" />
    <glyph glyph-name="thanthakhatupperleftthai.alt62" 
d="M-1186 2742v-202h-659v302c0 24.667 4.16699 48.5 12.5 71.5s20.666 43.167 36.999 60.5s36.333 31.166 60 41.5c23.667 10.333 50.834 15.5 81.501 15.5h740v-289h-272z" />
    <glyph glyph-name="saraithai.alt171" 
d="M-145 2106h-2707v300h2707v-300z" />
    <glyph glyph-name="saraiithai.alt171" 
d="M-846 2660h703v-554h-2709v300h2006v254z" />
    <glyph glyph-name="sarauethai.alt171" 
d="M-143 2106h-2709v300l2002 2c-1.33301 4.66699 -2.16602 10.834 -2.49902 18.5c-0.333008 7.66699 -0.5 13.834 -0.5 18.5c0 35.333 7.66699 70.333 23 105s38 65.667 68 93s67.333 49.5 112 66.5s96.334 25.5 155.001 25.5c59.333 0 111.5 -8.5 156.5 -25.5
s82.5 -39.333 112.5 -67s52.5 -58.834 67.5 -93.5c15 -34.667 22.5 -69.667 22.5 -105c0 -17.333 -0.666992 -30.333 -2 -39s-3 -16 -5 -22v-277zM-492.002 2499c-26.667 0 -49 -8 -67 -24s-27 -36.667 -27 -62c0 -22 9 -41.167 27 -57.5s40.333 -24.5 67 -24.5
c26 0 48 8.16699 66 24.5s27 35.5 27 57.5c0 25.333 -9 46 -27 62s-40 24 -66 24z" />
    <glyph glyph-name="saraueethai.alt171" 
d="M-763 2660h620v-554h-2709v300h1229v254h620v-254h240v254z" />
    <glyph glyph-name="sarauthai.alt17" 
d="M-182 -695h-705v238h-224v246h929v-484z" />
    <glyph glyph-name="sarauuthai.alt17" 
d="M-140 -233c-17.333 -72 -45.501 -137.667 -84.501 -197s-87.5 -110.166 -145.5 -152.499s-125.5 -75.166 -202.5 -98.499s-162.167 -35 -255.5 -35c-96 0 -184.667 11.667 -266 35s-153.166 56.166 -215.499 98.499s-114.5 93.166 -156.5 152.499s-72 125 -90 197l503 80
c4 -24 13.333 -45.333 28 -64s32 -34.667 52 -48s41.5 -23.5 64.5 -30.5s44.833 -10.5 65.5 -10.5c20 0 41.333 3.5 64 10.5s44 17.167 64 30.5s37.333 29.333 52 48s23.667 40 27 64z" />
    <glyph glyph-name="maieklowrightthai.alt17" 
d="M-950 2650h719v-502h-719v502z" />
    <glyph glyph-name="maitholowrightthai.alt17" 
d="M-593 2841v-383h453v-310h-1076v374h-250v319h873z" />
    <glyph glyph-name="maitrilowrightthai.alt17" 
d="M-1661 2159c-1.33301 6.66699 -2.33008 16.667 -2.99707 30s-1.33398 27.5 -2.00098 42.5s-1.16699 29.667 -1.5 44s-0.5 26.166 -0.5 35.5c0 69.333 11.167 133 33.5 191s54.5 108 96.5 150s92.833 74.667 152.5 98s126.834 35 201.501 35
c35.333 0 69.666 -5.33301 102.999 -16s63.666 -25.667 90.999 -45s51 -42.666 71 -70c20 -27.333 34.667 -58 44 -92c8.66699 34 23.334 64.667 44.001 92s45.167 50.666 73.5 70c28.333 19.333 59 34.333 92 45s66.167 16 99.5 16c55.333 0 104.5 -7.16699 147.5 -21.5
s80 -34.5 111 -60.5s55.833 -57.333 74.5 -94s31 -77.334 37 -122c18 4 34.333 6.66699 49 8l22 2h63v-347h-353c-18.667 0 -35.334 4.66699 -50.001 14s-22 24.666 -22 46c0 49.333 -10.667 86.5 -32 111.5s-50.666 37.5 -87.999 37.5c-26 0 -47.333 -7 -64 -21
s-29.5 -31.5 -38.5 -52.5s-14.333 -43.333 -16 -67s-0.5 -44.834 3.5 -63.5h-322c3.33301 20 4.16602 42 2.49902 66s-6.83398 46.167 -15.501 66.5s-21 37.333 -37 51s-36.667 20.5 -62 20.5c-24 0 -44 -5.5 -60 -16.5s-28.5 -25 -37.5 -42s-14.667 -36.167 -17 -57.5
s-1.83301 -42 1.5 -62z" />
    <glyph glyph-name="maichattawalowrightthai.alt17" 
d="M-961 2364h-226v334h226v213h716v-213h228v-333h-228v-217h-716v216z" />
    <glyph glyph-name="thanthakhatlowrightthai.alt17" 
d="M-382 2423v-276h-699v392c0 30.667 5.16699 59.334 15.5 86c10.333 26.667 25.5 50 45.5 70s44.333 35.667 73 47s61 17 97 17h720v-336h-252z" />
    <glyph glyph-name="maiekthai.alt52" 
d="M-878 3030h686v-374h-686v374z" />
    <glyph glyph-name="maithothai.alt52" 
d="M-399 3205v-281h339v-271h-828v273h-250v279h739z" />
    <glyph glyph-name="maitrithai.alt52" 
d="M-1438 2749c-1.33301 11.333 -2.83496 22.833 -4.50195 34.5s-2.5 24.834 -2.5 39.5c0 55.333 8.5 106.333 25.5 153s41.833 86.834 74.5 120.5c32.667 33.667 72.834 59.834 120.501 78.5c47.667 18.667 102.167 28 163.5 28c29.333 0 58.833 -4.33301 88.5 -13
s57.167 -20.667 82.5 -36s47.333 -34.166 66 -56.5c18.667 -22.333 32 -46.833 40 -73.5c6.66699 26.667 19.834 51.167 39.501 73.5s42.5 41.166 68.5 56.5c26 15.333 53.667 27.333 83 36s57.666 13 84.999 13c45.333 0 85.833 -5.66699 121.5 -17
s66.167 -27.5 91.5 -48.5s45.666 -46.167 60.999 -75.5s25.666 -62 30.999 -98c7.33301 1.33301 15.5 2.66602 24.5 4c9 1.33301 17.167 2.33301 24.5 3c8.66699 0.666992 17.667 1 27 1h67v-250h-345c-15.333 0 -29 3.83301 -41 11.5s-18 20.167 -18 37.5
c0 39.333 -9 69 -27 89s-42 30 -72 30c-22 0 -39.833 -5.66699 -53.5 -17s-24.167 -25.333 -31.5 -42s-11.666 -34.5 -12.999 -53.5s-0.333008 -36.167 3 -51.5h-265c2.66699 16 3.33398 33.667 2.00098 53s-5.5 37.166 -12.5 53.5c-7 16.333 -17.333 30 -31 41
s-30.834 16.5 -51.501 16.5c-19.333 0 -35.666 -3.33301 -48.999 -10s-23.666 -15.667 -30.999 -27s-12 -24.5 -14 -39.5s-1.66699 -30.5 1 -46.5z" />
    <glyph glyph-name="maichattawathai.alt52" 
d="M-799 2787h-212v274h212v173h626v-173h212v-273h-212v-177h-626v176z" />
    </font>
</defs>
</svg>
