<svg xmlns="http://www.w3.org/2000/svg">
<defs>
<font id="DBFuthairaBodyX-Bold" horiz-adv-x="0" >
  <font-face 
    font-family="DB Futhaira Body X Bold"
    font-weight="700"
    font-stretch="normal"
    units-per-em="4096"
    panose-1="2 0 8 6 0 0 0 2 0 4"
    ascent="3276"
    descent="-820"
    x-height="1608"
    cap-height="2323"
    bbox="-2190 -1167 3461 3465"
    underline-thickness="143"
    underline-position="-390"
    unicode-range="U+0020-U+F880"
  />
<missing-glyph horiz-adv-x="1696" 
d="M823 1294c28.667 -2 61.3311 -4.99902 97.998 -8.99902s74.667 -9 114 -15s78.833 -12.833 118.5 -20.5s77 -16.167 112 -25.5s66.333 -19.333 94 -30s49.5 -22.334 65.5 -35.001c-27.333 54 -63 102.167 -107 144.5s-92.833 78 -146.5 107s-110.667 51 -171 66
s-120.833 22.5 -181.5 22.5c-46 0 -91.333 -4.33301 -136 -13s-87.5 -22 -128.5 -40s-79.333 -40.667 -115 -68s-67.5 -59.333 -95.5 -96c49.333 6 98.5 10.167 147.5 12.5s98.167 3.5 147.5 3.5c30.667 0 61.334 -0.166992 92.001 -0.5s61.334 -1.5 92.001 -3.5zM1536 1618
l-0.000976562 -582c-65.333 20.667 -135.833 40 -211.5 58s-155.167 33.667 -238.5 47s-169.666 23.833 -258.999 31.5s-180.666 11.5 -273.999 11.5c-66 0 -130.667 -2 -194 -6s-127 -10.333 -191 -19c16 61.333 42 119.833 78 175.5s81.167 104.5 135.5 146.5
s117.5 75.333 189.5 100s152 37 240 37c84.667 0 161.167 -9.5 229.5 -28.5s128 -42.5 179 -70.5s93.667 -57.833 128 -89.5s60.166 -60.5 77.499 -86.5c0 -2 -0.166992 1.66699 -0.5 11s-0.5 22 -0.5 38s-0.333008 34.333 -1 55s-1 41.5 -1 62.5s-0.166992 41 -0.5 60
s-0.5 35.167 -0.5 48.5h115zM626.996 520.001c0 22.667 -7.5 39.334 -22.5 50.001s-30.833 16 -47.5 16c-18.667 0 -35 -5.33301 -49 -16s-21 -27.334 -21 -50.001s7 -38.5 21 -47.5s30.333 -13.5 49 -13.5c8 0 16.167 1 24.5 3s15.833 5.5 22.5 10.5s12.167 11.333 16.5 19
s6.5 17.167 6.5 28.5zM130.996 569.001c0 63.333 12.501 119.334 37.501 168.001s57.833 89.334 98.5 122.001s87 57.334 139 74.001s105 25 159 25s106.5 -7.33301 157.5 -22s96 -37.167 135 -67.5s70.333 -68.833 94 -115.5s35.5 -102.334 35.5 -167.001v-475h434v827h115

<glyph glyph-name="plusminus" unicode="&#x2b;&#x2d;" horiz-adv-x="1586" 
d="M1026 1649v-415h490v-409h-490v-414h-465v414h-488v409h488v415h465zM73 301h1443v-301h-1443v301z" />
    <glyph glyph-name="ellipsis" unicode="&#x2e;&#x2e;&#x2e;" horiz-adv-x="3482" 
d="M581 498c36 0 69.6689 -6.66895 101.002 -20.002s58.833 -31.5 82.5 -54.5s42.334 -50.333 56.001 -82s20.5 -65.834 20.5 -102.501c0 -35.333 -6 -68.666 -18 -99.999s-29.167 -58.666 -51.5 -81.999s-49.5 -41.833 -81.5 -55.5s-68.333 -20.5 -109 -20.5
c-35.333 0 -68.5 6.66699 -99.5 20s-58 31.5 -81 54.5s-41.333 50.167 -55 81.5s-20.834 65.333 -21.501 102s5.83301 70.834 19.5 102.501s32.167 59 55.5 82s50.666 41.167 81.999 54.5s64.666 20 99.999 20zM2901 497.998c36 0 69.667 -6.66895 101 -20.002
s58.833 -31.5 82.5 -54.5s42.334 -50.333 56 -82c13.667 -31.667 20.5 -65.834 20.5 -102.501c0 -35.333 -6 -68.666 -18 -99.999s-29.167 -58.666 -51.5 -81.999s-49.5 -41.833 -81.5 -55.5s-68.333 -20.5 -109 -20.5c-35.333 0 -68.5 6.66699 -99.5 20s-58 31.5 -81 54.5
s-41.333 50.167 -55 81.5s-20.834 65.333 -21.5 102c-0.666992 36.667 5.83301 70.834 19.5 102.501s32.167 59 55.5 82s50.666 41.167 82 54.5c31.333 13.333 64.666 20 100 20zM1741 497.996c36 0 69.6689 -6.66895 101.002 -20.002s58.833 -31.5 82.5 -54.5
s42.334 -50.333 56.001 -82s20.5 -65.834 20.5 -102.501c0 -35.333 -6 -68.666 -18 -99.999s-29.167 -58.666 -51.5 -81.999s-49.5 -41.833 -81.5 -55.5s-68.333 -20.5 -109 -20.5c-35.333 0 -68.5 6.66699 -99.5 20s-58 31.5 -81 54.5s-41.333 50.167 -55 81.5
s-20.834 65.333 -21.501 102s5.83301 70.834 19.5 102.501s32.167 59 55.5 82s50.666 41.167 81.999 54.5s64.666 20 99.999 20z" />
    <glyph glyph-name="lessequal" unicode="&#x3c;&#x3d;" horiz-adv-x="1972" 
d="M1784 918v-458l-1604 778v290l1604 739v-456l-876 -432zM1784 408v-409h-1604v409h1604z" />
    <glyph glyph-name="greaterequal" unicode="&#x3e;&#x3d;" horiz-adv-x="1972" 
d="M1064 1379l-876 432v456l1604 -739v-290l-1604 -778v458zM1792 408v-409h-1604v409h1604z" />
    <glyph glyph-name="fongmanfunnuthai" unicode="&#xe4f;&#x22;" horiz-adv-x="1855" 
d="M1101 1881l-20 422h321l-20 -422h-281zM493 1881l-20 422h325l-20 -422h-285zM130 933c0 76 9.5 148.332 28.5 216.999s45.833 132.334 80.5 191.001s76.334 111.5 125.001 158.5s102.667 87 162 120s123.5 58.333 192.5 76s140.833 26.5 215.5 26.5
s146.5 -8.83301 215.5 -26.5s133.167 -43 192.5 -76s113.333 -73 162 -120s90.334 -99.833 125.001 -158.5s61.5 -122.334 80.5 -191.001s28.5 -141 28.5 -217c0 -76.667 -9.5 -149.167 -28.5 -217.5s-45.833 -131.833 -80.5 -190.5s-76.334 -111.5 -125.001 -158.5
s-102.667 -87 -162 -120s-123.5 -58.333 -192.5 -76s-140.833 -26.5 -215.5 -26.5s-146.5 8.83301 -215.5 26.5s-133.167 43 -192.5 76s-113.333 73 -162 120s-90.334 99.833 -125.001 158.5s-61.5 122.334 -80.5 191.001s-28.5 141 -28.5 217zM1415 929.999
c0 70 -12.5 134.167 -37.5 192.5s-59.167 108.5 -102.5 150.5s-94.166 74.5 -152.499 97.5s-121.166 34.5 -188.499 34.5c-66.667 0 -129.167 -11.5 -187.5 -34.5s-109 -55.5 -152 -97.5s-77 -92.167 -102 -150.5s-37.5 -122.5 -37.5 -192.5
c0 -69.333 12.5 -132.833 37.5 -190.5s59 -107.167 102 -148.5s93.667 -73.5 152 -96.5s120.833 -34.5 187.5 -34.5c67.333 0 130.166 11.5 188.499 34.5s109.166 55.167 152.499 96.5s77.5 90.833 102.5 148.5s37.5 121.167 37.5 190.5zM1118 930.999
c0 26 -4.83301 50.167 -14.5 72.5s-22.834 41.5 -39.501 57.5s-36.167 28.667 -58.5 38s-46.166 14 -71.499 14s-49.333 -4.66699 -72 -14s-42.334 -22 -59.001 -38s-29.834 -35.167 -39.501 -57.5s-14.5 -46.5 -14.5 -72.5s4.83301 -50 14.5 -72
s22.834 -41.167 39.501 -57.5s36.334 -29 59.001 -38s46.667 -13.5 72 -13.5s49.166 4.5 71.499 13.5s41.833 21.667 58.5 38s29.834 35.5 39.501 57.5s14.5 46 14.5 72z" />
    <glyph glyph-name="dochadaphinthuthai" unicode="&#xe0e;&#xe3a;" horiz-adv-x="1882" 
d="M149 -519l141.998 305.999c20 0 45.667 -0.166992 77 -0.5s65.833 -0.666016 103.5 -0.999023s77.334 -0.833008 119.001 -1.5s83 -1.16699 124 -1.5s80.333 -0.833008 118 -1.5s71.334 -1.16699 101.001 -1.5s54 -0.666016 73 -0.999023s30.167 -0.5 33.5 -0.5
c28.667 0 50.667 10.5 66 31.5s23 47.5 23 79.5l-3 1353c0 68.667 -14.833 122.5 -44.5 161.5s-75.5 58.5 -137.5 58.5c-60.667 0 -107.334 -19.5 -140.001 -58.5s-49 -93.5 -49 -163.5v-1240h-541v1254c0 87.333 18 169.5 54 246.5s86.167 144.333 150.5 202
s141.166 103.167 230.499 136.5s187 50 293 50c111.333 0 211.833 -16.833 301.5 -50.5s165.834 -79.334 228.501 -137.001s110.834 -125.167 144.501 -202.5s50.5 -160 50.5 -248v-1261c0 -78 -13.167 -149.5 -39.5 -214.5s-63 -120.833 -110 -167.5
s-103 -82.667 -168 -108s-136.167 -37.333 -213.5 -36zM1137 -833.001c0 -32 6.83301 -62.333 20.5 -91s32 -53.834 55 -75.501s49.833 -38.667 80.5 -51s63.334 -18.5 98.001 -18.5c36 0 69.667 6.16699 101 18.5s58.666 29.333 81.999 51s41.833 46.834 55.5 75.501
s20.5 59 20.5 91c0 32.667 -6.83301 63.667 -20.5 93s-32.167 54.666 -55.5 75.999s-50.666 38.333 -81.999 51s-65 19 -101 19c-34.667 0 -67.334 -6.33301 -98.001 -19s-57.5 -29.667 -80.5 -51s-41.333 -46.666 -55 -75.999s-20.5 -60.333 -20.5 -93z" />
    <glyph glyph-name="topatakphintuthai" unicode="&#xe0f;&#xe3a;" horiz-adv-x="1882" 
d="M1137 -833c0 32.667 6.83301 63.667 20.5 93s32 54.666 55 75.999s49.833 38.333 80.5 51s63.334 19 98.001 19c36 0 69.667 -6.33301 101 -19s58.666 -29.667 81.999 -51s41.833 -46.666 55.5 -75.999s20.5 -60.333 20.5 -93c0 -32 -6.83301 -62.333 -20.5 -91
s-32.167 -53.834 -55.5 -75.501s-50.666 -38.667 -81.999 -51s-65 -18.5 -101 -18.5c-34.667 0 -67.334 6.16699 -98.001 18.5s-57.5 29.333 -80.5 51s-41.333 46.834 -55 75.501s-20.5 59 -20.5 91zM1667 -10c0 -78 -13.1689 -149.33 -39.502 -213.997s-63 -120 -110 -166
s-103 -81.833 -168 -107.5s-136.167 -38.5 -213.5 -38.5c-37.333 0 -73.166 3.33301 -107.499 10s-66.333 16.167 -96 28.5s-56.334 26.833 -80.001 43.5s-43.5 35 -59.5 55c-28.667 -38.667 -65.167 -69.334 -109.5 -92.001s-101.166 -34 -170.499 -34
c-47.333 0 -91.166 7.66699 -131.499 23s-76.5 35.333 -108.5 60s-59.5 52.667 -82.5 84s-40.5 63.333 -52.5 96l287 120c13.333 -33.333 28.666 -55 45.999 -65s34.666 -15 51.999 -15c12 0 23.5 1.5 34.5 4.5s21 8.5 30 16.5s16.333 19.167 22 33.5
s9.16699 32.833 10.5 55.5h320c0.666992 -21.333 3.83398 -39 9.50098 -53s13.167 -25.167 22.5 -33.5s19.833 -14.333 31.5 -18s23.834 -5.5 36.501 -5.5c28.667 0 50.667 10.5 66 31.5s23 47.5 23 79.5v10.5c0 5 -0.166992 14.667 -0.5 29s-0.5 34.666 -0.5 60.999
s-0.166992 61.833 -0.5 106.5s-0.5 99.667 -0.5 165s-0.166992 144.333 -0.5 237s-0.5 200.167 -0.5 322.5v421.5c0 68.667 -14.833 122.5 -44.5 161.5s-75.5 58.5 -137.5 58.5c-60.667 0 -107.334 -19.5 -140.001 -58.5s-49 -93.5 -49 -163.5v-1240h-541v1254
c0 87.333 18 169.5 54 246.5s86.167 144.333 150.5 202s141.166 103.167 230.499 136.5s187 50 293 50c111.333 0 211.833 -16.833 301.5 -50.5s165.834 -79.334 228.501 -137.001s110.834 -125.167 144.501 -202.5s50.5 -160 50.5 -248v-1261z" />
    <glyph glyph-name="dochadasarauthai" unicode="&#xe0e;&#xe38;" horiz-adv-x="1882" 
d="M149 -519l141.998 305.999c20 0 45.667 -0.166992 77 -0.5s65.833 -0.666016 103.5 -0.999023s77.334 -0.833008 119.001 -1.5s83 -1.16699 124 -1.5s80.333 -0.833008 118 -1.5s71.334 -1.16699 101.001 -1.5s54 -0.666016 73 -0.999023s30.167 -0.5 33.5 -0.5
c28.667 0 50.667 10.5 66 31.5s23 47.5 23 79.5l-3 1353c0 68.667 -14.833 122.5 -44.5 161.5s-75.5 58.5 -137.5 58.5c-60.667 0 -107.334 -19.5 -140.001 -58.5s-49 -93.5 -49 -163.5v-1240h-541v1254c0 87.333 18 169.5 54 246.5s86.167 144.333 150.5 202
s141.166 103.167 230.499 136.5s187 50 293 50c111.333 0 211.833 -16.833 301.5 -50.5s165.834 -79.334 228.501 -137.001s110.834 -125.167 144.501 -202.5s50.5 -160 50.5 -248v-1261c0 -78 -13.167 -149.5 -39.5 -214.5s-63 -120.833 -110 -167.5
s-103 -82.667 -168 -108s-136.167 -37.333 -213.5 -36zM1643 -1102h-480v238h-224v246h704v-484z" />
    <glyph glyph-name="topataksarauthai" unicode="&#xe0f;&#xe38;" horiz-adv-x="1882" 
d="M1667 -10c0 -78 -13.1689 -149.33 -39.502 -213.997s-63 -120 -110 -166s-103 -81.833 -168 -107.5s-136.167 -38.5 -213.5 -38.5c-37.333 0 -73.166 3.33301 -107.499 10s-66.333 16.167 -96 28.5s-56.334 26.833 -80.001 43.5s-43.5 35 -59.5 55
c-28.667 -38.667 -65.167 -69.334 -109.5 -92.001s-101.166 -34 -170.499 -34c-47.333 0 -91.166 7.66699 -131.499 23s-76.5 35.333 -108.5 60s-59.5 52.667 -82.5 84s-40.5 63.333 -52.5 96l287 120c13.333 -33.333 28.666 -55 45.999 -65s34.666 -15 51.999 -15
c12 0 23.5 1.5 34.5 4.5s21 8.5 30 16.5s16.333 19.167 22 33.5s9.16699 32.833 10.5 55.5h320c0.666992 -21.333 3.83398 -39 9.50098 -53s13.167 -25.167 22.5 -33.5s19.833 -14.333 31.5 -18s23.834 -5.5 36.501 -5.5c28.667 0 50.667 10.5 66 31.5s23 47.5 23 79.5v10.5
c0 5 -0.166992 14.667 -0.5 29s-0.5 34.666 -0.5 60.999s-0.166992 61.833 -0.5 106.5s-0.5 99.667 -0.5 165s-0.166992 144.333 -0.5 237s-0.5 200.167 -0.5 322.5v421.5c0 68.667 -14.833 122.5 -44.5 161.5s-75.5 58.5 -137.5 58.5
c-60.667 0 -107.334 -19.5 -140.001 -58.5s-49 -93.5 -49 -163.5v-1240h-541v1254c0 87.333 18 169.5 54 246.5s86.167 144.333 150.5 202s141.166 103.167 230.499 136.5s187 50 293 50c111.333 0 211.833 -16.833 301.5 -50.5s165.834 -79.334 228.501 -137.001
s110.834 -125.167 144.501 -202.5s50.5 -160 50.5 -248v-1261zM1643 -1102h-480v238h-224v246h704v-484z" />
    <glyph glyph-name="dochadasarauuthai" unicode="&#xe0e;&#xe39;" horiz-adv-x="1882" 
d="M149 -519l141.998 305.999c20 0 45.667 -0.166992 77 -0.5s65.833 -0.666016 103.5 -0.999023s77.334 -0.833008 119.001 -1.5s83 -1.16699 124 -1.5s80.333 -0.833008 118 -1.5s71.334 -1.16699 101.001 -1.5s54 -0.666016 73 -0.999023s30.167 -0.5 33.5 -0.5
c28.667 0 50.667 10.5 66 31.5s23 47.5 23 79.5l-3 1353c0 68.667 -14.833 122.5 -44.5 161.5s-75.5 58.5 -137.5 58.5c-60.667 0 -107.334 -19.5 -140.001 -58.5s-49 -93.5 -49 -163.5v-1240h-541v1254c0 87.333 18 169.5 54 246.5s86.167 144.333 150.5 202
s141.166 103.167 230.499 136.5s187 50 293 50c111.333 0 211.833 -16.833 301.5 -50.5s165.834 -79.334 228.501 -137.001s110.834 -125.167 144.501 -202.5s50.5 -160 50.5 -248v-1261c0 -78 -13.167 -149.5 -39.5 -214.5s-63 -120.833 -110 -167.5
s-103 -82.667 -168 -108s-136.167 -37.333 -213.5 -36zM1643 -707.001c-15.333 -70 -39.4971 -133.333 -72.4971 -190s-73.667 -105 -122 -145s-104 -70.833 -167 -92.5s-131.833 -32.5 -206.5 -32.5s-143.334 10.833 -206.001 32.5s-118.167 52.5 -166.5 92.5
s-89 88.333 -122 145s-57.167 120 -72.5 190l352 80c5.33301 -30.667 14.666 -58.167 27.999 -82.5s29.833 -45.166 49.5 -62.499s41.5 -30.666 65.5 -39.999s49.333 -14 76 -14s52 4.66699 76 14s45.833 22.666 65.5 39.999s36.167 38.166 49.5 62.499
s22.666 51.833 27.999 82.5z" />
    <glyph glyph-name="topataksarauuthai" unicode="&#xe0f;&#xe39;" horiz-adv-x="1882" 
d="M1667 -10c0 -78 -13.1689 -149.33 -39.502 -213.997s-63 -120 -110 -166s-103 -81.833 -168 -107.5s-136.167 -38.5 -213.5 -38.5c-37.333 0 -73.166 3.33301 -107.499 10s-66.333 16.167 -96 28.5s-56.334 26.833 -80.001 43.5s-43.5 35 -59.5 55
c-28.667 -38.667 -65.167 -69.334 -109.5 -92.001s-101.166 -34 -170.499 -34c-47.333 0 -91.166 7.66699 -131.499 23s-76.5 35.333 -108.5 60s-59.5 52.667 -82.5 84s-40.5 63.333 -52.5 96l287 120c13.333 -33.333 28.666 -55 45.999 -65s34.666 -15 51.999 -15
c12 0 23.5 1.5 34.5 4.5s21 8.5 30 16.5s16.333 19.167 22 33.5s9.16699 32.833 10.5 55.5h320c0.666992 -21.333 3.83398 -39 9.50098 -53s13.167 -25.167 22.5 -33.5s19.833 -14.333 31.5 -18s23.834 -5.5 36.501 -5.5c28.667 0 50.667 10.5 66 31.5s23 47.5 23 79.5v10.5
c0 5 -0.166992 14.667 -0.5 29s-0.5 34.666 -0.5 60.999s-0.166992 61.833 -0.5 106.5s-0.5 99.667 -0.5 165s-0.166992 144.333 -0.5 237s-0.5 200.167 -0.5 322.5v421.5c0 68.667 -14.833 122.5 -44.5 161.5s-75.5 58.5 -137.5 58.5
c-60.667 0 -107.334 -19.5 -140.001 -58.5s-49 -93.5 -49 -163.5v-1240h-541v1254c0 87.333 18 169.5 54 246.5s86.167 144.333 150.5 202s141.166 103.167 230.499 136.5s187 50 293 50c111.333 0 211.833 -16.833 301.5 -50.5s165.834 -79.334 228.501 -137.001
s110.834 -125.167 144.501 -202.5s50.5 -160 50.5 -248v-1261zM1643 -706.997c-15.333 -70 -39.4971 -133.333 -72.4971 -190s-73.667 -105 -122 -145s-104 -70.833 -167 -92.5s-131.833 -32.5 -206.5 -32.5s-143.334 10.833 -206.001 32.5s-118.167 52.5 -166.5 92.5
s-89 88.333 -122 145s-57.167 120 -72.5 190l352 80c5.33301 -30.667 14.666 -58.167 27.999 -82.5s29.833 -45.166 49.5 -62.499s41.5 -30.666 65.5 -39.999s49.333 -14 76 -14s52 4.66699 76 14s45.833 22.666 65.5 39.999s36.167 38.166 49.5 62.499
s22.666 51.833 27.999 82.5z" />
    <glyph glyph-name=".notdef" horiz-adv-x="1696" 
d="M823 1294c28.667 -2 61.3311 -4.99902 97.998 -8.99902s74.667 -9 114 -15s78.833 -12.833 118.5 -20.5s77 -16.167 112 -25.5s66.333 -19.333 94 -30s49.5 -22.334 65.5 -35.001c-27.333 54 -63 102.167 -107 144.5s-92.833 78 -146.5 107s-110.667 51 -171 66
s-120.833 22.5 -181.5 22.5c-46 0 -91.333 -4.33301 -136 -13s-87.5 -22 -128.5 -40s-79.333 -40.667 -115 -68s-67.5 -59.333 -95.5 -96c49.333 6 98.5 10.167 147.5 12.5s98.167 3.5 147.5 3.5c30.667 0 61.334 -0.166992 92.001 -0.5s61.334 -1.5 92.001 -3.5zM1536 1618
l-0.000976562 -582c-65.333 20.667 -135.833 40 -211.5 58s-155.167 33.667 -238.5 47s-169.666 23.833 -258.999 31.5s-180.666 11.5 -273.999 11.5c-66 0 -130.667 -2 -194 -6s-127 -10.333 -191 -19c16 61.333 42 119.833 78 175.5s81.167 104.5 135.5 146.5
s117.5 75.333 189.5 100s152 37 240 37c84.667 0 161.167 -9.5 229.5 -28.5s128 -42.5 179 -70.5s93.667 -57.833 128 -89.5s60.166 -60.5 77.499 -86.5c0 -2 -0.166992 1.66699 -0.5 11s-0.5 22 -0.5 38s-0.333008 34.333 -1 55s-1 41.5 -1 62.5s-0.166992 41 -0.5 60
s-0.5 35.167 -0.5 48.5h115zM626.996 520.001c0 22.667 -7.5 39.334 -22.5 50.001s-30.833 16 -47.5 16c-18.667 0 -35 -5.33301 -49 -16s-21 -27.334 -21 -50.001s7 -38.5 21 -47.5s30.333 -13.5 49 -13.5c8 0 16.167 1 24.5 3s15.833 5.5 22.5 10.5s12.167 11.333 16.5 19
s6.5 17.167 6.5 28.5zM130.996 569.001c0 63.333 12.501 119.334 37.501 168.001s57.833 89.334 98.5 122.001s87 57.334 139 74.001s105 25 159 25s106.5 -7.33301 157.5 -22s96 -37.167 135 -67.5s70.333 -68.833 94 -115.5s35.5 -102.334 35.5 -167.001v-475h434v827h115
v-934h-774v107h119v487c0 40.667 -8 76.5 -24 107.5s-38 56.667 -66 77s-61 35.666 -99 45.999s-79 15.5 -123 15.5c-40.667 0 -80.167 -5.83301 -118.5 -17.5s-72.333 -28.5 -102 -50.5s-53.5 -49 -71.5 -81s-27 -68.333 -27 -109v-439l237 238
c-7.33301 2.66699 -15.833 7.5 -25.5 14.5s-19 16 -28 27s-16.667 24.167 -23 39.5s-9.5 33.333 -9.5 54c0 49.333 15 88.333 45 117s69.667 43 119 43c23.333 0 44.666 -4.33301 63.999 -13s35.833 -20.334 49.5 -35.001s24.167 -31.667 31.5 -51s11 -39.666 11 -60.999
c0 -19.333 -2.16699 -36.333 -6.5 -51s-9.83301 -27.334 -16.5 -38.001s-13.5 -19.667 -20.5 -27l-18.5 -19l-23.5 -22.5l-46.5 -44.5l-62.5 -60.5l-71.5 -69.5l-92 -85.5l-101 -98.5h-131v565zM1729 1643v-55h24c18.667 0 28 8.66699 28 26c0 19.333 -9.33301 29 -28 29
h-24zM1739 1572h-10v-52h-21v139h45c16.667 0 29 -4.16699 37 -12.5s12 -19.166 12 -32.499c0 -14.667 -4.16699 -25.334 -12.5 -32.001s-17.833 -10 -28.5 -10l41 -52h-25zM1660 1588c0 -12.667 2.5 -24.667 7.5 -36s11.667 -21.166 20 -29.499s18.166 -15 29.499 -20
s23.333 -7.5 36 -7.5s24.667 2.5 36 7.5s21.166 11.667 29.499 20s15 18.166 20 29.499s7.5 23.333 7.5 36s-2.5 24.667 -7.5 36s-11.667 21.166 -20 29.499s-18.166 15 -29.499 20s-23.333 7.5 -36 7.5s-24.667 -2.5 -36 -7.5s-21.166 -11.667 -29.499 -20
s-15 -18.166 -20 -29.499s-7.5 -23.333 -7.5 -36zM1648 1588c0 14.667 2.66699 28.334 8 41.001s12.833 23.667 22.5 33s20.834 16.833 33.501 22.5s26.334 8.5 41.001 8.5s28.334 -2.83301 41.001 -8.5s23.667 -13.167 33 -22.5s16.833 -20.333 22.5 -33
s8.5 -26.334 8.5 -41.001s-2.83301 -28.334 -8.5 -41.001s-13.167 -23.834 -22.5 -33.501s-20.333 -17.167 -33 -22.5s-26.334 -8 -41.001 -8s-28.334 2.66699 -41.001 8s-23.834 12.833 -33.501 22.5s-17.167 20.834 -22.5 33.501s-8 26.334 -8 41.001z" />
    <glyph glyph-name="space" unicode=" " horiz-adv-x="1024" 
 />
    <glyph glyph-name="exclam" unicode="!" horiz-adv-x="1001" 
d="M803 2323l-45 -1584h-502l-43 1584h590zM208 267c0 42 8 81.5 24 118.5s37.667 69.333 65 97s59.666 49.5 96.999 65.5s77 24 119 24s81.667 -8 119 -24s69.833 -37.833 97.5 -65.5s49.5 -60 65.5 -97s24 -76.5 24 -118.5s-8 -81.5 -24 -118.5s-37.833 -69.5 -65.5 -97.5
s-60.167 -50 -97.5 -66s-77 -24 -119 -24s-81.667 8 -119 24s-69.666 38 -96.999 66s-49 60.5 -65 97.5s-24 76.5 -24 118.5z" />
    <glyph glyph-name="quotedbl" unicode="&#x22;" horiz-adv-x="1263" 
d="M555 2323l-48 -873h-385l-45 873h478zM1178 2323l-48 -873h-385l-45 873h478z" />
    <glyph glyph-name="numbersign" unicode="#" horiz-adv-x="2165" 
d="M1190 543h-386l-80 -543h-485l79 543h-272v424h335l59 405h-311v424h373l78 527h486l-78 -527h386l78 527h485l-78 -527h258v-424h-320l-59 -405h296v-424h-359l-79 -543h-486zM866 967h386l60 405h-386z" />
    <glyph glyph-name="dollar" unicode="$" horiz-adv-x="1832" 
d="M655 705c1.33301 -42.667 10.1719 -80.166 26.5049 -112.499s37 -59.5 62 -81.5s53.333 -38.5 85 -49.5s63.5 -16.5 95.5 -16.5c38 0 72.333 5.33301 103 16s57 25.667 79 45s38.833 42.166 50.5 68.499s17.5 55.5 17.5 87.5c0 31.333 -4.66699 60.666 -14 87.999
s-24.833 52.833 -46.5 76.5s-50.5 45.167 -86.5 64.5s-80.667 37 -134 53c-103.333 30 -199.5 68.167 -288.5 114.5s-166.5 101 -232.5 164s-117.833 134.333 -155.5 214s-56.5 167.834 -56.5 264.501c0 75.333 13.167 146.833 39.5 214.5s63.666 129 111.999 184
s106.5 102.5 174.5 142.5s143.667 70.333 227 91v239h503v-249c60 -19.333 115.167 -44.5 165.5 -75.5s95.5 -66.333 135.5 -106s74.333 -83 103 -130s51.667 -95.833 69 -146.5l-495 -181c-6 42.667 -18.333 77.834 -37 105.501s-40.334 49.5 -65.001 65.5
s-50.334 27.167 -77.001 33.5s-50.667 9.5 -72 9.5c-29.333 0 -57.166 -4.83301 -83.499 -14.5s-49.333 -23.334 -69 -41.001s-35.334 -38.667 -47.001 -63s-17.5 -51.166 -17.5 -80.499c0 -43.333 10.5 -81 31.5 -113s49.833 -60 86.5 -84s80 -45 130 -63
s104.333 -34.667 163 -50c38.667 -10 80.334 -24.5 125.001 -43.5s89.167 -43 133.5 -72s87.166 -63 128.499 -102s77.666 -83.667 108.999 -134s56.5 -106.333 75.5 -168s28.5 -129.834 28.5 -204.501c0 -79.333 -11.833 -154.333 -35.5 -225
s-57.834 -134.5 -102.501 -191.5s-99.167 -106.5 -163.5 -148.5s-137.5 -74 -219.5 -96v-247h-503v234c-87.333 16.667 -165 42.667 -233 78s-126.5 76.833 -175.5 124.5s-88.667 99.667 -119 156s-51.5 114.5 -63.5 174.5z" />
    <glyph glyph-name="percent" unicode="%" horiz-adv-x="2497" 
d="M439 0l1168 2346h499l-1182 -2346h-485zM2460 503c0 -75.333 -14 -144.666 -42 -207.999s-66.833 -117.833 -116.5 -163.5s-109 -81.334 -178 -107.001s-144.5 -38.5 -226.5 -38.5s-157.333 13.167 -226 39.5s-127.834 62.5 -177.501 108.5s-88.5 100.5 -116.5 163.5
s-42 131.5 -42 205.5s14 142.5 42 205.5s66.833 117.667 116.5 164s108.834 82.5 177.501 108.5s144 39 226 39s157.5 -12.833 226.5 -38.5s128.333 -61.334 178 -107.001s88.5 -100.167 116.5 -163.5s42 -132.666 42 -207.999zM1764 503
c0 -26.667 4.16699 -50.333 12.5 -71s19 -38 32 -52s27.333 -24.667 43 -32s31.167 -11 46.5 -11c17.333 0 34.333 3.5 51 10.5s31.667 17.5 45 31.5s24 31.333 32 52s12 44.667 12 72c0 25.333 -4.16699 48 -12.5 68s-19 36.833 -32 50.5s-27.833 24.167 -44.5 31.5
s-33.667 11 -51 11c-15.333 0 -30.833 -3.66699 -46.5 -11s-30 -17.833 -43 -31.5s-23.667 -30.5 -32 -50.5s-12.5 -42.667 -12.5 -68zM1180 1821c0 -75.333 -14 -144.667 -42 -208s-66.833 -117.833 -116.5 -163.5s-109 -81.334 -178 -107.001s-144.5 -38.5 -226.5 -38.5
s-157.333 13.167 -226 39.5s-127.834 62.5 -177.501 108.5s-88.5 100.5 -116.5 163.5s-42 131.5 -42 205.5s14 142.5 42 205.5s66.833 117.667 116.5 164s108.834 82.5 177.501 108.5s144 39 226 39s157.5 -12.833 226.5 -38.5s128.333 -61.334 178 -107
c49.667 -45.667 88.5 -100.167 116.5 -163.5s42 -132.666 42 -207.999zM484 1821c0 -26.667 4.16699 -50.333 12.5 -71s19 -38 32 -52s27.333 -24.667 43 -32s31.167 -11 46.5 -11c17.333 0 34.333 3.5 51 10.5s31.667 17.5 45 31.5s24 31.333 32 52s12 44.667 12 72
c0 25.333 -4.16699 48 -12.5 68s-19 36.833 -32 50.5s-27.833 24.167 -44.5 31.5s-33.667 11 -51 11c-15.333 0 -30.833 -3.66699 -46.5 -11s-30 -17.833 -43 -31.5s-23.667 -30.5 -32 -50.5s-12.5 -42.667 -12.5 -68z" />
    <glyph glyph-name="ampersand" unicode="&#x26;" horiz-adv-x="2063" 
d="M118 710c0 106 25.834 208.502 77.501 307.502s131.5 195.167 239.5 288.5c-64.667 82 -114.667 164.833 -150 248.5s-53 170.5 -53 260.5c0 74 14.333 143.333 43 208s68.667 121 120 169s113 86 185 114s151.333 42 238 42c95.333 0 179.666 -14.333 252.999 -43
s135 -66.834 185 -114.501s87.833 -102.167 113.5 -163.5s38.5 -124.666 38.5 -189.999c0 -72.667 -9.16699 -137.5 -27.5 -194.5s-43.5 -108.667 -75.5 -155s-69.5 -88.833 -112.5 -127.5s-88.833 -76.334 -137.5 -113.001l441 -505c12 34 21.333 69.667 28 107
s10 77 10 119h487c-2 -108.667 -20.5 -213.167 -55.5 -313.5s-84.5 -193.166 -148.5 -278.499l156 -178l-338 -290l-155 180c-70 -36.667 -144.5 -64.834 -223.5 -84.501s-162.167 -29.5 -249.5 -29.5c-126.667 0 -244.167 18.167 -352.5 54.5s-202.333 87.166 -282 152.499
s-142 143 -187 233s-67.5 188.667 -67.5 296zM1030 385.002c53.333 0 108.334 11.333 165.001 34l-470 548c-23.333 -32.667 -42 -68 -56 -106s-21 -80.333 -21 -127c0 -48 9.66699 -93.167 29 -135.5s46.166 -79.333 80.499 -111s74.833 -56.667 121.5 -75
s97 -27.5 151 -27.5zM677.002 1788c0 -39.333 10.666 -78.835 31.999 -118.502s47.666 -78.5 78.999 -116.5c58 42.667 99.833 85.334 125.5 128.001s38.5 85.667 38.5 129c0 18.667 -3.5 36 -10.5 52s-16.667 29.667 -29 41s-26.833 20.333 -43.5 27s-34.667 10 -54 10
c-16 0 -32.167 -3 -48.5 -9s-31.166 -15.167 -44.499 -27.5s-24.166 -28.166 -32.499 -47.499s-12.5 -42 -12.5 -68z" />
    <glyph glyph-name="quotesingle" unicode="'" horiz-adv-x="793" 
d="M671 2323l-48 -873h-462l-46 873h556z" />
    <glyph glyph-name="parenleft" unicode="(" horiz-adv-x="964" 
d="M528 1115c0 -84 5.00098 -168 15.001 -252s24.167 -166.667 42.5 -248s40 -160.833 65 -238.5s52.833 -151.667 83.5 -222s63.5 -136.666 98.5 -198.999s71.167 -119.166 108.5 -170.499l-331 -268c-74.667 94 -143.834 195.833 -207.501 305.5s-119 230 -166 361
s-83.833 273.5 -110.5 427.5s-40 322 -40 504c0 179.333 13 345.166 39 497.499s62.167 293.666 108.5 423.999s101.5 251.5 165.5 363.5s133.667 217 209 315l333 -268c-58.667 -81.333 -113.167 -173 -163.5 -275s-94 -210.5 -131 -325.5s-66 -234.5 -87 -358.5
s-31.5 -248.333 -31.5 -373z" />
    <glyph glyph-name="parenright" unicode=")" horiz-adv-x="964" 
d="M436 1115c0 124.667 -10.499 249 -31.499 373s-50 243.5 -87 358.5s-80.667 223.5 -131 325.5s-104.833 193.667 -163.5 275l333 268c75.333 -98 145 -203 209 -315s119.167 -233.167 165.5 -363.5s82.5 -271.666 108.5 -423.999s39 -318.166 39 -497.499
c0 -182 -13.333 -350 -40 -504s-63.5 -296.5 -110.5 -427.5s-102.333 -251.333 -166 -361s-132.834 -211.5 -207.501 -305.5l-331 268c37.333 51.333 73.5 108.166 108.5 170.499s67.833 128.666 98.5 198.999s58.5 144.333 83.5 222s46.667 157.167 65 238.5
s32.5 164 42.5 248s15 168 15 252z" />
    <glyph glyph-name="asterisk" unicode="*" horiz-adv-x="1427" 
d="M546 2369h339l-40 -433l402 174l105 -323l-424 -96l289 -328l-275 -200l-224 379l-224 -379l-275 200l289 328l-424 96l105 323l397 -172z" />
    <glyph glyph-name="plus" unicode="+" horiz-adv-x="1932" 
d="M706 649h-632v409h632v625h522v-625h637v-411h-637v-624h-522v626z" />
    <glyph glyph-name="comma" unicode="," horiz-adv-x="799" 
d="M725 303l-335 -873l-395 138l237 904z" />
    <glyph glyph-name="hyphen" unicode="-" horiz-adv-x="1132" 
d="M1103 1058v-409h-1072v409h1072z" />
    <glyph glyph-name="period" unicode="." horiz-adv-x="799" 
d="M399 498c36 0 69.6689 -6.66895 101.002 -20.002s58.833 -31.5 82.5 -54.5s42.334 -50.333 56.001 -82s20.5 -65.834 20.5 -102.501c0 -35.333 -6 -68.666 -18 -99.999s-29.167 -58.666 -51.5 -81.999s-49.5 -41.833 -81.5 -55.5s-68.333 -20.5 -109 -20.5
c-35.333 0 -68.5 6.66699 -99.5 20s-58 31.5 -81 54.5s-41.333 50.167 -55 81.5s-20.834 65.333 -21.501 102s5.83301 70.834 19.5 102.501s32.167 59 55.5 82s50.666 41.167 81.999 54.5s64.666 20 99.999 20z" />
    <glyph glyph-name="slash" unicode="/" horiz-adv-x="1587" 
d="M1620 2631l-1208 -2916h-451l1206 2916h453z" />
    <glyph glyph-name="zero" unicode="0" horiz-adv-x="1831" 
d="M1762 1161c0 -182 -21 -346.5 -63 -493.5s-100.5 -272 -175.5 -375s-163.833 -182.333 -266.5 -238s-215 -83.5 -337 -83.5c-81.333 0 -158.5 12.5 -231.5 37.5s-140.833 61.333 -203.5 109s-119.167 106 -169.5 175s-93.166 147.667 -128.499 236
s-62.5 185.5 -81.5 291.5s-28.5 219.667 -28.5 341s9.5 235 28.5 341s46.167 203.167 81.5 291.5s78.166 167 128.499 236s106.833 127.333 169.5 175s130.5 84 203.5 109s150.167 37.5 231.5 37.5c122 0 234.333 -27.833 337 -83.5s191.5 -135 266.5 -238
s133.5 -228 175.5 -375s63 -311.5 63 -493.5zM629 1163c0 -64 2.83301 -126.5 8.5 -187.5s13.834 -118.833 24.501 -173.5s24.334 -105 41.001 -151s35.667 -85.667 57 -119s45.5 -59.333 72.5 -78s56.5 -28 88.5 -28c32.667 0 62.334 9.33301 89.001 28
s50.5 44.667 71.5 78s39.333 73 55 119s28.5 96.333 38.5 151s17.5 112.5 22.5 173.5s7.5 123.5 7.5 187.5s-2.5 126.5 -7.5 187.5s-12.5 118.833 -22.5 173.5s-22.833 105 -38.5 151s-34 85.667 -55 119s-44.833 59.333 -71.5 78s-56.334 28 -89.001 28
c-32 0 -61.5 -9.33301 -88.5 -28s-51.167 -44.667 -72.5 -78s-40.333 -73 -57 -119s-30.334 -96.333 -41.001 -151s-18.834 -112.5 -24.501 -173.5s-8.5 -123.5 -8.5 -187.5z" />
    <glyph glyph-name="one" unicode="1" horiz-adv-x="1932" 
d="M806 0v1911h-568l214 412h914v-2323h-560z" />
    <glyph glyph-name="two" unicode="2" horiz-adv-x="1932" 
d="M213 1581c-0.666992 6 -1.16211 12.332 -1.49512 18.999s-0.5 13.334 -0.5 20.001c0 102 19.667 197.5 59 286.5s93.666 166.667 162.999 233s151.666 118.5 246.999 156.5s199 57 311 57c114 0 219 -18 315 -54s178.833 -86.333 248.5 -151s124 -142 163 -232
s58.5 -188.667 58.5 -296c0 -53.333 -5.5 -104.833 -16.5 -154.5s-26 -97.834 -45 -144.501s-41.5 -91.834 -67.5 -135.501s-54 -86.167 -84 -127.5l-473 -646h702v-412h-1676l1005 1344c10 12.667 20.5 28.334 31.5 47.001s21.167 39.667 30.5 63s17.166 49 23.499 77
s9.5 57.667 9.5 89c0 40 -5.33301 76 -16 108s-25.834 59.5 -45.501 82.5s-43.5 40.667 -71.5 53s-59.333 18.5 -94 18.5c-31.333 0 -60 -6.33301 -86 -19s-48.667 -30.5 -68 -53.5s-34.333 -50.667 -45 -83s-16 -67.833 -16 -106.5
c0 -3.33301 0.166992 -8.66602 0.5 -15.999s1.16602 -15 2.49902 -23h-564z" />
    <glyph glyph-name="three" unicode="3" horiz-adv-x="1932" 
d="M874 1450c88.667 4.66699 157.168 26.9961 205.501 66.9961s72.5 92 72.5 156c0 30 -5.66699 57.833 -17 83.5s-26.666 47.667 -45.999 66s-41.666 32.666 -66.999 42.999s-52.333 15.5 -81 15.5c-25.333 0 -50.666 -3.83301 -75.999 -11.5s-48 -19.5 -68 -35.5
s-36.333 -36.167 -49 -60.5s-19.334 -53.166 -20.001 -86.499h-568c-2 100 16.667 190.833 56 272.5s94.166 151.5 164.499 209.5s153.666 103 249.999 135s200.5 48 312.5 48c110 0 212.333 -15.667 307 -47s176.834 -75.166 246.501 -131.5
c69.667 -56.333 124.334 -123.666 164.001 -202c39.667 -78.333 59.5 -164.166 59.5 -257.499c0 -52.667 -6.83301 -103 -20.5 -151s-33.334 -92.5 -59.001 -133.5s-56.5 -77.667 -92.5 -110s-76.333 -59.166 -121 -80.499c52 -13.333 100 -35.166 144 -65.499
s82 -68.333 114 -114s57.167 -98.834 75.5 -159.501s27.5 -128 27.5 -202c0 -101.333 -20 -195.833 -60 -283.5s-97.167 -164.167 -171.5 -229.5s-164 -116.666 -269 -153.999s-222.5 -56 -352.5 -56c-123.333 0 -233.833 16.333 -331.5 49s-181.334 79 -251.001 139
s-125 132.333 -166 217s-66.5 179.334 -76.5 284.001h571c2.66699 -38 12.667 -70.667 30 -98s38.833 -50 64.5 -68s54 -31.333 85 -40s61.5 -13 91.5 -13c31.333 0 63.166 6.16699 95.499 18.5s61.5 30 87.5 53s47.167 51 63.5 84s24.5 70.5 24.5 112.5
c0 86 -27.833 154.167 -83.5 204.5s-144.167 78.5 -265.5 84.5v448z" />
    <glyph glyph-name="four" unicode="4" horiz-adv-x="1932" 
d="M1160 0v300h-1105v190l1121 1833h544v-1615h198v-408h-198v-300h-560zM1160 708v721l-440 -721h440z" />
    <glyph glyph-name="five" unicode="5" horiz-adv-x="1932" 
d="M573 738c14 -49.333 32.1719 -92.668 54.5049 -130.001s48 -68.5 77 -93.5s60.833 -43.833 95.5 -56.5s71 -19 109 -19c44 0 85.333 8.33301 124 25s72.5 40.667 101.5 72s51.833 69.666 68.5 114.999s25 96.666 25 153.999c0 58.667 -9 111.667 -27 159
s-42.167 87.333 -72.5 120s-65.833 57.834 -106.5 75.501s-83.334 26.5 -128.001 26.5c-43.333 0 -84.833 -7.16699 -124.5 -21.5s-75.667 -34 -108 -59s-60.666 -54.833 -84.999 -89.5s-42.833 -72 -55.5 -112l-417 134l382 1285h1211v-412h-789l-87 -302
c6 4 15.167 7.66699 27.5 11s25.666 6.33301 39.999 9s28.333 4.83398 42 6.50098s24.834 2.5 33.501 2.5c132 0 249.833 -21.833 353.5 -65.5s191.167 -103.334 262.5 -179.001s125.666 -164.167 162.999 -265.5s56 -209.666 56 -324.999
c0 -76.667 -9.5 -150.667 -28.5 -222s-46.5 -138 -82.5 -200s-80 -118.5 -132 -169.5s-111 -94.5 -177 -130.5s-138.5 -64 -217.5 -84s-163.5 -30 -253.5 -30c-98.667 0 -188.834 11.333 -270.501 34s-155.334 55.334 -221.001 98.001s-123.834 94.167 -174.501 154.5
s-94.334 128.5 -131.001 204.5z" />
    <glyph glyph-name="six" unicode="6" horiz-adv-x="1932" 
d="M676 770c0 -45.333 6.83203 -87.666 20.499 -126.999s32.834 -73.666 57.501 -102.999s54 -52.5 88 -69.5s71.667 -25.5 113 -25.5c40.667 0 78 7.66699 112 23s63 37.166 87 65.499s42.667 62.5 56 102.5s20 84.667 20 134c0 46.667 -6.66699 90.167 -20 130.5
s-32.166 75 -56.499 104s-53.5 51.833 -87.5 68.5s-71.667 25 -113 25s-78.833 -8.33301 -112.5 -25s-62.834 -39.834 -87.501 -69.501s-43.667 -64.5 -57 -104.5s-20 -83 -20 -129zM1108 1550c64.667 -8 126.499 -22.999 185.499 -44.999s114 -50.167 165 -84.5
s97.167 -74.166 138.5 -119.499s76.666 -95.333 105.999 -150s52 -113.334 68 -176.001s24 -128 24 -196c0 -111.333 -19.833 -215.833 -59.5 -313.5s-96.167 -183 -169.5 -256s-161.833 -130.5 -265.5 -172.5s-219.5 -63 -347.5 -63c-132 0 -250.167 21 -354.5 63
s-192.666 99.5 -264.999 172.5s-127.666 158.333 -165.999 256s-57.5 202.167 -57.5 313.5c0 48.667 4 95.167 12 139.5s18.833 86.166 32.5 125.499s29.667 76 48 110s37.833 65.667 58.5 95l759 1074h633l-519 -737z" />
    <glyph glyph-name="seven" unicode="7" horiz-adv-x="1932" 
d="M105 1911v412h1772l-1222 -2323h-607l1027 1911h-970z" />
    <glyph glyph-name="eight" unicode="8" horiz-adv-x="1932" 
d="M243 1714c0 100.667 19.333 190.498 58 269.498s91.167 145.833 157.5 200.5s143.5 96.334 231.5 125c88 28.667 181.333 43 280 43c100.667 0 195.167 -14.833 283.5 -44.5s165.5 -72.167 231.5 -127.5s118 -122.333 156 -201s57 -167 57 -265
c0 -50.667 -7.5 -100.167 -22.5 -148.5s-36.5 -93.5 -64.5 -135.5s-62 -79.333 -102 -112s-84.667 -58.334 -134 -77.001c60 -19.333 114.667 -45.166 164 -77.499s91.666 -71.666 126.999 -117.999s62.666 -100.166 81.999 -161.499s29 -130.666 29 -207.999
c0 -64.667 -9.16699 -126.834 -27.5 -186.501s-44.333 -115.5 -78 -167.5s-74.667 -99.333 -123 -142s-102.666 -79.167 -162.999 -109.5s-126 -53.833 -197 -70.5s-146.167 -25 -225.5 -25c-77.333 0 -151 8.33301 -221 25s-135 40.167 -195 70.5
s-114.333 66.833 -163 109.5s-90 90 -124 142s-60.333 107.833 -79 167.5s-28 121.834 -28 186.501c0 72.667 10.667 139.5 32 200.5s50.5 115.333 87.5 163s80.333 88.667 130 123s102.834 61.833 159.501 82.5c-47.333 18 -90.5 43.167 -129.5 75.5
s-72.5 69.5 -100.5 111.5s-49.833 87.167 -65.5 135.5s-23.5 97.166 -23.5 146.499zM792 1690c0 -25.333 4.50098 -49.5 13.501 -72.5s21.167 -43.167 36.5 -60.5s33.666 -31.166 54.999 -41.499s44 -15.5 68 -15.5c24.667 0 47.834 5.16699 69.501 15.5
s40.167 24.166 55.5 41.499s27.5 37.5 36.5 60.5s13.5 47.167 13.5 72.5c0 31.333 -4.66699 58.666 -14 81.999s-21.833 42.833 -37.5 58.5s-34.167 27.5 -55.5 35.5s-44 12 -68 12c-22.667 0 -44.334 -4 -65.001 -12s-39 -19.833 -55 -35.5s-28.833 -35.167 -38.5 -58.5
s-14.5 -50.666 -14.5 -81.999zM724.001 694.998c0 -34.667 6 -67.1699 18 -97.5029s28.5 -56.666 49.5 -78.999s46.167 -40 75.5 -53s61.333 -19.5 96 -19.5c34 0 65.667 6.5 95 19.5s54.666 30.667 75.999 53s38.166 48.666 50.499 78.999s18.5 62.833 18.5 97.5
c0 38 -6.16699 72.833 -18.5 104.5s-29.166 58.834 -50.499 81.501s-46.666 40.334 -75.999 53.001s-61 19 -95 19c-34.667 0 -66.667 -6.5 -96 -19.5s-54.5 -31 -75.5 -54s-37.5 -50.167 -49.5 -81.5s-18 -65.666 -18 -102.999z" />
    <glyph glyph-name="nine" unicode="9" horiz-adv-x="1932" 
d="M1234 1554c0 45.333 -6.83105 87.666 -20.498 126.999s-32.834 73.666 -57.501 102.999s-54.167 52.5 -88.5 69.5s-71.833 25.5 -112.5 25.5c-41.333 0 -78.833 -7.66699 -112.5 -23s-62.5 -37.166 -86.5 -65.499s-42.667 -62.5 -56 -102.5s-20 -84.667 -20 -134
c0 -47.333 6.66699 -91 20 -131s32.166 -74.5 56.499 -103.5s53.5 -51.833 87.5 -68.5s71.667 -25 113 -25c40.667 0 78 8.33301 112 25s63.333 39.834 88 69.501s43.667 64.5 57 104.5s20 83 20 129zM802.002 774c-97.333 11.333 -187.832 38.6641 -271.499 81.9971
s-156.167 99 -217.5 167s-109.666 146.333 -144.999 235s-53 184.334 -53 287.001c0 111.333 19.833 215.833 59.5 313.5s96.167 183 169.5 256s161.833 130.5 265.5 172.5s219.5 63 347.5 63c132 0 250.167 -21 354.5 -63s192.666 -99.5 264.999 -172.5
s127.666 -158.333 165.999 -256s57.5 -202.167 57.5 -313.5c0 -48.667 -4 -95.167 -12 -139.5s-18.833 -86.166 -32.5 -125.499s-29.667 -76.166 -48 -110.499s-37.833 -65.833 -58.5 -94.5l-759 -1074h-633l519 737z" />
    <glyph glyph-name="colon" unicode=":" horiz-adv-x="799" 
d="M399 1586c36 0 69.6689 -6.66895 101.002 -20.002s58.833 -31.5 82.5 -54.5s42.334 -50.333 56.001 -82s20.5 -65.834 20.5 -102.501c0 -35.333 -6 -68.666 -18 -99.999s-29.167 -58.666 -51.5 -81.999s-49.5 -41.833 -81.5 -55.5s-68.333 -20.5 -109 -20.5
c-35.333 0 -68.5 6.66699 -99.5 20s-58 31.5 -81 54.5s-41.333 50.167 -55 81.5s-20.834 65.333 -21.501 102s5.83301 70.834 19.5 102.501s32.167 59 55.5 82s50.666 41.167 81.999 54.5s64.666 20 99.999 20zM399.002 497.998c36 0 69.6689 -6.66895 101.002 -20.002
s58.833 -31.5 82.5 -54.5s42.334 -50.333 56.001 -82s20.5 -65.834 20.5 -102.501c0 -35.333 -6 -68.666 -18 -99.999s-29.167 -58.666 -51.5 -81.999s-49.5 -41.833 -81.5 -55.5s-68.333 -20.5 -109 -20.5c-35.333 0 -68.5 6.66699 -99.5 20s-58 31.5 -81 54.5
s-41.333 50.167 -55 81.5s-20.834 65.333 -21.501 102s5.83301 70.834 19.5 102.501s32.167 59 55.5 82s50.666 41.167 81.999 54.5s64.666 20 99.999 20z" />
    <glyph glyph-name="semicolon" unicode=";" horiz-adv-x="799" 
d="M731 335l-305 -813l-396 138l225 840zM399 1586c36 0 69.6689 -6.66895 101.002 -20.002s58.833 -31.5 82.5 -54.5s42.334 -50.333 56.001 -82s20.5 -65.834 20.5 -102.501c0 -35.333 -6 -68.666 -18 -99.999s-29.167 -58.666 -51.5 -81.999s-49.5 -41.833 -81.5 -55.5
s-68.333 -20.5 -109 -20.5c-35.333 0 -68.5 6.66699 -99.5 20s-58 31.5 -81 54.5s-41.333 50.167 -55 81.5s-20.834 65.333 -21.501 102s5.83301 70.834 19.5 102.501s32.167 59 55.5 82s50.666 41.167 81.999 54.5s64.666 20 99.999 20z" />
    <glyph glyph-name="less" unicode="&#x3c;" horiz-adv-x="1942" 
d="M1793 438v-460l-1651 778v289l1651 740v-457l-919 -431z" />
    <glyph glyph-name="equal" unicode="=" horiz-adv-x="1932" 
d="M1807 768v-409h-1681v409h1681zM1807 1441v-409h-1681v409h1681z" />
    <glyph glyph-name="greater" unicode="&#x3e;" horiz-adv-x="1942" 
d="M1068 897l-919 431v457l1651 -740v-289l-1651 -778v460z" />
    <glyph glyph-name="question" unicode="?" horiz-adv-x="1466" 
d="M70 1610c-1.33301 18.667 -2.33594 37.333 -3.00293 56s-1 31.334 -1 38.001c-1.33301 91.333 14.834 176.5 48.501 255.5s80.5 147.5 140.5 205.5s131 103.5 213 136.5s170.333 49.5 265 49.5c102 0 194.333 -18 277 -54s153.334 -84.667 212.001 -146
s103.834 -133 135.501 -215s47.5 -169 47.5 -261c0 -78 -10.667 -150.833 -32 -218.5s-51.166 -128.167 -89.499 -181.5s-84.166 -98.5 -137.499 -135.5s-111.666 -63.833 -174.999 -80.5v-350h-478v651c0 14.667 2.66699 28.167 8 40.5s12.333 22.666 21 30.999
s18.667 14.5 30 18.5s23 4.66699 35 2c22 -4.66699 44.333 -8.5 67 -11.5s47.667 -4.5 75 -4.5c35.333 0 66.666 6.66699 93.999 20s50.166 30.833 68.499 52.5s32.166 46.334 41.499 74.001s14 56.167 14 85.5c0 32.667 -5.33301 62.5 -16 89.5s-25.5 50 -44.5 69
s-41.667 33.667 -68 44s-54.833 15.5 -85.5 15.5c-65.333 0 -116.833 -20.333 -154.5 -61s-56.5 -96.667 -56.5 -168c0 -3.33301 0.166992 -9.33301 0.5 -18s0.833008 -18.334 1.5 -29.001h-454zM421.997 266.999c0 42 8 81.5 24 118.5s37.667 69.333 65 97
s59.666 49.5 96.999 65.5s77 24 119 24s81.667 -8 119 -24s69.833 -37.833 97.5 -65.5s49.5 -60 65.5 -97s24 -76.5 24 -118.5s-8 -81.5 -24 -118.5s-37.833 -69.5 -65.5 -97.5s-60.167 -50 -97.5 -66s-77 -24 -119 -24s-81.667 8 -119 24s-69.666 38 -96.999 66
s-49 60.5 -65 97.5s-24 76.5 -24 118.5z" />
    <glyph glyph-name="at" unicode="@" horiz-adv-x="2654" 
d="M1283 1469c-42.667 0 -81.667 -8.83301 -117 -26.5s-65.833 -41 -91.5 -70s-45.667 -62.333 -60 -100s-21.5 -76.5 -21.5 -116.5c0 -41.333 7 -81.333 21 -120s33.833 -72.667 59.5 -102s56.667 -52.833 93 -70.5s76.5 -26.5 120.5 -26.5
c46.667 0 88.334 8.83301 125.001 26.5s67.667 41.5 93 71.5s44.666 64.833 57.999 104.5s20 81.5 20 125.5c0 42.667 -7.33301 82.5 -22 119.5s-35.167 69.167 -61.5 96.5s-58 48.833 -95 64.5s-77.5 23.5 -121.5 23.5zM1871 741
c35.333 15.333 70.3262 37.335 104.993 66.002s65.834 65.667 93.501 111s50 99.5 67 162.5s25.5 136.5 25.5 220.5c0 73.333 -8.83301 144.166 -26.5 212.499s-43.5 132.166 -77.5 191.499s-75.833 113.333 -125.5 162s-106.167 90.334 -169.5 125.001
s-133.666 61.5 -210.999 80.5s-160.333 28.5 -249 28.5c-90.667 0 -176.334 -11.833 -257.001 -35.5s-155.167 -56.5 -223.5 -98.5s-129.5 -92.167 -183.5 -150.5s-100 -122 -138 -191s-67.167 -142.333 -87.5 -220s-30.5 -156.834 -30.5 -237.501
c0 -91.333 11.333 -177.666 34 -258.999s54.334 -156.666 95.001 -225.999s89.334 -131.833 146.001 -187.5s119 -102.834 187 -141.501s140.667 -68.5 218 -89.5s157 -31.5 239 -31.5c8 0 18 0.166992 30 0.5l37.5 1c13 0.333008 25.5 0.833008 37.5 1.5
s22 1.33398 30 2.00098l38 -260c-12 -1.33301 -26 -2.5 -42 -3.5s-32.5 -1.83301 -49.5 -2.5s-33.833 -1.16699 -50.5 -1.5s-31 -0.5 -43 -0.5c-110 0 -215.5 13.333 -316.5 40s-195.167 65 -282.5 115s-166.666 110.667 -237.999 182s-132.333 151.333 -183 240
s-89.834 185 -117.501 289s-41.5 214 -41.5 330c0 113.333 13.167 221.666 39.5 324.999s64.166 199.333 113.499 288s109.333 169 180 241s149.834 133.333 237.501 184s183.167 89.667 286.5 117s212.666 41 327.999 41c118 0 227.833 -12.5 329.5 -37.5
s194.334 -60.167 278.001 -105.5s157.834 -100 222.501 -164s119.167 -135.333 163.5 -214s78 -163.334 101 -254.001s34.5 -185.667 34.5 -285c0 -134 -19 -254.833 -57 -362.5s-91.833 -199.5 -161.5 -275.5s-153.167 -135.167 -250.5 -177.5
s-205.333 -65.166 -324 -68.499h-51v216c-11.333 -20.667 -28.166 -39.5 -50.499 -56.5s-47.333 -31.667 -75 -44s-56.667 -22 -87 -29s-59.166 -10.5 -86.499 -10.5c-94 0 -180.333 17.333 -259 52s-146.5 82.167 -203.5 142.5s-101.333 131.5 -133 213.5
s-47.5 170.333 -47.5 265c0 89.333 16 174 48 254s76.333 150.167 133 210.5s124 108.166 202 143.499s163 53 255 53c32 0 64.333 -3.83301 97 -11.5s63.334 -18.167 92.001 -31.5s54 -29 76 -47s38 -37 48 -57l4 126h277v-1066z" />
    <glyph glyph-name="A" unicode="A" horiz-adv-x="2140" 
d="M1300 583l-181 485c-8.66699 23.333 -16 45.333 -22 66s-10.833 39 -14.5 55s-6.5 29 -8.5 39s-3 15.667 -3 17c-0.666992 -1.33301 -2 -7 -4 -17s-5 -23 -9 -39s-9.16699 -34.5 -15.5 -55.5s-13.833 -43.167 -22.5 -66.5l-180 -484h460zM714 248l-94 -248h-600
l1051 2399l1049 -2399h-600l-94 248h-712z" />
    <glyph glyph-name="B" unicode="B" horiz-adv-x="1885" 
d="M758 464l259.999 -0.000976562c32.667 0 63.334 5.66699 92.001 17s53.667 27.833 75 49.5s38 47.667 50 78s18 64.5 18 102.5c0 40.667 -6.83301 76.334 -20.5 107.001s-31.667 56.5 -54 77.5s-48.333 36.833 -78 47.5s-60.5 16 -92.5 16h-250v-495zM1697 1676
c0 -58 -7.33496 -110.838 -22.002 -158.505s-34.5 -90 -59.5 -127s-54.167 -68.167 -87.5 -93.5s-69 -44.666 -107 -57.999c62.667 -20.667 118.334 -47.667 167.001 -81s89.667 -73.166 123 -119.499s58.666 -99.5 75.999 -159.5s26 -126.667 26 -200
c0 -59.333 -7.5 -117.166 -22.5 -173.499s-37.5 -109.666 -67.5 -159.999s-67.167 -96.666 -111.5 -138.999s-95.666 -78.833 -153.999 -109.5s-123.666 -54.5 -195.999 -71.5s-151.5 -25.5 -237.5 -25.5h-836v2323h774c120 0 225.667 -17 317 -51s168 -80.167 230 -138.5
s108.833 -126.833 140.5 -205.5s47.5 -162.667 47.5 -252zM950.997 1409.99c26.667 0 51.667 5.16699 75 15.5s43.5 25.166 60.5 44.499s30.333 42.833 40 70.5s14.5 58.834 14.5 93.501c0 30 -4.5 58.5 -13.5 85.5s-21.833 50.5 -38.5 70.5s-37 35.833 -61 47.5
s-51 17.5 -81 17.5h-189v-445h193z" />
    <glyph glyph-name="C" unicode="C" horiz-adv-x="2241" 
d="M1311 447c52.667 0.666992 103.334 7.33594 152.001 20.0029s94.5 30.5 137.5 53.5s82.833 50.167 119.5 81.5s70 66 100 104l357 -391c-54.667 -53.333 -114.5 -101.166 -179.5 -143.499s-134 -78.166 -207 -107.499s-149.667 -52 -230 -68s-163.5 -24 -249.5 -24
c-114.667 0 -224.667 13.167 -330 39.5s-203.5 64.333 -294.5 114s-173.667 110 -248 181s-137.833 150.833 -190.5 239.5s-93.5 185.167 -122.5 289.5s-43.5 215.166 -43.5 332.499c0 111.333 14.167 218.166 42.5 320.499s68.666 197.666 120.999 285.999
s115.5 168.833 189.5 241.5s156.5 134.667 247.5 186s189.5 91 295.5 119s217 42 333 42c86 0 169.167 -8 249.5 -24s157 -38.667 230 -68s142 -65.333 207 -108s124.833 -90.334 179.5 -143.001l-357 -391c-30 38 -63.333 72.333 -100 103s-76.5 57.167 -119.5 79.5
s-88.833 39.666 -137.5 51.999s-99.334 18.833 -152.001 19.5c-67.333 0.666992 -130.666 -7.83301 -189.999 -25.5s-113.833 -42.5 -163.5 -74.5s-94.334 -70.5 -134.001 -115.5s-73.167 -94.333 -100.5 -148s-48.166 -110.834 -62.499 -171.501s-21.5 -122.667 -21.5 -186
c0 -106.667 17.833 -204 53.5 -292s84 -163.5 145 -226.5s132.167 -111.667 213.5 -146s168 -51.166 260 -50.499z" />
    <glyph glyph-name="D" unicode="D" horiz-adv-x="2154" 
d="M870 464c74 0 140.999 9.16797 200.999 27.501s113.333 43.666 160 75.999s86.834 70.5 120.501 114.5s61.5 91.833 83.5 143.5s38.333 106 49 163s16 114.5 16 172.5c0 97.333 -12 188.333 -36 273s-61.5 158.167 -112.5 220.5s-116.167 111.333 -195.5 147
s-174.333 53.5 -285 53.5h-113v-1391h112zM188.999 0.000976562l0.00195312 2323h719c130.667 0 250 -13.333 358 -40s205 -64.667 291 -114s161 -108.833 225 -178.5s117.167 -147.5 159.5 -233.5s74 -179.167 95 -279.5s31.5 -205.833 31.5 -316.5
c0 -107.333 -10.667 -210.5 -32 -309.5s-53.666 -191.5 -96.999 -277.5s-97.333 -164.333 -162 -235s-140.334 -131 -227.001 -181s-184.334 -88.833 -293.001 -116.5s-228.334 -41.5 -359.001 -41.5h-709z" />
    <glyph glyph-name="E" unicode="E" horiz-adv-x="1575" 
d="M756 965v-501h717v-464h-1287v2323h1288v-468h-718v-444h666v-446h-666z" />
    <glyph glyph-name="F" unicode="F" horiz-adv-x="1533" 
d="M760 861v-861h-570v2323h1258v-468h-688v-524h662v-470h-662z" />
    <glyph glyph-name="G" unicode="G" horiz-adv-x="2605" 
d="M1311 441c84.667 0.666992 162.501 14.3389 233.501 41.0059s133.5 62 187.5 106s99.167 94.333 135.5 151s62.833 115.667 79.5 177h-561v470h1136c2 -23.333 4 -44.333 6 -63s3.66699 -36.5 5 -53.5s2.33301 -33.667 3 -50s1 -33.5 1 -51.5
c0 -116 -13.333 -226.167 -40 -330.5s-65 -200.666 -115 -288.999s-111 -168 -183 -239s-153.5 -131.5 -244.5 -181.5s-190.5 -88.5 -298.5 -115.5s-223 -40.5 -345 -40.5c-114.667 0 -224.667 13.167 -330 39.5s-203.5 64.333 -294.5 114s-173.667 110 -248 181
s-137.833 150.833 -190.5 239.5s-93.5 185.167 -122.5 289.5s-43.5 215.166 -43.5 332.499c0 111.333 14.167 218.166 42.5 320.499s68.666 197.666 120.999 285.999s115.5 168.833 189.5 241.5s156.5 134.667 247.5 186s189.5 91 295.5 119s217 42 333 42
c86 0 169.167 -8 249.5 -24s157 -38.667 230 -68s142 -65.333 207 -108s124.833 -90.334 179.5 -143l-357 -391c-30 38 -63.333 72.333 -100 103s-76.5 57.167 -119.5 79.5s-88.833 39.666 -137.5 51.999s-99.334 18.833 -152.001 19.5
c-67.333 0.666992 -130.666 -7.83301 -189.999 -25.5s-113.833 -42.5 -163.5 -74.5s-94.334 -70.5 -134.001 -115.5s-73.167 -94.333 -100.5 -148s-48.166 -110.834 -62.499 -171.501s-21.5 -122.667 -21.5 -186c0 -106.667 17.833 -204.334 53.5 -293.001
s84 -164.834 145 -228.501s132.167 -113 213.5 -148s168 -52.167 260 -51.5z" />
    <glyph glyph-name="H" unicode="H" horiz-adv-x="2293" 
d="M1546 941h-794v-941h-570v2323h570v-912h794v912h570v-2323h-570v941z" />
    <glyph glyph-name="I" unicode="I" horiz-adv-x="992" 
d="M781 0h-570v2323h570v-2323z" />
    <glyph glyph-name="J" unicode="J" horiz-adv-x="992" 
d="M801 64c0 -103.333 -18.3311 -198.334 -54.998 -285.001s-88.334 -161.667 -155.001 -225s-146.667 -112.666 -240 -147.999s-197 -53 -311 -53c-104 0 -197.5 15 -280.5 45s-156.167 68.667 -219.5 116l226 379c22 -16.667 44.333 -30.667 67 -42s45 -20.5 67 -27.5
s43.167 -12.167 63.5 -15.5s39.166 -5 56.499 -5c24.667 0 49.667 4.66699 75 14s48 23 68 41s36.333 40 49 66s19 55.667 19 89v2310h570v-2259z" />
    <glyph glyph-name="K" unicode="K" horiz-adv-x="2107" 
d="M756 0h-570v2323h570v-816l633 816h671l-939 -1107l982 -1216h-705l-642 863v-863z" />
    <glyph glyph-name="L" unicode="L" horiz-adv-x="1575" 
d="M756 464h716v-464h-1286v2323h570v-1859z" />
    <glyph glyph-name="M" unicode="M" horiz-adv-x="2838" 
d="M2820 0l-577.001 0.000976562l-134 767c-4.66699 23.333 -8.5 49.666 -11.5 78.999s-5.5 57 -7.5 83c-2.66699 30.667 -4.66699 61.667 -6 93l-663 -1098l-666 1099c-1.33301 -30.667 -3.33301 -61.334 -6 -92.001c-2 -26 -4.5 -53.667 -7.5 -83
s-6.83301 -55.666 -11.5 -78.999l-135 -769h-577l497 2403l745 -1267c22.667 -40 43.834 -79.5 63.501 -118.5s36.5 -74.167 50.5 -105.5l45 -103h3l45 103c14 31.333 30.5 66.5 49.5 105.5s40.167 78.5 63.5 118.5l742 1267z" />
    <glyph glyph-name="N" unicode="N" horiz-adv-x="2352" 
d="M1064 932c-46 42 -88.999 83.5 -128.999 124.5l-106 110.5l-100 109c4 -42 7.66699 -85.667 11 -131c2.66699 -38.667 5.16699 -82 7.5 -130s3.5 -96 3.5 -144v-871h-570v2385l1107 -991c46 -42 89.167 -83.333 129.5 -124l106.5 -110c36 -38 69 -74.667 99 -110
c-4.66699 42 -8.33398 85.667 -11.001 131c-3.33301 38.667 -6 82 -8 130s-3 96 -3 144v868h569v-2414z" />
    <glyph glyph-name="O" unicode="O" horiz-adv-x="2614" 
d="M1311 2363c116 0 226.834 -14.1631 332.501 -42.4961s203.834 -68.333 294.501 -120s173 -113.667 247 -186s137 -152.666 189 -240.999s92.167 -183.666 120.5 -285.999s42.5 -208.833 42.5 -319.5c0 -116.667 -14.333 -227.334 -43 -332.001
s-69.334 -201.334 -122.001 -290.001s-116.167 -168.334 -190.5 -239.001s-156.833 -131 -247.5 -181s-188.667 -88.333 -294 -115s-215 -40 -329 -40c-114.667 0 -224.667 13.167 -330 39.5s-203.5 64.333 -294.5 114s-173.667 110 -248 181s-137.833 151 -190.5 240
s-93.5 185.667 -122.5 290s-43.5 215.166 -43.5 332.499c0 111.333 14.167 218.166 42.5 320.499s68.666 197.666 120.999 285.999s115.5 168.833 189.5 241.5s156.5 134.667 247.5 186s189.5 91 295.5 119s217 42 333 42zM1312 441.004
c60.667 0 119.335 8.16504 176.002 24.498s109.667 39.333 159 69s94.333 65.834 135 108.501s75.667 90.667 105 144s52 111.5 68 174.5s24 129.833 24 200.5c0 62.667 -7.33301 123.834 -22 183.501s-35.834 116 -63.501 169s-61.334 101.833 -101.001 146.5
s-84.167 83.334 -133.5 116.001s-103.333 58.334 -162 77.001s-120.667 28.334 -186 29.001c-67.333 0.666992 -130.666 -7.83301 -189.999 -25.5s-113.833 -42.5 -163.5 -74.5s-94.334 -70.5 -134.001 -115.5s-73.167 -94.333 -100.5 -148
s-48.166 -110.834 -62.499 -171.501s-21.5 -122.667 -21.5 -186c0 -106.667 17.833 -204.334 53.5 -293.001s84.167 -164.834 145.5 -228.501s132.666 -113 213.999 -148s168 -52.167 260 -51.5z" />
    <glyph glyph-name="P" unicode="P" horiz-adv-x="1789" 
d="M759 1239h87.001c41.333 0 79.666 7 114.999 21s66 34.167 92 60.5s46.333 58.833 61 97.5s22 82.667 22 132c0 50.667 -8.16699 94.334 -24.5 131.001s-38 66.667 -65 90s-58 40.666 -93 51.999s-70.833 17 -107.5 17h-87v-601zM759.001 1h-569.001v2322h726
c119.333 0 227.5 -19.333 324.5 -58s179.833 -92.167 248.5 -160.5s121.667 -149.833 159 -244.5s56 -198 56 -310c0 -119.333 -19.5 -227.833 -58.5 -325.5s-93.333 -181.167 -163 -250.5s-152.667 -123 -249 -161s-202.166 -57 -317.499 -57h-157v-755z" />
    <glyph glyph-name="Q" unicode="Q" horiz-adv-x="2609" 
d="M1311 2363c116 0 226.833 -14.165 332.5 -42.498s203.834 -68.333 294.501 -120s173 -113.667 247 -186s137 -152.666 189 -240.999s92.167 -183.666 120.5 -285.999s42.5 -208.833 42.5 -319.5c0 -156.667 -25 -301 -75 -433s-119.667 -249.667 -209 -353l355 -382h-580
l-110 117c-89.333 -47.333 -184.833 -83.333 -286.5 -108s-208.5 -37.334 -320.5 -38.001c-114.667 0 -224.667 13.167 -330 39.5s-203.5 64.333 -294.5 114s-173.667 110 -248 181s-137.833 151 -190.5 240s-93.5 185.667 -122.5 290s-43.5 215.166 -43.5 332.499
c0 111.333 14.167 218.166 42.5 320.499s68.666 197.666 120.999 285.999s115.5 168.833 189.5 241.5s156.5 134.667 247.5 186s189.5 91 295.5 119s217 42 333 42zM1312 441.002c89.333 0 173.669 17.3311 253.002 51.998l-568 606h592l295 -318
c30 54 53.333 112.833 70 176.5s25 131.834 25 204.501c0 62.667 -7.33301 123.834 -22 183.501s-35.834 116 -63.501 169s-61.334 101.833 -101.001 146.5s-84.167 83.334 -133.5 116.001s-103.333 58.334 -162 77.001s-120.667 28.334 -186 29.001
c-67.333 0.666992 -130.666 -7.83301 -189.999 -25.5s-113.833 -42.5 -163.5 -74.5s-94.334 -70.5 -134.001 -115.5s-73.167 -94.333 -100.5 -148s-48.166 -110.834 -62.499 -171.501s-21.5 -122.667 -21.5 -186c0 -106.667 17.833 -204.334 53.5 -293.001
s84.167 -164.834 145.5 -228.501s132.666 -113 213.999 -148s168 -52.167 260 -51.5z" />
    <glyph glyph-name="R" unicode="R" horiz-adv-x="1792" 
d="M759 1l-568.999 -0.000976562v2322h726c119.333 0 227.5 -19.333 324.5 -58s179.833 -92.167 248.5 -160.5s121.667 -149.833 159 -244.5s56 -198 56 -310c0 -85.333 -10 -165.166 -30 -239.499s-48.5 -142 -85.5 -203s-82 -114.833 -135 -161.5
s-112.167 -85 -177.5 -115l504 -831h-626l-295 555c-12.667 22.667 -23.334 46 -32.001 70s-15.667 45.667 -21 65c-6.66699 22.667 -12 44.667 -16 66h-31v-755zM759.001 1239h87.001c41.333 0 79.666 7 114.999 21s66 34.167 92 60.5s46.333 58.833 61 97.5
s22 82.667 22 132c0 50.667 -8.16699 94.334 -24.5 131.001s-38 66.667 -65 90s-58 40.666 -93 51.999s-70.833 17 -107.5 17h-87v-601z" />
    <glyph glyph-name="S" unicode="S" horiz-adv-x="1796" 
d="M860 443c38 0 72.8359 5.5 104.503 16.5s58.667 26.167 81 45.5s39.833 42.333 52.5 69s19 56 19 88c0 31.333 -4.83301 60.666 -14.5 87.999s-25.667 52.833 -48 76.5s-51.833 45.167 -88.5 64.5s-81.667 37 -135 53c-103.333 30 -199 68.167 -287 114.5
s-164.167 101 -228.5 164s-114.833 134.333 -151.5 214s-55 167.834 -55 264.501c0 92.667 19.833 179.334 59.5 260.001s94.834 150.667 165.501 210.001c70.667 59.333 154.834 106 252.501 140s204.5 51 320.5 51c74.667 0 149 -7 223 -21s144.5 -32.667 211.5 -56
s129.167 -50.166 186.5 -80.5c57.333 -30.333 106.333 -62.166 147 -95.5l-193 -392c-28 22 -62.333 43.667 -103 65s-85.334 40.5 -134.001 57.5s-100.167 30.667 -154.5 41s-109.166 15.5 -164.499 15.5c-37.333 0 -71.333 -4.66699 -102 -14s-57 -22.666 -79 -39.999
s-39.167 -38.166 -51.5 -62.499s-18.5 -51.166 -18.5 -80.499c0 -43.333 10.5 -81 31.5 -113s49.833 -60 86.5 -84s80 -45 130 -63s104.333 -34.667 163 -50c44.667 -12 90.5 -27.833 137.5 -47.5s92.833 -43.834 137.5 -72.501s86.667 -62.334 126 -101.001
s73.666 -82.834 102.999 -132.501s52.666 -105.167 69.999 -166.5s26 -129.333 26 -204c0 -100 -18.333 -192.5 -55 -277.5s-89.5 -158.5 -158.5 -220.5s-152.667 -110.5 -251 -145.5s-208.833 -52.5 -331.5 -52.5c-84.667 0 -165.334 6.83301 -242.001 20.5
s-148.334 32.167 -215.001 55.5s-127.667 50.166 -183 80.499s-103.333 62.166 -144 95.499l199 393c28 -22 62.167 -43.167 102.5 -63.5s84.833 -38.5 133.5 -54.5s100.167 -28.833 154.5 -38.5s109.166 -14.5 164.499 -14.5z" />
    <glyph glyph-name="T" unicode="T" horiz-adv-x="1669" 
d="M1650 2323v-468h-536v-1855h-569v1855h-528v468h1633z" />
    <glyph glyph-name="U" unicode="U" horiz-adv-x="2125" 
d="M1062 434c55.333 0 104.001 9.5 146.001 28.5s77 46 105 81s49.167 77.333 63.5 127s21.5 105.5 21.5 167.5v1485h570v-1502c0 -76 -8.33301 -149.833 -25 -221.5s-41.834 -139 -75.501 -202s-75.667 -120.667 -126 -173s-109.166 -97.333 -176.499 -135
s-142.833 -67 -226.5 -88s-175.834 -31.5 -276.501 -31.5c-100 0 -192 10.5 -276 31.5s-159.5 50.333 -226.5 88s-125.667 82.667 -176 135s-92.333 110 -126 173s-58.834 130.333 -75.501 202s-25 145.5 -25 221.5v1502h570v-1485c0 -62 7.66699 -117.833 23 -167.5
s37.333 -92 66 -127s63.834 -62 105.501 -81s88.5 -28.5 140.5 -28.5z" />
    <glyph glyph-name="V" unicode="V" horiz-adv-x="2047" 
d="M5 2323l599 0.000976562l306 -789c16 -41.333 30.833 -84.166 44.5 -128.499l36.5 -122.5c12 -43.333 23 -86 33 -128c10 42 21 84.667 33 128c10.667 37.333 23 78.166 37 122.499s29 87.166 45 128.499l306 789h599l-1020 -2393z" />
    <glyph glyph-name="W" unicode="W" horiz-adv-x="3323" 
d="M1663 2397l561 -943c22.667 -38 44.167 -76.833 64.5 -116.5s38.166 -76.167 53.5 -109.5l51 -114c6.66699 39.333 14 80 22 122l25.5 120c9.66699 44 20.834 87 33.501 129l244 838h601l-806 -2393l-728 1288l-43 80.5l-40 80.5l-41 87l-41 -87l-40 -80.5l-43 -80.5
l-728 -1288l-806 2393h601l244 -838c12 -42 23 -85 33 -129s18.667 -84 26 -120c8 -42 15.333 -82.667 22 -122l51 114c15.333 33.333 33.166 69.833 53.499 109.5s41.833 78.5 64.5 116.5l561 943h4z" />
    <glyph glyph-name="X" unicode="X" horiz-adv-x="2185" 
d="M1415 1161l758 -1161h-641l-440 747l-440 -747h-641l758 1161l-758 1162h641l440 -747l440 747h641z" />
    <glyph glyph-name="Y" unicode="Y" horiz-adv-x="1952" 
d="M692 0l0.000976562 987.001l-690 1336h619l278 -591c8.66699 -18.667 17.667 -40.834 27 -66.501s17.666 -50.167 24.999 -73.5l26 -86l26 85c7.33301 23.333 15.5 48 24.5 74s18.167 48.333 27.5 67l278 591h619l-690 -1336v-987h-570z" />
    <glyph glyph-name="Z" unicode="Z" horiz-adv-x="2026" 
d="M2028 2323l-1122 -1860h1038v-463h-1931l1119 1861h-1038v462h1934z" />
    <glyph glyph-name="bracketleft" unicode="[" horiz-adv-x="938" 
d="M572 -221h322v-318h-739v3095h739v-318h-322v-2459z" />
    <glyph glyph-name="backslash" unicode="\" horiz-adv-x="1932" 
d="M502 2631l1367 -2631h-450l-1373 2631h456z" />
    <glyph glyph-name="bracketright" unicode="]" horiz-adv-x="943" 
d="M368 2238h-322v318h739v-3095h-739v318h322v2459z" />
    <glyph glyph-name="asciicircum" unicode="^" horiz-adv-x="1911" 
d="M1259 988l-305 576l-304 -576h-571l876 1652l874 -1652h-570z" />
    <glyph glyph-name="underscore" unicode="_" horiz-adv-x="1638" 
d="M0 -486v280h1638v-280h-1638z" />
    <glyph glyph-name="grave" unicode="`" horiz-adv-x="954" 
d="M418 2581l522 -736l-345 -287l-580 667z" />
    <glyph glyph-name="a" unicode="a" horiz-adv-x="2022" 
d="M1002 443c46.667 0 90.502 8.66992 131.502 26.0029s76.667 42.166 107 74.499s54.166 71.166 71.499 116.499s26 96 26 152c0 48 -8.5 93.5 -25.5 136.5s-40.5 80.833 -70.5 113.5s-65.333 58.667 -106 78s-84.667 29 -132 29c-48 0 -92.5 -8.83301 -133.5 -26.5
s-76.5 -42.334 -106.5 -74.001s-53.667 -69.334 -71 -113.001s-26 -91.5 -26 -143.5c0 -54.667 8.16699 -104.667 24.5 -150s39.166 -84.166 68.499 -116.499s64.5 -57.5 105.5 -75.5s86.5 -27 136.5 -27zM108.002 805.003c0 96.667 11.166 184.333 33.499 263
s52.666 149 90.999 211s83.166 115.667 134.499 161s106 83 164 113s118 52.167 180 66.5s123 21.5 183 21.5c57.333 0 109.833 -5.66699 157.5 -17s90.167 -26 127.5 -44s69.166 -38.333 95.499 -61s46.5 -45.334 60.5 -68.001l5 2c-4.66699 13.333 -8.33398 27 -11.001 41
c-2.66699 12 -5 25.5 -7 40.5s-3 30.167 -3 45.5v30h541v-1610h-541v30c0 15.333 1 30.5 3 45.5s4.33301 28.5 7 40.5c2.66699 14 6.33398 27.667 11.001 41l-5 2c-14 -23.333 -34.167 -46.333 -60.5 -69s-58.166 -43 -95.499 -61s-79.833 -32.5 -127.5 -43.5
s-100.167 -16.5 -157.5 -16.5c-59.333 0 -120.166 7.16699 -182.499 21.5s-122.5 36.5 -180.5 66.5s-112.667 67.667 -164 113s-96.166 99 -134.499 161s-68.666 132.333 -90.999 211s-33.5 166.334 -33.5 263.001z" />
    <glyph glyph-name="b" unicode="b" horiz-adv-x="2022" 
d="M1020 443c50 0 95.502 8.99707 136.502 26.9971s76.167 43.167 105.5 75.5s52.166 71.166 68.499 116.499s24.5 95.333 24.5 150c0 52 -8.66699 99.833 -26 143.5s-41 81.334 -71 113.001s-65.5 56.334 -106.5 74.001s-85.5 26.5 -133.5 26.5
c-47.333 0 -91.333 -9.66699 -132 -29s-76 -45.333 -106 -78s-53.5 -70.5 -70.5 -113.5s-25.5 -88.5 -25.5 -136.5c0 -56 8.66699 -106.667 26 -152s41.166 -84.166 71.499 -116.499s65.833 -57.166 106.5 -74.499s84.667 -26 132 -26zM1914 804.997
c0 -96.667 -11.167 -184.333 -33.5 -263s-52.666 -149 -90.999 -211s-83.166 -115.667 -134.499 -161s-106 -83 -164 -113s-118.167 -52.167 -180.5 -66.5s-123.166 -21.5 -182.499 -21.5c-57.333 0 -109.833 5.5 -157.5 16.5s-90.167 25.5 -127.5 43.5
s-69.166 38.333 -95.499 61s-46.5 45.667 -60.5 69l-5 -2c4 -13.333 7.33301 -27 10 -41c2.66699 -12 5.16699 -25.5 7.5 -40.5s3.5 -30.167 3.5 -45.5v-30h-541v2472h541v-852c0 -15.333 -1.16699 -32.5 -3.5 -51.5s-4.83301 -37.167 -7.5 -54.5
c-2.66699 -20 -6 -40.333 -10 -61l5 -2c14 22.667 34.167 45.334 60.5 68.001s58.166 43 95.499 61s79.833 32.667 127.5 44s100.167 17 157.5 17c59.333 0 120.166 -7.16699 182.499 -21.5s122.5 -36.5 180.5 -66.5s112.667 -67.667 164 -113s96.166 -99 134.499 -161
s68.666 -132.333 90.999 -211s33.5 -166.334 33.5 -263.001z" />
    <glyph glyph-name="c" unicode="c" horiz-adv-x="1723" 
d="M1533 927c-23.333 36 -50.8359 69.332 -82.5029 99.999s-66.667 57 -105 79s-79.666 39.167 -123.999 51.5s-90.833 18.5 -139.5 18.5c-56.667 0 -110.334 -8.5 -161.001 -25.5s-95.167 -41.167 -133.5 -72.5s-68.833 -69.5 -91.5 -114.5s-34 -95.5 -34 -151.5
c0 -57.333 10 -109.166 30 -155.499s48.333 -85.833 85 -118.5s80.5 -57.834 131.5 -75.501s107.167 -26.5 168.5 -26.5c54 0 104.5 7.33301 151.5 22s90 35 129 61s73.667 56.5 104 91.5s55.833 72.5 76.5 112.5h33v-532c-21.333 -22 -49.333 -45.833 -84 -71.5
s-76 -49.667 -124 -72s-102 -40.833 -162 -55.5s-125.667 -22 -197 -22c-83.333 0 -163.166 9.16699 -239.499 27.5s-147.333 44.5 -213 78.5s-125.334 75.667 -179.001 125s-99.5 105 -137.5 167s-67.333 129.667 -88 203s-31 151.666 -31 234.999
c0 82 10.333 159.667 31 233s50 141 88 203s83.667 117.833 137 167.5s112.833 91.834 178.5 126.501s136.334 61.334 212.001 80.001s154.834 28 237.501 28c72.667 0 137.834 -6.5 195.501 -19.5s109 -29.333 154 -49s83.833 -41 116.5 -64s60.667 -44.5 84 -64.5v-520
h-17z" />
    <glyph glyph-name="d" unicode="d" horiz-adv-x="2022" 
d="M1002 443c46.667 0 90.502 8.66992 131.502 26.0029s76.667 42.166 107 74.499s54.166 71.166 71.499 116.499s26 96 26 152c0 48 -8.5 93.5 -25.5 136.5s-40.5 80.833 -70.5 113.5s-65.333 58.667 -106 78s-84.667 29 -132 29c-48 0 -92.5 -8.83301 -133.5 -26.5
s-76.5 -42.334 -106.5 -74.001s-53.667 -69.334 -71 -113.001s-26 -91.5 -26 -143.5c0 -54.667 8.16699 -104.667 24.5 -150s39.166 -84.166 68.499 -116.499s64.5 -57.5 105.5 -75.5s86.5 -27 136.5 -27zM108.002 805.003c0 96.667 11.166 184.333 33.499 263
s52.666 149 90.999 211s83.166 115.667 134.499 161s106 83 164 113s118 52.167 180 66.5s123 21.5 183 21.5c57.333 0 109.833 -5.66699 157.5 -17s90.167 -26 127.5 -44s69.166 -38.333 95.499 -61s46.5 -45.334 60.5 -68.001l5 2c-4.66699 20.667 -8.33398 41 -11.001 61
c-2.66699 17.333 -5 35.5 -7 54.5s-3 36.167 -3 51.5v852h541v-2472h-541v30c0 15.333 1 30.5 3 45.5s4.33301 28.5 7 40.5c2.66699 14 6.33398 27.667 11.001 41l-5 2c-14 -23.333 -34.167 -46.333 -60.5 -69s-58.166 -43 -95.499 -61s-79.833 -32.5 -127.5 -43.5
s-100.167 -16.5 -157.5 -16.5c-59.333 0 -120.166 7.16699 -182.499 21.5s-122.5 36.5 -180.5 66.5s-112.667 67.667 -164 113s-96.166 99 -134.499 161s-68.666 132.333 -90.999 211s-33.5 166.334 -33.5 263.001z" />
    <glyph glyph-name="e" unicode="e" horiz-adv-x="1967" 
d="M687 679c8 -37.333 20.501 -72.165 37.501 -104.498s39.5 -60.166 67.5 -83.499s61.333 -41.666 100 -54.999s83.667 -20 135 -20c52 0 100.333 8.66699 145 26s86 47 124 89l506 -153c-28.667 -49.333 -65.667 -97.833 -111 -145.5s-99.666 -90.334 -162.999 -128.001
s-136.666 -68.667 -219.999 -93s-177.333 -37.5 -282 -39.5c-89.333 -2 -174 6.16699 -254 24.5s-153.833 45 -221.5 80s-128.334 77.833 -182.001 128.5s-99.334 107.167 -137.001 169.5s-66.5 129.833 -86.5 202.5s-30 149 -30 229s10 156.167 30 228.5
s48.333 139.5 85 201.5s81.5 118.167 134.5 168.5s112.167 93.166 177.5 128.499s136.666 62.5 213.999 81.5s159 28.5 245 28.5s167.167 -9.33301 243.5 -28s146.5 -45.334 210.5 -80.001s121.5 -76.834 172.5 -126.501s94.167 -105.167 129.5 -166.5s62.5 -128 81.5 -200
s28.5 -148 28.5 -228c0 -21.333 -0.666992 -43 -2 -65s-3.33301 -45.333 -6 -70h-1172zM1004 1189c-40 0 -77 -5.66602 -111 -16.999s-64.333 -27 -91 -47s-49.167 -43.333 -67.5 -70s-31.833 -55.334 -40.5 -86.001h617c-6.66699 30 -18.5 58.333 -35.5 85
s-38.5 50 -64.5 70s-56.5 35.833 -91.5 47.5s-73.5 17.5 -115.5 17.5z" />
    <glyph glyph-name="f" unicode="f" horiz-adv-x="1128" 
d="M793 1223l-0.000976562 -1223h-540v1223h-187v387h187v204c0 94 14 180.667 42 260s69.167 148 123.5 206s121.333 103.167 201 135.5s170.834 48.5 273.501 48.5c46 0 89.833 -4.66699 131.5 -14s82.5 -23.333 122.5 -42v-439c-34.667 24 -66.334 39.833 -95.001 47.5
s-58 11.5 -88 11.5c-17.333 0 -35.833 -3.33301 -55.5 -10s-38.167 -17.667 -55.5 -33s-31.666 -35.166 -42.999 -59.499s-17 -54.5 -17 -90.5v-225h256v-387h-256z" />
    <glyph glyph-name="g" unicode="g" horiz-adv-x="2027" 
d="M1319 30c0 15.333 0.999023 30.501 2.99902 45.501s4.33301 28.5 7 40.5c2.66699 14 6.33398 27.667 11.001 41l-5 2c-14 -23.333 -34.167 -46.333 -60.5 -69s-58.166 -43 -95.499 -61s-79.833 -32.5 -127.5 -43.5s-100.167 -16.5 -157.5 -16.5
c-59.333 0 -120.166 7.16699 -182.499 21.5s-122.5 36.5 -180.5 66.5s-112.667 67.667 -164 113s-96.166 99 -134.499 161s-68.666 132.333 -90.999 211s-33.5 166.334 -33.5 263.001s11.167 184.334 33.5 263.001s52.666 149 90.999 211s83.166 115.667 134.499 161
s106 83 164 113s118 52.167 180 66.5s123 21.5 183 21.5c57.333 0 109.833 -5.66699 157.5 -17s90.167 -26 127.5 -44s69.166 -38.333 95.499 -61s46.5 -45.334 60.5 -68.001l5 2c-4.66699 13.333 -8.33398 27 -11.001 41c-2.66699 12 -5 25.5 -7 40.5s-3 30.167 -3 45.5v30
h541v-1610c-4 -126.667 -26.833 -242.5 -68.5 -347.5s-100.667 -195.167 -177 -270.5s-169.5 -133.833 -279.5 -175.5s-235.667 -62.5 -377 -62.5c-113.333 0 -219.5 15.5 -318.5 46.5s-186.167 76 -261.5 135s-136.333 131.667 -183 218s-74.667 184.833 -84 295.5h525
c6.66699 -46 19.667 -85.167 39 -117.5s43 -58.833 71 -79.5s59.167 -35.667 93.5 -45s70.166 -14 107.499 -14c60 0 112.5 9.83301 157.5 29.5s83 47.667 114 84s54.833 80.166 71.5 131.499s26.334 108.666 29.001 171.999v30zM1002 443.001
c46.667 0 90.502 8.66992 131.502 26.0029s76.667 42.166 107 74.499s54.166 71.166 71.499 116.499s26 96 26 152c0 48 -8.5 93.5 -25.5 136.5s-40.5 80.833 -70.5 113.5s-65.333 58.667 -106 78s-84.667 29 -132 29c-48 0 -92.5 -8.83301 -133.5 -26.5
s-76.5 -42.334 -106.5 -74.001s-53.667 -69.334 -71 -113.001s-26 -91.5 -26 -143.5c0 -54.667 8.16699 -104.667 24.5 -150s39.166 -84.166 68.499 -116.499s64.5 -57.5 105.5 -75.5s86.5 -27 136.5 -27z" />
    <glyph glyph-name="h" unicode="h" horiz-adv-x="1759" 
d="M1068 990c0 24 -3.5 46.167 -10.5 66.5s-17.167 38 -30.5 53s-29.5 26.833 -48.5 35.5s-40.833 13 -65.5 13c-31.333 0 -59.833 -6 -85.5 -18s-47.834 -30.667 -66.501 -56s-33.167 -58 -43.5 -98s-15.5 -88 -15.5 -144v-842h-540v2464h540v-791
c0 -25.333 -1.33301 -51.833 -4 -79.5s-5.66699 -53.667 -9 -78s-6.66602 -45.5 -9.99902 -63.5s-5.33301 -29.667 -6 -35l4 -2c19.333 36 42.833 67.667 70.5 95s58.667 50.333 93 69s71.333 32.667 111 42s81.167 14 124.5 14c78.667 0 150.667 -11.5 216 -34.5
s121.5 -58.5 168.5 -106.5s83.667 -109.333 110 -184s39.5 -163.667 39.5 -267v-1043h-542v990z" />
    <glyph glyph-name="i" unicode="i" horiz-adv-x="966" 
d="M753 0h-540v1610h540v-1610zM482 2329c42 0 81.666 -6.83301 118.999 -20.5s70 -33.167 98 -58.5s50 -55.833 66 -91.5s24 -75.5 24 -119.5c0 -42.667 -7.5 -82 -22.5 -118s-36.167 -66.833 -63.5 -92.5s-60.166 -45.5 -98.499 -59.5s-80.833 -20 -127.5 -18
c-41.333 2 -80.333 10 -117 24s-68.667 33.5 -96 58.5s-48.833 54.667 -64.5 89s-23.5 72.833 -23.5 115.5c0 44 8 84 24 120s38 66.667 66 92s60.5 44.833 97.5 58.5s76.5 20.5 118.5 20.5z" />
    <glyph glyph-name="j" unicode="j" horiz-adv-x="966" 
d="M753 -839h-540v2449h540v-2449zM482 2329c42 0 81.666 -6.83301 118.999 -20.5s70 -33.167 98 -58.5s50 -55.833 66 -91.5s24 -75.5 24 -119.5c0 -42.667 -7.5 -82 -22.5 -118s-36.167 -66.833 -63.5 -92.5s-60.166 -45.5 -98.499 -59.5s-80.833 -20 -127.5 -18
c-41.333 2 -80.333 10 -117 24s-68.667 33.5 -96 58.5s-48.833 54.667 -64.5 89s-23.5 72.833 -23.5 115.5c0 44 8 84 24 120s38 66.667 66 92s60.5 44.833 97.5 58.5s76.5 20.5 118.5 20.5z" />
    <glyph glyph-name="k" unicode="k" horiz-adv-x="1762" 
d="M703 0h-540v2464h540v-1257l329 403h661l-661 -720l714 -890h-665l-378 514v-514z" />
    <glyph glyph-name="l" unicode="l" horiz-adv-x="966" 
d="M753 0h-540v2472h540v-2472z" />
    <glyph glyph-name="m" unicode="m" horiz-adv-x="2531" 
d="M1054 1635c102 0.666992 187.171 -19.333 255.504 -60s122.166 -99.667 161.499 -177c14.667 35.333 35.667 67.666 63 96.999s58.833 54.5 94.5 75.5s74.5 37.5 116.5 49.5s85 18 129 18c78.667 0.666992 150 -11.666 214 -36.999s118.333 -62 163 -110
s79.167 -106.5 103.5 -175.5s36.5 -146.5 36.5 -232.5v-1083h-540v1019c0 22.667 -3.33301 42.667 -10 60s-15.834 32 -27.501 44s-25.167 21 -40.5 27s-32 9 -50 9c-27.333 0 -51.833 -5.33301 -73.5 -16s-40.334 -25.334 -56.001 -44.001s-28.334 -41 -38.001 -67
s-15.5 -54.333 -17.5 -85v-947h-522v1019c0 22.667 -3.33301 42.667 -10 60s-15.834 32 -27.501 44s-25.167 21 -40.5 27s-32 9 -50 9c-28 0 -53.5 -6.5 -76.5 -19.5s-42.667 -30.833 -59 -53.5s-29 -49 -38 -79s-13.5 -62.333 -13.5 -97v-910h-539v1610h528v-40
c0 -25.333 -1.5 -51.166 -4.5 -77.499s-7.16699 -51.5 -12.5 -75.5l4 -2c20.667 38 45.334 70.667 74.001 98s59.5 50 92.5 68s67.5 31.5 103.5 40.5s71.667 13.5 107 13.5z" />
    <glyph glyph-name="n" unicode="n" horiz-adv-x="1750" 
d="M162 1610l528.001 -0.000976562v-40c0 -25.333 -1.5 -51.166 -4.5 -77.499s-7.16699 -51.5 -12.5 -75.5l4 -2c20.667 38 45.5 70.833 74.5 98.5s60.833 50.5 95.5 68.5s71.5 31.333 110.5 40s78.5 13 118.5 13c78.667 0 150.667 -11.5 216 -34.5
s121.5 -58.5 168.5 -106.5s83.667 -109.333 110 -184s39.5 -163.667 39.5 -267v-1043h-542v990c0 24 -3.5 46.167 -10.5 66.5s-17.167 38 -30.5 53s-29.5 26.833 -48.5 35.5s-40.833 13 -65.5 13c-31.333 0 -59.833 -6 -85.5 -18s-47.834 -30.667 -66.501 -56
s-33.167 -58 -43.5 -98s-15.5 -88 -15.5 -144v-842h-540v1610z" />
    <glyph glyph-name="o" unicode="o" horiz-adv-x="1993" 
d="M1002 -28c-86 0 -167.667 9.5 -245 28.5s-148.666 46.167 -213.999 81.5s-124.5 77.833 -177.5 127.5s-97.833 105.5 -134.5 167.5s-65 129 -85 201s-30 148 -30 228s10 156.167 30 228.5s48.333 139.5 85 201.5s81.5 118.167 134.5 168.5s112.167 93.166 177.5 128.499
s136.666 62.5 213.999 81.5s159 28.5 245 28.5s167.667 -9.5 245 -28.5s148.833 -46.167 214.5 -81.5s124.834 -78.166 177.501 -128.499s97.5 -106.5 134.5 -168.5s65.5 -129.167 85.5 -201.5s30 -148.5 30 -228.5s-10 -156 -30 -228s-48.5 -139 -85.5 -201
s-81.833 -117.833 -134.5 -167.5s-111.834 -92.167 -177.501 -127.5s-137.167 -62.5 -214.5 -81.5s-159 -28.5 -245 -28.5zM1002 443c50 0 95.6699 8.66797 137.003 26.001s76.666 42.166 105.999 74.499s52.166 71.166 68.499 116.499s24.5 96 24.5 152
c0 52 -8.5 99.833 -25.5 143.5s-40.5 81.334 -70.5 113.001s-65.333 56.334 -106 74.001s-84.667 26.5 -132 26.5c-48 0 -92.5 -8.83301 -133.5 -26.5s-76.5 -42.334 -106.5 -74.001s-53.667 -69.334 -71 -113.001s-26 -91.5 -26 -143.5
c0 -54.667 8.16699 -104.667 24.5 -150s39.166 -84.166 68.499 -116.499s64.5 -57.5 105.5 -75.5s86.5 -27 136.5 -27z" />
    <glyph glyph-name="p" unicode="p" horiz-adv-x="2032" 
d="M1021 1167c-47.333 0 -91.335 -8.66992 -132.002 -26.0029s-76.167 -42.166 -106.5 -74.499s-54.166 -71.166 -71.499 -116.499s-26 -96 -26 -152c0 -48 8.5 -93.5 25.5 -136.5s40.5 -80.833 70.5 -113.5s65.333 -58.667 106 -78s84.667 -29 132 -29
c48 0 92.5 8.83301 133.5 26.5s76.5 42.334 106.5 74.001s53.667 69.334 71 113.001s26 91.5 26 143.5c0 54.667 -8.16699 104.667 -24.5 150s-39.166 84.166 -68.499 116.499s-64.5 57.5 -105.5 75.5s-86.5 27 -136.5 27zM1915 804.997
c0 -96.667 -11.167 -184.333 -33.5 -263s-52.666 -149 -90.999 -211s-83.166 -115.667 -134.499 -161s-106 -83 -164 -113s-118.167 -52.167 -180.5 -66.5s-123.166 -21.5 -182.499 -21.5c-57.333 0 -109.833 5.5 -157.5 16.5s-90.167 25.5 -127.5 43.5
s-69.166 38.333 -95.499 61s-46.5 45.667 -60.5 69l-5 -2c4 -20.667 7.33301 -41 10 -61c2.66699 -17.333 5.16699 -35.5 7.5 -54.5s3.5 -36.167 3.5 -51.5v-852h-541v2472h541v-30c0 -15.333 -1.16699 -30.5 -3.5 -45.5s-4.83301 -28.5 -7.5 -40.5
c-2.66699 -14 -6 -27.667 -10 -41l5 -2c14 22.667 34.167 45.334 60.5 68.001s58.166 43 95.499 61s79.833 32.667 127.5 44s100.167 17 157.5 17c59.333 0 120.166 -7.16699 182.499 -21.5s122.5 -36.5 180.5 -66.5s112.667 -67.667 164 -113s96.166 -99 134.499 -161
s68.666 -132.333 90.999 -211s33.5 -166.334 33.5 -263.001z" />
    <glyph glyph-name="q" unicode="q" horiz-adv-x="2027" 
d="M1007 1167c-50 0 -95.502 -8.99707 -136.502 -26.9971s-76.167 -43.167 -105.5 -75.5s-52.166 -71.166 -68.499 -116.499s-24.5 -95.333 -24.5 -150c0 -52 8.66699 -99.833 26 -143.5s41 -81.334 71 -113.001s65.5 -56.334 106.5 -74.001s85.5 -26.5 133.5 -26.5
c47.333 0 91.333 9.66699 132 29s76 45.333 106 78s53.5 70.5 70.5 113.5s25.5 88.5 25.5 136.5c0 56 -8.66699 106.667 -26 152s-41.166 84.166 -71.499 116.499s-66 57.166 -107 74.499s-84.833 26 -131.5 26zM112.998 805.003c0 96.667 11.166 184.333 33.499 263
s52.666 149 90.999 211s83.166 115.667 134.499 161s106 83 164 113s118 52.167 180 66.5s123 21.5 183 21.5c57.333 0 109.833 -5.66699 157.5 -17s90.167 -26 127.5 -44s69.166 -38.333 95.499 -61s46.5 -45.334 60.5 -68.001l5 2c-4.66699 13.333 -8.33398 27 -11.001 41
c-2.66699 12 -5 25.5 -7 40.5s-3 30.167 -3 45.5v30h541v-2472h-541v852c0 15.333 1 32.5 3 51.5s4.33301 37.167 7 54.5c2.66699 20 6.33398 40.333 11.001 61l-5 2c-14 -23.333 -34.167 -46.333 -60.5 -69s-58.166 -43 -95.499 -61s-79.833 -32.5 -127.5 -43.5
s-100.167 -16.5 -157.5 -16.5c-59.333 0 -120.166 7.16699 -182.499 21.5s-122.5 36.5 -180.5 66.5s-112.667 67.667 -164 113s-96.166 99 -134.499 161s-68.666 132.333 -90.999 211s-33.5 166.334 -33.5 263.001z" />
    <glyph glyph-name="r" unicode="r" horiz-adv-x="1410" 
d="M1293 1111c-14 11.333 -29 20.833 -45 28.5s-31.833 13.667 -47.5 18s-31 7.5 -46 9.5s-28.833 3 -41.5 3c-54.667 0 -106.834 -12.5 -156.501 -37.5s-93.334 -59.833 -131.001 -104.5s-67.667 -97.334 -90 -158.001s-33.5 -126.334 -33.5 -197.001v-673h-539v1610h539
v-55c0 -33.333 -2.16699 -68.666 -6.5 -105.999s-10.166 -78.333 -17.499 -123l6 -1c15.333 50 39 94.333 71 133s67.833 71.334 107.5 98.001s80.834 46.834 123.501 60.501s82.667 20.5 120 20.5c46 0 89.833 -3.83301 131.5 -11.5s83.167 -20.834 124.5 -39.501z" />
    <glyph glyph-name="s" unicode="s" horiz-adv-x="1610" 
d="M744 602c-105.333 21.333 -196.671 49.6689 -274.004 85.002s-141.666 76.5 -192.999 123.5s-89.5 99.333 -114.5 157s-37.5 119.167 -37.5 184.5c0 76 18 143.667 54 203s85.667 109.166 149 149.499s137.833 71.166 223.5 92.499s178.5 32 278.5 32
c62.667 0 125.167 -5.83301 187.5 -17.5s121.833 -27.334 178.5 -47.001s109 -42.334 157 -68.001s89.333 -52.5 124 -80.5l-163 -330c-23.333 18 -52 36 -86 54s-71.167 34.167 -111.5 48.5s-83.166 26 -128.499 35s-91.333 13.5 -138 13.5
c-55.333 0 -98 -7.66699 -128 -23s-45 -38.333 -45 -69c0 -33.333 16.333 -58.5 49 -75.5s80.334 -31.833 143.001 -44.5c106.667 -21.333 199.167 -49.5 277.5 -84.5s143 -75.833 194 -122.5s89 -98.667 114 -156s37.5 -119 37.5 -185c0 -76 -18.167 -144.667 -54.5 -206
s-86.833 -113.5 -151.5 -156.5s-141.167 -76.167 -229.5 -99.5s-184.833 -35 -289.5 -35c-71.333 0 -138.666 5.83301 -201.999 17.5s-122.166 27.334 -176.499 47.001s-104 42.334 -149 68.001s-84.833 52.5 -119.5 80.5l163 330c23.333 -18 52 -35.833 86 -53.5
s71.167 -33.167 111.5 -46.5s83.166 -24.166 128.499 -32.499s91.333 -12.5 138 -12.5c64 0 112.167 9.66699 144.5 29s48.5 44 48.5 74c0 13.333 -3.16699 25.666 -9.5 36.999s-17 22 -32 32s-35 19.167 -60 27.5s-56.5 16.5 -94.5 24.5z" />
    <glyph glyph-name="t" unicode="t" horiz-adv-x="1270" 
d="M876 0h-541v1222h-265v387h265v573h541v-573h322v-387h-322v-1222z" />
    <glyph glyph-name="u" unicode="u" horiz-adv-x="1702" 
d="M851 -29c-106.667 0 -203 15 -289 45s-159.333 72.5 -220 127.5s-107.5 120.833 -140.5 197.5s-49.5 162 -49.5 256v1013h539v-1020c0 -27.333 4.33301 -51.333 13 -72s20.5 -38.334 35.5 -53.001s32 -25.667 51 -33s39.167 -11 60.5 -11c20.667 0 40.667 3.66699 60 11
s36.5 18.333 51.5 33s26.833 32.334 35.5 53.001s13 44.667 13 72v1020h539v-1013c0 -94 -16.5 -179.333 -49.5 -256s-79.833 -142.5 -140.5 -197.5s-134 -97.5 -220 -127.5s-182.333 -45 -289 -45z" />
    <glyph glyph-name="v" unicode="v" horiz-adv-x="1709" 
d="M854 891c7.33301 36.667 15.3311 72.667 23.998 108c7.33301 30 15.833 61.333 25.5 94s19.834 60.667 30.501 84l180 433h565l-825 -1677l-825 1677h565l180 -433c10.667 -23.333 20.834 -51.333 30.501 -84s18.167 -64 25.5 -94
c8.66699 -35.333 16.667 -71.333 24 -108z" />
    <glyph glyph-name="w" unicode="w" horiz-adv-x="2364" 
d="M1472 1185c12.667 -22 24.833 -45.168 36.5 -69.501s22.167 -47.166 31.5 -68.499c10.667 -24.667 20.334 -48.667 29.001 -72l17 76l18 71.5c6.66699 25.667 14 49.834 22 72.501l144 415h566l-670 -1675l-374 630c-15.333 26 -29.5 52.167 -42.5 78.5
s-24.167 50.333 -33.5 72l-23 55c-6 15 -9.66699 24.833 -11 29.5c-1.33301 -4 -4.83301 -13.5 -10.5 -28.5s-13.334 -33.333 -23.001 -55l-33.5 -72c-12.667 -26.333 -27 -52.833 -43 -79.5l-374 -630l-670 1675h566l144 -415c7.33301 -22.667 14.5 -46.834 21.5 -72.501
s13.167 -49.5 18.5 -71.5l17 -76c8.66699 23.333 18.334 47.333 29.001 72l31 68.5c11.333 24.333 23.666 47.5 36.999 69.5l290 489z" />
    <glyph glyph-name="x" unicode="x" horiz-adv-x="1759" 
d="M877 398l-223 -398h-621l501 805l-501 803h621l223 -414l224 414h621l-501 -803l501 -805h-621z" />
    <glyph glyph-name="y" unicode="y" horiz-adv-x="1793" 
d="M1762 1610l-1039 -2445h-544l414 1005l-560 1440h580l196 -581c9.33301 -29.333 17.666 -59.5 24.999 -90.5s13.666 -59.167 18.999 -84.5c6 -30 11 -59.333 15 -88c5.33301 28 11.666 56.667 18.999 86c6.66699 25.333 14.667 53 24 83s20 60 32 90l236 585h583z" />
    <glyph glyph-name="z" unicode="z" horiz-adv-x="1746" 
d="M842 387h806v-387h-1610l824 1223h-764v387h1615z" />
    <glyph glyph-name="braceleft" unicode="{" horiz-adv-x="947" 
d="M63 1080c26 6.66699 49.333 17.6738 70 33.0068s38.334 35.833 53.001 61.5s26 56.667 34 93s12 79.166 12 128.499v610c0 84.667 12.167 164.834 36.5 240.5c24.333 75.667 62.833 142 115.5 199s120.5 102.5 203.5 136.5s182.833 51.667 299.5 53v-356
c-30 0 -58 -6.83301 -84 -20.5s-48.333 -32.334 -67 -56c-18.667 -23.667 -33.334 -51.5 -44.001 -83.5s-16 -66.333 -16 -103v-533c0 -70.667 -7.16699 -134.834 -21.5 -192.501s-35 -107.834 -62 -150.501s-60.5 -77.334 -100.5 -104.001s-85.333 -44.334 -136 -53.001
c102.667 -23.333 181.667 -77.166 237 -161.499s83 -197.833 83 -340.5v-533c0 -36 5.33301 -70 16 -102s25.334 -60 44.001 -84s41 -43 67 -57s54 -21 84 -21v-355c-116.667 1.33301 -216.5 19 -299.5 53s-150.833 79.5 -203.5 136.5s-91.167 123.333 -115.5 199
s-36.5 155.834 -36.5 240.501v610c0 49.333 -4 92.166 -12 128.499s-19.333 67.166 -34 92.499s-32.334 46.166 -53.001 62.499s-44 29.166 -70 38.499v190z" />
    <glyph glyph-name="bar" unicode="|" horiz-adv-x="1027" 
d="M753 -704h-479v3417h479v-3417z" />
    <glyph glyph-name="braceright" unicode="}" horiz-adv-x="947" 
d="M884 890c-26 -9.33301 -49.333 -22.1719 -70 -38.5049s-38.334 -37.166 -53.001 -62.499s-26 -56.166 -34 -92.499s-12 -79.166 -12 -128.499v-610c0 -84.667 -12.167 -164.834 -36.5 -240.501s-62.833 -142 -115.5 -199s-120.5 -102.5 -203.5 -136.5
s-182.833 -51.667 -299.5 -53v355c30 0 58 7 84 21s48.333 33 67 57s33.334 52 44.001 84s16 66 16 102v533c0 142.667 27.667 256.167 83 340.5s134.333 138.166 237 161.499c-51.333 8.66699 -96.833 26.334 -136.5 53.001s-73 61.334 -100 104.001
s-47.667 92.834 -62 150.501s-21.5 121.834 -21.5 192.501v533c0 36.667 -5.33301 71 -16 103s-25.334 59.833 -44.001 83.5s-41 42.334 -67 56c-26 13.667 -54 20.5 -84 20.5v356c116.667 -1.33301 216.5 -19 299.5 -53s150.833 -79.5 203.5 -136.5
s91.167 -123.333 115.5 -199s36.5 -155.834 36.5 -240.501v-610c0 -49.333 4 -92.166 12 -128.499s19.333 -67.333 34 -93s32.334 -46.167 53.001 -61.5s44 -26.333 70 -33v-190z" />
    <glyph glyph-name="asciitilde" unicode="~" horiz-adv-x="1910" 
d="M-15 939c87.333 106 183.833 185.667 289.5 239s220.5 80 344.5 80c43.333 0 85.333 -3.66699 126 -11s80 -17.333 118 -30s75 -27 111 -43s71 -32.667 105 -50c64 -32 123.833 -52.5 179.5 -61.5s106.667 -6.83301 153 6.5s87.5 37.5 123.5 72.5s65.667 80.167 89 135.5
l309 -367c-27.333 -51.333 -61.166 -99 -101.499 -143s-86.333 -82.167 -138 -114.5s-108.667 -57.833 -171 -76.5s-129.5 -28 -201.5 -28c-40.667 0 -80.334 4 -119.001 12s-76.5 18.333 -113.5 31s-73 27.167 -108 43.5l-102.5 49.5
c-127.333 63.333 -237.833 81.5 -331.5 54.5s-174.5 -98.833 -242.5 -215.5z" />
    <glyph glyph-name="saraileftthai" 
d="M-872 2106h-1113v300h1113v-300z" />
    <glyph glyph-name="saraileftthai" unicode="&#xf701;" 
d="M-872 2106h-1113v300h1113v-300z" />
    <glyph glyph-name="saraiileftthai" 
d="M-1303 2660h431v-554h-1113v300h682v254z" />
    <glyph glyph-name="saraiileftthai" unicode="&#xf702;" 
d="M-1303 2660h431v-554h-1113v300h682v254z" />
    <glyph glyph-name="saraueleftthai" 
d="M-1530 2406c-1.33301 4.66699 -2.16797 10.834 -2.50098 18.5c-0.333008 7.66699 -0.5 13.834 -0.5 18.5c0 35.333 7.16699 70.5 21.5 105.5s35.5 66.333 63.5 94s62.833 50 104.5 67s89.834 25.5 144.501 25.5c55.333 0 103.833 -8.5 145.5 -25.5
s76.5 -39.333 104.5 -67s49 -59 63 -94s21 -70.5 21 -106.5c0 -17.333 -0.833008 -30.5 -2.5 -39.5s-3.16699 -16.5 -4.5 -22.5v-274h-1113v300h455zM-1197 2497c-24.667 0 -45.334 -8 -62.001 -24s-25 -36.667 -25 -62c0 -22.667 8.33301 -42.167 25 -58.5
s37.334 -24.5 62.001 -24.5s45.334 8.16699 62.001 24.5s25 35.833 25 58.5c0 25.333 -8.33301 46 -25 62s-37.334 24 -62.001 24z" />
    <glyph glyph-name="saraueleftthai" unicode="&#xf703;" 
d="M-1530 2406c-1.33301 4.66699 -2.16797 10.834 -2.50098 18.5c-0.333008 7.66699 -0.5 13.834 -0.5 18.5c0 35.333 7.16699 70.5 21.5 105.5s35.5 66.333 63.5 94s62.833 50 104.5 67s89.834 25.5 144.501 25.5c55.333 0 103.833 -8.5 145.5 -25.5
s76.5 -39.333 104.5 -67s49 -59 63 -94s21 -70.5 21 -106.5c0 -17.333 -0.833008 -30.5 -2.5 -39.5s-3.16699 -16.5 -4.5 -22.5v-274h-1113v300h455zM-1197 2497c-24.667 0 -45.334 -8 -62.001 -24s-25 -36.667 -25 -62c0 -22.667 8.33301 -42.167 25 -58.5
s37.334 -24.5 62.001 -24.5s45.334 8.16699 62.001 24.5s25 35.833 25 58.5c0 25.333 -8.33301 46 -25 62s-37.334 24 -62.001 24z" />
    <glyph glyph-name="saraueeleftthai" 
d="M-1172 2660h300v-554h-1113v300h353v254h300v-274h160v274z" />
    <glyph glyph-name="saraueeleftthai" unicode="&#xf704;" 
d="M-1172 2660h300v-554h-1113v300h353v254h300v-274h160v274z" />
    <glyph glyph-name="maieklowleftthai" 
d="M-1385 2620h446v-502h-446v502z" />
    <glyph glyph-name="maieklowleftthai" unicode="&#xf705;" 
d="M-1385 2620h446v-502h-446v502z" />
    <glyph glyph-name="maitholowleftthai" 
d="M-1247 2668v-283h373v-270h-762v274h-230v279h619z" />
    <glyph glyph-name="maitholowleftthai" unicode="&#xf706;" 
d="M-1247 2668v-283h373v-270h-762v274h-230v279h619z" />
    <glyph glyph-name="maitrilowleftthai" 
d="M-1834 2124c-1.33301 9.33301 -2.49902 20 -3.49902 32s-1.5 24 -1.5 36c0 51.333 6.66699 98.833 20 142.5s33 81.334 59 113c26 31.667 58.167 56.5 96.5 74.5s82.5 27 132.5 27c26.667 0 52 -4.5 76 -13.5s45.833 -21.833 65.5 -38.5s36.167 -36.834 49.5 -60.5
c13.333 -23.667 22.333 -49.834 27 -78.5c4.66699 29.333 14 55.833 28 79.5s31 43.834 51 60.5c20 16.667 42 29.5 66 38.5s48.333 13.5 73 13.5c37.333 0 70.5 -5.5 99.5 -16.5s53.5 -26.5 73.5 -46.5s35.167 -43.833 45.5 -71.5s15.5 -58.167 15.5 -91.5v-20
c7.33301 3.33301 15 5.83301 23 7.5s15.667 3.16699 23 4.5c8 1.33301 16.667 2 26 2h7v-200h-212c-18.667 0 -31.667 4.16699 -39 12.5s-11 18.5 -11 30.5c0 34.667 -7 62.834 -21 84.5c-14 21.667 -33.667 32.5 -59 32.5c-26 0 -45.5 -10.833 -58.5 -32.5
s-19.5 -47.5 -19.5 -77.5v-9.5v-14c0 -5 0.166992 -9.66699 0.5 -14s0.5 -7.16602 0.5 -8.5h-221c0 1.33301 0.166992 4.16602 0.5 8.5c0.333008 4.33301 0.666016 9.16602 0.999023 14.5c0.333008 5.33301 0.5 10.333 0.5 15v9c0 36.667 -6.16699 63.834 -18.5 81.5
c-12.333 17.667 -33.5 26.5 -63.5 26.5c-25.333 0 -46.5 -9.83301 -63.5 -29.5s-25.5 -46.5 -25.5 -80.5v-17c0 -2.66699 0.333008 -5.66699 1 -9z" />
    <glyph glyph-name="maitrilowleftthai" unicode="&#xf707;" 
d="M-1834 2124c-1.33301 9.33301 -2.49902 20 -3.49902 32s-1.5 24 -1.5 36c0 51.333 6.66699 98.833 20 142.5s33 81.334 59 113c26 31.667 58.167 56.5 96.5 74.5s82.5 27 132.5 27c26.667 0 52 -4.5 76 -13.5s45.833 -21.833 65.5 -38.5s36.167 -36.834 49.5 -60.5
c13.333 -23.667 22.333 -49.834 27 -78.5c4.66699 29.333 14 55.833 28 79.5s31 43.834 51 60.5c20 16.667 42 29.5 66 38.5s48.333 13.5 73 13.5c37.333 0 70.5 -5.5 99.5 -16.5s53.5 -26.5 73.5 -46.5s35.167 -43.833 45.5 -71.5s15.5 -58.167 15.5 -91.5v-20
c7.33301 3.33301 15 5.83301 23 7.5s15.667 3.16699 23 4.5c8 1.33301 16.667 2 26 2h7v-200h-212c-18.667 0 -31.667 4.16699 -39 12.5s-11 18.5 -11 30.5c0 34.667 -7 62.834 -21 84.5c-14 21.667 -33.667 32.5 -59 32.5c-26 0 -45.5 -10.833 -58.5 -32.5
s-19.5 -47.5 -19.5 -77.5v-9.5v-14c0 -5 0.166992 -9.66699 0.5 -14s0.5 -7.16602 0.5 -8.5h-221c0 1.33301 0.166992 4.16602 0.5 8.5c0.333008 4.33301 0.666016 9.16602 0.999023 14.5c0.333008 5.33301 0.5 10.333 0.5 15v9c0 36.667 -6.16699 63.834 -18.5 81.5
c-12.333 17.667 -33.5 26.5 -63.5 26.5c-25.333 0 -46.5 -9.83301 -63.5 -29.5s-25.5 -46.5 -25.5 -80.5v-17c0 -2.66699 0.333008 -5.66699 1 -9z" />
    <glyph glyph-name="maichattawalowleftthai" 
d="M-1466 2284h-212v254h212v173h386v-173h212v-253h-212v-177h-386v176z" />
    <glyph glyph-name="maichattawalowleftthai" unicode="&#xf708;" 
d="M-1466 2284h-212v254h212v173h386v-173h212v-253h-212v-177h-386v176z" />
    <glyph glyph-name="thanthakhatlowleftthai" 
d="M-1210 2339v-202h-419v282c0 24.667 4.16699 48.5 12.5 71.5s20.666 43.167 36.999 60.5s36.333 31.166 60 41.5c23.667 10.333 50.834 15.5 81.501 15.5h580v-269h-352z" />
    <glyph glyph-name="thanthakhatlowleftthai" unicode="&#xf709;" 
d="M-1210 2339v-202h-419v282c0 24.667 4.16699 48.5 12.5 71.5s20.666 43.167 36.999 60.5s36.333 31.166 60 41.5c23.667 10.333 50.834 15.5 81.501 15.5h580v-269h-352z" />
    <glyph glyph-name="maieklowrightthai" 
d="M-725 2620h486v-502h-486v502z" />
    <glyph glyph-name="maieklowrightthai" unicode="&#xf70a;" 
d="M-725 2620h486v-502h-486v502z" />
    <glyph glyph-name="maitholowrightthai" 
d="M-727 2661v-283h573v-270h-982v274h-230v279h639z" />
    <glyph glyph-name="maitholowrightthai" unicode="&#xf70b;" 
d="M-727 2661v-283h573v-270h-982v274h-230v279h639z" />
    <glyph glyph-name="maitrilowrightthai" 
d="M-1454 2117c-1.33301 10.667 -2.49707 21.667 -3.49707 33s-1.5 24 -1.5 38c0 53.333 7.83301 102.333 23.5 147s38.667 83.167 69 115.5s67.666 57.5 111.999 75.5s95.166 27 152.499 27c27.333 0 53.833 -4.16699 79.5 -12.5s49.167 -20 70.5 -35
s39.666 -33 54.999 -54s26.666 -44.5 33.999 -70.5c6.66699 26 18 49.5 34 70.5s34.833 39 56.5 54s45.334 26.667 71.001 35s51.167 12.5 76.5 12.5c42.667 0 80.5 -5.5 113.5 -16.5s61.5 -26.5 85.5 -46.5s43.167 -44.167 57.5 -72.5s23.833 -59.833 28.5 -94.5
c6.66699 1.33301 14.167 2.66602 22.5 4c8.33301 1.33301 16.166 2.33301 23.499 3c8 0.666992 16.333 1 25 1h63v-221h-303c-14 0 -26.667 3.5 -38 10.5s-17 19.167 -17 36.5c0 38 -8.33301 66.5 -25 85.5s-39 28.5 -67 28.5c-20.667 0 -37.5 -5.33301 -50.5 -16
s-22.833 -24 -29.5 -40s-10.667 -33.167 -12 -51.5s-0.333008 -34.833 3 -49.5h-248c2.66699 15.333 3.33398 32.166 2.00098 50.5c-1.33301 18.333 -5.33301 35.333 -12 51s-16.167 28.834 -28.5 39.5c-12.333 10.667 -28.5 16 -48.5 16
c-18 0 -33.167 -4.16699 -45.5 -12.5s-22 -19.166 -29 -32.5c-7 -13.333 -11.5 -28.166 -13.5 -44.5c-2 -16.333 -1.66699 -32.166 1 -47.5z" />
    <glyph glyph-name="maitrilowrightthai" unicode="&#xf70c;" 
d="M-1454 2117c-1.33301 10.667 -2.49707 21.667 -3.49707 33s-1.5 24 -1.5 38c0 53.333 7.83301 102.333 23.5 147s38.667 83.167 69 115.5s67.666 57.5 111.999 75.5s95.166 27 152.499 27c27.333 0 53.833 -4.16699 79.5 -12.5s49.167 -20 70.5 -35
s39.666 -33 54.999 -54s26.666 -44.5 33.999 -70.5c6.66699 26 18 49.5 34 70.5s34.833 39 56.5 54s45.334 26.667 71.001 35s51.167 12.5 76.5 12.5c42.667 0 80.5 -5.5 113.5 -16.5s61.5 -26.5 85.5 -46.5s43.167 -44.167 57.5 -72.5s23.833 -59.833 28.5 -94.5
c6.66699 1.33301 14.167 2.66602 22.5 4c8.33301 1.33301 16.166 2.33301 23.499 3c8 0.666992 16.333 1 25 1h63v-221h-303c-14 0 -26.667 3.5 -38 10.5s-17 19.167 -17 36.5c0 38 -8.33301 66.5 -25 85.5s-39 28.5 -67 28.5c-20.667 0 -37.5 -5.33301 -50.5 -16
s-22.833 -24 -29.5 -40s-10.667 -33.167 -12 -51.5s-0.333008 -34.833 3 -49.5h-248c2.66699 15.333 3.33398 32.166 2.00098 50.5c-1.33301 18.333 -5.33301 35.333 -12 51s-16.167 28.834 -28.5 39.5c-12.333 10.667 -28.5 16 -48.5 16
c-18 0 -33.167 -4.16699 -45.5 -12.5s-22 -19.166 -29 -32.5c-7 -13.333 -11.5 -28.166 -13.5 -44.5c-2 -16.333 -1.66699 -32.166 1 -47.5z" />
    <glyph glyph-name="maichattawalowrightthai" 
d="M-713 2284h-192v254h192v173h466v-173h192v-253h-192v-177h-466v176z" />
    <glyph glyph-name="maichattawalowrightthai" unicode="&#xf70d;" 
d="M-713 2284h-192v254h192v173h466v-173h192v-253h-192v-177h-466v176z" />
    <glyph glyph-name="thanthakhatlowrightthai" 
d="M-370 2339v-202h-479v282c0 24.667 4.16699 48.5 12.5 71.5s20.666 43.167 36.999 60.5s36.333 31.166 60 41.5c23.667 10.333 50.834 15.5 81.501 15.5h600v-269h-312z" />
    <glyph glyph-name="thanthakhatlowrightthai" unicode="&#xf70e;" 
d="M-370 2339v-202h-479v282c0 24.667 4.16699 48.5 12.5 71.5s20.666 43.167 36.999 60.5s36.333 31.166 60 41.5c23.667 10.333 50.834 15.5 81.501 15.5h600v-269h-312z" />
    <glyph glyph-name="maihanakatleftthai" 
d="M-1174 2406h1194v-300h-1664v475h470v-175z" />
    <glyph glyph-name="maihanakatleftthai" unicode="&#xf710;" 
d="M-1174 2406h1194v-300h-1664v475h470v-175z" />
    <glyph glyph-name="nikhahitleftthai" 
d="M-1586 2401c0 48 8.83301 93 26.5 135s42.334 78.667 74.001 110s69 56 112 74s90.167 27 141.5 27s98.5 -9 141.5 -27s80 -42.667 111 -74s55.167 -68 72.5 -110s26 -87 26 -135c0 -47.333 -8.66699 -92 -26 -134s-41.5 -78.5 -72.5 -109.5s-68 -55.5 -111 -73.5
s-90.167 -27 -141.5 -27s-98.5 9 -141.5 27s-80.333 42.5 -112 73.5s-56.334 67.5 -74.001 109.5s-26.5 86.667 -26.5 134zM-1232 2487c-24.667 0 -45.334 -8 -62.001 -24s-25 -36.667 -25 -62c0 -22.667 8.33301 -42.167 25 -58.5s37.334 -24.5 62.001 -24.5
s45.334 8.16699 62.001 24.5s25 35.833 25 58.5c0 25.333 -8.33301 46 -25 62s-37.334 24 -62.001 24z" />
    <glyph glyph-name="nikhahitleftthai" unicode="&#xf711;" 
d="M-1586 2401c0 48 8.83301 93 26.5 135s42.334 78.667 74.001 110s69 56 112 74s90.167 27 141.5 27s98.5 -9 141.5 -27s80 -42.667 111 -74s55.167 -68 72.5 -110s26 -87 26 -135c0 -47.333 -8.66699 -92 -26 -134s-41.5 -78.5 -72.5 -109.5s-68 -55.5 -111 -73.5
s-90.167 -27 -141.5 -27s-98.5 9 -141.5 27s-80.333 42.5 -112 73.5s-56.334 67.5 -74.001 109.5s-26.5 86.667 -26.5 134zM-1232 2487c-24.667 0 -45.334 -8 -62.001 -24s-25 -36.667 -25 -62c0 -22.667 8.33301 -42.167 25 -58.5s37.334 -24.5 62.001 -24.5
s45.334 8.16699 62.001 24.5s25 35.833 25 58.5c0 25.333 -8.33301 46 -25 62s-37.334 24 -62.001 24z" />
    <glyph glyph-name="maitaikhuleftthai" 
d="M-1349 2517c0 -42.667 7.83594 -76.834 23.5029 -102.5c15.667 -25.667 37.5 -38.5 65.5 -38.5c33.333 0 57 11 71 33s21 56 21 102c0 4.66699 -0.166992 9.16699 -0.5 13.5s-0.833008 8.83301 -1.5 13.5l19 -4l47.5 -10.5l61.5 -14l61.5 -13.5l47.5 -10
c12.667 -2.66699 19.334 -4 20.001 -4c-3.33301 -55.333 -12.333 -105.333 -27 -150s-35.334 -83 -62.001 -115s-59.167 -56.667 -97.5 -74s-82.833 -26 -133.5 -26c-30.667 0 -58.834 5.16699 -84.501 15.5s-48.167 24 -67.5 41s-35.333 36.333 -48 58
s-21.667 44.167 -27 67.5c-4.66699 -23.333 -14.167 -45.666 -28.5 -67c-14.333 -21.333 -32 -40.333 -53 -57s-44.667 -29.834 -71 -39.5c-26.333 -9.66699 -53.5 -14.5 -81.5 -14.5c-62.667 0 -117.334 11.667 -164.001 35s-85.334 54.333 -116.001 93
s-53.667 83.167 -69 133.5s-23 102.5 -23 156.5c0 58.667 8.66699 112.834 26 162.5c17.333 49.667 43 92.667 77 129s76 64.666 126 85c50 20.333 107.667 30.5 173 30.5h773v-264h-755c-24 0 -44.833 -4.5 -62.5 -13.5s-32.167 -20.667 -43.5 -35
s-19.833 -30.666 -25.5 -49c-5.66699 -18.333 -8.5 -36.833 -8.5 -55.5c0 -44 9.16699 -79.167 27.5 -105.5s43.833 -39.5 76.5 -39.5c28 0 51.333 10.833 70 32.5s28 55.167 28 100.5h235z" />
    <glyph glyph-name="maitaikhuleftthai" unicode="&#xf712;" 
d="M-1349 2517c0 -42.667 7.83594 -76.834 23.5029 -102.5c15.667 -25.667 37.5 -38.5 65.5 -38.5c33.333 0 57 11 71 33s21 56 21 102c0 4.66699 -0.166992 9.16699 -0.5 13.5s-0.833008 8.83301 -1.5 13.5l19 -4l47.5 -10.5l61.5 -14l61.5 -13.5l47.5 -10
c12.667 -2.66699 19.334 -4 20.001 -4c-3.33301 -55.333 -12.333 -105.333 -27 -150s-35.334 -83 -62.001 -115s-59.167 -56.667 -97.5 -74s-82.833 -26 -133.5 -26c-30.667 0 -58.834 5.16699 -84.501 15.5s-48.167 24 -67.5 41s-35.333 36.333 -48 58
s-21.667 44.167 -27 67.5c-4.66699 -23.333 -14.167 -45.666 -28.5 -67c-14.333 -21.333 -32 -40.333 -53 -57s-44.667 -29.834 -71 -39.5c-26.333 -9.66699 -53.5 -14.5 -81.5 -14.5c-62.667 0 -117.334 11.667 -164.001 35s-85.334 54.333 -116.001 93
s-53.667 83.167 -69 133.5s-23 102.5 -23 156.5c0 58.667 8.66699 112.834 26 162.5c17.333 49.667 43 92.667 77 129s76 64.666 126 85c50 20.333 107.667 30.5 173 30.5h773v-264h-755c-24 0 -44.833 -4.5 -62.5 -13.5s-32.167 -20.667 -43.5 -35
s-19.833 -30.666 -25.5 -49c-5.66699 -18.333 -8.5 -36.833 -8.5 -55.5c0 -44 9.16699 -79.167 27.5 -105.5s43.833 -39.5 76.5 -39.5c28 0 51.333 10.833 70 32.5s28 55.167 28 100.5h235z" />
    <glyph glyph-name="maiekupperleftthai" 
d="M-1282 3282h400v-396h-400v396z" />
    <glyph glyph-name="maiekupperleftthai" unicode="&#xf713;" 
d="M-1282 3282h400v-396h-400v396z" />
    <glyph glyph-name="maithoupperleftthai" 
d="M-771 3316v-222h451v-271h-860v214h-230v279h639z" />
    <glyph glyph-name="maithoupperleftthai" unicode="&#xf714;" 
d="M-771 3316v-222h451v-271h-860v214h-230v279h639z" />
    <glyph glyph-name="maitriupperleftthai" 
d="M-1483 2847c-1.33301 10.667 -2.49707 21.667 -3.49707 33s-1.5 24 -1.5 38c0 53.333 7.83301 102.333 23.5 147s38.667 83.167 69 115.5s67.666 57.5 111.999 75.5s95.166 27 152.499 27c27.333 0 53.833 -4.16699 79.5 -12.5s49.167 -20 70.5 -35
s39.666 -33 54.999 -54s26.666 -44.5 33.999 -70.5c6.66699 26 18 49.5 34 70.5s34.833 39 56.5 54s45.334 26.667 71.001 35s51.167 12.5 76.5 12.5c42.667 0 80.5 -5.5 113.5 -16.5s61.5 -26.5 85.5 -46.5s43.167 -44.167 57.5 -72.5s23.833 -59.833 28.5 -94.5
c6.66699 1.33301 14.167 2.66602 22.5 4c8.33301 1.33301 16.166 2.33301 23.499 3c8 0.666992 16.333 1 25 1h63v-221h-303c-14 0 -26.667 3.5 -38 10.5s-17 19.167 -17 36.5c0 38 -8.33301 66.5 -25 85.5s-39 28.5 -67 28.5c-20.667 0 -37.5 -5.33301 -50.5 -16
s-22.833 -24 -29.5 -40s-10.667 -33.167 -12 -51.5s-0.333008 -34.833 3 -49.5h-248c2.66699 15.333 3.33398 32.166 2.00098 50.5c-1.33301 18.333 -5.33301 35.333 -12 51s-16.167 28.834 -28.5 39.5c-12.333 10.667 -28.5 16 -48.5 16
c-18 0 -33.167 -4.16699 -45.5 -12.5s-22 -19.166 -29 -32.5c-7 -13.333 -11.5 -28.166 -13.5 -44.5c-2 -16.333 -1.66699 -32.166 1 -47.5z" />
    <glyph glyph-name="maitriupperleftthai" unicode="&#xf715;" 
d="M-1483 2847c-1.33301 10.667 -2.49707 21.667 -3.49707 33s-1.5 24 -1.5 38c0 53.333 7.83301 102.333 23.5 147s38.667 83.167 69 115.5s67.666 57.5 111.999 75.5s95.166 27 152.499 27c27.333 0 53.833 -4.16699 79.5 -12.5s49.167 -20 70.5 -35
s39.666 -33 54.999 -54s26.666 -44.5 33.999 -70.5c6.66699 26 18 49.5 34 70.5s34.833 39 56.5 54s45.334 26.667 71.001 35s51.167 12.5 76.5 12.5c42.667 0 80.5 -5.5 113.5 -16.5s61.5 -26.5 85.5 -46.5s43.167 -44.167 57.5 -72.5s23.833 -59.833 28.5 -94.5
c6.66699 1.33301 14.167 2.66602 22.5 4c8.33301 1.33301 16.166 2.33301 23.499 3c8 0.666992 16.333 1 25 1h63v-221h-303c-14 0 -26.667 3.5 -38 10.5s-17 19.167 -17 36.5c0 38 -8.33301 66.5 -25 85.5s-39 28.5 -67 28.5c-20.667 0 -37.5 -5.33301 -50.5 -16
s-22.833 -24 -29.5 -40s-10.667 -33.167 -12 -51.5s-0.333008 -34.833 3 -49.5h-248c2.66699 15.333 3.33398 32.166 2.00098 50.5c-1.33301 18.333 -5.33301 35.333 -12 51s-16.167 28.834 -28.5 39.5c-12.333 10.667 -28.5 16 -48.5 16
c-18 0 -33.167 -4.16699 -45.5 -12.5s-22 -19.166 -29 -32.5c-7 -13.333 -11.5 -28.166 -13.5 -44.5c-2 -16.333 -1.66699 -32.166 1 -47.5z" />
    <glyph glyph-name="maichattawaupperleftthai" 
d="M-1270 2987h-212v254h212v173h386v-173h212v-253h-212v-177h-386v176z" />
    <glyph glyph-name="maichattawaupperleftthai" unicode="&#xf716;" 
d="M-1270 2987h-212v254h212v173h386v-173h212v-253h-212v-177h-386v176z" />
    <glyph glyph-name="thanthakhatupperleftthai" 
d="M-944 2740v-202h-419v282c0 24.667 4.16699 48.5 12.5 71.5s20.666 43.167 36.999 60.5s36.333 31.166 60 41.5c23.667 10.333 50.834 15.5 81.501 15.5h580v-269h-352z" />
    <glyph glyph-name="thanthakhatupperleftthai" unicode="&#xf717;" 
d="M-944 2740v-202h-419v282c0 24.667 4.16699 48.5 12.5 71.5s20.666 43.167 36.999 60.5s36.333 31.166 60 41.5c23.667 10.333 50.834 15.5 81.501 15.5h580v-269h-352z" />
    <glyph glyph-name="uni00A0" unicode="&#xa0;" horiz-adv-x="870" 
 />
    <glyph glyph-name="cent" unicode="&#xa2;" horiz-adv-x="1638" 
d="M1541 1063v-532.003c-15.333 -16 -34 -32.833 -56 -50.5s-47.333 -35.167 -76 -52.5s-60.5 -33.833 -95.5 -49.5s-73.167 -28.834 -114.5 -39.501v-340h-540v359c-84.667 28 -162.167 66.5 -232.5 115.5s-130.666 107.333 -180.999 175s-89.5 143.334 -117.5 227.001
s-42 173.834 -42 270.501c0 96 14 185.833 42 269.5s67.167 159.334 117.5 227.001s110.666 126.334 180.999 176.001s147.833 88.5 232.5 116.5v384h540v-363c38.667 -10 74.167 -21.667 106.5 -35s61.666 -27.666 87.999 -42.999s50 -30.833 71 -46.5
s39.5 -30.5 55.5 -44.5v-520h-17c-22.667 42 -49.334 80 -80.001 114s-65.167 63 -103.5 87s-80.166 42.667 -125.499 56s-93.666 20 -144.999 20c-59.333 0 -115.666 -9.16699 -168.999 -27.5s-100.333 -44.5 -141 -78.5s-72.834 -75.333 -96.501 -124
s-35.5 -103.334 -35.5 -164.001c0 -62 10.667 -118.167 32 -168.5s51.166 -93.333 89.499 -129s84.333 -63 138 -82s112.834 -28.5 177.501 -28.5c56.667 0 109.5 8.5 158.5 25.5s93 40.167 132 69.5s73.167 63.333 102.5 102s53 80 71 124h33z" />
    <glyph glyph-name="sterling" unicode="&#xa3;" horiz-adv-x="1950" 
d="M328 1230c-16 29.333 -31.3359 59.3301 -46.0029 89.9971s-27.667 62.5 -39 95.5s-20.333 67.167 -27 102.5s-10 72.333 -10 111c0 102.667 19.667 197.667 59 285s94 163 164 227s153.5 114.167 250.5 150.5s203.5 54.5 319.5 54.5c120 0 228.333 -20.333 325 -61
s178.5 -97 245.5 -169s118 -157.333 153 -256s50.833 -206 47.5 -322h-536c4 57.333 0.5 108.333 -10.5 153s-27.5 82.167 -49.5 112.5s-49 53.5 -81 69.5s-67.333 24 -106 24s-73.667 -7.5 -105 -22.5s-58 -35 -80 -60s-38.833 -54 -50.5 -87s-17.5 -67.167 -17.5 -102.5
c0 -28 4.16699 -57.333 12.5 -88s19 -62.5 32 -95.5s27.667 -67.167 44 -102.5l48.5 -109h553v-372h-454c1.33301 -48 -3.33398 -96.5 -14.001 -145.5s-30 -98.5 -58 -148.5c48.667 -5.33301 94 -16.333 136 -33l125 -51.5c41.333 -17.667 84 -33.5 128 -47.5
s92.333 -21 145 -21c55.333 0 108.333 11.833 159 35.5s97.334 62.834 140.001 117.501l197 -366c-34.667 -32.667 -69.667 -62.834 -105 -90.501s-74.166 -51.5 -116.499 -71.5s-90 -35.667 -143 -47s-114.5 -17 -184.5 -17c-47.333 0 -91 4.16699 -131 12.5
s-78.5 18.833 -115.5 31.5s-73 26.5 -108 41.5s-70.667 28.833 -107 41.5s-74.5 23.167 -114.5 31.5s-83.333 12.5 -130 12.5c-37.333 0 -75.333 -4.16699 -114 -12.5s-76.667 -20.5 -114 -36.5s-73.166 -36 -107.499 -60s-65.5 -52 -93.5 -84l-226 358
c24.667 24.667 52 48.334 82 71.001s61.5 43.834 94.5 63.501s67 37.834 102 54.501s70.167 31.667 105.5 45c36 60 59.833 115.833 71.5 167.5s14.834 101.167 9.50098 148.5h-387v372h232z" />
    <glyph glyph-name="yen" unicode="&#xa5;" horiz-adv-x="1956" 
d="M712 761l0.000976562 205.998l-75 142h-475v372h281l-441 842h584l313 -691c8.66699 -18.667 17.667 -39.667 27 -63s17.666 -45.666 24.999 -66.999l26 -76l26 75c7.33301 21.333 15.5 43.833 24.5 67.5s18.167 44.834 27.5 63.501l318 691h579l-441 -842h299v-372h-494
l-74 -142v-206h568v-372h-568v-389h-530v389h-550v372h550z" />
    <glyph glyph-name="copyright" unicode="&#xa9;" horiz-adv-x="2505" 
d="M1251 2362c111.333 0 217.667 -14.332 319 -42.999s195.5 -69 282.5 -121s166 -114.333 237 -187s131.5 -153.334 181.5 -242.001s88.5 -183.834 115.5 -285.501s40.5 -207.5 40.5 -317.5c0 -115.333 -13.833 -225 -41.5 -329s-66.834 -200.333 -117.5 -289
c-50.667 -88.667 -111.5 -168.667 -182.5 -240s-150.167 -132 -237.5 -182s-181.333 -88.5 -282 -115.5s-206 -40.5 -316 -40.5s-215.5 13.333 -316.5 40s-195.167 65 -282.5 115s-166.666 110.667 -237.999 182s-132.333 151.333 -183 240s-89.834 185 -117.501 289
s-41.5 214 -41.5 330c0 110 13.667 216 41 318s66 197.333 116 286s110.5 169.334 181.5 242.001s150.167 135 237.5 187s181.833 92.167 283.5 120.5s208.5 42.5 320.5 42.5zM1260 286.001c78.667 0 154.331 9.83301 226.998 29.5s140.834 48 204.501 85
s121.667 81.667 174 134s97.166 111.166 134.499 176.499s66.333 136.5 87 213.5s31 158.5 31 244.5c0 76 -9.33301 150.667 -28 224s-45.5 142.666 -80.5 207.999s-77.667 125.5 -128 180.5s-107.166 102.5 -170.499 142.5s-132.833 71.167 -208.5 93.5
s-156.167 33.5 -241.5 33.5c-86 0 -166.833 -11 -242.5 -33s-145.334 -53 -209.001 -93s-120.667 -87.5 -171 -142.5s-93 -115.167 -128 -180.5s-61.833 -134.666 -80.5 -207.999s-28 -148.333 -28 -225c0 -86 10.333 -167.5 31 -244.5s49.834 -148.167 87.501 -213.5
s82.834 -124.166 135.501 -176.499s110.667 -97 174 -134s131.333 -65.333 204 -85s148 -29.5 226 -29.5zM1640 611.001c-19.333 -14 -41.0059 -28.001 -65.0059 -42.001s-50.667 -26.333 -80 -37s-61.166 -19.334 -95.499 -26.001s-71.5 -10 -111.5 -10
c-84.667 0 -165 16.333 -241 49s-142.667 78.5 -200 137.5s-102.833 129.333 -136.5 211s-50.5 171.5 -50.5 269.5c0 96.667 16.333 186 49 268s77.167 152.667 133.5 212s122.5 105.666 198.5 138.999s157.333 50 244 50c40.667 0 77.834 -3 111.501 -9
s64.5 -13.833 92.5 -23.5s53.333 -20.834 76 -33.501s43 -25.667 61 -39l-24 -446h-1c-15.333 22.667 -32.166 43.834 -50.499 63.501s-38.666 36.834 -60.999 51.501s-46.833 26.167 -73.5 34.5s-56 12.5 -88 12.5c-38 0 -72.5 -7.33301 -103.5 -22
s-57.667 -34.167 -80 -58.5s-39.666 -52.666 -51.999 -84.999s-18.5 -66.166 -18.5 -101.499c0 -36.667 6 -71.667 18 -105s29.167 -62.5 51.5 -87.5s49.333 -44.833 81 -59.5s66.834 -22 105.501 -22c35.333 0 67.5 5 96.5 15s55.167 23.5 78.5 40.5s44 37 62 60
s33.667 47.833 47 74.5z" />
    <glyph glyph-name="guillemotleft" unicode="&#xab;" horiz-adv-x="1808" 
d="M1001 432l-306 -268l-643 761l643 763l303 -271l-418 -492zM1753 432l-306 -268l-643 761l643 763l303 -271l-418 -492z" />
    <glyph glyph-name="registered" unicode="&#xae;" horiz-adv-x="1477" 
d="M738 1740c34 0 62.667 8.16797 86 24.501s35 43.166 35 80.499c0 30.667 -10.833 55 -32.5 73s-51.167 27 -88.5 27h-72v-205h72zM741 2416c96.667 0 186.333 -18.001 269 -54.001s154.334 -84.833 215.001 -146.5s108.167 -133.834 142.5 -216.5
c34.333 -82.667 51.5 -170.667 51.5 -264c0 -98 -17.333 -188.833 -52 -272.5s-82.5 -156 -143.5 -217s-133.333 -108.667 -217 -143s-174.5 -51.5 -272.5 -51.5c-96 0 -185.5 17.167 -268.5 51.5s-154.833 82 -215.5 143s-108.334 133.167 -143.001 216.5
s-52 174.333 -52 273c0 93.333 17.333 181.333 52 264s82.667 154.834 144 216.501s133.833 110.5 217.5 146.5s174.5 54 272.5 54zM666.999 1344l-184.002 0.000976562v758h277c43.333 0 82.166 -6.5 116.499 -19.5s63.333 -30.667 87 -53s41.834 -48.833 54.501 -79.5
s19 -63.334 19 -98.001c0 -36.667 -5.33301 -68.5 -16 -95.5s-24.667 -49.5 -42 -67.5s-37.166 -32.167 -59.499 -42.5s-45.166 -16.833 -68.499 -19.5l197 -283h-216l-165 271v-271zM734.997 1195c74 0 143.501 13.334 208.501 40.001s121.667 63.834 170 111.501
s86.5 104.334 114.5 170.001s42 137.5 42 215.5c0 69.333 -12.833 136.166 -38.5 200.499s-61.834 121.333 -108.501 170.999c-46.667 49.667 -102.834 89.334 -168.501 119c-65.667 29.667 -138.5 44.5 -218.5 44.5c-80.667 0 -154.167 -14.833 -220.5 -44.5
s-123 -69.334 -170 -119c-47 -49.667 -83.333 -106.667 -109 -171s-38.5 -131.166 -38.5 -200.499c0 -78 14.333 -149.833 43 -215.5s67.334 -122.334 116.001 -170.001s105.5 -84.834 170.5 -111.501s134.167 -40 207.5 -40z" />
    <glyph glyph-name="guillemotright" unicode="&#xbb;" horiz-adv-x="1768" 
d="M1208 925l-418 492l303 271l643 -763l-643 -761l-306 268zM456 925l-418 492l303 271l643 -763l-643 -761l-306 268z" />
    <glyph glyph-name="onequarter" unicode="&#xbc;" horiz-adv-x="2781" 
d="M828 -81l-234 135l1391 2408l233 -136zM39 1967l151 356h617v-1507h-418v1151h-350zM2733 548v-356h-172v-192h-418v192h-754v125l724 1223h448v-992h172zM2143 1001l-265 -453h265v453z" />
    <glyph glyph-name="onehalf" unicode="&#xbd;" horiz-adv-x="2781" 
d="M2313 355l340.001 0.00390625v-355h-1056l622 881c14 19.333 26.333 41.166 37 65.499s16 49.166 16 74.499c0 34.667 -10.667 62.334 -32 83.001s-47.333 31 -78 31c-16 0 -31.333 -3 -46 -9s-27.5 -15.5 -38.5 -28.5s-19.5 -29.833 -25.5 -50.5s-8.33301 -46 -7 -76
h-422c0 82 13 157.5 39 226.5s62.5 128.667 109.5 179s103.667 89.666 170 117.999s139.833 42.5 220.499 42.5c76 0 145.667 -12.833 209 -38.5s118 -61 164 -106s81.667 -97.833 107 -158.5s38 -125.667 38 -195c0 -52.667 -8.33301 -104.334 -25 -155.001
s-41.334 -99.334 -74 -146.001zM39.001 1967l151 356h617v-1507h-418v1151h-350zM748.001 -80.9961l-234 135l1391 2408l233 -136z" />
    <glyph glyph-name="threequarters" unicode="&#xbe;" horiz-adv-x="2781" 
d="M546 1284c0.666992 -17.333 4.16016 -32.668 10.4932 -46.001s14.666 -24.5 24.999 -33.5s22.166 -16 35.499 -21s27.333 -7.5 42 -7.5c18 0 34 3.5 48 10.5s25.833 16.667 35.5 29s16.834 26.5 21.501 42.5s7 33 7 51c0 22.667 -3.16699 44.167 -9.5 64.5
s-16.5 38.166 -30.5 53.499s-32.167 27.5 -54.5 36.5s-49.5 13.5 -81.5 13.5v248c24 0 44.833 3.5 62.5 10.5s32.334 16.333 44.001 28s20.334 24.834 26.001 39.501s8.5 29.667 8.5 45c0 36 -8.33301 63.833 -25 83.5s-38 29.5 -64 29.5
c-25.333 0 -45.666 -8.83301 -60.999 -26.5s-21.666 -38.834 -18.999 -63.501h-403c-2.66699 66.667 8.83301 128.667 34.5 186s60.834 107.166 105.501 149.499s96.5 75.5 155.5 99.5s120.5 36 184.5 36c67.333 0 129.333 -10.5 186 -31.5s105.5 -50.5 146.5 -88.5
s72.833 -83.667 95.5 -137s34 -112.333 34 -177c0 -33.333 -4.83301 -65.666 -14.5 -96.999s-23 -60 -40 -86s-37.167 -48.833 -60.5 -68.5s-49 -34.167 -77 -43.5c30.667 -9.33301 60.334 -24.166 89.001 -44.499s54 -45.833 76 -76.5s39.667 -66 53 -106
s20 -84.667 20 -134c0 -62.667 -11.833 -122.667 -35.5 -180s-57.667 -108 -102 -152s-98 -79 -161 -105s-133.833 -39 -212.5 -39c-70 0 -136.167 11.667 -198.5 35s-116.666 56.833 -162.999 100.5s-82.666 96.834 -108.999 159.501s-38.833 133.667 -37.5 213h413z
M2732.99 547.998v-356h-172v-192h-418v192h-754v125l724 1223h448v-992h172zM2142.99 1001l-265 -453h265v453zM907.993 -81.002l-234 135l1391 2408l233 -136z" />
    <glyph glyph-name="multiply" unicode="&#xd7;" horiz-adv-x="1916" 
d="M969 1188l606 608l322 -325l-606 -604l595 -597l-300 -343l-617 617l-605 -604l-321 321l604 606l-594 591l304 342z" />
    <glyph glyph-name="divide" unicode="&#xf7;" horiz-adv-x="1923" 
d="M1810 1058v-409h-1681v409h1681zM962 512c36 0 69.6689 -6.66895 101.002 -20.002s58.833 -31.5 82.5 -54.5s42.334 -50.333 56.001 -82s20.5 -65.834 20.5 -102.501c0 -35.333 -6 -68.666 -18 -99.999s-29.167 -58.666 -51.5 -81.999s-49.5 -41.833 -81.5 -55.5
s-68.333 -20.5 -109 -20.5c-35.333 0 -68.5 6.66699 -99.5 20s-58 31.5 -81 54.5s-41.333 50.167 -55 81.5s-20.834 65.333 -21.501 102s5.83301 70.834 19.5 102.501s32.167 59 55.5 82s50.666 41.167 81.999 54.5s64.666 20 99.999 20zM962.002 1712
c36 0 69.6689 -6.66895 101.002 -20.002s58.833 -31.5 82.5 -54.5s42.334 -50.333 56.001 -82s20.5 -65.834 20.5 -102.501c0 -35.333 -6 -68.666 -18 -99.999s-29.167 -58.666 -51.5 -81.999s-49.5 -41.833 -81.5 -55.5s-68.333 -20.5 -109 -20.5
c-35.333 0 -68.5 6.66699 -99.5 20s-58 31.5 -81 54.5s-41.333 50.167 -55 81.5s-20.834 65.333 -21.501 102s5.83301 70.834 19.5 102.501s32.167 59 55.5 82s50.666 41.167 81.999 54.5s64.666 20 99.999 20z" />
    <glyph glyph-name="kokaithai" unicode="&#xe01;" horiz-adv-x="1882" 
d="M214 0v1254c0 87.333 18 169.5 54 246.5s86.167 144.333 150.5 202s141.166 103.167 230.499 136.5s187 50 293 50c111.333 0 211.833 -16.833 301.5 -50.5s165.834 -79.334 228.501 -137.001s110.834 -125.167 144.501 -202.5s50.5 -160 50.5 -248v-1251h-541v1242
c0 68.667 -14.833 122.5 -44.5 161.5s-75.5 58.5 -137.5 58.5c-60.667 0 -107.334 -19.5 -140.001 -58.5s-49 -93.5 -49 -163.5v-1240h-541z" />
    <glyph glyph-name="khokhaithai" unicode="&#xe02;" horiz-adv-x="1793" 
d="M862 1868l-0.000976562 -485.999c0 -30.667 -2.16699 -57.834 -6.5 -81.501s-15.833 -47.834 -34.5 -72.501l-70 -95c-13.333 -17.333 -22.5 -37 -27.5 -59s-7.5 -44.667 -7.5 -68v-454c0 -25.333 4.5 -47.833 13.5 -67.5s21 -36.167 36 -49.5s32.5 -23.5 52.5 -30.5
s41.333 -10.5 64 -10.5c20.667 0 40.334 3.5 59.001 10.5s35.167 17.167 49.5 30.5s25.833 29.833 34.5 49.5s13 42.167 13 67.5v1316h540v-1296c0 -83.333 -17.333 -161.166 -52 -233.499s-83 -135.166 -145 -188.499s-135.5 -95.5 -220.5 -126.5
s-177.833 -46.5 -278.5 -46.5c-99.333 0 -192.166 15.5 -278.499 46.5s-161.333 73.333 -225 127s-113.667 116.667 -150 189s-54.5 149.833 -54.5 232.5v464c0 23.333 2.16699 44.666 6.5 63.999s10.166 37 17.499 53s15.333 30.667 24 44s17.667 26 27 38l79 104
c7.33301 10.667 13.833 22.667 19.5 36s8.5 29 8.5 47v446h506z" />
    <glyph glyph-name="khokhuatthai" unicode="&#xe03;" horiz-adv-x="1847" 
d="M916 1868l-0.00390625 -486.001c0 -30.667 -2.16699 -57.834 -6.5 -81.501s-15.833 -47.834 -34.5 -72.501l-70 -95c-13.333 -17.333 -22.5 -37 -27.5 -59s-7.5 -44.667 -7.5 -68v-454c0 -25.333 4.5 -47.833 13.5 -67.5s21 -36.167 36 -49.5s32.5 -23.5 52.5 -30.5
s41.333 -10.5 64 -10.5c20.667 0 40.334 3.5 59.001 10.5s35.167 17.167 49.5 30.5s25.833 29.833 34.5 49.5s13 42.167 13 67.5v1316h540v-1296c0 -83.333 -17.333 -161.166 -52 -233.499s-83 -135.166 -145 -188.499s-135.5 -95.5 -220.5 -126.5
s-177.833 -46.5 -278.5 -46.5c-99.333 0 -192.166 15.5 -278.499 46.5s-161.333 73.333 -225 127s-113.667 116.667 -150 189s-54.5 149.833 -54.5 232.5v368c0 34.667 4.83301 66.834 14.5 96.501s25.167 56.167 46.5 79.5c10 11.333 17.667 22 23 32s9 19.667 11 29
s2.83301 18.5 2.5 27.5s-1.16602 18.167 -2.49902 27.5c-2.66699 20 -12.5 43.5 -29.5 70.5s-38.833 52.833 -65.5 77.5s-56.667 45.667 -90 63s-67.666 26 -102.999 26l133 428c54.667 -4 101.834 -14.333 141.501 -31s73 -38 100 -64s48.167 -55.667 63.5 -89
s26.666 -69 33.999 -107h5l4 262h400z" />
    <glyph glyph-name="khokhwaithai" unicode="&#xe04;" horiz-adv-x="1957" 
d="M214 1245c0 58 9.00098 114.331 27.001 168.998s43.333 105.834 76 153.501s72.167 91.334 118.5 131.001s97.833 73.667 154.5 102s117.834 50.333 183.501 66s134.167 23.5 205.5 23.5c74.667 0 145.5 -8 212.5 -24s128.667 -38.333 185 -67
s107.166 -62.834 152.499 -102.501s83.666 -83.667 114.999 -132s55.5 -100 72.5 -155s25.5 -111.833 25.5 -170.5v-1239h-542v1228c0 34 -4.66699 65.333 -14 94s-23.166 53.334 -41.499 74.001s-41.166 36.834 -68.499 48.501s-59 17.5 -95 17.5
c-34 0 -64.833 -5.83301 -92.5 -17.5s-51.334 -27.834 -71.001 -48.501s-34.834 -45.5 -45.501 -74.5s-16 -60.5 -16 -94.5v-245h241v-416h-241v-567h-542v1246z" />
    <glyph glyph-name="khokhonthai" unicode="&#xe05;" horiz-adv-x="1957" 
d="M756 0l-541.996 0.00195312v1275c0 76.667 10.333 148.167 31 214.5s51.667 126 93 179s93.166 98.333 155.499 136s135.5 66.167 219.5 85.5c6 -30.667 17 -58.667 33 -84s35.667 -47 59 -65s49.833 -32 79.5 -42s61.167 -15 94.5 -15s64.666 5 93.999 15
s55.666 24 78.999 42s43 39.667 59 65s27 53.333 33 84c83.333 -19.333 156.166 -47.833 218.499 -85.5s114.166 -83 155.499 -136s72.333 -112.667 93 -179s31 -137.833 31 -214.5v-1275h-542v1228c0 31.333 -4.5 55.666 -13.5 72.999s-21.167 31.666 -36.5 42.999
c-8 -8.66699 -18.333 -16.667 -31 -24s-26.667 -13.666 -42 -18.999s-31.5 -9.5 -48.5 -12.5s-33.5 -4.5 -49.5 -4.5s-32.333 1.5 -49 4.5s-32.667 7.16699 -48 12.5s-29.666 11.666 -42.999 18.999s-24.333 15.333 -33 24c-14.667 -11.333 -26.667 -25.5 -36 -42.5
s-14 -41.5 -14 -73.5v-246h241v-416h-241v-566z" />
    <glyph glyph-name="khorakhangthai" unicode="&#xe06;" horiz-adv-x="2064" 
d="M1133 -21c-72 0 -136.831 7.33398 -194.498 22.001s-109.334 35.5 -155.001 62.5s-85.667 59.333 -120 97s-63.833 79.834 -88.5 126.501l-29 -287h-302v874h151v231c0 44 -7.5 89.833 -22.5 137.5s-37.5 92.667 -67.5 135s-67.833 79.166 -113.5 110.499
s-98.834 52.666 -159.501 63.999l145 350c62.667 -2.66699 119.167 -15.834 169.5 -39.501s94.166 -53.5 131.499 -89.5s68.333 -75.5 93 -118.5s42.667 -85.167 54 -126.5c6 46.667 18.833 90.834 38.5 132.501s44 78.834 73 111.501s61.333 60.167 97 82.5
s71.834 38.166 108.501 47.499l217 -311c-42 -19.333 -77.167 -44 -105.5 -74s-51.166 -63 -68.499 -99s-29.833 -73.5 -37.5 -112.5s-11.5 -77.5 -11.5 -115.5v-564c0 -34 4.5 -64.667 13.5 -92s21.667 -50.5 38 -69.5s35.666 -33.5 57.999 -43.5s46.5 -15 72.5 -15
c60.667 0 107.5 19.5 140.5 58.5s49.5 93.5 49.5 163.5v1240h541v-1254c0 -87.333 -17.5 -169.5 -52.5 -246.5s-84 -144.333 -147 -202s-138.5 -103.167 -226.5 -136.5s-184.667 -50 -290 -50z" />
    <glyph glyph-name="ngonguthai" unicode="&#xe07;" horiz-adv-x="1519" 
d="M329 594c14.667 -31.333 31.668 -58.167 51.001 -80.5s39.666 -40.666 60.999 -54.999s42.666 -24.833 63.999 -31.5s41 -10 59 -10c26.667 0 52 3.83301 76 11.5s45.167 20.834 63.5 39.501s32.833 43 43.5 73s16 67.667 16 113v812h-351v403h892v-1247
c0 -94.667 -17.5 -181.334 -52.5 -260.001s-84.167 -146.334 -147.5 -203.001s-139 -100.834 -227 -132.501s-185 -47.5 -291 -47.5c-65.333 0 -127.166 7.83301 -185.499 23.5s-112.5 37.834 -162.5 66.501s-95.333 63 -136 103s-76 84.333 -106 133l333 289v0z" />
    <glyph glyph-name="chochanthai" unicode="&#xe08;" horiz-adv-x="1652" 
d="M1437 0l-540.997 -0.000976562v567h-418v416h418v255c0 39.333 -4.66699 73.166 -14 101.499s-22.166 51.5 -38.499 69.5s-36 31.333 -59 40s-48.5 13 -76.5 13c-20.667 0 -42.334 -3.33301 -65.001 -10s-43.334 -18.334 -62.001 -35.001s-34.167 -39 -46.5 -67
s-18.5 -63.333 -18.5 -106l-527 66c14 90.667 42 171.834 84 243.501s94.5 132.334 157.5 182.001s135.167 87.5 216.5 113.5s168.333 39 261 39c106 0 203.667 -15.333 293 -46s166.166 -74.167 230.499 -130.5s114.666 -124.166 150.999 -203.499s54.5 -167.333 54.5 -264
v-1244z" />
    <glyph glyph-name="chochingthai" unicode="&#xe09;" horiz-adv-x="1862" 
d="M1106 1277c0 68.667 -14.8301 119.501 -44.4971 152.501s-68.834 49.5 -117.501 49.5h-796l118 389h799c104.667 0 194 -13.333 268 -40s134.167 -64.667 180.5 -114s80.166 -109.333 101.499 -180s32 -150 32 -238v-422h111v-874h-262l-29 287
c-24.667 -46.667 -54.167 -88.834 -88.5 -126.501s-74.333 -70 -120 -97s-97.334 -47.833 -155.001 -62.5s-122.5 -22 -194.5 -22c-105.333 0 -201.833 16.667 -289.5 50s-163 78.833 -226 136.5s-112 125 -147 202s-52.5 159.167 -52.5 246.5v606h541v-592
c0 -70 16.333 -124.5 49 -163.5s79.334 -58.5 140.001 -58.5c26 0 50.167 5 72.5 15s41.666 24.5 57.999 43.5s29 42.167 38 69.5s13.5 58 13.5 92v651z" />
    <glyph glyph-name="chochangthai" unicode="&#xe0a;" horiz-adv-x="1793" 
d="M1038 1028c0 36.667 -4.50098 71.168 -13.501 103.501s-22.5 60.5 -40.5 84.5s-40.167 43.167 -66.5 57.5s-56.5 22.166 -90.5 23.499c-6 -36 -15.667 -65.833 -29 -89.5s-27.666 -44.167 -42.999 -61.5c-12.667 -13.333 -22.334 -28.333 -29.001 -45
s-10 -41.667 -10 -75v-474c0 -25.333 4.5 -47.833 13.5 -67.5s21 -36.167 36 -49.5s32.5 -23.5 52.5 -30.5s41.333 -10.5 64 -10.5c20.667 0 40.334 3.5 59.001 10.5s35.167 17.167 49.5 30.5s25.833 29.833 34.5 49.5s13 42.167 13 67.5v476zM836.999 1868v-327.007
c31.333 -1.33301 61.5 3.33398 90.5 14.001s54.667 26.334 77 47.001s40.166 45.667 53.499 75s20 62 20 98v183h500v-175c0 -49.333 -6.5 -94.666 -19.5 -135.999s-30.833 -77.666 -53.5 -108.999s-49.5 -57.666 -80.5 -78.999s-64.5 -36.666 -100.5 -45.999
c36 -8 69.5 -21.667 100.5 -41s57.833 -44.5 80.5 -75.5s40.5 -67.5 53.5 -109.5s19.5 -89.333 19.5 -142v-473c0 -83.333 -17.333 -161.166 -52 -233.499s-83 -135.166 -145 -188.499s-135.5 -95.5 -220.5 -126.5s-177.833 -46.5 -278.5 -46.5
c-99.333 0 -192.166 15.5 -278.499 46.5s-161.333 73.333 -225 127s-113.667 116.667 -150 189s-54.5 149.833 -54.5 232.5v464c0 23.333 2.33301 44.666 7 63.999s10.5 37 17.5 53s15 30.667 24 44l26.5 38l79 104c7.33301 10.667 13.833 22.667 19.5 36s8.5 29 8.5 47v446
h481z" />
    <glyph glyph-name="sosothai" unicode="&#xe0b;" horiz-adv-x="1847" 
d="M1132 1958l499.997 -0.00976562v-175c0 -49.333 -6.5 -94.666 -19.5 -135.999s-30.833 -77.666 -53.5 -108.999s-49.5 -57.666 -80.5 -78.999s-64.5 -36.666 -100.5 -45.999c36 -8 69.5 -21.667 100.5 -41s57.833 -44.5 80.5 -75.5s40.5 -67.5 53.5 -109.5
s19.5 -89.333 19.5 -142v-473c0 -83.333 -17.333 -161.166 -52 -233.499s-83 -135.166 -145 -188.499s-135.5 -95.5 -220.5 -126.5s-177.833 -46.5 -278.5 -46.5c-99.333 0 -192.166 15.5 -278.499 46.5s-161.333 73.333 -225 127s-113.667 116.667 -150 189
s-54.5 149.833 -54.5 232.5v368c0 34.667 4.83301 66.834 14.5 96.501s25.167 56.167 46.5 79.5c10 11.333 17.667 22 23 32s9 19.667 11 29s2.83301 18.5 2.5 27.5s-1.16602 18.167 -2.49902 27.5c-2.66699 20 -12.5 43.5 -29.5 70.5s-38.833 52.833 -65.5 77.5
s-56.667 45.667 -90 63s-67.666 26 -102.999 26l133 428c40.667 -3.33301 79.834 -13.166 117.501 -29.499s71.667 -37.5 102 -63.5s56 -56 77 -90s35.167 -70 42.5 -108h5l4 262h375v-327c31.333 -1.33301 61.5 3.33398 90.5 14.001s54.667 26.334 77 47.001
s40.166 45.667 53.499 75s20 62 20 98v183zM1092 1027.99c0 36.667 -4.50098 71.168 -13.501 103.501s-22.5 60.5 -40.5 84.5s-40.167 43.167 -66.5 57.5s-56.5 22.166 -90.5 23.499c-6 -36 -15.667 -65.833 -29 -89.5s-27.666 -44.167 -42.999 -61.5
c-12.667 -13.333 -22.334 -28.333 -29.001 -45s-10 -41.667 -10 -75v-474c0 -25.333 4.5 -47.833 13.5 -67.5s21 -36.167 36 -49.5s32.5 -23.5 52.5 -30.5s41.333 -10.5 64 -10.5c20.667 0 40.334 3.5 59.001 10.5s35.167 17.167 49.5 30.5s25.833 29.833 34.5 49.5
s13 42.167 13 67.5v476z" />
    <glyph glyph-name="chochoethai" unicode="&#xe0c;" horiz-adv-x="2778" 
d="M1871 -21c-72 0 -136.833 7.33496 -194.5 22.002s-109.334 35.5 -155.001 62.5s-85.667 59.333 -120 97s-63.833 79.834 -88.5 126.501l-29 -287h-262v874h111l1 361c0 42.667 -5.5 78.667 -16.5 108s-25.5 52.666 -43.5 69.999s-38.667 29.833 -62 37.5
s-47.666 11.5 -72.999 11.5c-20 0 -41 -3.66699 -63 -11s-42 -19.666 -60 -36.999s-33 -40.833 -45 -70.5s-18 -66.5 -18 -110.5v-1233h-540v1245c0 63.333 9 123.166 27 179.499s43.167 108.333 75.5 156s71 90.667 116 129s94.5 70.666 148.5 96.999
s111.667 46.666 173 60.999s124.333 21.5 189 21.5c111.333 0 212.166 -16 302.499 -48s167.5 -76.667 231.5 -134s113.167 -125.833 147.5 -205.5s51.5 -167.167 51.5 -262.5l-1 -624c0 -68.667 14.167 -120.667 42.5 -156s70.5 -53 126.5 -53
c54.667 0 98.167 17.667 130.5 53s48.5 88 48.5 158v1251h541l-1 -1254c0 -92.667 -16.167 -177.834 -48.5 -255.501s-78.5 -144.667 -138.5 -201s-132.667 -100.166 -218 -131.499s-180.666 -47 -285.999 -47z" />
    <glyph glyph-name="yoyingthai" unicode="&#xe0d;" horiz-adv-x="2778" 
d="M2563 11c0 -85.333 -15.834 -166.997 -47.501 -244.997s-79.167 -146.667 -142.5 -206s-142.5 -106.5 -237.5 -141.5s-205.833 -52.5 -332.5 -52.5c-66 0 -128.333 4.66699 -187 14s-113.667 24.333 -165 45s-99.333 47.5 -144 80.5s-86.334 73.167 -125.001 120.5
l268 286c22 -36 47.5 -65.833 76.5 -89.5s59.167 -42.5 90.5 -56.5s62.166 -23.833 92.499 -29.5s58.166 -8.5 83.499 -8.5c32.667 0 64.334 4.83301 95.001 14.5s57.834 23 81.501 40s42.5 36.833 56.5 59.5s21 47 21 73v20v32.5c0 11.667 0.5 23 1.5 34s2.5 19.5 4.5 25.5
c-13.333 -6 -30.833 -12 -52.5 -18s-44.5 -11.167 -68.5 -15.5s-48 -7.83301 -72 -10.5s-45 -4 -63 -4c-105.333 0 -199.166 15.667 -281.499 47s-151.833 75.166 -208.5 131.499s-99.667 123.333 -129 201s-44 162.834 -44 255.501v621c0 42.667 -5.5 78.667 -16.5 108
s-25.5 52.666 -43.5 69.999s-38.667 29.833 -62 37.5s-47.666 11.5 -72.999 11.5c-20 0 -41 -3.66699 -63 -11s-42 -19.666 -60 -36.999s-33 -40.833 -45 -70.5s-18 -66.5 -18 -110.5v-1233h-540v1245c0 63.333 9 123.166 27 179.499s43.167 108.333 75.5 156
s71 90.667 116 129s94.5 70.666 148.5 96.999s111.667 46.666 173 60.999s124.333 21.5 189 21.5c111.333 0 212.166 -16 302.499 -48s167.333 -76.667 231 -134s112.834 -125.833 147.501 -205.5s52 -167.167 52 -262.5l-1 -622c0 -70 16.167 -122.667 48.5 -158
s75.833 -53 130.5 -53c56 0 98.167 17.667 126.5 53s42.5 87.333 42.5 156v1253h541v-1857z" />
    <glyph glyph-name="dochadathai" unicode="&#xe0e;" horiz-adv-x="1882" 
d="M149 -549l141.997 305.999c20 0 45.667 -0.166992 77 -0.5s65.833 -0.666016 103.5 -0.999023s77.334 -0.833008 119.001 -1.5s83 -1.16699 124 -1.5s80.333 -0.833008 118 -1.5s71.334 -1.16699 101.001 -1.5s54 -0.666016 73 -0.999023s30.167 -0.5 33.5 -0.5
c28.667 0 50.667 10.5 66 31.5s23 47.5 23 79.5c0 4 -0.166992 12.333 -0.5 25s-0.666016 26.5 -0.999023 41.5l-1 44c-0.333008 14.333 -0.5 24.5 -0.5 30.5v1242c0 68.667 -14.833 122.5 -44.5 161.5s-75.5 58.5 -137.5 58.5c-60.667 0 -107.334 -19.5 -140.001 -58.5
s-49 -93.5 -49 -163.5v-1240h-541v1254c0 87.333 18 169.5 54 246.5s86.167 144.333 150.5 202s141.166 103.167 230.499 136.5s187 50 293 50c111.333 0 211.833 -16.833 301.5 -50.5s165.834 -79.334 228.501 -137.001s110.834 -125.167 144.501 -202.5
s50.5 -160 50.5 -248v-1291c0 -78 -13.167 -149.5 -39.5 -214.5s-63 -120.833 -110 -167.5s-103 -82.667 -168 -108s-136.167 -37.333 -213.5 -36z" />
    <glyph glyph-name="topatakthai" unicode="&#xe0f;" horiz-adv-x="1882" 
d="M1667 -40c0 -78 -13.1699 -149.331 -39.5029 -213.998s-63 -120 -110 -166s-103 -81.833 -168 -107.5s-136.167 -38.5 -213.5 -38.5c-37.333 0 -73.166 3.33301 -107.499 10s-66.333 16.167 -96 28.5s-56.334 26.833 -80.001 43.5s-43.5 35 -59.5 55
c-28.667 -38.667 -65.167 -69.334 -109.5 -92.001s-101.166 -34 -170.499 -34c-47.333 0 -91.166 7.66699 -131.499 23s-76.5 35.333 -108.5 60s-59.5 52.667 -82.5 84s-40.5 63.333 -52.5 96l287 120c13.333 -33.333 28.666 -55 45.999 -65s34.666 -15 51.999 -15
c12 0 23.5 1.5 34.5 4.5s21 8.5 30 16.5s16.333 19.167 22 33.5s9.16699 32.833 10.5 55.5h320c0.666992 -21.333 3.83398 -39 9.50098 -53s13.167 -25.167 22.5 -33.5s19.833 -14.333 31.5 -18s23.834 -5.5 36.501 -5.5c28.667 0 50.667 10.5 66 31.5s23 47.5 23 79.5
c0 4 -0.166992 12.333 -0.5 25s-0.666016 26.5 -0.999023 41.5l-1 44c-0.333008 14.333 -0.5 24.5 -0.5 30.5v1242c0 68.667 -14.833 122.5 -44.5 161.5s-75.5 58.5 -137.5 58.5c-60.667 0 -107.334 -19.5 -140.001 -58.5s-49 -93.5 -49 -163.5v-1240h-541v1254
c0 87.333 18 169.5 54 246.5s86.167 144.333 150.5 202s141.166 103.167 230.499 136.5s187 50 293 50c111.333 0 211.833 -16.833 301.5 -50.5s165.834 -79.334 228.501 -137.001s110.834 -125.167 144.501 -202.5s50.5 -160 50.5 -248v-1291z" />
    <glyph glyph-name="thothanthai" unicode="&#xe10;" horiz-adv-x="1652" 
d="M945 -102l488.997 0.000976562v-57c-6 -56.667 -21.667 -108.334 -47 -155.001s-59.166 -86.667 -101.499 -120s-92.5 -59.166 -150.5 -77.499s-123 -27.5 -195 -27.5c-45.333 0 -88.666 5.33301 -129.999 16s-78.666 25 -111.999 43s-61.666 38.833 -84.999 62.5
s-39.333 48.5 -48 74.5c-10 -26 -22.667 -50.167 -38 -72.5s-34.833 -41.833 -58.5 -58.5s-52.167 -29.667 -85.5 -39s-72.666 -13.666 -117.999 -12.999l-195 5l107 267l26 -3c24.667 -1.33301 45.667 -0.833008 63 1.5s31.833 8.16602 43.5 17.499
s21.5 23.166 29.5 41.499s15.667 43.166 23 74.499c72 0.666992 136.333 1.33398 193 2.00098c24 0 47.667 0.166992 71 0.5s44.166 0.5 62.499 0.5s33.166 0.166992 44.499 0.5s17.333 0.5 18 0.5c1.33301 -36 10.833 -63.833 28.5 -83.5s42.5 -29.5 74.5 -29.5
c24 0 45.167 8 63.5 24s27.5 37 27.5 63v42zM667.997 1874c24.667 0 50.999 -1.83105 78.999 -5.49805s54.833 -8.5 80.5 -14.5s48.834 -13.167 69.501 -21.5s36 -16.833 46 -25.5l1 1c-2 16.667 -3.5 32.5 -4.5 47.5s-1.5 30.833 -1.5 47.5v72h499v-1975h-541v567h-418v416
h418v255c0 39.333 -4.66699 73.166 -14 101.499s-22.166 51.5 -38.499 69.5s-36 31.333 -59 40s-48.5 13 -76.5 13c-20.667 0 -42.334 -3.33301 -65.001 -10s-43.334 -18.334 -62.001 -35.001s-34.167 -39 -46.5 -67s-18.5 -63.333 -18.5 -106l-527 66
c12.667 93.333 40.334 175.333 83.001 246s95 129.5 157 176.5s130.833 82.333 206.5 106s153.167 35.5 232.5 35.5z" />
    <glyph glyph-name="thonangmonthothai" unicode="&#xe11;" horiz-adv-x="1950" 
d="M793 1156l0.00390625 -1156h-541v960c0 52 -5.5 104.667 -16.5 158s-28.167 103 -51.5 149s-53 86 -89 120s-78.667 57 -128 69l94 446c41.333 -8.66699 78.833 -23.334 112.5 -44.001s63.167 -44.834 88.5 -72.501s45.833 -57 61.5 -88s26.167 -61.5 31.5 -91.5h5l4 262
h390v-156c0 -15.333 -1 -35 -3 -59s-5.66699 -50.333 -11 -79l19 21l25.5 24.5c10.333 9.66699 23.166 20.834 38.499 33.501l137 112c49.333 40 102.666 70.167 159.999 90.5s114.666 31 171.999 32s112.666 -7.83301 165.999 -26.5s100.5 -46.667 141.5 -84
s73.833 -83.833 98.5 -139.5s37 -120.5 37 -194.5v-1443h-540v1260c0 32 -6.16699 57.5 -18.5 76.5s-28 31.5 -47 37.5s-40 5.66699 -63 -1s-45.167 -19.334 -66.5 -38.001z" />
    <glyph glyph-name="thophuthaothai" unicode="&#xe12;" horiz-adv-x="2777" 
d="M1924 -21c-72 0 -136.829 7.33398 -194.496 22.001s-109.334 35.5 -155.001 62.5s-85.667 59.333 -120 97s-63.833 79.834 -88.5 126.501l-29 -287h-262v874h110v354c0 31.333 -4.5 55.666 -13.5 72.999s-21.167 31.666 -36.5 42.999c-8 -8.66699 -18 -16.667 -30 -24
s-25.167 -13.666 -39.5 -18.999s-29.666 -9.5 -45.999 -12.5s-32.5 -4.5 -48.5 -4.5c-32 0 -63 5.66699 -93 17s-54 25.666 -72 42.999c-14.667 -11.333 -26.667 -25.5 -36 -42.5s-14 -41.5 -14 -73.5v-1228h-542v1275c0 76.667 10.333 148.167 31 214.5s51.667 126 93 179
s93.166 98.333 155.499 136s135.5 66.167 219.5 85.5c6 -30.667 16.5 -58.667 31.5 -84s33.667 -47 56 -65s48 -32 77 -42s60.167 -15 93.5 -15s64.333 5 93 15s54.167 24 76.5 42s41.166 39.667 56.499 65s26 53.333 32 84c83.333 -19.333 156.166 -47.833 218.499 -85.5
s114.166 -83 155.499 -136s72.333 -112.667 93 -179s31 -137.833 31 -214.5v-700c0 -25.333 4 -48.333 12 -69s19 -38.5 33 -53.5s30.5 -26.5 49.5 -34.5s39.5 -12 61.5 -12c42.667 0 76.5 13.833 101.5 41.5s37.5 70.5 37.5 128.5v1293h540v-1255
c0 -92.667 -13.5 -177.834 -40.5 -255.501s-67.167 -144.667 -120.5 -201s-119.833 -100.166 -199.5 -131.499s-172.167 -47 -277.5 -47z" />
    <glyph glyph-name="nonenthai" unicode="&#xe13;" horiz-adv-x="2778" 
d="M1825 -21c-105.333 0 -200.668 15.6709 -286.001 47.0039s-158 75.166 -218 131.499s-106.167 123.333 -138.5 201s-48.5 162.834 -48.5 255.501v621c0 42.667 -5.5 78.667 -16.5 108s-25.5 52.666 -43.5 69.999s-38.667 29.833 -62 37.5s-47.666 11.5 -72.999 11.5
c-20 0 -41 -3.66699 -63 -11s-42 -19.666 -60 -36.999s-33 -40.833 -45 -70.5s-18 -66.5 -18 -110.5v-1233h-540v1245c0 63.333 9 123.166 27 179.499s43.167 108.333 75.5 156s71 90.667 116 129s94.5 70.666 148.5 96.999s111.667 46.666 173 60.999
s124.333 21.5 189 21.5c111.333 0 212.166 -16 302.499 -48s167.333 -76.667 231 -134s112.834 -125.833 147.501 -205.5s52 -167.167 52 -262.5l-1 -622c0 -70 16.167 -122.667 48.5 -158s75.833 -53 130.5 -53c56 0 98.167 17.667 126.5 53s42.5 87.333 42.5 156v1253h541
v-994h111v-874h-262l-29 287c-24.667 -46.667 -54.167 -88.834 -88.5 -126.501s-74.333 -70 -120 -97s-97.334 -47.833 -155 -62.5c-57.667 -14.667 -122.5 -22 -194.5 -22z" />
    <glyph glyph-name="dodekthai" unicode="&#xe14;" horiz-adv-x="1942" 
d="M1185 1228c0 34 -5.16309 65.333 -15.4961 94s-25.333 53.334 -45 74.001s-43.667 36.834 -72 48.501s-60.5 17.5 -96.5 17.5c-34 0 -65.333 -5.83301 -94 -17.5s-53.5 -27.834 -74.5 -48.501s-37.333 -45.5 -49 -74.5s-17.5 -60.5 -17.5 -94.5v-711
c0 -35.333 7.83301 -61 23.5 -77s34.167 -24 55.5 -24h145v-415h-220c-86.667 0 -163.834 11.833 -231.501 35.5s-124.834 58.167 -171.501 103.5s-82.167 101.166 -106.5 167.499s-36.5 142.166 -36.5 227.499v711c0 58 9.16699 114.333 27.5 169
s44.333 105.834 78 153.501s74 91.334 121 131.001s99.333 73.667 157 102s119.5 50.333 185.5 66s134.667 23.5 206 23.5c74.667 0 145.667 -8 213 -24s129.666 -38.333 186.999 -67s109 -62.834 155 -102.501s85.167 -83.667 117.5 -132s57.166 -100 74.499 -155
s26 -111.833 26 -170.5v-1239h-542v1228z" />
    <glyph glyph-name="totaothai" unicode="&#xe15;" horiz-adv-x="1942" 
d="M721 516c0 -35.333 7.83887 -60.9961 23.5059 -76.9961s34.167 -24 55.5 -24h146v-415h-221c-86.667 0 -163.834 11.833 -231.501 35.5s-124.834 58.167 -171.501 103.5s-82.167 101.166 -106.5 167.499s-36.5 142.166 -36.5 227.499v741
c0 76.667 10.167 148.167 30.5 214.5s51.333 126 93 179s93.667 98.333 156 136s135.5 66.167 219.5 85.5c6 -30.667 17.5 -58.667 34.5 -84s37.833 -47 62.5 -65s52.334 -32 83.001 -42s62.667 -15 96 -15s65.166 5 95.499 15s57.833 24 82.5 42s45.5 39.667 62.5 65
s28.5 53.333 34.5 84c83.333 -19.333 156.166 -47.833 218.499 -85.5s114.166 -83 155.499 -136s72.333 -112.667 93 -179s31 -137.833 31 -214.5v-1275h-542v1228c0 31.333 -4.5 55.666 -13.5 72.999s-21.167 31.666 -36.5 42.999c-8 -8.66699 -18.833 -16.667 -32.5 -24
s-28.834 -13.666 -45.501 -18.999s-34 -9.5 -52 -12.5s-35 -4.5 -51 -4.5s-32.833 1.5 -50.5 4.5s-34.834 7.16699 -51.501 12.5s-32.167 11.666 -46.5 18.999s-25.833 15.333 -34.5 24c-14.667 -11.333 -26.667 -25.5 -36 -42.5s-14 -41.5 -14 -73.5v-712z" />
    <glyph glyph-name="thothungthai" unicode="&#xe16;" horiz-adv-x="1882" 
d="M942 1889c111.333 0 211.832 -16.833 301.499 -50.5s165.834 -79.334 228.501 -137.001s110.834 -125.167 144.501 -202.5s50.5 -160 50.5 -248v-1251h-541v1242c0 68.667 -14.833 122.5 -44.5 161.5s-75.5 58.5 -137.5 58.5c-60.667 0 -107.334 -19.5 -140.001 -58.5
s-49 -93.5 -49 -163.5v-824h185v-416h-726v1032l85 81l31 29.5l27 26l19.5 18.5l7.5 7l-218 215c28.667 72.667 68 138.667 118 198s108.5 109.833 175.5 151.5s141.333 73.834 223 96.501s168.167 34 259.5 34z" />
    <glyph glyph-name="thothahanthai" unicode="&#xe17;" horiz-adv-x="1912" 
d="M754 1155l1.00391 -1155h-541v1868h497v-156c0 -7.33301 -0.166992 -16.666 -0.5 -27.999s-1 -23.166 -2 -35.499l-3 -38c-1 -13 -2.16699 -25.167 -3.5 -36.5l19 21l25.5 24.5c10.333 9.66699 23.166 20.834 38.499 33.501l137 112
c49.333 40 102.666 70.167 159.999 90.5s114.666 31 171.999 32s112.666 -7.83301 165.999 -26.5s100.5 -46.667 141.5 -84s73.833 -83.833 98.5 -139.5s37 -120.5 37 -194.5v-1443h-540v1260c0 32 -6.16699 57.5 -18.5 76.5s-28 31.5 -47 37.5s-40 5.66699 -63 -1
s-45.167 -19.334 -66.5 -38.001z" />
    <glyph glyph-name="thothongthai" unicode="&#xe18;" horiz-adv-x="1771" 
d="M880 415c68 0 118.5 15.502 151.5 46.502s49.5 75.5 49.5 133.5c0 43.333 -14 81.666 -42 114.999s-70.333 59.666 -127 78.999l-178 63v-434c10.667 -0.666992 23.667 -1.16699 39 -1.5l44.5 -1c14.333 -0.333008 27.333 -0.5 39 -0.5h23.5zM194 891.002h445.998
c-66 22.667 -127.5 51 -184.5 85s-106.5 72.5 -148.5 115.5s-74.833 90.333 -98.5 142s-35.5 106.834 -35.5 165.501c0 80 14.167 149.5 42.5 208.5s68.333 107.833 120 146.5s113.334 67.5 185.001 86.5s151.167 28.5 238.5 28.5c0.666992 0 12.834 -0.166992 36.501 -0.5
s54.834 -0.833008 93.501 -1.5s82.334 -1.33398 131.001 -2.00098l149 -2c119.333 -2 254 -4 404 -6l-127 -390c-116.667 1.33301 -222 3 -316 5c-40 0.666992 -79.333 1.16699 -118 1.5s-73.667 0.833008 -105 1.5s-57.333 1.16699 -78 1.5s-33 0.5 -37 0.5
c-22 0 -40.333 -7.16699 -55 -21.5s-22 -32.5 -22 -54.5s6.16699 -40.333 18.5 -55s29.166 -25.667 50.499 -33l303 -107c80 -28 153.667 -59.333 221 -94s125.666 -75.5 174.999 -122.5s87.833 -101.5 115.5 -163.5s41.5 -134.333 41.5 -217
c0 -103.333 -19 -193.5 -57 -270.5s-89.667 -141.167 -155 -192.5s-141.833 -89.833 -229.5 -115.5s-181.167 -38.5 -280.5 -38.5c-31.333 0 -65.666 0.166992 -102.999 0.5l-115.5 1c-39.667 0.333008 -79.834 0.833008 -120.501 1.5l-117 2l-268 6v888z" />
    <glyph glyph-name="nonuthai" unicode="&#xe19;" horiz-adv-x="1882" 
d="M1487 287c-24.667 -46.667 -54.166 -88.834 -88.499 -126.501s-74.333 -70 -120 -97s-97.334 -47.833 -155.001 -62.5s-122.5 -22 -194.5 -22c-105.333 0 -201.833 15.833 -289.5 47.5s-163 76.334 -226 134.001s-112 127 -147 208s-52.5 170.5 -52.5 268.5v1231h541
v-1240c0 -70 16.333 -124.5 49 -163.5s79.334 -58.5 140.001 -58.5c26 0 50.167 5 72.5 15s41.666 24.5 57.999 43.5s29 42.167 38 69.5s13.5 58 13.5 92v1242h541v-994h111v-874h-262z" />
    <glyph glyph-name="bobaimaithai" unicode="&#xe1a;" horiz-adv-x="1882" 
d="M755 1868l-0.000976562 -1240c0 -70 16.333 -124.5 49 -163.5s79.334 -58.5 140.001 -58.5c62 0 107.833 19.5 137.5 58.5s44.5 92.833 44.5 161.5v1242h541v-1251c0 -88 -16.833 -170.667 -50.5 -248s-81.834 -144.833 -144.501 -202.5
s-138.834 -103.334 -228.501 -137.001s-190.167 -50.5 -301.5 -50.5c-74 0 -143.333 7.83301 -208 23.5s-124 37.667 -178 66s-102.167 62.166 -144.5 101.499s-78.166 82.833 -107.499 130.5s-51.666 98.667 -66.999 153s-23 110.5 -23 168.5v1246h541z" />
    <glyph glyph-name="poplathai" unicode="&#xe1b;" horiz-adv-x="1882" 
d="M755 1868v-1240c0 -70 16.333 -124.5 49 -163.5s79.334 -58.5 140.001 -58.5c62 0 107.833 19.5 137.5 58.5s44.5 92.833 44.5 161.5v1904h541v-1913c0 -88 -16.833 -170.667 -50.5 -248s-81.834 -144.833 -144.501 -202.5s-138.834 -103.334 -228.501 -137.001
s-190.167 -50.5 -301.5 -50.5c-106 0 -203.667 16.667 -293 50s-166.166 78.833 -230.499 136.5s-114.5 125 -150.5 202s-54 159.167 -54 246.5v1254h541z" />
    <glyph glyph-name="phophungthai" unicode="&#xe1c;" horiz-adv-x="2425" 
d="M194 1398c0 80.667 14.6689 150.501 44.002 209.501s68.833 107.833 118.5 146.5s107.334 67.334 173.001 86.001s134.834 28 207.501 28h281v-402h-185c-11.333 0 -22.833 -2.5 -34.5 -7.5s-22.167 -12 -31.5 -21s-17 -19.833 -23 -32.5s-9 -26.667 -9 -42v-867
c0 -14.667 2.83301 -28.334 8.5 -41.001s13.5 -23.5 23.5 -32.5s21.5 -16 34.5 -21s26.5 -7.5 40.5 -7.5c14.667 0 28.667 2.5 42 7.5s25 12.333 35 22s18 21.5 24 35.5s9 30 9 48v676h500v-676c0 -18 3 -34 9 -48s14 -25.833 24 -35.5s21.667 -17 35 -22
s27.333 -7.5 42 -7.5c14 0 27.5 2.5 40.5 7.5s24.5 12 34.5 21s17.833 19.833 23.5 32.5s8.5 26.334 8.5 41.001v1372h541v-1317c0 -87.333 -14.333 -166.333 -43 -237s-68.834 -130.834 -120.5 -180.501c-51.667 -49.667 -113.334 -88 -185.001 -115
s-150.834 -40.5 -237.501 -40.5c-48.667 0 -95.834 6.5 -141.501 19.5s-87.334 31.167 -125.001 54.5s-70 51.666 -97 84.999s-46.5 70.333 -58.5 111c-12.667 -40.667 -31.834 -77.667 -57.501 -111s-56.667 -61.833 -93 -85.5s-77.166 -42 -122.499 -55
s-94 -19.5 -146 -19.5c-86.667 0 -166 13.5 -238 40.5s-134 65.5 -186 115.5s-92.5 110.333 -121.5 181s-43.5 149.667 -43.5 237v847z" />
    <glyph glyph-name="fofathai" unicode="&#xe1d;" horiz-adv-x="2425" 
d="M194 1398c0 80.667 14.6689 150.501 44.002 209.501s68.833 107.833 118.5 146.5s107.334 67.334 173.001 86.001s134.834 28 207.501 28h281v-402h-185c-11.333 0 -22.833 -2.5 -34.5 -7.5s-22.167 -12 -31.5 -21s-17 -19.833 -23 -32.5s-9 -26.667 -9 -42v-867
c0 -14.667 2.83301 -28.334 8.5 -41.001s13.5 -23.5 23.5 -32.5s21.5 -16 34.5 -21s26.5 -7.5 40.5 -7.5c14.667 0 28.667 2.5 42 7.5s25 12.333 35 22s18 21.5 24 35.5s9 30 9 48v676h500v-676c0 -18 3 -34 9 -48s14 -25.833 24 -35.5s21.667 -17 35 -22
s27.333 -7.5 42 -7.5c14 0 27.5 2.5 40.5 7.5s24.5 12 34.5 21s17.833 19.833 23.5 32.5s8.5 26.334 8.5 41.001v2035h541v-1980c0 -87.333 -14.333 -166.333 -43 -237s-68.834 -130.834 -120.5 -180.501c-51.667 -49.667 -113.334 -88 -185.001 -115
s-150.834 -40.5 -237.501 -40.5c-48.667 0 -95.834 6.5 -141.501 19.5s-87.334 31.167 -125.001 54.5s-70 51.666 -97 84.999s-46.5 70.333 -58.5 111c-12.667 -40.667 -31.834 -77.667 -57.501 -111s-56.667 -61.833 -93 -85.5s-77.166 -42 -122.499 -55
s-94 -19.5 -146 -19.5c-86.667 0 -166 13.5 -238 40.5s-134 65.5 -186 115.5s-92.5 110.333 -121.5 181s-43.5 149.667 -43.5 237v847z" />
    <glyph glyph-name="phophanthai" unicode="&#xe1e;" horiz-adv-x="2525" 
d="M1522 534c0 -47.333 11.334 -82.498 34.001 -105.498s53 -34.5 91 -34.5c34.667 0 63.667 12 87 36s35 56.667 35 98v1340h541v-1317c0 -87.333 -15.333 -166.333 -46 -237s-73 -130.834 -127 -180.501s-118 -88 -192 -115s-154.333 -40.5 -241 -40.5
c-48.667 0 -96.834 6.5 -144.501 19.5s-91.667 31.167 -132 54.5s-75 51.666 -104 84.999s-49.5 70.333 -61.5 111c-12.667 -40.667 -32.834 -77.667 -60.501 -111s-61 -61.833 -100 -85.5s-82.167 -42 -129.5 -55s-97 -19.5 -149 -19.5
c-86.667 0 -167.167 13.5 -241.5 40.5s-138.666 65.5 -192.999 115.5s-97 110.333 -128 181s-46.5 149.667 -46.5 237v1317h541v-1340c0 -41.333 11.667 -74 35 -98s52.333 -36 87 -36c38 0 68.333 11.5 91 34.5s34 58.167 34 105.5v1334h520v-1334z" />
    <glyph glyph-name="fofanthai" unicode="&#xe1f;" horiz-adv-x="2525" 
d="M1522 534c0 -47.333 11.334 -82.498 34.001 -105.498s53 -34.5 91 -34.5c34.667 0 63.667 12 87 36s35 56.667 35 98v2009h541v-1986c0 -87.333 -15.333 -166.333 -46 -237s-73 -130.834 -127 -180.501s-118 -88 -192 -115s-154.333 -40.5 -241 -40.5
c-48.667 0 -96.834 6.5 -144.501 19.5s-91.667 31.167 -132 54.5s-75 51.666 -104 84.999s-49.5 70.333 -61.5 111c-12.667 -40.667 -32.834 -77.667 -60.501 -111s-61 -61.833 -100 -85.5s-82.167 -42 -129.5 -55s-97 -19.5 -149 -19.5
c-86.667 0 -167.167 13.5 -241.5 40.5s-138.666 65.5 -192.999 115.5s-97 110.333 -128 181s-46.5 149.667 -46.5 237v1317h541v-1340c0 -41.333 11.667 -74 35 -98s52.333 -36 87 -36c38 0 68.333 11.5 91 34.5s34 58.167 34 105.5v1334h520v-1334z" />
    <glyph glyph-name="phosamphaothai" unicode="&#xe20;" horiz-adv-x="1902" 
d="M77 0v412.001h157v842c0 87.333 18 169.5 54 246.5s86.167 144.333 150.5 202s141.166 103.167 230.499 136.5s187 50 293 50c111.333 0 211.833 -16.833 301.5 -50.5s165.834 -79.334 228.501 -137.001s110.834 -125.167 144.501 -202.5s50.5 -160 50.5 -248v-1251h-541
v1242c0 68.667 -14.833 122.5 -44.5 161.5s-75.5 58.5 -137.5 58.5c-60.667 0 -107.334 -19.5 -140.001 -58.5s-49 -93.5 -49 -163.5v-1240h-698z" />
    <glyph glyph-name="momathai" unicode="&#xe21;" horiz-adv-x="1955" 
d="M438 0h-276.999v874h126v994h541v-1242c0 -34 4.5 -64.667 13.5 -92s21.667 -50.5 38 -69.5s35.666 -33.5 57.999 -43.5s46.5 -15 72.5 -15c60.667 0 107.334 19.5 140.001 58.5s49 93.5 49 163.5v1240h541v-1231c0 -98 -17.5 -187.5 -52.5 -268.5
s-84 -150.333 -147 -208s-138.333 -102.334 -226 -134.001s-184.167 -47.5 -289.5 -47.5c-72 0 -136.833 7.33301 -194.5 22s-109.334 35.5 -155.001 62.5s-85.667 59.333 -120 97s-63.833 79.834 -88.5 126.501z" />
    <glyph glyph-name="yoyakthai" unicode="&#xe22;" horiz-adv-x="1902" 
d="M882 1436c-17.333 11.333 -34.8359 18.3408 -52.5029 21.0078s-33.5 4 -47.5 4c-14.667 0 -28.834 -3.5 -42.501 -10.5s-25.834 -16.5 -36.501 -28.5s-19.167 -26.333 -25.5 -43s-9.5 -34.334 -9.5 -53.001c0 -19.333 2.5 -37.166 7.5 -53.499s11.5 -31 19.5 -44
s17.167 -24.167 27.5 -33.5s20.833 -16 31.5 -20c26 7.33301 51.833 12.166 77.5 14.499s56.5 4.5 92.5 6.5l32 -364c-34 0 -65.167 -5.5 -93.5 -16.5s-52.5 -26.333 -72.5 -46s-35.5 -42.834 -46.5 -69.501s-16.5 -55.667 -16.5 -87c0 -32.667 5.66699 -61.834 17 -87.501
s26.833 -47.334 46.5 -65.001s42.334 -31.167 68.001 -40.5s52.834 -14 81.501 -14c30.667 0 58.667 5 84 15s47 24.5 65 43.5s32 42.167 42 69.5s15 58 15 92v1242h541v-1251c0 -88 -17.833 -170.667 -53.5 -248s-86.167 -144.833 -151.5 -202.5
s-143.833 -103.334 -235.5 -137.001s-193.167 -50.5 -304.5 -50.5c-70.667 0 -138.5 7.16699 -203.5 21.5s-125.667 34.833 -182 61.5s-107.5 58.667 -153.5 96s-85.333 78.833 -118 124.5s-58 95.167 -76 148.5s-27 109 -27 167c0 78.667 17 150.667 51 216
s79.333 122.666 136 171.999c-26.667 16 -52.167 35.5 -76.5 58.5s-45.833 49.667 -64.5 80s-33.667 65 -45 104s-17 82.5 -17 130.5c0 74 14.333 142.667 43 206s67.334 118.166 116.001 164.499s105.334 82.5 170.001 108.5s133.334 39 206.001 39
c38 0 72.167 -2.33301 102.5 -7s58 -10.667 83 -18s47.667 -15.833 68 -25.5s39.5 -19.834 57.5 -30.501z" />
    <glyph glyph-name="roruathai" unicode="&#xe23;" horiz-adv-x="1653" 
d="M555 602c14.667 -30 31.8359 -56.001 51.5029 -78.001s40.167 -40.333 61.5 -55s42.833 -25.667 64.5 -33s41.834 -11 60.501 -11c28 0 52.167 2.83301 72.5 8.5s36.833 13.167 49.5 22.5s22 20.333 28 33s9 26 9 40c0 17.333 -3.5 34.5 -10.5 51.5
s-20.833 34.5 -41.5 52.5s-49.5 36.833 -86.5 56.5s-85.5 40.834 -145.5 63.501c-70.667 26.667 -135.667 59.334 -195 98.001s-110.333 82.5 -153 131.5s-75.834 103.167 -99.501 162.5s-35.5 123.333 -35.5 192c0 82 17.833 156.833 53.5 224.5s84.667 125.667 147 174
s136.166 85.666 221.499 111.999s178 39.5 278 39.5c61.333 0 120.333 -7.16699 177 -21.5s109.167 -34 157.5 -59s92 -54.167 131 -87.5s71.833 -69 98.5 -107l-350 -306c-10 22 -23.5 41.5 -40.5 58.5s-35.5 31.167 -55.5 42.5s-40.5 19.833 -61.5 25.5
s-40.5 8.5 -58.5 8.5c-30 0 -55.5 -3.5 -76.5 -10.5s-38.167 -16 -51.5 -27s-23.166 -23.5 -29.499 -37.5s-9.5 -28 -9.5 -42c0 -20 4.33301 -38.167 13 -54.5s23.167 -32 43.5 -47s47 -30 80 -45s74.167 -31.167 123.5 -48.5c82 -29.333 155.5 -63.333 220.5 -102
s120 -82.667 165 -132s79.5 -103.833 103.5 -163.5s36 -125.167 36 -196.5c0 -73.333 -16 -143.5 -48 -210.5s-78.333 -126 -139 -177s-134.834 -91.5 -222.501 -121.5s-187.167 -45 -298.5 -45c-70.667 0 -138.334 9.16699 -203.001 27.5s-124.834 43.833 -180.501 76.5
s-106 71.5 -151 116.5s-82.5 94.167 -112.5 147.5z" />
    <glyph glyph-name="ruthai" unicode="&#xe24;" horiz-adv-x="1882" 
d="M940 1889c111.333 0 211.834 -16.833 301.501 -50.5s166 -79.334 229 -137.001s111.5 -125.167 145.5 -202.5s51 -160 51 -248v-1750h-541v1741c0 68.667 -14.833 122.5 -44.5 161.5s-75.5 58.5 -137.5 58.5c-60.667 0 -107.334 -19.5 -140.001 -58.5
s-49 -93.5 -49 -163.5v-824h185v-416h-726v1251c0 88 16.833 170.667 50.5 248s82 144.833 145 202.5s139.333 103.334 229 137.001s190.167 50.5 301.5 50.5z" />
    <glyph glyph-name="lolingthai" unicode="&#xe25;" horiz-adv-x="1862" 
d="M984 44c-20 -12.667 -40.998 -23.1641 -62.998 -31.4971s-44.167 -15 -66.5 -20s-43.833 -8.5 -64.5 -10.5s-39.334 -3 -56.001 -3c-97.333 0 -182.833 13.333 -256.5 40s-135.334 63.5 -185.001 110.5s-87 102.833 -112 167.5s-37.5 134.667 -37.5 210
c0 60 10 116 30 168s47.667 99 83 141s77.166 78.667 125.499 110s101.166 56.333 158.499 75c32 10.667 65.5 20 100.5 28s70.667 15.667 107 23l109.5 22c36.667 7.33301 73 15 109 23c26.667 6 49.334 15.333 68.001 28s34 27.167 46 43.5s20.667 34.166 26 53.499
s8 38.666 8 57.999c0 28 -4.83301 53.167 -14.5 75.5s-22.667 41.5 -39 57.5s-35.833 28.167 -58.5 36.5s-47 12.5 -73 12.5c-23.333 0 -47.333 -4.33301 -72 -13s-47.167 -22.167 -67.5 -40.5s-37.166 -41.5 -50.499 -69.5s-20.333 -61 -21 -99l-538 45v2
c10 86.667 36 166.834 78 240.501s96.333 137.334 163 191.001s143.167 95.5 229.5 125.5s178.833 45 277.5 45c116 0 218.833 -16.167 308.5 -48.5s165 -76.5 226 -132.5s107.333 -122.167 139 -198.5s47.5 -158.5 47.5 -246.5v-1263h-541v750
c-11.333 -7.33301 -26.333 -13.833 -45 -19.5s-39.667 -10.834 -63 -15.501l-73.5 -14c-25.667 -4.66699 -51.167 -9.66699 -76.5 -15c-28.667 -6 -55.667 -13.667 -81 -23s-47.5 -20.833 -66.5 -34.5s-34.167 -30.334 -45.5 -50.001s-17 -42.834 -17 -69.501
c0 -22 3.16699 -41.667 9.5 -59s15 -32 26 -44s23.833 -21.167 38.5 -27.5s30 -9.5 46 -9.5c19.333 0 40 3.83301 62 11.5s43.333 19.167 64 34.5z" />
    <glyph glyph-name="luthai" unicode="&#xe26;" horiz-adv-x="1902" 
d="M77 0v412.001h157v842c0 87.333 18 169.5 54 246.5s86.167 144.333 150.5 202s141.166 103.167 230.499 136.5s187 50 293 50c111.333 0 211.833 -16.833 301.5 -50.5s165.834 -79.334 228.501 -137.001s110.834 -125.167 144.501 -202.5s50.5 -160 50.5 -248v-1750h-541
v1741c0 68.667 -14.833 122.5 -44.5 161.5s-75.5 58.5 -137.5 58.5c-60.667 0 -107.334 -19.5 -140.001 -58.5s-49 -93.5 -49 -163.5v-1240h-698z" />
    <glyph glyph-name="wowaenthai" unicode="&#xe27;" horiz-adv-x="1705" 
d="M187 556c29.333 -26 61 -47.6689 95 -65.002s67.667 -31.166 101 -41.499s64.833 -17.833 94.5 -22.5s54.834 -7 75.501 -7c73.333 0 139.166 13.167 197.499 39.5s108 62.833 149 109.5s72.5 101.334 94.5 164.001s33 130.667 33 204c0 76 -11.833 145.5 -35.5 208.5
s-56.5 117 -98.5 162s-91.833 80 -149.5 105s-120.834 37.5 -189.501 37.5c-24.667 0 -54.667 -2.83301 -90 -8.5s-72.666 -16 -111.999 -31s-78.666 -36 -117.999 -63s-75.333 -61.5 -108 -103.5v546c74 32.667 149.667 57.334 227 74.001s155.666 25 234.999 25
c144.667 0 276.667 -22 396 -66s221.833 -107.167 307.5 -189.5s152 -182.333 199 -300s70.5 -249.834 70.5 -396.501c0 -84 -8.66699 -166 -26 -246s-43.666 -155.333 -78.999 -226s-79.833 -135.667 -133.5 -195s-116.834 -110.333 -189.501 -153s-155 -76 -247 -100
s-194 -36 -306 -36c-134 0 -265 24.667 -393 74v501z" />
    <glyph glyph-name="sosalathai" unicode="&#xe28;" horiz-adv-x="1957" 
d="M1742 1975v-1975h-542v1228c0 34 -4.66699 65.333 -14 94s-23.166 53.334 -41.499 74.001s-41.166 36.834 -68.499 48.501s-59 17.5 -95 17.5c-34 0 -64.833 -5.83301 -92.5 -17.5s-51.334 -27.834 -71.001 -48.501s-34.834 -45.5 -45.501 -74.5s-16 -60.5 -16 -94.5
v-245h241v-416h-241v-567h-542v1246c0 87.333 18.667 169.333 56 246s89.833 143.334 157.5 200.001s148.667 101.334 243 134.001s198.5 49 312.5 49c24.667 0 50.5 -1.83301 77.5 -5.5s52.667 -8.5 77 -14.5s46.333 -13.167 66 -21.5s34.5 -16.833 44.5 -25.5l1 1
c-0.666992 2.66699 -1.16699 7.66699 -1.5 15l-1 23c-0.333008 8 -0.5 15.667 -0.5 23v14v92h496z" />
    <glyph glyph-name="sorusithai" unicode="&#xe29;" horiz-adv-x="1913" 
d="M1825 1323v-416.001h-127v-285c0 -89.333 -18.5 -173.166 -55.5 -251.499s-88.5 -146.5 -154.5 -204.5s-144.5 -103.667 -235.5 -137s-190.167 -50 -297.5 -50c-108.667 0 -208.334 17.333 -299.001 52s-168.834 81.667 -234.501 141s-116.667 128.333 -153 207
s-54.5 162 -54.5 250v1239h542v-1216c0 -42.667 5 -79.5 15 -110.5s24 -56.5 42 -76.5s39 -34.833 63 -44.5s50 -14.5 78 -14.5s54.333 4.83301 79 14.5s46.334 24.667 65.001 45s33.334 46 44.001 77s16 68.167 16 111.5v253h-227v416h227v545h540v-545h127z" />
    <glyph glyph-name="sosuathai" unicode="&#xe2a;" horiz-adv-x="1862" 
d="M1106 750c-11.333 -7.33301 -26.3311 -13.8271 -44.998 -19.4941s-39.667 -10.834 -63 -15.501l-73.5 -14c-25.667 -4.66699 -51.167 -9.66699 -76.5 -15c-28.667 -6 -55.667 -13.667 -81 -23s-47.5 -20.833 -66.5 -34.5s-34.167 -30.334 -45.5 -50.001
s-17 -42.834 -17 -69.501c0 -22 3.16699 -41.667 9.5 -59s15 -32 26 -44s23.833 -21.167 38.5 -27.5s30 -9.5 46 -9.5c19.333 0 40 3.83301 62 11.5s43.333 19.167 64 34.5l98 -371c-20 -12.667 -41 -23.167 -63 -31.5s-44.167 -15 -66.5 -20s-43.833 -8.5 -64.5 -10.5
s-39.334 -3 -56.001 -3c-97.333 0 -182.833 13.333 -256.5 40s-135.334 63.5 -185.001 110.5s-87 102.833 -112 167.5s-37.5 134.667 -37.5 210c0 60 10 116 30 168s47.667 99 83 141s77.166 78.667 125.499 110s101.166 56.333 158.499 75c32 10.667 65.5 20 100.5 28
s70.667 15.667 107 23l109.5 22c36.667 7.33301 73 15 109 23c26.667 6 49.334 15.333 68.001 28s34 27.167 46 43.5s20.667 34.166 26 53.499s8 38.666 8 57.999c0 28 -4.83301 53.167 -14.5 75.5s-22.667 41.5 -39 57.5s-35.833 28.167 -58.5 36.5s-47 12.5 -73 12.5
c-23.333 0 -47.333 -4.33301 -72 -13s-47.167 -22.167 -67.5 -40.5s-37.166 -41.5 -50.499 -69.5s-20.333 -61 -21 -99l-538 45v2c10 86.667 35 166.167 75 238.5s92.333 134.5 157 186.5s139.667 92.333 225 121s178.333 43 279 43c24.667 0 49.167 -1.83301 73.5 -5.5
s47 -8.83398 68 -15.501s40 -14.167 57 -22.5s30.5 -16.833 40.5 -25.5l1 1c-0.666992 2.66699 -1.16699 7.66699 -1.5 15l-1 22.5c-0.333008 7.66699 -0.5 15 -0.5 22v15.5v92h496v-1975h-541v750z" />
    <glyph glyph-name="hohipthai" unicode="&#xe2b;" horiz-adv-x="1908" 
d="M1693 0l-541 0.000976562v866c0 29.333 -4.33301 57.166 -13 83.499s-21 49.5 -37 69.5s-35.5 35.833 -58.5 47.5s-48.833 17.5 -77.5 17.5c-27.333 0 -53 -6.66699 -77 -20s-45 -31.5 -63 -54.5s-32.333 -50.333 -43 -82s-16 -65.5 -16 -101.5v-826h-540v1868h540v-395
l380 395h598l-479 -466c65.333 -6.66699 124.333 -24.167 177 -52.5s97.5 -65.333 134.5 -111s65.5 -98.5 85.5 -158.5s30 -124.667 30 -194v-886z" />
    <glyph glyph-name="lochulathai" unicode="&#xe2c;" horiz-adv-x="2446" 
d="M1689 494l1.00293 594.003c0 56.667 -8.5 108.334 -25.5 155.001s-41.333 86.5 -73 119.5s-70.334 58.5 -116.001 76.5s-97.167 27 -154.5 27h-345v401h1386l-116 -388h-211c26.667 -12 51.834 -29.667 75.5 -53c23.667 -23.333 44.5 -50.833 62.5 -82.5
s32.167 -66.834 42.5 -105.501s15.5 -79.334 15.5 -122.001l-1 -565c0 -87.333 -14.333 -166.333 -43 -237s-68.834 -130.834 -120.5 -180.501c-51.667 -49.667 -113.334 -88 -185.001 -115s-150.834 -40.5 -237.501 -40.5c-48.667 0 -95.834 6.5 -141.501 19.5
s-87.334 31.167 -125.001 54.5s-70 51.666 -97 84.999s-46.5 70.333 -58.5 111c-12.667 -40.667 -31.834 -77.667 -57.501 -111s-56.667 -61.833 -93 -85.5s-77.166 -42 -122.499 -55s-94 -19.5 -146 -19.5c-86.667 0 -166 13.5 -238 40.5s-134 65.5 -186 115.5
s-92.5 110.333 -121.5 181s-43.5 149.667 -43.5 237v1317h541v-1372c0 -30 9.83301 -54.5 29.5 -73.5s43.834 -28.5 72.501 -28.5c30 0 55 9.83301 75 29.5s30 47.5 30 83.5v622h520v-622c0 -36 10 -63.833 30 -83.5s45 -29.5 75 -29.5c28.667 0 52.834 9.5 72.501 28.5
s29.5 43.5 29.5 73.5v-2z" />
    <glyph glyph-name="oangthai" unicode="&#xe2d;" horiz-adv-x="2226" 
d="M191 1339c40.667 88.667 91.1758 167.337 151.509 236.004s129 126.334 206 173.001s161.833 82 254.5 106s192 36 298 36c144.667 0 277.167 -21.5 397.5 -64.5s223.666 -105.333 309.999 -187s153.5 -181.667 201.5 -300s72 -252.833 72 -403.5
c0 -84 -8.66699 -165.833 -26 -245.5s-43.833 -154.834 -79.5 -225.501s-80.334 -135.667 -134.001 -195s-116.834 -110.333 -189.501 -153s-155 -75.834 -247 -99.501s-193.667 -35.5 -305 -35.5c-94.667 0 -184.834 10.833 -270.501 32.5s-164.834 52.667 -237.501 93
s-138.167 89.666 -196.5 147.999s-108.166 124.166 -149.499 197.499s-73 153.5 -95 240.5s-33 179.833 -33 278.5c0 11.333 0.666992 25.5 2 42.5s2.33301 30.833 3 41.5h972v-368h-402c36 -91.333 88.5 -160.333 157.5 -207s150.167 -70 243.5 -70
c73.333 0 138.166 13.667 194.499 41s103.666 64.666 141.999 111.999s67.333 102.833 87 166.5s29.5 132.167 29.5 205.5c0 78 -10.667 148.333 -32 211s-51.5 116.334 -90.5 161.001s-86.333 79 -142 103s-117.834 36 -186.501 36c-39.333 0 -80.833 -5.33301 -124.5 -16
s-85.834 -27.667 -126.501 -51s-77.834 -53.833 -111.501 -91.5s-60.167 -83.834 -79.5 -138.501z" />
    <glyph glyph-name="honokhukthai" unicode="&#xe2e;" horiz-adv-x="2280" 
d="M1101 -19c-94.667 0 -184.827 10.8389 -270.494 32.5059s-164.834 52.667 -237.501 93s-138.167 89.666 -196.5 147.999s-108.166 124.166 -149.499 197.499s-73 153.5 -95 240.5s-33 179.833 -33 278.5c0 11.333 0.666992 25.5 2 42.5s2.33301 30.833 3 41.5h972v-368
h-402c36 -91.333 88.5 -160.333 157.5 -207s150.167 -70 243.5 -70c73.333 0 138.166 13.667 194.499 41s103.666 64.666 141.999 111.999s67.333 102.833 87 166.5s29.5 132.167 29.5 205.5c0 78 -10.667 148 -32 210s-51.5 114.833 -90.5 158.5s-86.333 77.167 -142 100.5
s-117.834 35 -186.501 35c-39.333 0 -80.833 -4.83301 -124.5 -14.5s-85.834 -25.834 -126.501 -48.501s-77.834 -52.5 -111.501 -89.5s-60.167 -82.833 -79.5 -137.5l-464 190c90.667 185.333 212.167 322.5 364.5 411.5s334.166 133.5 545.499 133.5
c58 0 110.5 -3.16699 157.5 -9.5s89.333 -14.666 127 -24.999s71 -22.5 100 -36.5s54.167 -28.667 75.5 -44l1 1c-2 10 -3 19.667 -3 29v148h506v-815c5.33301 -32 9.5 -65.167 12.5 -99.5s4.5 -67.833 4.5 -100.5c0 -84 -8.83301 -165.667 -26.5 -245
s-44.167 -154.333 -79.5 -225s-80 -135.334 -134 -194.001s-117.167 -109.334 -189.5 -152.001s-154.5 -75.834 -246.5 -99.501s-193.667 -35.5 -305 -35.5z" />
    <glyph glyph-name="paiyannoithai" unicode="&#xe2f;" horiz-adv-x="1915" 
d="M1025 1869l-55 -436.002c-6.66699 2.66699 -15 4.5 -25 5.5s-16.667 1.5 -20 1.5c-29.333 0 -56.333 -5.16699 -81 -15.5s-46.167 -24.833 -64.5 -43.5s-32.666 -41 -42.999 -67s-15.5 -54.667 -15.5 -86s5.16699 -60.666 15.5 -87.999s24.666 -51.166 42.999 -71.499
s39.833 -36.333 64.5 -48s51.667 -17.5 81 -17.5c52 0 97.333 13.5 136 40.5s64.667 67.167 78 120.5v704h530v-1868h-530v377c0 24 0.166992 49.333 0.5 76s1.16602 51 2.49902 73c0.666992 26 1.66699 51.333 3 76c-19.333 -13.333 -40.166 -24.166 -62.499 -32.499
s-45.333 -14.833 -69 -19.5s-47 -7.66699 -70 -9s-44.833 -2 -65.5 -2c-60 0 -118.5 8 -175.5 24s-110.5 38.5 -160.5 67.5s-95.833 64.167 -137.5 105.5s-77.5 87.166 -107.5 137.499s-53.333 104.666 -70 162.999s-25 119.5 -25 183.5c0 100.667 18.5 191.667 55.5 273
s87.667 150.5 152 207.5s139.833 100.833 226.5 131.5s180 46 280 46c14 0 30.5 -0.666992 49.5 -2s38.833 -3.66602 59.5 -6.99902z" />
    <glyph glyph-name="saraathai" unicode="&#xe30;" horiz-adv-x="959" 
d="M102 366c0 52 9.5 100.667 28.5 146s45.333 84.833 79 118.5s73.667 60.167 120 79.5s97.166 29 152.499 29c54.667 0 105.167 -9.66699 151.5 -29s86 -45.833 119 -79.5s58.833 -73.167 77.5 -118.5s28 -94 28 -146c0 -51.333 -9.33301 -99.333 -28 -144
s-44.5 -83.5 -77.5 -116.5s-72.667 -59.167 -119 -78.5s-96.833 -29 -151.5 -29c-55.333 0 -106.166 9.66699 -152.499 29s-86.333 45.5 -120 78.5s-60 71.833 -79 116.5s-28.5 92.667 -28.5 144zM483 460c-26 0 -48.166 -8.66699 -66.499 -26s-27.5 -40 -27.5 -68
c0 -11.333 2.5 -22.333 7.5 -33s11.667 -20 20 -28s18.166 -14.5 29.499 -19.5s23.666 -7.5 36.999 -7.5c12.667 0 24.834 2.5 36.501 7.5s21.667 11.5 30 19.5s15 17.333 20 28s7.5 21.667 7.5 33c0 28 -9.16699 50.667 -27.5 68s-40.5 26 -66.5 26zM102.001 1491
c0 52 9.5 100.667 28.5 146s45.333 84.833 79 118.5s73.667 60.167 120 79.5s97.166 29 152.499 29c54.667 0 105.167 -9.66699 151.5 -29s86 -45.833 119 -79.5s58.833 -73.167 77.5 -118.5s28 -94 28 -146c0 -51.333 -9.33301 -99.333 -28 -144s-44.5 -83.5 -77.5 -116.5
s-72.667 -59.167 -119 -78.5s-96.833 -29 -151.5 -29c-55.333 0 -106.166 9.66699 -152.499 29s-86.333 45.5 -120 78.5s-60 71.833 -79 116.5s-28.5 92.667 -28.5 144zM483.001 1585c-26 0 -48.166 -8.66699 -66.499 -26s-27.5 -40 -27.5 -68
c0 -11.333 2.5 -22.333 7.5 -33s11.667 -20 20 -28s18.166 -14.5 29.499 -19.5s23.666 -7.5 36.999 -7.5c12.667 0 24.834 2.5 36.501 7.5s21.667 11.5 30 19.5s15 17.333 20 28s7.5 21.667 7.5 33c0 28 -9.16699 50.667 -27.5 68s-40.5 26 -66.5 26z" />
    <glyph glyph-name="maihanakatthai" unicode="&#xe31;" 
d="M-1009 2406h894v-300h-1324v535h430v-235z" />
    <glyph glyph-name="saraaathai" unicode="&#xe32;" horiz-adv-x="1255" 
d="M1040 1l-539.997 0.00292969v1306c0 27.333 -3.83301 51.666 -11.5 72.999s-18.334 39.166 -32.001 53.499s-29.834 25.166 -48.501 32.499s-39 11 -61 11h-306l116 391h301c104.667 0 194 -13.167 268 -39.5s134.167 -64.333 180.5 -114s80.166 -109.667 101.499 -180
s32 -149.5 32 -237.5v-1296z" />
    <glyph glyph-name="saraamthai" unicode="&#xe33;" horiz-adv-x="1255" 
d="M1040 1l-539.997 0.00292969v1306c0 27.333 -3.83301 51.666 -11.5 72.999s-18.334 39.166 -32.001 53.499s-29.834 25.166 -48.501 32.499s-39 11 -61 11h-306l116 391h301c104.667 0 194 -13.167 268 -39.5s134.167 -64.333 180.5 -114s80.166 -109.667 101.499 -180
s32 -149.5 32 -237.5v-1296zM-863.997 2361c0 48 8.83301 93 26.5 135s42.334 78.667 74.001 110s69 56 112 74s90.167 27 141.5 27s98.5 -9 141.5 -27s80 -42.667 111 -74s55.167 -68 72.5 -110s26 -87 26 -135c0 -47.333 -8.66699 -92 -26 -134s-41.5 -78.5 -72.5 -109.5
s-68 -55.5 -111 -73.5s-90.167 -27 -141.5 -27s-98.5 9 -141.5 27s-80.333 42.5 -112 73.5s-56.334 67.5 -74.001 109.5s-26.5 86.667 -26.5 134zM-509.997 2447c-24.667 0 -45.334 -8 -62.001 -24s-25 -36.667 -25 -62c0 -22.667 8.33301 -42.167 25 -58.5
s37.334 -24.5 62.001 -24.5s45.334 8.16699 62.001 24.5s25 35.833 25 58.5c0 25.333 -8.33301 46 -25 62s-37.334 24 -62.001 24z" />
    <glyph glyph-name="saraithai" unicode="&#xe34;" 
d="M-214 2106h-1453v300h1453v-300z" />
    <glyph glyph-name="saraiithai" unicode="&#xe35;" 
d="M-645 2660h431v-554h-1453v300h1022v254z" />
    <glyph glyph-name="sarauethai" unicode="&#xe36;" 
d="M-872 2406c-1.33301 4.66699 -2.16797 10.834 -2.50098 18.5c-0.333008 7.66699 -0.5 13.834 -0.5 18.5c0 35.333 7.16699 70.5 21.5 105.5s35.5 66.333 63.5 94s62.833 50 104.5 67s89.834 25.5 144.501 25.5c55.333 0 103.833 -8.5 145.5 -25.5s76.5 -39.333 104.5 -67
s49 -59 63 -94s21 -70.5 21 -106.5c0 -17.333 -0.833008 -30.5 -2.5 -39.5s-3.16699 -16.5 -4.5 -22.5v-274h-1453v300h795zM-539.002 2497c-24.667 0 -45.334 -8 -62.001 -24s-25 -36.667 -25 -62c0 -22.667 8.33301 -42.167 25 -58.5s37.334 -24.5 62.001 -24.5
s45.334 8.16699 62.001 24.5s25 35.833 25 58.5c0 25.333 -8.33301 46 -25 62s-37.334 24 -62.001 24z" />
    <glyph glyph-name="saraueethai" unicode="&#xe37;" 
d="M-634 2660h420v-554h-1453v300h473v254h420v-254h140v254z" />
    <glyph glyph-name="sarauthai" unicode="&#xe38;" 
d="M-220 -695h-480v238h-224v246h704v-484z" />
    <glyph glyph-name="sarauuthai" unicode="&#xe39;" 
d="M-205 -233c-15.333 -70 -39.4971 -132.833 -72.4971 -188.5s-73.667 -102.834 -122 -141.501s-104 -68.334 -167 -89.001s-131.833 -31 -206.5 -31s-143.334 10.333 -206.001 31s-118.167 50.334 -166.5 89.001s-89 85.834 -122 141.501s-57.167 118.5 -72.5 188.5
l352 80c5.33301 -30.667 14.666 -58.167 27.999 -82.5s29.833 -45.166 49.5 -62.499s41.5 -30.666 65.5 -39.999s49.333 -14 76 -14s52 4.66699 76 14s45.833 22.666 65.5 39.999s36.167 38.166 49.5 62.499s22.666 51.833 27.999 82.5z" />
    <glyph glyph-name="phinthuthai" unicode="&#xe3a;" 
d="M-740 -376c0 36 7.33301 69.667 22 101s34.5 58.666 59.5 81.999s54.167 41.833 87.5 55.5s68.666 20.5 105.999 20.5c38.667 0 75 -6.83301 109 -20.5s63.667 -32.167 89 -55.5s45.333 -50.666 60 -81.999s22 -65 22 -101c0 -34.667 -7.33301 -67.5 -22 -98.5
s-34.667 -58 -60 -81s-55 -41.333 -89 -55s-70.333 -20.5 -109 -20.5c-37.333 0 -72.666 6.83301 -105.999 20.5s-62.5 32 -87.5 55s-44.833 50 -59.5 81s-22 63.833 -22 98.5z" />
    <glyph glyph-name="PUCR2005" unicode="&#xe3e;" 
 />
    <glyph glyph-name="bahtthai" unicode="&#xe3f;" horiz-adv-x="1970" 
d="M711 0l-504.999 -0.00292969v2323h505v249h503v-267c88.667 -17.333 166.667 -45.333 234 -84s123.666 -85.667 168.999 -141s79.666 -117.333 102.999 -186s35 -141.334 35 -218.001c0 -58 -7.33301 -110.833 -22 -158.5s-34.5 -90 -59.5 -127
s-54.167 -68.167 -87.5 -93.5s-69 -44.666 -107 -57.999c62.667 -20.667 118.334 -47.667 167.001 -81s89.667 -73.166 123 -119.499s58.666 -99.5 75.999 -159.5s26 -126.667 26 -200c0 -81.333 -14.167 -159.666 -42.5 -234.999s-70.166 -143.166 -125.499 -203.499
s-123.833 -111 -205.5 -152s-176.167 -67.833 -283.5 -80.5v-251h-503v243zM776.001 463.997l299.999 -0.000976562c32.667 0 63.334 5.66699 92.001 17s53.667 27.833 75 49.5s38 47.667 50 78s18 64.5 18 102.5c0 40.667 -6.83301 76.334 -20.5 107.001
s-31.667 56.5 -54 77.5s-48.333 36.833 -78 47.5s-60.5 16 -92.5 16h-290v-495zM1009 1410c26.667 0 51.667 5.16699 75 15.5s43.5 25.166 60.5 44.499s30.333 42.833 40 70.5s14.5 58.834 14.5 93.501c0 30 -4.5 58.5 -13.5 85.5s-21.833 50.5 -38.5 70.5
s-37 35.833 -61 47.5s-51 17.5 -81 17.5h-229v-445h233z" />
    <glyph glyph-name="saraethai" unicode="&#xe40;" horiz-adv-x="970" 
d="M755 0h-541v1868h541v-1868z" />
    <glyph glyph-name="saraaethai" unicode="&#xe41;" horiz-adv-x="1772" 
d="M755 0h-541v1868h541v-1868zM1557 0h-541v1868h541v-1868z" />
    <glyph glyph-name="saraothai" unicode="&#xe42;" horiz-adv-x="970" 
d="M755 0h-541v2063c0 72 11.833 140.833 35.5 206.5s58 123.5 103 173.5s100.167 90 165.5 120s139.333 45 222 45h229l101 -407h-157c-54.667 0 -94.667 -16.833 -120 -50.5s-38 -80.834 -38 -141.5v-2009z" />
    <glyph glyph-name="saraaimaimuanthai" unicode="&#xe43;" horiz-adv-x="1000" 
d="M-55 2158c8 62.667 24.1689 122 48.502 178s57.166 105 98.499 147s91.166 75.333 149.499 100s125.833 37 202.5 37c76 0 144.833 -11.833 206.5 -35.5s114.334 -56.167 158.001 -97.5s77.5 -90.5 101.5 -147.5s36 -118.5 36 -184.5c0 -33.333 -3 -66.166 -9 -98.5
c-6 -32.333 -14.167 -63.166 -24.5 -92.499s-22.333 -57 -36 -83s-28.5 -49.333 -44.5 -70c-16 -21.333 -27.833 -43.333 -35.5 -66s-11.5 -49 -11.5 -79v-1666h-541v1546c0 45.333 3.33301 88.166 10 128.499s17.167 79 31.5 116s32.666 72.667 54.999 107
s48.833 68.5 79.5 102.5l28 31.5c9.33301 11 17.833 22.5 25.5 34.5s13.834 24.5 18.501 37.5s7 26.5 7 40.5c0 30 -8 53.167 -24 69.5s-34.667 24.5 -56 24.5c-26.667 0 -48 -9.16699 -64 -27.5s-24 -40.5 -24 -66.5c0 -7.33301 0.166992 -15.333 0.5 -24
s1.16602 -17 2.49902 -25c0.666992 -9.33301 1.66699 -18.666 3 -28z" />
    <glyph glyph-name="saraaimaimalaithai" unicode="&#xe44;" horiz-adv-x="1012" 
d="M256 2009c0 60.667 -12.667 107.834 -38 141.5c-25.333 33.667 -65.333 50.5 -120 50.5h-157l101 407h229c82.667 0 156.667 -15 222 -45s120.5 -70 165.5 -120s79.333 -107.833 103 -173.5s35.5 -134.5 35.5 -206.5v-2063h-541v2009z" />
    <glyph glyph-name="lakkhangyaothai" unicode="&#xe45;" horiz-adv-x="1255" 
d="M1040 -500l-539.997 0.00292969v1807c0 27.333 -3.83301 51.666 -11.5 72.999s-18.334 39.166 -32.001 53.499s-29.834 25.166 -48.501 32.499s-39 11 -61 11h-306l116 391h301c104.667 0 194 -13.167 268 -39.5s134.167 -64.333 180.5 -114
s80.166 -109.667 101.499 -180s32 -149.5 32 -237.5v-1797z" />
    <glyph glyph-name="maiyamokthai" unicode="&#xe46;" horiz-adv-x="2154" 
d="M1297 1891c90 -17.333 166.832 -44.668 230.499 -82.001s115.834 -82.333 156.501 -135s70.334 -112 89.001 -178s28 -136.333 28 -211v-1771h-528v1714c0 34.667 -4 61.334 -12 80.001s-20.667 34.334 -38 47.001c-8 -9.33301 -19.167 -18.333 -33.5 -27
s-30.333 -16.334 -48 -23.001s-36 -12 -55 -16s-37.167 -6 -54.5 -6c-18 0 -36.5 2 -55.5 6s-37.167 9.33301 -54.5 16s-33.333 14.334 -48 23.001s-26.667 17.667 -36 27c-14 -10.667 -25.833 -24.834 -35.5 -42.501s-14.834 -39.167 -15.501 -64.5
c-0.666992 -26 3.83301 -50.5 13.5 -73.5s22.667 -43 39 -60s35.5 -30.5 57.5 -40.5s44.667 -15 68 -15c3.33301 0 8 0.166992 14 0.5s10.667 0.833008 14 1.5l68 -411c-12.667 -3.33301 -28 -5.83301 -46 -7.5s-33 -2.5 -45 -2.5c-102.667 0 -196.167 15.167 -280.5 45.5
s-156.666 73.5 -216.999 129.5s-107 123.667 -140 203s-49.5 168 -49.5 266c0 72 11.167 139.833 33.5 203.5s54.333 121.5 96 173.5s92.334 97 152.001 135s127.167 67 202.5 87c6.66699 -30 18.167 -57.167 34.5 -81.5s36 -45.166 59 -62.499s49.167 -30.833 78.5 -40.5
s60.333 -14.5 93 -14.5c33.333 0 64.666 5 93.999 15s55.666 24.167 78.999 42.5s43 40.166 59 65.499s27 53.333 33 84z" />
    <glyph glyph-name="maitaikhuthai" unicode="&#xe47;" 
d="M-762 2504c0 -20 3.49902 -37.833 10.499 -53.5s16.333 -29 28 -40s25 -19.333 40 -25s30.167 -8.5 45.5 -8.5c21.333 0 39.833 4.33301 55.5 13s28.667 19.834 39 33.5c10.333 13.667 17.666 28.834 21.999 45.5c4.33301 16.667 5.83301 33.334 4.5 50h296
c2 -61.333 -5.16699 -118.5 -21.5 -171.5s-40.833 -99 -73.5 -138s-73.167 -69.667 -121.5 -92s-103.5 -33.5 -165.5 -33.5c-27.333 0 -54.833 3.16699 -82.5 9.5s-53.667 15.666 -78 28c-24.333 12.333 -46.166 27.333 -65.499 45s-34 38.167 -44 61.5
c-9.33301 -22.667 -22.833 -42.834 -40.5 -60.5c-17.667 -17.667 -37.5 -32.5 -59.5 -44.5s-45.833 -21.167 -71.5 -27.5s-51.167 -9.5 -76.5 -9.5c-72.667 0 -136.167 11.5 -190.5 34.5s-99.5 54 -135.5 93s-63 83.667 -81 134s-27 103.166 -27 158.5
c0 58.667 10.333 113.167 31 163.5s50.5 94 89.5 131s86.5 65.833 142.5 86.5s119 31 189 31h908v-294h-921c-18 0 -34.5 -3.33301 -49.5 -10s-28 -15.667 -39 -27s-19.667 -24.333 -26 -39s-9.5 -30.334 -9.5 -47c0 -18 3.33301 -34.667 10 -50s15.834 -28.5 27.501 -39.5
s25 -19.5 40 -25.5s30.5 -9 46.5 -9c14 0 28.333 2.66699 43 8s28 13.333 40 24s21.833 24 29.5 40s11.5 34.333 11.5 55h230z" />
    <glyph glyph-name="maiekthai" unicode="&#xe48;" 
d="M-627 3259h406v-374h-406v374z" />
    <glyph glyph-name="maithothai" unicode="&#xe49;" 
d="M-491 3316v-222h413v-271h-802v214h-230v279h619z" />
    <glyph glyph-name="maitrithai" unicode="&#xe4a;" 
d="M-1243 2847c-1.33301 10.667 -2.49707 21.667 -3.49707 33s-1.5 24 -1.5 38c0 53.333 7.83301 102.333 23.5 147s38.667 83.167 69 115.5s67.666 57.5 111.999 75.5s95.166 27 152.499 27c27.333 0 53.833 -4.16699 79.5 -12.5s49.167 -20 70.5 -35
s39.666 -33 54.999 -54s26.666 -44.5 33.999 -70.5c6.66699 26 18 49.5 34 70.5s34.833 39 56.5 54s45.334 26.667 71.001 35s51.167 12.5 76.5 12.5c42.667 0 80.5 -5.5 113.5 -16.5s61.5 -26.5 85.5 -46.5s43.167 -44.167 57.5 -72.5s23.833 -59.833 28.5 -94.5
c6.66699 1.33301 14.167 2.66602 22.5 4c8.33301 1.33301 16.166 2.33301 23.499 3c8 0.666992 16.333 1 25 1h63v-221h-303c-14 0 -26.667 3.5 -38 10.5s-17 19.167 -17 36.5c0 38 -8.33301 66.5 -25 85.5s-39 28.5 -67 28.5c-20.667 0 -37.5 -5.33301 -50.5 -16
s-22.833 -24 -29.5 -40s-10.667 -33.167 -12 -51.5s-0.333008 -34.833 3 -49.5h-248c2.66699 15.333 3.33398 32.166 2.00098 50.5c-1.33301 18.333 -5.33301 35.333 -12 51s-16.167 28.834 -28.5 39.5c-12.333 10.667 -28.5 16 -48.5 16
c-18 0 -33.167 -4.16699 -45.5 -12.5s-22 -19.166 -29 -32.5c-7 -13.333 -11.5 -28.166 -13.5 -44.5c-2 -16.333 -1.66699 -32.166 1 -47.5z" />
    <glyph glyph-name="maichattawathai" unicode="&#xe4b;" 
d="M-617 2987h-212v254h212v173h386v-173h212v-253h-212v-177h-386v176z" />
    <glyph glyph-name="thanthakhatthai" unicode="&#xe4c;" 
d="M-364 3000v-202h-419v282c0 24.667 4.16699 48.5 12.5 71.5s20.666 43.167 36.999 60.5s36.333 31.166 60 41.5c23.667 10.333 50.834 15.5 81.501 15.5h560v-269h-332z" />
    <glyph glyph-name="nikhahitthai" unicode="&#xe4d;" 
d="M-826 2361c0 48 8.83301 93 26.5 135s42.334 78.667 74.001 110s69 56 112 74s90.167 27 141.5 27s98.5 -9 141.5 -27s80 -42.667 111 -74s55.167 -68 72.5 -110s26 -87 26 -135c0 -47.333 -8.66699 -92 -26 -134s-41.5 -78.5 -72.5 -109.5s-68 -55.5 -111 -73.5
s-90.167 -27 -141.5 -27s-98.5 9 -141.5 27s-80.333 42.5 -112 73.5s-56.334 67.5 -74.001 109.5s-26.5 86.667 -26.5 134zM-472 2447c-24.667 0 -45.334 -8 -62.001 -24s-25 -36.667 -25 -62c0 -22.667 8.33301 -42.167 25 -58.5s37.334 -24.5 62.001 -24.5
s45.334 8.16699 62.001 24.5s25 35.833 25 58.5c0 25.333 -8.33301 46 -25 62s-37.334 24 -62.001 24z" />
    <glyph glyph-name="yamakkanthai" unicode="&#xe4e;" 
d="M-778 2519c10 32.667 24.335 61.667 43.002 87s39.667 46.333 63 63s48.333 28.834 75 36.5c26.667 7.66699 53 10.167 79 7.5c-22.667 18.667 -41.167 41.167 -55.5 67.5s-24.5 53.833 -30.5 82.5s-7.66699 57.834 -5 87.5c2.66699 29.667 9.66699 57.5 21 83.5
c20.667 48 46.667 85.833 78 113.5s65 47.167 101 58.5s73.5 15.333 112.5 12s76.833 -11.333 113.5 -24c16 -5.33301 32.5 -12 49.5 -20s33.167 -16 48.5 -24l-92 -241c-84 48.667 -137.667 42.334 -161 -19v1c-10.667 -34 -8.5 -64 6.5 -90s43.5 -45.333 85.5 -58
l-84 -245c-18.667 8.66699 -36.667 15 -54 19s-33.5 4.83301 -48.5 2.5s-28 -8.33301 -39 -18s-19.5 -23.5 -25.5 -41.5s-6 -34.667 0 -50s15.5 -29 28.5 -41s28 -21.833 45 -29.5s34.167 -12.5 51.5 -14.5l-48 -231c-56.667 3.33301 -110.334 16.166 -161.001 38.5
c-50.667 22.333 -93.334 52.333 -128.001 90s-59 81.667 -73 132s-12.667 105.166 4 164.5z" />
    <glyph glyph-name="fongmanthai" unicode="&#xe4f;" horiz-adv-x="1855" 
d="M130 933c0 76 9.5 148.332 28.5 216.999s45.833 132.334 80.5 191.001s76.334 111.5 125.001 158.5s102.667 87 162 120s123.5 58.333 192.5 76s140.833 26.5 215.5 26.5s146.5 -8.83301 215.5 -26.5s133.167 -43 192.5 -76s113.333 -73 162 -120
s90.334 -99.833 125.001 -158.5s61.5 -122.334 80.5 -191.001s28.5 -141 28.5 -217c0 -76.667 -9.5 -149.167 -28.5 -217.5s-45.833 -131.833 -80.5 -190.5s-76.334 -111.5 -125.001 -158.5s-102.667 -87 -162 -120s-123.5 -58.333 -192.5 -76s-140.833 -26.5 -215.5 -26.5
s-146.5 8.83301 -215.5 26.5s-133.167 43 -192.5 76s-113.333 73 -162 120s-90.334 99.833 -125.001 158.5s-61.5 122.334 -80.5 191.001s-28.5 141 -28.5 217zM1415 929.999c0 70 -12.5 134.167 -37.5 192.5s-59.167 108.5 -102.5 150.5s-94.166 74.5 -152.499 97.5
s-121.166 34.5 -188.499 34.5c-66.667 0 -129.167 -11.5 -187.5 -34.5s-109 -55.5 -152 -97.5s-77 -92.167 -102 -150.5s-37.5 -122.5 -37.5 -192.5c0 -69.333 12.5 -132.833 37.5 -190.5s59 -107.167 102 -148.5s93.667 -73.5 152 -96.5s120.833 -34.5 187.5 -34.5
c67.333 0 130.166 11.5 188.499 34.5s109.166 55.167 152.499 96.5s77.5 90.833 102.5 148.5s37.5 121.167 37.5 190.5zM1118 930.999c0 26 -4.83301 50.167 -14.5 72.5s-22.834 41.5 -39.501 57.5s-36.167 28.667 -58.5 38s-46.166 14 -71.499 14s-49.333 -4.66699 -72 -14
s-42.334 -22 -59.001 -38s-29.834 -35.167 -39.501 -57.5s-14.5 -46.5 -14.5 -72.5s4.83301 -50 14.5 -72s22.834 -41.167 39.501 -57.5s36.334 -29 59.001 -38s46.667 -13.5 72 -13.5s49.166 4.5 71.499 13.5s41.833 21.667 58.5 38s29.834 35.5 39.501 57.5
s14.5 46 14.5 72z" />
    <glyph glyph-name="zerothai" unicode="&#xe50;" horiz-adv-x="2177" 
d="M201 807c0 118.667 21.999 228.169 65.999 328.502s105.5 187 184.5 260s172.667 130 281 171s227.166 61.5 356.499 61.5c132.667 0 253.667 -20.333 363 -61s202.833 -97.334 280.5 -170.001s137.834 -159.334 180.501 -260.001s64 -210.667 64 -330
c0 -78 -10.333 -152.333 -31 -223s-50 -136.667 -88 -198s-83.833 -116.833 -137.5 -166.5s-113.5 -92 -179.5 -127s-137 -62.167 -213 -81.5s-155.667 -29 -239 -29c-85.333 0 -166.333 9.5 -243 28.5s-148 46.167 -214 81.5s-125.5 77.833 -178.5 127.5
s-98.167 105.167 -135.5 166.5s-66.166 127.333 -86.499 198s-30.5 145 -30.5 223zM1483 804.002c0 56 -10.332 107.833 -30.999 155.5s-48.834 88.834 -84.501 123.501s-77.5 61.834 -125.5 81.501s-99.333 29.5 -154 29.5s-105.834 -9.83301 -153.501 -29.5
s-89.334 -46.834 -125.001 -81.501s-63.667 -75.834 -84 -123.501s-30.5 -99.5 -30.5 -155.5c0 -55.333 10.333 -106.666 31 -153.999s48.834 -88.333 84.501 -123s77.334 -61.834 125.001 -81.501s98.5 -29.5 152.5 -29.5s104.833 9.83301 152.5 29.5
s89.5 46.834 125.5 81.501s64.5 75.667 85.5 123s31.5 98.666 31.5 153.999z" />
    <glyph glyph-name="onethai" unicode="&#xe51;" horiz-adv-x="2177" 
d="M1046 1194c-51.333 0 -96.3311 -5.66504 -134.998 -16.998s-71 -26.166 -97 -44.499s-45.5 -39 -58.5 -62s-19.5 -45.833 -19.5 -68.5c0 -21.333 3.66699 -39.833 11 -55.5s16.666 -28.834 27.999 -39.501s24.333 -18.5 39 -23.5s29.334 -7.5 44.001 -7.5
c23.333 0 46.166 3.66699 68.499 11s43.166 22.666 62.499 45.999l188 -335c-52 -46.667 -108.667 -79 -170 -97s-124 -27 -188 -27c-44.667 0 -90.167 4.33301 -136.5 13s-91.166 22.167 -134.499 40.5s-84.166 41.833 -122.499 70.5s-71.666 62.834 -99.999 102.501
s-50.833 85.334 -67.5 137.001s-25 109.5 -25 173.5c0 50 8 100.167 24 150.5s39.5 98.333 70.5 144s69.5 88.167 115.5 127.5s99.167 73.5 159.5 102.5s127.5 51.667 201.5 68s154.667 24.5 242 24.5c132 0 252.667 -20.333 362 -61s203 -97.167 281 -169.5
s138.5 -158.666 181.5 -258.999s64.5 -209.833 64.5 -328.5c0 -122 -21 -234 -63 -336s-102.5 -189.5 -181.5 -262.5s-175.5 -129.167 -289.5 -168.5s-242.667 -57 -386 -53l-842 15l148 364l646 -6c80 -2 149.667 8.83301 209 32.5s108.666 56.167 147.999 97.5
s68.666 89.166 87.999 143.499s29 111.166 29 170.499c0 55.333 -10.333 106.666 -31 153.999s-48.834 88.166 -84.501 122.499s-77.5 61.333 -125.5 81s-99.333 29.5 -154 29.5z" />
    <glyph glyph-name="twothai" unicode="&#xe52;" horiz-adv-x="2177" 
d="M1327 1459c28 0 54.1758 4.16504 78.5088 12.498s46.166 20 65.499 35s35.666 33 48.999 54s23 44.167 29 69.5c68 -12.667 130.167 -35 186.5 -67s104.666 -70.667 144.999 -116s71.666 -96 93.999 -152s33.5 -114.333 33.5 -175v-569
c0 -39.333 -4.83301 -80.166 -14.5 -122.499s-24.334 -84 -44.001 -125s-44.5 -79.833 -74.5 -116.5s-65.5 -68.834 -106.5 -96.501s-87.833 -49.667 -140.5 -66s-111 -24.5 -175 -24.5h-756c-64 0 -122.333 8.16699 -175 24.5s-100 38.333 -142 66
s-78.333 59.834 -109 96.501s-56.334 75.5 -77.001 116.5s-36 82.667 -46 125s-15 83.166 -15 122.499v1450h495v-1404c0 -38 5 -71.667 15 -101s24 -53.666 42 -72.999s39.167 -34 63.5 -44s50.5 -15 78.5 -15h507c28.667 0 54.834 5 78.501 15s44.167 24.667 61.5 44
s30.833 43.666 40.5 72.999s14.5 63 14.5 101v390c0 34.667 -4 61.334 -12 80.001s-20.667 34.334 -38 47.001c-16.667 -19.333 -37 -34.833 -61 -46.5s-54 -17.5 -90 -17.5c-40.667 0 -73.834 6.5 -99.501 19.5s-46.5 27.833 -62.5 44.5
c-24.667 -12 -37.334 -34 -38.001 -66c-0.666992 -26.667 8.83301 -50.5 28.5 -71.5s47.167 -35.167 82.5 -42.5l-190 -344c-52 15.333 -99.833 39 -143.5 71s-81.5 70.833 -113.5 116.5s-57 97.167 -75 154.5s-27 119 -27 185c0 61.333 9.5 119.333 28.5 174
s46.5 104.334 82.5 149.001s79.667 83.167 131 115.5s109 57.166 173 74.499c6 -25.333 15.667 -48.5 29 -69.5s29.666 -39 48.999 -54s41.166 -26.667 65.499 -35s50.5 -12.5 78.5 -12.5z" />
    <glyph glyph-name="threethai" unicode="&#xe53;" horiz-adv-x="2177" 
d="M1085 974c-75.333 0 -139.329 11.3311 -191.996 33.998s-99 55.334 -139 98.001c-14.667 -6.66699 -28.334 -20.667 -41.001 -42s-19 -46 -19 -74v-393c0 -38 5 -71.667 15 -101s24 -53.666 42 -72.999s39.167 -34 63.5 -44s50.833 -15 79.5 -15h203v-364h-334
c-64 0 -122.333 8.16699 -175 24.5s-99.834 38.333 -141.501 66s-78 59.834 -109 96.501s-56.833 75.5 -77.5 116.5s-36 82.667 -46 125s-15 83.166 -15 122.499v529c0 72 14.5 140.333 43.5 205s70.333 121.834 124 171.501s118.5 89.834 194.5 120.501
s161 48.334 255 53.001c8 -34 20.167 -64.667 36.5 -92s36.333 -50.5 60 -69.5s50.167 -33.667 79.5 -44s60.666 -15.5 93.999 -15.5c68 0.666992 125.5 20.667 172.5 60s78.167 93.333 93.5 162c100.667 -5.33301 189.5 -22.833 266.5 -52.5s141.667 -68.834 194 -117.501
s91.833 -105.334 118.5 -170.001s40 -135 40 -211v-1080h-495v990c0 28 -6.33301 52.667 -19 74s-26.334 35.333 -41.001 42c-40 -42.667 -86.333 -75.334 -139 -98.001s-116.667 -34 -192 -34z" />
    <glyph glyph-name="fourthai" unicode="&#xe54;" horiz-adv-x="2177" 
d="M1670 752c-36.667 -21.333 -63.165 -45 -79.498 -71s-24.5 -53.333 -24.5 -82c0 -34.667 9.16699 -66.834 27.5 -96.501s42.166 -55.167 71.499 -76.5s62.333 -38.166 99 -50.499s73.334 -18.5 110.001 -18.5h51v-357h-928c-102 4 -192.833 19.333 -272.5 46
s-149.334 61 -209.001 103s-110.167 90.167 -151.5 144.5s-74.833 111 -100.5 170s-44.334 118.667 -56.001 179s-17.5 117.833 -17.5 172.5c0 76.667 9.33301 149.834 28 219.501s45.334 134.5 80.001 194.5s76.5 114.5 125.5 163.5s103.667 90.667 164 125
s125.833 60.833 196.5 79.5s144.667 28 222 28h93c35.333 0 72.166 -0.166992 110.499 -0.5s76.5 -0.5 114.5 -0.5h105v377h495l1 -757h-344h-140.5c-47.667 0 -93.167 0.166992 -136.5 0.5s-83.5 0.5 -120.5 0.5h-91.5c-26.667 0 -55.167 -3.5 -85.5 -10.5
s-60.333 -17.667 -90 -32s-58.167 -33 -85.5 -56s-51.5 -50.333 -72.5 -82s-37.667 -68.334 -50 -110.001s-18.5 -88.5 -18.5 -140.5c0 -53.333 6.33301 -101.5 19 -144.5s29.5 -81.167 50.5 -114.5s45.333 -62 73 -86s56.334 -43.833 86.001 -59.5s59.5 -27.167 89.5 -34.5
s58 -11 84 -11c8 0 19.833 -0.333008 35.5 -1s32.5 -1.66699 50.5 -3s36 -3.16602 54 -5.49902s33.333 -4.83301 46 -7.5c-30 18 -55.833 39.833 -77.5 65.5s-39.5 53.167 -53.5 82.5s-24.167 59.666 -30.5 90.999s-9.5 62 -9.5 92c0 50.667 8.5 98.167 25.5 142.5
s40.333 84 70 119s64.167 64.667 103.5 89s81.666 41.833 126.999 52.5z" />
    <glyph glyph-name="fivethai" unicode="&#xe55;" horiz-adv-x="2177" 
d="M1670 752c-36.667 -21.333 -63.166 -45.002 -79.499 -71.002s-24.5 -53.333 -24.5 -82c0 -34.667 9.16699 -66.834 27.5 -96.501s42.166 -55.167 71.499 -76.5s62.333 -38.166 99 -50.499s73.334 -18.5 110.001 -18.5h51v-357h-928c-102 4 -192.833 19 -272.5 45
s-149.334 59.833 -209.001 101.5s-110.167 89 -151.5 142s-74.833 108.667 -100.5 167s-44.334 117.5 -56.001 177.5s-17.5 117.333 -17.5 172c0 106.667 17.833 205.834 53.5 297.501s85.167 172.5 148.5 242.5s138.666 127 225.999 171s183 71.667 287 83
c-1.33301 10 -2.33301 20.667 -3 32s-1 22 -1 32c0 54 9.83301 103.667 29.5 149s47.167 84.333 82.5 117s77.333 58.167 126 76.5s102.334 27.5 161.001 27.5s112.5 -9.16699 161.5 -27.5s91.333 -43.833 127 -76.5s63.334 -71.667 83.001 -117s29.5 -95 29.5 -149
c0 -8.66699 -0.333008 -18 -1 -28s-1.66699 -20.333 -3 -31h228v-380h-344h-140.5c-47.667 0 -93.167 0.166992 -136.5 0.5s-83.5 0.5 -120.5 0.5h-91.5c-26.667 0 -55.167 -3.16699 -85.5 -9.5s-60.333 -16.5 -90 -30.5s-58.167 -31.833 -85.5 -53.5
s-51.5 -48.167 -72.5 -79.5s-37.667 -67.5 -50 -108.5s-18.5 -87.5 -18.5 -139.5c0 -53.333 6.33301 -101.166 19 -143.499s29.5 -79.833 50.5 -112.5s45.333 -60.667 73 -84s56.334 -42.333 86.001 -57s59.5 -25.5 89.5 -32.5s58 -10.5 84 -10.5
c8 0 19.833 -0.333008 35.5 -1s32.5 -1.66699 50.5 -3s36 -3.16602 54 -5.49902s33.333 -4.83301 46 -7.5c-30 18 -55.833 39.833 -77.5 65.5s-39.5 53.167 -53.5 82.5s-24.167 59.666 -30.5 90.999s-9.5 62 -9.5 92c0 50.667 8.5 98.167 25.5 142.5s40.333 84 70 119
s64.167 64.667 103.5 89s81.666 41.833 126.999 52.5zM1302 1749c-28 0 -51.667 -9 -71 -27s-29 -41 -29 -69c0 -12.667 2.5 -24.667 7.5 -36s12 -21.166 21 -29.499s19.667 -15 32 -20s25.5 -7.5 39.5 -7.5c13.333 0 25.833 2.5 37.5 7.5s21.834 11.667 30.501 20
s15.5 18.166 20.5 29.499s7.5 23.333 7.5 36c0 28 -9.33301 51 -28 69s-41.334 27 -68.001 27z" />
    <glyph glyph-name="sixthai" unicode="&#xe56;" horiz-adv-x="2177" 
d="M695 705c10.667 -42.667 27.999 -81.668 51.999 -117.001s52.833 -65.833 86.5 -91.5s71.167 -45.5 112.5 -59.5s84.666 -21 129.999 -21c54 0 104.833 9.83301 152.5 29.5s89.5 46.834 125.5 81.501s64.5 75.667 85.5 123s31.5 98.666 31.5 153.999
c0 56 -10.333 107.833 -31 155.5s-48.834 88.834 -84.501 123.501s-77.5 61.834 -125.5 81.501s-99.333 29.5 -154 29.5c-40.667 0 -79.5 -5.5 -116.5 -16.5s-71 -26.5 -102 -46.5s-58.667 -44 -83 -72s-43.833 -59.333 -58.5 -94l-455 222v814h495v-332
c0 -18 -1.16699 -37.667 -3.5 -59s-5.16602 -41.666 -8.49902 -60.999c42.667 22 90.834 40.667 144.501 56s116.5 23 188.5 23c132.667 0 253.667 -20.333 363 -61s202.833 -97.334 280.5 -170.001s137.834 -159.334 180.501 -260.001s64 -210.667 64 -330
c0 -78 -10.333 -152.333 -31 -223s-50 -136.667 -88 -198s-83.833 -116.833 -137.5 -166.5s-113.5 -92 -179.5 -127s-137 -62.167 -213 -81.5s-155.667 -29 -239 -29c-102 0 -198.5 13.333 -289.5 40s-173.833 64.167 -248.5 112.5s-139.167 106.5 -193.5 174.5
s-95.833 143 -124.5 225z" />
    <glyph glyph-name="seventhai" unicode="&#xe57;" horiz-adv-x="2267" 
d="M1032 1631c84 -15.333 156.499 -39.6709 217.499 -73.0039s111.333 -72.666 151 -117.999s69.167 -95.5 88.5 -150.5s29 -111.5 29 -169.5v-578c0 -21.333 -1.16699 -39.5 -3.5 -54.5s-6.83301 -29.167 -13.5 -42.5c14 1.33301 29.333 5.33301 46 12
s32.5 16.167 47.5 28.5s27.5 27.833 37.5 46.5s15 40.334 15 65.001v1404h483v-1318c0 -63.333 -9.5 -124.333 -28.5 -183s-45.667 -113.167 -80 -163.5s-75.5 -96.166 -123.5 -137.499s-101.167 -76.833 -159.5 -106.5s-120.833 -52.5 -187.5 -68.5s-135.667 -24 -207 -24
h-295v1086c0 25.333 -5 45.666 -15 60.999s-23.667 24.666 -41 27.999c-17.333 -24 -37.833 -43.667 -61.5 -59s-53.167 -23 -88.5 -23c-36 0 -66.167 7.66699 -90.5 23s-44.166 35 -59.499 59c-16 -3.33301 -29.167 -12.666 -39.5 -27.999s-15.5 -35.666 -15.5 -60.999
v-529c0 -35.333 4.66699 -65.166 14 -89.499s21.5 -44.166 36.5 -59.499s32.167 -26.5 51.5 -33.5s39 -10.5 59 -10.5h37v-364h-129c-64 0 -122.333 8.16699 -175 24.5s-100 38.333 -142 66s-78.333 59.834 -109 96.501s-56.334 75.5 -77.001 116.5s-36 82.667 -46 125
s-15 83.166 -15 122.499l1 544c0 63.333 10.833 124.166 32.5 182.499s53.834 111.166 96.501 158.499s95.667 87.833 159 121.5s136.333 57.834 219 72.501c16.667 -51.333 41.5 -91.333 74.5 -120s72.833 -43 119.5 -43c46 0 84.333 14.667 115 44s54.667 69.333 72 120z
" />
    <glyph glyph-name="eightthai" unicode="&#xe58;" horiz-adv-x="2177" 
d="M655 815c0 -38.667 2.99609 -73.665 8.99609 -104.998s14.167 -59.5 24.5 -84.5s22.166 -47.167 35.499 -66.5s27.333 -36.666 42 -51.999c40 42.667 86.333 75.334 139 98.001s116.667 34 192 34s139.333 -11.333 192 -34s99 -55.334 139 -98.001
c14.667 6.66699 28.334 20.667 41.001 42s19 46 19 74v115h495v-165c0 -76 -13.333 -148.5 -40 -217.5s-66.167 -130.167 -118.5 -183.5s-117 -97 -194 -131s-165.833 -53.667 -266.5 -59c-15.333 68.667 -46.5 122.667 -93.5 162s-104.5 59.333 -172.5 60
c-33.333 0 -64.666 -4.83301 -93.999 -14.5s-55.666 -23.834 -78.999 -42.501s-43.166 -41.334 -59.499 -68.001s-28.5 -57 -36.5 -91c-86 13.333 -162.167 36 -228.5 68s-124.5 70.167 -174.5 114.5s-92.167 93.333 -126.5 147s-62.333 109 -84 166
s-37.167 113.833 -46.5 170.5s-14 110.334 -14 161.001c0 76.667 9.33301 150 28 220s45.334 135 80.001 195s76.5 114.333 125.5 163s103.667 90.167 164 124.5s125.833 60.833 196.5 79.5s144.667 28 222 28l505 -1v377h495l1 -757l-915 1
c-26.667 0 -55.167 -3.33301 -85.5 -10s-60.333 -17.334 -90 -32.001s-58.167 -33.334 -85.5 -56.001s-51.5 -50 -72.5 -82s-37.667 -68.667 -50 -110s-18.5 -88 -18.5 -140z" />
    <glyph glyph-name="ninethai" unicode="&#xe59;" horiz-adv-x="2177" 
d="M1476 1623l-0.000976562 377.002h495l1 -757l-316 1c46 -47.333 88.667 -111.166 128 -191.499s73.5 -174 102.5 -281s51.667 -225.5 68 -355.5s24.5 -268.333 24.5 -415l-475 -2c3.33301 192 -7.16699 364.667 -31.5 518s-59.5 283.666 -105.5 390.999
s-101 189.666 -165 246.999s-133.333 86.333 -208 87c-48.667 0 -94 -9.33301 -136 -28s-78.5 -45.834 -109.5 -81.501s-55.333 -79.5 -73 -131.5s-26.5 -111 -26.5 -177c0 -62 4.66699 -118.667 14 -170s22.666 -95.333 39.999 -132s38.166 -65 62.499 -85
s51.833 -30 82.5 -30c14 0 27.5 2.83301 40.5 8.5s25.167 14.5 36.5 26.5s21 27.5 29 46.5s14 41.5 18 67.5l446 -43c-10 -79.333 -29.667 -151.333 -59 -216s-67.833 -120.167 -115.5 -166.5s-104.667 -82.166 -171 -107.499s-141.833 -38 -226.5 -38
c-64.667 0 -126.667 8.83301 -186 26.5s-114.833 43.5 -166.5 77.5s-98.5 75.167 -140.5 123.5s-78.167 103.5 -108.5 165.5s-53.666 129.833 -69.999 203.5s-24.5 152.5 -24.5 236.5c0 70.667 7.83301 139.834 23.5 207.501s39.667 131.667 72 192
s72.833 115.666 121.5 165.999s105.834 93.666 171.501 129.999s140.334 64.333 224.001 84s176.167 29.167 277.5 28.5z" />
    <glyph glyph-name="angkhankhuthai" unicode="&#xe5a;" horiz-adv-x="2590" 
d="M1864 0h530v1865h-530v-1865zM1025 1869l-55 -436.002c-6.66699 2.66699 -15 4.5 -25 5.5s-16.667 1.5 -20 1.5c-29.333 0 -56.333 -5.16699 -81 -15.5s-46.167 -24.833 -64.5 -43.5s-32.666 -41 -42.999 -67s-15.5 -54.667 -15.5 -86s5.16699 -60.666 15.5 -87.999
s24.666 -51.166 42.999 -71.499s39.833 -36.333 64.5 -48s51.667 -17.5 81 -17.5c52 0 97.333 13.5 136 40.5s64.667 67.167 78 120.5v704h530v-1868h-530v377c0 24 0.166992 49.333 0.5 76s1.16602 51 2.49902 73c0.666992 26 1.66699 51.333 3 76
c-19.333 -13.333 -40.166 -24.166 -62.499 -32.499s-45.333 -14.833 -69 -19.5s-47 -7.66699 -70 -9s-44.833 -2 -65.5 -2c-60 0 -118.5 8 -175.5 24s-110.5 38.5 -160.5 67.5s-95.833 64.167 -137.5 105.5s-77.5 87.166 -107.5 137.499s-53.333 104.666 -70 162.999
s-25 119.5 -25 183.5c0 100.667 18.5 191.667 55.5 273s87.667 150.5 152 207.5s139.833 100.833 226.5 131.5s180 46 280 46c14 0 30.5 -0.666992 49.5 -2s38.833 -3.66602 59.5 -6.99902z" />
    <glyph glyph-name="khomutthai" unicode="&#xe5b;" horiz-adv-x="3571" 
d="M2131 849l208.999 356h1048v-383h-788l-70 -117.5l-72.5 -121.5l-72.5 -121l-69 -116h-369l-240 400l-46 -77c-39.333 -65.333 -82.833 -125.333 -130.5 -180s-102.334 -101.667 -164.001 -141s-131.167 -70 -208.5 -92s-165 -33 -263 -33
c-66.667 0 -131.834 8 -195.501 24s-124 39 -181 69s-109.667 66.333 -158 109s-90 90.667 -125 144s-62.333 111.333 -82 174s-29.5 129.334 -29.5 200.001c0 74 9.16699 143 27.5 207s44 122.167 77 174.5s72.833 99 119.5 140s98.5 75.333 155.5 103
s118 48.834 183 63.501s132.833 22 203.5 22c138.667 0 261.667 -33 369 -99l-134 -385c-24 16 -45.667 28.667 -65 38s-38.166 16.5 -56.499 21.5s-36.666 8.16699 -54.999 9.5s-38.166 2 -59.499 2c-31.333 0 -63.5 -6.33301 -96.5 -19s-63 -31.5 -90 -56.5
s-49.333 -56 -67 -93s-26.5 -79.5 -26.5 -127.5c0 -46.667 9 -88.334 27 -125.001s41 -67.667 69 -93s59 -44.833 93 -58.5s67 -20.834 99 -21.501c79.333 -2 149.333 17.5 210 58.5s117.667 104.167 171 189.5l425 675z" />
    <glyph glyph-name="ZWSP" unicode="&#x200b;" 
 />
    <glyph glyph-name="endash" unicode="&#x2013;" horiz-adv-x="1741" 
d="M1712 1058v-409h-1681v409h1681z" />
    <glyph glyph-name="emdash" unicode="&#x2014;" horiz-adv-x="3482" 
d="M3461 1058v-409h-3430v409h3430z" />
    <glyph glyph-name="quoteleft" unicode="&#x2018;" horiz-adv-x="902" 
d="M68 1862l335 873l395 -138l-237 -904z" />
    <glyph glyph-name="quoteright" unicode="&#x2019;" horiz-adv-x="902" 
d="M825 2524l-335 -873l-395 138l237 904z" />
    <glyph glyph-name="quotedblleft" unicode="&#x201c;" horiz-adv-x="1561" 
d="M803 1818l335 873l395 -138l-237 -904zM23 1818l335 873l395 -138l-237 -904z" />
    <glyph glyph-name="quotedblright" unicode="&#x201d;" horiz-adv-x="1561" 
d="M755 2524l-335 -873l-395 138l237 904zM1535 2524l-335 -873l-395 138l237 904z" />
    <glyph glyph-name="bullet" unicode="&#x2022;" horiz-adv-x="1802" 
d="M903 1591c62.667 0 122.334 -7.83301 179.001 -23.5s109.167 -37.834 157.5 -66.501s92.166 -63 131.499 -103s72.666 -84.5 99.999 -133.5s48.5 -101.5 63.5 -157.5s22.5 -114 22.5 -174s-7.5 -117.667 -22.5 -173s-36.167 -107.166 -63.5 -155.499
s-60.666 -92.5 -99.999 -132.5s-83.166 -74.333 -131.499 -103s-100.833 -50.834 -157.5 -66.501s-116.334 -23.5 -179.001 -23.5c-94 0 -181.167 17.333 -261.5 52s-149.833 81.667 -208.5 141s-104.667 128.666 -138 207.999s-50 163.666 -50 252.999
c0 90.667 16.667 175.834 50 255.501s79.333 149.334 138 209.001s128.167 106.834 208.5 141.501s167.5 52 261.5 52z" />
    <glyph glyph-name="Euro" unicode="&#x20ac;" horiz-adv-x="2099" 
d="M1950 655l-0.000976562 -524.998c-26 -22 -57.167 -42.5 -93.5 -61.5s-77.166 -35.667 -122.499 -50s-95.166 -25.666 -149.499 -33.999s-112.166 -12.5 -173.499 -12.5c-125.333 0 -243.333 15.667 -354 47s-212 76.333 -304 135s-173.333 129.5 -244 212.5
s-128.334 176.167 -173.001 279.5h-310l116 367h98c-6 37.333 -9.16699 75.5 -9.5 114.5s1.5 77.5 5.5 115.5h-210l116 367h166c40.667 110.667 96 212.167 166 304.5s152.167 171.833 246.5 238.499c94.333 66.667 199.666 118.334 315.999 155
c116.333 36.667 241.166 55 374.499 55c58 0 114.167 -4.66699 168.5 -14s104.5 -21.333 150.5 -36s86.5 -30.834 121.5 -48.5c35 -17.667 62.167 -34.834 81.5 -51.501v-549h-14c-30 38 -63.667 72.167 -101 102.5s-77.833 56.166 -121.5 77.499s-90.167 38 -139.5 50
s-100.333 18.333 -153 19c-57.333 0.666992 -112.5 -5.83301 -165.5 -19.5s-103 -33.667 -150 -60s-90.5 -58.5 -130.5 -96.5s-75.333 -80.333 -106 -127h866l-122 -367h-860c-4.66699 -39.333 -6 -77.5 -4 -114.5s7.66699 -75.5 17 -115.5h804l-118 -367h-509
c32 -36 67 -68.333 105 -97s77.833 -52.834 119.5 -72.501s84.5 -34.667 128.5 -45s88.667 -15.166 134 -14.499c106.667 1.33301 205.334 22.333 296.001 63s166 99 226 175h15z" />
    <glyph glyph-name="trademark" unicode="&#x2122;" horiz-adv-x="2802" 
d="M1555 2323l384 -850l398 850h190v-1248h-221v681l-167 -350l-163 -343h-75l-323 690v-678h-222v1248h199zM1139 2323h-975v-219h375v-1029h226v1029h374v219z" />
    <glyph glyph-name="uni25CC" unicode="&#x25cc;" horiz-adv-x="1876" 
d="M1512 1734l-109 -301c-24.667 42 -54.5 80 -89.5 114s-73.833 62.667 -116.5 86zM940 1961l142 -281.999c-22 6 -44.667 10.667 -68 14s-47 5 -71 5c-26 0 -51.333 -1.83301 -76 -5.5s-48.667 -8.83398 -72 -15.501zM369 612.001l107.001 297
c23.333 -42 51.666 -80.167 84.999 -114.5s71 -63.833 113 -88.5zM150.001 1176l282 139c-14 -48 -21 -97.667 -21 -149c0 -45.333 5.66699 -90 17 -134zM405.001 1734l286.001 -99.998c-42 -22.667 -80.333 -50.334 -115 -83.001s-64.334 -69.334 -89.001 -110.001z
M1736 1163l-276.001 -122c4.66699 20 8.33398 40.5 11.001 61.5s4 42.167 4 63.5c0 48.667 -6.66699 96.667 -20 144zM941.001 376.003l-136 276c44 -12 90 -18 138 -18c44 0 86.667 5 128 15zM1476 614.003l-277 84.999c40.667 22.667 77.667 49.834 111 81.501
s62.333 67.5 87 107.5z" />
    <glyph glyph-name="thothannobasethai" unicode="&#xf700;" horiz-adv-x="1652" 
d="M663 1889c59.333 0 110.336 -5.33105 153.003 -15.998s76.667 -24 102 -40v153h519v-1986h-541v567h-418v416h418v255c0 39.333 -4.66699 73.166 -14 101.499s-22.166 51.5 -38.499 69.5s-36 31.333 -59 40s-48.5 13 -76.5 13c-20.667 0 -42.334 -3.33301 -65.001 -10
s-43.334 -18.334 -62.001 -35.001s-34.167 -39 -46.5 -67s-18.5 -63.333 -18.5 -106l-527 66c12.667 93.333 40 176 82 248s93.667 132.5 155 181.5s129.666 86.167 204.999 111.5s152.666 38 231.999 38z" />
    <glyph glyph-name="yoyingnobasethai" unicode="&#xf70f;" horiz-adv-x="2778" 
d="M2563 614c0 -102 -17.501 -192.497 -52.501 -271.497s-84 -145.5 -147 -199.5s-138.333 -94.833 -226 -122.5s-184.167 -41.5 -289.5 -41.5s-201.833 13.833 -289.5 41.5s-163 68.5 -226 122.5s-111.833 120.5 -146.5 199.5s-52 169.5 -52 271.5v621
c0 42.667 -5.5 78.667 -16.5 108s-25.5 52.666 -43.5 69.999s-38.667 29.833 -62 37.5s-47.666 11.5 -72.999 11.5c-20 0 -41 -3.66699 -63 -11s-42 -19.666 -60 -36.999s-33 -40.833 -45 -70.5s-18 -66.5 -18 -110.5v-1233h-540v1245c0 63.333 9 123.166 27 179.499
s43.167 108.333 75.5 156s71 90.667 116 129s94.5 70.666 148.5 96.999s111.667 46.666 173 60.999s124.333 21.5 189 21.5c111.333 0 212.166 -16 302.499 -48s167.333 -76.667 231 -134s112.834 -125.833 147.501 -205.5s52 -167.167 52 -262.5l-1 -622
c0 -70 16.167 -122.667 48.5 -158s75.833 -53 130.5 -53c56 0 98.167 17.667 126.5 53s42.5 87.333 42.5 156v1253h541v-1254z" />
    <glyph glyph-name="saraulowthai" unicode="&#xf718;" 
d="M-220 -1135h-480v238h-224v246h704v-484z" />
    <glyph glyph-name="sarauulowthai" unicode="&#xf719;" 
d="M-196 -682c-15.333 -70 -39.4971 -132.833 -72.4971 -188.5s-73.667 -102.834 -122 -141.501s-104 -68.334 -167 -89.001s-131.833 -31 -206.5 -31s-143.334 10.333 -206.001 31s-118.167 50.334 -166.5 89.001s-89 85.834 -122 141.501s-57.167 118.5 -72.5 188.5
l352 80c5.33301 -30.667 14.666 -58.167 27.999 -82.5s29.833 -45.166 49.5 -62.499s41.5 -30.666 65.5 -39.999s49.333 -14 76 -14s52 4.66699 76 14s45.833 22.666 65.5 39.999s36.167 38.166 49.5 62.499s22.666 51.833 27.999 82.5z" />
    <glyph glyph-name="phinthulowthai" unicode="&#xf71a;" 
d="M-740 -876c0 36 7.33301 69.667 22 101s34.5 58.666 59.5 81.999s54.167 41.833 87.5 55.5s68.666 20.5 105.999 20.5c38.667 0 75 -6.83301 109 -20.5s63.667 -32.167 89 -55.5s45.333 -50.666 60 -81.999s22 -65 22 -101c0 -34.667 -7.33301 -67.5 -22 -98.5
s-34.667 -58 -60 -81s-55 -41.333 -89 -55s-70.333 -20.5 -109 -20.5c-37.333 0 -72.666 6.83301 -105.999 20.5s-62.5 32 -87.5 55s-44.833 50 -59.5 81s-22 63.833 -22 98.5z" />
    <glyph glyph-name="lochula.short" unicode="&#xf71d;" horiz-adv-x="2406" 
d="M2190 551c0 -87.333 -13.3291 -166.33 -39.9961 -236.997s-64.5 -130.834 -113.5 -180.501s-108.333 -88 -178 -115s-147.834 -40.5 -234.501 -40.5c-48.667 0 -95.834 6.5 -141.501 19.5s-87.334 31.167 -125.001 54.5s-70 51.666 -97 84.999s-46.5 70.333 -58.5 111
c-12.667 -40.667 -31.834 -77.667 -57.501 -111s-56.667 -61.833 -93 -85.5s-77.166 -42 -122.499 -55s-94 -19.5 -146 -19.5c-86.667 0 -165 13.5 -235 40.5s-129.833 65.5 -179.5 115.5s-87.834 110.333 -114.501 181s-40 149.667 -40 237v1317h541v-1372
c0 -30 7.83301 -54.5 23.5 -73.5s37.834 -28.5 66.501 -28.5c30 0 52.667 9.83301 68 29.5s23 47.5 23 83.5v621h531v-623c0 -34 8.66699 -61 26 -81s39.666 -30 66.999 -30c28 0 49.833 9.5 65.5 28.5s23.5 42.833 23.5 71.5l1 594c0 56.667 -8.5 108.334 -25.5 155.001
s-41.333 86.5 -73 119.5s-70.334 58.5 -116.001 76.5s-97.167 27 -154.5 27h-345v401h1386l-116 -388h-211c26.667 -12 51.834 -29.667 75.501 -53s44.5 -50.833 62.5 -82.5s32.167 -66.834 42.5 -105.501s15.5 -79.334 15.5 -122.001z" />
    <glyph glyph-name=".null" 
 />
    <glyph glyph-name="nonmarkingreturn" horiz-adv-x="1159" 
 />
    <glyph glyph-name="yamakkanleftthai" 
d="M-1365 2520c10 32.667 24.335 61.667 43.002 87s39.667 46.333 63 63s48.333 28.834 75 36.5c26.667 7.66699 53 10.167 79 7.5c-22.667 18.667 -41.167 41.167 -55.5 67.5s-24.5 53.833 -30.5 82.5s-7.66699 57.834 -5 87.5c2.66699 29.667 9.66699 57.5 21 83.5
c20.667 48 46.667 85.833 78 113.5s65 47.167 101 58.5s73.5 15.333 112.5 12s76.833 -11.333 113.5 -24c16 -5.33301 32.5 -12 49.5 -20s33.167 -16 48.5 -24l-92 -241c-84 48.667 -137.667 42.334 -161 -19c-10.667 -33.333 -8.5 -63 6.5 -89s43.5 -45.333 85.5 -58
l-84 -245c-18.667 8.66699 -36.667 15 -54 19s-33.5 4.83301 -48.5 2.5s-28 -8.33301 -39 -18s-19.5 -23.5 -25.5 -41.5s-6 -34.667 0 -50s15.5 -29 28.5 -41s28 -21.833 45 -29.5s34.167 -12.5 51.5 -14.5l-48 -231c-56.667 3.33301 -110.334 16.166 -161.001 38.5
c-50.667 22.333 -93.334 52.333 -128.001 90s-59 81.667 -73 132s-12.667 105.166 4 164.5z" />
    <glyph glyph-name="uni0E33.alt1" horiz-adv-x="1255" 
d="M1040 1l-539.997 0.00292969v1306c0 27.333 -3.83301 51.666 -11.5 72.999s-18.334 39.166 -32.001 53.499s-29.834 25.166 -48.501 32.499s-39 11 -61 11h-306l116 391h301c104.667 0 194 -13.167 268 -39.5s134.167 -64.333 180.5 -114s80.166 -109.667 101.499 -180
s32 -149.5 32 -237.5v-1296zM-1586 2401c0 48 8.83301 93 26.5 135s42.334 78.667 74.001 110s69 56 112 74s90.167 27 141.5 27s98.5 -9 141.5 -27s80 -42.667 111 -74s55.167 -68 72.5 -110s26 -87 26 -135c0 -47.333 -8.66699 -92 -26 -134s-41.5 -78.5 -72.5 -109.5
s-68 -55.5 -111 -73.5s-90.167 -27 -141.5 -27s-98.5 9 -141.5 27s-80.333 42.5 -112 73.5s-56.334 67.5 -74.001 109.5s-26.5 86.667 -26.5 134zM-1232 2487c-24.667 0 -45.334 -8 -62.001 -24s-25 -36.667 -25 -62c0 -22.667 8.33301 -42.167 25 -58.5
s37.334 -24.5 62.001 -24.5s45.334 8.16699 62.001 24.5s25 35.833 25 58.5c0 25.333 -8.33301 46 -25 62s-37.334 24 -62.001 24z" />
    <glyph glyph-name="saraamleft" horiz-adv-x="1255" 
d="M1040 1l-539.997 0.00292969v1306c0 27.333 -3.83301 51.666 -11.5 72.999s-18.334 39.166 -32.001 53.499s-29.834 25.166 -48.501 32.499s-39 11 -61 11h-306l116 391h301c104.667 0 194 -13.167 268 -39.5s134.167 -64.333 180.5 -114s80.166 -109.667 101.499 -180
s32 -149.5 32 -237.5v-1296zM-1586 2401c0 48 8.83301 93 26.5 135s42.334 78.667 74.001 110s69 56 112 74s90.167 27 141.5 27s98.5 -9 141.5 -27s80 -42.667 111 -74s55.167 -68 72.5 -110s26 -87 26 -135c0 -47.333 -8.66699 -92 -26 -134s-41.5 -78.5 -72.5 -109.5
s-68 -55.5 -111 -73.5s-90.167 -27 -141.5 -27s-98.5 9 -141.5 27s-80.333 42.5 -112 73.5s-56.334 67.5 -74.001 109.5s-26.5 86.667 -26.5 134zM-1232 2487c-24.667 0 -45.334 -8 -62.001 -24s-25 -36.667 -25 -62c0 -22.667 8.33301 -42.167 25 -58.5
s37.334 -24.5 62.001 -24.5s45.334 8.16699 62.001 24.5s25 35.833 25 58.5c0 25.333 -8.33301 46 -25 62s-37.334 24 -62.001 24z" />
    <glyph glyph-name="maiekthai.alt5" 
d="M-667 3083h446v-403h-446v403z" />
    <glyph glyph-name="maithothai.alt5" 
d="M-471 3153v-243h453v-270h-842v234h-230v279h619z" />
    <glyph glyph-name="maitrithai.alt5" 
d="M-1367 2635c-1.33301 10.667 -2.49707 21.667 -3.49707 33s-1.5 24 -1.5 38c0 53.333 7.83301 102.333 23.5 147s38.667 83.167 69 115.5s67.666 57.5 111.999 75.5s95.166 27 152.499 27c27.333 0 53.833 -4.16699 79.5 -12.5s49.167 -20 70.5 -35
s39.666 -33 54.999 -54s26.666 -44.5 33.999 -70.5c6.66699 26 18 49.5 34 70.5s34.833 39 56.5 54s45.334 26.667 71.001 35s51.167 12.5 76.5 12.5c42.667 0 80.5 -5.5 113.5 -16.5s61.5 -26.5 85.5 -46.5s43.167 -44.167 57.5 -72.5s23.833 -59.833 28.5 -94.5
c6.66699 1.33301 14.167 2.66602 22.5 4c8.33301 1.33301 16.166 2.33301 23.499 3c8 0.666992 16.333 1 25 1h103v-221h-343c-14 0 -26.667 3.5 -38 10.5s-17 19.167 -17 36.5c0 38 -8.33301 66.5 -25 85.5s-39 28.5 -67 28.5c-20.667 0 -37.5 -5.33301 -50.5 -16
s-22.833 -24 -29.5 -40s-10.667 -33.167 -12 -51.5s-0.333008 -34.833 3 -49.5h-248c2.66699 15.333 3.33398 32.166 2.00098 50.5c-1.33301 18.333 -5.33301 35.333 -12 51s-16.167 28.834 -28.5 39.5c-12.333 10.667 -28.5 16 -48.5 16
c-18 0 -33.167 -4.16699 -45.5 -12.5s-22 -19.166 -29 -32.5c-7 -13.333 -11.5 -28.166 -13.5 -44.5c-2 -16.333 -1.66699 -32.166 1 -47.5z" />
    <glyph glyph-name="maichattawathai.alt5" 
d="M-657 2782h-212v254h212v173h426v-173h212v-253h-212v-177h-426v176z" />
    <glyph glyph-name="thanthakhatthai.alt5" 
d="M-364 2797v-202h-419v282c0 24.667 4.16699 48.5 12.5 71.5s20.666 43.167 36.999 60.5s36.333 31.166 60 41.5c23.667 10.333 50.834 15.5 81.501 15.5h560v-269h-332z" />
    <glyph glyph-name="maiekthai.alt51" 
d="M-726 3288h446v-403h-446v403z" />
    <glyph glyph-name="maichattawathai.alt51" 
d="M-715 3024h-212v254h212v173h426v-173h212v-253h-212v-177h-426v176z" />
    <glyph glyph-name="maiekupperleftthai.alt6" 
d="M-1343 3083h446v-403h-446v403z" />
    <glyph glyph-name="maithoupperleftthai.alt6" 
d="M-728 3209v-222h513v-271h-902v214h-230v279h619z" />
    <glyph glyph-name="maitriupperleftthai.alt6" 
d="M-1467 2719c-1.33301 10.667 -2.49707 21.667 -3.49707 33s-1.5 24 -1.5 38c0 53.333 7.83301 102.333 23.5 147s38.667 83.167 69 115.5s67.666 57.5 111.999 75.5s95.166 27 152.499 27c27.333 0 53.833 -4.16699 79.5 -12.5s49.167 -20 70.5 -35
s39.666 -33 54.999 -54s26.666 -44.5 33.999 -70.5c6.66699 26 18 49.5 34 70.5s34.833 39 56.5 54s45.334 26.667 71.001 35s51.167 12.5 76.5 12.5c42.667 0 80.5 -5.5 113.5 -16.5s61.5 -26.5 85.5 -46.5s43.167 -44.167 57.5 -72.5s23.833 -59.833 28.5 -94.5
c6.66699 1.33301 14.167 2.66602 22.5 4c8.33301 1.33301 16.166 2.33301 23.499 3c8 0.666992 16.333 1 25 1h103v-221h-343c-14 0 -26.667 3.5 -38 10.5s-17 19.167 -17 36.5c0 38 -8.33301 66.5 -25 85.5s-39 28.5 -67 28.5c-20.667 0 -37.5 -5.33301 -50.5 -16
s-22.833 -24 -29.5 -40s-10.667 -33.167 -12 -51.5s-0.333008 -34.833 3 -49.5h-248c2.66699 15.333 3.33398 32.166 2.00098 50.5c-1.33301 18.333 -5.33301 35.333 -12 51s-16.167 28.834 -28.5 39.5c-12.333 10.667 -28.5 16 -48.5 16
c-18 0 -33.167 -4.16699 -45.5 -12.5s-22 -19.166 -29 -32.5c-7 -13.333 -11.5 -28.166 -13.5 -44.5c-2 -16.333 -1.66699 -32.166 1 -47.5zM-666.997 2640h446v403h-446v-403z" />
    <glyph glyph-name="maichattawaupperleftthai.alt6" 
d="M-1256 2816h-212v254h212v173h386v-173h212v-253h-212v-177h-386v176z" />
    <glyph glyph-name="thanthakhatupperleftthai.alt6" 
d="M-864 2842v-202h-419v282c0 24.667 4.16699 48.5 12.5 71.5s20.666 43.167 36.999 60.5s36.333 31.166 60 41.5c23.667 10.333 50.834 15.5 81.501 15.5h660v-269h-432z" />
    <glyph glyph-name="maiekupperleftthai.alt61" 
d="M-1386 3288h446v-403h-446v403z" />
    <glyph glyph-name="maithoupperleftthai.alt61" 
d="M-979 3376v-243h453v-270h-862v234h-230v279h639z" />
    <glyph glyph-name="maitriupperleftthai.alt61" 
d="M-1541 2866c-1.33301 10.667 -2.49707 21.667 -3.49707 33s-1.5 24 -1.5 38c0 53.333 7.83301 102.333 23.5 147s38.667 83.167 69 115.5s67.666 57.5 111.999 75.5s95.166 27 152.499 27c27.333 0 53.833 -4.16699 79.5 -12.5s49.167 -20 70.5 -35
s39.666 -33 54.999 -54s26.666 -44.5 33.999 -70.5c6.66699 26 18 49.5 34 70.5s34.833 39 56.5 54s45.334 26.667 71.001 35s51.167 12.5 76.5 12.5c42.667 0 80.5 -5.5 113.5 -16.5s61.5 -26.5 85.5 -46.5s43.167 -44.167 57.5 -72.5s23.833 -59.833 28.5 -94.5
c6.66699 1.33301 14.167 2.66602 22.5 4c8.33301 1.33301 16.166 2.33301 23.499 3c8 0.666992 16.333 1 25 1h103v-221h-343c-14 0 -26.667 3.5 -38 10.5s-17 19.167 -17 36.5c0 38 -8.33301 66.5 -25 85.5s-39 28.5 -67 28.5c-20.667 0 -37.5 -5.33301 -50.5 -16
s-22.833 -24 -29.5 -40s-10.667 -33.167 -12 -51.5s-0.333008 -34.833 3 -49.5h-248c2.66699 15.333 3.33398 32.166 2.00098 50.5c-1.33301 18.333 -5.33301 35.333 -12 51s-16.167 28.834 -28.5 39.5c-12.333 10.667 -28.5 16 -48.5 16
c-18 0 -33.167 -4.16699 -45.5 -12.5s-22 -19.166 -29 -32.5c-7 -13.333 -11.5 -28.166 -13.5 -44.5c-2 -16.333 -1.66699 -32.166 1 -47.5z" />
    <glyph glyph-name="maichattawaupperleftthai.alt61" 
d="M-1359 3038h-212v254h212v173h386v-173h212v-253h-212v-177h-386v176z" />
    <glyph glyph-name="saraithai.alt17" 
d="M-217 2406v-300h-1251v300h1251z" />
    <glyph glyph-name="saraiithai.alt17" 
d="M-645 2660h431v-554h-1253v300h822v254z" />
    <glyph glyph-name="sarauethai.alt17" 
d="M-872 2406c-1.33301 4.66699 -2.16797 10.834 -2.50098 18.5c-0.333008 7.66699 -0.5 13.834 -0.5 18.5c0 35.333 7.16699 70.5 21.5 105.5s35.5 66.333 63.5 94s62.833 50 104.5 67s89.834 25.5 144.501 25.5c55.333 0 103.833 -8.5 145.5 -25.5s76.5 -39.333 104.5 -67
s49 -59 63 -94s21 -70.5 21 -106.5c0 -17.333 -0.833008 -30.5 -2.5 -39.5s-3.16699 -16.5 -4.5 -22.5v-274h-1253v300h595zM-539.002 2497c-24.667 0 -45.334 -8 -62.001 -24s-25 -36.667 -25 -62c0 -22.667 8.33301 -42.167 25 -58.5s37.334 -24.5 62.001 -24.5
s45.334 8.16699 62.001 24.5s25 35.833 25 58.5c0 25.333 -8.33301 46 -25 62s-37.334 24 -62.001 24z" />
    <glyph glyph-name="saraueethai.alt17" 
d="M-634 2660h420v-554h-1253v300h273v254h420v-254h140v254z" />
    <glyph glyph-name="maihanakatleftthai.alt4" 
d="M-1174 2406h1197v-300h-1667v475h470v-175z" />
    <glyph glyph-name="saraileftthai.alt4" 
d="M-937 2106h-1253v300h1253v-300z" />
    <glyph glyph-name="saraiileftthai.alt4" 
d="M-1368 2660h431v-554h-1253v300h822v254z" />
    <glyph glyph-name="saraueleftthai.alt4" 
d="M-1595 2406c-1.33301 4.66699 -2.16797 10.834 -2.50098 18.5c-0.333008 7.66699 -0.5 13.834 -0.5 18.5c0 35.333 7.16699 70.5 21.5 105.5s35.5 66.333 63.5 94s62.833 50 104.5 67s89.834 25.5 144.501 25.5c55.333 0 103.833 -8.5 145.5 -25.5
s76.5 -39.333 104.5 -67s49 -59 63 -94s21 -70.5 21 -106.5c0 -17.333 -0.833008 -30.5 -2.5 -39.5s-3.16699 -16.5 -4.5 -22.5v-274h-1253v300h595zM-1262 2497c-24.667 0 -45.334 -8 -62.001 -24s-25 -36.667 -25 -62c0 -22.667 8.33301 -42.167 25 -58.5
s37.334 -24.5 62.001 -24.5s45.334 8.16699 62.001 24.5s25 35.833 25 58.5c0 25.333 -8.33301 46 -25 62s-37.334 24 -62.001 24z" />
    <glyph glyph-name="saraueeleftthai.alt4" 
d="M-1357 2660h420v-554h-1253v300h273v254h420v-254h140v254z" />
    <glyph glyph-name="maiekupperleftthai.alt62" 
d="M-1386 2988h446v-403h-446v403z" />
    <glyph glyph-name="maithoupperleftthai.alt62" 
d="M-882 3214v-243h453v-270h-862v234h-230v279h639z" />
    <glyph glyph-name="maitriupperleftthai.alt62" 
d="M-1596 2708c-1.33301 10.667 -2.49707 21.667 -3.49707 33s-1.5 24 -1.5 38c0 53.333 7.83301 102.333 23.5 147s38.667 83.167 69 115.5s67.666 57.5 111.999 75.5s95.166 27 152.499 27c27.333 0 53.833 -4.16699 79.5 -12.5s49.167 -20 70.5 -35
s39.666 -33 54.999 -54s26.666 -44.5 33.999 -70.5c6.66699 26 18 49.5 34 70.5s34.833 39 56.5 54s45.334 26.667 71.001 35s51.167 12.5 76.5 12.5c42.667 0 80.5 -5.5 113.5 -16.5s61.5 -26.5 85.5 -46.5s43.167 -44.167 57.5 -72.5s23.833 -59.833 28.5 -94.5
c6.66699 1.33301 14.167 2.66602 22.5 4c8.33301 1.33301 16.166 2.33301 23.499 3c8 0.666992 16.333 1 25 1h103v-221h-343c-14 0 -26.667 3.5 -38 10.5s-17 19.167 -17 36.5c0 38 -8.33301 66.5 -25 85.5s-39 28.5 -67 28.5c-20.667 0 -37.5 -5.33301 -50.5 -16
s-22.833 -24 -29.5 -40s-10.667 -33.167 -12 -51.5s-0.333008 -34.833 3 -49.5h-248c2.66699 15.333 3.33398 32.166 2.00098 50.5c-1.33301 18.333 -5.33301 35.333 -12 51s-16.167 28.834 -28.5 39.5c-12.333 10.667 -28.5 16 -48.5 16
c-18 0 -33.167 -4.16699 -45.5 -12.5s-22 -19.166 -29 -32.5c-7 -13.333 -11.5 -28.166 -13.5 -44.5c-2 -16.333 -1.66699 -32.166 1 -47.5z" />
    <glyph glyph-name="maichattawaupperleftthai.alt62" 
d="M-1364 2727h-212v254h212v173h426v-173h212v-253h-212v-177h-426v176z" />
    <glyph glyph-name="thanthakhatupperleftthai.alt62" 
d="M-1064 2742v-202h-419v282c0 24.667 4.16699 48.5 12.5 71.5s20.666 43.167 36.999 60.5s36.333 31.166 60 41.5c23.667 10.333 50.834 15.5 81.501 15.5h580v-269h-352z" />
    <glyph glyph-name="saraithai.alt171" 
d="M-216 2106h-1974v300h1974v-300z" />
    <glyph glyph-name="saraiithai.alt171" 
d="M-645 2660h431v-554h-1976v300h1545v254z" />
    <glyph glyph-name="sarauethai.alt171" 
d="M-872 2406c-1.33301 4.66699 -2.16797 10.834 -2.50098 18.5c-0.333008 7.66699 -0.5 13.834 -0.5 18.5c0 35.333 7.16699 70.5 21.5 105.5s35.5 66.333 63.5 94s62.833 50 104.5 67s89.834 25.5 144.501 25.5c55.333 0 103.833 -8.5 145.5 -25.5s76.5 -39.333 104.5 -67
s49 -59 63 -94s21 -70.5 21 -106.5c0 -17.333 -0.833008 -30.5 -2.5 -39.5s-3.16699 -16.5 -4.5 -22.5v-274h-1976v300h1318zM-539.002 2497c-24.667 0 -45.334 -8 -62.001 -24s-25 -36.667 -25 -62c0 -22.667 8.33301 -42.167 25 -58.5s37.334 -24.5 62.001 -24.5
s45.334 8.16699 62.001 24.5s25 35.833 25 58.5c0 25.333 -8.33301 46 -25 62s-37.334 24 -62.001 24z" />
    <glyph glyph-name="saraueethai.alt171" 
d="M-634 2660h420v-554h-1976v300h996v254h420v-254h140v254z" />
    <glyph glyph-name="sarauthai.alt17" 
d="M-180 -695h-480v238h-224v246h704v-484z" />
    <glyph glyph-name="sarauuthai.alt17" 
d="M-165 -233c-15.333 -70 -39.4971 -132.833 -72.4971 -188.5s-73.667 -102.834 -122 -141.501s-104 -68.334 -167 -89.001s-131.833 -31 -206.5 -31s-143.334 10.333 -206.001 31s-118.167 50.334 -166.5 89.001s-89 85.834 -122 141.501s-57.167 118.5 -72.5 188.5
l352 80c5.33301 -30.667 14.666 -58.167 27.999 -82.5s29.833 -45.166 49.5 -62.499s41.5 -30.666 65.5 -39.999s49.333 -14 76 -14s52 4.66699 76 14s45.833 22.666 65.5 39.999s36.167 38.166 49.5 62.499s22.666 51.833 27.999 82.5z" />
    <glyph glyph-name="maieklowrightthai.alt17" 
d="M-755 2620h486v-502h-486v502z" />
    <glyph glyph-name="maitholowrightthai.alt17" 
d="M-677 2661v-283h573v-270h-982v274h-230v279h639z" />
    <glyph glyph-name="maitrilowrightthai.alt17" 
d="M-1274 2117c-1.33301 10.667 -2.49707 21.667 -3.49707 33s-1.5 24 -1.5 38c0 53.333 7.83301 102.333 23.5 147s38.667 83.167 69 115.5s67.666 57.5 111.999 75.5s95.166 27 152.499 27c27.333 0 53.833 -4.16699 79.5 -12.5s49.167 -20 70.5 -35
s39.666 -33 54.999 -54s26.666 -44.5 33.999 -70.5c6.66699 26 18 49.5 34 70.5s34.833 39 56.5 54s45.334 26.667 71.001 35s51.167 12.5 76.5 12.5c42.667 0 80.5 -5.5 113.5 -16.5s61.5 -26.5 85.5 -46.5s43.167 -44.167 57.5 -72.5s23.833 -59.833 28.5 -94.5
c6.66699 1.33301 14.167 2.66602 22.5 4c8.33301 1.33301 16.166 2.33301 23.499 3c8 0.666992 16.333 1 25 1h63v-221h-303c-14 0 -26.667 3.5 -38 10.5s-17 19.167 -17 36.5c0 38 -8.33301 66.5 -25 85.5s-39 28.5 -67 28.5c-20.667 0 -37.5 -5.33301 -50.5 -16
s-22.833 -24 -29.5 -40s-10.667 -33.167 -12 -51.5s-0.333008 -34.833 3 -49.5h-248c2.66699 15.333 3.33398 32.166 2.00098 50.5c-1.33301 18.333 -5.33301 35.333 -12 51s-16.167 28.834 -28.5 39.5c-12.333 10.667 -28.5 16 -48.5 16
c-18 0 -33.167 -4.16699 -45.5 -12.5s-22 -19.166 -29 -32.5c-7 -13.333 -11.5 -28.166 -13.5 -44.5c-2 -16.333 -1.66699 -32.166 1 -47.5z" />
    <glyph glyph-name="maichattawalowrightthai.alt17" 
d="M-713 2284h-212v254h212v173h386v-173h212v-253h-212v-177h-386v176z" />
    <glyph glyph-name="thanthakhatlowrightthai.alt17" 
d="M-470 2339v-202h-419v282c0 24.667 4.16699 48.5 12.5 71.5s20.666 43.167 36.999 60.5s36.333 31.166 60 41.5c23.667 10.333 50.834 15.5 81.501 15.5h580v-269h-352z" />
    <glyph glyph-name="maiekthai.alt52" 
d="M-667 3043h446v-403h-446v403z" />
    <glyph glyph-name="maithothai.alt52" 
d="M-331 3153v-243h453v-270h-862v234h-230v279h639z" />
    <glyph glyph-name="maitrithai.alt52" 
d="M-1306 2742c-1.33301 10.667 -2.49707 21.667 -3.49707 33s-1.5 24 -1.5 38c0 53.333 7.83301 102.333 23.5 147s38.667 83.167 69 115.5s67.666 57.5 111.999 75.5s95.166 27 152.499 27c27.333 0 53.833 -4.16699 79.5 -12.5s49.167 -20 70.5 -35
s39.666 -33 54.999 -54s26.666 -44.5 33.999 -70.5c6.66699 26 18 49.5 34 70.5s34.833 39 56.5 54s45.334 26.667 71.001 35s51.167 12.5 76.5 12.5c42.667 0 80.5 -5.5 113.5 -16.5s61.5 -26.5 85.5 -46.5s43.167 -44.167 57.5 -72.5s23.833 -59.833 28.5 -94.5
c6.66699 1.33301 14.167 2.66602 22.5 4c8.33301 1.33301 16.166 2.33301 23.499 3c8 0.666992 16.333 1 25 1h103v-221h-343c-14 0 -26.667 3.5 -38 10.5s-17 19.167 -17 36.5c0 38 -8.33301 66.5 -25 85.5s-39 28.5 -67 28.5c-20.667 0 -37.5 -5.33301 -50.5 -16
s-22.833 -24 -29.5 -40s-10.667 -33.167 -12 -51.5s-0.333008 -34.833 3 -49.5h-248c2.66699 15.333 3.33398 32.166 2.00098 50.5c-1.33301 18.333 -5.33301 35.333 -12 51s-16.167 28.834 -28.5 39.5c-12.333 10.667 -28.5 16 -48.5 16
c-18 0 -33.167 -4.16699 -45.5 -12.5s-22 -19.166 -29 -32.5c-7 -13.333 -11.5 -28.166 -13.5 -44.5c-2 -16.333 -1.66699 -32.166 1 -47.5z" />
    <glyph glyph-name="maichattawathai.alt52" 
d="M-639 2829h-212v254h212v173h386v-173h212v-253h-212v-177h-386v176z" />
    <glyph glyph-name="saraithai.alt172" 
d="M-214 2106h-1588v300h1588v-300z" />
    <glyph glyph-name="saraiithai.alt172" 
d="M-645 2660h431v-554h-1588v300h1157v254z" />
    <glyph glyph-name="sarauethai.alt172" 
d="M-872 2406c-1.33301 4.66699 -2.16797 10.834 -2.50098 18.5c-0.333008 7.66699 -0.5 13.834 -0.5 18.5c0 35.333 7.16699 70.5 21.5 105.5s35.5 66.333 63.5 94s62.833 50 104.5 67s89.834 25.5 144.501 25.5c55.333 0 103.833 -8.5 145.5 -25.5s76.5 -39.333 104.5 -67
s49 -59 63 -94s21 -70.5 21 -106.5c0 -17.333 -0.833008 -30.5 -2.5 -39.5s-3.16699 -16.5 -4.5 -22.5v-274h-1588v300h930zM-539.002 2497c-24.667 0 -45.334 -8 -62.001 -24s-25 -36.667 -25 -62c0 -22.667 8.33301 -42.167 25 -58.5s37.334 -24.5 62.001 -24.5
s45.334 8.16699 62.001 24.5s25 35.833 25 58.5c0 25.333 -8.33301 46 -25 62s-37.334 24 -62.001 24z" />
    <glyph glyph-name="saraueethai.alt172" 
d="M-634 2660h420v-554h-1588v300h608v254h420v-254h140v254z" />
    </font>
</defs>
</svg>
